<?xml version="1.0" encoding="UTF-8" standalone="no"?>
<svg
   xmlns:dc="http://purl.org/dc/elements/1.1/"
   xmlns:cc="http://creativecommons.org/ns#"
   xmlns:rdf="http://www.w3.org/1999/02/22-rdf-syntax-ns#"
   xmlns:svg="http://www.w3.org/2000/svg"
   xmlns="http://www.w3.org/2000/svg"
   xmlns:xlink="http://www.w3.org/1999/xlink"
   id="svg8"
   version="1.1"
   viewBox="0 0 70.326248 70.326248"
   height="70.326248mm"
   width="70.326248mm">
  <defs
     id="defs2">
    <rect
       y="0"
       x="0"
       id="SVGID_1_"
       width="841.90002"
       height="595.29999" />
    <rect
       y="0"
       x="0"
       id="SVGID_3_"
       width="841.90002"
       height="595.29999" />
  </defs>
  <metadata
     id="metadata5">
    <rdf:RDF>
      <cc:Work
         rdf:about="">
        <dc:format>image/svg+xml</dc:format>
        <dc:type
           rdf:resource="http://purl.org/dc/dcmitype/StillImage" />
        <dc:title></dc:title>
      </cc:Work>
    </rdf:RDF>
  </metadata>
  <g
     transform="translate(-66.890447,-25.223777)"
     id="layer1">
    <g
       transform="matrix(0.26458333,0,0,0.26458333,52.788156,13.978985)"
       id="g179">
      <g
         id="g134">
	<defs
   id="defs109">
		<rect
   y="0"
   x="0"
   id="rect156"
   width="841.90002"
   height="595.29999" />

	</defs>

	<clipPath
   id="SVGID_2_">
		<use
   height="100%"
   width="100%"
   y="0"
   x="0"
   xlink:href="#SVGID_1_"
   style="overflow:visible"
   id="use111" />

	</clipPath>

	<path
   class="st0"
   d="m 258.8,187.7 c -2,-0.3 -4.8,-0.6 -6.6,-0.9 1.9,-4 3,-6.3 3,-6.3 0.1,-0.8 2.2,-4.4 3,-7.4 0.8,-2.4 1.2,-6.9 1.2,-7.7 0,-7.7 -2.7,-14.7 -7.2,-19.8 -4.5,-5.1 -10.9,-8.2 -18.1,-8.2 -1.5,0 -3.2,0.1 -7.2,0.9 -4.1,1 -6.1,1.6 -9.7,2.5 -6.1,1.9 -8.7,2.9 -17.4,7.1 -0.9,0.4 -1.3,1.2 -1.4,1.8 -0.2,0.6 -0.1,1 -0.1,1 l -0.4,32.7 h -5.5 v -35.7 c 0,0 0,-1 0.4,-2.2 0.4,-1.2 1.3,-2.4 2.8,-3.4 1.2,-0.8 2.4,-1.5 3.6,-2.1 -1.3,-0.9 -2.2,-2.4 -2.2,-4.1 0,-2.7 2.2,-4.9 4.9,-4.9 2.7,0 4.9,2.2 4.9,4.9 0,0.3 -0.1,0.5 -0.1,0.7 0.1,0 0.2,-0.1 0.3,-0.1 1.1,-0.4 2.3,-0.7 3.5,-1.1 -1.5,-0.8 -2.5,-2.4 -2.5,-4.3 0,-2.7 2.2,-4.9 4.9,-4.9 2.7,0 4.9,2.2 4.9,4.9 0,0.8 -0.3,1.6 -0.6,2.3 2.4,-0.7 4.1,-1.1 4.1,-1.1 0.2,-0.1 0.5,-0.1 0.7,-0.2 -1.3,-0.9 -2.2,-2.4 -2.2,-4.1 0,-2.7 2.2,-4.9 4.9,-4.9 2.7,0 4.9,2.2 4.9,4.9 0,0.9 -0.3,1.8 -0.7,2.6 0,0 0.1,0 0.1,0 1.7,-0.3 3.6,-0.4 5.4,-0.4 -0.6,-0.8 -0.9,-1.8 -0.9,-2.9 0,-2.7 2.2,-4.9 4.9,-4.9 2.7,0 4.9,2.2 4.9,4.9 0,1.5 -0.7,2.8 -1.8,3.7 1.8,0.5 3.6,1.1 5.3,1.9 -0.1,-0.5 -0.2,-0.9 -0.2,-1.4 0,-2.7 2.2,-4.9 4.9,-4.9 2.7,0 4.9,2.2 4.9,4.9 0,2.4 -1.7,4.4 -4,4.8 1.5,1.1 2.9,2.4 4.2,3.8 V 140 c 0,-2.7 2.2,-4.9 4.9,-4.9 2.7,0 4.9,2.2 4.9,4.9 0,2.7 -2.2,4.9 -4.9,4.9 -0.5,0 -0.9,-0.1 -1.4,-0.2 0.9,1.4 1.8,2.9 2.5,4.4 0.9,-1.3 2.4,-2.1 4.1,-2.1 2.7,0 4.9,2.2 4.9,4.9 0,2.7 -2.2,4.9 -4.9,4.9 -0.6,0 -1.1,-0.1 -1.6,-0.3 0.3,1.3 0.5,2.7 0.7,4.1 0.6,-0.2 1.2,-0.4 1.9,-0.4 2.7,0 4.9,2.2 4.9,4.9 0,2.7 -2.2,4.9 -4.9,4.9 -0.8,0 -1.5,-0.2 -2.1,-0.5 -0.1,0.5 -0.2,1.1 -0.2,1.6 -0.2,0.6 -0.3,1.1 -0.4,1.5 2.4,0.3 4.3,2.3 4.3,4.9 0,2.7 -2.2,4.9 -4.9,4.9 -1,0 -2,-0.3 -2.7,-0.8 -1.1,1.8 -1.9,3.8 -2.9,6.1"
   clip-path="url(#SVGID_2_)"
   id="path114" />

	<path
   class="st0"
   d="m 186.2,183.9 c -2.6,0 -4.7,-2.1 -4.7,-4.7 0,-2.6 2.1,-4.7 4.7,-4.7 v 0 0 c 2.6,0 4.7,2.1 4.7,4.7 0,2.6 -2.1,4.7 -4.7,4.7 z"
   clip-path="url(#SVGID_2_)"
   id="path116" />

	<path
   class="st0"
   d="m 186.2,172.5 c 2.5,0 4.5,-2 4.5,-4.5 0,-2.5 -2,-4.5 -4.5,-4.5 v 0 0 c -2.5,0 -4.5,2 -4.5,4.5 0,2.5 2,4.5 4.5,4.5 z"
   clip-path="url(#SVGID_2_)"
   id="path118" />

	<path
   class="st0"
   d="m 186.2,161.5 c -2.4,0 -4.3,-1.9 -4.3,-4.3 0,-2.4 1.9,-4.3 4.3,-4.3 v 0 c 2.4,0 4.3,1.9 4.3,4.3 0,2.3 -1.9,4.2 -4.3,4.3 z"
   clip-path="url(#SVGID_2_)"
   id="path120" />

	<path
   class="st0"
   d="m 186.2,141.3 c 2.2,0 4,-1.8 4,-4 0,-2.2 -1.8,-4 -4,-4 v 0 c -2.2,0 -4,1.8 -4,4 0,2.2 1.8,4 4,4 z"
   clip-path="url(#SVGID_2_)"
   id="path122" />

	<path
   class="st0"
   d="m 186.2,151.1 c -2.3,0 -4.1,-1.8 -4.1,-4.1 0,-2.2 1.8,-4.1 4.1,-4.1 v 0 c 2.3,0 4.1,1.8 4.1,4.1 0,2.2 -1.8,4.1 -4.1,4.1 z"
   clip-path="url(#SVGID_2_)"
   id="path124" />

	<path
   class="st0"
   d="m 200.4,86.3 c -0.1,-0.3 -0.4,-0.7 -0.9,-0.7 -0.6,0 -0.9,0.4 -1,0.7 -0.9,3.6 -2.8,7 -9.8,7.6 0.3,-3.1 1.1,-5.4 2.5,-7.1 1.3,-1.4 3.1,-2.4 5.8,-3 0.1,0 0.4,-0.1 0.6,-0.3 0.1,-0.1 0.2,-0.3 0.2,-0.7 0,-0.3 -0.2,-0.5 -0.3,-0.6 C 197.3,82 197,82 196.9,82 h -10.8 -1.1 -9.7 c -0.1,0 -0.4,0 -0.6,0.2 -0.1,0.1 -0.3,0.3 -0.3,0.6 0,0.3 0.1,0.5 0.2,0.7 0.2,0.2 0.5,0.3 0.6,0.3 2.7,0.6 4.5,1.5 5.8,3 1.4,1.6 2.2,4 2.5,7.1 -7.1,-0.6 -8.9,-4 -9.8,-7.6 -0.1,-0.3 -0.4,-0.7 -1,-0.7 -0.5,0 -0.8,0.4 -0.9,0.7 v 0.1 19.6 c 0,0.4 0.3,0.9 1,0.8 0.7,0 0.9,-0.4 1,-0.6 v -0.1 c 1.7,-4.1 5.2,-6.8 9.8,-7.4 -0.3,3.2 -1.1,5.6 -2.6,7.4 -1.3,1.4 -3.1,2.4 -5.8,2.9 h -0.1 c -0.2,0 -0.4,0.1 -0.5,0.3 -0.1,0.1 -0.2,0.3 -0.2,0.7 0,0.3 0.2,0.5 0.3,0.6 0.2,0.2 0.4,0.2 0.6,0.2 h 9.6 1.1 10.7 c 0.2,0 0.4,-0.1 0.6,-0.2 0.1,-0.1 0.3,-0.3 0.3,-0.6 0,-0.4 -0.1,-0.6 -0.2,-0.7 -0.1,-0.1 -0.3,-0.2 -0.5,-0.3 h -0.1 c -2.7,-0.6 -4.5,-1.5 -5.8,-2.9 -1.5,-1.7 -2.3,-4.1 -2.6,-7.4 4.6,0.7 8.1,3.3 9.8,7.4 v 0.1 c 0.1,0.2 0.3,0.6 1,0.6 0.7,0 1,-0.5 1,-0.8 z"
   clip-path="url(#SVGID_2_)"
   id="path126" />

	<path
   class="st0"
   d="m 186.2,132.6 c 5.7,0 10.4,-4.7 10.4,-10.4 0,-5.7 -4.7,-10.4 -10.4,-10.4 v 0 c -5.7,0 -10.4,4.7 -10.4,10.4 0,5.7 4.6,10.4 10.4,10.4 z"
   clip-path="url(#SVGID_2_)"
   id="path128" />

	<path
   class="st0"
   d="m 111.1,181.8 c -0.8,0.5 -1.7,0.8 -2.7,0.8 -2.7,0 -4.9,-2.2 -4.9,-4.9 0,-2.5 1.8,-4.6 4.3,-4.9 -0.1,-0.5 -0.3,-1 -0.4,-1.5 -0.1,-0.6 -0.1,-1.1 -0.2,-1.6 -0.6,0.3 -1.4,0.5 -2.1,0.5 -2.7,0 -4.9,-2.2 -4.9,-4.9 0,-2.7 2.2,-4.9 4.9,-4.9 0.7,0 1.3,0.1 1.9,0.4 0.2,-1.4 0.4,-2.8 0.7,-4.1 -0.5,0.2 -1,0.3 -1.6,0.3 -2.7,0 -4.9,-2.2 -4.9,-4.9 0,-2.7 2.2,-4.9 4.9,-4.9 1.7,0 3.2,0.8 4.1,2.1 0.7,-1.5 1.5,-3 2.5,-4.4 -0.4,0.1 -0.9,0.2 -1.4,0.2 -2.7,0 -4.9,-2.2 -4.9,-4.9 0,-2.7 2.2,-4.9 4.9,-4.9 2.7,0 4.9,2.2 4.9,4.9 v 0.1 c 1.3,-1.4 2.7,-2.6 4.2,-3.8 -2.3,-0.4 -4,-2.4 -4,-4.8 0,-2.7 2.2,-4.9 4.9,-4.9 2.7,0 4.9,2.2 4.9,4.9 0,0.5 -0.1,1 -0.3,1.4 1.7,-0.8 3.5,-1.4 5.3,-1.9 -1.1,-0.9 -1.8,-2.2 -1.8,-3.7 0,-2.7 2.2,-4.9 4.9,-4.9 2.7,0 4.9,2.2 4.9,4.9 0,1.1 -0.4,2 -0.9,2.9 1.7,0 3.7,0.1 5.4,0.4 0,0 0.1,0 0.1,0 -0.5,-0.8 -0.7,-1.6 -0.7,-2.6 0,-2.7 2.2,-4.9 4.9,-4.9 2.7,0 4.9,2.2 4.9,4.9 0,1.7 -0.9,3.2 -2.2,4.1 0.3,0.1 0.5,0.1 0.7,0.2 0,0 1.7,0.4 4.1,1.1 -0.4,-0.7 -0.6,-1.5 -0.6,-2.3 0,-2.7 2.2,-4.9 4.9,-4.9 2.7,0 4.9,2.2 4.9,4.9 0,1.8 -1,3.4 -2.5,4.2 1.2,0.4 2.4,0.7 3.5,1.1 0.1,0 0.2,0.1 0.3,0.1 0,-0.2 -0.1,-0.5 -0.1,-0.7 0,-2.7 2.2,-4.9 4.9,-4.9 2.7,0 4.9,2.2 4.9,4.9 0,1.7 -0.9,3.2 -2.2,4.1 1.2,0.7 2.4,1.4 3.6,2.1 1.5,1 2.4,2.2 2.8,3.4 0.4,1.2 0.4,2.2 0.4,2.2 v 35.7 h -5.5 l -0.4,-32.7 c 0,0 0,-0.5 -0.1,-1 -0.2,-0.6 -0.5,-1.4 -1.4,-1.8 -8.8,-4.2 -11.3,-5.2 -17.5,-7.1 -3.6,-1 -5.6,-1.5 -9.7,-2.5 -4,-0.8 -5.8,-0.9 -7.2,-0.9 -7.2,0 -13.5,3.1 -18.1,8.2 -4.5,5.1 -7.2,12.1 -7.2,19.8 0,0.7 0.4,5.2 1.2,7.7 0.8,3 2.9,6.6 3,7.4 0,0 1.1,2.3 3,6.3 -1.8,0.2 -4.6,0.6 -6.6,0.9 -1.1,-2.4 -2,-4.4 -2.7,-6"
   clip-path="url(#SVGID_2_)"
   id="path130" />

	<path
   class="st0"
   d="m 232.8,228.9 c -0.1,1.6 -1.4,2.8 -3,2.7 l -15.5,-0.8 c -1.6,-0.1 -2.8,-1.4 -2.7,-3 l 0.1,-2.2 c 0.1,-1.6 1.4,-2.8 3,-2.7 l 15.5,0.8 c 1.6,0.1 2.8,1.4 2.7,3 z m -40.3,-2 -5.5,5.5 c -0.2,0.2 -0.5,0.3 -0.7,0.3 v 0 c -0.3,0 -0.5,-0.1 -0.7,-0.3 l -5.5,-5.5 c -0.5,-0.4 -0.5,-1.1 0,-1.6 l 5.5,-5.5 c 0.2,-0.2 0.5,-0.3 0.7,-0.3 v 0 c 0.3,0 0.5,0.1 0.7,0.3 l 5.5,5.5 c 0.4,0.4 0.4,1.1 0,1.6 m -34.3,3.9 -15.5,0.8 c -1.6,0.1 -2.9,-1.1 -3,-2.7 l -0.1,-2.2 c -0.1,-1.6 1.1,-2.9 2.7,-3 l 15.5,-0.8 c 1.6,-0.1 3,1.1 3,2.7 l 0.1,2.2 c 0.1,1.6 -1.1,2.9 -2.7,3 m 105,-39.2 c -0.5,-0.7 -1.3,-1.1 -2.3,-1.3 -0.3,-0.1 -9.7,-1.3 -10.8,-1.4 -0.3,0 -0.7,0.2 -0.8,0.8 -0.1,0.6 0.3,1 0.6,1.1 h -0.1 c 5,2.3 7.9,7 8,12.6 -7.7,-1.6 -9.7,-5.6 -10.1,-11 0,-0.2 -0.2,-0.7 -0.9,-0.7 -0.6,0 -0.9,0.2 -1,0.5 v 0 l -2.9,23.6 v 0 c 0,0.3 0.2,0.7 0.7,0.9 0.5,0.1 0.9,-0.2 1.1,-0.5 2.3,-5 7,-8 12.5,-8.1 -1.5,5.5 -5.6,9.9 -11,11.3 v 0 c -4,-0.4 -8.1,-0.8 -12.2,-1.2 -3.9,-1.2 -6.8,-3.3 -7.8,-8.1 0.1,-0.6 0.2,-1.3 0.4,-1.9 1,-2.7 2.9,-4.4 5.1,-3.7 2.3,0.8 2.5,3.4 1.5,6.1 -0.4,1.1 -1,2 -1.8,2.7 2.3,0 4.4,-0.9 6.1,-3.2 2.7,-3.9 2.4,-9.9 -1.9,-12.4 -2.8,-1.6 -6.7,0.3 -9.6,3.9 0.9,-5.8 4.4,-10.9 4.8,-15.3 0.6,-6.3 -1.9,-13.3 -5.3,-15.2 -3.6,1.3 -6.8,7.8 -7.2,14.1 -0.2,4.5 2.8,10.4 3,16.2 -2.4,-4.2 -6.1,-6.7 -9.1,-5.4 -4.6,1.9 -5.7,7.8 -3.5,12 1.4,2.5 3.3,3.6 5.6,4 -0.6,-0.8 -1.1,-1.8 -1.4,-2.9 -0.6,-2.8 -0.1,-5.3 2.3,-5.8 2.2,-0.5 3.9,1.5 4.5,4.3 0.2,0.9 0.2,1.8 0.1,2.6 v 0 c -1.8,4.2 -5,5.7 -9,6.6 -4.1,-0.2 -8.2,-0.3 -12.3,-0.4 v 0 l -0.4,-0.1 c -5.8,-0.9 -8.7,-4.6 -9.3,-11.6 5.1,0.8 9,3.7 10.9,8.3 0.1,0.3 0.4,0.7 1.1,0.7 0.8,0 1.1,-0.5 1.1,-0.9 V 191 190.9 c -0.1,-0.3 -0.4,-0.7 -1,-0.7 -0.6,0 -0.9,0.4 -1,0.6 v 0 0 c -1,4 -3.1,7.8 -11,8.5 0.7,-7.7 4.2,-10.1 9.3,-11.2 0.1,0 0.4,-0.1 0.6,-0.3 0.1,-0.1 0.3,-0.3 0.3,-0.6 v -0.1 c 0,-0.3 -0.2,-0.6 -0.3,-0.7 -0.2,-0.2 -0.5,-0.2 -0.6,-0.2 h -11.3 -1.3 -11.2 c -0.1,0 -0.4,0 -0.6,0.2 -0.1,0.1 -0.3,0.3 -0.3,0.7 v 0.1 c 0,0.3 0.1,0.5 0.3,0.6 0.2,0.2 0.5,0.3 0.6,0.3 5.2,1.1 8.7,3.5 9.3,11.2 -8,-0.6 -10,-4.4 -11.1,-8.5 v 0 0 c -0.1,-0.2 -0.4,-0.6 -1,-0.6 -0.6,0 -0.9,0.4 -1,0.7 v 0.1 21.8 c 0,0.4 0.3,0.9 1.1,0.9 0.7,0 1,-0.4 1.1,-0.7 1.9,-4.6 5.8,-7.5 10.9,-8.3 -0.6,6.9 -3.5,10.6 -9.3,11.6 l -0.4,0.1 v 0 c -4.1,0.1 -8.2,0.2 -12.3,0.4 -4,-1 -7.2,-2.4 -9,-6.6 v 0 c -0.1,-0.8 -0.1,-1.7 0.1,-2.6 0.6,-2.8 2.3,-4.8 4.5,-4.3 2.4,0.5 2.9,3 2.3,5.8 -0.3,1.1 -0.7,2.2 -1.4,2.9 2.3,-0.4 4.2,-1.5 5.6,-4 2.2,-4.2 1,-10.1 -3.5,-12 -3,-1.3 -6.7,1.2 -9.1,5.4 0.2,-5.9 3.2,-11.8 3,-16.2 -0.3,-6.3 -3.6,-12.7 -7.2,-14.1 -3.5,1.9 -5.9,8.9 -5.3,15.2 0.4,4.5 3.9,9.6 4.8,15.3 -2.9,-3.7 -6.8,-5.6 -9.6,-3.9 -4.3,2.5 -4.6,8.5 -1.9,12.4 1.6,2.3 3.7,3.2 6.1,3.2 -0.7,-0.7 -1.3,-1.6 -1.8,-2.7 -1,-2.7 -0.8,-5.2 1.5,-6.1 2.2,-0.8 4.1,1 5.1,3.7 0.2,0.6 0.4,1.3 0.4,1.9 -1.1,4.9 -3.9,7 -7.8,8.1 -4.1,0.4 -8.1,0.7 -12.2,1.2 v 0 c -5.4,-1.5 -9.5,-5.8 -11,-11.3 5.5,0.1 10.2,3.1 12.5,8.1 0.1,0.4 0.6,0.6 1.1,0.5 0.5,-0.1 0.7,-0.5 0.7,-0.9 v 0 l -2.9,-23.6 v 0 c -0.1,-0.3 -0.4,-0.5 -1,-0.5 -0.6,0.1 -0.9,0.5 -0.9,0.7 -0.5,5.5 -2.4,9.4 -10.1,11 0.1,-5.6 3,-10.3 8,-12.6 h -0.1 c 0.3,-0.1 0.7,-0.4 0.6,-1.1 -0.1,-0.6 -0.5,-0.8 -0.8,-0.8 -1.1,0.1 -10.4,1.4 -10.8,1.4 -1,0.1 -1.8,0.6 -2.3,1.3 -0.5,0.7 -0.7,1.7 -0.5,2.8 0.3,1.6 3.5,24.4 3.8,26.5 0,0.2 0.3,2.3 0.4,2.9 0.1,0.7 0.9,1.3 0.9,1.3 0,0 4.8,3.2 5.6,3.9 0.8,0.6 0.4,1.7 0.4,1.7 l -4.2,6.2 c -0.3,0.4 -0.5,0.8 -0.5,0.8 -0.1,0.3 -0.1,0.5 -0.1,0.8 0,0.8 0.3,1.4 0.9,1.8 h 69.7 1.7 69.4 c 0.6,-0.4 0.9,-1.1 0.9,-1.8 0,-0.3 0,-0.5 -0.1,-0.8 0,0 -0.2,-0.4 -0.5,-0.8 l -4.2,-6.2 c 0,0 -0.5,-1.1 0.4,-1.7 0.8,-0.6 5.6,-3.9 5.6,-3.9 0,0 0.8,-0.7 0.9,-1.3 0.1,-0.6 0.3,-2.8 0.4,-2.9 0.3,-2.1 3.6,-24.9 3.8,-26.5 -0.1,-1.1 -0.3,-2 -0.8,-2.8"
   clip-path="url(#SVGID_2_)"
   id="path132" />

</g>
      <g
         id="g144">
	<defs
   id="defs137">
		<rect
   y="0"
   x="0"
   id="rect172"
   width="841.90002"
   height="595.29999" />

	</defs>

	<clipPath
   id="SVGID_4_">
		<use
   height="100%"
   width="100%"
   y="0"
   x="0"
   xlink:href="#SVGID_3_"
   style="overflow:visible"
   id="use139" />

	</clipPath>

	<path
   class="st1"
   d="m 186.2,57.7 c -65,0 -117.7,52.7 -117.7,117.7 0,65 52.7,117.7 117.7,117.7 65,0 117.7,-52.7 117.7,-117.7 0,-65 -52.7,-117.7 -117.7,-117.7 m 132.9,117.7 c 0,73.4 -59.5,132.9 -132.9,132.9 -73.4,0 -132.9,-59.5 -132.9,-132.9 0,-73.4 59.5,-132.9 132.9,-132.9 73.4,0 132.9,59.5 132.9,132.9"
   clip-path="url(#SVGID_4_)"
   id="path142" />

</g>
    </g>
  </g>
  <style
     type="text/css"
     id="style106">
	.st0{clip-path:url(#SVGID_2_);}
	.st1{clip-path:url(#SVGID_4_);}
</style>
</svg>