<svg id="Layer_1" data-name="Layer 1" xmlns="http://www.w3.org/2000/svg" viewBox="0 0 1200 819.91"><defs><style>.cls-1{fill:#010101;}</style></defs><title>N26_Logo_Black</title><path class="cls-1" d="M302.29,179.3V494.88h0c0,27.93.65,44.83,1.95,61.07h-1.3c-6.83-18.6-14.88-34.9-26.89-56.12L89.41,179.3H4.11V640.6H70.57V325h0c0-27.94-.65-44.83-1.94-61.08H70c6.82,18.6,14.87,34.89,26.89,56.1L283.47,640.6h84.4V179.3Z"/><path class="cls-1" d="M1060.44,333.69c-55,0-94.27,25.44-114.12,63.1,0-89,31-166.47,104.7-166.47,46.84,0,65.43,26.95,75.36,71.14l68.22-13.65c-16-76.29-64.53-113.37-143.1-113.37-98.72,0-172.58,75.8-172.58,245.69,0,150.81,61.59,225.35,167.71,225.35,87.69,0,153.37-59.88,153.37-158.55C1200,409.84,1158.9,333.69,1060.44,333.69ZM1046.8,589.74c-54.42,0-92.1-50-98.62-116.39,16.53-56.63,53.18-84.84,96.52-84.84,55.71,0,87.14,41.14,87.14,99.63C1131.84,550.92,1096,589.74,1046.8,589.74Z"/><path class="cls-1" d="M577.29,580.84c34.73-24,84.52-63.87,106.61-86,25.11-25.12,96.59-89.69,96.59-181.74,0-95.15-62-138.7-145.85-138.7C533,174.44,482.81,237,482.81,308.57A146.72,146.72,0,0,0,487.36,345L557,351.7a185.21,185.21,0,0,1-4.55-39.63c0-53.6,35.47-79.25,79.88-79.25,43.3,0,75.35,24.26,75.35,82.6,0,59.29-29,99.7-73.16,143.91C588.35,505.53,514.55,560.65,479,586V640.6H785.67V580.84Z"/><path class="cls-1" d="M372,760.14v59.77H0V760.14Z"/><path class="cls-1" d="M372,0V59.77H0V0Z"/><path class="cls-1" d="M302.29,179.3V494.88h0c0,27.93.65,44.83,1.95,61.07h-1.3c-6.83-18.6-14.88-34.9-26.89-56.12L89.41,179.3H4.11V640.6H70.57V325h0c0-27.94-.65-44.83-1.94-61.08H70c6.82,18.6,14.87,34.89,26.89,56.1L283.47,640.6h84.4V179.3Z"/></svg>