<svg clip-rule="evenodd" fill-rule="evenodd" stroke-linejoin="round" stroke-miterlimit="2" viewBox="0 0 560 400" xmlns="http://www.w3.org/2000/svg"><g fill="#2ec4f1" fill-rule="nonzero" transform="matrix(2.70901 0 0 2.70901 75.4695 153.947)"><path d="m9.962.392c-5.478 0-9.462 4.574-9.462 9.437 0 5.307 4.259 9.492 9.462 9.492h11.583c2.489 0 4.874 2.008 4.874 4.749 0 2.739-2.135 4.98-4.874 4.98h-20.554v4.561h21.367c5.499 0 9.576-4.252 9.576-9.546 0-5.082-4.185-9.349-9.576-9.349h-11.854c-2.686 0-4.874-2.153-4.874-4.892 0-2.709 2.253-4.833 4.874-4.837h29.244v28.623h5.125v-28.623h13.009v-4.596z"/><path d="m145.284.389v14.329h-20.188v-14.329h-5.216v33.219h5.216v-14.295h20.188v14.295h5.216v-33.219z"/><path d="m64.117 29.015h9.96v4.596h-9.96z"/><path d="m105.899 14.715h-11.854c-2.685 0-4.874-2.153-4.874-4.892 0-2.709 2.253-4.833 4.874-4.837h19.063v-4.596l-19.605.001c-5.479 0-9.462 4.574-9.462 9.437 0 5.307 4.259 9.492 9.462 9.492h11.582c2.488 0 4.875 2.008 4.875 4.749 0 2.739-2.135 4.98-4.875 4.98h-20.24l-13.774-28.659h-4.076l-16.105 33.22h5.23l12.918-26.307 12.686 26.307h24.177c5.499 0 9.574-4.252 9.574-9.546 0-5.082-4.185-9.349-9.576-9.349z"/></g></svg>