<?xml version="1.0" encoding="utf-8"?>
<!-- Generator: Adobe Illustrator 26.3.1, SVG Export Plug-In . SVG Version: 6.00 Build 0)  -->
<svg version="1.1" id="Layer_1" xmlns="http://www.w3.org/2000/svg" xmlns:xlink="http://www.w3.org/1999/xlink" x="0px" y="0px"
	 viewBox="0 0 2498.5 663" style="enable-background:new 0 0 2498.5 663;" xml:space="preserve">
<style type="text/css">
	.st0{fill:#33393F;}
	.st1{fill:#89C6BE;}
</style>
<path class="st0" d="M0,166.4V93.3h323.8v73.1H205.4v322.2h-86.9V166.4H0"/>
<path class="st0" d="M406.5,573.8c-15.1,10-36.2,14.9-63.1,14.9c-8.1,0-16.1-0.3-24.1-0.8c-7.9-0.6-16-1.2-24.1-1.9v-64.8
	c7.4,0.7,14.9,1.5,22.7,2.2c7.7,0.7,15.5,0.9,23.2,0.6c10.3-1.1,18-5.2,23-12.2c4.9-6.8,7.5-14.9,7.5-23.2c0-6.3-1.1-12.2-3.3-17.7
	L268.2,202.3h83.6l64.8,195.9h1.1l62.6-195.9h81.4L442,524C433.5,547.2,421.7,563.8,406.5,573.8 M664.2,202.3v36.5h1.1
	c9.6-15.5,21.8-26.8,36.5-33.8c14.8-7,31-10.5,48.7-10.5c22.5,0,41.9,4.2,58.1,12.7c16.2,8.5,29.7,19.8,40.4,33.8
	c10.7,14,18.6,30.4,23.8,49c5.2,18.6,7.8,38.1,7.8,58.4c0,19.2-2.6,37.6-7.8,55.3c-5.2,17.7-13,33.4-23.5,47.1
	c-10.5,13.7-23.6,24.6-39.3,32.7c-15.7,8.1-34,12.2-55.1,12.2c-17.7,0-34-3.6-49-10.8c-14.9-7.2-27.2-17.8-36.8-31.8H668v140.1
	h-78.6V202.3H664.2z M766.3,429c8.5-5,15.7-11.9,21-20.2c5.3-8.3,9.1-18,11.3-29.1c2.2-11.1,3.3-22.3,3.3-33.8
	c0-11.4-1.2-22.7-3.6-33.8c-2.4-11.1-6.4-20.9-11.9-29.6c-5.4-8.5-12.7-15.7-21.3-21c-8.7-5.3-19.3-8-31.8-8
	c-12.9,0-23.7,2.7-32.4,8c-8.5,5.2-15.7,12.3-21,20.8c-5.4,8.5-9.1,18.3-11.3,29.3c-2.2,11.3-3.3,22.8-3.3,34.3
	c0,11.4,1.2,22.7,3.6,33.8c2.4,11.1,6.3,20.8,11.6,29.1c5.3,8.3,12.5,15,21.3,20.2c8.9,5.2,19.6,7.7,32.1,7.7
	C746.9,436.8,757.7,434.2,766.3,429L766.3,429z M1006.5,419.9c11.8,11.5,28.8,17.2,50.9,17.2c15.9,0,29.5-4,41-11.9
	c11.4-7.9,18.4-16.3,21-25.2h69.2c-11.1,34.3-28.1,58.9-50.9,73.6c-22.9,14.8-50.6,22.2-83,22.2c-22.5,0-42.8-3.6-60.9-10.8
	c-18.1-7.2-33.4-17.4-45.9-30.7c-12.5-13.3-22.2-29.2-29.1-47.6c-6.8-18.5-10.2-38.8-10.2-60.9c0-21.4,3.5-41.3,10.5-59.8
	c7-18.5,17-34.4,29.9-47.9c12.9-13.5,28.3-24.1,46.2-31.8c17.9-7.8,37.7-11.6,59.5-11.6c24.4,0,45.6,4.7,63.6,14.1
	c18.1,9.4,32.9,22.1,44.6,37.9c11.6,15.9,20,34,25.2,54.2c5.2,20.3,7,41.5,5.5,63.7H987.1C988.2,390,994.7,408.4,1006.5,419.9
	L1006.5,419.9z M1095.3,269.3c-9.4-10.3-23.7-15.5-42.9-15.5c-12.6,0-23,2.1-31.3,6.4c-8.3,4.3-14.9,9.5-19.9,15.8
	c-5,6.3-8.5,12.9-10.5,19.9c-2,7-3.2,13.3-3.6,18.8H1115C1111.3,294.8,1104.7,279.7,1095.3,269.3L1095.3,269.3z M1194.6,254.9v-52.6
	h47v-22.1c0-25.5,7.9-46.3,23.8-62.6c15.9-16.2,39.9-24.4,72-24.4c7,0,14,0.3,21,0.8c7,0.6,13.8,1,20.5,1.4v58.7
	c-9.6-1.1-19.2-1.7-28.8-1.7c-10.7,0-18.4,2.5-23,7.5c-4.6,5-6.9,13.4-6.9,25.2v17.2h54.2v52.6h-54.2v233.6h-78.6V254.9H1194.6
	 M1384.9,283.4c7-18.6,17-34.5,29.9-47.6c12.9-13.1,28.4-23.2,46.5-30.4c18.1-7.2,38.4-10.8,60.9-10.8c22.5,0,42.9,3.6,61.2,10.8
	c18.3,7.2,33.9,17.3,46.8,30.4c12.9,13.1,22.9,29,29.9,47.6c7,18.6,10.5,39.4,10.5,62.3c0,22.9-3.5,43.5-10.5,62
	c-7,18.5-17,34.2-29.9,47.3c-12.9,13.1-28.5,23.2-46.8,30.2c-18.3,7-38.7,10.5-61.2,10.5c-22.5,0-42.8-3.5-60.9-10.5
	c-18.1-7-33.6-17.1-46.5-30.2c-12.9-13.1-22.9-28.9-29.9-47.3c-7-18.5-10.5-39.1-10.5-62C1374.3,322.8,1377.8,302.1,1384.9,283.4z
	 M1456.3,379.2c2.2,10.9,6,20.7,11.4,29.3c5.3,8.6,12.6,15.7,21.3,20.8c8.8,5.2,19.9,7.7,33.2,7.7s24.4-2.6,33.5-7.7
	s16.2-12.1,21.6-20.8c5.4-8.7,9.1-18.5,11.4-29.3c2.2-10.9,3.3-22,3.3-33.5c0-11.4-1.1-22.7-3.3-33.8c-2.2-11.1-6-20.8-11.4-29.3
	c-5.4-8.5-12.6-15.4-21.6-20.8c-9-5.3-20.2-8-33.5-8s-24.4,2.7-33.2,8c-8.6,5.1-15.9,12.3-21.3,20.8c-5.4,8.5-9.1,18.3-11.4,29.3
	c-2.2,11.1-3.3,22.4-3.3,33.8C1452.9,357.2,1454,368.3,1456.3,379.2z M1773.6,202.3v53.1h1.1c3.7-8.9,8.7-17.1,14.9-24.6
	c6.3-7.6,13.5-14,21.6-19.4c8.1-5.3,16.8-9.5,26-12.5c9.3-3,19-4.5,28.8-4.4c5.2,0,10.9,0.9,17.2,2.8v73.1
	c-4.4-0.8-8.8-1.5-13.3-1.9c-5-0.5-10-0.8-15-0.8c-14.4,0-26.6,2.4-36.5,7.2c-10,4.8-18,11.3-24.1,19.6c-6.1,8.3-10.4,18-13,29.1
	c-2.6,11.1-3.9,23.1-3.9,36v129h-78.6V202.3H1773.6 M1985.3,202.3v38.7h1.1c10.3-14.7,22.8-26.2,37.4-34.3
	c14.6-8.1,31.3-12.2,50.1-12.2c18.1,0,34.6,3.5,49.6,10.5c14.9,7,26.3,19.4,34.1,37.1c8.5-12.5,20-23.6,34.6-33.2
	c14.6-9.6,31.8-14.4,51.8-14.4c15.1,0,29.1,1.8,42.1,5.5c12.9,3.7,24,9.6,33.2,17.7c9.2,8.1,16.4,18.7,21.6,31.8
	c5.1,13.1,7.7,28.9,7.7,47.3v191.5h-78.6V326.3c0-9.6-0.4-18.6-1.1-27.1c-0.7-8.5-2.8-15.9-6.1-22.1c-3.3-6.3-8.2-11.3-14.7-14.9
	c-6.5-3.7-15.2-5.5-26.3-5.5c-11.1,0-20,2.1-26.9,6.4c-6.7,4.1-12.2,9.8-16,16.6c-3.9,6.8-6.5,14.6-7.7,23.2
	c-1.3,8.7-1.9,17.5-1.9,26.3v159.4h-78.6V328c0-8.5-0.2-16.9-0.6-25.2c-0.4-8.3-1.9-16-4.7-23c-2.8-7-7.4-12.6-13.8-16.9
	c-6.5-4.2-16-6.4-28.5-6.4c-3.7,0-8.6,0.8-14.7,2.5c-6.1,1.7-12,4.8-17.7,9.4c-5.7,4.6-10.6,11.3-14.7,19.9
	c-4.1,8.7-6.1,20-6.1,34.1v166.1h-78.6V202.3H1985.3"/>
<path class="st1" d="M2428.7,0h69.8v663h-69.8V0z"/>
</svg>
