<svg width="155" height="20" viewBox="0 0 155 20" fill="none" xmlns="http://www.w3.org/2000/svg">
<g clip-path="url(#clip0_82_38001)">
<path d="M7.14228 18.7782L11.4422 11.2287L15.7421 18.7782H7.14228ZM6.07987 1.82767L10.7347 10.001L6.07987 18.1743L1.29734 10.001L6.07987 1.82767ZM11.4422 8.77407L7.14064 1.22291H15.7421L11.4422 8.77407ZM12.1406 10.0018L17.3151 0.914737C17.4815 0.6223 17.381 0.248678 17.0895 0.0813344C16.9981 0.0283148 16.8935 0.000976562 16.788 0.000976562H6.09469C5.87974 0.000976562 5.68043 0.116129 5.57172 0.302526L0.0833874 9.69197C-0.0277958 9.88251 -0.0277958 10.1194 0.0833874 10.31L5.57172 19.6994C5.68043 19.8867 5.87974 20.001 6.09469 20.001H16.788C17.1232 20.001 17.395 19.7276 17.3958 19.3904C17.3958 19.2836 17.3687 19.1792 17.316 19.0864L12.1406 10.0001V10.0018Z" fill="black"/>
<path d="M26.3339 15.3404C25.6692 15.0587 25.0705 14.6404 24.5747 14.1127C24.083 13.5783 23.7025 12.9512 23.4546 12.2669C23.1878 11.5346 23.0544 10.7608 23.0601 9.98127C23.0535 9.20337 23.1837 8.43044 23.4439 7.69811C23.6844 7.01548 24.0583 6.38836 24.5426 5.85237C25.0227 5.32383 25.6066 4.90133 26.2573 4.61055C26.9705 4.30071 27.7414 4.14745 28.518 4.15988C29.1703 4.15077 29.8192 4.25184 30.4386 4.45977C30.978 4.64368 31.4796 4.92369 31.921 5.28655C32.341 5.6378 32.6894 6.06776 32.9456 6.55322C33.2149 7.06685 33.3985 7.62107 33.4891 8.19434H30.6544C30.5662 7.72794 30.3315 7.30212 29.9831 6.98152C29.6175 6.65346 29.1398 6.48032 28.6498 6.49937C27.7677 6.49937 27.1064 6.81003 26.6658 7.43218C26.2252 8.05434 26.0044 8.90182 26.0036 9.97464C26.0036 11.0193 26.2136 11.8602 26.6336 12.4964C27.0537 13.1326 27.7117 13.4516 28.6061 13.4516C29.1349 13.4739 29.6554 13.3107 30.0787 12.991C30.4649 12.6828 30.7071 12.2139 30.8034 11.5843H33.5987C33.5221 12.7259 33.0057 13.7929 32.1582 14.5567C31.7143 14.9502 31.2004 15.2559 30.6437 15.4572C30.0111 15.6859 29.3424 15.7985 28.6695 15.7894C27.8682 15.8027 27.0734 15.6494 26.333 15.3387L26.3339 15.3404Z" fill="black"/>
<path d="M38.1085 5.90044C38.447 5.37025 38.8983 4.92206 39.4304 4.58821C39.9138 4.2966 40.5323 4.15079 41.2867 4.15079C41.8188 4.14334 42.3458 4.24938 42.8334 4.46311C43.2839 4.66194 43.6875 4.95354 44.0177 5.32054C44.3529 5.70079 44.614 6.14152 44.7861 6.61952C44.9764 7.15303 45.0702 7.71636 45.0628 8.28301V15.473H42.1647V8.71131C42.1885 8.18112 42.0139 7.66086 41.6746 7.25327C41.3468 6.88131 40.8774 6.69491 40.2663 6.69491C39.6585 6.67834 39.0746 6.93433 38.6719 7.39328C38.2518 7.85886 38.041 8.47024 38.041 9.22742V15.4721H35.1428V0.12793H38.041V5.90044H38.1094H38.1085Z" fill="black"/>
<path d="M50.2942 7.04759C49.8964 7.47009 49.6329 8.04585 49.5044 8.77487H54.3709C54.3561 8.14029 54.109 7.53305 53.6783 7.06913C53.2517 6.63089 52.6612 6.39396 52.0526 6.41467C51.2792 6.41467 50.6945 6.62592 50.2975 7.04759H50.2942ZM49.8594 15.341C48.4972 14.7835 47.4463 13.6552 46.9801 12.2518C46.7273 11.5137 46.6005 10.7366 46.6062 9.95621C46.6005 9.17666 46.7339 8.40208 47.0007 7.67057C47.247 6.99126 47.6242 6.36745 48.1109 5.8356C49.1149 4.74952 50.5289 4.14145 52.0031 4.16216C52.802 4.14642 53.5943 4.31128 54.3215 4.64431C54.9812 4.95994 55.5585 5.42635 56.0066 6.00708C56.4801 6.63172 56.8318 7.34168 57.041 8.09887C57.2839 8.97535 57.4017 9.88248 57.3918 10.7929H49.4649C49.5777 11.6504 49.8676 12.3222 50.3346 12.8093C50.8015 13.2965 51.4448 13.5392 52.265 13.5384C52.8333 13.5384 53.2879 13.4157 53.6305 13.1738C53.9723 12.9286 54.2326 12.584 54.3767 12.1872H57.2362C57.1349 12.6768 56.9504 13.1448 56.691 13.5707C56.4225 14.013 56.0757 14.4016 55.6681 14.718C55.2209 15.0618 54.7201 15.3261 54.1856 15.5026C53.5729 15.703 52.9313 15.8008 52.2873 15.7942C51.4563 15.8099 50.6302 15.6558 49.8602 15.3427L49.8594 15.341Z" fill="black"/>
<path d="M61.7363 15.3427C61.0709 15.061 60.4713 14.6427 59.9755 14.115C59.4846 13.5798 59.1041 12.9527 58.8554 12.2692C58.5886 11.5369 58.4552 10.7631 58.4609 9.98358C58.4543 9.20568 58.5845 8.43275 58.8447 7.70042C59.0852 7.01779 59.4591 6.39067 59.9434 5.85468C60.4252 5.32862 61.0099 4.90861 61.6605 4.62031C62.3738 4.31048 63.1446 4.15722 63.9213 4.16964C64.5735 4.16053 65.2225 4.2616 65.8418 4.46954C66.3813 4.65345 66.8828 4.93346 67.3243 5.29631C67.7451 5.64757 68.0927 6.07752 68.3488 6.56298C68.6181 7.07661 68.8018 7.63083 68.8924 8.20411H66.0552C65.967 7.7377 65.7323 7.31189 65.3839 6.99128C65.0183 6.66322 64.5406 6.49008 64.0506 6.50914C63.1685 6.50914 62.5072 6.8198 62.0666 7.44195C61.6259 8.0641 61.4052 8.91159 61.4044 9.98441C61.4044 11.0291 61.6144 11.8699 62.0344 12.5062C62.4545 13.1424 63.1125 13.4613 64.0069 13.4613C64.5357 13.4837 65.0562 13.3205 65.4795 13.0007C65.8657 12.6926 66.1079 12.2237 66.2042 11.594H68.9994C68.9616 12.164 68.8141 12.7215 68.5646 13.2352C68.3192 13.7397 67.9782 14.192 67.5615 14.5665C67.1176 14.96 66.6037 15.2657 66.0469 15.467C65.4144 15.6956 64.7457 15.8083 64.0728 15.7992C63.2706 15.8099 62.4751 15.6542 61.7355 15.341L61.7363 15.3427Z" fill="black"/>
<path d="M73.4237 11.7575V15.4705H70.5444V0.12793H73.4237V8.62515L77.306 4.46146H80.784L76.7509 8.64669L81.274 15.4705H77.754L74.6821 10.4485L73.4237 11.7575Z" fill="black"/>
<path d="M88.8454 12.5703C89.3214 11.9126 89.5595 11.0469 89.5595 9.97403C89.5595 8.90121 89.3214 8.03219 88.8454 7.36779C88.3694 6.70338 87.6825 6.37035 86.7856 6.36952C85.8888 6.3687 85.2036 6.70173 84.7275 7.36779C84.2507 8.03219 84.0118 8.90121 84.0135 9.97403C84.0143 11.0469 84.2523 11.9126 84.7275 12.5703C85.2036 13.2289 85.8896 13.5587 86.7856 13.5587C87.6817 13.5587 88.3677 13.2298 88.8454 12.572V12.5703ZM84.4615 15.3398C83.0927 14.7665 82.0171 13.6539 81.4859 12.2613C80.9316 10.7892 80.9316 9.16383 81.4859 7.6917C82.0179 6.29911 83.0927 5.18652 84.4615 4.61159C85.9538 4.01098 87.6191 4.01098 89.1123 4.61159C90.4819 5.18818 91.5575 6.30408 92.0878 7.69916C92.6446 9.17128 92.6446 10.7975 92.0878 12.2688C91.5566 13.6614 90.481 14.774 89.1123 15.3472C87.6199 15.9479 85.9547 15.9479 84.4615 15.3472V15.3398Z" fill="black"/>
<path d="M101.003 14.1827H100.94C100.6 14.6541 100.168 15.0509 99.6709 15.3492C99.1957 15.6283 98.5731 15.7675 97.8047 15.7675C96.5817 15.7675 95.6428 15.4096 94.9889 14.6947C94.335 13.9798 94.008 13.0138 94.008 11.7985V4.46191H96.8872V11.313C96.8872 11.9576 97.0322 12.4513 97.3221 12.7943C97.612 13.1373 98.0707 13.3087 98.6991 13.3087C99.3819 13.3087 99.9188 13.0768 100.309 12.612C100.7 12.1473 100.893 11.55 100.889 10.8193V4.46191H103.787V15.4709H101.005V14.1819L101.003 14.1827Z" fill="black"/>
<path d="M106.62 4.46051V1.02832H109.457V4.46051H111.334V6.38579H109.457V12.2171C109.457 12.6322 109.556 12.918 109.755 13.0754C109.983 13.2419 110.261 13.3256 110.543 13.3115H111.098C111.198 13.3115 111.298 13.304 111.396 13.2899V15.4356C111.24 15.4505 111.083 15.4579 110.927 15.4571C110.77 15.472 110.579 15.4778 110.347 15.4778H109.584C109.229 15.4778 108.875 15.4381 108.528 15.3594C108.187 15.284 107.864 15.1423 107.578 14.941C107.284 14.7306 107.047 14.4506 106.886 14.1258C106.695 13.7249 106.603 13.2833 106.619 12.8384V6.38662H105.103V4.46134H106.618L106.62 4.46051Z" fill="black"/>
<path d="M114.795 12.6475C115.654 12.6475 116.349 13.3475 116.349 14.2099C116.349 15.0723 115.654 15.7723 114.795 15.7723C113.937 15.7723 113.242 15.0723 113.242 14.2099C113.242 13.3475 113.937 12.6475 114.795 12.6475Z" fill="black"/>
<path d="M120.532 15.3082C119.925 15.024 119.389 14.6065 118.964 14.0854C118.524 13.5395 118.194 12.9123 117.993 12.2397C117.766 11.4924 117.655 10.7145 117.662 9.93331C117.656 9.15127 117.771 8.37337 118.004 7.62695C118.212 6.95509 118.545 6.3288 118.985 5.78121C119.412 5.25764 119.952 4.83928 120.563 4.55844C121.233 4.25606 121.961 4.10695 122.696 4.12103C123.919 4.12103 124.918 4.43583 125.693 5.06378C126.468 5.69256 126.948 6.57981 127.134 7.72554H125.817C125.66 6.89628 125.315 6.27412 124.781 5.85825C124.248 5.44238 123.555 5.23444 122.702 5.2361C122.128 5.22036 121.56 5.35042 121.048 5.61221C120.595 5.85411 120.205 6.19956 119.907 6.62124C119.596 7.0719 119.371 7.57807 119.247 8.11241C119.1 8.70888 119.029 9.32192 119.033 9.93579C119.029 10.5472 119.104 11.1569 119.258 11.7492C119.391 12.2811 119.617 12.7848 119.924 13.2379C120.215 13.6604 120.603 14.0059 121.055 14.2469C121.557 14.5004 122.113 14.6255 122.675 14.6115C123.614 14.6115 124.364 14.343 124.925 13.8071C125.487 13.2702 125.825 12.5511 125.94 11.6498H127.198C127.07 12.9132 126.615 13.9114 125.832 14.6438C125.05 15.3769 123.997 15.7448 122.675 15.7489C121.937 15.7646 121.205 15.6139 120.532 15.309V15.3082Z" fill="black"/>
<path d="M135.109 14.2678C135.574 14.03 135.975 13.6846 136.282 13.2604C136.606 12.8073 136.845 12.2978 136.986 11.7577C137.299 10.5631 137.299 9.30799 136.986 8.11339C136.844 7.57325 136.606 7.06377 136.282 6.61062C135.975 6.18646 135.574 5.841 135.109 5.60324C134.079 5.1153 132.886 5.1153 131.856 5.60324C131.394 5.84514 130.993 6.18977 130.682 6.61062C130.353 7.06211 130.11 7.5716 129.967 8.11339C129.654 9.30799 129.654 10.5631 129.967 11.7577C130.11 12.2995 130.352 12.8089 130.682 13.2604C131.334 14.1576 132.385 14.6721 133.488 14.634C134.049 14.6447 134.604 14.5188 135.107 14.2678H135.11H135.109ZM131.341 15.3083C130.721 15.025 130.171 14.6066 129.729 14.0856C129.276 13.5421 128.931 12.915 128.715 12.2398C128.245 10.7387 128.245 9.12905 128.715 7.62793C128.931 6.95276 129.276 6.32646 129.729 5.78218C130.17 5.25944 130.72 4.84191 131.341 4.55942C132.016 4.25787 132.747 4.10875 133.485 4.12201C134.22 4.10792 134.948 4.25704 135.618 4.55942C136.232 4.84523 136.776 5.26276 137.212 5.78218C137.665 6.32481 138.006 6.95193 138.216 7.62793C138.669 9.13153 138.669 10.737 138.216 12.2398C138.006 12.9158 137.665 13.5429 137.212 14.0856C136.776 14.605 136.232 15.0225 135.618 15.3083C134.948 15.6107 134.22 15.7598 133.485 15.7457C132.747 15.759 132.016 15.6099 131.341 15.3083Z" fill="black"/>
<path d="M141.758 4.37644V6.05153H141.801C142.147 5.50311 142.605 5.03505 143.144 4.67799C143.686 4.31928 144.354 4.14034 145.151 4.14117C145.79 4.12957 146.42 4.30354 146.963 4.64403C147.504 5.00025 147.904 5.53542 148.094 6.15757H148.136C148.483 5.53873 148.989 5.02428 149.598 4.6664C150.233 4.30851 150.95 4.12791 151.678 4.142C152.122 4.13868 152.563 4.2149 152.982 4.3665C153.377 4.50982 153.737 4.73681 154.039 5.0309C154.346 5.33908 154.586 5.70856 154.743 6.11532C154.92 6.58753 155.006 7.08956 154.998 7.5949V15.4667H153.694V7.70011C153.694 6.87085 153.476 6.25947 153.043 5.86514C152.579 5.46417 151.981 5.25541 151.37 5.28192C150.975 5.27861 150.584 5.35151 150.217 5.49648C149.865 5.63732 149.542 5.84442 149.268 6.10704C148.982 6.38539 148.76 6.72256 148.617 7.09536C148.457 7.51371 148.377 7.95858 148.382 8.40759V15.4675H147.059V7.70011C147.059 6.87085 146.849 6.25947 146.43 5.86514C145.995 5.46832 145.423 5.25872 144.835 5.28192C144.437 5.28026 144.042 5.36062 143.676 5.51802C143.308 5.67377 142.972 5.89496 142.683 6.17248C142.389 6.45581 142.154 6.79464 141.991 7.16992C141.819 7.56176 141.731 7.98592 141.735 8.41505V15.4749H140.413V4.37644H141.758Z" fill="black"/>
</g>
<defs>
<clipPath id="clip0_82_38001">
<rect width="154.999" height="20" fill="white" transform="translate(0 0.000976562)"/>
</clipPath>
</defs>
</svg>
