<?xml version="1.0" encoding="utf-8"?>
<!-- Generator: Adobe Illustrator 26.3.1, SVG Export Plug-In . SVG Version: 6.00 Build 0)  -->
<svg version="1.1" id="Layer_1" xmlns="http://www.w3.org/2000/svg" xmlns:xlink="http://www.w3.org/1999/xlink" x="0px" y="0px"
	 viewBox="0 0 142 20.4" style="enable-background:new 0 0 142 20.4;" xml:space="preserve">
<style type="text/css">
	.st0{fill:#8D8D8D;}
</style>
<path class="st0" d="M19.6,10.2c0-5.6,4.5-10.1,10.1-10.1c5.7,0,10.2,4.5,10.2,10.1c0,5.5-4.5,10.1-10.2,10.1
	C24.1,20.3,19.6,15.7,19.6,10.2z M35.1,10.2c0-2.8-2.4-5.2-5.3-5.2c-2.9,0-5.3,2.5-5.3,5.2c0,2.8,2.4,5.3,5.3,5.3
	C32.7,15.5,35.1,13,35.1,10.2z M121.8,10.4c0-6.1,4.9-10.2,9.3-10.2c3,0,4.7,0.9,5.9,2.7l0.5-2.4h4.5v19.4h-4.5l-0.6-2
	c-1.3,1.5-3,2.4-5.8,2.4C126.8,20.3,121.8,16.4,121.8,10.4z M137.3,10.3c0-2.9-2.4-5.4-5.3-5.4c-2.9,0-5.3,2.4-5.3,5.4v0
	c0,2.7,2.4,5.1,5.3,5.1C134.9,15.5,137.3,13.1,137.3,10.3z M116.3,2.8V0.5h-4.9v19.4h4.9V9.5c0-3.2,1.5-4.8,4.2-4.8
	c0.2,0,0.3,0,0.5,0l0.9-4.7C119.3,0,117.4,0.9,116.3,2.8z M66.6,2.8V0.5l-4.9,0l0,19.4l4.9,0l0-10.5c0-3.2,1.5-4.8,4.2-4.8
	c0.2,0,0.3,0,0.5,0L72.2,0C69.6,0,67.7,0.9,66.6,2.8z M41.7,12.4V0.5h4.9v11.3c0,2.5,1.4,4,3.7,4c2.7,0,4.2-1.6,4.2-4.8V0.5h4.9
	v19.4h-4.9v-2.3c-1.2,1.8-3.1,2.7-5.7,2.7C44.4,20.4,41.7,17.2,41.7,12.4z M89.8,10.2c0-5.4,3.8-10.1,9.9-10.1c5.6,0,9.6,4.6,9.6,10
	c0,0.5,0,1.1-0.1,1.6l-14.6,0c0.6,2.3,2.4,4,5.3,4c1.7,0,3.6-0.6,4.7-2.1l3.4,2.8c-1.7,2.5-4.8,4-8,4C94.2,20.3,89.8,15.9,89.8,10.2
	z M104.3,8.2c-0.3-2-2.3-3.5-4.7-3.5c-2.3,0-4.1,1.4-4.9,3.5L104.3,8.2z M72.2,15.7l4.4-2.3c0.7,1.6,2.2,2.5,4.2,2.5
	c1.9,0,2.6-0.6,2.6-1.5C83.5,11.3,73,13.2,73,6c0-3.9,3.4-6,7.6-6c3.2,0,6,1.4,7.5,4.1l-4.4,2.3c-0.6-1.3-1.9-2.1-3.4-2.1
	c-1.5,0-2.2,0.5-2.2,1.4c0,3,10.4,1.1,10.4,8.4c0,3.8-3,6.1-7.9,6.1C76.6,20.3,73.6,18.9,72.2,15.7z M0,10.2C0,4.6,4.5,0.1,10.1,0.1
	c3.4,0,6.7,1.7,8.6,4.6l-4.2,2.5c-0.5-0.7-1.1-1.3-1.9-1.7c-0.8-0.4-1.6-0.6-2.4-0.6c-2.9,0-5.3,2.5-5.3,5.3c0,2.8,2.4,5.3,5.3,5.3
	c0.9,0,1.8-0.2,2.6-0.7c0.8-0.4,1.4-1.1,1.9-1.8l4.2,2.5c-1.9,3-5.2,4.8-8.6,4.8C4.5,20.3,0,15.7,0,10.2z"/>
</svg>
