<svg viewBox="0 0 233.61 47.92" xmlns="http://www.w3.org/2000/svg" xmlns:xlink="http://www.w3.org/1999/xlink"><clipPath id="a" transform="translate(-.01)"><path d="m-.05-.06h233.67v48h-233.67z"/></clipPath><g clip-path="url(#a)" fill-rule="evenodd"><path d="m43.64 11a13.4 13.4 0 0 0 -23.37 0 26.39 26.39 0 0 1 11.73-2.66 29.69 29.69 0 0 1 11.64 2.66z" fill="#ef5530" transform="translate(-.01)"/><path d="m28.8.48a13.45 13.45 0 0 0 -13.1 3.46 13.78 13.78 0 0 0 -3.46 13.28 28.38 28.38 0 0 1 6.4-10.28 27.8 27.8 0 0 1 10.16-6.46z" fill="#f5911e" transform="translate(-.01)"/><path d="m11 3.65a13.72 13.72 0 0 0 0 23.69 27.16 27.16 0 0 1 -2.72-11.85 27 27 0 0 1 2.72-11.84z" fill="#ffcc25" transform="translate(-.01)"/><path d="m.46 18.7a14 14 0 0 0 3.54 13.24 13.48 13.48 0 0 0 13.11 3.57 28 28 0 0 1 -10.25-6.51 29 29 0 0 1 -6.4-10.3z" fill="#b8cf32" transform="translate(-.01)"/><path d="m3.51 36.84a13.39 13.39 0 0 0 23.36 0 26.55 26.55 0 0 1 -11.68 2.65 26.55 26.55 0 0 1 -11.68-2.65z" fill="#1ea34e" transform="translate(-.01)"/><path d="m18.44 47.46a13.55 13.55 0 0 0 13.11-3.58 13.77 13.77 0 0 0 3.45-13.27 28.22 28.22 0 0 1 -6.4 10.33 26.68 26.68 0 0 1 -10.16 6.52z" fill="#4290cd" transform="translate(-.01)"/><path d="m36.32 44.29a13.71 13.71 0 0 0 0-23.69 28.71 28.71 0 0 1 2.68 11.85 27.39 27.39 0 0 1 -2.68 11.84z" fill="#6f54a1" transform="translate(-.01)"/><path d="m46.78 29.18a14 14 0 0 0 -3.45-13.24 13.48 13.48 0 0 0 -13.11-3.57 28 28 0 0 1 10.16 6.53 29.1 29.1 0 0 1 6.4 10.28z" fill="#cf1874" transform="translate(-.01)"/><g fill="#010101"><path d="m62.43 22.13a2.14 2.14 0 0 1 .57-1.53 2.1 2.1 0 0 1 1.56-.6h2.85v11.42a1.9 1.9 0 0 1 -.61 1.52 1.8 1.8 0 0 1 -1.42.61h-.92a2.53 2.53 0 0 1 -1.46-.61 1.81 1.81 0 0 1 -.51-1.43zm5.28-11.44-.3-.1v6.13h-3.86a4.49 4.49 0 0 0 -4.37 4.39v11.23a4.9 4.9 0 0 0 1.32 3.27 4.39 4.39 0 0 0 3.15 1.33h2.74a4.71 4.71 0 0 0 3.61-1.94 4.84 4.84 0 0 0 .81-2.66v-20.4l-.1-.1c-.66-.23-1.71-.74-3-1.15z" transform="translate(-.01)"/><path d="m74.72 10.69-.3-.1v3.88h3.25v-2.47l-.1-.1a13.56 13.56 0 0 0 -2.85-1.21z" transform="translate(-.01)"/><path d="m74.42 37h3.35v-20.28h-3.35z" transform="translate(-.01)"/><path d="m96.77 10.69-.3-.1v3.88h3.25v-2.47l-.21-.2c-.51-.19-1.51-.7-2.74-1.11z" transform="translate(-.01)"/><path d="m96.36 37h3.36v-20.28h-3.36z" transform="translate(-.01)"/><path d="m197.66 10.69-.31-.1v3.88h3.25v-2.47l-.1-.1a16.58 16.58 0 0 0 -2.84-1.21z" transform="translate(-.01)"/><path d="m197.35 37h3.25v-20.28h-3.25z" transform="translate(-.01)"/><path d="m89.56 33.67h-2.85a2 2 0 0 1 -1.52-.61 2.07 2.07 0 0 1 -.61-1.43v-9.4a2 2 0 0 1 .61-1.43 2.2 2.2 0 0 1 1.52-.61h.71a2.08 2.08 0 0 1 2.14 2zm1.62-15.83a4.73 4.73 0 0 0 -2.84-1.12h-2.75a4.54 4.54 0 0 0 -3.14 1.43 4.75 4.75 0 0 0 -1.22 3.06v11.13a5.19 5.19 0 0 0 1.32 3.17 4.44 4.44 0 0 0 3.15 1.33h3.76v3.37a2.26 2.26 0 0 1 -.61 1.43 2.07 2.07 0 0 1 -1.43.61h-4.77v3.37h5.79a4.57 4.57 0 0 0 3.25-1.62 4.93 4.93 0 0 0 1.12-3.05v-19.84a4.16 4.16 0 0 0 -1.63-3.27z" transform="translate(-.01)"/><path d="m122.78 31.53a2.68 2.68 0 0 1 -.61 1.53 2.52 2.52 0 0 1 -1.32.61h-.85a1.82 1.82 0 0 1 -1.43-.61 2.21 2.21 0 0 1 -.61-1.43v-2.45a2.28 2.28 0 0 1 .61-1.33 2.46 2.46 0 0 1 1.43-.61h2.84zm3.22-10.42a4.41 4.41 0 0 0 -1.22-3 4.54 4.54 0 0 0 -3.15-1.43h-5.89v3.37h4.88a2 2 0 0 1 1.42.61 2.21 2.21 0 0 1 .61 1.43v1.74h-3.65a4.05 4.05 0 0 0 -3.15 1.43 4.69 4.69 0 0 0 -1.32 3.06v4a4.49 4.49 0 0 0 1.22 3.17 4.82 4.82 0 0 0 3.12 1.45h2.84a4.54 4.54 0 0 0 3.15-1.43 4.36 4.36 0 0 0 1.14-3.06z" transform="translate(-.01)"/><path d="m135.17 33.67a2.39 2.39 0 0 1 -1.52-.61 2.07 2.07 0 0 1 -.61-1.43v-19.63l-.09-.08a16.34 16.34 0 0 0 -2.85-1.23l-.3-.1v22a5 5 0 0 0 1.2 3.08 4.55 4.55 0 0 0 3.25 1.43h1.93v-3.43z" transform="translate(-.01)"/><path d="m150.31 11.51-.1-.1a16.34 16.34 0 0 0 -2.85-1.23l-.3-.1v6.54h-3.86v3.38h3.8v12.45a5 5 0 0 0 1.22 3.06 4.53 4.53 0 0 0 3.26 1.43h1.93v-3.37h-1a2.39 2.39 0 0 1 -1.52-.61 2.07 2.07 0 0 1 -.61-1.43v-11.53h3.72v-3.38h-3.66z" transform="translate(-.01)"/><path d="m109.17 11.51-.11-.1a16.25 16.25 0 0 0 -2.84-1.23l-.31-.1v6.54h-3.75v3.38h3.84v12.45a5 5 0 0 0 1.22 3.06 4.55 4.55 0 0 0 3.21 1.43h1.93v-3.37h-1a2.39 2.39 0 0 1 -1.53-.61 2.06 2.06 0 0 1 -.6-1.43v-11.53h3.77v-3.38h-3.8z" transform="translate(-.01)"/><path d="m189.83 32.94a2.39 2.39 0 0 1 -1.52.61h-.81a2.26 2.26 0 0 1 -1.43-.61 1.9 1.9 0 0 1 -.61-1.54v-11.4h3a2.44 2.44 0 0 1 1.52.61 2 2 0 0 1 .61 1.43v9.39c-.15.1-.15 1.02-.76 1.51zm3.86-11.85a4.49 4.49 0 0 0 -4.47-4.39h-3.76v-4.76l-.1-.1a16.58 16.58 0 0 0 -2.84-1.23l-.31-.1v21.73a4.58 4.58 0 0 0 .79 2.66 4.64 4.64 0 0 0 3.66 2h2.64a4.6 4.6 0 0 0 3.15-1.33 4.91 4.91 0 0 0 1.33-3.27z" transform="translate(-.01)"/><path d="m214.62 17.84a4.73 4.73 0 0 0 -2.84-1.12h-2.78a4.58 4.58 0 0 0 -3.15 1.43 4.75 4.75 0 0 0 -1.22 3.06v15.73h3.37v-14.81a1.9 1.9 0 0 1 .61-1.43 2.2 2.2 0 0 1 1.52-.61h.71a2.14 2.14 0 0 1 1.53.61 2.07 2.07 0 0 1 .61 1.43v14.81h3.35v-15.73a5.44 5.44 0 0 0 -1.71-3.37z" transform="translate(-.01)"/><path d="m173.07 18.15a5.14 5.14 0 0 0 -1.22 3.06v15.73h3.35v-14.81a1.9 1.9 0 0 1 .61-1.43 2.22 2.22 0 0 1 1.53-.61h2.43v-3.37h-3.35a4.56 4.56 0 0 0 -3.35 1.43z" transform="translate(-.01)"/><path d="m165 31.53a2 2 0 0 1 -.61 1.43 2.2 2.2 0 0 1 -1.52.61h-.71a2.14 2.14 0 0 1 -1.53-.61 2.07 2.07 0 0 1 -.61-1.43v-14.81h-3.35v15.73a4.6 4.6 0 0 0 1.63 3.49 5 5 0 0 0 2.84 1.12h2.86a4.54 4.54 0 0 0 3.14-1.43 4.75 4.75 0 0 0 1.22-3.06v-15.75h-3.36z" transform="translate(-.01)"/><path d="m222.14 22.13a2.68 2.68 0 0 1 .61-1.53 2.5 2.5 0 0 1 1.42-.61h.83a1.8 1.8 0 0 1 1.42.61 2.21 2.21 0 0 1 .58 1.4v2.45a2.37 2.37 0 0 1 -.61 1.33 2.5 2.5 0 0 1 -1.42.61h-2.97zm6.91 6.23a4.74 4.74 0 0 0 1.32-3.06v-4a5.55 5.55 0 0 0 -1.22-3.3 4.83 4.83 0 0 0 -3.15-1.39h-2.84a4.54 4.54 0 0 0 -3.16 1.39 4.36 4.36 0 0 0 -1.22 3.06v11.28a4.41 4.41 0 0 0 1.22 3 4.53 4.53 0 0 0 3.15 1.42h5.89v-3.4h-4.88a2 2 0 0 1 -1.42-.61 2.21 2.21 0 0 1 -.61-1.43v-1.73h3.87a3.74 3.74 0 0 0 3.05-1.23z" transform="translate(-.01)"/><path d="m231.69 35.51h.2c.21 0 .41-.1.41-.2s-.1-.21-.31-.21h-.2zm0 .92h-.41v-1.64h.61c.31 0 .41 0 .51.11s.2.2.2.3a.55.55 0 0 1 -.3.41c.2.1.2.21.3.41a.82.82 0 0 1 .11.41h-.41c0-.1-.1-.21-.1-.41a.28.28 0 0 0 -.25-.31h-.26zm-.92-.82a1.22 1.22 0 0 0 2.43-.22 1.22 1.22 0 0 0 -1.2-1.11 1.26 1.26 0 0 0 -1.23 1.33zm2.85 0a1.63 1.63 0 1 1 -1.62-1.67 1.61 1.61 0 0 1 1.67 1.55v.12z" transform="translate(-.01)"/></g></g></svg>