<svg xmlns="http://www.w3.org/2000/svg" xmlns:xlink="http://www.w3.org/1999/xlink" viewBox="0 0 90 22" fill="#fff" fill-rule="evenodd" stroke="#000" stroke-linecap="round" stroke-linejoin="round"><use xlink:href="#A" x=".5" y=".5"/><symbol id="A" overflow="visible"><path d="M15.84.001h-4.298c-.07 4.5-2.7 8.418-6.464 10.336l6.642 9.66h5.4l-6.038-8.773C14.065 8.276 15.77 4.298 15.842 0zM0 19.997h4.44V.001H0zm77.9-12.43c-1.137-.817-2.557-1.28-4.085-1.28-3.907 0-7.033 3.16-7.033 7.033a7.05 7.05 0 0 0 7.033 7.033c1.527 0 2.913-.497 4.085-1.28v.923h3.48V6.643H77.9zm-3.765 9.34c-2.096 0-3.765-1.598-3.765-3.587s1.705-3.587 3.765-3.587c2.095 0 3.765 1.598 3.765 3.587.036 2-1.67 3.587-3.765 3.587zm11.472-1.634a2.53 2.53 0 0 0-2.52 2.522c0 1.385 1.136 2.522 2.52 2.522s2.522-1.137 2.522-2.522a2.51 2.51 0 0 0-2.522-2.522zM59.66 6.277c-1.598 0-3.125.497-4.12 1.847V6.632h-4.014v13.365h4.014V12.68c0-2.025 1.35-3.02 3.02-3.02 1.74 0 2.77 1.066 2.77 2.984v7.317h4.013v-8.5c0-3.055-2.486-5.186-5.683-5.186zm-23.903 1.3c-1.137-.817-2.558-1.28-4.085-1.28-3.907 0-7.033 3.16-7.033 7.033a7.05 7.05 0 0 0 7.033 7.033c1.527 0 2.912-.497 4.085-1.28v.923h3.48V6.643h-3.48zm-3.73 9.34c-2.096 0-3.765-1.598-3.765-3.587s1.705-3.587 3.765-3.587c2.095 0 3.765 1.598 3.765 3.587s-1.705 3.587-3.765 3.587zm13.7-8.453V6.677h-4.014v13.355h4.014v-6.995c0-2.025 2.274-2.912 3.872-2.486h.035V6.677c-1.633-.036-3.126.675-3.907 1.776zM18.753 19.997h4.262V.001h-4.262z" stroke="none" fill="#e9778d"/></symbol></svg>