<?xml version="1.0" encoding="utf-8"?>
<!-- Generator: Adobe Illustrator 24.3.0, SVG Export Plug-In . SVG Version: 6.00 Build 0)  -->
<svg version="1.1" id="Layer_1" xmlns="http://www.w3.org/2000/svg" xmlns:xlink="http://www.w3.org/1999/xlink" x="0px" y="0px"
	 viewBox="0 0 68.6 54.4" style="enable-background:new 0 0 68.6 54.4;" xml:space="preserve">
<style type="text/css">
	.st0{fill:#031329;}
	.st1{fill:#FFFFFF;}
</style>
<g>
	<polygon class="st0" points="25.5,12.6 25.5,12.6 23.5,18.5 27.6,18.5 	"/>
	<path class="st0" d="M53.5,22c2.9,0,4-2.6,4-5.2c0-2.5-1.2-5.1-4-5.1c-2.8,0-4,2.6-4,5.1C49.5,19.4,50.5,22,53.5,22z"/>
	<path class="st0" d="M25.2,38.4l-3.6,9.2h1.9l0.8-2.1H28l0.8,2.1h2.1l-3.6-9.2H25.2z M24.8,44.1l1.3-3.8h0l1.3,3.8H24.8z"/>
	<polygon class="st0" points="58.9,38.4 56.6,38.4 53.3,42.4 53.3,38.4 51.5,38.4 51.5,47.7 53.3,47.7 53.3,43.3 56.6,47.6 
		59.1,47.6 55.1,42.7 	"/>
	<path class="st0" d="M1.9,32h64.9V1.9H1.9V32z M53.5,9.5c4.5,0,7,3,7,7.3c0,4.3-2.5,7.4-7,7.4c-4.6,0-7-3-7-7.4S48.9,9.5,53.5,9.5z
		 M33,9.8h3.3l3,5.1l3-5.1h3.1l-4.3,6.9l4.7,7.4h-3.4l-3.3-5.5L35.8,24h-3.2l4.7-7.4L33,9.8z M24,9.8h3.2L31.6,21L29.6,24l-1.2-3.3
		h-5.8L21.4,24h-2.9L24,9.8z M13.1,9.6c1.2,0,2.4,0.1,3.4,0.5l-0.8,2.1c-0.7-0.2-1.5-0.4-2.3-0.4c-1,0-2.2,0.4-2.2,2
		c0,2.5,6.3,1.4,6.3,6.2c0,3.1-2.5,4.3-5.4,4.3c-1.5,0-2.3-0.2-3.7-0.5l0.9-2.3c0.8,0.4,1.7,0.6,2.6,0.6c1.1,0,2.5-0.6,2.5-1.8
		c0-2.7-6.3-1.6-6.3-6.3C8.1,10.7,10.6,9.6,13.1,9.6z"/>
	<polygon class="st0" points="42.7,45.3 42.7,45.3 39.2,38.4 36.9,38.4 36.9,47.7 38.7,47.7 38.7,40.7 38.7,40.7 42.2,47.7 
		44.5,47.7 44.5,38.4 42.7,38.4 	"/>
	<path class="st0" d="M13.9,42.9L13.9,42.9c1.1-0.2,1.8-1,1.8-2.1c0-2-1.8-2.4-3-2.4H9.5v9.2h3.2c1.2,0,3.2-0.4,3.2-2.7
		C16,43.8,15.2,43,13.9,42.9z M11.4,39.9h0.7c0.8,0,1.8,0.1,1.8,1.2c0,1-1,1.1-1.8,1.1h-0.7V39.9z M12.2,46.2h-0.9v-2.7h0.9
		c0.9,0,1.9,0.2,1.9,1.4C14.1,46,13.1,46.2,12.2,46.2z"/>
	<path class="st1" d="M12.2,43.5h-0.9v2.7h0.9c0.9,0,1.9-0.2,1.9-1.3C14.1,43.7,13.2,43.5,12.2,43.5z"/>
	<polygon class="st1" points="26.1,40.3 24.8,44.1 27.5,44.1 26.2,40.3 	"/>
	<path class="st1" d="M0.3,0.3v53.8h68V0.3H0.3z M12.7,47.7H9.5v-9.2h3.2c1.2,0,3,0.4,3,2.4c0,1.1-0.7,1.9-1.8,2.1v0
		c1.3,0.1,2.1,1,2.1,2.1C16,47.3,13.9,47.7,12.7,47.7z M28.8,47.7L28,45.5h-3.7l-0.8,2.1h-1.9l3.6-9.2h2.1l3.6,9.2H28.8z M44.5,47.7
		h-2.3l-3.5-6.9h0v6.9h-1.8v-9.2h2.3l3.5,6.9h0v-6.9h1.8V47.7z M56.6,47.6l-3.3-4.3v4.3h-1.8v-9.2h1.8v4l3.3-4h2.3l-3.8,4.3l4,4.9
		H56.6z M66.7,32H1.9V1.9h64.9V32z"/>
	<path class="st1" d="M13.9,41c0-1.1-1-1.2-1.8-1.2h-0.7v2.3h0.7C12.9,42.1,13.9,42,13.9,41z"/>
	<path class="st1" d="M14.4,20.2c0,1.3-1.5,1.8-2.5,1.8c-0.9,0-1.8-0.2-2.6-0.6l-0.9,2.3c1.4,0.4,2.1,0.5,3.7,0.5
		c2.9,0,5.4-1.2,5.4-4.3c0-4.8-6.3-3.8-6.3-6.2c0-1.5,1.3-2,2.2-2c0.8,0,1.6,0.1,2.3,0.4l0.8-2.1c-1-0.4-2.2-0.5-3.4-0.5
		c-2.5,0-5,1.2-5,4.3C8.1,18.6,14.4,17.5,14.4,20.2z"/>
	<polygon class="st1" points="35.8,24 39.1,18.5 42.4,24 45.7,24 41.1,16.6 45.3,9.8 42.3,9.8 39.2,14.9 36.3,9.8 33,9.8 37.2,16.6 
		32.5,24 	"/>
	<path class="st1" d="M53.5,24.3c4.5,0,7-3.1,7-7.4c0-4.3-2.5-7.3-7-7.3c-4.5,0-7,2.9-7,7.3S48.9,24.3,53.5,24.3z M53.5,11.8
		c2.8,0,4,2.6,4,5.1c0,2.6-1.1,5.2-4,5.2c-2.9,0-4-2.6-4-5.2C49.5,14.4,50.6,11.8,53.5,11.8z"/>
	<path class="st1" d="M22.6,20.7h5.8l1.2,3.3l1.9-3.1L27.2,9.8H24L18.4,24h2.9L22.6,20.7z M25.5,12.6L25.5,12.6l2.1,5.9h-4.1
		L25.5,12.6z"/>
</g>
<g>
	<path class="st0" d="M68.3,0.3v53.8h-68V0.3H68.3 M68.6,0h-0.3h-68H0v0.3v53.8v0.3h0.3h68h0.3v-0.3V0.3V0L68.6,0z"/>
</g>
</svg>
