<?xml version="1.0" encoding="utf-8"?>
<!-- Generator: Adobe Illustrator 26.3.1, SVG Export Plug-In . SVG Version: 6.00 Build 0)  -->
<svg version="1.1" id="Layer_1" xmlns="http://www.w3.org/2000/svg" xmlns:xlink="http://www.w3.org/1999/xlink" x="0px" y="0px"
	 viewBox="0 0 406.4 90" style="enable-background:new 0 0 406.4 90;" xml:space="preserve">
<style type="text/css">
	.st0{fill:#2EC4F1;}
</style>
<g transform="matrix(2.70901 0 0 2.70901 75.4695 153.947)">
	<path class="st0" d="M-18.4-56.8c-5.5,0-9.5,4.6-9.5,9.4c0,5.3,4.3,9.5,9.5,9.5h11.6c2.5,0,4.9,2,4.9,4.7c0,2.7-2.1,5-4.9,5h-20.6
		v4.6H-6c5.5,0,9.6-4.3,9.6-9.5c0-5.1-4.2-9.3-9.6-9.3h-11.9c-2.7,0-4.9-2.2-4.9-4.9c0-2.7,2.3-4.8,4.9-4.8h29.2v28.6h5.1v-28.6h13
		v-4.6L-18.4-56.8z"/>
	<path class="st0" d="M116.9-56.8v14.3H96.7v-14.3h-5.2v33.2h5.2v-14.3h20.2v14.3h5.2v-33.2H116.9z"/>
	<path class="st0" d="M35.8-28.2h10v4.6h-10V-28.2z"/>
	<path class="st0" d="M77.5-42.5H65.7c-2.7,0-4.9-2.2-4.9-4.9c0-2.7,2.3-4.8,4.9-4.8h19.1v-4.6l-19.6,0c-5.5,0-9.5,4.6-9.5,9.4
		c0,5.3,4.3,9.5,9.5,9.5h11.6c2.5,0,4.9,2,4.9,4.7c0,2.7-2.1,5-4.9,5H56.5L42.7-56.8h-4.1L22.5-23.6h5.2l12.9-26.3l12.7,26.3h24.2
		c5.5,0,9.6-4.3,9.6-9.5C87.1-38.2,82.9-42.5,77.5-42.5z"/>
</g>
</svg>
