<svg width="160" height="80" viewBox="0 0 160 80" fill="none" xmlns="http://www.w3.org/2000/svg">
<path fill-rule="evenodd" clip-rule="evenodd" d="M66.6601 22.3097H70.2267L76.9315 38.0599L74.2273 42.0496L72.5313 37.9266H64.2547L62.5479 42.0694H58.2502L66.6601 22.3097ZM68.3867 27.8712L65.6716 34.4914H71.1107L68.3867 27.8712Z" fill="white"/>
<path d="M97.768 22.3097L91.4142 31.6953L98.4557 42.0676H93.717L89.0899 35.0982L84.3403 42.0676H79.724L86.7259 31.7674L80.2803 22.3097H85.0515L89.0503 28.4059L93.1624 22.3097H97.768Z" fill="white"/>
<path d="M47.4224 25.5379C45.5104 25.5379 44.0916 26.4021 44.0916 27.9342C44.0916 29.4057 46.0238 29.8715 48.284 30.4164C51.4691 31.1843 55.3058 32.1093 55.3047 36.227C55.3047 39.7847 51.9109 42.3755 47.3162 42.3755C43.1122 42.3755 39.9146 40.206 39 36.8338L42.9267 35.5807C43.5641 37.5341 45.0855 38.8088 47.4404 38.8088C49.5992 38.8088 51.1115 37.8834 51.1115 36.4233C51.1115 34.7443 49.044 34.2526 46.6909 33.693C43.5833 32.9539 39.9776 32.0963 39.9776 28.2295C39.9776 24.8069 43.0312 22 47.6781 22C51.1547 22 53.9904 23.6456 55.0293 26.3084L51.1547 27.747C50.5894 26.5353 49.5001 25.5379 47.4224 25.5379Z" fill="white"/>
<path fill-rule="evenodd" clip-rule="evenodd" d="M101.09 32.1905C101.09 26.5875 105.603 22.0018 111.412 22.0018C117.22 22.0018 121.753 26.5875 121.753 32.1905C121.753 37.7934 117.22 42.3791 111.412 42.3791C105.603 42.3791 101.09 37.7934 101.09 32.1905ZM105.357 32.1887C105.357 35.9408 108.009 38.645 111.412 38.645C114.865 38.645 117.486 35.9426 117.488 32.1887C117.488 28.4365 114.867 25.7323 111.412 25.7323C108.009 25.7323 105.357 28.4365 105.357 32.1887Z" fill="white"/>
<path fill-rule="evenodd" clip-rule="evenodd" d="M109.548 51.5471C110.176 51.5471 110.718 51.6731 111.17 51.9251C111.622 52.1772 111.972 52.5409 112.213 53.0144C112.458 53.4879 112.578 54.0515 112.578 54.7104C112.578 55.3712 112.458 55.9383 112.213 56.4118C111.968 56.8853 111.617 57.2508 111.158 57.5029C110.699 57.7549 110.149 57.8828 109.505 57.8828H107.359V51.5471H109.548ZM110.553 56.6459C110.848 56.4838 111.069 56.2408 111.217 55.9185C111.367 55.5962 111.44 55.1929 111.44 54.7068C111.44 54.2225 111.367 53.8192 111.217 53.4987C111.069 53.1782 110.85 52.9388 110.56 52.7785C110.272 52.6201 109.912 52.5391 109.483 52.5391H108.506V56.8889H109.449C109.89 56.8889 110.257 56.8079 110.553 56.6459Z" fill="white"/>
<path d="M105.101 55.1911H102.339V56.9213H105.337V57.8828H101.192V51.5471H105.313V52.5085H102.341V54.2279H105.101V55.1911Z" fill="white"/>
<path d="M96.2555 52.5085H94.2966V51.5471H99.3523V52.5085H97.3934V57.8828H96.2555V52.5085Z" fill="white"/>
<path d="M91.5114 54.5034C91.7328 54.5988 91.9327 54.7176 92.1091 54.8616C92.2856 55.0075 92.4242 55.1803 92.5286 55.382C92.6312 55.5872 92.6835 55.8267 92.6835 56.1003C92.6835 56.4712 92.588 56.7971 92.399 57.0798C92.2099 57.3607 91.9345 57.5803 91.578 57.7387C91.2197 57.8954 90.7876 57.9746 90.2799 57.9746C89.7884 57.9746 89.3599 57.899 88.998 57.7459C88.6361 57.5929 88.3534 57.3697 88.15 57.078C87.9465 56.7863 87.8367 56.428 87.8205 56.0085H88.9494C88.9656 56.2282 89.034 56.4136 89.1528 56.5595C89.2716 56.7053 89.4283 56.8151 89.6209 56.8871C89.8136 56.9592 90.0296 56.9952 90.2691 56.9952C90.5175 56.9952 90.7372 56.9574 90.9262 56.8817C91.1153 56.8061 91.2629 56.7017 91.3709 56.5667C91.4772 56.4316 91.533 56.2732 91.5348 56.0913C91.5312 55.9257 91.4826 55.7889 91.3889 55.6808C91.2935 55.5728 91.1603 55.481 90.9911 55.409C90.82 55.3352 90.622 55.2704 90.3951 55.2127L89.6749 55.0273C89.1528 54.8941 88.7423 54.6906 88.4398 54.4169C88.1374 54.1433 87.9861 53.7796 87.9861 53.3259C87.9861 52.9514 88.087 52.6255 88.2904 52.3446C88.4939 52.0656 88.7693 51.8459 89.1204 51.6911C89.4715 51.5362 89.8694 51.457 90.3123 51.457C90.7606 51.457 91.1549 51.5362 91.4952 51.6911C91.8337 51.8459 92.1019 52.062 92.2946 52.3374C92.489 52.6111 92.5898 52.928 92.5952 53.2845H91.4916C91.4628 53.0144 91.3421 52.8056 91.1279 52.6543C90.9154 52.5049 90.6382 52.4293 90.2979 52.4293C90.0584 52.4293 89.8532 52.4653 89.6821 52.5373C89.5111 52.6093 89.3797 52.7083 89.2896 52.8326C89.1978 52.955 89.151 53.0972 89.1492 53.2557C89.1492 53.3871 89.1816 53.5023 89.241 53.5995C89.3004 53.6968 89.3833 53.7778 89.4895 53.8462C89.5939 53.9128 89.7109 53.9686 89.8388 54.0136C89.9666 54.0587 90.0962 54.0983 90.2259 54.1289L90.82 54.2783C91.0595 54.3323 91.2899 54.4079 91.5114 54.5034Z" fill="white"/>
<path d="M85.7932 55.1911H83.0331L83.0313 56.9213H86.0291V57.8828H81.8845V51.5471H86.0056V52.5085H83.0331V54.2279H85.7932V55.1911Z" fill="white"/>
<path d="M77.2069 56.5325H77.2717L78.9173 51.5471H80.1794L77.9469 57.8828H76.53L74.2992 51.5471H75.5577L77.2069 56.5325Z" fill="white"/>
<path d="M71.3951 55.8645H71.4509L71.4491 51.5452H72.5906V57.881H71.5698L68.5847 53.5653H68.5324V57.881H67.3856V51.5452H68.4136L71.3951 55.8645Z" fill="white"/>
<path d="M65.2683 57.881H64.1214V51.5452H65.2683V57.881Z" fill="white"/>
<path d="M58.8317 55.1911H56.0716L56.0698 56.9213H59.0676V57.8828H54.923V51.5471H59.0442V52.5085H56.0716V54.2279H58.8317V55.1911Z" fill="white"/>
<path fill-rule="evenodd" clip-rule="evenodd" d="M51.6984 54.6006C51.9234 54.6132 52.1395 54.6816 52.3465 54.8058C52.5536 54.9301 52.7246 55.1047 52.8543 55.3334C52.9857 55.5602 53.0523 55.8357 53.0523 56.1562C53.0523 56.4856 52.9731 56.7791 52.8147 57.0402C52.6544 57.3012 52.415 57.5065 52.0963 57.6577C51.7758 57.8072 51.3743 57.8828 50.89 57.8828H48.3262V51.5471H50.7514C51.2105 51.5471 51.5904 51.6191 51.8946 51.7613C52.1989 51.9053 52.4258 52.0998 52.5788 52.3482C52.73 52.5949 52.8057 52.8758 52.8057 53.189C52.8057 53.4483 52.757 53.668 52.658 53.8498C52.5572 54.0335 52.424 54.1811 52.2583 54.2945C52.0909 54.4097 51.9054 54.4908 51.6984 54.5394V54.6006ZM50.7081 56.9231C51.1258 56.9231 51.4247 56.8439 51.6102 56.6837C51.7938 56.5235 51.8874 56.3182 51.8874 56.0661C51.8874 55.8789 51.8406 55.7097 51.747 55.5584C51.6534 55.4072 51.5219 55.2884 51.3509 55.2001C51.1799 55.1119 50.9746 55.0687 50.7388 55.0687H49.473V56.9231H50.7081ZM50.6343 52.4941H49.4748V54.2423H50.6109C50.809 54.2423 50.9872 54.2045 51.1457 54.1325C51.3041 54.0587 51.4301 53.9542 51.5219 53.8192C51.612 53.6842 51.6588 53.5239 51.6588 53.3385C51.6588 53.0936 51.5724 52.8902 51.3995 52.7317C51.2285 52.5733 50.9728 52.4941 50.6343 52.4941Z" fill="white"/>
</svg>
