<svg width="166" height="152" viewBox="0 0 166 152" fill="none" xmlns="http://www.w3.org/2000/svg">
<path fill-rule="evenodd" clip-rule="evenodd" d="M63.2404 40.162C68.7619 37.7513 74.7639 36.643 80.7822 36.9229C82.9912 37.0256 84.8652 35.3182 84.968 33.1092C85.0707 30.9001 83.3633 29.0261 81.1542 28.9234C73.9089 28.5864 66.6832 29.9206 60.036 32.8229C53.3888 35.7252 47.4984 40.1177 42.8204 45.6606C38.1424 51.2036 34.8021 57.7484 33.0581 64.7887C31.3141 71.8291 31.2131 79.1763 32.7628 86.2619C34.3125 93.3476 37.4714 99.9818 41.9952 105.651C42.4549 106.227 42.9275 106.792 43.4124 107.345L33.3436 117.184C31.8318 116.689 30.172 116.579 28.5056 116.943C23.5226 118.033 20.3664 122.956 21.4561 127.939C22.5457 132.922 27.4685 136.078 32.4514 134.988C37.4344 133.898 40.5905 128.976 39.5009 123.993C39.4055 123.556 39.2807 123.134 39.1291 122.728L49.1877 112.898C52.143 115.293 55.386 117.33 58.8513 118.958C65.4161 122.042 72.6024 123.574 79.8543 123.437C87.1061 123.299 94.2291 121.495 100.672 118.164C102.637 117.149 103.406 114.733 102.39 112.768C101.375 110.804 98.9591 110.035 96.9947 111.05C91.6427 113.817 85.7261 115.316 79.7023 115.43C73.6786 115.544 67.7094 114.271 62.2563 111.709C56.8033 109.148 52.0126 105.366 48.2549 100.657C44.4973 95.9472 41.8733 90.4366 40.586 84.5509C39.2988 78.6652 39.3827 72.5623 40.8314 66.7143C42.28 60.8662 45.0546 55.4298 48.9403 50.8256C52.8261 46.2214 57.719 42.5728 63.2404 40.162Z" fill="url(#paint0_linear_3_4055)"/>
<path d="M76.9854 50.9048C83.4083 50.2934 89.8084 52.0031 94.9951 55.6967C100.18 59.389 103.801 64.812 105.199 70.9499C106.597 77.0877 105.682 83.5421 102.607 89.1125C99.5317 94.6849 94.5034 98.9942 88.4487 101.221" stroke="url(#paint1_linear_3_4055)" stroke-width="8.00818" stroke-linecap="round" stroke-linejoin="round"/>
<path fill-rule="evenodd" clip-rule="evenodd" d="M65.8546 16.2498C63.6943 16.7223 62.326 18.8566 62.7985 21.0169C63.271 23.1773 65.4053 24.5455 67.5657 24.073C76.2498 22.1737 85.2684 22.4454 93.8224 24.864C102.377 27.2826 110.202 31.7736 116.606 37.939C123.01 44.1044 127.794 51.754 130.536 60.2101C133.277 68.6663 133.891 77.6681 132.322 86.418C130.754 95.168 127.051 103.396 121.543 110.373C116.035 117.351 108.892 122.862 100.745 126.419C92.5981 129.976 83.6998 131.469 74.8383 130.766C65.9767 130.062 57.4254 127.184 49.9417 122.387C48.08 121.193 45.6033 121.735 44.4098 123.597C43.2163 125.458 43.758 127.935 45.6197 129.129C54.2121 134.637 64.0303 137.941 74.2047 138.749C84.379 139.556 94.5956 137.842 103.949 133.758C113.303 129.674 121.505 123.346 127.829 115.335C134.153 107.324 138.404 97.8773 140.205 87.831C142.006 77.7848 141.301 67.4495 138.154 57.7405C135.579 49.7976 131.434 42.4745 125.985 36.1972L131.753 30.5091C133.244 30.974 134.874 31.0664 136.508 30.7013C141.486 29.5891 144.619 24.6521 143.507 19.6741C142.395 14.6961 137.458 11.5623 132.48 12.6745C127.502 13.7867 124.368 18.7238 125.48 23.7017C125.584 24.1663 125.721 24.6147 125.889 25.0452L120.356 30.5008C113.358 24.2778 105.033 19.7117 96.0013 17.158C86.18 14.381 75.8253 14.0691 65.8546 16.2498Z" fill="url(#paint2_linear_3_4055)"/>
<defs>
<linearGradient id="paint0_linear_3_4055" x1="104.059" y1="130.073" x2="37.1435" y2="73.2947" gradientUnits="userSpaceOnUse">
<stop stop-color="#EFAB00"/>
<stop offset="1" stop-color="#EFB700"/>
</linearGradient>
<linearGradient id="paint1_linear_3_4055" x1="65.5732" y1="83.3475" x2="67.3208" y2="50.8901" gradientUnits="userSpaceOnUse">
<stop stop-color="#DD3163"/>
<stop offset="1" stop-color="#FF5663"/>
</linearGradient>
<linearGradient id="paint2_linear_3_4055" x1="48.6117" y1="125.892" x2="80.6611" y2="106.863" gradientUnits="userSpaceOnUse">
<stop offset="0.03" stop-color="#1890FF"/>
<stop offset="1" stop-color="#18B5FF"/>
</linearGradient>
</defs>
</svg>