<svg xmlns="http://www.w3.org/2000/svg" viewBox="0 0 116.71 125.19"><defs><style>.cls-1{fill:#08303a;}.cls-2{fill:#11696b;}.cls-3{fill:#20d3bd;}</style></defs><g id="artwork"><path class="cls-1" d="M96.39,34.23,79.87,11.08a26.43,26.43,0,0,0-43,0L20.32,34.23A26.42,26.42,0,0,0,41.83,76h33A26.42,26.42,0,0,0,96.39,34.23ZM74.87,68h-33a18.42,18.42,0,0,1-15-29.12L43.35,15.72a18.43,18.43,0,0,1,30,0L89.87,38.88A18.42,18.42,0,0,1,74.87,68Z"/><path class="cls-2" d="M105.89,72.32,73,26.24a18,18,0,0,0-29.31,0L10.82,72.32a18,18,0,0,0,14.65,28.46H91.24a18,18,0,0,0,14.65-28.46ZM91.24,92.78H25.47A10,10,0,0,1,17.33,77L50.21,30.88a10,10,0,0,1,16.28,0L99.38,77A10,10,0,0,1,91.24,92.78Z"/><path class="cls-3" d="M114.83,109.26,66.56,41.61a10.07,10.07,0,0,0-16.41,0L1.88,109.26a10.08,10.08,0,0,0,8.2,15.93h96.55a10.08,10.08,0,0,0,8.2-15.93Zm-8.2,7.93H10.08a2.08,2.08,0,0,1-1.69-3.29L56.66,46.25a2.08,2.08,0,0,1,1.69-.87,2.05,2.05,0,0,1,1.69.87l48.28,67.65A2.08,2.08,0,0,1,106.63,117.19Z"/></g></svg>