<svg width="48" height="53" fill="none" xmlns="http://www.w3.org/2000/svg"><g clip-path="url(#a)" fill="#fff"><path d="M47.227 45.7 27.375 17.405a4.162 4.162 0 0 0-1.477-1.301 4.084 4.084 0 0 0-3.796 0 4.164 4.164 0 0 0-1.477 1.301L.773 45.701a4.277 4.277 0 0 0-.31 4.377 4.189 4.189 0 0 0 1.526 1.668c.65.403 1.396.617 2.157.618h39.708c.761-.001 1.508-.215 2.157-.618a4.188 4.188 0 0 0 1.526-1.669 4.276 4.276 0 0 0-.31-4.376Zm-3.373 3.317H4.146a.845.845 0 0 1-.446-.127.883.883 0 0 1-.25-1.248l19.853-28.297a.857.857 0 0 1 .695-.364.833.833 0 0 1 .695.364l19.856 28.296a.88.88 0 0 1-.25 1.249.844.844 0 0 1-.445.127Z"/><path d="M6.4 34.08c.086-.675.336-1.32.727-1.873l13.523-19.29c.38-.543.883-.985 1.465-1.29a4.058 4.058 0 0 1 3.766 0 4.134 4.134 0 0 1 1.465 1.29l13.527 19.29c.39.559.64 1.206.728 1.886l2.623 3.736a7.615 7.615 0 0 0-.674-7.567L30.023 10.975a7.441 7.441 0 0 0-2.637-2.321 7.303 7.303 0 0 0-6.78 0 7.44 7.44 0 0 0-2.637 2.322L4.45 30.248a7.616 7.616 0 0 0-.674 7.567l2.623-3.735ZM37.525 42.154c.21 0 .411 0 .625-.03l-2.328-3.317H12.178L9.87 42.124c.205 0 .41.03.625.03h27.029Z"/><path d="M9.813 19.006c.23-.988.65-1.92 1.234-2.744l6.782-9.687a7.618 7.618 0 0 1 2.7-2.375 7.477 7.477 0 0 1 6.938 0 7.618 7.618 0 0 1 2.7 2.375l6.794 9.687a7.726 7.726 0 0 1 1.234 2.744l3.134 4.467c.396-1.558.45-3.185.16-4.767a11.098 11.098 0 0 0-1.838-4.389L32.85 4.634a10.925 10.925 0 0 0-3.871-3.4A10.723 10.723 0 0 0 24.006.008c-1.73 0-3.434.42-4.972 1.224a10.925 10.925 0 0 0-3.87 3.401l-6.807 9.683a11.116 11.116 0 0 0-1.84 4.389 11.2 11.2 0 0 0 .158 4.767l3.138-4.467ZM30.792 31.789h.103l-2.344-3.346h-9.102l-2.348 3.346h13.691Z"/></g><defs><clipPath id="a"><path fill="#fff" d="M0 0h48v52.364H0z"/></clipPath></defs></svg>