<?xml version="1.0" encoding="UTF-8" standalone="no"?>
<svg
   id="Layer_1"
   version="1.1"
   viewBox="0 0 152 130"
   sodipodi:docname="dataHub_symbol_color.svg"
   width="152"
   height="130"
   xmlns:inkscape="http://www.inkscape.org/namespaces/inkscape"
   xmlns:sodipodi="http://sodipodi.sourceforge.net/DTD/sodipodi-0.dtd"
   xmlns="http://www.w3.org/2000/svg"
   xmlns:svg="http://www.w3.org/2000/svg">
  <sodipodi:namedview
     id="namedview3"
     pagecolor="#ffffff"
     bordercolor="#000000"
     borderopacity="0.25"
     inkscape:showpageshadow="2"
     inkscape:pageopacity="0.0"
     inkscape:pagecheckerboard="0"
     inkscape:deskcolor="#d1d1d1">
    <inkscape:page
       x="0"
       y="0"
       width="152"
       height="130"
       id="page2"
       margin="0"
       bleed="0" />
  </sodipodi:namedview>
  <!-- Generator: Adobe Illustrator 30.1.0, SVG Export Plug-In . SVG Version: 2.1.1 Build 136)  -->
  <defs
     id="defs1">
    <style
       id="style1">
      .st0 {
        fill: #006dcd;
      }

      .st1 {
        fill: #ec9e32;
      }

      .st2 {
        fill: #d23500;
      }
    </style>
  </defs>
  <g
     id="g3"
     transform="matrix(1.2048193,0,0,1.2048193,6.9571607,-1.235e-6)">
    <path
       class="st0"
       d="m 7.2,81 c 4.7,8.1 11.4,14.8 19.4,19.5 8,4.7 17.4,7.4 27.4,7.4 14.9,0 28.4,-6.1 38.2,-15.8 C 102,82.3 108,68.8 108,53.9 108,39 101.9,25.5 92.2,15.7 82.4,6.1 68.9,0 54,0 c -2.3,0 -4.2,1.9 -4.2,4.2 0,2.3 1.9,4.2 4.2,4.2 12.6,0 24,5.1 32.3,13.4 8.3,8.3 13.4,19.7 13.4,32.3 0,12.6 -5.1,24 -13.4,32.3 C 78,94.7 66.6,99.8 54,99.8 45.5,99.8 37.6,97.5 30.8,93.5 24,89.5 18.3,83.8 14.4,77 13.3,75 10.7,74.3 8.7,75.5 6.7,76.6 6,79.2 7.2,81.2 v 0 z"
       id="path1" />
    <path
       class="st1"
       d="m 72.7,21.6 c -5.7,-3.3 -12.2,-5 -18.7,-5 -6.3,0 -12.8,1.6 -18.7,5 -6,3.5 -10.7,8.3 -13.8,14 -3.2,5.6 -4.8,12 -4.8,18.4 0,6.3 1.6,12.8 5,18.7 3.5,6 8.3,10.7 14,13.8 5.6,3.2 12,4.8 18.4,4.8 6.3,0 12.8,-1.6 18.7,-5 2,-1.1 2.7,-3.7 1.5,-5.7 -1.1,-2 -3.7,-2.7 -5.7,-1.5 C 64,81.7 59,83 54.1,83 c -5,0 -10,-1.3 -14.4,-3.8 -4.4,-2.5 -8.2,-6.1 -10.9,-10.8 -2.7,-4.6 -3.9,-9.6 -3.9,-14.5 0,-5 1.3,-10 3.8,-14.4 2.5,-4.4 6.1,-8.2 10.8,-10.9 4.6,-2.6 9.6,-3.9 14.5,-3.9 5.1,0 10.2,1.3 14.6,3.9 2,1.1 4.5,0.5 5.7,-1.5 1.1,-2 0.5,-4.5 -1.5,-5.7 v 0 z"
       id="path2" />
    <path
       class="st2"
       d="m 54,74.8 c 5.7,0 10.9,-2.3 14.7,-6.1 3.8,-3.7 6.1,-9 6.1,-14.7 0,-5.7 -2.3,-10.9 -6.1,-14.7 -3.7,-3.8 -9,-6.1 -14.7,-6.1 -2.3,0 -4.2,1.9 -4.2,4.2 0,2.3 1.9,4.2 4.2,4.2 3.5,0 6.5,1.4 8.8,3.6 2.3,2.3 3.6,5.4 3.7,8.8 0,3.5 -1.4,6.5 -3.7,8.8 -2.3,2.3 -5.4,3.6 -8.8,3.7 -2.3,0 -4.2,1.9 -4.2,4.2 0,2.3 1.9,4.2 4.2,4.2 v 0 z"
       id="path3" />
  </g>
</svg>
