<svg width="835" height="752" viewBox="0 0 835 752" fill="none" xmlns="http://www.w3.org/2000/svg">
<g fill="#000000" opacity=".02">
<path d="M485.538 601.91C451.326 614.59 414.732 618.521 378.787 613.377C342.842 608.233 308.579 594.163 278.836 572.33C249.093 550.498 224.725 521.532 207.749 487.83C190.774 454.128 181.679 416.661 181.218 378.529C180.757 340.398 188.944 302.7 205.099 268.555C221.255 234.411 244.915 204.804 274.121 182.184C303.327 159.564 337.238 144.583 373.047 138.481C408.856 132.379 445.533 135.331 480.041 147.093C485.096 148.781 490.568 148.418 495.38 146.076C500.193 143.733 503.996 139.582 506.042 134.438C507.197 131.546 507.767 128.431 507.715 125.294C507.662 122.157 506.989 119.066 505.738 116.218C504.486 113.369 502.684 110.826 500.446 108.75C498.208 106.674 495.583 105.111 492.739 104.16C466.698 95.2979 439.525 90.6604 412.155 90.407C365.093 89.8332 318.7 102.154 277.544 126.156C236.388 150.158 201.889 185.013 177.442 227.291C152.995 269.569 139.444 317.81 138.123 367.266C136.801 416.722 147.756 465.687 169.907 509.34L86.2999 565.044C75.395 556.984 62.0568 553.406 48.8112 554.99C38.2834 556.237 28.3229 560.656 20.1283 567.715C11.9337 574.774 5.85427 584.172 2.62153 594.778C-0.611221 605.384 -0.859492 616.746 1.90659 627.497C4.67267 638.247 10.3352 647.929 18.2128 655.376C26.0905 662.823 35.8474 667.718 46.3096 669.472C56.7718 671.227 67.4934 669.766 77.1841 665.265C86.8748 660.764 95.1217 653.415 100.932 644.102C106.743 634.79 109.87 623.911 109.936 612.774C109.933 609.598 109.676 606.428 109.167 603.297L193.214 547.42C227.845 595.68 276.182 631.108 331.233 648.581C386.284 666.053 445.195 664.663 499.445 644.613C502.249 643.583 504.819 641.951 506.99 639.82C509.161 637.69 510.885 635.107 512.054 632.236C513.223 629.366 513.81 626.271 513.778 623.149C513.746 620.027 513.096 616.946 511.868 614.103C509.739 608.965 505.848 604.858 500.969 602.599C496.091 600.34 490.582 600.094 485.538 601.91Z" />
<path d="M409.461 543.144C409.472 537.676 411.373 532.398 414.812 528.294C418.251 524.19 422.991 521.541 428.151 520.84C461.571 516.076 492.216 498.736 514.404 472.035C536.592 445.334 548.82 411.083 548.82 375.629C548.82 340.175 536.592 305.923 514.404 279.222C492.216 252.521 461.571 235.182 428.151 230.418C422.996 229.705 418.262 227.052 414.826 222.951C411.389 218.85 409.483 213.578 409.461 208.113C409.45 204.947 410.076 201.814 411.299 198.921C412.522 196.028 414.315 193.44 416.558 191.327C418.801 189.214 421.445 187.625 424.315 186.664C427.184 185.703 430.215 185.392 433.208 185.751C477.098 191.732 517.416 214.305 546.63 249.253C575.843 284.201 591.955 329.134 591.955 375.658C591.955 422.181 575.843 467.114 546.63 502.062C517.416 537.01 477.098 559.583 433.208 565.564C430.211 565.924 427.175 565.611 424.301 564.647C421.428 563.682 418.782 562.088 416.537 559.969C414.293 557.85 412.502 555.255 411.282 552.355C410.062 549.454 409.442 546.315 409.461 543.144Z"/>
<path d="M775.664 48.1092C767.856 48.7038 760.259 51.0447 753.381 54.9751C746.503 58.9056 740.504 64.3349 735.784 70.8998C731.063 77.4647 727.731 85.0138 726.011 93.0417C724.29 101.07 724.221 109.391 725.807 117.45L689.637 141.488C658.484 100.261 619.445 66.3679 575.046 42.0011C530.647 17.6343 481.876 3.33662 431.889 0.0329504C428.999 -0.132103 426.109 0.324164 423.393 1.37384C420.677 2.42352 418.194 4.04454 416.095 6.13776C413.995 8.23098 412.324 10.7524 411.184 13.5478C410.043 16.3431 409.457 19.3537 409.461 22.3953C409.496 28.1531 411.62 33.6799 415.4 37.8468C419.18 42.0137 424.33 44.5064 429.8 44.8155C508.842 50.3153 583.027 86.8574 637.628 147.188C692.229 207.518 723.253 287.225 724.543 370.486C727.181 552.505 582.998 706.788 409.736 707.019C333.767 707.327 260.286 678.573 202.999 626.122C199.509 622.878 195.105 620.924 190.46 620.558C185.814 620.193 181.183 621.437 177.273 624.099C174.478 625.992 172.139 628.542 170.442 631.548C168.745 634.554 167.737 637.934 167.497 641.421C167.257 644.907 167.792 648.404 169.06 651.636C170.327 654.868 172.292 657.745 174.8 660.041C241.699 721.335 327.999 754.09 416.717 751.86C479.795 750.561 541.424 731.753 595.357 697.342C649.29 662.931 693.608 614.14 723.818 555.917C754.028 497.695 769.056 432.11 767.378 365.813C765.7 299.516 747.376 234.864 714.263 178.412L750.158 154.547C757.5 159.441 765.842 162.434 774.499 163.281C783.155 164.127 791.879 162.804 799.955 159.418C808.03 156.033 815.226 150.682 820.953 143.805C826.679 136.929 830.772 128.722 832.896 119.86C835.019 110.998 835.113 101.733 833.169 92.8249C831.225 83.9172 827.299 75.6212 821.713 68.6182C816.127 61.6152 809.041 56.1048 801.036 52.5396C793.031 48.9744 784.335 47.456 775.664 48.1092Z" />
</g>
</svg>
