<?xml version="1.0" encoding="UTF-8" standalone="no"?>
<svg
   id="Layer_1"
   version="1.1"
   viewBox="0 0 655.41387 111"
   sodipodi:docname="dataHub_logoCloud_color_black.svg"
   width="655.41388"
   height="111"
   xmlns:inkscape="http://www.inkscape.org/namespaces/inkscape"
   xmlns:sodipodi="http://sodipodi.sourceforge.net/DTD/sodipodi-0.dtd"
   xmlns="http://www.w3.org/2000/svg"
   xmlns:svg="http://www.w3.org/2000/svg">
  <sodipodi:namedview
     id="namedview15"
     pagecolor="#ffffff"
     bordercolor="#000000"
     borderopacity="0.25"
     inkscape:showpageshadow="2"
     inkscape:pageopacity="0.0"
     inkscape:pagecheckerboard="0"
     inkscape:deskcolor="#d1d1d1">
    <inkscape:page
       x="0"
       y="0"
       width="655.41388"
       height="111"
       id="page2"
       margin="0"
       bleed="0" />
  </sodipodi:namedview>
  <!-- Generator: Adobe Illustrator 30.1.0, SVG Export Plug-In . SVG Version: 2.1.1 Build 136)  -->
  <defs
     id="defs1">
    <style
       id="style1">
      .st0 {
        fill: #006dcd;
      }

      .st1 {
        fill: #ec9e32;
      }

      .st2 {
        fill: #d23500;
      }
    </style>
  </defs>
  <g
     id="g7"
     transform="matrix(1.0287303,0,0,1.0287303,-3.1922562e-4,0)">
    <path
       d="M 149.2,83 H 126.4 V 24.9 h 22.8 c 16.5,0 26.1,12 26.1,29.1 0,17.1 -9.7,29.1 -26.1,29.1 z M 136.1,33.1 v 41.8 h 11.6 c 10.9,0 17.7,-7.5 17.7,-20.9 0,-13.4 -6.8,-20.9 -17.7,-20.9 z"
       id="path1" />
    <path
       d="m 216.3,83 h -8.1 v -4.7 c -2.6,3.9 -7.4,6 -13.6,6 -6.2,0 -14.8,-3.8 -14.8,-11.6 0,-7.8 1.6,-7.5 4.8,-9.6 3.3,-2.1 7.8,-3.8 13.6,-4.8 l 9.4,-1.7 v -1.5 c 0,-4.5 -3.3,-7 -8.5,-7 -5.2,0 -8.3,1.9 -13.2,6.8 l -5.7,-5.2 c 5.2,-6.1 11,-9 18.6,-9 11.1,0 17.4,5.6 17.4,14.3 v 28.1 z m -8.6,-19.9 -7.1,1.5 c -8.2,1.7 -11.9,3.4 -11.9,7.6 0,4.2 2.7,4.9 7.2,4.9 6.6,0 11.8,-3.7 11.8,-10.2 z"
       id="path2" />
    <path
       d="m 248.3,82.4 c -3,1.1 -6,1.6 -8.9,1.6 -8,0 -11.2,-3.6 -11.2,-11.1 V 48.7 h -7.5 v -6.8 h 7.5 V 28.6 h 9 v 13.3 h 10.4 v 6.8 h -10.4 v 23.1 c 0,3.2 1.4,4.3 4.4,4.3 3,0 3.3,-0.3 5.5,-0.9 l 1.1,7.1 z"
       id="path3" />
    <path
       d="m 290,83 h -8.1 v -4.7 c -2.6,3.9 -7.4,6 -13.6,6 -6.2,0 -14.8,-3.8 -14.8,-11.6 0,-7.8 1.6,-7.5 4.8,-9.6 3.3,-2.1 7.8,-3.8 13.6,-4.8 l 9.4,-1.7 v -1.5 c 0,-4.5 -3.3,-7 -8.5,-7 -5.2,0 -8.3,1.9 -13.2,6.8 l -5.7,-5.2 c 5.2,-6.1 11,-9 18.6,-9 11.1,0 17.4,5.6 17.4,14.3 v 28.1 z m -8.6,-19.9 -7.1,1.5 c -8.2,1.7 -11.9,3.4 -11.9,7.6 0,4.2 2.7,4.9 7.2,4.9 6.6,0 11.8,-3.7 11.8,-10.2 z"
       id="path4" />
    <path
       d="m 346.6,83 h -9.8 V 56.7 H 308.4 V 83 h -9.7 V 24.9 h 9.7 v 23.7 h 28.4 V 24.9 h 9.8 v 58.2 z"
       id="path5" />
    <path
       d="M 390.5,41.9 V 83 h -8.3 v -4.8 c -2.3,3.7 -6.6,6 -12.2,6 -9.9,0 -14.7,-5.2 -14.7,-13.2 V 41.8 h 9 v 26.7 c 0,5 2.6,7.9 7.6,7.9 5,0 9.5,-3.4 9.5,-9.7 V 41.8 h 9 z"
       id="path6" />
    <path
       d="m 421.2,84.1 c -6.1,0 -10.7,-2.3 -13.5,-6.8 V 83 h -8.4 V 24.9 h 9 v 22 c 3,-4 7.3,-6.1 12.9,-6.1 10.6,0 18.2,8.7 18.2,21.7 0,13 -7.8,21.6 -18.3,21.6 z m -1.8,-35.6 c -6.8,0 -11.5,5.4 -11.5,14 0,8.6 4.8,13.9 11.5,13.9 6.7,0 10.9,-5.4 10.9,-13.9 0,-8.5 -4.3,-14 -10.9,-14 z"
       id="path7" />
  </g>
  <g
     id="g12"
     transform="matrix(1.0287303,0,0,1.0287303,-3.1922562e-4,0)">
    <path
       d="m 492.8,35.7 c -6.5,-5.3 -11.3,-7 -16.8,-7 -13.4,0 -21.7,10.6 -21.7,25.3 0,14.7 8.5,25.3 21.1,25.3 12.6,0 11.8,-2.8 18.3,-9.1 l 3.6,3.9 c -3.8,3.7 -7.3,6.4 -10.6,7.9 -3.3,1.6 -7,2.3 -11.2,2.3 -16.5,0 -27,-12.7 -27,-30.3 0,-17.6 10.3,-30.3 27.5,-30.3 17.2,0 13.2,2.1 20.2,8 z"
       id="path8" />
    <path
       d="m 509.2,83 h -5.4 V 24.9 h 5.4 v 58.2 z"
       id="path9" />
    <path
       d="m 536.2,84.1 c -11.2,0 -19.1,-8.5 -19.1,-20.8 0,-12.3 7.9,-20.9 19.1,-20.9 11.2,0 19.2,8.5 19.2,20.9 0,12.4 -7.9,20.8 -19.2,20.8 z m -9.9,-9 c 2.5,3 5.7,4.5 9.8,4.5 8.3,0 13.6,-6.7 13.6,-16.3 0,-9.6 -1.2,-8.9 -3.7,-11.9 -2.5,-3 -5.7,-4.6 -9.9,-4.6 -4.2,0 -7.4,1.6 -9.8,4.6 -2.5,3 -3.7,7 -3.7,11.9 0,4.9 1.2,8.8 3.7,11.8 z"
       id="path10" />
    <path
       d="m 594,43.5 v 39.6 h -5.1 v -5.2 c -2.4,4.2 -7,6.3 -12.1,6.3 -9.6,0 -14.2,-5.3 -14.2,-13.1 V 43.6 H 568 V 70 c 0,6.2 3.3,9.6 9.1,9.6 5.8,0 11.5,-4.2 11.5,-11.7 V 43.6 h 5.4 z"
       id="path11" />
    <path
       d="m 637.7,24.9 v 58.2 h -5.1 v -6.7 c -2.9,5 -7.5,7.7 -14,7.7 -10.2,0 -17.5,-8.5 -17.5,-20.7 0,-12.2 7.5,-20.8 17.6,-20.8 10.1,0 10.6,2.3 13.5,7 V 25 h 5.4 z M 619,47 c -3.7,0 -6.6,1.5 -8.9,4.5 -2.2,3 -3.4,7 -3.4,11.8 0,4.8 1.1,8.7 3.4,11.7 2.2,3 5.2,4.4 8.9,4.4 8,0 13.5,-6.1 13.5,-16.1 0,-10 -5.4,-16.3 -13.5,-16.3 z"
       id="path12" />
  </g>
  <path
     class="st0"
     d="M 0.61691896,83.327155 C 5.4519514,91.65987 12.344444,98.552363 20.574287,103.3874 28.804129,108.22243 38.474194,111 48.761497,111 64.089579,111 77.977438,104.72475 88.058995,94.746061 98.140552,84.664504 104.31293,70.776645 104.31293,55.448563 c 0,-15.328081 -6.275251,-29.21594 -16.253935,-39.297497 C 77.977438,6.2752549 63.986706,0 48.658624,0 46.292545,0 44.44083,1.9545876 44.44083,4.3206673 c 0,2.3660797 1.954588,4.3206673 4.320667,4.3206673 12.962002,0 24.689528,5.2465244 33.227989,13.7849864 8.538462,8.538461 13.784986,20.265987 13.784986,33.227989 0,12.962001 -5.246524,24.689527 -13.784986,33.227988 -8.538461,8.538462 -20.265987,13.784982 -33.227989,13.784982 -8.744207,0 -16.871177,-2.36608 -23.866543,-6.480996 C 17.899588,92.071362 12.035825,86.2076 8.0237772,79.212234 6.8921738,77.154773 4.217475,76.434662 2.1600144,77.669138 0.1025538,78.800741 -0.61755741,81.47544 0.61691896,83.532901 v 0 z"
     id="path13"
     style="stroke-width:1.02873" />
  <path
     class="st1"
     d="m 67.895881,22.220575 c -5.863763,-3.39481 -12.55051,-5.143652 -19.237257,-5.143652 -6.481001,0 -13.167748,1.645969 -19.237256,5.143652 -6.172382,3.600556 -11.007415,8.538461 -14.196479,14.402224 -3.291937,5.76089 -4.937905,12.344764 -4.937905,18.928638 0,6.481 1.645968,13.167747 5.143651,19.237256 3.600556,6.172382 8.538462,11.007415 14.402225,14.196478 5.760889,3.291937 12.344763,4.937906 18.928637,4.937906 6.481001,0 13.167748,-1.645969 19.237257,-5.143652 2.057461,-1.131603 2.777572,-3.806302 1.543095,-5.863762 -1.131603,-2.057461 -3.806302,-2.777572 -5.863762,-1.543096 -4.73216,2.674699 -9.875811,4.012048 -14.91659,4.012048 -5.143651,0 -10.287303,-1.337349 -14.813716,-3.909175 -4.526413,-2.571826 -8.435589,-6.275255 -11.21316,-11.110287 -2.777572,-4.732159 -4.012049,-9.875811 -4.012049,-14.91659 0,-5.143651 1.33735,-10.287303 3.909176,-14.813716 2.571825,-4.526413 6.275254,-8.435588 11.110287,-11.21316 4.732159,-2.674699 9.875811,-4.012048 14.916589,-4.012048 5.246525,0 10.493049,1.337349 15.019463,4.012048 2.05746,1.131603 4.629286,0.514365 5.863762,-1.543096 1.131604,-2.05746 0.514366,-4.629286 -1.543095,-5.863762 v 0 z"
     id="path14"
     style="stroke-width:1.02873" />
  <path
     class="st2"
     d="m 48.658624,76.949027 c 5.863763,0 11.213161,-2.36608 15.122336,-6.275255 3.909175,-3.806302 6.275255,-9.258573 6.275255,-15.122335 0,-5.863763 -2.36608,-11.213161 -6.275255,-15.122336 -3.806302,-3.909175 -9.258573,-6.275255 -15.122336,-6.275255 -2.366079,0 -4.320667,1.954588 -4.320667,4.320667 0,2.36608 1.954588,4.320668 4.320667,4.320668 3.600556,0 6.686747,1.440222 9.052827,3.703429 2.36608,2.36608 3.703429,5.555143 3.806302,9.052827 0,3.600556 -1.440222,6.686747 -3.806302,9.052826 -2.36608,2.36608 -5.555144,3.703429 -9.052827,3.806302 -2.366079,0 -4.320667,1.954588 -4.320667,4.320668 0,2.366079 1.954588,4.320667 4.320667,4.320667 v 0 z"
     id="path15"
     style="stroke-width:1.02873" />
</svg>
