<svg width="580" height="111" viewBox="0 0 580 111" fill="none" xmlns="http://www.w3.org/2000/svg">
<g clip-path="url(#clip0_68_695)">
<path fill-rule="evenodd" clip-rule="evenodd" d="M55.2161 20.3932C60.489 19.3348 65.9406 19.5137 71.139 20.915C73.0455 21.4218 75.0117 20.2889 75.5181 18.3807C76.0246 16.4726 74.8925 14.5048 72.986 13.998C66.73 12.3134 60.1613 12.1047 53.8011 13.3719C47.4409 14.639 41.4679 17.3521 36.3291 21.3026C31.1903 25.253 27.0197 30.3364 24.1598 36.1503C21.3 41.9641 19.7956 48.3594 19.7956 54.859C19.7956 61.3586 21.2851 67.7389 24.1598 73.5677C24.3535 73.9553 24.5471 74.3428 24.7556 74.7155L12.4374 82.4226C11.216 81.7071 9.78607 81.2897 8.26677 81.2897C3.70888 81.2897 0.0148926 84.9867 0.0148926 89.5483C0.0148926 94.11 3.70888 97.807 8.26677 97.807C12.8247 97.807 16.5187 94.11 16.5187 89.5483C16.5187 89.1458 16.4889 88.7582 16.4293 88.3706L28.6433 80.7232C30.8626 83.6003 33.4544 86.1793 36.344 88.4005C41.4828 92.3509 47.4707 95.064 53.816 96.3312C60.1762 97.5983 66.73 97.3747 73.0008 95.705C74.9074 95.1982 76.0394 93.2304 75.533 91.3223C75.0266 89.4142 73.0604 88.2812 71.1539 88.7881C65.9555 90.1893 60.5039 90.3682 55.231 89.3098C49.9581 88.2514 44.9832 86.0004 40.7083 82.7208C36.4334 79.4412 32.9777 75.2224 30.5945 70.3924C28.2113 65.5624 26.975 60.2405 26.975 54.859C26.975 49.4774 28.2113 44.1555 30.5945 39.3255C32.9777 34.4955 36.4334 30.2768 40.7083 26.9972C44.9832 23.7175 49.9432 21.4665 55.231 20.4081L55.2161 20.3932Z" fill="url(#paint0_linear_68_695)"/>
<path d="M65.5534 82.1246C63.7957 82.1246 62.2615 80.8277 62.0083 79.0388C61.7402 77.0859 63.1106 75.2672 65.0618 74.9989C69.9176 74.3281 74.3415 71.9578 77.529 68.3204C80.6868 64.7128 82.4146 60.0916 82.3699 55.3361C82.3252 50.5807 80.5229 45.9892 77.3056 42.4413C74.0585 38.8486 69.5899 36.5529 64.7192 35.9566C62.7531 35.7181 61.3678 33.9292 61.5913 31.9763C61.8296 30.0086 63.6021 28.6073 65.5682 28.8458C72.137 29.6359 78.1844 32.7515 82.5933 37.6262C87.0023 42.486 89.46 48.762 89.5196 55.2765C89.5791 61.791 87.2257 68.0968 82.9061 73.0311C78.5866 77.9654 72.5838 81.1854 66.03 82.0948C65.8662 82.1246 65.7023 82.1246 65.5385 82.1246H65.5534Z" fill="url(#paint1_linear_68_695)"/>
<path fill-rule="evenodd" clip-rule="evenodd" d="M62.0531 0C60.072 0 58.4782 1.60999 58.4782 3.57776C58.4782 5.54553 60.0869 7.15552 62.0531 7.15552C69.9921 7.15552 77.8121 9.12329 84.8277 12.865C91.8283 16.6068 97.8013 22.033 102.225 28.637C106.634 35.2409 109.36 42.8437 110.134 50.7595C110.909 58.6753 109.732 66.6507 106.694 74C103.655 81.3493 98.8588 87.8191 92.7072 92.8727C86.5704 97.9114 79.2867 101.37 71.4965 102.92C63.7064 104.471 55.6482 104.068 48.0517 101.772C40.4552 99.4617 33.529 95.3175 27.9135 89.6974C26.5134 88.2961 24.2493 88.2961 22.8492 89.6974C21.449 91.0987 21.449 93.3646 22.8492 94.7659C29.2988 101.221 37.2378 105.976 45.9664 108.63C54.6949 111.283 63.9447 111.73 72.8818 109.956C81.8188 108.183 90.1899 104.217 97.2502 98.4182C104.296 92.6342 109.807 85.1805 113.307 76.7579C116.793 68.3203 118.148 59.1672 117.254 50.0737C116.361 40.9952 113.247 32.2744 108.168 24.6865C108.034 24.4927 107.9 24.299 107.766 24.1052L113.158 20.7361C114.365 21.4367 115.765 21.8243 117.269 21.8243C121.827 21.8243 125.521 18.1273 125.521 13.5657C125.521 9.00403 121.827 5.30701 117.269 5.30701C112.711 5.30701 109.017 9.00403 109.017 13.5657C109.017 13.998 109.047 14.4154 109.107 14.8179L103.312 18.4404C99.0078 13.6551 93.8988 9.63014 88.1939 6.57413C80.1506 2.25101 71.1688 0 62.0531 0Z" fill="url(#paint2_linear_68_695)"/>
<path d="M379.795 51.8775C378.618 49.4326 376.935 47.5096 374.79 46.1083C372.66 44.6921 370.128 43.9766 367.209 43.9766C364.289 43.9766 361.802 44.6921 359.791 46.1083C359.687 46.1829 359.597 46.2723 359.508 46.3468V34.5999H352.552V75.5503H358.644V73.2695C359.031 73.6273 359.434 73.9552 359.88 74.2683C361.921 75.6845 364.453 76.4 367.462 76.4C370.307 76.4 372.78 75.6845 374.91 74.2683C377.025 72.8521 378.663 70.9141 379.84 68.4693C381.002 66.0245 381.583 63.2667 381.583 60.1957C381.583 57.1248 380.987 54.3223 379.81 51.8924L379.795 51.8775ZM373.42 65.2941C372.869 66.8146 372.005 68.0072 370.843 68.9016C369.681 69.7961 368.207 70.2433 366.404 70.2433C364.602 70.2433 363.053 69.8259 361.906 68.9911C360.774 68.1413 359.955 66.9488 359.419 65.4431C358.897 63.9226 358.644 62.1784 358.644 60.1808C358.644 58.1833 358.897 56.4242 359.419 54.9185C359.955 53.398 360.774 52.2203 361.876 51.3855C362.979 50.5358 364.408 50.1035 366.166 50.1035C368.013 50.1035 369.547 50.5656 370.739 51.475C371.945 52.3694 372.824 53.5769 373.405 55.1123C373.971 56.6329 374.269 58.3174 374.269 60.1808C374.269 62.0443 373.986 63.7586 373.405 65.2941H373.42Z" fill="#494D5C"/>
<path d="M339.221 60.5981C339.221 62.4616 339.012 63.997 338.595 65.2045C338.178 66.412 337.612 67.381 336.912 68.0816C336.227 68.7674 335.452 69.2444 334.589 69.5276C333.725 69.8109 332.861 69.96 331.982 69.96C330.343 69.96 329.033 69.6022 328.064 68.9015C327.111 68.2009 326.381 67.3064 325.89 66.2331C325.413 65.13 325.1 63.997 324.966 62.8193C324.832 61.6268 324.773 60.5534 324.773 59.5994V44.8113H317.787V61.9547C317.787 62.7001 317.846 63.6541 317.966 64.8616C318.1 66.0393 318.383 67.2915 318.8 68.6183C319.217 69.945 319.872 71.1973 320.751 72.3749C321.63 73.5526 322.807 74.5216 324.296 75.2819C325.786 76.0421 327.677 76.4148 329.956 76.4148C332.861 76.4148 335.303 75.7887 337.285 74.5365C338.357 73.8508 339.28 73.0309 340.055 72.0917V75.5353H346.147V44.8262H339.221V60.6131V60.5981Z" fill="#494D5C"/>
<path d="M305.052 51.8178H285.539V34.585H278.628V75.5354H285.539V58.2429H305.052V75.5354H311.918V34.585H305.052V51.8178Z" fill="#494D5C"/>
<path d="M271.597 49.6861C270.584 47.6587 269.035 46.1978 266.935 45.3033C264.85 44.4089 262.437 43.9617 259.696 43.9617C256.047 43.9617 253.142 44.7518 250.997 46.317C248.852 47.8972 247.408 49.9693 246.648 52.5781L252.949 54.5459C253.47 52.9657 254.364 51.8626 255.674 51.2215C256.97 50.5805 258.311 50.2526 259.711 50.2526C262.02 50.2526 263.658 50.7594 264.626 51.7582C265.431 52.593 265.877 53.8303 265.997 55.4254C264.76 55.6043 263.539 55.7832 262.362 55.9621C260.411 56.2304 258.609 56.5286 256.926 56.8416C255.272 57.1696 253.812 57.5273 252.576 57.9149C250.938 58.4665 249.597 59.1821 248.569 60.0467C247.542 60.8964 246.782 61.925 246.276 63.1176C245.784 64.2953 245.531 65.622 245.531 67.0978C245.531 68.7824 245.918 70.3327 246.707 71.734C247.512 73.1353 248.689 74.2683 250.223 75.118C251.772 75.9528 253.663 76.3702 255.883 76.3702C258.668 76.3702 260.992 75.8634 262.839 74.8348C264.284 74.0298 265.58 72.867 266.726 71.3763V75.5205H272.759V56.6627C272.759 55.336 272.699 54.1136 272.58 52.9955C272.461 51.8626 272.133 50.7445 271.582 49.6712L271.597 49.6861ZM265.237 65.8307C265.014 66.5314 264.567 67.2767 263.896 68.0817C263.241 68.8718 262.362 69.5576 261.26 70.0942C260.158 70.6458 258.817 70.9141 257.253 70.9141C256.166 70.9141 255.242 70.7501 254.512 70.4073C253.783 70.0644 253.232 69.6172 252.844 69.0358C252.457 68.4544 252.278 67.7687 252.278 67.0233C252.278 66.3525 252.427 65.786 252.71 65.2941C253.023 64.8021 253.44 64.3698 253.991 63.9822C254.542 63.6095 255.227 63.2667 256.017 62.9834C256.836 62.7151 257.789 62.4766 258.847 62.2679C259.919 62.0443 261.2 61.8057 262.675 61.5523C263.628 61.3883 264.701 61.2244 265.892 61.0306C265.892 61.5523 265.863 62.1337 265.818 62.8344C265.773 63.9524 265.58 64.9512 265.222 65.8158L265.237 65.8307Z" fill="#494D5C"/>
<path d="M233.108 36.2993H226.242V44.8263H220.626V50.1929H226.242V62.9834C226.242 64.7276 226.257 66.2929 226.301 67.6793C226.346 69.0656 226.718 70.4222 227.418 71.749C228.223 73.2099 229.399 74.2832 230.934 74.9689C232.483 75.6398 234.225 75.9826 236.177 76.0274C238.143 76.087 240.139 75.923 242.194 75.5503V69.811C240.273 70.0942 238.545 70.1688 237.041 70.0346C235.536 69.9004 234.434 69.2743 233.749 68.1265C233.391 67.5451 233.183 66.7848 233.153 65.8456C233.138 64.9214 233.123 63.8332 233.123 62.6108V50.2079H242.194V44.8412H233.123V36.3142L233.108 36.2993Z" fill="#494D5C"/>
<path d="M217.021 49.6861C216.009 47.6587 214.46 46.1978 212.359 45.3033C210.274 44.4089 207.861 43.9617 205.12 43.9617C201.471 43.9617 198.581 44.7518 196.422 46.317C194.277 47.8972 192.832 49.9693 192.072 52.5781L198.373 54.5459C198.894 52.9657 199.803 51.8626 201.099 51.2215C202.394 50.5805 203.735 50.2526 205.135 50.2526C207.444 50.2526 209.082 50.7594 210.065 51.7582C210.87 52.593 211.317 53.8303 211.451 55.4254C210.214 55.6043 208.993 55.7832 207.816 55.9621C205.865 56.2304 204.063 56.5286 202.38 56.8416C200.726 57.1696 199.267 57.5273 198.03 57.9149C196.392 58.4665 195.051 59.1821 194.023 60.0467C192.996 60.8964 192.236 61.925 191.73 63.1176C191.238 64.2953 190.985 65.622 190.985 67.0978C190.985 68.7824 191.372 70.3327 192.162 71.734C192.966 73.1353 194.143 74.2683 195.677 75.118C197.226 75.9528 199.118 76.3702 201.352 76.3702C204.137 76.3702 206.461 75.8634 208.308 74.8348C209.753 74.0298 211.049 72.867 212.195 71.3763V75.5205H218.243V56.6627C218.243 55.336 218.183 54.1136 218.064 52.9955C217.945 51.8626 217.617 50.7445 217.066 49.6712L217.021 49.6861ZM210.676 65.8307C210.453 66.5314 210.006 67.2767 209.336 68.0817C208.695 68.8718 207.816 69.5576 206.699 70.0942C205.597 70.6458 204.256 70.9141 202.692 70.9141C201.605 70.9141 200.696 70.7501 199.952 70.4073C199.222 70.0644 198.671 69.6172 198.298 69.0358C197.911 68.4544 197.732 67.7687 197.732 67.0233C197.732 66.3525 197.881 65.786 198.164 65.2941C198.462 64.8021 198.894 64.3698 199.445 63.9822C199.996 63.6095 200.682 63.2667 201.471 62.9834C202.29 62.7151 203.244 62.4766 204.301 62.2679C205.374 62.0443 206.655 61.8057 208.144 61.5523C209.097 61.3883 210.17 61.2244 211.361 61.0306C211.361 61.5523 211.332 62.1337 211.287 62.8344C211.257 63.9524 211.049 64.9512 210.691 65.8158L210.676 65.8307Z" fill="#494D5C"/>
<path d="M180.588 38.282C178.339 36.3887 175.583 35.226 172.321 34.8086C171.368 34.6893 170.37 34.6297 169.342 34.6148C168.33 34.5999 167.659 34.585 167.317 34.585H154.179V75.5354H167.317C167.659 75.5354 168.344 75.5354 169.372 75.5056C170.4 75.4907 171.383 75.4161 172.321 75.3118C175.583 74.8944 178.339 73.7465 180.588 71.8682C182.852 69.975 184.58 67.56 185.742 64.653C186.904 61.7312 187.485 58.541 187.485 55.0676C187.485 51.5942 186.904 48.4041 185.742 45.4822C184.58 42.5604 182.852 40.1603 180.588 38.282ZM179.307 61.1945C178.741 63.1474 177.833 64.8021 176.611 66.1736C175.39 67.5451 173.811 68.3948 171.86 68.7675C171.174 68.9016 170.385 68.9911 169.476 69.0209C168.598 69.0656 167.868 69.0805 167.302 69.0805H161.18V41.0398H167.302C167.868 41.0398 168.598 41.0547 169.476 41.0995C170.37 41.1144 171.16 41.2038 171.86 41.3529C173.766 41.7107 175.33 42.5604 176.552 43.8871C177.788 45.2139 178.711 46.8537 179.292 48.8066C179.888 50.7594 180.186 52.8464 180.186 55.0676C180.186 57.2888 179.888 59.2566 179.292 61.2095L179.307 61.1945Z" fill="#494D5C"/>
<path d="M555.304 55.2168C555.751 56.6181 555.989 58.243 555.989 60.0915C555.989 61.94 555.766 63.5649 555.304 64.9662C554.857 66.3675 554.112 67.4557 553.085 68.2309C552.057 69.0061 550.686 69.3937 548.973 69.3937C547.26 69.3937 545.95 68.9763 544.892 68.1415C543.835 67.3066 543.045 66.1886 542.539 64.7873C542.032 63.386 541.779 61.8207 541.779 60.1064C541.779 58.3921 542.047 56.8566 542.569 55.4404C543.105 54.0391 543.909 52.9062 545.011 52.0713C546.114 51.2365 547.529 50.8042 549.242 50.8042C550.85 50.8042 552.146 51.1918 553.129 51.967C554.112 52.7422 554.842 53.8304 555.289 55.2317L555.304 55.2168ZM480.977 51.1471C479.294 51.1471 477.924 51.5198 476.851 52.28C475.779 53.0403 474.975 54.0838 474.468 55.4255C473.947 56.7672 473.694 58.3175 473.694 60.1064C473.694 62.8493 474.319 65.0258 475.541 66.6358C476.777 68.2458 478.594 69.0508 480.992 69.0508C483.39 69.0508 485.312 68.216 486.533 66.5464C487.755 64.8767 488.365 62.7301 488.365 60.1064C488.365 57.4827 487.74 55.2168 486.518 53.5919C485.282 51.967 483.45 51.162 481.007 51.162L480.977 51.1471ZM580 23.5685V85.8812C580 91.9634 575.07 96.8977 568.992 96.8977H406.293C400.216 96.8977 395.286 91.9634 395.286 85.8812V23.5685C395.286 17.4863 400.216 12.552 406.293 12.552H568.992C575.07 12.552 580 17.4863 580 23.5685ZM417.465 54.9932C417.465 52.1608 417.897 49.7011 418.775 47.5991C419.639 45.4972 420.935 43.8723 422.663 42.7244C424.391 41.5766 426.551 40.9952 429.128 40.9952C431.958 40.9952 434.266 41.6809 436.069 43.0524C437.856 44.4239 439.137 46.3469 439.882 48.8215L447.642 46.6749C446.331 42.7095 444.097 39.5641 440.924 37.2385C437.737 34.913 433.819 33.7502 429.142 33.7502C425.061 33.7502 421.546 34.6447 418.597 36.4186C415.647 38.1926 413.369 40.6821 411.775 43.8723C410.181 47.0625 409.377 50.7744 409.377 55.0081C409.377 59.2418 410.181 62.9537 411.775 66.1439C413.369 69.334 415.647 71.8236 418.597 73.5975C421.546 75.3715 425.061 76.2659 429.142 76.2659C433.819 76.2659 437.752 75.1032 440.924 72.7776C444.097 70.4521 446.346 67.3066 447.642 63.3413L439.882 61.1946C439.122 63.6543 437.856 65.5625 436.069 66.9489C434.281 68.3203 431.958 69.021 429.128 69.021C426.536 69.021 424.391 68.4396 422.663 67.2917C420.935 66.1439 419.639 64.519 418.775 62.417C417.912 60.3151 417.465 57.8554 417.465 55.023V54.9932ZM460.437 33.7502H452.736V75.3864H460.437V33.7502ZM496.483 60.0915C496.483 56.9311 495.828 54.1435 494.532 51.7285C493.236 49.2986 491.419 47.4053 489.08 46.019C486.757 44.6475 484.046 43.9468 480.977 43.9468C477.909 43.9468 475.287 44.6326 472.964 45.9892C470.64 47.3457 468.823 49.2389 467.497 51.6688C466.172 54.0987 465.516 56.9013 465.516 60.0915C465.516 63.2817 466.157 66.0395 467.453 68.4694C468.748 70.8993 470.551 72.7925 472.874 74.1789C475.198 75.5504 477.894 76.251 480.962 76.251C484.031 76.251 486.712 75.5653 489.05 74.1938C491.374 72.8223 493.206 70.9291 494.517 68.4992C495.828 66.0693 496.483 63.2668 496.483 60.1064V60.0915ZM529.103 44.7966H521.343V60.3151C521.343 62.2083 521.134 63.7289 520.703 64.8917C520.285 66.0544 519.734 66.934 519.079 67.5302C518.424 68.1265 517.709 68.529 516.964 68.7377C516.204 68.9464 515.504 69.0508 514.834 69.0508C513.195 69.0508 511.929 68.6781 511.036 67.9477C510.142 67.2172 509.487 66.2929 509.099 65.2047C508.697 64.1165 508.474 63.0133 508.399 61.94C508.325 60.8518 508.28 59.9573 508.28 59.2567V44.8115H500.475V61.9698C500.475 62.4767 500.52 63.2966 500.594 64.3997C500.669 65.5178 500.892 66.7402 501.25 68.0967C501.607 69.4533 502.203 70.7502 503.052 71.9875C503.886 73.2398 505.063 74.2684 506.582 75.0734C508.086 75.8784 510.038 76.2958 512.436 76.2958C515.43 76.2958 517.917 75.6398 519.898 74.3429C520.822 73.7317 521.641 73.0161 522.341 72.2261V75.4013H529.133V44.8115L529.103 44.7966ZM562.781 34.5999H555.021V45.8252C553.114 44.5879 550.82 43.9468 548.11 43.9468C545.19 43.9468 542.643 44.6475 540.468 46.0488C538.294 47.4501 536.611 49.3582 535.419 51.7881C534.227 54.218 533.617 56.9908 533.617 60.1064C533.617 63.222 534.212 65.9203 535.389 68.3502C536.566 70.78 538.219 72.718 540.334 74.1342C542.449 75.5504 544.907 76.2659 547.722 76.2659C550.761 76.2659 553.293 75.5504 555.334 74.1342C555.572 73.9702 555.766 73.7764 555.989 73.6124V75.4162H562.781V34.6298V34.5999Z" fill="url(#paint3_linear_68_695)"/>
</g>
<defs>
<linearGradient id="paint0_linear_68_695" x1="76.2927" y1="104.739" x2="28.6683" y2="42.3895" gradientUnits="userSpaceOnUse">
<stop stop-color="#EDAB1F"/>
<stop offset="1" stop-color="#EDB61E"/>
</linearGradient>
<linearGradient id="paint1_linear_68_695" x1="70.3347" y1="64.4594" x2="78.0621" y2="36.4369" gradientUnits="userSpaceOnUse">
<stop stop-color="#DD3064"/>
<stop offset="1" stop-color="#EF5764"/>
</linearGradient>
<linearGradient id="paint2_linear_68_695" x1="19.0062" y1="71.1974" x2="50.6188" y2="60.7182" gradientUnits="userSpaceOnUse">
<stop offset="0.03" stop-color="#4A85C5"/>
<stop offset="1" stop-color="#49AFE3"/>
</linearGradient>
<linearGradient id="paint3_linear_68_695" x1="509.427" y1="-8.6015" x2="465.795" y2="118.029" gradientUnits="userSpaceOnUse">
<stop stop-color="#4A85C5"/>
<stop offset="1" stop-color="#49AFE3"/>
</linearGradient>
<clipPath id="clip0_68_695">
<rect width="580" height="111" fill="white"/>
</clipPath>
</defs>
</svg>
