<svg xmlns="http://www.w3.org/2000/svg" xmlns:xlink="http://www.w3.org/1999/xlink" viewBox="0 0 443.86 130.26"><defs><linearGradient id="a" x1="91.08" y1="126.64" x2="35.79" y2="50.66" gradientUnits="userSpaceOnUse"><stop offset="0" stop-color="#efab00"/><stop offset="1" stop-color="#efb700"/></linearGradient><linearGradient id="b" x1="83.06" y1="68.88" x2="98.74" y2="40.67" gradientUnits="userSpaceOnUse"><stop offset="0" stop-color="#dd3163"/><stop offset="1" stop-color="#ff5663"/></linearGradient><linearGradient id="c" x1="50.22" y1="96.82" x2="144.42" y2="17.17" gradientUnits="userSpaceOnUse"><stop offset="0.03" stop-color="#1890ff"/><stop offset="1" stop-color="#18b5ff"/></linearGradient></defs><path d="M222.44,44.58a17.39,17.39,0,0,0-9.5-4.14,33.6,33.6,0,0,0-3.57-.27l-2.62,0h-15.1v49h15.1l2.6,0c1.26,0,2.45-.12,3.59-.26a17.38,17.38,0,0,0,9.5-4.13,21,21,0,0,0,5.76-8.58,32.43,32.43,0,0,0,1.94-11.46,32.43,32.43,0,0,0-1.94-11.46A20.94,20.94,0,0,0,222.44,44.58Zm.12,28.47a15.78,15.78,0,0,1-3.64,6.53,11.56,11.56,0,0,1-6.49,3.36,22.45,22.45,0,0,1-2.79.29c-1.07.06-2,.09-2.89.09h-8.87V45.92h8.87c.82,0,1.77,0,2.86.07a17.94,17.94,0,0,1,2.82.3,11.56,11.56,0,0,1,6.46,3.3,15.74,15.74,0,0,1,3.65,6.49,31.35,31.35,0,0,1,0,17Z" fill="#fff"/><path d="M262.78,58.53a10.56,10.56,0,0,0-5.15-5.39,19.07,19.07,0,0,0-8.58-1.78q-6.23,0-10,2.75a13.49,13.49,0,0,0-5.14,7.58l5.75,1.74a8.14,8.14,0,0,1,3.52-4.91A11,11,0,0,1,249,57c3.35,0,5.72.78,7.09,2.35q1.85,2.1,1.95,6.29l-4,.54q-3.34.45-6.58,1a58.65,58.65,0,0,0-5.87,1.24,16.2,16.2,0,0,0-4.79,2.23,9.69,9.69,0,0,0-3.11,3.54,10.64,10.64,0,0,0-1.11,5,10.82,10.82,0,0,0,1.41,5.44,10.42,10.42,0,0,0,4.18,4A14.36,14.36,0,0,0,245,90.12a17,17,0,0,0,9.06-2.28,14.23,14.23,0,0,0,4.54-4.47V89.1H264V66.39c0-1.45-.07-2.84-.2-4.17A11.84,11.84,0,0,0,262.78,58.53Zm-5.44,18.06a10,10,0,0,1-1.9,4.2,10.62,10.62,0,0,1-3.86,3.09,12.8,12.8,0,0,1-5.66,1.17,9.08,9.08,0,0,1-4.24-.85A5.69,5.69,0,0,1,239.3,82a5.82,5.82,0,0,1-.76-2.85,5.06,5.06,0,0,1,.8-2.91,6.21,6.21,0,0,1,2.11-1.92,14.4,14.4,0,0,1,2.8-1.23,43.17,43.17,0,0,1,4.59-1q2.55-.42,5.41-.8l3.69-.49c0,.57,0,1.23,0,2A14.3,14.3,0,0,1,257.34,76.59Z" fill="#fff"/><path d="M278.83,42.18h-6.05v10.2h-7.45v5h7.45V75.23c0,1.88,0,3.56.08,5a10.68,10.68,0,0,0,1.18,4.4,8,8,0,0,0,3.77,3.65,14.23,14.23,0,0,0,5.66,1.3,28.25,28.25,0,0,0,6.44-.53V83.9a22.74,22.74,0,0,1-6.44.2,5,5,0,0,1-3.89-2.55,5.92,5.92,0,0,1-.7-2.75c0-1.07-.05-2.35-.05-3.85V57.38h11.08v-5H278.83Z" fill="#fff"/><path d="M322.21,58.53a10.56,10.56,0,0,0-5.15-5.39,19.07,19.07,0,0,0-8.58-1.78q-6.23,0-10,2.75a13.49,13.49,0,0,0-5.14,7.58l5.75,1.74a8.14,8.14,0,0,1,3.52-4.91A11,11,0,0,1,308.41,57c3.35,0,5.72.78,7.09,2.35q1.85,2.1,1.95,6.29l-4,.54c-2.22.3-4.42.62-6.58,1A58.65,58.65,0,0,0,301,68.39a16.32,16.32,0,0,0-4.79,2.23,9.79,9.79,0,0,0-3.11,3.54,10.64,10.64,0,0,0-1.11,5,10.82,10.82,0,0,0,1.41,5.44,10.38,10.38,0,0,0,4.19,4,14.29,14.29,0,0,0,6.88,1.51,17,17,0,0,0,9.06-2.28A14.23,14.23,0,0,0,318,83.37V89.1h5.37V66.39a39.92,39.92,0,0,0-.2-4.17A11.84,11.84,0,0,0,322.21,58.53Zm-5.44,18.06a10,10,0,0,1-1.9,4.2A10.62,10.62,0,0,1,311,83.88a12.77,12.77,0,0,1-5.66,1.17,9,9,0,0,1-4.23-.85A5.57,5.57,0,0,1,298.74,82a5.73,5.73,0,0,1-.77-2.85,5.06,5.06,0,0,1,.8-2.91,6.3,6.3,0,0,1,2.11-1.92,14.67,14.67,0,0,1,2.8-1.23,43.17,43.17,0,0,1,4.59-1c1.7-.28,3.51-.55,5.41-.8l3.69-.49c0,.57,0,1.23,0,2A14.3,14.3,0,0,1,316.77,76.59Z" fill="#fff"/><polygon points="360.67 61.73 334.9 61.73 334.9 40.14 328.84 40.14 328.84 89.1 334.9 89.1 334.9 67.47 360.67 67.47 360.67 89.1 366.72 89.1 366.72 40.14 360.67 40.14 360.67 61.73" fill="#fff"/><path d="M398.34,71.72a19.64,19.64,0,0,1-.71,5.55,10.78,10.78,0,0,1-2,3.92,8.48,8.48,0,0,1-3.2,2.33,10.69,10.69,0,0,1-4.15.78,9.38,9.38,0,0,1-4.81-1.12,8.47,8.47,0,0,1-3.06-3.06,13.55,13.55,0,0,1-1.61-4.35,25.54,25.54,0,0,1-.48-5V52.38h-6.12v20.3a27.64,27.64,0,0,0,.39,4.45,21,21,0,0,0,1.34,4.66,14.93,14.93,0,0,0,2.62,4.15,12.17,12.17,0,0,0,4.2,3,14.88,14.88,0,0,0,6.07,1.12A15.86,15.86,0,0,0,395,88a13.37,13.37,0,0,0,4-3.68V89.1h5.41V52.38h-6.09Z" fill="#fff"/><path d="M441.89,60.81a16.27,16.27,0,0,0-5.66-6.92,15.14,15.14,0,0,0-8.79-2.53,14.77,14.77,0,0,0-8.72,2.51,15,15,0,0,0-2.12,1.85V40.14h-6.09v49h5.41V84.91a15.11,15.11,0,0,0,2.78,2.64,14.44,14.44,0,0,0,8.71,2.57,15.07,15.07,0,0,0,8.82-2.57,16.48,16.48,0,0,0,5.66-7,23.81,23.81,0,0,0,2-9.9A23.76,23.76,0,0,0,441.89,60.81Zm-5.64,17a11.12,11.12,0,0,1-3.57,5,9.59,9.59,0,0,1-6,1.84,9.89,9.89,0,0,1-6.09-1.79,10.36,10.36,0,0,1-3.51-4.93,20.93,20.93,0,0,1-1.14-7.16,20.62,20.62,0,0,1,1.15-7.19,10.45,10.45,0,0,1,3.5-4.86,9.63,9.63,0,0,1,5.92-1.75,9.92,9.92,0,0,1,6.17,1.84,10.82,10.82,0,0,1,3.61,5,21.53,21.53,0,0,1,0,14.06Z" fill="#fff"/><path d="M88.37,104.29a41.55,41.55,0,1,1-1-78.71,3.85,3.85,0,0,0,4.73-2.19h0a3.91,3.91,0,0,0-2.41-5.24,49,49,0,0,0-14.66-2.38A49.3,49.3,0,0,0,31,88.27L15.75,97.91a9.94,9.94,0,0,0-6.83-1.74,10,10,0,1,0,11.13,10,9.8,9.8,0,0,0-.15-1.64l15.29-9.67a49.32,49.32,0,0,0,55.72,16.82,3.9,3.9,0,0,0,2.26-5.28h0A3.87,3.87,0,0,0,88.37,104.29Z" fill="url(#a)"/><path d="M74.53,94.12h0a3.9,3.9,0,0,1,3.41-3.86,25.36,25.36,0,0,0,0-50.26,3.91,3.91,0,0,1-3.41-3.86h0a3.88,3.88,0,0,1,4.34-3.87,33.14,33.14,0,0,1,0,65.72A3.88,3.88,0,0,1,74.53,94.12Z" fill="url(#b)"/><path d="M141.16,8.45a10,10,0,0,0-9.08,12l-6.58,4.16A65.08,65.08,0,0,0,78.62.13,3.88,3.88,0,0,0,74.53,4h0a3.91,3.91,0,0,0,3.7,3.88,57.42,57.42,0,0,1,53.64,56.34c.49,31.5-25.75,58.2-57.26,58.24a56.89,56.89,0,0,1-37.61-14,3.9,3.9,0,0,0-4.69-.35h0a3.9,3.9,0,0,0-.44,6.22,64.62,64.62,0,0,0,43.93,15.9A65.09,65.09,0,0,0,130,31l6.53-4.13a10,10,0,1,0,4.64-18.44Z" fill="url(#c)"/></svg>