<svg width="24" height="25" viewBox="0 0 24 25" fill="none" xmlns="http://www.w3.org/2000/svg">
<path d="M10.125 6.01329C10.125 5.39454 9.95495 4.78769 9.63336 4.25908C9.31178 3.73046 8.85106 3.30043 8.30157 3.01597C7.75208 2.73152 7.13497 2.6036 6.51768 2.64619C5.9004 2.68878 5.30671 2.90025 4.80149 3.25748C4.29628 3.61471 3.89899 4.10395 3.65306 4.67172C3.40712 5.23949 3.322 5.86395 3.40701 6.47683C3.49201 7.08972 3.74386 7.66744 4.13503 8.14685C4.52621 8.62626 5.04164 8.98892 5.62501 9.19517V14.8314C4.87439 15.0968 4.24176 15.619 3.83892 16.3057C3.43608 16.9924 3.28898 17.7994 3.42361 18.5841C3.55824 19.3688 3.96594 20.0806 4.57464 20.5938C5.18334 21.1069 5.95386 21.3884 6.75001 21.3884C7.54616 21.3884 8.31667 21.1069 8.92537 20.5938C9.53408 20.0806 9.94177 19.3688 10.0764 18.5841C10.211 17.7994 10.0639 16.9924 9.66109 16.3057C9.25826 15.619 8.62562 15.0968 7.87501 14.8314V9.19517C8.53247 8.9617 9.10163 8.53059 9.50445 7.96094C9.90727 7.39128 10.124 6.71098 10.125 6.01329ZM6.75001 4.88829C6.97251 4.88829 7.19002 4.95427 7.37502 5.07789C7.56003 5.2015 7.70422 5.3772 7.78937 5.58277C7.87452 5.78834 7.8968 6.01454 7.85339 6.23277C7.80998 6.451 7.70284 6.65145 7.5455 6.80879C7.38817 6.96612 7.18771 7.07327 6.96948 7.11667C6.75126 7.16008 6.52506 7.1378 6.31949 7.05265C6.11392 6.96751 5.93822 6.82331 5.8146 6.63831C5.69099 6.4533 5.62501 6.23579 5.62501 6.01329C5.62501 5.71492 5.74353 5.42877 5.95451 5.2178C6.16549 5.00682 6.45164 4.88829 6.75001 4.88829ZM6.75001 19.1383C6.5275 19.1383 6.31 19.0723 6.12499 18.9487C5.93999 18.8251 5.79579 18.6494 5.71064 18.4438C5.62549 18.2382 5.60322 18.012 5.64662 17.7938C5.69003 17.5756 5.79718 17.3751 5.95451 17.2178C6.11185 17.0605 6.3123 16.9533 6.53053 16.9099C6.74876 16.8665 6.97496 16.8888 7.18053 16.9739C7.38609 17.0591 7.56179 17.2033 7.68541 17.3883C7.80903 17.5733 7.87501 17.7908 7.87501 18.0133C7.87501 18.3117 7.75648 18.5978 7.5455 18.8088C7.33452 19.0198 7.04838 19.1383 6.75001 19.1383ZM19.875 14.8314V10.3849C19.876 10.04 19.8086 9.69833 19.6766 9.3797C19.5447 9.06107 19.3508 8.77179 19.1063 8.5286L16.2188 5.63829H18C18.2984 5.63829 18.5845 5.51976 18.7955 5.30879C19.0065 5.09781 19.125 4.81166 19.125 4.51329C19.125 4.21492 19.0065 3.92877 18.7955 3.7178C18.5845 3.50682 18.2984 3.38829 18 3.38829H13.5C13.2016 3.38829 12.9155 3.50682 12.7045 3.7178C12.4935 3.92877 12.375 4.21492 12.375 4.51329V9.01329C12.375 9.31166 12.4935 9.59781 12.7045 9.80879C12.9155 10.0198 13.2016 10.1383 13.5 10.1383C13.7984 10.1383 14.0845 10.0198 14.2955 9.80879C14.5065 9.59781 14.625 9.31166 14.625 9.01329V7.23204L17.5153 10.1224C17.5501 10.1572 17.5777 10.1986 17.5966 10.2441C17.6154 10.2896 17.625 10.3384 17.625 10.3877V14.8342C16.8744 15.0996 16.2418 15.6218 15.8389 16.3085C15.4361 16.9952 15.289 17.8022 15.4236 18.5869C15.5582 19.3716 15.9659 20.0834 16.5746 20.5966C17.1833 21.1098 17.9539 21.3912 18.75 21.3912C19.5462 21.3912 20.3167 21.1098 20.9254 20.5966C21.5341 20.0834 21.9418 19.3716 22.0764 18.5869C22.211 17.8022 22.0639 16.9952 21.6611 16.3085C21.2583 15.6218 20.6256 15.0996 19.875 14.8342V14.8314ZM18.75 19.1383C18.5275 19.1383 18.31 19.0723 18.125 18.9487C17.94 18.8251 17.7958 18.6494 17.7106 18.4438C17.6255 18.2382 17.6032 18.012 17.6466 17.7938C17.69 17.5756 17.7972 17.3751 17.9545 17.2178C18.1118 17.0605 18.3123 16.9533 18.5305 16.9099C18.7488 16.8665 18.975 16.8888 19.1805 16.9739C19.3861 17.0591 19.5618 17.2033 19.6854 17.3883C19.809 17.5733 19.875 17.7908 19.875 18.0133C19.875 18.3117 19.7565 18.5978 19.5455 18.8088C19.3345 19.0198 19.0484 19.1383 18.75 19.1383Z" fill="#2E2E38"/>
</svg>
