<svg width="284" height="284" viewBox="0 0 284 284" fill="none" xmlns="http://www.w3.org/2000/svg">
<g clip-path="url(#clip0_4626_41406)">
<path d="M141.988 283.976C220.405 283.976 283.976 220.405 283.976 141.988C283.976 63.5701 220.405 0 141.988 0C63.5701 0 0 63.5701 0 141.988C0 220.405 63.5701 283.976 141.988 283.976Z" fill="#FFCA05"/>
<path d="M117.372 127.887C122.492 127.887 126.643 119.061 126.643 108.174C126.643 97.2873 122.492 88.4618 117.372 88.4618C112.252 88.4618 108.101 97.2873 108.101 108.174C108.101 119.061 112.252 127.887 117.372 127.887Z" fill="black"/>
<path d="M166.628 127.887C171.749 127.887 175.899 119.061 175.899 108.174C175.899 97.2873 171.749 88.4618 166.628 88.4618C161.508 88.4618 157.358 97.2873 157.358 108.174C157.358 119.061 161.508 127.887 166.628 127.887Z" fill="black"/>
<path d="M205.199 132.351C205.199 167.263 176.899 195.538 142.012 195.538C107.125 195.538 78.8253 167.238 78.8253 132.351" stroke="black" stroke-width="2.43965" stroke-linejoin="round"/>
<path d="M64.3096 130.839H93.2926" stroke="black" stroke-width="2.43965" stroke-linejoin="round"/>
<path d="M190.684 130.839H219.691" stroke="black" stroke-width="2.43965" stroke-linejoin="round"/>
</g>
<defs>
<clipPath id="clip0_4626_41406">
<rect width="284" height="284" fill="white"/>
</clipPath>
</defs>
</svg>
