<svg xmlns="http://www.w3.org/2000/svg" xmlns:xlink="http://www.w3.org/1999/xlink" viewBox="0 0 151.92 130.26"><defs><linearGradient id="a" x1="91.08" y1="126.64" x2="35.79" y2="50.66" gradientUnits="userSpaceOnUse"><stop offset="0" stop-color="#efab00"/><stop offset="1" stop-color="#efb700"/></linearGradient><linearGradient id="b" x1="83.06" y1="68.88" x2="98.74" y2="40.67" gradientUnits="userSpaceOnUse"><stop offset="0" stop-color="#dd3163"/><stop offset="1" stop-color="#ff5663"/></linearGradient><linearGradient id="c" x1="50.22" y1="96.82" x2="144.42" y2="17.17" gradientUnits="userSpaceOnUse"><stop offset="0.03" stop-color="#1890ff"/><stop offset="1" stop-color="#18b5ff"/></linearGradient></defs><path d="M88.37,104.29a41.55,41.55,0,1,1-1-78.71,3.85,3.85,0,0,0,4.73-2.19h0a3.91,3.91,0,0,0-2.41-5.24,49,49,0,0,0-14.66-2.38A49.3,49.3,0,0,0,31,88.27L15.75,97.91a9.94,9.94,0,0,0-6.83-1.74,10,10,0,1,0,11.13,10,9.8,9.8,0,0,0-.15-1.64l15.29-9.67a49.32,49.32,0,0,0,55.72,16.82,3.9,3.9,0,0,0,2.26-5.28h0A3.87,3.87,0,0,0,88.37,104.29Z" fill="url(#a)"/><path d="M74.53,94.12h0a3.9,3.9,0,0,1,3.41-3.86,25.36,25.36,0,0,0,0-50.26,3.91,3.91,0,0,1-3.41-3.86h0a3.88,3.88,0,0,1,4.34-3.87,33.14,33.14,0,0,1,0,65.72A3.88,3.88,0,0,1,74.53,94.12Z" fill="url(#b)"/><path d="M141.16,8.45a10,10,0,0,0-9.08,12l-6.58,4.16A65.08,65.08,0,0,0,78.62.13,3.88,3.88,0,0,0,74.53,4h0a3.91,3.91,0,0,0,3.7,3.88,57.42,57.42,0,0,1,53.64,56.34c.49,31.5-25.75,58.2-57.26,58.24a56.89,56.89,0,0,1-37.61-14,3.9,3.9,0,0,0-4.69-.35h0a3.9,3.9,0,0,0-.44,6.22,64.62,64.62,0,0,0,43.93,15.9A65.09,65.09,0,0,0,130,31l6.53-4.13a10,10,0,1,0,4.64-18.44Z" fill="url(#c)"/></svg>