<svg width="1em" height="1em" viewBox="0 0 16 16" fill="none" xmlns="http://www.w3.org/2000/svg">
<path fill-rule="evenodd" clip-rule="evenodd" d="M3 4.25C3 3.55964 3.55964 3 4.25 3C4.94036 3 5.5 3.55964 5.5 4.25C5.5 4.94036 4.94036 5.5 4.25 5.5C3.55964 5.5 3 4.94036 3 4.25ZM4.75 6.44425C5.75199 6.21688 6.5 5.32079 6.5 4.25C6.5 3.00736 5.49264 2 4.25 2C3.00736 2 2 3.00736 2 4.25C2 5.32079 2.74801 6.21688 3.75 6.44425V13C3.75 13.2761 3.97386 13.5 4.25 13.5C4.52614 13.5 4.75 13.2761 4.75 13V6.44425ZM11.75 5.41667V8.14184L11.7265 8.16571L11.7265 8.16572C11.6981 8.19444 11.6715 8.22146 11.6465 8.2464L9.03385 10.859C9.19025 9.96637 9.87281 9.25478 10.75 9.05574V5.41667C10.75 5.23986 10.6798 5.07029 10.5548 4.94526C10.4298 4.82024 10.2602 4.75 10.0834 4.75H8.33337C8.05723 4.75 7.83337 4.52614 7.83337 4.25C7.83337 3.97386 8.05723 3.75 8.33337 3.75H10.0834C10.5254 3.75 10.9493 3.92559 11.2619 4.23816C11.5744 4.55072 11.75 4.97464 11.75 5.41667ZM9.14021 13.629H8.62499V13.1138L12.0769 9.65543L12.5986 10.1771L9.14021 13.629ZM8 13.0048V13.8774C8 13.9848 8.03593 14.0744 8.10778 14.1462C8.17963 14.2181 8.26924 14.254 8.3766 14.254H9.24517C9.29538 14.254 9.34319 14.2449 9.3886 14.2267C9.43401 14.2086 9.4762 14.18 9.5152 14.141L14.0665 9.58972C14.1311 9.52508 14.1779 9.45443 14.2067 9.37778C14.2356 9.30113 14.25 9.22407 14.25 9.14661C14.25 9.06222 14.2356 8.98129 14.2067 8.90383C14.1779 8.82638 14.1311 8.75748 14.0665 8.69711L13.5657 8.18991C13.5011 8.12527 13.4307 8.07746 13.3546 8.04648C13.2784 8.01549 13.1982 8 13.1138 8C13.0321 8 12.9529 8.01549 12.8762 8.04648C12.7995 8.07746 12.731 8.12313 12.6707 8.18349L8.10898 12.7348C8.06999 12.7738 8.04207 12.816 8.02524 12.8614C8.00841 12.9068 8 12.9546 8 13.0048Z" fill="currentColor" />
</svg>
