<svg width="90" height="90" viewBox="0 0 90 90" fill="none" xmlns="http://www.w3.org/2000/svg">
<circle cx="36.7696" cy="52.7696" r="24" transform="rotate(-45 36.7696 52.7696)" stroke="black" stroke-width="4"/>
<circle cx="28.2843" cy="62.669" r="11" transform="rotate(-45 28.2843 62.669)" stroke="black" stroke-width="4"/>
<path d="M74.832 18.1213C74.832 17.0167 73.9365 16.1213 72.832 16.1213H54.832C53.7274 16.1213 52.832 17.0167 52.832 18.1213C52.832 19.2259 53.7274 20.1213 54.832 20.1213H70.832V36.1213C70.832 37.2259 71.7274 38.1213 72.832 38.1213C73.9365 38.1213 74.832 37.2259 74.832 36.1213V18.1213ZM38.8908 54.8909L74.2462 19.5355L71.4177 16.7071L36.0624 52.0624L38.8908 54.8909Z" fill="black"/>
</svg>
