<?xml version="1.0" encoding="UTF-8" standalone="no"?>
<!DOCTYPE svg PUBLIC "-//W3C//DTD SVG 1.1//EN" "http://www.w3.org/Graphics/SVG/1.1/DTD/svg11.dtd">
<svg width="100%" height="100%" viewBox="0 0 100 39" version="1.1" xmlns="http://www.w3.org/2000/svg" xmlns:xlink="http://www.w3.org/1999/xlink" xml:space="preserve" xmlns:serif="http://www.serif.com/" style="fill-rule:evenodd;clip-rule:evenodd;stroke-linejoin:round;stroke-miterlimit:2;">
    <g transform="matrix(1,0,0,1,-176.5,-68.1843)">
        <g transform="matrix(0.220577,0,0,0.220577,176.613,68.2986)">
            <path d="M4.186,172.44L86.396,88.168C86.911,87.641 87.01,86.824 86.58,86.225C81.579,79.244 72.356,78.034 68.938,73.345C58.81,59.452 56.24,51.589 51.889,52.077C51.585,52.111 51.314,52.275 51.1,52.493L21.402,82.937C4.316,100.45 1.866,139.01 1.417,171.298C1.397,172.757 3.167,173.484 4.186,172.44Z" style="fill:rgb(1,124,238);fill-rule:nonzero;"/>
        </g>
        <g transform="matrix(0.220577,0,0,0.220577,176.613,68.2986)">
            <path d="M172.44,170.357L88.168,88.147C87.641,87.632 86.824,87.533 86.225,87.962C79.244,92.963 78.034,102.186 73.345,105.605C59.452,115.732 51.589,118.302 52.077,122.654C52.111,122.958 52.275,123.229 52.493,123.442L82.937,153.141C100.45,170.226 139.01,172.676 171.298,173.125C172.757,173.146 173.484,171.376 172.44,170.357Z" style="fill:rgb(0,173,70);fill-rule:nonzero;"/>
        </g>
        <g transform="matrix(0.220577,0,0,0.220577,176.613,68.2986)">
            <path d="M82.936,153.141C73.37,143.809 68.931,125.346 87.272,87.272C57.465,100.593 47.019,118.103 52.158,123.116L82.936,153.141Z" style="fill:rgb(4,214,89);"/>
        </g>
        <g transform="matrix(0.220577,0,0,0.220577,176.613,68.2986)">
            <path d="M170.355,2.105L88.145,86.376C87.63,86.904 87.531,87.72 87.961,88.32C92.962,95.3 102.185,96.51 105.603,101.2C115.731,115.092 118.301,122.955 122.652,122.468C122.956,122.434 123.227,122.27 123.441,122.051L153.139,91.608C170.225,74.094 172.675,35.535 173.124,3.246C173.144,1.787 171.374,1.06 170.355,2.105Z" style="fill:rgb(0,199,212);fill-rule:nonzero;"/>
        </g>
        <g transform="matrix(0.220577,0,0,0.220577,176.613,68.2986)">
            <path d="M153.14,91.608C143.807,101.174 125.344,105.613 87.271,87.272C100.591,117.079 118.101,127.525 123.114,122.386L153.14,91.608Z" style="fill:rgb(17,225,238);"/>
        </g>
        <g transform="matrix(0.220577,0,0,0.220577,176.613,68.2986)">
            <path d="M2.103,4.187L86.375,86.397C86.902,86.912 87.719,87.011 88.318,86.582C95.299,81.581 96.509,72.358 101.198,68.939C115.091,58.812 122.954,56.242 122.466,51.89C122.432,51.586 122.268,51.315 122.05,51.102L91.606,21.403C74.093,4.318 35.533,1.868 3.245,1.419C1.786,1.398 1.059,3.168 2.103,4.187Z" style="fill:rgb(228,57,33);fill-rule:nonzero;"/>
        </g>
        <g transform="matrix(0.220577,0,0,0.220577,176.613,68.2986)">
            <path d="M91.606,21.403C101.172,30.735 105.611,49.198 87.271,87.271C117.077,73.951 127.523,56.441 122.384,51.428L91.606,21.403Z" style="fill:rgb(255,117,87);"/>
        </g>
        <g transform="matrix(0.220577,0,0,0.220577,176.613,68.2986)">
            <path d="M21.403,82.937C30.735,73.37 49.198,68.932 87.271,87.272C73.951,57.465 56.441,47.02 51.428,52.158L21.403,82.937Z" style="fill:rgb(12,182,255);"/>
        </g>
        <g transform="matrix(0.22056,-0.00273091,0.00273091,0.22056,176.377,68.5384)">
            <circle cx="87.284" cy="87.261" r="3.676" style="fill:rgb(74,72,72);"/>
        </g>
        <g transform="matrix(0.220577,0,0,0.220577,176.613,68.2986)">
            <path d="M196.029,57.428C195.856,57.428 195.704,57.363 195.574,57.233C195.444,57.103 195.379,56.951 195.379,56.777C195.379,56.604 195.39,56.485 195.411,56.42L203.477,35.378C203.65,34.901 203.997,34.662 204.518,34.662L206.729,34.662C207.249,34.662 207.596,34.901 207.77,35.378L215.803,56.42L215.868,56.777C215.868,56.951 215.803,57.103 215.673,57.233C215.543,57.363 215.391,57.428 215.217,57.428L213.559,57.428C213.32,57.428 213.136,57.374 213.006,57.265C212.876,57.135 212.789,57.005 212.746,56.875L210.957,52.257L200.29,52.257L198.501,56.875C198.458,57.005 198.36,57.135 198.208,57.265C198.078,57.374 197.905,57.428 197.688,57.428L196.029,57.428ZM210.014,49.46L205.623,37.915L201.233,49.46L210.014,49.46ZM219.703,63.607C219.486,63.607 219.302,63.531 219.15,63.379C219.02,63.249 218.955,63.076 218.955,62.859L218.955,41.264C218.955,41.048 219.02,40.874 219.15,40.744C219.302,40.592 219.486,40.516 219.703,40.516L221.199,40.516C221.416,40.516 221.589,40.592 221.719,40.744C221.871,40.874 221.947,41.048 221.947,41.264L221.947,42.695C223.161,41.026 224.939,40.191 227.28,40.191C229.557,40.191 231.259,40.907 232.386,42.338C233.535,43.769 234.153,45.611 234.24,47.866C234.262,48.105 234.273,48.473 234.273,48.972C234.273,49.471 234.262,49.839 234.24,50.078C234.153,52.311 233.535,54.154 232.386,55.606C231.237,57.038 229.535,57.753 227.28,57.753C225.026,57.753 223.269,56.94 222.012,55.314L222.012,62.859C222.012,63.076 221.947,63.249 221.817,63.379C221.687,63.531 221.513,63.607 221.296,63.607L219.703,63.607ZM226.597,55.119C228.137,55.119 229.253,54.642 229.947,53.688C230.663,52.734 231.053,51.476 231.118,49.915C231.14,49.698 231.151,49.384 231.151,48.972C231.151,44.874 229.633,42.825 226.597,42.825C225.101,42.825 223.974,43.324 223.215,44.321C222.478,45.297 222.077,46.468 222.012,47.834L221.979,49.07L222.012,50.338C222.055,51.617 222.467,52.734 223.248,53.688C224.028,54.642 225.145,55.119 226.597,55.119ZM243.011,57.753C241.949,57.753 240.963,57.536 240.052,57.103C239.141,56.669 238.415,56.084 237.873,55.346C237.353,54.588 237.092,53.753 237.092,52.842C237.092,51.411 237.678,50.24 238.849,49.33C240.041,48.398 241.645,47.79 243.662,47.509L248.508,46.826L248.508,45.882C248.508,43.671 247.239,42.565 244.703,42.565C243.749,42.565 242.968,42.771 242.361,43.183C241.754,43.573 241.299,44.039 240.995,44.582C240.93,44.777 240.843,44.918 240.735,45.004C240.648,45.091 240.518,45.134 240.345,45.134L238.946,45.134C238.751,45.134 238.578,45.069 238.426,44.939C238.296,44.788 238.231,44.614 238.231,44.419C238.252,43.899 238.491,43.313 238.946,42.663C239.423,41.991 240.149,41.416 241.125,40.939C242.101,40.44 243.304,40.191 244.735,40.191C247.163,40.191 248.909,40.766 249.971,41.915C251.033,43.042 251.565,44.452 251.565,46.143L251.565,56.68C251.565,56.897 251.489,57.081 251.337,57.233C251.207,57.363 251.033,57.428 250.817,57.428L249.321,57.428C249.104,57.428 248.92,57.363 248.768,57.233C248.638,57.081 248.573,56.897 248.573,56.68L248.573,55.281C248.096,55.975 247.402,56.561 246.491,57.038C245.581,57.515 244.421,57.753 243.011,57.753ZM243.694,55.314C245.104,55.314 246.253,54.859 247.142,53.948C248.052,53.016 248.508,51.682 248.508,49.948L248.508,49.037L244.735,49.59C243.196,49.807 242.036,50.175 241.255,50.696C240.475,51.194 240.084,51.834 240.084,52.615C240.084,53.482 240.442,54.154 241.158,54.631C241.873,55.086 242.719,55.314 243.694,55.314ZM263.07,57.753C260.75,57.753 258.928,57.103 257.606,55.802C256.305,54.479 255.611,52.636 255.524,50.273L255.492,48.972L255.524,47.671C255.611,45.308 256.305,43.476 257.606,42.175C258.928,40.852 260.75,40.191 263.07,40.191C264.631,40.191 265.953,40.473 267.037,41.037C268.121,41.6 268.924,42.294 269.444,43.118C269.986,43.942 270.279,44.766 270.322,45.59C270.344,45.807 270.279,45.98 270.127,46.11C269.975,46.24 269.791,46.305 269.574,46.305L268.013,46.305C267.796,46.305 267.633,46.262 267.525,46.175C267.417,46.088 267.308,45.915 267.2,45.655C266.831,44.614 266.311,43.877 265.639,43.443C264.967,42.988 264.121,42.76 263.102,42.76C261.758,42.76 260.685,43.183 259.882,44.029C259.102,44.853 258.679,46.121 258.614,47.834L258.582,49.005L258.614,50.11C258.679,51.845 259.102,53.124 259.882,53.948C260.663,54.772 261.736,55.184 263.102,55.184C264.121,55.184 264.967,54.967 265.639,54.533C266.311,54.078 266.831,53.33 267.2,52.289C267.308,52.029 267.417,51.856 267.525,51.769C267.633,51.661 267.796,51.606 268.013,51.606L269.574,51.606C269.791,51.606 269.975,51.682 270.127,51.834C270.279,51.964 270.344,52.138 270.322,52.354C270.279,53.157 269.986,53.98 269.444,54.826C268.924,55.65 268.121,56.344 267.037,56.907C265.975,57.471 264.652,57.753 263.07,57.753ZM274.965,57.428C274.748,57.428 274.564,57.363 274.412,57.233C274.282,57.081 274.217,56.897 274.217,56.68L274.217,35.085C274.217,34.868 274.282,34.695 274.412,34.565C274.564,34.413 274.748,34.337 274.965,34.337L276.591,34.337C276.808,34.337 276.981,34.413 277.111,34.565C277.263,34.695 277.339,34.868 277.339,35.085L277.339,42.663C277.968,41.861 278.705,41.254 279.55,40.842C280.396,40.408 281.447,40.191 282.705,40.191C284.786,40.191 286.402,40.863 287.551,42.208C288.722,43.53 289.307,45.297 289.307,47.509L289.307,56.68C289.307,56.897 289.231,57.081 289.079,57.233C288.949,57.363 288.776,57.428 288.559,57.428L286.933,57.428C286.716,57.428 286.532,57.363 286.38,57.233C286.25,57.081 286.185,56.897 286.185,56.68L286.185,47.671C286.185,46.132 285.805,44.939 285.047,44.094C284.309,43.248 283.236,42.825 281.827,42.825C280.461,42.825 279.366,43.259 278.542,44.126C277.74,44.972 277.339,46.154 277.339,47.671L277.339,56.68C277.339,56.897 277.263,57.081 277.111,57.233C276.981,57.363 276.808,57.428 276.591,57.428L274.965,57.428ZM300.767,57.753C298.534,57.753 296.745,57.07 295.401,55.704C294.078,54.317 293.352,52.43 293.222,50.045L293.189,48.94L293.222,47.866C293.373,45.525 294.111,43.66 295.433,42.273C296.777,40.885 298.544,40.191 300.734,40.191C303.141,40.191 305.006,40.961 306.328,42.5C307.651,44.018 308.312,46.078 308.312,48.679L308.312,49.232C308.312,49.449 308.236,49.633 308.084,49.785C307.954,49.915 307.781,49.98 307.564,49.98L296.311,49.98L296.311,50.273C296.376,51.682 296.799,52.886 297.58,53.883C298.382,54.859 299.433,55.346 300.734,55.346C301.732,55.346 302.545,55.151 303.173,54.761C303.824,54.349 304.301,53.926 304.604,53.493C304.8,53.232 304.94,53.081 305.027,53.037C305.136,52.972 305.32,52.94 305.58,52.94L307.174,52.94C307.369,52.94 307.531,52.994 307.661,53.102C307.792,53.211 307.857,53.362 307.857,53.558C307.857,54.035 307.553,54.609 306.946,55.281C306.361,55.953 305.526,56.539 304.442,57.038C303.379,57.515 302.154,57.753 300.767,57.753ZM305.222,47.736L305.222,47.639C305.222,46.143 304.81,44.929 303.986,43.996C303.184,43.042 302.1,42.565 300.734,42.565C299.368,42.565 298.284,43.042 297.482,43.996C296.702,44.929 296.311,46.143 296.311,47.639L296.311,47.736L305.222,47.736Z" style="fill:rgb(81,80,79);fill-rule:nonzero;"/>
        </g>
        <g transform="matrix(0.220577,0,0,0.220577,176.613,68.2986)">
            <path d="M195.574,57.233L195.397,57.409L195.574,57.233ZM195.411,56.42L195.178,56.33L195.174,56.341L195.411,56.42ZM203.477,35.378L203.71,35.467L203.712,35.463L203.477,35.378ZM207.77,35.378L207.535,35.463L207.536,35.467L207.77,35.378ZM215.803,56.42L216.049,56.375C216.046,56.36 216.042,56.345 216.036,56.33L215.803,56.42ZM215.868,56.777L216.118,56.777C216.118,56.762 216.116,56.747 216.114,56.733L215.868,56.777ZM215.673,57.233L215.849,57.409L215.673,57.233ZM213.006,57.265L212.829,57.442C212.834,57.447 212.84,57.452 212.846,57.457L213.006,57.265ZM212.746,56.875L212.983,56.796L212.979,56.785L212.746,56.875ZM210.957,52.257L211.19,52.167C211.153,52.07 211.06,52.007 210.957,52.007L210.957,52.257ZM200.29,52.257L200.29,52.007C200.187,52.007 200.094,52.07 200.057,52.167L200.29,52.257ZM198.501,56.875L198.268,56.785L198.264,56.796L198.501,56.875ZM198.208,57.265L198.368,57.457L198.371,57.455L198.208,57.265ZM210.014,49.46L210.014,49.71C210.096,49.71 210.173,49.67 210.22,49.602C210.266,49.534 210.277,49.448 210.248,49.371L210.014,49.46ZM205.623,37.915L205.857,37.826C205.82,37.729 205.727,37.665 205.623,37.665C205.52,37.665 205.427,37.729 205.39,37.826L205.623,37.915ZM201.233,49.46L200.999,49.371C200.97,49.448 200.98,49.534 201.027,49.602C201.074,49.67 201.151,49.71 201.233,49.71L201.233,49.46ZM196.029,57.178C195.927,57.178 195.837,57.142 195.751,57.056L195.397,57.409C195.571,57.583 195.785,57.678 196.029,57.678L196.029,57.178ZM195.751,57.056C195.665,56.969 195.629,56.88 195.629,56.777L195.129,56.777C195.129,57.021 195.223,57.236 195.397,57.409L195.751,57.056ZM195.629,56.777C195.629,56.602 195.641,56.521 195.649,56.499L195.174,56.341C195.138,56.449 195.129,56.606 195.129,56.777L195.629,56.777ZM195.645,56.509L203.71,35.467L203.243,35.288L195.178,56.33L195.645,56.509ZM203.712,35.463C203.785,35.264 203.886,35.131 204.009,35.047C204.132,34.963 204.296,34.912 204.518,34.912L204.518,34.412C204.219,34.412 203.95,34.481 203.726,34.635C203.501,34.79 203.343,35.015 203.242,35.292L203.712,35.463ZM204.518,34.912L206.729,34.912L206.729,34.412L204.518,34.412L204.518,34.912ZM206.729,34.912C206.951,34.912 207.115,34.963 207.238,35.047C207.36,35.131 207.462,35.264 207.535,35.463L208.005,35.292C207.904,35.015 207.746,34.79 207.521,34.635C207.297,34.481 207.028,34.412 206.729,34.412L206.729,34.912ZM207.536,35.467L215.569,56.509L216.036,56.33L208.003,35.289L207.536,35.467ZM215.557,56.464L215.622,56.822L216.114,56.733L216.049,56.375L215.557,56.464ZM215.618,56.777C215.618,56.88 215.582,56.969 215.496,57.056L215.849,57.409C216.023,57.236 216.118,57.021 216.118,56.777L215.618,56.777ZM215.496,57.056C215.41,57.142 215.32,57.178 215.217,57.178L215.217,57.678C215.461,57.678 215.676,57.583 215.849,57.409L215.496,57.056ZM215.217,57.178L213.559,57.178L213.559,57.678L215.217,57.678L215.217,57.178ZM213.559,57.178C213.355,57.178 213.236,57.131 213.166,57.073L212.846,57.457C213.036,57.616 213.285,57.678 213.559,57.678L213.559,57.178ZM213.183,57.088C213.071,56.977 213.01,56.879 212.983,56.796L212.509,56.954C212.568,57.131 212.68,57.293 212.829,57.442L213.183,57.088ZM212.979,56.785L211.19,52.167L210.724,52.347L212.513,56.965L212.979,56.785ZM210.957,52.007L200.29,52.007L200.29,52.507L210.957,52.507L210.957,52.007ZM200.057,52.167L198.268,56.785L198.734,56.965L200.523,52.347L200.057,52.167ZM198.264,56.796C198.24,56.868 198.178,56.962 198.046,57.075L198.371,57.455C198.542,57.308 198.675,57.142 198.738,56.954L198.264,56.796ZM198.048,57.073C197.975,57.135 197.863,57.178 197.688,57.178L197.688,57.678C197.947,57.678 198.182,57.612 198.368,57.457L198.048,57.073ZM197.688,57.178L196.029,57.178L196.029,57.678L197.688,57.678L197.688,57.178ZM210.248,49.371L205.857,37.826L205.39,38.003L209.78,49.549L210.248,49.371ZM205.39,37.826L200.999,49.371L201.467,49.549L205.857,38.003L205.39,37.826ZM201.233,49.71L210.014,49.71L210.014,49.21L201.233,49.21L201.233,49.71ZM219.15,63.379L218.973,63.556L219.15,63.379ZM219.15,40.744L219.327,40.921L219.15,40.744ZM221.719,40.744L221.529,40.907C221.538,40.916 221.547,40.926 221.556,40.934L221.719,40.744ZM221.947,42.695L221.697,42.695C221.697,42.804 221.767,42.9 221.87,42.933C221.973,42.967 222.085,42.93 222.149,42.842L221.947,42.695ZM232.386,42.338L232.19,42.492L232.191,42.494L232.386,42.338ZM234.24,47.866L233.99,47.876L233.991,47.889L234.24,47.866ZM234.24,50.078L233.991,50.055L233.99,50.068L234.24,50.078ZM232.386,55.606L232.581,55.763L232.582,55.762L232.386,55.606ZM222.012,55.314L222.21,55.161C222.144,55.076 222.032,55.043 221.931,55.077C221.83,55.112 221.762,55.207 221.762,55.314L222.012,55.314ZM221.817,63.379L221.64,63.203C221.635,63.207 221.631,63.212 221.627,63.217L221.817,63.379ZM229.947,53.688L229.747,53.538L229.745,53.541L229.947,53.688ZM231.118,49.915L230.869,49.89C230.869,49.895 230.868,49.9 230.868,49.905L231.118,49.915ZM223.215,44.321L223.016,44.17L223.016,44.171L223.215,44.321ZM222.012,47.834L221.762,47.822L221.762,47.827L222.012,47.834ZM221.979,49.07L221.729,49.063L221.729,49.076L221.979,49.07ZM222.012,50.338L221.762,50.344L221.762,50.346L222.012,50.338ZM223.248,53.688L223.441,53.529L223.248,53.688ZM219.703,63.357C219.552,63.357 219.431,63.307 219.327,63.203L218.973,63.556C219.172,63.755 219.42,63.857 219.703,63.857L219.703,63.357ZM219.327,63.203C219.252,63.128 219.205,63.022 219.205,62.859L218.705,62.859C218.705,63.129 218.788,63.371 218.973,63.556L219.327,63.203ZM219.205,62.859L219.205,41.264L218.705,41.264L218.705,62.859L219.205,62.859ZM219.205,41.264C219.205,41.101 219.252,40.996 219.327,40.921L218.973,40.567C218.788,40.753 218.705,40.994 218.705,41.264L219.205,41.264ZM219.327,40.921C219.431,40.816 219.552,40.766 219.703,40.766L219.703,40.266C219.42,40.266 219.172,40.368 218.973,40.567L219.327,40.921ZM219.703,40.766L221.199,40.766L221.199,40.266L219.703,40.266L219.703,40.766ZM221.199,40.766C221.35,40.766 221.451,40.815 221.529,40.907L221.909,40.581C221.727,40.369 221.482,40.266 221.199,40.266L221.199,40.766ZM221.556,40.934C221.648,41.012 221.697,41.114 221.697,41.264L222.197,41.264C222.197,40.981 222.094,40.736 221.882,40.554L221.556,40.934ZM221.697,41.264L221.697,42.695L222.197,42.695L222.197,41.264L221.697,41.264ZM222.149,42.842C223.309,41.247 225.006,40.441 227.28,40.441L227.28,39.941C224.871,39.941 223.013,40.805 221.745,42.548L222.149,42.842ZM227.28,40.441C229.501,40.441 231.122,41.136 232.19,42.492L232.583,42.183C231.396,40.677 229.613,39.941 227.28,39.941L227.28,40.441ZM232.191,42.494C233.3,43.874 233.905,45.662 233.99,47.876L234.49,47.857C234.402,45.561 233.771,43.663 232.581,42.181L232.191,42.494ZM233.991,47.889C234.012,48.115 234.023,48.475 234.023,48.972L234.523,48.972C234.523,48.472 234.512,48.094 234.489,47.844L233.991,47.889ZM234.023,48.972C234.023,49.469 234.012,49.829 233.991,50.055L234.489,50.1C234.512,49.85 234.523,49.472 234.523,48.972L234.023,48.972ZM233.99,50.068C233.905,52.26 233.3,54.048 232.19,55.451L232.582,55.762C233.771,54.259 234.402,52.362 234.49,50.088L233.99,50.068ZM232.191,55.45C231.101,56.808 229.479,57.503 227.28,57.503L227.28,58.003C229.592,58.003 231.374,57.267 232.581,55.763L232.191,55.45ZM227.28,57.503C225.094,57.503 223.415,56.719 222.21,55.161L221.814,55.467C223.124,57.161 224.957,58.003 227.28,58.003L227.28,57.503ZM221.762,55.314L221.762,62.859L222.262,62.859L222.262,55.314L221.762,55.314ZM221.762,62.859C221.762,63.022 221.715,63.128 221.64,63.203L221.994,63.556C222.179,63.371 222.262,63.129 222.262,62.859L221.762,62.859ZM221.627,63.217C221.549,63.308 221.447,63.357 221.296,63.357L221.296,63.857C221.579,63.857 221.825,63.754 222.007,63.542L221.627,63.217ZM221.296,63.357L219.703,63.357L219.703,63.857L221.296,63.857L221.296,63.357ZM226.597,55.369C228.19,55.369 229.395,54.872 230.149,53.835L229.745,53.541C229.112,54.411 228.084,54.869 226.597,54.869L226.597,55.369ZM230.147,53.838C230.901,52.833 231.301,51.522 231.368,49.926L230.868,49.905C230.805,51.431 230.424,52.635 229.747,53.538L230.147,53.838ZM231.367,49.94C231.39,49.711 231.401,49.386 231.401,48.972L230.901,48.972C230.901,49.382 230.89,49.686 230.869,49.89L231.367,49.94ZM231.401,48.972C231.401,46.9 231.018,45.3 230.213,44.213C229.398,43.113 228.177,42.575 226.597,42.575L226.597,43.075C228.053,43.075 229.109,43.563 229.811,44.511C230.524,45.473 230.901,46.947 230.901,48.972L231.401,48.972ZM226.597,42.575C225.04,42.575 223.832,43.098 223.016,44.17L223.414,44.473C224.116,43.55 225.163,43.075 226.597,43.075L226.597,42.575ZM223.016,44.171C222.245,45.191 221.829,46.412 221.762,47.822L222.262,47.846C222.325,46.524 222.711,45.403 223.415,44.472L223.016,44.171ZM221.762,47.827L221.729,49.063L222.229,49.076L222.262,47.84L221.762,47.827ZM221.729,49.076L221.762,50.344L222.262,50.332L222.229,49.063L221.729,49.076ZM221.762,50.346C221.807,51.678 222.238,52.848 223.054,53.846L223.441,53.529C222.697,52.62 222.303,51.556 222.262,50.33L221.762,50.346ZM223.054,53.846C223.891,54.869 225.085,55.369 226.597,55.369L226.597,54.869C225.205,54.869 224.166,54.415 223.441,53.529L223.054,53.846ZM240.052,57.103L240.159,56.877L240.052,57.103ZM237.873,55.346L237.667,55.488L237.672,55.494L237.873,55.346ZM238.849,49.33L239.002,49.527L239.003,49.527L238.849,49.33ZM243.662,47.509L243.696,47.756L243.697,47.756L243.662,47.509ZM248.508,46.826L248.543,47.073C248.666,47.056 248.758,46.95 248.758,46.826L248.508,46.826ZM242.361,43.183L242.496,43.394L242.501,43.39L242.361,43.183ZM240.995,44.582L240.777,44.459C240.769,44.473 240.763,44.488 240.758,44.503L240.995,44.582ZM240.735,45.004L240.579,44.809C240.571,44.815 240.565,44.821 240.558,44.828L240.735,45.004ZM238.426,44.939L238.236,45.102C238.244,45.112 238.253,45.121 238.263,45.129L238.426,44.939ZM238.231,44.419L237.981,44.408L237.981,44.419L238.231,44.419ZM238.946,42.663L238.742,42.518L238.741,42.519L238.946,42.663ZM241.125,40.939L241.235,41.164L241.239,41.162L241.125,40.939ZM249.971,41.915L249.788,42.085L249.789,42.086L249.971,41.915ZM251.337,57.233L251.514,57.409L251.337,57.233ZM248.768,57.233L248.578,57.395C248.586,57.405 248.595,57.414 248.605,57.422L248.768,57.233ZM248.573,55.281L248.823,55.281C248.823,55.172 248.751,55.075 248.647,55.042C248.542,55.01 248.429,55.049 248.367,55.14L248.573,55.281ZM246.491,57.038L246.375,56.816L246.491,57.038ZM247.142,53.948L246.963,53.773L246.963,53.773L247.142,53.948ZM248.508,49.037L248.758,49.037C248.758,48.964 248.726,48.895 248.671,48.848C248.616,48.8 248.543,48.779 248.471,48.79L248.508,49.037ZM244.735,49.59L244.77,49.838L244.771,49.837L244.735,49.59ZM241.255,50.696L241.39,50.906L241.394,50.904L241.255,50.696ZM241.158,54.631L241.019,54.839L241.023,54.842L241.158,54.631ZM243.011,57.503C241.984,57.503 241.035,57.294 240.159,56.877L239.944,57.328C240.89,57.779 241.914,58.003 243.011,58.003L243.011,57.503ZM240.159,56.877C239.282,56.459 238.59,55.899 238.074,55.198L237.672,55.494C238.24,56.268 239,56.879 239.944,57.328L240.159,56.877ZM238.079,55.205C237.587,54.487 237.342,53.702 237.342,52.842L236.842,52.842C236.842,53.804 237.118,54.688 237.667,55.488L238.079,55.205ZM237.342,52.842C237.342,51.492 237.89,50.392 239.002,49.527L238.695,49.132C237.466,50.088 236.842,51.331 236.842,52.842L237.342,52.842ZM239.003,49.527C240.15,48.629 241.709,48.034 243.696,47.756L243.627,47.261C241.582,47.547 239.932,48.166 238.695,49.133L239.003,49.527ZM243.697,47.756L248.543,47.073L248.473,46.578L243.627,47.261L243.697,47.756ZM248.758,46.826L248.758,45.882L248.258,45.882L248.258,46.826L248.758,46.826ZM248.758,45.882C248.758,44.729 248.425,43.82 247.721,43.206C247.023,42.598 246.002,42.315 244.703,42.315L244.703,42.815C245.94,42.815 246.822,43.086 247.392,43.583C247.956,44.075 248.258,44.825 248.258,45.882L248.758,45.882ZM244.703,42.315C243.713,42.315 242.88,42.529 242.221,42.976L242.501,43.39C243.056,43.014 243.784,42.815 244.703,42.815L244.703,42.315ZM242.226,42.973C241.59,43.382 241.103,43.876 240.777,44.459L241.213,44.704C241.494,44.203 241.918,43.765 242.496,43.393L242.226,42.973ZM240.758,44.503C240.701,44.673 240.635,44.764 240.579,44.809L240.891,45.2C241.051,45.072 241.159,44.881 241.232,44.661L240.758,44.503ZM240.558,44.828C240.535,44.851 240.48,44.884 240.345,44.884L240.345,45.384C240.557,45.384 240.762,45.331 240.912,45.181L240.558,44.828ZM240.345,44.884L238.946,44.884L238.946,45.384L240.345,45.384L240.345,44.884ZM238.946,44.884C238.812,44.884 238.696,44.842 238.589,44.75L238.263,45.129C238.459,45.297 238.69,45.384 238.946,45.384L238.946,44.884ZM238.616,44.777C238.523,44.669 238.481,44.553 238.481,44.419L237.981,44.419C237.981,44.675 238.068,44.906 238.236,45.102L238.616,44.777ZM238.48,44.429C238.499,43.976 238.71,43.437 239.151,42.806L238.741,42.519C238.272,43.19 238.005,43.822 237.981,44.408L238.48,44.429ZM239.15,42.808C239.596,42.179 240.285,41.628 241.235,41.164L241.015,40.715C240.014,41.204 239.25,41.803 238.742,42.518L239.15,42.808ZM241.239,41.162C242.17,40.686 243.332,40.441 244.735,40.441L244.735,39.941C243.276,39.941 242.031,40.195 241.011,40.717L241.239,41.162ZM244.735,40.441C247.132,40.441 248.793,41.009 249.788,42.085L250.155,41.745C249.024,40.522 247.195,39.941 244.735,39.941L244.735,40.441ZM249.789,42.086C250.804,43.163 251.315,44.509 251.315,46.143L251.815,46.143C251.815,44.394 251.263,42.922 250.153,41.743L249.789,42.086ZM251.315,46.143L251.315,56.68L251.815,56.68L251.815,46.143L251.315,46.143ZM251.315,56.68C251.315,56.831 251.265,56.952 251.16,57.056L251.514,57.409C251.713,57.21 251.815,56.962 251.815,56.68L251.315,56.68ZM251.16,57.056C251.085,57.131 250.98,57.178 250.817,57.178L250.817,57.678C251.087,57.678 251.329,57.595 251.514,57.409L251.16,57.056ZM250.817,57.178L249.321,57.178L249.321,57.678L250.817,57.678L250.817,57.178ZM249.321,57.178C249.158,57.178 249.033,57.131 248.93,57.043L248.605,57.422C248.806,57.595 249.05,57.678 249.321,57.678L249.321,57.178ZM248.958,57.07C248.87,56.967 248.823,56.842 248.823,56.68L248.323,56.68C248.323,56.951 248.406,57.194 248.578,57.395L248.958,57.07ZM248.823,56.68L248.823,55.281L248.323,55.281L248.323,56.68L248.823,56.68ZM248.367,55.14C247.917,55.793 247.258,56.354 246.375,56.816L246.607,57.259C247.546,56.767 248.274,56.157 248.779,55.423L248.367,55.14ZM246.375,56.816C245.511,57.269 244.395,57.503 243.011,57.503L243.011,58.003C244.447,58.003 245.65,57.76 246.607,57.259L246.375,56.816ZM243.694,55.564C245.163,55.564 246.379,55.087 247.321,54.123L246.963,53.773C246.126,54.63 245.044,55.064 243.694,55.064L243.694,55.564ZM247.321,54.123C248.29,53.13 248.758,51.725 248.758,49.948L248.258,49.948C248.258,51.639 247.814,52.901 246.963,53.773L247.321,54.123ZM248.758,49.948L248.758,49.037L248.258,49.037L248.258,49.948L248.758,49.948ZM248.471,48.79L244.699,49.343L244.771,49.837L248.544,49.284L248.471,48.79ZM244.7,49.342C243.145,49.561 241.942,49.937 241.117,50.488L241.394,50.904C242.129,50.414 243.246,50.052 244.77,49.838L244.7,49.342ZM241.121,50.485C240.284,51.02 239.834,51.732 239.834,52.615L240.334,52.615C240.334,51.936 240.666,51.369 241.39,50.906L241.121,50.485ZM239.834,52.615C239.834,53.565 240.233,54.315 241.019,54.839L241.296,54.423C240.651,53.993 240.334,53.399 240.334,52.615L239.834,52.615ZM241.023,54.842C241.785,55.326 242.678,55.564 243.694,55.564L243.694,55.064C242.759,55.064 241.961,54.846 241.292,54.42L241.023,54.842ZM257.606,55.802L257.428,55.977L257.431,55.98L257.606,55.802ZM255.524,50.273L255.275,50.279L255.275,50.282L255.524,50.273ZM255.492,48.972L255.242,48.966L255.242,48.978L255.492,48.972ZM255.524,47.671L255.275,47.662L255.275,47.665L255.524,47.671ZM257.606,42.175L257.783,42.352L257.606,42.175ZM267.037,41.037L266.922,41.259L267.037,41.037ZM269.444,43.118L269.232,43.252L269.235,43.256L269.444,43.118ZM270.322,45.59L270.072,45.603L270.073,45.615L270.322,45.59ZM270.127,46.11L270.29,46.3L270.127,46.11ZM267.525,46.175L267.681,45.98L267.525,46.175ZM267.2,45.655L266.964,45.738L266.969,45.751L267.2,45.655ZM265.639,43.443L265.499,43.65L265.503,43.653L265.639,43.443ZM259.882,44.029L259.701,43.857L259.701,43.857L259.882,44.029ZM258.614,47.834L258.364,47.824L258.364,47.827L258.614,47.834ZM258.582,49.005L258.332,48.998L258.332,49.012L258.582,49.005ZM258.614,50.11L258.364,50.118L258.364,50.12L258.614,50.11ZM259.882,53.948L259.701,54.12L259.882,53.948ZM265.639,54.533L265.774,54.743L265.779,54.74L265.639,54.533ZM267.2,52.289L266.969,52.193L266.964,52.206L267.2,52.289ZM267.525,51.769L267.681,51.964C267.688,51.958 267.695,51.952 267.702,51.946L267.525,51.769ZM270.127,51.834L269.95,52.011C269.955,52.015 269.959,52.02 269.964,52.024L270.127,51.834ZM270.322,52.354L270.073,52.329L270.072,52.341L270.322,52.354ZM269.444,54.826L269.233,54.691L269.232,54.693L269.444,54.826ZM267.037,56.907L266.922,56.686L266.92,56.687L267.037,56.907ZM263.07,57.503C260.798,57.503 259.046,56.867 257.781,55.623L257.431,55.98C258.811,57.338 260.701,58.003 263.07,58.003L263.07,57.503ZM257.784,55.626C256.538,54.359 255.859,52.582 255.774,50.264L255.275,50.282C255.363,52.69 256.072,54.599 257.428,55.977L257.784,55.626ZM255.774,50.267L255.742,48.966L255.242,48.978L255.275,50.279L255.774,50.267ZM255.742,48.978L255.774,47.677L255.275,47.665L255.242,48.966L255.742,48.978ZM255.774,47.68C255.859,45.362 256.538,43.596 257.783,42.352L257.429,41.998C256.072,43.355 255.363,45.254 255.275,47.662L255.774,47.68ZM257.783,42.352C259.048,41.087 260.799,40.441 263.07,40.441L263.07,39.941C260.7,39.941 258.809,40.618 257.429,41.998L257.783,42.352ZM263.07,40.441C264.601,40.441 265.882,40.718 266.922,41.259L267.153,40.815C266.024,40.228 264.66,39.941 263.07,39.941L263.07,40.441ZM266.922,41.259C267.977,41.807 268.741,42.474 269.232,43.252L269.655,42.985C269.106,42.115 268.266,41.394 267.153,40.815L266.922,41.259ZM269.235,43.256C269.757,44.05 270.032,44.831 270.072,45.603L270.572,45.577C270.526,44.701 270.214,43.834 269.653,42.981L269.235,43.256ZM270.073,45.615C270.088,45.759 270.048,45.849 269.964,45.92L270.29,46.3C270.51,46.111 270.6,45.854 270.571,45.565L270.073,45.615ZM269.964,45.92C269.862,46.008 269.737,46.055 269.574,46.055L269.574,46.555C269.845,46.555 270.088,46.472 270.29,46.3L269.964,45.92ZM269.574,46.055L268.013,46.055L268.013,46.555L269.574,46.555L269.574,46.055ZM268.013,46.055C267.823,46.055 267.726,46.016 267.681,45.98L267.369,46.37C267.54,46.508 267.769,46.555 268.013,46.555L268.013,46.055ZM267.681,45.98C267.625,45.935 267.536,45.812 267.431,45.559L266.969,45.751C267.08,46.018 267.208,46.242 267.369,46.37L267.681,45.98ZM267.436,45.571C267.055,44.498 266.508,43.706 265.774,43.233L265.503,43.653C266.114,44.048 266.607,44.73 266.964,45.738L267.436,45.571ZM265.779,43.236C265.056,42.747 264.158,42.51 263.102,42.51L263.102,43.01C264.084,43.01 264.877,43.229 265.499,43.65L265.779,43.236ZM263.102,42.51C261.701,42.51 260.558,42.954 259.701,43.857L260.064,44.201C260.811,43.413 261.815,43.01 263.102,43.01L263.102,42.51ZM259.701,43.857C258.862,44.742 258.43,46.081 258.364,47.824L258.864,47.843C258.928,46.161 259.342,44.963 260.064,44.201L259.701,43.857ZM258.364,47.827L258.332,48.998L258.831,49.012L258.864,47.841L258.364,47.827ZM258.332,49.012L258.364,50.118L258.864,50.103L258.831,48.997L258.332,49.012ZM258.364,50.12C258.43,51.884 258.861,53.234 259.701,54.12L260.064,53.776C259.342,53.014 258.928,51.806 258.864,50.101L258.364,50.12ZM259.701,54.12C260.538,55.004 261.683,55.434 263.102,55.434L263.102,54.934C261.79,54.934 260.788,54.54 260.064,53.776L259.701,54.12ZM263.102,55.434C264.156,55.434 265.052,55.209 265.774,54.743L265.503,54.323C264.881,54.725 264.086,54.934 263.102,54.934L263.102,55.434ZM265.779,54.74C266.509,54.246 267.055,53.446 267.436,52.373L266.964,52.206C266.607,53.214 266.113,53.91 265.499,54.326L265.779,54.74ZM267.431,52.385C267.536,52.132 267.625,52.009 267.681,51.964L267.369,51.574C267.208,51.702 267.08,51.926 266.969,52.193L267.431,52.385ZM267.702,51.946C267.747,51.901 267.835,51.856 268.013,51.856L268.013,51.356C267.758,51.356 267.52,51.42 267.348,51.592L267.702,51.946ZM268.013,51.856L269.574,51.856L269.574,51.356L268.013,51.356L268.013,51.856ZM269.574,51.856C269.725,51.856 269.846,51.906 269.95,52.011L270.304,51.657C270.104,51.458 269.856,51.356 269.574,51.356L269.574,51.856ZM269.964,52.024C270.048,52.095 270.088,52.185 270.073,52.329L270.571,52.379C270.6,52.09 270.51,51.833 270.29,51.644L269.964,52.024ZM270.072,52.341C270.032,53.09 269.758,53.873 269.233,54.691L269.654,54.961C270.214,54.088 270.525,53.223 270.572,52.368L270.072,52.341ZM269.232,54.693C268.741,55.471 267.977,56.137 266.922,56.686L267.153,57.129C268.266,56.55 269.106,55.829 269.655,54.96L269.232,54.693ZM266.92,56.687C265.903,57.226 264.624,57.503 263.07,57.503L263.07,58.003C264.681,58.003 266.046,57.716 267.154,57.128L266.92,56.687ZM274.412,57.233L274.222,57.395C274.23,57.405 274.239,57.414 274.249,57.422L274.412,57.233ZM274.412,34.565L274.589,34.742L274.412,34.565ZM277.111,34.565L276.921,34.728C276.93,34.737 276.939,34.746 276.948,34.755L277.111,34.565ZM277.339,42.663L277.089,42.663C277.089,42.769 277.156,42.864 277.257,42.899C277.358,42.934 277.47,42.901 277.536,42.817L277.339,42.663ZM279.55,40.842L279.66,41.066L279.664,41.064L279.55,40.842ZM287.551,42.208L287.361,42.37L287.364,42.373L287.551,42.208ZM289.079,57.233L288.902,57.056L289.079,57.233ZM286.38,57.233L286.19,57.395C286.198,57.405 286.208,57.414 286.217,57.422L286.38,57.233ZM285.047,44.094L284.858,44.258L284.86,44.261L285.047,44.094ZM278.542,44.126L278.361,43.954L278.361,43.954L278.542,44.126ZM277.111,57.233L276.934,57.056L277.111,57.233ZM274.965,57.178C274.802,57.178 274.677,57.131 274.575,57.043L274.249,57.422C274.45,57.595 274.694,57.678 274.965,57.678L274.965,57.178ZM274.602,57.07C274.514,56.967 274.467,56.842 274.467,56.68L273.967,56.68C273.967,56.951 274.05,57.194 274.222,57.395L274.602,57.07ZM274.467,56.68L274.467,35.085L273.967,35.085L273.967,56.68L274.467,56.68ZM274.467,35.085C274.467,34.922 274.514,34.817 274.589,34.742L274.235,34.388C274.05,34.573 273.967,34.815 273.967,35.085L274.467,35.085ZM274.589,34.742C274.693,34.637 274.813,34.587 274.965,34.587L274.965,34.087C274.682,34.087 274.434,34.189 274.235,34.388L274.589,34.742ZM274.965,34.587L276.591,34.587L276.591,34.087L274.965,34.087L274.965,34.587ZM276.591,34.587C276.742,34.587 276.843,34.636 276.921,34.728L277.301,34.402C277.119,34.19 276.874,34.087 276.591,34.087L276.591,34.587ZM276.948,34.755C277.04,34.833 277.089,34.934 277.089,35.085L277.589,35.085C277.589,34.802 277.486,34.557 277.274,34.375L276.948,34.755ZM277.089,35.085L277.089,42.663L277.589,42.663L277.589,35.085L277.089,35.085ZM277.536,42.817C278.143,42.042 278.851,41.46 279.66,41.066L279.441,40.617C278.558,41.047 277.792,41.679 277.142,42.509L277.536,42.817ZM279.664,41.064C280.465,40.653 281.475,40.441 282.705,40.441L282.705,39.941C281.42,39.941 280.327,40.163 279.436,40.619L279.664,41.064ZM282.705,40.441C284.728,40.441 286.268,41.091 287.361,42.37L287.741,42.045C286.536,40.635 284.845,39.941 282.705,39.941L282.705,40.441ZM287.364,42.373C288.484,43.639 289.057,45.342 289.057,47.509L289.557,47.509C289.557,45.252 288.959,43.421 287.738,42.042L287.364,42.373ZM289.057,47.509L289.057,56.68L289.557,56.68L289.557,47.509L289.057,47.509ZM289.057,56.68C289.057,56.831 289.007,56.952 288.902,57.056L289.256,57.409C289.455,57.21 289.557,56.962 289.557,56.68L289.057,56.68ZM288.902,57.056C288.828,57.131 288.722,57.178 288.559,57.178L288.559,57.678C288.829,57.678 289.071,57.595 289.256,57.409L288.902,57.056ZM288.559,57.178L286.933,57.178L286.933,57.678L288.559,57.678L288.559,57.178ZM286.933,57.178C286.77,57.178 286.645,57.131 286.543,57.043L286.217,57.422C286.418,57.595 286.662,57.678 286.933,57.678L286.933,57.178ZM286.57,57.07C286.482,56.967 286.435,56.842 286.435,56.68L285.935,56.68C285.935,56.951 286.018,57.194 286.19,57.395L286.57,57.07ZM286.435,56.68L286.435,47.671L285.935,47.671L285.935,56.68L286.435,56.68ZM286.435,47.671C286.435,46.092 286.045,44.832 285.233,43.927L284.86,44.261C285.565,45.046 285.935,46.171 285.935,47.671L286.435,47.671ZM285.235,43.93C284.439,43.016 283.288,42.575 281.827,42.575L281.827,43.075C283.184,43.075 284.18,43.48 284.858,44.258L285.235,43.93ZM281.827,42.575C280.403,42.575 279.239,43.03 278.361,43.954L278.723,44.298C279.493,43.488 280.519,43.075 281.827,43.075L281.827,42.575ZM278.361,43.954C277.502,44.859 277.089,46.109 277.089,47.671L277.589,47.671C277.589,46.198 277.977,45.085 278.724,44.298L278.361,43.954ZM277.089,47.671L277.089,56.68L277.589,56.68L277.589,47.671L277.089,47.671ZM277.089,56.68C277.089,56.831 277.039,56.952 276.934,57.056L277.288,57.409C277.487,57.21 277.589,56.962 277.589,56.68L277.089,56.68ZM276.934,57.056C276.859,57.131 276.754,57.178 276.591,57.178L276.591,57.678C276.861,57.678 277.103,57.595 277.288,57.409L276.934,57.056ZM276.591,57.178L274.965,57.178L274.965,57.678L276.591,57.678L276.591,57.178ZM295.401,55.704L295.22,55.877L295.223,55.879L295.401,55.704ZM293.222,50.045L292.972,50.053L292.972,50.059L293.222,50.045ZM293.189,48.94L292.939,48.932L292.939,48.947L293.189,48.94ZM293.222,47.866L292.972,47.85L292.972,47.859L293.222,47.866ZM295.433,42.273L295.254,42.099L295.252,42.1L295.433,42.273ZM306.328,42.5L306.138,42.663L306.14,42.664L306.328,42.5ZM308.084,49.785L308.261,49.962L308.084,49.785ZM296.311,49.98L296.311,49.73C296.173,49.73 296.061,49.842 296.061,49.98L296.311,49.98ZM296.311,50.273L296.061,50.273L296.062,50.284L296.311,50.273ZM297.58,53.883L297.383,54.037L297.387,54.042L297.58,53.883ZM303.173,54.761L303.305,54.973L303.307,54.972L303.173,54.761ZM304.604,53.493L304.404,53.343L304.4,53.349L304.604,53.493ZM305.027,53.037L305.139,53.261C305.145,53.258 305.15,53.255 305.156,53.252L305.027,53.037ZM307.661,53.102L307.501,53.294L307.661,53.102ZM306.946,55.281L306.76,55.114L306.757,55.117L306.946,55.281ZM304.442,57.038L304.544,57.266L304.546,57.265L304.442,57.038ZM305.222,47.736L305.222,47.986C305.36,47.986 305.472,47.874 305.472,47.736L305.222,47.736ZM303.986,43.996L303.795,44.157L303.799,44.162L303.986,43.996ZM297.482,43.996L297.291,43.835L297.29,43.836L297.482,43.996ZM296.311,47.736L296.061,47.736C296.061,47.874 296.173,47.986 296.311,47.986L296.311,47.736ZM300.767,57.503C298.589,57.503 296.868,56.839 295.579,55.529L295.223,55.879C296.622,57.301 298.479,58.003 300.767,58.003L300.767,57.503ZM295.582,55.532C294.31,54.197 293.599,52.372 293.471,50.032L292.972,50.059C293.105,52.488 293.847,54.436 295.22,55.877L295.582,55.532ZM293.472,50.038L293.439,48.932L292.939,48.947L292.972,50.053L293.472,50.038ZM293.439,48.947L293.472,47.874L292.972,47.859L292.939,48.932L293.439,48.947ZM293.471,47.883C293.62,45.586 294.341,43.781 295.614,42.445L295.252,42.1C293.881,43.539 293.127,45.464 292.972,47.85L293.471,47.883ZM295.613,42.447C296.903,41.114 298.602,40.441 300.734,40.441L300.734,39.941C298.487,39.941 296.651,40.656 295.254,42.099L295.613,42.447ZM300.734,40.441C303.083,40.441 304.872,41.189 306.138,42.663L306.518,42.337C305.139,40.732 303.199,39.941 300.734,39.941L300.734,40.441ZM306.14,42.664C307.412,44.125 308.062,46.12 308.062,48.679L308.562,48.679C308.562,46.035 307.889,43.911 306.517,42.336L306.14,42.664ZM308.062,48.679L308.062,49.232L308.562,49.232L308.562,48.679L308.062,48.679ZM308.062,49.232C308.062,49.384 308.012,49.504 307.907,49.608L308.261,49.962C308.46,49.763 308.562,49.515 308.562,49.232L308.062,49.232ZM307.907,49.608C307.833,49.683 307.727,49.73 307.564,49.73L307.564,50.23C307.834,50.23 308.076,50.147 308.261,49.962L307.907,49.608ZM307.564,49.73L296.311,49.73L296.311,50.23L307.564,50.23L307.564,49.73ZM296.061,49.98L296.061,50.273L296.561,50.273L296.561,49.98L296.061,49.98ZM296.062,50.284C296.129,51.739 296.567,52.994 297.383,54.037L297.777,53.729C297.032,52.777 296.624,51.625 296.561,50.261L296.062,50.284ZM297.387,54.042C298.238,55.077 299.361,55.596 300.734,55.596L300.734,55.096C299.506,55.096 298.526,54.64 297.773,53.724L297.387,54.042ZM300.734,55.596C301.763,55.596 302.625,55.395 303.305,54.973L303.042,54.548C302.464,54.907 301.701,55.096 300.734,55.096L300.734,55.596ZM303.307,54.972C303.974,54.55 304.48,54.106 304.809,53.636L304.4,53.349C304.122,53.746 303.674,54.148 303.04,54.55L303.307,54.972ZM304.804,53.643C304.899,53.516 304.977,53.421 305.04,53.354C305.071,53.32 305.096,53.296 305.115,53.28C305.135,53.263 305.143,53.259 305.139,53.261L304.915,52.814C304.829,52.857 304.746,52.935 304.673,53.014C304.594,53.098 304.505,53.209 304.404,53.343L304.804,53.643ZM305.156,53.252C305.202,53.224 305.327,53.19 305.58,53.19L305.58,52.69C305.313,52.69 305.069,52.721 304.899,52.823L305.156,53.252ZM305.58,53.19L307.174,53.19L307.174,52.69L305.58,52.69L305.58,53.19ZM307.174,53.19C307.32,53.19 307.423,53.229 307.501,53.294L307.822,52.91C307.64,52.759 307.418,52.69 307.174,52.69L307.174,53.19ZM307.501,53.294C307.565,53.348 307.607,53.424 307.607,53.558L308.107,53.558C308.107,53.301 308.018,53.074 307.822,52.91L307.501,53.294ZM307.607,53.558C307.607,53.937 307.359,54.451 306.76,55.114L307.132,55.449C307.747,54.767 308.107,54.132 308.107,53.558L307.607,53.558ZM306.757,55.117C306.202,55.755 305.4,56.322 304.337,56.81L304.546,57.265C305.652,56.756 306.519,56.152 307.135,55.446L306.757,55.117ZM304.339,56.809C303.315,57.269 302.126,57.503 300.767,57.503L300.767,58.003C302.183,58.003 303.444,57.76 304.544,57.266L304.339,56.809ZM305.472,47.736L305.472,47.639L304.972,47.639L304.972,47.736L305.472,47.736ZM305.472,47.639C305.472,46.095 305.046,44.818 304.174,43.831L303.799,44.162C304.575,45.039 304.972,46.191 304.972,47.639L305.472,47.639ZM304.178,43.835C303.323,42.819 302.166,42.315 300.734,42.315L300.734,42.815C302.034,42.815 303.045,43.265 303.795,44.157L304.178,43.835ZM300.734,42.315C299.303,42.315 298.145,42.819 297.291,43.835L297.673,44.157C298.423,43.265 299.434,42.815 300.734,42.815L300.734,42.315ZM297.29,43.836C296.464,44.823 296.061,46.098 296.061,47.639L296.561,47.639C296.561,46.187 296.939,45.034 297.674,44.157L297.29,43.836ZM296.061,47.639L296.061,47.736L296.561,47.736L296.561,47.639L296.061,47.639ZM296.311,47.986L305.222,47.986L305.222,47.486L296.311,47.486L296.311,47.986Z" style="fill:rgb(81,80,79);fill-rule:nonzero;"/>
        </g>
        <g transform="matrix(0.220577,0,0,0.220577,176.613,68.2986)">
            <path d="M189.267,133.808C188.826,133.808 188.441,133.642 188.11,133.312C187.78,132.981 187.614,132.596 187.614,132.155C187.614,131.714 187.642,131.412 187.697,131.246L208.188,77.789C208.628,76.577 209.51,75.971 210.832,75.971L216.45,75.971C217.772,75.971 218.653,76.577 219.094,77.789L239.502,131.246L239.667,132.155C239.667,132.596 239.502,132.981 239.171,133.312C238.841,133.642 238.455,133.808 238.015,133.808L233.801,133.808C233.195,133.808 232.727,133.67 232.396,133.395C232.066,133.064 231.845,132.734 231.735,132.403L227.191,120.671L200.091,120.671L195.546,132.403C195.436,132.734 195.188,133.064 194.803,133.395C194.472,133.67 194.031,133.808 193.481,133.808L189.267,133.808ZM224.795,113.565L213.641,84.234L202.487,113.565L224.795,113.565ZM248.667,82.829C248.116,82.829 247.648,82.664 247.262,82.333C246.931,81.948 246.766,81.48 246.766,80.929L246.766,76.467C246.766,75.916 246.931,75.448 247.262,75.062C247.648,74.677 248.116,74.484 248.667,74.484L253.872,74.484C254.423,74.484 254.891,74.677 255.276,75.062C255.662,75.448 255.855,75.916 255.855,76.467L255.855,80.929C255.855,81.48 255.662,81.948 255.276,82.333C254.891,82.664 254.423,82.829 253.872,82.829L248.667,82.829ZM249.328,133.808C248.777,133.808 248.309,133.642 247.923,133.312C247.592,132.926 247.427,132.458 247.427,131.907L247.427,92.744C247.427,92.193 247.592,91.752 247.923,91.422C248.309,91.036 248.777,90.844 249.328,90.844L253.293,90.844C253.844,90.844 254.285,91.036 254.615,91.422C255.001,91.752 255.194,92.193 255.194,92.744L255.194,131.907C255.194,132.458 255.001,132.926 254.615,133.312C254.285,133.642 253.844,133.808 253.293,133.808L249.328,133.808ZM269.338,133.808C268.787,133.808 268.319,133.642 267.933,133.312C267.603,132.926 267.438,132.458 267.438,131.907L267.438,92.827C267.438,92.276 267.603,91.807 267.933,91.422C268.319,91.036 268.787,90.844 269.338,90.844L273.139,90.844C273.689,90.844 274.158,91.036 274.543,91.422C274.929,91.807 275.122,92.276 275.122,92.827L275.122,96.462C277.38,92.716 281.236,90.844 286.689,90.844L289.911,90.844C290.462,90.844 290.903,91.036 291.233,91.422C291.619,91.752 291.811,92.193 291.811,92.744L291.811,96.131C291.811,96.682 291.619,97.123 291.233,97.453C290.903,97.784 290.462,97.949 289.911,97.949L284.954,97.949C281.979,97.949 279.638,98.83 277.931,100.593C276.223,102.301 275.369,104.642 275.369,107.616L275.369,131.907C275.369,132.458 275.177,132.926 274.791,133.312C274.405,133.642 273.937,133.808 273.386,133.808L269.338,133.808ZM305.021,133.808C304.471,133.808 304.002,133.642 303.617,133.312C303.286,132.926 303.121,132.458 303.121,131.907L303.121,97.453L296.098,97.453C295.547,97.453 295.079,97.288 294.694,96.958C294.363,96.572 294.198,96.104 294.198,95.553L294.198,92.744C294.198,92.193 294.363,91.752 294.694,91.422C295.079,91.036 295.547,90.844 296.098,90.844L303.121,90.844L303.121,86.712C303.121,77.348 307.858,72.666 317.332,72.666L321.959,72.666C322.51,72.666 322.951,72.859 323.281,73.245C323.667,73.575 323.86,74.016 323.86,74.567L323.86,77.376C323.86,77.927 323.667,78.395 323.281,78.781C322.951,79.111 322.51,79.276 321.959,79.276L317.498,79.276C315.019,79.276 313.284,79.937 312.292,81.259C311.301,82.526 310.805,84.482 310.805,87.125L310.805,90.844L328.486,90.844L328.486,74.567C328.486,74.016 328.652,73.575 328.982,73.245C329.368,72.859 329.836,72.666 330.387,72.666L334.187,72.666C334.738,72.666 335.179,72.859 335.509,73.245C335.895,73.575 336.088,74.016 336.088,74.567L336.088,131.907C336.088,132.458 335.895,132.926 335.509,133.312C335.179,133.642 334.738,133.808 334.187,133.808L330.387,133.808C329.836,133.808 329.368,133.642 328.982,133.312C328.652,132.926 328.486,132.458 328.486,131.907L328.486,97.453L310.805,97.453L310.805,131.907C310.805,132.458 310.612,132.926 310.227,133.312C309.896,133.642 309.456,133.808 308.905,133.808L305.021,133.808ZM365.965,134.634C359.906,134.634 355.197,132.926 351.837,129.511C348.532,126.096 346.769,121.552 346.549,115.878L346.466,112.326L346.549,108.773C346.769,103.154 348.559,98.638 351.919,95.223C355.279,91.752 359.961,90.017 365.965,90.017C371.969,90.017 376.651,91.752 380.011,95.223C383.371,98.638 385.161,103.154 385.382,108.773C385.437,109.379 385.464,110.563 385.464,112.326C385.464,114.088 385.437,115.272 385.382,115.878C385.161,121.552 383.371,126.096 380.011,129.511C376.706,132.926 372.024,134.634 365.965,134.634ZM365.965,128.272C369.435,128.272 372.162,127.17 374.145,124.967C376.183,122.764 377.285,119.596 377.45,115.465C377.505,114.914 377.532,113.868 377.532,112.326C377.532,110.783 377.505,109.737 377.45,109.186C377.285,105.055 376.183,101.887 374.145,99.684C372.162,97.481 369.435,96.379 365.965,96.379C362.495,96.379 359.741,97.481 357.703,99.684C355.665,101.887 354.591,105.055 354.481,109.186L354.398,112.326L354.481,115.465C354.591,119.596 355.665,122.764 357.703,124.967C359.741,127.17 362.495,128.272 365.965,128.272ZM406.083,133.808C405.367,133.808 404.816,133.642 404.43,133.312C404.045,132.981 403.714,132.458 403.439,131.742L391.706,93.405L391.541,92.579C391.541,92.083 391.706,91.67 392.037,91.339C392.422,91.009 392.835,90.844 393.276,90.844L396.911,90.844C397.462,90.844 397.903,91.009 398.233,91.339C398.619,91.615 398.867,91.918 398.977,92.248L408.148,123.397L417.98,92.579C418.091,92.138 418.338,91.752 418.724,91.422C419.11,91.036 419.633,90.844 420.294,90.844L423.103,90.844C423.764,90.844 424.287,91.036 424.673,91.422C425.059,91.752 425.306,92.138 425.417,92.579L435.249,123.397L444.42,92.248C444.475,91.973 444.668,91.67 444.998,91.339C445.384,91.009 445.852,90.844 446.403,90.844L450.121,90.844C450.562,90.844 450.947,91.009 451.278,91.339C451.608,91.67 451.773,92.083 451.773,92.579L451.608,93.405L439.958,131.742C439.683,132.458 439.352,132.981 438.967,133.312C438.581,133.642 438.003,133.808 437.232,133.808L434.009,133.808C432.522,133.808 431.613,133.119 431.283,131.742L421.698,102.163L412.114,131.742C411.674,133.119 410.737,133.808 409.305,133.808L406.083,133.808Z" style="fill:rgb(81,80,79);fill-rule:nonzero;"/>
        </g>
    </g>
</svg>
