<?xml version="1.0" encoding="UTF-8" standalone="no"?>
<!DOCTYPE svg PUBLIC "-//W3C//DTD SVG 1.1//EN" "http://www.w3.org/Graphics/SVG/1.1/DTD/svg11.dtd">
<svg width="100%" height="100%" viewBox="0 0 120 45" version="1.1" xmlns="http://www.w3.org/2000/svg" xmlns:xlink="http://www.w3.org/1999/xlink" xml:space="preserve" xmlns:serif="http://www.serif.com/" style="fill-rule:evenodd;clip-rule:evenodd;stroke-linejoin:round;stroke-miterlimit:2;">
    <g id="g942" transform="matrix(1.0762,0,0,1.0762,-9.20701,-20.9449)">
        <g id="g877" transform="matrix(0.504111,0,0,0.504111,-40.814,-12.0451)">
            <path id="path20" d="M117.79,137.76L99.27,105.68C98.282,103.968 98.282,101.852 99.27,100.14L117.79,68.06C118.777,66.35 120.606,65.293 122.58,65.29L159.64,65.29C161.607,65.3 163.427,66.357 164.41,68.06L182.93,100.14C183.918,101.852 183.918,103.968 182.93,105.68L164.41,137.76C163.423,139.47 161.594,140.527 159.62,140.53L122.57,140.53C120.6,140.524 118.775,139.466 117.79,137.76Z" style="fill:rgb(67,134,250);fill-rule:nonzero;"/>
            <path id="path22" d="M152.67,92.58C152.67,92.58 157.82,104.93 150.8,111.93C143.78,118.93 131,114.45 131,114.45C131,114.45 150,133.7 157,140.52L159.64,140.52C161.614,140.517 163.443,139.46 164.43,137.75L176.69,116.52L152.67,92.58Z" style="fill-opacity:0.1;fill-rule:nonzero;"/>
            <path id="path24" d="M158.75,117.85L153.06,112.16C152.998,112.097 152.928,112.043 152.85,112C154.943,109.291 156.08,105.963 156.08,102.54C156.08,94.053 149.096,87.07 140.61,87.07C132.123,87.07 125.14,94.053 125.14,102.54C125.14,111.027 132.123,118.01 140.61,118.01C144.072,118.01 147.436,116.848 150.16,114.71C150.2,114.783 150.251,114.851 150.31,114.91L156,120.6C156.167,120.767 156.394,120.861 156.63,120.861C156.866,120.861 157.093,120.767 157.26,120.6L158.75,119.11C158.917,118.943 159.011,118.716 159.011,118.48C159.011,118.244 158.917,118.017 158.75,117.85ZM140.62,114.17C134.234,114.17 128.98,108.916 128.98,102.53C128.98,96.144 134.234,90.89 140.62,90.89C147.006,90.89 152.26,96.144 152.26,102.53C152.26,108.916 147.006,114.17 140.62,114.17Z" style="fill:white;fill-rule:nonzero;"/>
            <path id="path26" d="M133.18,101.91L133.18,106.72C133.921,108.028 134.994,109.118 136.29,109.88L136.29,101.88L133.18,101.91Z" style="fill:white;fill-rule:nonzero;"/>
            <path id="path28" d="M133.18,101.91L133.18,106.72C133.921,108.028 134.994,109.118 136.29,109.88L136.29,101.88L133.18,101.91Z" style="fill:white;fill-rule:nonzero;"/>
            <path id="path30" d="M139,97.92L139,110.92C140.028,111.109 141.082,111.109 142.11,110.92L142.11,97.92L139,97.92Z" style="fill:white;fill-rule:nonzero;"/>
            <path id="path32" d="M139,97.92L139,110.92C140.028,111.109 141.082,111.109 142.11,110.92L142.11,97.92L139,97.92Z" style="fill:white;fill-rule:nonzero;"/>
            <path id="path34" d="M148,106.71L148,103.86L144.89,103.86L144.89,109.86C146.185,109.101 147.258,108.014 148,106.71Z" style="fill:white;fill-rule:nonzero;"/>
            <path id="path36" d="M148,106.71L148,103.86L144.89,103.86L144.89,109.86C146.185,109.101 147.258,108.014 148,106.71Z" style="fill:white;fill-rule:nonzero;"/>
        </g>
        <g id="g913" transform="matrix(0.84199,0,0,0.84199,29.9883,14.8858)">
            <g id="g885">
                <path id="path8" d="M52.396,17.098L43.988,17.098L43.988,19.596L49.966,19.596C49.669,23.104 46.752,24.592 44.002,24.592C43.986,24.592 43.971,24.592 43.956,24.592C40.361,24.592 37.4,21.64 37.388,18.045L37.388,17.932C37.387,17.895 37.387,17.857 37.387,17.82C37.387,14.209 40.358,11.237 43.969,11.237C43.975,11.237 43.982,11.237 43.988,11.237C45.671,11.239 47.289,11.896 48.497,13.068L50.246,11.264C48.548,9.625 46.267,8.725 43.907,8.767C43.835,8.765 43.764,8.764 43.692,8.764C38.651,8.764 34.504,12.912 34.504,17.952C34.504,22.993 38.651,27.141 43.692,27.141C43.807,27.141 43.922,27.139 44.038,27.134C48.947,27.125 52.554,23.757 52.554,18.776C52.565,18.219 52.514,17.662 52.401,17.116L52.396,17.098Z" style="fill:rgb(118,118,119);fill-rule:nonzero;"/>
                <path id="path10" d="M59.317,15.295C59.278,15.294 59.238,15.294 59.199,15.294C56.035,15.294 53.419,17.867 53.366,21.03L53.366,21.156C53.366,21.167 53.366,21.178 53.366,21.19C53.366,24.443 56.043,27.121 59.297,27.121C62.538,27.121 65.209,24.464 65.228,21.224C65.228,17.31 62.157,15.295 59.317,15.295L59.317,15.295ZM59.349,17.621C61.048,17.621 62.658,18.974 62.658,21.228C62.658,23.482 61.053,24.808 59.34,24.808C57.455,24.808 55.967,23.298 55.967,21.201C55.967,19.105 57.432,17.63 59.344,17.63L59.349,17.621Z" style="fill:rgb(118,118,119);fill-rule:nonzero;"/>
                <path id="path12" d="M72.211,15.295C72.178,15.294 72.145,15.294 72.111,15.294C68.948,15.294 66.331,17.867 66.278,21.03L66.278,21.156C66.278,21.166 66.278,21.177 66.278,21.187C66.278,24.441 68.955,27.118 72.209,27.118C75.449,27.118 78.12,24.464 78.14,21.224C78.14,17.315 75.065,15.299 72.216,15.299L72.211,15.295ZM72.247,17.621C73.947,17.621 75.557,18.974 75.557,21.228C75.557,23.482 73.952,24.808 72.238,24.808C70.354,24.808 68.866,23.298 68.866,21.201C68.866,19.105 70.331,17.63 72.243,17.63L72.247,17.621Z" style="fill:rgb(118,118,119);fill-rule:nonzero;"/>
                <path id="path14" d="M84.871,15.295C81.715,15.295 79.204,18.072 79.204,21.197C79.156,24.346 81.67,26.993 84.817,27.107C86.064,27.173 87.269,26.636 88.054,25.665L88.054,26.832C88.054,28.87 86.819,30.096 84.952,30.096C83.614,30.079 82.414,29.245 81.932,27.995L79.677,28.933C80.466,30.624 82.085,32.427 84.97,32.427C88.126,32.427 90.539,30.439 90.539,26.273L90.539,15.656L88.054,15.656L88.054,16.648C87.239,15.758 86.077,15.264 84.871,15.295ZM85.101,17.599C86.657,17.599 88.257,18.929 88.257,21.206C88.257,23.482 86.661,24.763 85.065,24.763C83.374,24.763 81.801,23.41 81.801,21.21C81.801,18.956 83.438,17.603 85.106,17.603L85.101,17.599Z" style="fill:rgb(118,118,119);fill-rule:nonzero;"/>
                <path id="path16" d="M101.539,15.295C98.546,15.295 96.03,17.675 96.03,21.192C96.027,21.26 96.026,21.328 96.026,21.396C96.026,24.529 98.605,27.108 101.739,27.108C101.767,27.108 101.795,27.108 101.823,27.107C103.802,27.116 105.661,26.144 106.783,24.515L104.74,23.162C104.141,24.18 103.04,24.8 101.859,24.785C100.619,24.835 99.468,24.117 98.965,22.982L106.882,19.7L106.472,18.739C105.693,16.695 103.736,15.325 101.548,15.295L101.539,15.295ZM101.643,17.549C102.553,17.512 103.407,18.005 103.83,18.812L98.541,21.03C98.311,19.317 99.934,17.558 101.643,17.558L101.643,17.549Z" style="fill:rgb(118,118,119);fill-rule:nonzero;"/>
                <rect id="path18" x="92.256" y="9.357" width="2.601" height="17.398" style="fill:rgb(118,118,119);fill-rule:nonzero;"/>
            </g>
            <g id="g895" transform="matrix(1,0,0,1,0,-2)">
                <path id="path38" d="M35.025,48.793L35.025,37.387L39.155,37.387C40.018,37.374 40.853,37.697 41.481,38.288C42.119,38.846 42.476,39.66 42.455,40.507C42.51,41.548 41.883,42.511 40.909,42.883L40.909,42.946C41.47,43.121 41.961,43.47 42.311,43.942C42.66,44.409 42.846,44.978 42.838,45.561C42.861,46.447 42.491,47.299 41.828,47.887C41.165,48.495 40.289,48.819 39.389,48.789L35.03,48.789L35.025,48.793ZM36.49,38.784L36.49,42.274L39.15,42.274C39.64,42.286 40.114,42.095 40.458,41.746C41.13,41.105 41.156,40.026 40.516,39.352L40.471,39.307C40.145,38.962 39.688,38.771 39.213,38.78L36.508,38.78L36.49,38.784ZM36.49,43.649L36.49,47.391L39.439,47.391C40.469,47.401 41.325,46.563 41.337,45.534C41.338,45.04 41.135,44.567 40.778,44.226C40.408,43.855 39.9,43.652 39.376,43.667L36.486,43.667L36.49,43.649Z" style="fill:rgb(118,118,119);fill-rule:nonzero;"/>
                <path id="path40" d="M46.139,38.288C46.136,38.853 45.671,39.316 45.106,39.316C44.54,39.316 44.074,38.85 44.074,38.283C44.074,37.717 44.54,37.251 45.106,37.251C45.38,37.251 45.643,37.36 45.837,37.554C46.034,37.746 46.144,38.012 46.139,38.288ZM45.837,40.994L45.837,48.802L44.371,48.802L44.371,40.994L45.837,40.994Z" style="fill:rgb(118,118,119);fill-rule:nonzero;"/>
                <path id="path42" d="M51.13,52.49C50.715,52.493 50.302,52.437 49.903,52.323C49.535,52.224 49.182,52.072 48.857,51.873C48.549,51.673 48.274,51.425 48.046,51.138C47.825,50.869 47.653,50.564 47.536,50.236L48.925,49.659C49.076,50.105 49.367,50.491 49.754,50.759C50.151,51.035 50.624,51.18 51.107,51.174C51.803,51.214 52.484,50.953 52.973,50.457C53.445,49.911 53.686,49.202 53.645,48.482L53.645,47.711L53.582,47.711C53.3,48.13 52.913,48.468 52.46,48.69C51.983,48.93 51.456,49.054 50.922,49.05C49.913,49.056 48.95,48.619 48.289,47.856C47.568,47.042 47.18,45.985 47.203,44.898C47.175,43.814 47.562,42.759 48.285,41.949C48.94,41.177 49.905,40.733 50.918,40.737C51.451,40.733 51.979,40.857 52.455,41.097C52.908,41.319 53.296,41.657 53.578,42.076L53.641,42.076L53.641,40.994L55.043,40.994L55.043,48.469C55.104,49.556 54.718,50.622 53.974,51.417C53.211,52.145 52.184,52.533 51.13,52.49ZM51.179,47.707C51.855,47.725 52.504,47.438 52.946,46.927C53.896,45.746 53.896,44.05 52.946,42.869C52.508,42.351 51.858,42.057 51.179,42.071C50.501,42.062 49.853,42.354 49.412,42.869C48.922,43.43 48.665,44.158 48.695,44.902C48.664,45.644 48.921,46.37 49.412,46.927C49.854,47.44 50.502,47.731 51.179,47.72L51.179,47.707Z" style="fill:rgb(118,118,119);fill-rule:nonzero;"/>
                <path id="path44" d="M70.273,48.811L69.119,49.56L68.334,48.397C67.483,48.822 66.545,49.046 65.593,49.05C64.022,49.084 62.506,48.457 61.418,47.324C59.177,44.96 59.177,41.207 61.418,38.843C62.525,37.735 64.029,37.112 65.595,37.112C67.161,37.112 68.665,37.735 69.772,38.843C70.891,39.959 71.503,41.488 71.463,43.067C71.468,43.927 71.292,44.779 70.944,45.565C70.608,46.34 70.11,47.035 69.484,47.603L70.273,48.811ZM65.602,47.648C66.268,47.648 66.926,47.494 67.522,47.197L66.17,45.186L67.324,44.406L68.645,46.399C69.529,45.529 70.004,44.325 69.953,43.085C69.997,41.872 69.542,40.691 68.695,39.821C67.889,38.972 66.759,38.503 65.588,38.532C64.413,38.504 63.278,38.972 62.464,39.821C60.816,41.673 60.816,44.498 62.464,46.35C63.279,47.206 64.42,47.678 65.602,47.648Z" style="fill:rgb(118,118,119);fill-rule:nonzero;"/>
                <path id="path46" d="M79.804,48.793L78.402,48.793L78.402,47.711L78.338,47.711C78.09,48.119 77.735,48.452 77.31,48.672C76.87,48.921 76.374,49.053 75.868,49.055C75.049,49.108 74.245,48.809 73.659,48.234C73.108,47.586 72.833,46.747 72.892,45.899L72.892,40.994L74.357,40.994L74.357,45.804C74.39,47.085 75.031,47.725 76.278,47.725C76.849,47.728 77.39,47.464 77.739,47.012C78.134,46.536 78.344,45.932 78.329,45.313L78.329,40.994L79.795,40.994L79.795,48.793L79.804,48.793Z" style="fill:rgb(118,118,119);fill-rule:nonzero;"/>
                <path id="path48" d="M85.016,49.05C83.945,49.081 82.912,48.651 82.18,47.869C81.429,47.062 81.028,45.99 81.066,44.889C81.033,43.795 81.424,42.73 82.157,41.918C82.892,41.159 83.903,40.731 84.959,40.731C85.984,40.731 86.969,41.135 87.698,41.855C88.436,42.734 88.805,43.866 88.726,45.011L88.726,45.168L82.563,45.168C82.555,45.863 82.832,46.532 83.329,47.017C83.791,47.468 84.411,47.72 85.056,47.72C86.005,47.72 86.873,47.174 87.283,46.318L88.591,46.954C88.258,47.594 87.754,48.13 87.135,48.5C86.492,48.874 85.759,49.065 85.016,49.05ZM82.671,43.951L87.148,43.951C87.118,43.43 86.879,42.942 86.485,42.599C86.038,42.227 85.466,42.037 84.885,42.067C84.364,42.056 83.856,42.238 83.46,42.576C83.052,42.933 82.775,43.415 82.671,43.947L82.671,43.951Z" style="fill:rgb(118,118,119);fill-rule:nonzero;"/>
                <path id="path50" d="M91.521,48.793L90.056,48.793L90.056,40.994L91.458,40.994L91.458,42.269L91.521,42.269C91.694,41.825 92.012,41.451 92.423,41.21C92.822,40.934 93.291,40.777 93.776,40.759C94.146,40.75 94.514,40.816 94.858,40.953L94.407,42.373C94.129,42.284 93.837,42.246 93.546,42.26C92.99,42.262 92.462,42.508 92.103,42.932C91.706,43.354 91.486,43.913 91.49,44.492L91.49,48.798L91.521,48.793Z" style="fill:rgb(118,118,119);fill-rule:nonzero;"/>
                <path id="path52" d="M102.982,40.994L98.099,52.265L96.584,52.265L98.388,48.329L95.178,40.994L96.774,40.994L99.1,46.607L99.132,46.607L101.386,40.994L102.982,40.994Z" style="fill:rgb(118,118,119);fill-rule:nonzero;"/>
            </g>
        </g>
    </g>
</svg>
