<?xml version="1.0" encoding="UTF-8" standalone="no"?>
<!DOCTYPE svg PUBLIC "-//W3C//DTD SVG 1.1//EN" "http://www.w3.org/Graphics/SVG/1.1/DTD/svg11.dtd">
<svg width="100%" height="100%" viewBox="0 0 100 90" version="1.1" xmlns="http://www.w3.org/2000/svg" xmlns:xlink="http://www.w3.org/1999/xlink" xml:space="preserve" xmlns:serif="http://www.serif.com/" style="fill-rule:evenodd;clip-rule:evenodd;">
    <g transform="matrix(1,0,0,1,-450.533,-338.2)">
        <g transform="matrix(0.0983689,0,0,0.0983689,451.249,345.851)">
            <path d="M597.33,637.79L597.33,830.64L644.676,830.64L644.676,742.008L654.443,742.191L654.443,830.641L702.324,830.641L702.324,637.791L654.443,637.791L654.443,709.343L644.676,709.343L644.676,637.791L597.33,637.79Z" style="stroke:rgb(253,238,33);stroke-width:5.13px;"/>
        </g>
        <g transform="matrix(0.0983689,0,0,0.0983689,451.249,345.851)">
            <rect x="715.134" y="637.79" width="46.116" height="192.85" style="stroke:rgb(253,238,33);stroke-width:5.13px;"/>
        </g>
        <g transform="matrix(0.0983689,0,0,0.0983689,451.249,345.851)">
            <path d="M768.8,637.79L805.229,830.64L860.213,830.64L896.642,637.79L847.691,637.79L835.624,720.307C834.618,723.468 831.222,723.468 830.615,720.307L818.555,637.787L768.8,637.79Z" style="stroke:rgb(253,238,33);stroke-width:5.13px;"/>
        </g>
        <g transform="matrix(0.0983689,0,0,0.0983689,451.249,345.851)">
            <path d="M997.97,637.79L906.432,637.79L906.432,830.64L997.97,830.64L997.97,780.071L947.072,779.637L947.072,757.958L971.32,757.958L971.32,707.754L947.072,707.754L947.072,688.357L997.97,688.357L997.97,637.79Z" style="stroke:rgb(253,238,33);stroke-width:5.13px;"/>
        </g>
    </g>
    <g transform="matrix(0.0983689,0,0,0.0983689,0.716766,7.65113)">
        <path d="M503.66,52.952C495.95,31.837 230.74,-71.268 227.35,-59.948C178.65,-47.253 158.83,8.878 125.33,44.432L50.937,40.171C18.166,82.313 0.97,125.37 12.679,170.121C54.681,227.027 103.439,275.451 133.829,346.931C136.231,380.623 279.649,350.464 310.389,343.795C268.397,373.854 231.828,420.446 247.543,554.635C261.889,617.649 271.702,688.005 398.943,759.275C415.693,768.656 450.35,779.482 471.781,787.373C492.276,796.774 516.242,800.637 583.851,779.96C622.975,763.097 665.216,752.938 703.501,736.116L657.484,738.276C594.115,739.654 545.194,744.381 530.104,726.676L471.784,625.996L505.784,559.956C552.84,564.782 568.459,602.942 609.934,617.474L658.819,581.259C800.809,665.075 857.299,528.139 873.489,421.489C871.761,378.097 779.537,435.1 785.127,414.81C787.293,368.166 749.273,307.14 724.707,259.59L753.137,149.58C766.037,138.09 693.417,15.72 634.117,0.46C582.087,-12.931 503.657,52.952 503.657,52.952L503.66,52.952Z" style="fill:rgb(253,238,33);"/>
    </g>
    <g transform="matrix(1,0,0,1,-450,-405)">
        <g transform="matrix(0.0983689,0,0,0.0983689,450.717,412.651)">
            <path d="M736.92,286.75C737.429,298.566 737.372,312.937 738.514,321.9C738.317,328.738 733.191,328.989 728.95,330.421L756.581,340.54C762.066,349.772 766.475,359.003 770.928,368.234C776.093,390.942 772.238,391.591 768.802,393.265C758.775,393.367 748.777,393.386 739.444,391.401C743.625,393.608 744.545,395.216 744.987,398.043C745.803,403.255 742.447,410.372 736.92,417.231C745.092,421.765 759.991,426.201 771.06,430.412L783.68,402.319C777.965,361.048 760.635,323.01 736.92,286.749L736.92,286.75Z" style="fill:rgb(200,192,55);"/>
            <path d="M788.49,425.18C803.814,431.567 824.985,429.695 854.338,414.567C858.703,411.463 862.769,413.319 854.957,418.425C816.458,452.972 798.03,435.69 788.49,425.18L788.49,425.18Z" style="fill:rgb(200,192,55);"/>
            <path d="M857.28,410.04C861.832,418.757 859.074,425.845 857.546,433.207C852.792,470.656 841.123,500.263 818.225,531.201C743.747,650.941 668.555,576.018 608.605,527.256L583.807,589.392C582.49,594.839 577.016,599.08 615.744,616.131L655.196,588.264C805.656,702.744 912.276,428.024 857.276,410.044L857.28,410.04Z" style="fill:rgb(200,192,55);"/>
            <path d="M626.75,517.04C616.599,517.764 586.389,528.037 585.044,533.986L598.946,513.274L626.75,517.04Z" style="fill:rgb(200,192,55);"/>
            <path d="M607.01,390.07C608.87,390.07 617.798,392.467 616.84,391.934C615.47,391.171 616.687,404.453 619.497,411.373L608.604,435.073C629.469,411.01 662.462,412.611 693.09,409.509L678.478,400.455C681.016,391.989 678.027,385.29 676.618,378.087L607.01,390.07Z" style="fill:rgb(200,192,55);"/>
            <path d="M658.28,318.71C635.893,325.573 614.464,336.785 600.077,360.686C611.053,321.291 613.29,322.787 616.834,320.84C632.185,313.975 644.756,318.254 658.28,318.71L658.28,318.71Z" style="fill:rgb(200,192,55);"/>
        </g>
        <g transform="matrix(0.0983689,0,0,0.0983689,450.717,412.651)">
            <path d="M538.73,780.45C511.66,810.32 451.26,778.19 401.1,761.81C273.64,680.76 248.74,604.46 247.01,529.61C240.457,422.39 273.38,360.09 315.024,345.34C287.463,398.469 274.614,493.84 287.393,564.76C297.708,604.215 297.922,670.76 363.938,706.38C396.265,724.579 387.509,738.748 409.369,755.793C433.324,774.472 500.116,792.23 538.729,780.451L538.73,780.45Z" style="fill:rgb(252,246,160);"/>
            <path d="M579.17,284.94C533.339,219.949 468.88,195.553 396.19,192.887C410.758,188.138 425.326,185.665 439.894,178.641C443.461,174.893 442.295,168.297 440.957,161.599C370.987,143.329 326.827,120.749 270.927,99.818L421.837,136.033C523.747,139.905 514.995,165.065 579.177,284.943L579.17,284.94Z" style="fill:rgb(252,246,160);"/>
            <path d="M628.24,253.6C594.37,205.25 561.52,146.57 516.93,109.25C409.29,60.666 302.81,24.584 178.02,-8.25L217.847,-59.466C350.267,-29.239 474.647,21.342 586.057,104.724C604.906,152.384 617.476,200.107 628.23,253.594L628.24,253.6Z" style="fill:rgb(252,246,160);"/>
            <path d="M696.52,168.16C696.52,168.16 677.532,125.561 668.287,109.294C646.841,85.528 635.997,41.24 592.074,20.372C605.966,24.124 615.473,19.654 643.833,45.364L688.502,130.098L696.52,168.16Z" style="fill:rgb(252,246,160);"/>
            <path d="M720.14,241.96C724.519,205.052 732.835,145.85 723.292,122.46C696.742,86.836 670.002,50.014 643.252,15.83C638.822,11.707 635.632,6.111 632.142,1.746C669.752,11.49 709.002,37.64 761.932,140.876L720.14,241.96Z" style="fill:rgb(252,246,160);"/>
        </g>
        <g transform="matrix(0.0983689,0,0,0.0983689,450.717,412.651)">
            <path d="M562.02,246.32C547.04,234.53 533.69,192.83 510.99,184.16C489.979,182.402 482.275,175.792 454.646,181.421C464.667,176.4 474.128,169.975 484.78,166.536C491.995,164.833 498.763,166.72 505.647,167.67C507.347,166.866 508.461,165.867 508.045,164.357C480.233,147.17 423.179,146.925 384.665,137.114C429.364,138.61 478.821,136.132 512.415,146.905C539.428,170.878 548.203,216.024 562.02,246.32L562.02,246.32Z"/>
            <path d="M643.93,45.227C650.131,45.79 683.504,98.58 685.072,107.364C687.847,126.566 694.692,148.092 696.532,168.183C691.035,148.914 685.046,129.646 677.558,110.377C675.368,105.071 669.834,93.075 654.451,76.108C647.288,64.149 645.742,54.749 643.931,45.228L643.93,45.227Z"/>
            <path d="M757.02,332.75L742.742,332.75L758.523,336.892L757.02,332.75Z"/>
            <path d="M659.6,318.49C645.242,316.725 630.509,316.491 616.152,319.647C610.3,327.507 609.897,335.503 607.339,342.892C624.793,323.656 631.719,322.48 659.6,318.491L659.6,318.49Z"/>
            <path d="M855.42,417.77C847.43,424.147 846.632,430.149 823.007,437.342C805.779,441.416 796.046,434.511 787.937,425.226C800.231,428.748 802.196,438.036 835.162,427.623L855.42,417.77Z"/>
            <path d="M783.82,421.76C778.07,437.572 771.871,453.551 765.621,468.36C750.738,485.814 757.081,475.868 734.802,502.977C741.931,491.979 751.202,481.411 756.056,469.957C759.465,462.415 763.709,454.414 765.588,447.713C759.681,444.763 747.589,444.53 745.949,445.588C726.141,457.271 722.567,469.635 710.89,481.674C719.354,468.144 726.583,453.376 736.395,441.198C737.513,439.618 744.778,439.312 749.244,438.379C742.304,437.189 729.458,434.695 728.424,434.807C715.502,437.913 708.261,449.168 698.668,456.643C705.662,446.545 712.104,436.031 720.985,427.351C721.864,426.331 745.868,428.434 758.309,433.398L758.556,438.347L765.619,441.198L770.933,427.884L783.82,421.76Z"/>
            <path d="M627.07,517.09C623.882,516.001 595.72,512.379 595.72,513.229C584.907,520.925 583.267,528.288 583.499,534.665C601.488,516.968 600.818,516.918 627.071,517.09L627.07,517.09Z"/>
            <path d="M605.68,389.81C605.68,389.81 626.002,386.847 625.606,388.745C624.134,395.795 628.094,412.978 628.529,410.581L617.105,419.901C641.031,407.872 666.218,410.289 691.761,408.451C691.761,408.451 670.254,402.513 671.569,402.326C676.366,401.646 670.291,379.896 668.646,379.425C672.738,378.041 676.733,376.997 680.867,375.964C650.111,367.915 632.326,372.658 605.679,389.811L605.68,389.81Z"/>
            <path d="M781.56,404.98L777.043,407.243C776.403,394.012 762.192,394.983 750.209,394.861L740.379,392.465C743.368,395.231 752.608,395.014 748.881,400.986C745.744,402.663 744.301,409.856 742.505,415.898L737.191,416.164C746.578,419.833 755.286,423.048 765.619,427.348L771.73,428.28L786.342,420.425L781.56,404.98Z"/>
        </g>
        <g transform="matrix(0.0983689,0,0,0.0983689,450.717,412.651)">
            <path d="M646.86,396.06C644.573,391.535 633.066,392.178 630.585,395.105C628.569,397.484 630.46,412.747 633.045,410.173C636.781,406.888 641.662,405.514 647.525,405.779C648.264,402.959 648.002,399.915 646.86,396.06L646.86,396.06Z" style="fill:white;"/>
            <path d="M757.21,418.8C758.292,418.009 760.579,410.357 759.84,408.067C758.328,402.664 747.628,403.801 747.628,403.801C745.017,405.337 742.729,413.761 743.683,416.54C744.139,418.893 755.492,419.643 757.209,418.8L757.21,418.8Z" style="fill:white;"/>
        </g>
        <g transform="matrix(0.0983689,0,0,0.0983689,450.717,412.651)">
            <path d="M299.64,682.84L306.4,683.501C346.471,703.176 412.45,732.348 507.97,716.672L522.958,740.256C480.891,760.698 435.646,755.994 393.248,757.428L299.64,682.84Z"/>
            <path d="M242.11,527.3L262.183,611.568C315.923,645.161 407.723,683.638 484.243,680.533L467.333,641.733C307.603,607.813 294.093,564.933 242.113,527.293L242.11,527.3Z"/>
            <path d="M292.06,354.69C301.871,419.992 314.967,469.5 371.75,510.97C406.554,536 441.101,560.924 483.12,581.494C483.12,581.494 479.436,600.665 476.357,600.323C351.307,586.433 259.757,482.743 248.667,435.383C259.408,399.054 274.816,376.362 292.056,354.69L292.06,354.69Z"/>
            <path d="M352.17,317.69C368.834,390.066 408.567,463.37 448.059,529.87C462.536,548.239 466.325,556.345 488.638,567.529C518.797,577.078 540.124,574.641 562.015,573.205C556.017,562.103 550.686,550.499 543.798,540.065C494.78,501.3 517.434,466.005 530.454,443.659C503.198,436.772 467.084,422.134 462.109,402.881C454.11,340.61 458.172,320.856 466.177,288.871C429.268,296.653 391.868,304.365 352.167,317.691L352.17,317.69Z"/>
            <path d="M216.77,-66.742C204.639,-58.817 192.952,-47.486 180.379,-34.607C159.536,-13.032 145.68,8.014 124.464,23.617C120.221,27.276 108.313,33.168 93.343,34.042C86.291,34.394 81.697,35.561 68.739,33.934C57.311,27.746 46.454,31.77 35.858,44.444C24.239,61.153 9.524,92.881 3.405,112.854C-9.206,163.791 22.946,205.759 53.779,238.104C81.208,264.9 97.022,281.646 108.284,306.211C116.811,322.144 123.128,344.01 129.967,359.341C132.433,364.202 131.92,364.176 138.558,365.641C152.891,368.7 172.773,368.724 190.473,370.245C198.132,370.352 208.648,370.067 218.613,369.028C232.344,366.436 248.476,363.895 261.997,359.219C275.21,355.965 286.982,351.459 297.594,347.312C296.226,351.956 286.116,356.427 282.326,362.314C246.356,413.804 236.503,459.622 242.765,531.914C246.308,563.956 253.661,590.519 264.757,620.911C269.835,634.819 280.639,656.845 290.993,671.476C321.783,714.982 390.665,770.85 486.553,792.356C503.282,794.642 522.268,793.423 540.124,788.667C587.45,774.321 683.904,740.392 683.904,740.392C683.904,740.392 598.285,747.475 559.074,743.598C549.997,742.179 539.993,741.697 533.669,735.511C532.609,734.141 528.755,726.379 531.244,726.309C534.639,726.214 544.386,722.169 559.435,720.827C527.306,717.368 527.764,717.409 525.419,711.557C521.771,702.472 516.189,690.055 510.442,679.19C524.56,680.381 555.818,682.135 566.426,671.187C566.426,671.187 547.929,673.323 531.583,671.406C526.075,670.76 516.692,667.411 513.873,666.376C506.534,663.518 500.493,662.63 499.085,660.767C496.536,654.281 494.809,652.1 491.734,643.411C487.568,631.907 487.238,619.074 486.444,607.328C497.137,620.508 510.762,631.603 528.8,637.269C529.032,636.781 552.2,647.341 569.026,641.911L572.515,640.785C572.515,641.097 561.367,641.762 557.278,639.738C523.059,625.193 517.908,612.462 512.383,606.139L497.606,584.006C502.1,575.045 504.641,574.705 510.595,574.622C528.606,576.622 536.443,578.162 547.402,575.518C554.807,590.758 556.808,606.089 573.667,617.18C629.833,633.852 642.036,612.229 655.64,593.123C696.052,622.781 761.84,631.926 807.53,593.637C865.616,526.425 884.006,420.467 878.855,414.417C871.601,402.11 862.083,389.418 853.91,391.172C824.78,399.124 814.039,413.902 785.175,410.531C788.613,410.337 794.394,410.244 794.438,409.916C796.662,385.475 794.259,373.649 793.186,371.619C784.427,352.302 772.925,331.973 764.908,316.738C762.841,313.578 756.771,289.573 746.6,280.09C742.238,276.366 731.561,266.544 731.561,266.544L730.656,276.983C730.656,276.983 734.83,277.614 736.419,284.081C742.441,308.598 773.106,366.566 775.357,369.344C786.225,386.889 776.461,408.745 784.724,421.007C785.518,422.564 801.581,420.87 814.031,421.635C834.504,417.232 833.64,408.209 851.325,406.853C863.238,405.94 864.433,428.313 864.276,430.049C862.056,454.753 854.541,483.476 843.04,509.707C819.128,555.776 792.349,597.153 754.37,602.923C708.044,611.018 683.971,590.765 658.858,577.868L649.251,586.062C616.614,618.563 577.862,615.676 562.012,573.211C554.122,556.738 543.84,546.642 535.036,532.511L488.348,566.138C484.462,574.108 479.683,586.678 473.878,600.718C469.842,610.479 466.458,627.243 466.679,641.174C460.694,651.369 487.408,692.716 504.288,717.866C509.269,725.287 518.567,738.251 518.878,739.059C522.225,747.742 529.557,755.408 530.002,756.343C561.339,797.215 490.471,787.803 475.835,785.334C446.959,780.733 418.714,768.671 392.165,752.542C390.624,751.606 389.089,750.656 387.56,749.694C356.009,729.828 326.979,704.411 302.296,679.271C287.578,662.605 273.564,628.444 263.213,604.226C247.7,546 225.437,445.076 285.745,368.596C289.568,364.224 293.693,356.946 297.205,355.506C315.123,343.387 334.58,335.127 355.503,330.54L353.391,316.977C342.942,319.351 307.758,332.22 297.81,337.606C275.187,344.164 256.422,351.012 227.59,358.231C218.217,359.377 208.998,359.398 200.011,358.177C179.27,355.359 143.917,357.876 141.662,355.781C127.618,336.196 123.773,301.105 110.959,282.325L110.807,282.138L110.645,281.96C103.175,271.92 94.468,263.73 85.893,255.21C55.185,224.7 28.902,195.2 21.545,163.94C19.695,154.71 14.931,145.15 17.463,117.84L17.51,117.706L17.554,117.573C24.942,92.06 36.961,71.263 57.36,50.42C78.588,50.762 99.6,51.229 115.967,54.355C123.476,55.611 139.091,57.651 155.219,63.659C196.041,78.866 249.979,103.868 249.979,103.868C209.491,81.632 164.218,52.753 135.629,46.925C131.376,46.323 128.761,44.382 127.498,40.995C170.497,15.731 178.363,-14.014 206.645,-40.691C219.57,-46.317 224.61,-49.189 235.592,-50.383C337.162,-34.323 401.102,6.132 451.682,33.183C472.211,44.347 490.873,52.789 508.697,62.956C524.321,68.095 571.468,103.69 585.266,122.881C599.283,152.476 609.517,184.444 618.851,215.292C625.544,246.667 631.415,259.394 631.415,259.394C631.415,259.394 625.727,233.151 626.675,228.436C632.573,230.64 646.516,234.994 652.296,234.317C652.296,234.317 626.478,220.971 623.095,209.176C612.239,171.329 601.351,112.411 598.415,109.339C590.141,98.928 555.638,72.523 534.474,60.309C526.468,55.689 522.141,52.823 521.803,50.791C528.564,43.961 536.914,34.926 544.401,29.185C551.578,23.682 558.112,17.476 568.114,13.762C612.077,-6.038 637.215,21.38 643.18,15.828C643.18,15.828 633.722,4.987 637.923,6.772C642.225,9.102 656.246,11.85 657.785,13.281C673.808,25.815 715.698,71.625 740.946,119.961C747.01,131.801 749.475,139.597 746.662,153.854C743.842,168.124 741.661,175.971 738.585,185.501C735.806,191.872 720.087,235.489 720.148,241.349C716.981,265.281 730.412,295.242 730.412,295.242C730.539,287.109 729.911,282.776 730.648,276.96L731.552,266.567C731.552,266.567 730.979,263.803 731.083,262.707C731.765,255.52 733.528,249.478 734.046,245.362C739.093,214.107 747.868,191.607 757.821,164.18C760.779,157.258 764.649,153.409 764.451,148.139C764.614,138.787 756.246,126.235 750.199,113.976C744.099,101.586 736.809,87.774 727.239,73.216C705.419,41.84 686.819,17.291 652.759,1.927C643.229,-2.255 605.729,-6.344 592.779,-3.914C577.069,-0.641 563.559,2.586 552.789,9.484C535.839,20.338 522.519,37.143 506.899,47.045C472.339,29.763 455.659,16.829 452.549,15.046C432.009,4.04 407.349,-8.732 380.819,-20.844C368.099,-32.706 289.109,-61.077 216.779,-66.736L216.77,-66.742ZM658.85,577.848C637.55,561.198 619.62,544.058 607.8,526.408C603.942,547.166 589.936,561.95 579.112,576.491C576.957,579.901 575.404,584.551 586.014,599.37C588.874,603.318 599.221,603.993 606.206,603.631C599.1,598.259 588.288,592.578 586.546,587.654C599.047,596.165 610.622,598.611 621.084,597.24C623.475,596.971 626.444,594.436 628.74,590.534C633.403,580.514 637.055,578.101 640.745,575.404L649.246,586.055L658.85,577.848Z" style="stroke:black;stroke-width:0.11px;"/>
        </g>
    </g>
</svg>
