<?xml version="1.0" encoding="UTF-8" standalone="no"?>
<!DOCTYPE svg PUBLIC "-//W3C//DTD SVG 1.1//EN" "http://www.w3.org/Graphics/SVG/1.1/DTD/svg11.dtd">
<svg width="100%" height="100%" viewBox="0 0 120 60" version="1.1" xmlns="http://www.w3.org/2000/svg" xmlns:xlink="http://www.w3.org/1999/xlink" xml:space="preserve" xmlns:serif="http://www.serif.com/" style="fill-rule:evenodd;clip-rule:evenodd;stroke-linejoin:round;stroke-miterlimit:2;">
    <g transform="matrix(1.14583,0,0,1.14583,-8.8154,-4.3756)">
        <g id="path3139" transform="matrix(1.05814,0,0,1.05814,-3.26842,-1.2977)">
            <path d="M20.689,11.348C20.196,10.844 19.511,10.533 18.748,10.533C17.987,10.533 17.308,10.844 16.821,11.348L16.808,11.348C16.317,11.848 16.012,12.546 16.012,13.318C16.012,14.094 16.317,14.788 16.808,15.283L16.821,15.297C17.308,15.797 17.987,16.103 18.748,16.103C19.511,16.103 20.196,15.797 20.689,15.297L20.694,15.283C21.188,14.788 21.489,14.094 21.489,13.318C21.489,12.546 21.188,11.848 20.694,11.348L20.689,11.348ZM18.748,49.468C19.511,49.468 20.196,49.151 20.689,48.657L20.694,48.642C21.188,48.148 21.489,47.45 21.489,46.683C21.489,45.907 21.188,45.211 20.694,44.709L20.689,44.709C20.196,44.2 19.511,43.892 18.748,43.892C17.987,43.892 17.308,44.2 16.821,44.709L16.808,44.709C16.317,45.211 16.012,45.907 16.012,46.683C16.012,47.45 16.317,48.148 16.808,48.642L16.821,48.657C17.308,49.151 17.987,49.468 18.748,49.468ZM33.658,41.03C34.335,40.849 34.949,40.406 35.324,39.737L35.374,39.639C35.707,39.005 35.769,38.272 35.59,37.622C35.411,36.927 34.971,36.311 34.314,35.927L34.276,35.901C33.636,35.543 32.908,35.465 32.239,35.651C31.558,35.824 30.946,36.285 30.574,36.949C30.196,37.609 30.118,38.367 30.298,39.065C30.485,39.752 30.921,40.372 31.574,40.76L31.578,40.76C32.231,41.142 32.971,41.211 33.658,41.03L33.658,41.03ZM21.555,27.147C20.837,26.418 19.845,25.961 18.748,25.961C17.652,25.961 16.664,26.418 15.947,27.147C15.232,27.875 14.792,28.879 14.792,29.996C14.792,31.112 15.232,32.121 15.947,32.858C16.664,33.582 17.652,34.035 18.748,34.035C19.845,34.035 20.837,33.582 21.555,32.858C22.271,32.121 22.712,31.112 22.712,29.996C22.712,28.879 22.271,27.875 21.555,27.147ZM19.977,22.401C21.569,22.668 22.999,23.444 24.092,24.565L24.101,24.565C24.275,24.741 24.444,24.935 24.601,25.129L27.333,23.521C26.966,22.392 26.949,21.211 27.244,20.103C27.634,18.62 28.579,17.292 29.995,16.461L30.041,16.431C31.442,15.624 33.035,15.456 34.472,15.852C35.928,16.249 37.241,17.215 38.058,18.654L38.058,18.659C38.872,20.09 39.037,21.733 38.649,23.211C38.262,24.694 37.313,26.03 35.898,26.858L35.525,27.082L35.487,27.082C34.178,27.716 32.739,27.815 31.418,27.461C30.332,27.168 29.337,26.551 28.557,25.677L25.829,27.28C26.143,28.125 26.316,29.034 26.316,29.996C26.316,30.952 26.143,31.875 25.829,32.724L28.557,34.323C29.337,33.435 30.332,32.832 31.418,32.539C32.874,32.134 34.488,32.306 35.898,33.143L35.989,33.185L35.989,33.19C37.351,34.031 38.266,35.328 38.649,36.793C39.037,38.263 38.872,39.906 38.058,41.341L38.009,41.441L38.004,41.432C37.186,42.815 35.898,43.752 34.476,44.148C33.018,44.539 31.404,44.372 29.995,43.547L29.995,43.536C28.579,42.703 27.634,41.372 27.244,39.892C26.949,38.789 26.966,37.609 27.333,36.479L24.601,34.875C24.444,35.069 24.275,35.255 24.101,35.431L24.092,35.44C22.999,36.556 21.569,37.332 19.977,37.591L19.977,40.803C21.112,41.045 22.127,41.622 22.924,42.432L22.928,42.441C23.995,43.522 24.656,45.027 24.656,46.683C24.656,48.333 23.995,49.83 22.928,50.916L22.924,50.933C21.849,52.019 20.375,52.691 18.748,52.691C17.13,52.691 15.652,52.019 14.58,50.933L14.575,50.933L14.575,50.916C13.507,49.83 12.845,48.333 12.845,46.683C12.845,45.027 13.507,43.522 14.575,42.441L14.575,42.432L14.58,42.432C15.375,41.622 16.393,41.045 17.524,40.803L17.524,37.591C15.932,37.332 14.504,36.556 13.412,35.44L13.401,35.431C12.038,34.039 11.184,32.121 11.184,29.996C11.184,27.875 12.038,25.957 13.401,24.565L13.412,24.565C14.504,23.444 15.932,22.668 17.524,22.401L17.524,19.202C16.393,18.952 15.375,18.375 14.58,17.569L14.575,17.569L14.575,17.56C13.507,16.469 12.845,14.974 12.845,13.318C12.845,11.671 13.507,10.163 14.575,9.076L14.58,9.072C15.652,7.982 17.13,7.31 18.748,7.31C20.375,7.31 21.849,7.982 22.924,9.072L22.924,9.076L22.928,9.076C23.995,10.163 24.656,11.671 24.656,13.318C24.656,14.974 23.995,16.469 22.928,17.56L22.924,17.569C22.127,18.375 21.112,18.952 19.977,19.202L19.977,22.401ZM35.324,20.267L35.301,20.232C34.924,19.586 34.323,19.155 33.658,18.969C32.971,18.784 32.231,18.861 31.574,19.245L31.578,19.245C30.921,19.625 30.482,20.245 30.298,20.939C30.118,21.629 30.196,22.392 30.574,23.056L30.586,23.073C30.965,23.728 31.566,24.168 32.239,24.345C32.913,24.539 33.666,24.457 34.314,24.073L34.349,24.056C34.988,23.668 35.413,23.056 35.59,22.383C35.771,21.689 35.699,20.931 35.324,20.267" style="fill:rgb(35,31,32);fill-rule:nonzero;"/>
        </g>
        <g id="path3141" transform="matrix(1.05814,0,0,1.05814,-3.26842,-1.2977)">
            <path d="M47.447,21.207L50.496,21.207L50.496,30.677L54.892,25.728L58.548,25.728L53.24,31.461L58.57,38.729L55.079,38.729L50.496,32.237L50.496,38.729L47.447,38.729L47.447,21.207" style="fill:rgb(35,31,32);fill-rule:nonzero;"/>
        </g>
        <g id="path3143" transform="matrix(1.05814,0,0,1.05814,-3.26842,-1.2977)">
            <path d="M62.089,32.285C62.089,33.897 63.229,36.242 65.975,36.242C67.674,36.242 68.792,35.341 69.372,34.16C69.676,33.587 69.816,32.974 69.863,32.337C69.884,31.72 69.769,31.078 69.512,30.508C68.977,29.28 67.791,28.215 65.953,28.215C63.487,28.215 62.089,30.25 62.089,32.263L62.089,32.285ZM72.887,38.729L69.837,38.729L69.837,36.858C69.025,38.371 67.326,39.13 65.533,39.13C61.437,39.13 59.041,35.884 59.041,32.216C59.041,28.12 61.949,25.327 65.533,25.327C67.86,25.327 69.279,26.582 69.837,27.625L69.837,25.728L72.887,25.728L72.887,38.729" style="fill:rgb(35,31,32);fill-rule:nonzero;"/>
        </g>
        <g id="path3145" transform="matrix(1.05814,0,0,1.05814,-3.26842,-1.2977)">
            <path d="M76.339,28.12L74.759,28.12L74.759,25.728L76.339,25.728L76.339,24.996C76.339,21.133 79.225,20.9 81.414,20.874L81.414,23.262C80.644,23.262 79.389,23.262 79.389,25.09L79.389,25.728L81.414,25.728L81.414,28.12L79.389,28.12L79.389,38.729L76.339,38.729L76.339,28.12" style="fill:rgb(35,31,32);fill-rule:nonzero;"/>
        </g>
        <g id="path3147" transform="matrix(1.05814,0,0,1.05814,-3.26842,-1.2977)">
            <path d="M83.487,21.207L86.535,21.207L86.535,30.677L90.932,25.728L94.588,25.728L89.28,31.461L94.609,38.729L91.118,38.729L86.535,32.237L86.535,38.729L83.487,38.729L83.487,21.207" style="fill:rgb(35,31,32);fill-rule:nonzero;"/>
        </g>
        <g id="path3149" transform="matrix(1.05814,0,0,1.05814,-3.26842,-1.2977)">
            <path d="M98.129,32.285C98.129,33.897 99.269,36.242 102.015,36.242C103.712,36.242 104.83,35.341 105.411,34.16C105.716,33.587 105.856,32.974 105.902,32.337C105.923,31.72 105.809,31.078 105.551,30.508C105.017,29.28 103.831,28.215 101.993,28.215C99.527,28.215 98.129,30.25 98.129,32.263L98.129,32.285ZM108.926,38.729L105.877,38.729L105.877,36.858C105.063,38.371 103.365,39.13 101.573,39.13C97.477,39.13 95.083,35.884 95.083,32.216C95.083,28.12 97.991,25.327 101.573,25.327C103.899,25.327 105.319,26.582 105.877,27.625L105.877,25.728L108.926,25.728L108.926,38.729" style="fill:rgb(35,31,32);fill-rule:nonzero;"/>
        </g>
    </g>
</svg>
