<?xml version="1.0" encoding="UTF-8" standalone="no"?>
<!DOCTYPE svg PUBLIC "-//W3C//DTD SVG 1.1//EN" "http://www.w3.org/Graphics/SVG/1.1/DTD/svg11.dtd">
<svg width="100%" height="100%" viewBox="0 0 100 27" version="1.1" xmlns="http://www.w3.org/2000/svg" xmlns:xlink="http://www.w3.org/1999/xlink" xml:space="preserve" xmlns:serif="http://www.serif.com/" style="fill-rule:evenodd;clip-rule:evenodd;stroke-linejoin:round;stroke-miterlimit:2;">
    <g transform="matrix(0.138729,0,0,0.138729,0.40316,0.125404)">
        <g id="Layer_2">
            <g id="specs">
                <path d="M58.49,0C49.386,0.004 41.897,7.496 41.897,16.6C41.897,19.898 42.88,23.123 44.72,25.86L51.81,18.78C51.576,18.074 51.457,17.334 51.46,16.59C51.46,12.75 54.62,9.59 58.46,9.59C62.3,9.59 65.46,12.75 65.46,16.59C65.46,20.43 62.3,23.59 58.46,23.59C57.719,23.592 56.983,23.473 56.28,23.24L49.2,30.32C51.948,32.183 55.192,33.18 58.512,33.18C67.613,33.18 75.102,25.691 75.102,16.59C75.102,7.489 67.613,-0 58.512,-0C58.505,-0 58.497,-0 58.49,0Z" style="fill:rgb(52,168,83);fill-rule:nonzero;"/>
                <path d="M51.89,48.35C51.901,42.747 50.085,37.29 46.72,32.81L37.52,42C40.388,47.246 39.348,53.817 35,57.92L40,70.14C47.401,65.374 51.887,57.153 51.89,48.35Z" style="fill:rgb(251,188,4);fill-rule:nonzero;"/>
                <path d="M26.18,61.54L25.939,61.54C18.698,61.54 12.739,55.581 12.739,48.34C12.739,41.099 18.698,35.14 25.939,35.14C28.516,35.14 31.037,35.895 33.19,37.31L42.3,28.2C37.681,24.455 31.911,22.41 25.964,22.41C11.734,22.41 0.024,34.12 0.024,48.35C0.024,62.571 11.719,74.277 25.94,74.29C27.7,74.291 29.455,74.117 31.18,73.77L26.18,61.54Z" style="fill:rgb(234,67,53);fill-rule:nonzero;"/>
                <path d="M58.84,72.11C53.082,72.104 47.354,72.943 41.84,74.6L49.13,92.41C52.303,91.624 55.561,91.227 58.83,91.23C80.61,91.236 98.528,109.16 98.528,130.94C98.528,152.724 80.603,170.65 58.818,170.65C37.034,170.65 19.108,152.724 19.108,130.94C19.108,120.412 23.295,110.304 30.74,102.86C33.535,100.074 36.726,97.715 40.21,95.86L33,78.1C12.85,87.968 0.023,108.533 0.023,130.97C0.023,163.265 26.598,189.84 58.893,189.84C91.188,189.84 117.763,163.265 117.763,130.97C117.763,98.675 91.188,72.1 58.893,72.1C58.892,72.1 58.891,72.1 58.89,72.1L58.84,72.11Z" style="fill:rgb(66,133,244);fill-rule:nonzero;"/>
                <path d="M174.72,24.34L191.27,24.34L191.27,149.27L252.2,149.27L252.2,165L174.72,165L174.72,24.34Z" style="fill:rgb(95,99,104);fill-rule:nonzero;"/>
                <path d="M276.19,158.23C268.719,153.795 262.609,147.391 258.53,139.72C254.269,131.767 252.091,122.862 252.2,113.84C252.098,104.831 254.275,95.941 258.53,88C262.609,80.329 268.719,73.925 276.19,69.49C291.959,60.426 311.421,60.426 327.19,69.49C334.66,73.929 340.772,80.332 344.86,88C349.117,95.955 351.294,104.858 351.19,113.88C351.294,122.902 349.117,131.805 344.86,139.76C340.775,147.426 334.666,153.829 327.2,158.27C311.431,167.334 291.969,167.334 276.2,158.27L276.19,158.23ZM318.19,146.05C323.385,143.011 327.645,138.599 330.5,133.3C333.695,127.322 335.29,120.617 335.13,113.84C335.289,107.063 333.694,100.359 330.5,94.38C327.653,89.085 323.404,84.674 318.22,81.63C313.209,78.694 307.498,77.16 301.69,77.19C289.612,77.143 278.446,83.762 272.69,94.38C269.504,100.362 267.912,107.065 268.07,113.84C267.911,120.616 269.503,127.319 272.69,133.3C278.464,143.89 289.602,150.504 301.664,150.504C307.478,150.504 313.19,148.967 318.22,146.05L318.19,146.05Z" style="fill:rgb(95,99,104);fill-rule:nonzero;"/>
                <path d="M383.77,158.23C376.304,153.789 370.195,147.386 366.11,139.72C361.853,131.765 359.676,122.862 359.78,113.84C359.682,104.832 361.86,95.943 366.11,88C370.195,80.334 376.304,73.931 383.77,69.49C399.539,60.426 419.001,60.426 434.77,69.49C442.242,73.927 448.355,80.33 452.44,88C456.697,95.955 458.874,104.858 458.77,113.88C458.874,122.902 456.697,131.805 452.44,139.76C448.358,147.429 442.248,153.832 434.78,158.27C419.011,167.334 399.549,167.334 383.78,158.27L383.77,158.23ZM425.77,146.05C430.952,143.004 435.2,138.593 438.05,133.3C441.241,127.32 442.835,120.616 442.68,113.84C442.834,107.064 441.239,100.361 438.05,94.38C435.2,89.087 430.952,84.676 425.77,81.63C420.759,78.694 415.048,77.16 409.24,77.19C403.401,77.169 397.661,78.702 392.61,81.63C387.386,84.652 383.103,89.067 380.24,94.38C377.046,100.359 375.451,107.063 375.61,113.84C375.45,120.617 377.045,127.322 380.24,133.3C383.103,138.613 387.386,143.028 392.61,146.05C397.661,148.978 403.401,150.511 409.24,150.49C415.062,150.527 420.787,148.993 425.81,146.05L425.77,146.05Z" style="fill:rgb(95,99,104);fill-rule:nonzero;"/>
                <path d="M470.66,24.34L487.2,24.34L487.2,113.26L537,62.67L558,62.67L558,63.45L516,105.86L556.1,164.26L556.1,165L536.26,165L504.33,117.3L487.2,134.47L487.2,165L470.66,165L470.66,24.34Z" style="fill:rgb(95,99,104);fill-rule:nonzero;"/>
                <path d="M577.45,158.42C570.173,154.043 564.253,147.731 560.35,140.19C556.176,132.101 554.069,123.102 554.22,114C554.151,105.146 556.13,96.394 560,88.43C563.651,80.777 569.335,74.273 576.43,69.63C583.712,64.923 592.231,62.486 600.9,62.63C610.34,62.63 618.527,64.74 625.46,68.96C632.356,73.134 637.911,79.202 641.46,86.44C645.286,94.407 647.184,103.164 647,112C646.993,113.644 646.866,115.285 646.62,116.91L570.27,116.91C570.65,124.243 572.413,130.417 575.56,135.43C578.458,140.225 582.607,144.142 587.56,146.76C592.246,149.239 597.468,150.537 602.77,150.54C615.357,150.54 624.863,144.747 631.29,133.16L644.89,139.77C641.012,147.286 635.211,153.642 628.08,158.19C620.9,162.73 612.273,165 602.2,165C593.5,165.144 584.93,162.866 577.45,158.42ZM630,103.64C629.695,99.422 628.538,95.309 626.6,91.55C624.431,87.358 621.165,83.832 617.15,81.35C612.87,78.577 607.457,77.19 600.91,77.19C593.79,77.028 586.878,79.636 581.64,84.46C576.353,89.313 572.89,95.707 571.25,103.64L630,103.64Z" style="fill:rgb(95,99,104);fill-rule:nonzero;"/>
                <path d="M657.68,62.69L673.44,62.69L673.44,81.69L674.22,81.69C676.167,76.237 679.93,71.693 685.51,68.06C690.678,64.57 696.764,62.685 703,62.64C707,62.538 710.978,63.271 714.68,64.79L714.68,82.5C710.322,80.38 705.526,79.311 700.68,79.38C695.951,79.357 691.328,80.789 687.44,83.48C683.355,86.28 680.04,90.063 677.8,94.48C675.403,99.089 674.167,104.215 674.2,109.41L674.2,165L657.68,165L657.68,62.69Z" style="fill:rgb(95,99,104);fill-rule:nonzero;"/>
            </g>
        </g>
    </g>
</svg>
