<svg height="1702" preserveAspectRatio="xMinYMin meet" viewBox="-.004 -5.603 388.133 269.897" width="2500" xmlns="http://www.w3.org/2000/svg"><path d="m93.312 240.773h-14.975c-.527-25.345-1.987-49.177-4.373-71.501h-.132l-22.8 71.501h-11.404l-22.663-71.501h-.134c-1.681 21.44-2.74 45.272-3.18 71.501h-13.655c.882-31.899 3.09-61.802 6.625-89.715h18.561l21.606 65.92h.132l21.739-65.92h17.76c3.889 32.691 6.185 62.603 6.89 89.715m64.965-66.19c-6.099 33.177-14.143 57.287-24.127 72.328-7.78 11.589-16.302 17.383-25.582 17.383-2.474 0-5.525-.747-9.145-2.231v-7.998c1.769.26 3.844.398 6.23.398 4.33 0 7.819-1.2 10.473-3.594 3.18-2.918 4.77-6.198 4.77-9.832 0-2.482-1.24-7.576-3.711-15.281l-16.436-51.173h14.712l11.796 38.272c2.65 8.69 3.756 14.756 3.313 18.214 6.452-17.278 10.959-36.108 13.523-56.486h14.183" fill="#00758f"/><g fill="#f29111"><path d="m223.875 215.906c0 7.608-2.788 13.854-8.346 18.741-5.562 4.866-13.035 7.305-22.392 7.305-8.752 0-17.234-2.807-25.45-8.377l3.843-7.706c7.07 3.544 13.47 5.313 19.214 5.313 5.389 0 9.607-1.202 12.658-3.578 3.045-2.393 4.87-5.73 4.87-9.963 0-5.327-3.706-9.88-10.504-13.7-6.276-3.454-18.818-10.663-18.818-10.663-6.796-4.97-10.203-10.304-10.203-19.091 0-7.268 2.54-13.142 7.616-17.611 5.086-4.479 11.648-6.718 19.684-6.718 8.307 0 15.86 2.223 22.663 6.652l-3.456 7.7c-5.82-2.475-11.56-3.717-17.22-3.717-4.592 0-8.13 1.105-10.598 3.33-2.48 2.204-4.014 5.041-4.014 8.499 0 5.313 3.786 9.922 10.775 13.816 6.355 3.455 19.205 10.804 19.205 10.804 6.99 4.961 10.473 10.251 10.473 18.964"/><path d="m250.647 222.826c-3.625-5.848-5.44-15.233-5.44-28.173 0-22.59 6.85-33.893 20.546-33.893 7.16 0 12.416 2.704 15.777 8.105 3.62 5.85 5.435 15.154 5.435 27.913 0 22.771-6.851 34.162-20.546 34.162-7.159 0-12.416-2.701-15.772-8.113m53.284 20.11-16.446-8.132c1.464-1.204 2.855-2.503 4.114-4.007 6.983-8.23 10.477-20.413 10.477-36.542 0-29.68-11.62-44.529-34.86-44.529-11.4 0-20.284 3.764-26.645 11.302-6.985 8.24-10.473 20.378-10.473 36.415 0 15.77 3.09 27.339 9.276 34.688 5.636 6.642 14.16 9.968 25.57 9.968 4.258 0 8.164-.526 11.714-1.577l21.418 12.497 5.84-10.084" fill-rule="evenodd"/><path d="m357.618 240.773h-42.546v-89.715h14.317v78.679h28.229zm10.21-.009h2.372v-9.128h3.104v-1.864h-8.701v1.864h3.225zm18.051 0h2.236v-10.992h-3.363l-2.737 7.492-2.98-7.492h-3.24v10.992h2.115v-8.366h.12l3.121 8.366h1.612l3.116-8.366z"/></g><g fill="#00758f" fill-rule="evenodd"><path d="m375.589 121.008c-8.653-.217-15.354.648-20.974 3.035-1.622.65-4.213.65-4.435 2.71.87.865.975 2.273 1.737 3.47 1.294 2.169 3.56 5.09 5.618 6.612 2.27 1.736 4.541 3.464 6.922 4.98 4.214 2.614 8.972 4.125 13.075 6.727 2.386 1.516 4.756 3.465 7.142 5.096 1.185.866 1.935 2.278 3.455 2.814v-.328c-.762-.973-.974-2.382-1.727-3.472-1.08-1.076-2.163-2.058-3.246-3.137-3.137-4.227-7.034-7.909-11.24-10.944-3.462-2.391-11.034-5.644-12.434-9.643l-.22-.221c2.38-.22 5.195-1.089 7.464-1.746 3.67-.973 7.022-.753 10.806-1.726 1.732-.437 3.462-.982 5.2-1.515v-.983c-1.957-1.946-3.357-4.552-5.41-6.393-5.51-4.768-11.571-9.426-17.84-13.334-3.356-2.168-7.68-3.57-11.25-5.418-1.29-.652-3.45-.973-4.21-2.063-1.947-2.384-3.033-5.523-4.435-8.346-3.132-5.955-6.165-12.565-8.863-18.862-1.945-4.225-3.135-8.45-5.514-12.354-11.14-18.432-23.244-29.59-41.84-40.54-4-2.28-8.756-3.255-13.833-4.447-2.707-.114-5.408-.325-8.11-.431-1.733-.762-3.465-2.823-4.976-3.799-6.165-3.9-22.05-12.353-26.594-1.19-2.92 7.05 4.325 13.984 6.812 17.563 1.837 2.49 4.218 5.313 5.51 8.127.757 1.843.974 3.798 1.734 5.746 1.728 4.769 3.347 10.082 5.622 14.528 1.185 2.277 2.481 4.665 3.994 6.715.873 1.2 2.382 1.734 2.707 3.692-1.508 2.165-1.626 5.417-2.49 8.129-3.89 12.25-2.379 27.424 3.137 36.42 1.726 2.71 5.84 8.673 11.353 6.391 4.865-1.947 3.784-8.126 5.188-13.543.324-1.31.107-2.17.753-3.035v.219c1.513 3.03 3.031 5.95 4.435 8.995 3.357 5.306 9.19 10.836 14.058 14.518 2.588 1.959 4.643 5.314 7.886 6.51v-.328h-.212c-.651-.973-1.622-1.41-2.488-2.165-1.945-1.952-4.102-4.338-5.622-6.505-4.539-6.068-8.544-12.792-12.104-19.729-1.735-3.368-3.245-7.05-4.652-10.408-.647-1.295-.647-3.252-1.73-3.9-1.626 2.381-3.999 4.444-5.186 7.362-2.056 4.666-2.27 10.41-3.033 16.375-.43.113-.212 0-.43.215-3.455-.866-4.645-4.443-5.945-7.468-3.243-7.706-3.788-20.063-.973-28.953.753-2.272 4.006-9.426 2.703-11.594-.654-2.068-2.813-3.25-4-4.882-1.403-2.06-2.925-4.656-3.888-6.937-2.597-6.068-3.902-12.792-6.704-18.86-1.298-2.823-3.573-5.75-5.405-8.347-2.058-2.927-4.326-4.986-5.95-8.451-.536-1.195-1.294-3.148-.432-4.444.212-.869.651-1.196 1.518-1.413 1.397-1.193 5.402.322 6.805.972 4.003 1.622 7.354 3.148 10.701 5.42 1.516 1.086 3.137 3.145 5.08 3.692h2.275c3.458.753 7.352.21 10.598 1.19 5.726 1.842 10.914 4.551 15.566 7.479 14.158 8.998 25.834 21.792 33.722 37.073 1.3 2.49 1.846 4.769 3.033 7.365 2.27 5.322 5.084 10.742 7.35 15.94 2.269 5.095 4.435 10.294 7.683 14.528 1.617 2.272 8.105 3.465 11.025 4.658 2.158.972 5.514 1.841 7.461 3.032 3.675 2.272 7.343 4.878 10.808 7.375 1.726 1.3 7.133 4.008 7.459 6.179"/><path d="m265.314 26.797a17.27 17.27 0 0 0 -4.432.545v.217h.21c.873 1.73 2.388 2.932 3.46 4.447.87 1.735 1.629 3.463 2.492 5.2.107-.107.21-.22.21-.22 1.525-1.08 2.28-2.812 2.28-5.418-.653-.764-.755-1.517-1.3-2.279-.647-1.081-2.053-1.623-2.92-2.492"/></g></svg>