<?xml version="1.0" encoding="UTF-8" standalone="no"?>
<!DOCTYPE svg PUBLIC "-//W3C//DTD SVG 1.1//EN" "http://www.w3.org/Graphics/SVG/1.1/DTD/svg11.dtd">
<svg width="100%" height="100%" viewBox="0 0 100 15" version="1.1" xmlns="http://www.w3.org/2000/svg" xmlns:xlink="http://www.w3.org/1999/xlink" xml:space="preserve" xmlns:serif="http://www.serif.com/" style="fill-rule:evenodd;clip-rule:evenodd;stroke-linejoin:round;stroke-miterlimit:2;">
    <g transform="matrix(0.154756,0,0,0.154756,-110.03,-110.333)">
        <g id="layer1">
            <g id="g16337">
                <path id="path16197" d="M980.651,771.7L1021.3,771.7L999.808,737.118L960.356,799.645L942.401,799.645L990.387,724.536C992.474,721.502 995.951,719.668 999.808,719.668C1003.54,719.668 1007.01,721.439 1009.04,724.41L1057.21,799.645L1039.26,799.645L1030.79,785.673L989.628,785.673L980.651,771.7ZM1167.16,785.673L1167.16,720.427L1151.92,720.427L1151.92,792.058C1151.92,794.018 1152.68,795.915 1154.13,797.369C1155.59,798.823 1157.55,799.645 1159.7,799.645L1229.18,799.645L1238.16,785.673L1167.16,785.673ZM915.089,773.976C929.884,773.976 941.896,762.027 941.896,747.233C941.896,732.439 929.884,720.427 915.089,720.427L848.434,720.427L848.434,799.645L863.664,799.645L863.664,734.399L914.078,734.399C921.159,734.399 926.849,740.152 926.849,747.233C926.849,754.314 921.159,760.067 914.078,760.067L871.125,760.004L916.606,799.645L938.735,799.645L908.135,773.976L915.089,773.976ZM754.675,799.645C732.806,799.645 715.06,781.942 715.06,760.067C715.06,738.192 732.806,720.427 754.675,720.427L800.72,720.427C822.595,720.427 840.329,738.192 840.329,760.067C840.329,781.942 822.595,799.645 800.72,799.645L754.675,799.645ZM799.696,785.673C813.864,785.673 825.339,774.229 825.339,760.067C825.339,745.906 813.864,734.399 799.696,734.399L755.693,734.399C741.531,734.399 730.05,745.906 730.05,760.067C730.05,774.229 741.531,785.673 755.693,785.673L799.696,785.673ZM1089.01,799.645C1067.14,799.645 1049.37,781.942 1049.37,760.067C1049.37,738.192 1067.14,720.427 1089.01,720.427L1143.7,720.427L1134.79,734.399L1090.03,734.399C1075.86,734.399 1064.36,745.906 1064.36,760.067C1064.36,774.229 1075.86,785.673 1090.03,785.673L1144.97,785.673L1135.99,799.645L1089.01,799.645ZM1275.33,785.673C1263.63,785.673 1253.71,777.833 1250.67,767.022L1315.79,767.022L1324.77,753.05L1250.67,753.05C1253.71,742.302 1263.63,734.399 1275.33,734.399L1320.03,734.399L1329.07,720.427L1274.32,720.427C1252.44,720.427 1234.68,738.192 1234.68,760.067C1234.68,781.942 1252.44,799.645 1274.32,799.645L1321.29,799.645L1330.27,785.673L1275.33,785.673" style="fill:rgb(248,0,0);fill-rule:nonzero;"/>
                <path id="path16199" d="M1337.23,728.836C1337.23,724.979 1340.32,721.881 1344.18,721.881C1348.1,721.881 1351.2,724.979 1351.2,728.836C1351.2,732.755 1348.1,735.853 1344.18,735.853C1340.32,735.853 1337.23,732.755 1337.23,728.836ZM1344.18,737.813C1349.11,737.813 1353.09,733.83 1353.09,728.899C1353.09,723.967 1349.11,719.984 1344.18,719.984C1339.31,719.984 1335.33,723.967 1335.33,728.899C1335.33,733.83 1339.31,737.813 1344.18,737.813ZM1343.36,723.588C1344.75,723.588 1345.32,723.651 1345.95,723.904C1347.72,724.473 1347.91,726.054 1347.91,726.686C1347.91,726.812 1347.91,727.129 1347.78,727.508C1347.72,727.887 1347.47,728.646 1346.58,729.215C1346.46,729.278 1346.39,729.341 1346.14,729.468L1348.42,733.577L1346.2,733.577L1344.18,729.784L1342.79,729.784L1342.79,733.577L1340.83,733.577L1340.83,723.588L1343.36,723.588ZM1344.05,728.14C1344.69,728.077 1345.32,728.077 1345.7,727.508C1345.89,727.255 1345.95,727.002 1345.95,726.623C1345.95,726.117 1345.63,725.674 1345.19,725.422C1344.75,725.232 1344.31,725.232 1343.36,725.232L1342.79,725.232L1342.79,728.14L1344.05,728.14" style="fill:rgb(248,0,0);fill-rule:nonzero;"/>
            </g>
        </g>
    </g>
</svg>
