<?xml version="1.0" encoding="utf-8"?>
<!-- Generator: Adobe Illustrator 16.0.0, SVG Export Plug-In . SVG Version: 6.00 Build 0)  -->
<svg version="1.2" baseProfile="tiny" id="Layer_1" xmlns="http://www.w3.org/2000/svg" xmlns:xlink="http://www.w3.org/1999/xlink"
	 x="0px" y="0px" width="1100px" height="1100px" viewBox="0 0 1100 1100" xml:space="preserve">
<g>
	<polygon fill="#205B98" points="220.904,655.014 372.241,691.63 372.241,407.537 220.904,444.153 	"/>
	<polygon fill="#5294CF" points="372.181,407.537 401.281,422.087 401.281,677.14 372.181,691.691 	"/>
	<polygon fill="#5294CF" points="220.904,655.014 69.628,691.63 69.628,407.537 220.904,444.153 	"/>
	<polygon fill="#205B98" points="69.628,407.537 40.527,422.087 40.527,677.14 69.628,691.691 	"/>
	<polygon fill="#5294CF" points="259.625,748.749 317.105,720.068 317.105,379.999 259.625,351.259 241.587,540.293 	"/>
	<polygon fill="#205B98" points="182.183,748.749 124.703,720.068 124.703,379.999 182.183,351.259 200.221,539.632 	"/>
	<rect x="182.183" y="351.259" fill-rule="evenodd" fill="#2D72B8" width="77.502" height="397.49"/>
	<path fill="#201C1D" d="M766.484,490.39v3.968c0.703,6.732-0.438,13.53-3.307,19.661c-2.248,4.887-7.018,8.127-12.387,8.418
		c-6.914,0-11.002-5.592-11.002-13.589c-0.062-15.693,13.648-18.458,26.635-18.458H766.484z M530.431,490.39v3.968
		c0.692,6.712-0.451,13.486-3.307,19.601c-2.258,4.878-7.021,8.115-12.386,8.418c-6.914,0-11.003-5.592-11.003-13.588
		C503.495,493.156,517.443,490.39,530.431,490.39z M930.688,455.999c5.73-0.39,10.865,3.514,12.024,9.139
		c2.039,8.194,2.91,16.635,2.587,25.072c0,12.025-0.602,32.288-14.49,32.288c-13.89,0-14.069-24.951-14.069-36.496
		c0-11.543,0.602-30.243,13.647-30.243L930.688,455.999z M817.11,437.96c-0.908-0.001-1.779,0.373-2.405,1.032
		c-0.625,0.66-0.949,1.548-0.902,2.456v13.588c-0.047,0.908,0.277,1.796,0.902,2.456c0.626,0.66,1.497,1.033,2.405,1.031h30.905
		l-35.355,52.19c-1.701,2.785-2.572,5.996-2.525,9.259v13.829c-0.041,1.045,0.439,2.045,1.282,2.661
		c0.847,0.617,1.946,0.769,2.929,0.406c19.545-10.4,42.982-10.4,62.529,0c1.011,0.402,2.151,0.273,3.043-0.342
		c0.896-0.617,1.426-1.638,1.407-2.724V519.19c-0.073-2.198-1.342-4.182-3.307-5.17c-10.35-5.538-22.014-8.137-33.731-7.516
		l30.664-44.974c2.17-2.383,3.703-5.28,4.449-8.417v-11.665c0.048-0.908-0.275-1.796-0.901-2.456
		c-0.626-0.659-1.497-1.033-2.405-1.032h-59.225H817.11z M1033.563,436.337c-12.445,0-19.542,6.012-24.591,19.18v-14.491
		c-0.402-1.503-1.75-2.557-3.307-2.584h-16.656c-1.785-0.041-3.3,1.292-3.486,3.066v94.758c0.054,1.834,1.479,3.335,3.307,3.487
		h18.038c1.912-0.032,3.456-1.575,3.487-3.487V485.28c-0.258-6.161,0.787-12.309,3.065-18.038c1.558-4.105,5.311-6.972,9.681-7.396
		c12.445,0,11.243,15.152,11.243,25.493v51.528c0.229,1.681,1.611,2.966,3.309,3.066h18.036c1.763-0.014,3.247-1.32,3.488-3.066
		v-59.825c0-9.199,0-21.945-4.69-29.522c-4.467-7.273-12.512-11.572-21.045-11.243L1033.563,436.337z M930.747,436.337
		c-26.034,0-40.524,22.907-40.524,52.429c0,29.521,14.311,52.911,40.524,52.911c25.193,0,41.187-23.028,41.187-52.009
		c-0.12-29.822-14.61-53.331-41.547-53.331H930.747z M624.107,436.337c-10.961-0.25-20.705,6.946-23.691,17.497v-12.386
		c-0.115-1.776-1.529-3.19-3.307-3.307h-16.833c-1.914,0.032-3.456,1.575-3.489,3.487v94.878c0.166,1.753,1.555,3.141,3.307,3.307
		h18.039c1.912-0.032,3.455-1.575,3.486-3.487V485.94c0-11.003-0.54-25.974,12.387-25.974c12.928,0,11.004,15.453,11.004,25.974
		v50.326c0.055,1.834,1.479,3.335,3.307,3.487h18.037c1.912-0.032,3.457-1.575,3.487-3.487V485.94
		c-0.415-6.06,0.14-12.148,1.624-18.038c1.586-4.569,5.754-7.743,10.582-8.057c2.482-0.323,4.99,0.36,6.967,1.896
		c1.974,1.535,3.254,3.797,3.555,6.282c0.595,5.993,0.752,12.021,0.48,18.037v50.325c0.055,1.834,1.48,3.335,3.307,3.488h18.038
		c1.912-0.032,3.458-1.575,3.487-3.488v-60.125c0-10.161,1.021-21.765-4.689-29.762c-5.904-7.52-15.423-11.241-24.862-9.716
		c-9.434,1.525-17.298,8.055-20.533,17.052C642.446,441.809,635.35,436.337,624.107,436.337z M756.864,435.375
		c-17.137,0-36.075,6.613-40.283,28.319c-0.194,0.841-0.024,1.725,0.468,2.435c0.494,0.71,1.262,1.178,2.117,1.292l17.556,2.105
		c1.738-0.382,3-1.891,3.067-3.667c1.37-6.792,7.58-11.504,14.49-11.004c3.908-0.164,7.654,1.586,10.041,4.69
		c1.959,4.156,2.693,8.789,2.104,13.348v2.585c-11.484,0.49-22.842,2.615-33.73,6.314c-12.006,5.076-19.636,17.034-19.18,30.063
		c0,19.24,12.024,28.8,26.936,28.8c11.51,0.677,22.613-4.306,29.762-13.348c2.672,4.597,6.158,8.672,10.283,12.025
		c1.359,0.767,3.061,0.573,4.208-0.481c3.606-3.307,10.161-9.26,13.829-12.385c1.299-1.388,1.299-3.544,0-4.931
		c-4.311-4.645-6.733-10.736-6.795-17.075V476.38c0-12.024,0.783-23.448-7.936-31.866
		C776.261,438.243,766.666,434.989,756.864,435.375z M520.812,435.375c-17.137,0-36.076,6.613-40.285,28.319
		c-0.193,0.841-0.022,1.725,0.468,2.435c0.493,0.71,1.262,1.178,2.118,1.292l17.557,2.105c1.642-0.474,2.787-1.959,2.826-3.667
		c1.374-6.792,7.58-11.504,14.49-11.004c3.91-0.164,7.656,1.586,10.041,4.69c2.045,4.133,2.859,8.766,2.345,13.348v2.585
		c-11.565,0.488-23.002,2.613-33.97,6.314c-12.007,5.076-19.637,17.034-19.181,30.063c0,19.24,12.025,28.8,26.937,28.8
		c11.507,0.688,22.622-4.297,29.762-13.348c2.675,4.595,6.158,8.668,10.281,12.025c1.36,0.767,3.058,0.573,4.209-0.481
		c3.608-3.307,10.16-9.26,13.829-12.385c1.328-1.375,1.328-3.555,0-4.931c-4.315-4.645-6.738-10.736-6.796-17.075V476.38
		c0-12.024,1.022-23.448-7.755-31.866C540.136,438.303,530.582,435.054,520.812,435.375z"/>
	<path d="M488.224,616.834h11.543c12.025,0,19.782-6.613,19.782-16.655c0-11.303-8.178-16.294-20.143-16.294
		c-3.755-0.104-7.51,0.238-11.183,1.021v31.869V616.834z M476.919,577.031c7.161-1.309,14.427-1.952,21.706-1.924
		c12.025,0,20.022,2.344,25.493,7.273c4.591,4.301,7.11,10.369,6.914,16.656c0.027,10.26-6.701,19.314-16.534,22.247v0.419
		c6.614,2.346,10.642,8.6,12.867,17.679c1.567,8.178,3.779,16.221,6.614,24.051h-11.665c-2.69-6.759-4.704-13.769-6.013-20.924
		c-2.584-12.026-7.396-16.656-17.676-17.017h-10.342v38h-11.364V577.031z"/>
	<polygon points="602.281,622.186 568.312,622.186 568.312,653.811 606.311,653.811 606.311,663.312 556.887,663.312 
		556.887,575.709 604.386,575.709 604.386,585.207 568.312,585.207 568.312,612.927 602.281,612.927 	"/>
	<path d="M640.281,654.594c3.787,0.477,7.604,0.658,11.422,0.541c24.051,0,37.339-13.527,37.339-37.219
		c0-20.682-11.603-33.85-35.532-33.85c-4.457-0.08-8.912,0.303-13.289,1.141v69.326L640.281,654.594z M628.857,576.911
		c7.959-1.187,16-1.789,24.051-1.804c16.232,0,27.838,3.787,35.533,10.943c8.633,8.128,13.216,19.668,12.506,31.506
		c0.547,12.599-4.004,24.887-12.627,34.091c-8.297,8.176-21.826,12.625-38.9,12.625c-6.908,0.113-13.816-0.229-20.684-1.022v-86.339
		H628.857z"/>
	<path d="M722.051,649.603c6.092,3.636,13.047,5.568,20.143,5.593c11.605,0,18.34-6.014,18.34-14.852
		c0-8.839-4.512-12.988-16.535-17.377c-14.311-4.93-23.148-12.506-23.148-24.711c0-13.649,11.304-24.05,28.379-24.05
		c6.656-0.2,13.258,1.223,19.24,4.147l-3.126,9.379c-5.045-2.83-10.751-4.262-16.536-4.148c-12.023,0-16.533,7.155-16.533,13.167
		c0,8.058,5.35,12.026,17.436,16.776c14.853,6.013,22.247,12.867,22.247,25.734c0,12.866-9.86,25.252-30.544,25.252
		c-7.852-0.03-15.561-2.104-22.367-6.012L722.051,649.603z"/>
	<polygon points="806.828,575.709 806.828,612.385 849.218,612.385 849.218,575.709 860.641,575.709 860.641,663.371 
		849.218,663.371 849.218,622.186 806.828,622.186 806.828,663.312 795.405,663.312 795.405,575.709 	"/>
	<rect x="889.563" y="575.709" width="11.423" height="87.662"/>
	<polygon points="929.665,575.709 976.864,575.709 976.864,585.207 941.09,585.207 941.09,614.368 974.159,614.368 974.159,623.748 
		941.09,623.748 941.09,663.433 929.665,663.433 	"/>
	<polygon points="1021.477,585.328 994.782,585.328 994.782,575.709 1059.717,575.709 1059.717,585.328 1032.901,585.328 
		1032.901,663.492 1021.477,663.492 	"/>
</g>
</svg>
