<?xml version="1.0" encoding="UTF-8" standalone="no"?>
<!DOCTYPE svg PUBLIC "-//W3C//DTD SVG 1.1//EN" "http://www.w3.org/Graphics/SVG/1.1/DTD/svg11.dtd">
<svg width="100%" height="100%" viewBox="0 0 100 24" version="1.1" xmlns="http://www.w3.org/2000/svg" xmlns:xlink="http://www.w3.org/1999/xlink" xml:space="preserve" xmlns:serif="http://www.serif.com/" style="fill-rule:evenodd;clip-rule:evenodd;stroke-linejoin:round;stroke-miterlimit:2;">
    <g transform="matrix(0.539762,0,0,0.539762,0.339466,0.224575)">
        <g id="Page-1">
            <g id="Group">
                <path id="Path" d="M37.264,33.129L28.088,27.828C26.799,27.086 25.15,27.527 24.404,28.816C24.115,29.324 24.002,29.883 24.057,30.426L24.057,40.785C24.057,42.266 25.26,43.469 26.744,43.469C28.225,43.469 29.428,42.266 29.428,40.785L29.428,34.828L34.568,37.797C35.857,38.543 37.51,38.098 38.252,36.809C38.998,35.52 38.557,33.871 37.264,33.129" style="fill:rgb(41,181,232);fill-rule:nonzero;"/>
                <path id="Path2" d="M14.443,21.77C14.459,20.813 13.955,19.922 13.127,19.441L3.951,14.145C3.553,13.914 3.096,13.793 2.639,13.793C1.697,13.793 0.822,14.297 0.354,15.109C-0.373,16.367 0.061,17.98 1.318,18.707L6.607,21.758L1.318,24.813C0.709,25.164 0.272,25.73 0.092,26.41C-0.092,27.09 0.002,27.801 0.354,28.41C0.822,29.223 1.697,29.727 2.635,29.727C3.096,29.727 3.553,29.605 3.951,29.375L13.127,24.078C13.947,23.602 14.451,22.719 14.443,21.77" style="fill:rgb(41,181,232);fill-rule:nonzero;"/>
                <path id="Path3" d="M6.033,10.391L15.209,15.688C16.279,16.309 17.6,16.105 18.443,15.281C18.979,14.789 19.311,14.086 19.311,13.305L19.311,2.688C19.311,1.203 18.107,0 16.627,0C15.143,0 13.94,1.203 13.94,2.688L13.94,8.73L8.729,5.723C7.44,4.977 5.791,5.418 5.045,6.707C4.299,7.996 4.744,9.645 6.033,10.391" style="fill:rgb(41,181,232);fill-rule:nonzero;"/>
                <path id="Combined-Shape" d="M26.666,22.199C26.666,22.402 26.549,22.684 26.404,22.832L22.768,26.469C22.623,26.613 22.338,26.73 22.135,26.73L21.209,26.73C21.006,26.73 20.721,26.613 20.576,26.469L16.936,22.832C16.791,22.684 16.674,22.402 16.674,22.199L16.674,21.273C16.674,21.066 16.791,20.785 16.936,20.641L20.576,17C20.721,16.855 21.006,16.738 21.209,16.738L22.135,16.738C22.338,16.738 22.623,16.855 22.768,17L26.404,20.641C26.549,20.785 26.666,21.066 26.666,21.273L26.666,22.199ZM23.42,21.754L23.42,21.715C23.42,21.566 23.334,21.359 23.229,21.25L22.154,20.18C22.049,20.07 21.842,19.984 21.69,19.984L21.65,19.984C21.502,19.984 21.295,20.07 21.186,20.18L20.115,21.25C20.01,21.355 19.924,21.563 19.924,21.715L19.924,21.754C19.924,21.906 20.01,22.113 20.115,22.219L21.186,23.293C21.295,23.398 21.502,23.484 21.65,23.484L21.69,23.484C21.842,23.484 22.049,23.398 22.154,23.293L23.229,22.219C23.334,22.113 23.42,21.906 23.42,21.754Z" style="fill:rgb(41,181,232);fill-rule:nonzero;"/>
                <path id="Path4" d="M28.088,15.688L37.264,10.391C38.553,9.648 38.998,7.996 38.252,6.707C37.506,5.418 35.857,4.977 34.568,5.723L29.428,8.691L29.428,2.688C29.428,1.203 28.225,-0 26.744,-0C25.26,-0 24.057,1.203 24.057,2.688L24.057,13.094C24.006,13.633 24.111,14.195 24.404,14.703C25.15,15.992 26.799,16.434 28.088,15.688" style="fill:rgb(41,181,232);fill-rule:nonzero;"/>
                <path id="Path5" d="M17.049,27.516C16.44,27.398 15.787,27.496 15.209,27.828L6.033,33.129C4.744,33.871 4.299,35.52 5.045,36.809C5.791,38.102 7.44,38.543 8.729,37.797L13.94,34.789L13.94,40.785C13.94,42.266 15.143,43.469 16.627,43.469C18.107,43.469 19.311,42.266 19.311,40.785L19.311,30.168C19.311,28.828 18.33,27.719 17.049,27.516" style="fill:rgb(41,181,232);fill-rule:nonzero;"/>
                <path id="Path6" d="M42.998,15.078C42.256,13.785 40.604,13.344 39.315,14.09L30.139,19.387C29.26,19.895 28.775,20.824 28.791,21.77C28.783,22.711 29.268,23.629 30.139,24.129L39.315,29.43C40.604,30.172 42.252,29.73 42.998,28.441C43.744,27.152 43.299,25.504 42.01,24.758L36.815,21.758L42.01,18.758C43.303,18.016 43.744,16.367 42.998,15.078" style="fill:rgb(41,181,232);fill-rule:nonzero;"/>
                <path id="Combined-Shape2" d="M183.998,21.129L183.998,21.238C183.998,21.738 183.58,22.109 183.065,22.109L170.174,22.109C170.197,22.414 170.236,22.711 170.299,23.004C170.897,25.797 173.287,27.875 176.127,27.898L176.877,27.898C176.936,27.898 176.994,27.898 177.057,27.895C177.111,27.895 177.166,27.891 177.221,27.887C177.225,27.887 177.229,27.887 177.232,27.883C178.174,27.809 179.123,27.43 179.971,26.82L179.975,26.82C180.018,26.789 180.065,26.754 180.107,26.719C180.115,26.715 180.123,26.707 180.135,26.699C180.17,26.672 180.209,26.641 180.248,26.609C180.264,26.598 180.275,26.586 180.291,26.574C180.322,26.551 180.354,26.523 180.385,26.496C180.404,26.48 180.428,26.461 180.447,26.445C180.471,26.422 180.494,26.398 180.522,26.379C180.545,26.355 180.572,26.332 180.596,26.309C180.615,26.293 180.635,26.273 180.654,26.254C180.686,26.227 180.713,26.199 180.744,26.172C180.76,26.156 180.775,26.137 180.791,26.121L180.928,25.984C180.959,25.949 180.99,25.914 181.022,25.879C181.037,25.867 181.049,25.852 181.061,25.836C181.096,25.801 181.127,25.766 181.158,25.73C181.17,25.715 181.186,25.699 181.197,25.684C181.229,25.645 181.256,25.609 181.287,25.574C181.303,25.555 181.318,25.535 181.334,25.516C181.361,25.48 181.389,25.449 181.412,25.418C181.436,25.387 181.455,25.359 181.475,25.332C181.494,25.305 181.514,25.281 181.533,25.254C181.565,25.211 181.596,25.168 181.623,25.125C181.635,25.109 181.643,25.098 181.65,25.086C181.729,24.973 181.803,24.855 181.877,24.734C181.877,24.734 181.877,24.73 181.881,24.727C181.897,24.699 181.916,24.676 181.936,24.648C181.943,24.637 181.951,24.625 181.963,24.617C181.975,24.598 181.99,24.586 182.002,24.57C182.014,24.559 182.025,24.547 182.037,24.535C182.053,24.523 182.065,24.512 182.08,24.5C182.092,24.488 182.104,24.477 182.119,24.469C182.139,24.453 182.162,24.438 182.186,24.426C182.201,24.414 182.221,24.402 182.236,24.395C182.256,24.387 182.272,24.379 182.287,24.371C182.303,24.363 182.318,24.359 182.33,24.352C182.354,24.344 182.373,24.34 182.397,24.332C182.408,24.328 182.416,24.324 182.428,24.32C182.502,24.305 182.58,24.293 182.654,24.293C182.736,24.293 182.822,24.305 182.9,24.328L182.908,24.328C182.94,24.34 182.975,24.348 183.006,24.363C183.014,24.367 183.022,24.367 183.029,24.371C183.065,24.387 183.096,24.402 183.127,24.422L183.143,24.43C183.572,24.742 183.705,25.289 183.443,25.738L183.44,25.742C183.408,25.793 183.377,25.844 183.346,25.891C183.338,25.902 183.33,25.914 183.322,25.926C182.408,27.316 181.166,28.426 179.779,29.09C179.748,29.102 179.721,29.117 179.69,29.133C179.686,29.133 179.678,29.137 179.674,29.137C179.033,29.434 178.346,29.641 177.611,29.727C177.596,29.727 177.58,29.73 177.565,29.73C177.502,29.738 177.44,29.746 177.377,29.75C177.342,29.75 177.307,29.754 177.268,29.758C177.225,29.758 177.178,29.762 177.135,29.766C177.049,29.766 176.963,29.77 176.877,29.77L176.119,29.77C171.783,29.738 168.291,26.121 168.291,21.691C168.291,17.188 171.807,13.551 176.178,13.551C176.307,13.551 176.436,13.555 176.565,13.559C178.088,13.637 179.494,14.156 180.662,15.008C180.666,15.012 180.67,15.016 180.674,15.016C180.74,15.063 180.803,15.113 180.865,15.16C180.897,15.188 180.932,15.215 180.967,15.242C180.998,15.266 181.029,15.293 181.061,15.316C182.705,16.688 183.815,18.746 183.998,21.129ZM170.299,20.27L181.967,20.27C181.389,17.457 178.971,15.422 176.178,15.422C173.334,15.422 170.936,17.418 170.299,20.27Z" style="fill:rgb(41,181,232);fill-rule:nonzero;"/>
                <path id="Combined-Shape3" d="M151.041,13.824C151.186,13.969 151.283,14.164 151.307,14.391C151.307,14.422 151.311,14.453 151.311,14.484L151.311,28.832C151.311,29.344 150.881,29.77 150.373,29.77C149.865,29.77 149.44,29.344 149.44,28.832L149.44,26.926C149.084,27.355 148.693,27.746 148.268,28.086C148.256,28.098 148.244,28.105 148.232,28.117C148.193,28.148 148.15,28.18 148.111,28.207C146.822,29.199 145.256,29.77 143.619,29.77C140.982,29.77 138.662,28.367 137.279,26.242C137.268,26.227 137.252,26.207 137.24,26.191C137.201,26.125 137.162,26.059 137.119,25.988C137.092,25.945 137.068,25.902 137.041,25.859C137.014,25.816 136.99,25.77 136.967,25.723C136.928,25.656 136.889,25.586 136.854,25.52C136.842,25.496 136.834,25.473 136.822,25.449C136.311,24.434 135.994,23.289 135.94,22.074C135.932,21.938 135.928,21.801 135.928,21.66C135.928,21.52 135.932,21.383 135.94,21.246C135.994,20.031 136.311,18.887 136.822,17.867C136.834,17.848 136.842,17.824 136.854,17.801C136.889,17.734 136.928,17.664 136.967,17.598C136.99,17.551 137.014,17.504 137.041,17.461C137.065,17.418 137.092,17.375 137.119,17.332C137.158,17.266 137.201,17.195 137.24,17.129C137.252,17.113 137.268,17.094 137.279,17.078C138.662,14.953 140.982,13.551 143.619,13.551C145.4,13.551 147.084,14.203 148.424,15.34C148.791,15.648 149.131,15.988 149.44,16.363L149.44,14.484C149.44,14.453 149.44,14.422 149.443,14.391C149.467,14.164 149.565,13.969 149.709,13.824L149.709,13.82C149.725,13.805 149.744,13.793 149.76,13.777C149.764,13.773 149.772,13.766 149.775,13.762C149.787,13.75 149.803,13.742 149.815,13.734C149.826,13.727 149.838,13.715 149.85,13.707C149.857,13.703 149.865,13.699 149.873,13.691C149.893,13.684 149.908,13.672 149.928,13.66C149.932,13.66 149.936,13.656 149.94,13.656C149.963,13.645 149.986,13.633 150.01,13.621L150.014,13.621C150.068,13.598 150.127,13.582 150.186,13.57C150.19,13.57 150.197,13.566 150.201,13.566C150.225,13.563 150.252,13.559 150.279,13.555C150.311,13.555 150.342,13.551 150.373,13.551C150.408,13.551 150.44,13.555 150.471,13.555C150.498,13.559 150.522,13.563 150.549,13.566C150.553,13.566 150.557,13.57 150.565,13.57C150.623,13.582 150.682,13.598 150.736,13.621L150.74,13.621C150.764,13.633 150.787,13.645 150.807,13.656C150.815,13.656 150.818,13.66 150.822,13.66C150.838,13.672 150.857,13.684 150.873,13.691C150.881,13.699 150.893,13.703 150.9,13.707C150.912,13.715 150.924,13.727 150.936,13.734C150.947,13.742 150.959,13.75 150.971,13.762C150.979,13.766 150.982,13.773 150.99,13.777C151.006,13.793 151.025,13.805 151.037,13.82L151.041,13.824ZM143.619,27.898C146.826,27.898 149.44,25.102 149.44,21.66C149.44,18.203 146.826,15.391 143.619,15.391C140.436,15.391 137.799,18.199 137.799,21.66C137.799,21.77 137.803,21.875 137.807,21.98C137.807,22.027 137.815,22.07 137.815,22.113C137.818,22.176 137.822,22.238 137.83,22.297C137.834,22.348 137.842,22.395 137.846,22.441C137.854,22.496 137.857,22.555 137.865,22.609C137.873,22.652 137.881,22.691 137.885,22.73C137.897,22.793 137.904,22.855 137.916,22.918C137.924,22.949 137.932,22.977 137.936,23.004C137.951,23.078 137.967,23.148 137.982,23.223C137.986,23.238 137.99,23.254 137.998,23.27C138.662,25.941 140.943,27.898 143.619,27.898Z" style="fill:rgb(41,181,232);fill-rule:nonzero;"/>
                <path id="Path7" d="M127.561,6.785L127.307,6.785C127.275,6.785 127.24,6.785 127.209,6.789C127.174,6.785 127.143,6.785 127.107,6.785C127.018,6.785 126.928,6.785 126.838,6.789C126.822,6.789 126.803,6.793 126.787,6.793C126.717,6.793 126.647,6.797 126.576,6.805L126.537,6.805C126.463,6.813 126.393,6.816 126.322,6.824C126.315,6.828 126.307,6.828 126.299,6.828C126.221,6.84 126.147,6.848 126.076,6.859L126.068,6.859C125.596,6.934 125.17,7.066 124.791,7.254C124.791,7.258 124.787,7.258 124.783,7.258C124.729,7.289 124.67,7.32 124.615,7.352C124.604,7.355 124.596,7.363 124.584,7.371C124.537,7.398 124.49,7.426 124.443,7.457C124.424,7.469 124.408,7.484 124.393,7.496C124.354,7.52 124.318,7.547 124.279,7.574C124.252,7.598 124.225,7.621 124.197,7.641C124.174,7.66 124.15,7.68 124.127,7.699C124.084,7.738 124.045,7.773 124.006,7.813C123.998,7.82 123.99,7.828 123.982,7.836C123.936,7.887 123.889,7.934 123.842,7.984C123.834,7.996 123.826,8.008 123.818,8.016C123.779,8.059 123.74,8.102 123.705,8.145C123.693,8.164 123.678,8.184 123.666,8.203C123.635,8.242 123.607,8.277 123.58,8.316C123.572,8.332 123.565,8.344 123.553,8.355C123.522,8.402 123.49,8.449 123.463,8.496C123.459,8.504 123.455,8.508 123.451,8.516C123.197,8.934 123.018,9.426 122.904,10.02C122.904,10.027 122.904,10.039 122.9,10.047C122.885,10.121 122.873,10.199 122.861,10.277C122.857,10.301 122.854,10.324 122.854,10.348C122.842,10.414 122.834,10.48 122.826,10.551C122.822,10.59 122.818,10.629 122.815,10.672C122.807,10.727 122.799,10.777 122.795,10.836C122.791,10.895 122.787,10.953 122.783,11.016C122.779,11.055 122.779,11.094 122.775,11.137C122.772,11.219 122.768,11.305 122.764,11.391C122.764,11.414 122.76,11.43 122.76,11.449C122.756,11.559 122.756,11.672 122.756,11.781L122.756,13.324L120.811,13.324C120.69,13.32 120.568,13.344 120.459,13.383C120.107,13.512 119.857,13.844 119.857,14.23C119.857,14.594 120.037,14.902 120.318,15.082C120.459,15.172 120.623,15.227 120.803,15.234L120.811,15.234L120.811,15.238L122.756,15.238L122.756,28.863C122.752,28.883 122.756,28.898 122.756,28.918L122.756,28.953C122.768,29.172 122.857,29.371 123.002,29.523L123.006,29.527C123.025,29.547 123.049,29.566 123.068,29.586C123.072,29.59 123.076,29.59 123.08,29.594C123.096,29.609 123.115,29.621 123.131,29.633C123.139,29.641 123.15,29.648 123.158,29.652C123.166,29.66 123.174,29.664 123.186,29.668C123.338,29.766 123.518,29.82 123.709,29.82C123.74,29.82 123.772,29.816 123.799,29.813C123.982,29.797 124.15,29.719 124.287,29.605L124.291,29.602C124.311,29.586 124.326,29.57 124.342,29.551C124.346,29.547 124.354,29.543 124.357,29.539C124.373,29.523 124.385,29.508 124.397,29.496C124.545,29.316 124.627,29.094 124.615,28.863L124.615,15.238L126.709,15.238L126.709,15.234L126.717,15.234C127.272,15.207 127.678,14.773 127.662,14.234L127.662,14.227C127.666,14.207 127.662,14.188 127.662,14.168L127.662,14.148C127.647,13.941 127.557,13.754 127.416,13.609L127.416,13.605L127.412,13.605C127.393,13.586 127.377,13.57 127.357,13.555C127.35,13.547 127.342,13.543 127.338,13.535C127.322,13.523 127.311,13.516 127.295,13.504C127.283,13.496 127.268,13.484 127.256,13.477C127.248,13.473 127.236,13.465 127.229,13.461C127.209,13.449 127.19,13.438 127.17,13.43C127.166,13.426 127.158,13.422 127.154,13.422C127.131,13.41 127.107,13.398 127.084,13.391C127.08,13.387 127.076,13.387 127.068,13.383C127.045,13.375 127.022,13.367 126.998,13.359C126.99,13.359 126.982,13.355 126.975,13.355C126.951,13.352 126.932,13.344 126.908,13.34C126.897,13.34 126.885,13.34 126.873,13.336C126.857,13.332 126.838,13.332 126.818,13.328L126.775,13.328C126.764,13.328 126.752,13.324 126.74,13.324L124.615,13.324L124.615,11.754C124.619,11.676 124.619,11.598 124.623,11.523C124.623,11.504 124.623,11.48 124.627,11.461C124.627,11.395 124.631,11.328 124.635,11.266C124.635,11.254 124.639,11.238 124.639,11.227C124.643,11.152 124.65,11.078 124.658,11.008C124.732,10.246 124.897,9.766 125.068,9.473C125.072,9.465 125.072,9.461 125.076,9.453C125.088,9.434 125.104,9.414 125.115,9.395C125.123,9.379 125.135,9.363 125.147,9.348C125.15,9.34 125.158,9.324 125.166,9.316C125.186,9.289 125.205,9.266 125.229,9.242C125.475,8.965 125.857,8.797 126.412,8.73C126.42,8.73 126.424,8.727 126.436,8.727C126.467,8.723 126.502,8.719 126.533,8.719C126.549,8.715 126.568,8.715 126.584,8.711C126.615,8.711 126.643,8.707 126.674,8.707C126.697,8.707 126.717,8.703 126.744,8.703C126.772,8.699 126.799,8.699 126.826,8.699C126.854,8.699 126.881,8.695 126.908,8.695L127.111,8.695C127.143,8.695 127.17,8.691 127.201,8.688C127.236,8.691 127.272,8.695 127.307,8.695L127.561,8.695C128.084,8.695 128.514,8.266 128.514,7.738C128.514,7.211 128.084,6.785 127.561,6.785" style="fill:rgb(41,181,232);fill-rule:nonzero;"/>
                <path id="Path8" d="M132.6,6.813C132.6,6.813 132.596,6.809 132.592,6.809C132.572,6.801 132.557,6.793 132.533,6.789C132.525,6.785 132.514,6.781 132.502,6.777C132.486,6.773 132.471,6.77 132.455,6.766C132.44,6.762 132.424,6.754 132.412,6.754C132.393,6.75 132.377,6.746 132.357,6.746C132.342,6.742 132.33,6.742 132.315,6.738C132.283,6.734 132.248,6.734 132.217,6.734C131.709,6.734 131.279,7.16 131.279,7.668L131.279,28.832C131.279,29.344 131.709,29.77 132.217,29.77C132.248,29.77 132.283,29.77 132.315,29.766C132.318,29.766 132.326,29.762 132.33,29.762C132.357,29.758 132.385,29.754 132.412,29.75C132.416,29.75 132.424,29.746 132.432,29.746C132.455,29.738 132.479,29.734 132.502,29.727C132.506,29.727 132.51,29.727 132.514,29.723C132.873,29.609 133.139,29.305 133.178,28.93C133.182,28.898 133.186,28.867 133.186,28.832L133.186,7.668C133.186,7.637 133.182,7.605 133.178,7.574C133.143,7.23 132.916,6.945 132.6,6.813" style="fill:rgb(41,181,232);fill-rule:nonzero;"/>
                <path id="Path9" d="M60.877,24.789C60.869,24.734 60.869,24.684 60.861,24.633C60.857,24.594 60.854,24.559 60.85,24.523C60.842,24.48 60.838,24.441 60.83,24.398C60.822,24.359 60.815,24.32 60.807,24.277C60.803,24.246 60.795,24.211 60.787,24.18C60.775,24.133 60.768,24.09 60.756,24.043C60.748,24.02 60.74,23.992 60.732,23.969C60.721,23.918 60.705,23.871 60.686,23.824C60.682,23.805 60.674,23.785 60.67,23.77C60.65,23.715 60.631,23.664 60.607,23.609C60.604,23.602 60.6,23.59 60.596,23.578C60.568,23.523 60.545,23.465 60.518,23.41C60.514,23.406 60.514,23.402 60.51,23.398C60.287,22.949 59.971,22.574 59.584,22.258C59.584,22.254 59.584,22.254 59.58,22.254C59.525,22.211 59.471,22.164 59.412,22.121C59.412,22.121 59.408,22.117 59.404,22.113C59.4,22.113 59.397,22.109 59.393,22.105C59.357,22.082 59.322,22.055 59.291,22.031C58.811,21.691 58.279,21.422 57.506,21.125C57.494,21.121 57.482,21.117 57.471,21.113C57.459,21.105 57.443,21.102 57.432,21.094C56.994,20.93 56.541,20.773 56.076,20.621L56.072,20.621C56.072,20.621 56.068,20.621 56.068,20.617C56.061,20.617 56.053,20.613 56.041,20.609C55.998,20.594 55.951,20.578 55.889,20.559C55.857,20.551 55.834,20.543 55.811,20.535C55.654,20.48 55.494,20.43 55.334,20.375C55.221,20.336 55.1,20.297 54.955,20.25C54.916,20.238 54.822,20.207 54.744,20.184C54.74,20.184 54.74,20.18 54.736,20.18C54.69,20.164 54.643,20.148 54.592,20.133C54.201,20.008 53.881,19.898 53.607,19.797C53.162,19.633 52.756,19.457 52.424,19.246C52.416,19.242 52.408,19.238 52.404,19.234C51.951,18.945 51.639,18.59 51.565,18.125L51.561,18.121C51.557,18.09 51.553,18.055 51.553,18.023C51.549,18.016 51.549,18.012 51.549,18.008C51.545,17.969 51.545,17.934 51.545,17.895C51.545,17.84 51.549,17.785 51.553,17.734C51.553,17.719 51.553,17.707 51.557,17.695C51.561,17.652 51.565,17.613 51.568,17.574C51.572,17.563 51.572,17.551 51.576,17.539C51.584,17.496 51.592,17.457 51.6,17.414C51.604,17.41 51.604,17.402 51.607,17.395C51.619,17.348 51.631,17.305 51.647,17.262L51.647,17.258C51.85,16.652 52.33,16.203 52.897,15.887C52.936,15.867 52.975,15.848 53.01,15.828C53.049,15.809 53.084,15.789 53.119,15.773C53.178,15.746 53.236,15.719 53.295,15.695C53.33,15.68 53.361,15.664 53.397,15.652C53.459,15.629 53.522,15.605 53.584,15.582C53.615,15.57 53.65,15.559 53.686,15.547C53.748,15.527 53.807,15.508 53.869,15.492C53.908,15.48 53.943,15.469 53.982,15.461C54.041,15.445 54.1,15.434 54.154,15.418C54.193,15.41 54.232,15.402 54.272,15.395C54.334,15.383 54.393,15.371 54.447,15.363C54.482,15.359 54.514,15.355 54.549,15.348C54.615,15.34 54.686,15.332 54.756,15.328C54.772,15.324 54.787,15.324 54.807,15.32C54.893,15.316 54.979,15.313 55.061,15.313C55.158,15.313 55.256,15.316 55.35,15.32L55.393,15.32C56.084,15.363 56.643,15.531 57.104,15.754C57.139,15.77 57.174,15.789 57.209,15.805C57.229,15.816 57.248,15.828 57.268,15.836C57.311,15.859 57.354,15.883 57.4,15.91C57.408,15.914 57.416,15.918 57.424,15.922C57.471,15.949 57.518,15.98 57.565,16.008C57.568,16.012 57.572,16.012 57.572,16.012C57.623,16.043 57.674,16.078 57.725,16.109C57.725,16.113 57.729,16.113 57.729,16.117C57.779,16.148 57.826,16.18 57.873,16.215C57.893,16.23 57.908,16.242 57.928,16.254C58.037,16.336 58.209,16.469 58.365,16.598C58.385,16.609 58.4,16.621 58.412,16.633C58.529,16.73 58.639,16.816 58.744,16.895C58.764,16.91 58.779,16.922 58.791,16.93C58.795,16.934 58.799,16.938 58.803,16.938C58.815,16.945 58.826,16.953 58.838,16.961C58.865,16.98 58.897,17 58.924,17.02C58.936,17.027 58.947,17.031 58.959,17.039C58.986,17.055 59.014,17.07 59.041,17.086C59.053,17.09 59.061,17.094 59.072,17.098C59.104,17.113 59.131,17.125 59.162,17.137C59.17,17.141 59.174,17.141 59.182,17.145C59.217,17.156 59.252,17.168 59.287,17.172L59.291,17.176C59.369,17.188 59.443,17.191 59.522,17.172C59.529,17.172 59.537,17.168 59.545,17.168C59.565,17.164 59.588,17.156 59.607,17.152C59.615,17.148 59.619,17.145 59.627,17.141C59.635,17.141 59.643,17.137 59.65,17.133C59.682,17.117 59.713,17.102 59.744,17.082C59.752,17.082 59.756,17.078 59.76,17.074C59.795,17.051 59.826,17.027 59.857,17L59.861,16.996C59.889,16.973 59.912,16.945 59.936,16.918C59.951,16.898 59.967,16.875 59.979,16.852C59.982,16.848 59.986,16.844 59.986,16.84C60.15,16.566 60.057,16.207 59.768,15.816C59.764,15.809 59.76,15.801 59.752,15.793C59.74,15.777 59.732,15.766 59.721,15.75C59.057,14.891 57.545,13.949 56.143,13.648C56.135,13.648 56.127,13.648 56.119,13.645C56.061,13.633 55.998,13.621 55.94,13.609C55.924,13.609 55.904,13.605 55.889,13.602C55.838,13.594 55.787,13.586 55.736,13.582C55.717,13.578 55.697,13.574 55.678,13.574C55.631,13.57 55.58,13.566 55.533,13.563C55.514,13.559 55.494,13.559 55.479,13.555C55.412,13.555 55.35,13.551 55.287,13.551C55.186,13.551 55.084,13.551 54.986,13.555C54.932,13.555 54.877,13.559 54.818,13.563C54.779,13.566 54.732,13.566 54.693,13.566C54.615,13.574 54.541,13.578 54.467,13.586C54.447,13.586 54.424,13.586 54.404,13.59C54.318,13.598 54.232,13.605 54.15,13.617L54.123,13.617C54.033,13.629 53.947,13.641 53.861,13.656L53.846,13.656C53.76,13.668 53.674,13.684 53.592,13.699C53.588,13.699 53.584,13.703 53.576,13.703C53.4,13.734 53.229,13.773 53.065,13.816C53.061,13.816 53.061,13.82 53.061,13.82C52.979,13.84 52.897,13.863 52.815,13.887C52.736,13.91 52.662,13.938 52.592,13.961C52.584,13.961 52.58,13.965 52.572,13.965C52.502,13.992 52.432,14.016 52.361,14.043C52.354,14.047 52.346,14.051 52.342,14.051C52.272,14.078 52.209,14.105 52.143,14.137C52.135,14.141 52.123,14.141 52.115,14.148C52.057,14.172 51.994,14.203 51.94,14.23C51.924,14.238 51.912,14.242 51.9,14.25C51.842,14.277 51.787,14.305 51.732,14.336C51.717,14.344 51.705,14.352 51.69,14.359C51.639,14.387 51.588,14.418 51.537,14.449C51.522,14.457 51.506,14.465 51.49,14.477C51.424,14.516 51.361,14.559 51.299,14.598C51.225,14.652 51.15,14.703 51.084,14.758C51.076,14.758 51.072,14.762 51.072,14.766C50.74,15.012 50.455,15.273 50.221,15.578C50.213,15.59 50.201,15.602 50.193,15.613C50.166,15.656 50.135,15.695 50.107,15.734C50.088,15.766 50.068,15.797 50.049,15.828C50.033,15.852 50.018,15.875 50.006,15.898C49.975,15.949 49.947,16 49.92,16.055C49.916,16.063 49.912,16.066 49.908,16.074C49.697,16.492 49.576,16.973 49.529,17.555C49.529,17.563 49.529,17.57 49.525,17.578C49.522,17.68 49.514,17.781 49.51,17.891C49.51,17.973 49.51,18.055 49.514,18.137L49.514,18.172C49.557,19.289 50.065,20.129 50.982,20.781C50.99,20.785 50.998,20.793 51.006,20.797C51.045,20.824 51.084,20.852 51.123,20.879C51.15,20.898 51.182,20.914 51.209,20.934C51.217,20.941 51.229,20.945 51.236,20.949C52.143,21.523 53.252,21.852 54.178,22.113C54.631,22.246 55.037,22.359 55.158,22.395C55.186,22.402 55.213,22.41 55.236,22.422C55.791,22.605 56.217,22.754 56.568,22.895C56.596,22.902 56.619,22.914 56.647,22.922C56.654,22.926 56.666,22.93 56.678,22.938C56.877,23.02 57.072,23.105 57.26,23.199C57.416,23.277 57.561,23.359 57.705,23.445C58.076,23.676 58.361,23.926 58.553,24.199C58.561,24.207 58.565,24.215 58.568,24.223C58.588,24.246 58.604,24.27 58.615,24.297C58.627,24.313 58.635,24.324 58.643,24.34C58.654,24.359 58.666,24.379 58.674,24.398C58.686,24.418 58.693,24.441 58.705,24.461C58.713,24.477 58.721,24.492 58.729,24.508C58.736,24.531 58.748,24.555 58.756,24.582C58.76,24.594 58.768,24.609 58.772,24.625C58.779,24.652 58.787,24.68 58.795,24.707C58.799,24.719 58.803,24.73 58.807,24.746C58.815,24.773 58.822,24.805 58.826,24.832C58.83,24.844 58.834,24.859 58.834,24.871C58.838,24.902 58.842,24.934 58.846,24.965C58.85,24.977 58.85,24.988 58.85,25C58.854,25.047 58.857,25.09 58.857,25.137C58.857,25.207 58.854,25.273 58.85,25.34C58.85,25.359 58.846,25.379 58.846,25.398C58.842,25.449 58.834,25.5 58.822,25.551C58.822,25.566 58.818,25.582 58.815,25.598C58.791,25.734 58.752,25.863 58.701,25.992C58.697,25.996 58.697,26 58.697,26.004C58.67,26.063 58.643,26.125 58.611,26.18C58.607,26.188 58.607,26.191 58.604,26.195C58.537,26.32 58.459,26.441 58.361,26.555C58.315,26.613 58.264,26.668 58.213,26.723C58.209,26.723 58.209,26.723 58.209,26.727C58.104,26.832 57.986,26.93 57.865,27.02C57.861,27.023 57.857,27.023 57.857,27.027C57.799,27.066 57.74,27.109 57.682,27.145C57.674,27.152 57.666,27.156 57.658,27.16C57.557,27.223 57.447,27.285 57.338,27.34C57.299,27.359 57.26,27.379 57.217,27.398C57.174,27.418 57.127,27.441 57.08,27.461C57.041,27.477 57.006,27.492 56.967,27.508C56.861,27.547 56.76,27.586 56.654,27.621C56.639,27.625 56.623,27.629 56.607,27.637C56.545,27.656 56.482,27.672 56.42,27.691C56.404,27.695 56.385,27.703 56.369,27.707C56.162,27.762 55.959,27.805 55.768,27.836L55.756,27.836C55.658,27.852 55.565,27.863 55.475,27.875C55.44,27.879 55.408,27.883 55.373,27.883C55.342,27.887 55.311,27.887 55.275,27.891C55.201,27.895 55.123,27.898 55.053,27.898C54.908,27.898 54.768,27.895 54.631,27.887C54.576,27.887 54.522,27.883 54.467,27.879C54.393,27.871 54.315,27.867 54.244,27.859C54.178,27.855 54.107,27.848 54.045,27.84C53.986,27.832 53.932,27.824 53.877,27.816C53.756,27.797 53.643,27.781 53.529,27.758C53.479,27.746 53.424,27.738 53.373,27.727C53.315,27.711 53.256,27.699 53.197,27.684C53.131,27.668 53.068,27.652 53.006,27.633C52.963,27.621 52.916,27.609 52.877,27.598C52.772,27.566 52.666,27.531 52.565,27.492C52.541,27.484 52.518,27.477 52.494,27.469C52.268,27.383 52.045,27.289 51.826,27.18C51.818,27.176 51.807,27.168 51.795,27.164C51.654,27.094 51.416,26.961 51.19,26.832C51.17,26.82 51.147,26.809 51.127,26.797C50.967,26.703 50.83,26.625 50.701,26.563C50.69,26.555 50.682,26.551 50.674,26.547C50.666,26.543 50.658,26.539 50.654,26.539C50.619,26.523 50.592,26.508 50.561,26.496C50.549,26.492 50.541,26.488 50.533,26.484C50.451,26.453 50.377,26.43 50.303,26.422C50.279,26.418 50.256,26.418 50.232,26.418C50.225,26.414 50.217,26.414 50.209,26.414C50.061,26.414 49.932,26.465 49.811,26.578C49.783,26.602 49.76,26.625 49.736,26.652C49.732,26.66 49.725,26.668 49.717,26.676C49.701,26.695 49.69,26.711 49.678,26.727C49.67,26.738 49.662,26.75 49.658,26.758C49.647,26.773 49.635,26.789 49.627,26.805C49.619,26.816 49.615,26.828 49.611,26.84C49.604,26.855 49.596,26.871 49.588,26.887C49.584,26.898 49.58,26.906 49.576,26.918C49.568,26.938 49.565,26.953 49.561,26.969C49.557,26.98 49.553,26.988 49.553,27C49.549,27.02 49.545,27.039 49.541,27.059C49.541,27.066 49.537,27.074 49.537,27.082C49.533,27.109 49.533,27.133 49.533,27.156L49.533,27.168C49.533,27.199 49.537,27.227 49.545,27.258L49.545,27.273C49.553,27.297 49.557,27.324 49.565,27.348C49.568,27.359 49.572,27.371 49.576,27.383C49.584,27.402 49.588,27.426 49.6,27.445C49.604,27.457 49.607,27.465 49.611,27.473C49.662,27.59 49.744,27.711 49.85,27.828C49.963,27.953 50.107,28.078 50.275,28.207C50.279,28.207 50.279,28.207 50.279,28.211C50.326,28.242 50.373,28.277 50.424,28.313C50.436,28.32 50.443,28.328 50.455,28.332C50.592,28.426 50.736,28.516 50.9,28.609C50.94,28.633 50.979,28.656 51.018,28.676C51.057,28.699 51.096,28.719 51.135,28.738C51.182,28.766 51.236,28.793 51.287,28.82C51.322,28.836 51.354,28.855 51.389,28.871C51.467,28.91 51.549,28.949 51.631,28.988C51.643,28.996 51.65,29 51.662,29.004C51.752,29.047 51.842,29.086 51.932,29.121C51.971,29.137 52.006,29.152 52.045,29.168C52.053,29.172 52.061,29.176 52.068,29.176C52.904,29.504 53.936,29.723 54.846,29.762C54.912,29.766 54.982,29.77 55.049,29.77L55.053,29.77C55.084,29.77 55.111,29.77 55.143,29.766L55.354,29.766C55.361,29.766 55.369,29.766 55.377,29.762C56.857,29.715 58.072,29.332 59.107,28.574L59.107,28.57C60.256,27.703 60.889,26.48 60.889,25.133C60.889,25.047 60.885,24.961 60.881,24.879C60.881,24.848 60.877,24.816 60.877,24.789" style="fill:rgb(41,181,232);fill-rule:nonzero;"/>
                <path id="Path10" d="M70.428,13.582L70.416,13.582C68.596,13.582 66.877,14.324 65.635,15.637L65.635,14.52C65.635,14.004 65.236,13.582 64.732,13.582C64.697,13.582 64.666,13.586 64.635,13.586C64.412,13.609 64.217,13.707 64.072,13.852C64.068,13.852 64.068,13.852 64.065,13.855C64.053,13.871 64.037,13.887 64.025,13.902C64.018,13.906 64.01,13.914 64.006,13.922C63.994,13.934 63.986,13.945 63.979,13.957C63.971,13.969 63.963,13.98 63.951,13.992C63.947,14 63.943,14.008 63.94,14.016C63.928,14.035 63.916,14.055 63.904,14.07C63.904,14.074 63.904,14.078 63.9,14.082C63.889,14.105 63.877,14.129 63.865,14.152C63.846,14.211 63.826,14.27 63.815,14.328C63.815,14.332 63.815,14.336 63.811,14.336C63.807,14.367 63.803,14.395 63.799,14.422C63.799,14.453 63.795,14.484 63.795,14.52L63.795,29.027L63.783,29.09L63.83,29.129C63.83,29.148 63.834,29.176 63.846,29.203C63.846,29.207 63.85,29.215 63.85,29.219C63.857,29.238 63.869,29.262 63.889,29.281C64.01,29.512 64.232,29.688 64.494,29.766L64.514,29.77L64.732,29.77C64.768,29.77 64.803,29.77 64.838,29.766C64.861,29.762 64.885,29.754 64.908,29.75C64.92,29.75 64.928,29.75 64.94,29.746C64.971,29.738 65.002,29.73 65.033,29.719L65.037,29.719C65.201,29.66 65.342,29.559 65.436,29.422C65.44,29.418 65.443,29.414 65.447,29.41C65.51,29.344 65.545,29.273 65.58,29.176C65.584,29.164 65.588,29.156 65.588,29.148C65.592,29.145 65.592,29.145 65.592,29.141C65.607,29.094 65.619,29.047 65.631,29L65.635,28.984L65.635,20.203C65.697,17.586 67.838,15.457 70.408,15.453L70.416,15.453C73.033,15.453 75.162,17.582 75.162,20.199L75.162,28.832C75.162,28.867 75.166,28.898 75.17,28.93C75.19,29.156 75.287,29.352 75.432,29.496C75.432,29.496 75.436,29.496 75.436,29.5C75.451,29.516 75.467,29.527 75.482,29.543C75.49,29.551 75.494,29.555 75.502,29.559C75.514,29.57 75.525,29.578 75.537,29.586C75.549,29.598 75.561,29.605 75.572,29.613C75.584,29.617 75.592,29.621 75.6,29.629C75.615,29.641 75.635,29.648 75.65,29.66C75.654,29.66 75.658,29.664 75.666,29.664C75.686,29.676 75.709,29.688 75.732,29.699L75.736,29.699C75.791,29.723 75.85,29.738 75.908,29.75C75.916,29.75 75.92,29.754 75.924,29.754C75.951,29.758 75.975,29.762 76.002,29.766C76.033,29.77 76.065,29.77 76.1,29.77C76.131,29.77 76.162,29.77 76.193,29.766C76.221,29.762 76.248,29.758 76.272,29.754C76.275,29.754 76.283,29.75 76.287,29.75C76.35,29.738 76.404,29.723 76.463,29.699C76.486,29.688 76.51,29.676 76.533,29.664C76.537,29.664 76.541,29.66 76.545,29.66C76.565,29.648 76.58,29.641 76.6,29.629C76.607,29.621 76.615,29.617 76.623,29.613C76.635,29.605 76.647,29.598 76.658,29.586C76.67,29.578 76.686,29.57 76.697,29.559C76.701,29.555 76.709,29.551 76.713,29.543C76.729,29.527 76.748,29.516 76.764,29.5L76.764,29.496C76.912,29.352 77.01,29.156 77.029,28.93C77.033,28.898 77.033,28.867 77.033,28.832L77.033,20.199C77.033,16.555 74.072,13.59 70.428,13.582" style="fill:rgb(41,181,232);fill-rule:nonzero;"/>
                <path id="Combined-Shape4" d="M87.279,13.551C91.522,13.551 94.971,17.188 94.971,21.66C94.971,26.133 91.522,29.77 87.279,29.77C87.147,29.77 87.018,29.766 86.889,29.758C86.869,29.758 86.854,29.758 86.834,29.754C86.721,29.75 86.607,29.738 86.498,29.727L86.486,29.727C84.811,29.543 83.244,28.777 81.998,27.523C81.947,27.473 81.893,27.422 81.846,27.367C81.842,27.367 81.842,27.363 81.838,27.363C81.811,27.336 81.787,27.305 81.76,27.273C81.701,27.211 81.643,27.145 81.584,27.078C81.537,27.027 81.494,26.969 81.447,26.914C81.416,26.871 81.381,26.828 81.346,26.785C81.275,26.699 81.209,26.609 81.147,26.52C81.139,26.508 81.131,26.496 81.123,26.484C80.361,25.418 79.865,24.188 79.678,22.883C79.658,22.762 79.647,22.641 79.635,22.52C79.631,22.508 79.631,22.492 79.627,22.477C79.615,22.363 79.607,22.254 79.604,22.141C79.6,22.117 79.6,22.094 79.6,22.066C79.592,21.934 79.588,21.797 79.588,21.66C79.588,21.523 79.592,21.387 79.6,21.254C79.6,21.227 79.6,21.203 79.604,21.18C79.607,21.066 79.615,20.953 79.627,20.844C79.631,20.828 79.631,20.813 79.635,20.801C79.647,20.68 79.658,20.559 79.678,20.438C79.865,19.133 80.361,17.902 81.123,16.836C81.127,16.824 81.135,16.813 81.143,16.805C81.209,16.711 81.275,16.621 81.346,16.531C81.377,16.492 81.412,16.453 81.443,16.41C81.49,16.352 81.537,16.297 81.584,16.238C81.639,16.176 81.693,16.117 81.752,16.055C81.779,16.023 81.811,15.988 81.838,15.957C81.842,15.957 81.842,15.953 81.846,15.953C81.889,15.902 81.94,15.855 81.986,15.809C83.232,14.551 84.803,13.777 86.486,13.594L86.498,13.594C86.607,13.582 86.721,13.574 86.834,13.566C86.854,13.566 86.869,13.563 86.889,13.563C87.018,13.555 87.147,13.551 87.279,13.551ZM93.068,21.023L93.068,21.016C92.932,19.609 92.354,18.34 91.49,17.359C91.451,17.316 91.416,17.273 91.377,17.23C91.354,17.207 91.33,17.184 91.307,17.16C91.26,17.113 91.217,17.066 91.17,17.02C91.127,16.977 91.08,16.938 91.037,16.898C91.01,16.875 90.986,16.848 90.959,16.824C90.889,16.762 90.818,16.703 90.748,16.645C90.748,16.645 90.744,16.645 90.744,16.641C89.928,15.98 88.947,15.547 87.893,15.426C87.881,15.426 87.873,15.422 87.865,15.422C87.783,15.41 87.705,15.406 87.623,15.402C87.604,15.398 87.588,15.398 87.572,15.398C87.475,15.391 87.377,15.391 87.279,15.391C87.182,15.391 87.084,15.391 86.986,15.398C86.971,15.398 86.955,15.398 86.936,15.402C86.854,15.406 86.775,15.41 86.693,15.422C86.686,15.422 86.678,15.426 86.666,15.426C85.611,15.547 84.631,15.98 83.815,16.641C83.815,16.645 83.811,16.645 83.811,16.645C83.74,16.703 83.67,16.762 83.6,16.824C83.572,16.848 83.549,16.871 83.522,16.895C83.479,16.938 83.432,16.977 83.389,17.02C83.346,17.063 83.303,17.109 83.256,17.156C83.232,17.18 83.209,17.203 83.182,17.23C83.147,17.27 83.111,17.313 83.072,17.355C82.209,18.336 81.627,19.609 81.49,21.016L81.49,21.023C81.482,21.113 81.475,21.203 81.471,21.297C81.471,21.313 81.467,21.328 81.467,21.344C81.463,21.449 81.459,21.555 81.459,21.66C81.459,25.094 84.1,27.898 87.279,27.898C90.459,27.898 93.1,25.094 93.1,21.66C93.1,21.555 93.096,21.449 93.092,21.344C93.092,21.328 93.088,21.313 93.088,21.297C93.084,21.203 93.076,21.113 93.068,21.023Z" style="fill:rgb(41,181,232);fill-rule:nonzero;"/>
                <path id="Path11" d="M117.576,13.953C117.568,13.945 117.565,13.938 117.557,13.93C117.463,13.813 117.338,13.719 117.197,13.66L117.193,13.66C117.178,13.648 117.158,13.645 117.143,13.637C117.135,13.637 117.127,13.633 117.115,13.629C116.99,13.586 116.854,13.578 116.721,13.598L116.717,13.598C116.447,13.641 116.19,13.805 116.045,14.047L116.041,14.047C116.022,14.086 115.998,14.125 115.982,14.164L115.979,14.168L115.979,14.172L111.502,26.426L107.986,18.059C107.951,17.98 107.904,17.91 107.85,17.844C107.658,17.621 107.365,17.48 107.065,17.48C107.018,17.48 106.975,17.48 106.928,17.492L106.912,17.492C106.6,17.547 106.307,17.766 106.174,18.059L106.174,18.063L102.658,26.43L100.955,21.801L98.15,14.172C98.135,14.129 98.119,14.094 98.1,14.055C98.096,14.051 98.096,14.051 98.092,14.047C98.006,13.887 97.869,13.762 97.705,13.684C97.705,13.684 97.701,13.684 97.701,13.68C97.619,13.645 97.533,13.617 97.443,13.602C97.436,13.602 97.432,13.602 97.424,13.598C97.381,13.594 97.334,13.59 97.291,13.59L97.26,13.59C97.24,13.59 97.221,13.59 97.201,13.594C97.19,13.594 97.174,13.598 97.162,13.598C97.143,13.602 97.127,13.602 97.111,13.605C97.1,13.609 97.088,13.609 97.076,13.613C97.057,13.617 97.037,13.621 97.018,13.629C97.01,13.633 97.002,13.633 96.994,13.637C96.975,13.645 96.955,13.648 96.936,13.66L96.932,13.66C96.772,13.73 96.643,13.852 96.549,13.992C96.545,14 96.541,14.004 96.537,14.012C96.533,14.02 96.529,14.027 96.525,14.035C96.455,14.152 96.412,14.289 96.397,14.426C96.381,14.57 96.4,14.723 96.459,14.863L99.705,23.586L101.787,29.18L101.787,29.184C101.873,29.395 101.998,29.539 102.17,29.617C102.174,29.621 102.182,29.625 102.186,29.629C102.19,29.633 102.193,29.637 102.201,29.641C102.201,29.645 102.205,29.645 102.209,29.648C102.217,29.652 102.221,29.656 102.229,29.664L102.236,29.664C102.268,29.684 102.307,29.699 102.357,29.703C102.361,29.703 102.365,29.707 102.369,29.707C102.385,29.711 102.4,29.719 102.416,29.723C102.424,29.723 102.432,29.727 102.44,29.727C102.537,29.758 102.6,29.77 102.678,29.77C102.721,29.77 102.76,29.766 102.803,29.758C102.834,29.754 102.869,29.746 102.9,29.734C102.908,29.73 102.916,29.73 102.924,29.727C102.955,29.719 102.986,29.707 103.018,29.691C103.029,29.688 103.041,29.684 103.053,29.676C103.072,29.664 103.096,29.652 103.119,29.641C103.135,29.629 103.154,29.617 103.174,29.605C103.186,29.598 103.197,29.586 103.209,29.578C103.236,29.559 103.26,29.539 103.287,29.516C103.291,29.512 103.295,29.508 103.299,29.5C103.326,29.473 103.354,29.445 103.381,29.414C103.381,29.41 103.385,29.406 103.389,29.402C103.412,29.371 103.436,29.336 103.455,29.301C103.475,29.262 103.494,29.219 103.51,29.176L103.514,29.164L103.525,29.148L103.537,29.121L107.065,20.699L110.623,29.152C110.65,29.238 110.693,29.316 110.752,29.391C110.76,29.402 110.768,29.41 110.775,29.422C110.795,29.445 110.815,29.469 110.838,29.492C110.85,29.5 110.861,29.512 110.873,29.52C110.893,29.539 110.916,29.559 110.94,29.578C110.951,29.586 110.959,29.594 110.971,29.598C110.998,29.617 111.025,29.637 111.053,29.652C111.061,29.656 111.068,29.66 111.076,29.664C111.107,29.68 111.135,29.695 111.17,29.707C111.178,29.711 111.186,29.715 111.197,29.715C111.225,29.727 111.252,29.738 111.283,29.746C111.322,29.754 111.361,29.762 111.397,29.77L111.514,29.77C111.561,29.77 111.604,29.766 111.647,29.758C111.658,29.758 111.666,29.758 111.678,29.754C111.717,29.746 111.752,29.738 111.787,29.727C111.799,29.723 111.807,29.719 111.815,29.715C111.854,29.703 111.893,29.684 111.928,29.664C111.932,29.664 111.936,29.66 111.94,29.66C111.982,29.633 112.025,29.605 112.061,29.578C112.217,29.461 112.33,29.309 112.408,29.121L112.408,29.117L114.607,23.195L117.701,14.863C117.822,14.57 117.775,14.25 117.607,14C117.6,13.984 117.588,13.969 117.576,13.953" style="fill:rgb(41,181,232);fill-rule:nonzero;"/>
                <path id="Path12" d="M167.252,14.215C167.252,14.199 167.248,14.18 167.244,14.164C167.244,14.152 167.24,14.141 167.236,14.129C167.232,14.109 167.229,14.09 167.225,14.074C167.221,14.063 167.217,14.051 167.213,14.043C167.209,14.02 167.201,14 167.19,13.98C167.19,13.973 167.186,13.969 167.182,13.961C167.17,13.934 167.158,13.91 167.143,13.887L167.143,13.883C167.096,13.801 167.037,13.73 166.971,13.668L166.963,13.66C166.631,13.328 166.162,13.285 165.795,13.543C165.783,13.551 165.775,13.559 165.764,13.563C165.748,13.574 165.732,13.586 165.717,13.598C165.693,13.621 165.67,13.641 165.647,13.664C165.647,13.664 165.643,13.664 165.643,13.668L156.49,22.59L156.49,7.668C156.49,7.637 156.49,7.605 156.486,7.574C156.451,7.23 156.221,6.945 155.908,6.813C155.904,6.813 155.904,6.809 155.9,6.809C155.881,6.801 155.861,6.793 155.842,6.789C155.834,6.785 155.822,6.781 155.811,6.777C155.795,6.773 155.779,6.77 155.76,6.766C155.748,6.762 155.732,6.758 155.717,6.754C155.701,6.75 155.682,6.746 155.666,6.746C155.65,6.742 155.639,6.742 155.623,6.738C155.588,6.734 155.557,6.734 155.525,6.734C155.014,6.734 154.588,7.16 154.588,7.668L154.588,28.832C154.588,29.344 155.014,29.77 155.525,29.77C155.557,29.77 155.592,29.77 155.623,29.766C155.627,29.766 155.631,29.762 155.639,29.762C155.666,29.758 155.693,29.758 155.717,29.75C155.725,29.75 155.732,29.746 155.74,29.746C155.764,29.738 155.787,29.734 155.811,29.727C155.815,29.727 155.818,29.723 155.822,29.723C156.182,29.609 156.447,29.301 156.486,28.93C156.49,28.898 156.49,28.867 156.49,28.832L156.49,25.262L159.572,22.184L165.561,29.41C165.6,29.473 165.643,29.527 165.697,29.57C165.709,29.582 165.717,29.59 165.729,29.598C165.744,29.609 165.76,29.621 165.775,29.629C165.795,29.645 165.815,29.652 165.834,29.664C165.842,29.668 165.854,29.676 165.861,29.68C165.889,29.691 165.912,29.699 165.94,29.711C165.947,29.715 165.955,29.715 165.959,29.719C165.99,29.727 166.018,29.734 166.049,29.742C166.053,29.742 166.061,29.746 166.068,29.746C166.1,29.754 166.127,29.758 166.162,29.762C166.17,29.762 166.178,29.762 166.186,29.766C166.225,29.766 166.264,29.77 166.307,29.77C166.369,29.77 166.428,29.766 166.482,29.758L166.486,29.758C166.596,29.742 166.697,29.707 166.791,29.66C166.795,29.66 166.795,29.656 166.795,29.656C166.838,29.633 166.881,29.605 166.924,29.574L166.936,29.563C167.291,29.207 167.346,28.723 167.088,28.32C167.065,28.285 167.041,28.25 167.014,28.215L160.932,20.828L166.971,14.992C167.131,14.828 167.229,14.629 167.252,14.414C167.252,14.41 167.252,14.406 167.256,14.402L167.256,14.34C167.256,14.328 167.26,14.316 167.26,14.309L167.26,14.293C167.26,14.277 167.256,14.266 167.256,14.25C167.256,14.238 167.252,14.227 167.252,14.215" style="fill:rgb(41,181,232);fill-rule:nonzero;"/>
            </g>
        </g>
    </g>
</svg>
