<?xml version="1.0" encoding="UTF-8" standalone="no"?>
<!DOCTYPE svg PUBLIC "-//W3C//DTD SVG 1.1//EN" "http://www.w3.org/Graphics/SVG/1.1/DTD/svg11.dtd">
<svg width="100%" height="100%" viewBox="0 0 100 52" version="1.1" xmlns="http://www.w3.org/2000/svg" xmlns:xlink="http://www.w3.org/1999/xlink" xml:space="preserve" xmlns:serif="http://www.serif.com/" style="fill-rule:evenodd;clip-rule:evenodd;stroke-linejoin:round;stroke-miterlimit:2;">
    <g id="spark" transform="matrix(1.33,0,0,1.33,-157,-81.5338)">
        <g transform="matrix(0.235086,0,0,0.235086,118.756,61.6054)">
            <path d="M284,81.5C283.731,80.925 283.61,80.636 283.465,80.36C279.575,72.96 275.695,65.56 271.765,58.16C271.371,57.418 271.421,56.98 271.96,56.34C278.15,49.11 284.26,41.84 290.46,34.64C290.679,34.386 290.874,34.117 290.956,33.664C289.156,34.133 287.356,34.597 285.546,35.074C278.076,37.054 270.546,39.024 263.146,41.034C262.451,41.221 262.136,41.018 261.786,40.44C257.546,33.35 253.276,26.24 248.986,19.24C248.767,18.873 248.528,18.517 248.06,18.21C247.716,20.1 247.368,21.98 247.03,23.87C245.84,30.54 244.65,37.17 243.47,43.87C243.341,44.589 243.165,45.31 243.103,46.03C243.044,46.718 242.689,46.972 242.063,47.17C233.253,49.94 224.463,52.73 215.663,55.52C215.277,55.641 214.898,55.801 214.483,56.176C221.683,59.036 228.883,61.896 236.183,64.806C235.917,65.017 235.741,65.181 235.546,65.306C231.046,68.216 226.536,71.126 222.046,74.046C221.507,74.398 221.081,74.448 220.476,74.175C215.096,71.755 209.676,69.375 204.276,66.975C201.856,65.895 199.686,64.465 197.996,62.385C194.166,57.705 194.926,52.385 200.026,49.085C201.696,48.015 203.596,47.225 205.486,46.605C214.116,43.795 222.786,41.085 231.386,38.365C232.112,38.134 232.446,37.81 232.586,37.025C233.746,30.345 234.936,23.625 236.146,17.025C236.79,13.455 237.13,9.805 238.866,6.525C239.531,5.265 240.326,4.035 241.286,2.985C244.726,-0.835 249.516,-0.975 253.186,2.657C254.416,3.887 255.466,5.327 256.376,6.817C260.376,13.347 264.316,19.917 268.276,26.517C268.741,27.294 269.159,27.45 270.016,27.224C279.666,24.634 289.316,22.084 299.016,19.534C301.016,19.007 303.026,18.816 305.076,19.199C309.526,20.031 311.476,23.419 309.966,27.729C309.283,29.689 308.096,31.339 306.766,32.909C300.026,40.839 293.266,48.809 286.566,56.709C286.015,57.357 286.004,57.819 286.386,58.549C290.426,66.159 294.426,73.749 298.486,81.449C299.447,83.269 300.186,85.169 300.206,87.259C300.253,92.019 296.766,95.919 292.036,96.619C289.386,97.006 286.926,96.44 284.436,95.674C278.386,93.804 272.336,91.964 266.236,90.134C265.673,89.966 265.458,89.743 265.357,89.138C264.661,84.868 263.897,80.608 263.157,76.338C263.138,76.221 263.173,76.096 263.193,75.834C270.103,77.744 276.993,79.624 284.093,81.594" style="fill:rgb(226,90,28);"/>
        </g>
        <g transform="matrix(0.235086,0,0,0.235086,118.756,61.6054)">
            <path d="M272,144C266.54,143.992 261.1,143.965 255.6,143.989C254.877,143.989 254.47,143.782 254.07,143.168C247.61,133.328 241.07,123.468 234.67,113.668C234.463,113.356 234.244,113.055 233.877,112.528C232.487,123.128 231.117,133.528 229.747,143.928L215.447,143.928C215.615,142.538 215.764,141.188 215.94,139.848C217.33,129.148 218.74,118.548 220.14,107.848C221.48,97.648 222.81,87.448 224.17,77.248C224.209,76.947 224.412,76.56 224.658,76.4C229.578,73.19 234.518,70.01 239.458,66.83C239.529,66.783 239.63,66.779 239.884,66.705C238.394,78.105 236.914,89.405 235.424,100.705C235.483,100.744 235.541,100.787 235.6,100.826C243.35,92.246 251.1,83.626 259,74.926C259.227,76.246 259.426,77.376 259.621,78.506C260.176,81.736 260.711,84.986 261.301,88.216C261.422,88.868 261.246,89.266 260.813,89.726C255.803,94.966 250.813,100.226 245.813,105.526C245.594,105.757 245.387,105.995 245.137,106.269C245.297,106.522 245.434,106.769 245.594,106.995C254.204,119.095 262.794,131.195 271.394,143.295C271.55,143.514 271.776,143.686 271.968,143.881L271.968,144.072" style="fill:rgb(60,58,62);"/>
        </g>
        <g transform="matrix(0.235086,0,0,0.235086,118.756,61.6054)">
            <path d="M103,112C102.781,110.89 102.625,109.25 102.129,107.72C99.729,100.33 92.159,96.32 84.329,98.11C75.719,100.11 69.529,106.88 68.729,115.71C68.069,122.21 71.569,128.51 78.069,130.81C83.309,132.7 88.369,131.91 93.069,129.1C99.279,125.38 102.639,119.85 103.069,112L103,112ZM65.2,139.5C64.778,142.68 64.372,145.67 63.98,148.67C63.457,152.65 62.93,156.64 62.43,160.67C62.372,161.135 62.231,161.342 61.731,161.338C57.801,161.323 53.871,161.327 49.931,161.319C49.841,161.319 49.751,161.272 49.54,161.21C49.778,159.33 50.009,157.44 50.255,155.56C51.122,148.96 51.985,142.36 52.865,135.76C53.875,128.2 54.665,120.66 55.955,113.16C58.235,99.86 69.555,88.46 82.755,85.56C90.425,83.9 97.755,84.669 104.455,88.99C111.135,93.29 114.955,99.59 115.855,107.39C117.095,118.49 113.005,127.69 105.155,135.39C99.975,140.4 93.755,143.58 86.655,144.66C79.285,145.77 72.355,144.543 66.155,140.2C65.928,140.04 65.682,139.9 65.292,139.654" style="fill:rgb(60,58,62);"/>
        </g>
        <g transform="matrix(0.235086,0,0,0.235086,118.756,61.6054)">
            <path d="M58.6,76.5C54.2,79.78 49.95,82.94 45.7,86.11C45.013,85.03 44.4,83.95 43.68,82.94C41.83,80.35 39.53,78.42 36.19,78.19C33.41,77.994 31.03,78.908 29.14,80.96C27.45,82.79 27.23,85.4 28.808,87.47C30.548,89.75 32.448,91.91 34.398,94.02C37.628,97.52 40.998,100.88 44.198,104.42C47.108,107.62 49.438,111.2 50.158,115.62C51.014,120.82 49.975,125.72 47.518,130.32C42.968,138.77 35.818,143.72 26.318,145.22C22.138,145.895 17.978,145.763 13.918,144.563C8.508,142.973 4.738,139.423 2.318,134.463C1.463,132.693 0.808,130.823 0.038,128.923C4.768,126.393 9.378,123.923 14.038,121.433C14.198,121.82 14.315,122.144 14.464,122.453C15.261,124.043 15.914,125.733 16.894,127.203C19.824,131.553 24.544,132.873 29.294,130.723C30.524,130.168 31.714,129.393 32.724,128.493C35.804,125.753 36.384,121.933 34.104,118.493C32.794,116.513 31.154,114.733 29.554,112.963C25.734,108.723 21.754,104.613 18.054,100.263C15.484,97.283 13.734,93.823 13.174,89.863C12.569,85.503 13.44,81.403 15.704,77.763C21.334,68.653 29.504,63.963 40.304,64.263C46.474,64.486 51.404,67.373 55.204,72.173C56.334,73.593 57.394,75.063 58.544,76.603" style="fill:rgb(60,58,62);"/>
        </g>
        <g transform="matrix(0.235086,0,0,0.235086,118.756,61.6054)">
            <path d="M163,125C162.281,130.49 161.6,135.7 160.9,140.9C160.861,141.166 160.654,141.525 160.431,141.627C149.731,146.567 135.731,145.877 127.031,135.937C122.331,130.597 120.361,124.237 120.651,117.237C121.334,100.937 134.851,86.637 151.051,84.637C160.501,83.477 168.751,86.027 175.151,93.377C179.511,98.377 181.531,104.377 181.231,110.977C181.036,115.337 180.352,119.667 179.811,123.977C179.041,130.117 178.201,136.277 177.391,142.377C177.36,142.591 177.317,142.81 177.266,143.088L164.566,143.088C164.734,141.678 164.89,140.298 165.07,138.918C165.992,131.828 167.01,124.718 167.82,117.618C168.324,113.198 168.007,108.808 165.98,104.718C163.83,100.368 160.23,98.058 155.48,97.558C145.66,96.518 136.28,103.338 134.28,112.958C132.9,119.338 135.077,125.458 140.16,128.858C145.11,132.148 150.36,132.158 155.76,130.028C158.5,128.948 160.82,127.228 163.04,124.918" style="fill:rgb(60,58,62);"/>
        </g>
        <g transform="matrix(0.235086,0,0,0.235086,118.756,61.6054)">
            <path d="M217,86.3C216.418,90.72 215.84,95.07 215.26,99.5C212.56,99.5 209.92,99.485 207.28,99.504C205.14,99.52 203.19,100.904 202.54,102.904C202.29,103.685 202.197,104.524 202.087,105.344C200.747,115.544 199.417,125.644 198.087,135.744C197.751,138.304 197.427,140.864 197.091,143.464L183.791,143.464C184.037,141.514 184.271,139.624 184.517,137.734C185.38,131.154 186.247,124.534 187.117,118.034C187.871,112.344 188.547,106.634 189.437,100.934C190.627,93.334 198.187,86.534 205.837,86.234C209.497,86.074 213.167,86.207 216.937,86.207" style="fill:rgb(60,58,62);"/>
        </g>
        <g transform="matrix(0.235086,0,0,0.235086,118.756,61.6054)">
            <path d="M288,144L288,138.4L287.969,138.4L285.769,144L285.07,144L282.87,138.4L282.835,138.4L282.835,144L281.735,144L281.735,137.29L283.445,137.29L285.445,142.39L287.415,137.29L289.115,137.29L289.115,144L288,144ZM278.26,138.19L278.26,144L277.16,144L277.16,138.19L275.06,138.19L275.06,137.291L280.37,137.291L280.37,138.19L278.27,138.19" style="fill:rgb(60,58,62);fill-rule:nonzero;"/>
        </g>
        <g transform="matrix(0.235086,0,0,0.235086,118.756,61.6054)">
            <path d="M76.3,67.1L79.59,67.1L78.812,62.12L76.3,67.1ZM80.11,70.32L74.64,70.32L72.9,73.73L69.02,73.73L77.57,57.73L81.31,57.73L84.22,73.73L80.63,73.73L80.114,70.32" style="fill:rgb(60,58,62);fill-rule:nonzero;"/>
        </g>
        <g transform="matrix(0.235086,0,0,0.235086,118.756,61.6054)">
            <path d="M99.7,61L97.75,61L97.094,64.69L99.044,64.69C100.224,64.69 101.154,63.917 101.154,62.46C101.154,61.495 100.568,61 99.694,61L99.7,61ZM94.98,57.78L100.1,57.78C102.78,57.78 104.65,59.38 104.65,62.12C104.65,65.58 102.21,67.9 98.73,67.9L96.52,67.9L95.48,73.75L92.14,73.75L94.96,57.75" style="fill:rgb(60,58,62);fill-rule:nonzero;"/>
        </g>
        <g transform="matrix(0.235086,0,0,0.235086,118.756,61.6054)">
            <path d="M116,67.1L119.29,67.1L118.513,62.12L116,67.1ZM119.8,70.32L114.33,70.32L112.59,73.73L108.71,73.73L117.26,57.73L121,57.73L123.91,73.73L120.32,73.73L119.804,70.32" style="fill:rgb(60,58,62);fill-rule:nonzero;"/>
        </g>
        <g transform="matrix(0.235086,0,0,0.235086,118.756,61.6054)">
            <path d="M141,73.2C139.87,73.716 138.63,74.024 137.38,74.024C133.15,74.024 130.5,70.854 130.5,66.884C130.5,61.804 134.77,57.534 139.85,57.534C141.12,57.534 142.27,57.839 143.21,58.354L142.741,62.184C142.038,61.407 140.901,60.864 139.501,60.864C136.591,60.864 134.001,63.494 134.001,66.544C134.001,68.864 135.461,70.684 137.761,70.684C139.171,70.684 140.531,70.141 141.451,69.394L141.006,73.194" style="fill:rgb(60,58,62);fill-rule:nonzero;"/>
        </g>
        <g transform="matrix(0.235086,0,0,0.235086,118.756,61.6054)">
            <path d="M162,67.3L155.05,67.3L153.92,73.73L150.59,73.73L153.41,57.73L156.75,57.73L155.63,64.05L162.58,64.05L163.71,57.73L167.05,57.73L164.23,73.73L160.89,73.73L162.01,67.3" style="fill:rgb(60,58,62);fill-rule:nonzero;"/>
        </g>
        <g transform="matrix(0.235086,0,0,0.235086,118.756,61.6054)">
            <path d="M174,73.7L176.82,57.7L185.68,57.7L185.117,60.92L179.597,60.92L179.034,64.02L184.104,64.02L183.541,67.24L178.471,67.24L177.908,70.46L183.428,70.46L182.865,73.68L174.005,73.68" style="fill:rgb(60,58,62);fill-rule:nonzero;"/>
        </g>
    </g>
</svg>
