<svg xmlns="http://www.w3.org/2000/svg" width="2500" height="663" viewBox="0 0 358 95"><title>Untitled 33</title><path d="M0 23.838V13.367h46.4v10.471H29.426V70H16.974V23.838H0" fill="#33393f"/><path d="M58.252 82.215c-2.169 1.428-5.183 2.141-9.042 2.141-1.164 0-2.314-.039-3.45-.119-1.138-.08-2.288-.172-3.45-.277v-9.28c1.057.105 2.141.211 3.252.316 1.11.105 2.22.132 3.331.08 1.479-.158 2.578-.741 3.292-1.745A5.628 5.628 0 0 0 53.255 70c0-.898-.159-1.746-.476-2.539L38.423 28.993H50.4l9.28 28.077h.158l8.963-28.077H80.46L63.328 75.076c-1.217 3.33-2.909 5.71-5.076 7.139M95.168 28.993v5.235h.159c1.374-2.221 3.119-3.834 5.234-4.838s4.442-1.507 6.981-1.507c3.224 0 6 .608 8.328 1.824 2.326 1.217 4.256 2.83 5.79 4.838 1.533 2.01 2.669 4.35 3.41 7.02.74 2.671 1.111 5.46 1.111 8.369 0 2.75-.371 5.393-1.111 7.93-.741 2.539-1.864 4.787-3.371 6.742-1.507 1.957-3.384 3.518-5.631 4.68-2.248 1.162-4.878 1.746-7.892 1.746-2.538 0-4.878-.516-7.02-1.547s-3.9-2.551-5.274-4.561h-.159v20.072H84.46V28.993h10.708zm14.639 32.482a9.023 9.023 0 0 0 3.014-2.896c.766-1.19 1.309-2.577 1.626-4.164.318-1.587.477-3.199.477-4.839a22.76 22.76 0 0 0-.516-4.838c-.345-1.586-.912-3.001-1.706-4.244a9.524 9.524 0 0 0-3.054-3.014c-1.242-.765-2.763-1.15-4.56-1.15-1.852 0-3.398.385-4.64 1.15a9.274 9.274 0 0 0-3.014 2.975c-.767 1.217-1.308 2.617-1.626 4.203a25.048 25.048 0 0 0-.476 4.918c0 1.64.171 3.252.516 4.839.343 1.587.898 2.974 1.665 4.164.766 1.19 1.785 2.155 3.054 2.896 1.269.74 2.802 1.109 4.6 1.109 1.851 0 3.397-.369 4.64-1.109zM144.219 60.164c1.691 1.641 4.125 2.459 7.297 2.459 2.274 0 4.23-.566 5.87-1.705 1.638-1.137 2.643-2.34 3.013-3.609h9.915c-1.587 4.918-4.02 8.436-7.297 10.549-3.279 2.115-7.244 3.174-11.897 3.174-3.226 0-6.135-.516-8.724-1.547-2.592-1.031-4.787-2.498-6.583-4.402-1.798-1.902-3.186-4.178-4.165-6.82-.979-2.645-1.467-5.553-1.467-8.726 0-3.066.502-5.921 1.507-8.565 1.004-2.645 2.432-4.931 4.283-6.862 1.85-1.929 4.057-3.45 6.623-4.56 2.563-1.112 5.405-1.666 8.526-1.666 3.49 0 6.53.674 9.12 2.022 2.591 1.349 4.72 3.161 6.385 5.433 1.666 2.274 2.868 4.866 3.609 7.773.74 2.91 1.004 5.95.793 9.122h-29.584c.159 3.647 1.084 6.291 2.776 7.93zm12.731-21.573c-1.349-1.481-3.398-2.222-6.146-2.222-1.799 0-3.292.305-4.482.912-1.189.61-2.141 1.363-2.854 2.261-.714.899-1.217 1.853-1.506 2.856-.292 1.004-.464 1.903-.517 2.696h18.322c-.531-2.856-1.47-5.022-2.817-6.503zM171.167 36.528v-7.535h6.741V25.82c0-3.648 1.136-6.635 3.411-8.963 2.273-2.326 5.711-3.49 10.311-3.49 1.004 0 2.01.041 3.014.119 1.004.08 1.983.147 2.936.199v8.407a34.936 34.936 0 0 0-4.124-.238c-1.534 0-2.632.358-3.292 1.072-.662.713-.991 1.917-.991 3.609v2.458h7.772v7.535h-7.772V70H177.91V36.528h-6.743M198.434 40.613c1.004-2.67 2.432-4.944 4.283-6.822 1.85-1.875 4.07-3.33 6.662-4.361 2.59-1.032 5.498-1.547 8.725-1.547 3.223 0 6.147.515 8.766 1.547 2.617 1.031 4.854 2.486 6.701 4.361 1.854 1.878 3.281 4.152 4.285 6.822 1.002 2.67 1.506 5.645 1.506 8.923s-.504 6.239-1.506 8.884c-1.004 2.645-2.432 4.904-4.285 6.781-1.848 1.877-4.084 3.318-6.701 4.322-2.618 1.004-5.543 1.508-8.766 1.508-3.227 0-6.135-.504-8.725-1.508-2.592-1.004-4.812-2.445-6.662-4.322-1.852-1.877-3.279-4.137-4.283-6.781-1.006-2.645-1.508-5.605-1.508-8.884s.502-6.253 1.508-8.923zm10.231 13.721c.317 1.561.858 2.963 1.627 4.204a8.647 8.647 0 0 0 3.054 2.976c1.268.74 2.854 1.109 4.758 1.109s3.502-.369 4.797-1.109 2.328-1.732 3.095-2.976c.767-1.241 1.31-2.644 1.629-4.204.315-1.559.476-3.158.476-4.798 0-1.638-.16-3.253-.476-4.839-.319-1.586-.862-2.986-1.629-4.203-.767-1.215-1.8-2.207-3.095-2.975-1.295-.765-2.893-1.15-4.797-1.15s-3.49.385-4.758 1.15a9.134 9.134 0 0 0-3.054 2.975c-.769 1.217-1.31 2.617-1.627 4.203a24.644 24.644 0 0 0-.476 4.839c0 1.64.159 3.239.476 4.798zM254.135 28.993v7.614h.158c.527-1.269 1.242-2.445 2.141-3.529s1.93-2.01 3.094-2.775a15.106 15.106 0 0 1 3.729-1.785 13.43 13.43 0 0 1 4.123-.635c.742 0 1.561.133 2.461.396v10.47a21.98 21.98 0 0 0-1.904-.277 20.25 20.25 0 0 0-2.143-.12c-2.062 0-3.807.345-5.234 1.032-1.428.688-2.578 1.626-3.449 2.815-.873 1.19-1.496 2.578-1.865 4.164s-.555 3.305-.555 5.157V70h-11.262V28.993h10.706M284.469 28.993v5.552h.157c1.479-2.113 3.267-3.754 5.354-4.918 2.088-1.161 4.481-1.744 7.178-1.744 2.591 0 4.957.503 7.1 1.507 2.141 1.004 3.766 2.776 4.879 5.314 1.215-1.798 2.866-3.384 4.957-4.759 2.088-1.375 4.559-2.062 7.416-2.062 2.168 0 4.176.265 6.026.793 1.853.529 3.438 1.376 4.76 2.538 1.319 1.164 2.351 2.684 3.095 4.56.737 1.878 1.108 4.139 1.108 6.783V70h-11.265V46.76c0-1.375-.051-2.67-.158-3.887-.104-1.215-.395-2.272-.872-3.172-.476-.898-1.177-1.612-2.101-2.142-.926-.528-2.18-.793-3.767-.793-1.588 0-2.868.305-3.849.912a6.591 6.591 0 0 0-2.299 2.38c-.555.979-.926 2.089-1.11 3.331a25.286 25.286 0 0 0-.276 3.767V70h-11.265V46.998c0-1.217-.026-2.419-.08-3.609-.054-1.19-.276-2.287-.675-3.291-.395-1.004-1.057-1.811-1.98-2.42-.927-.607-2.289-.912-4.086-.912-.531 0-1.23.119-2.104.357s-1.717.687-2.537 1.349c-.818.661-1.52 1.613-2.102 2.854-.582 1.244-.871 2.869-.871 4.879V70h-11.265V28.993h10.632" fill="#33393f"/><path d="M348 0h10v95h-10V0z" fill="#89c6be"/></svg>