<svg width="80" height="87" viewBox="0 0 80 87" fill="none" xmlns="http://www.w3.org/2000/svg">
<path d="M22.9885 10.5674C22.9885 7.28562 25.6134 4.63936 28.8342 4.63936H51.5809C52.0485 4.63936 52.4987 4.82742 52.832 5.16486L74.88 27.4924C75.2135 27.8301 75.4023 28.2899 75.4023 28.7711V68.3017C75.4023 71.5835 72.7774 74.2298 69.5567 74.2298H47.3563C46.0867 74.2298 45.0575 75.2683 45.0575 76.5495C45.0575 77.8306 46.0867 78.8692 47.3563 78.8692H69.5567C75.3321 78.8692 80 74.1301 80 68.3017V28.7711C80 27.0649 79.3308 25.4268 78.1369 24.2178L56.0888 1.89021C54.8947 0.680896 53.2733 0 51.5809 0H28.8342C23.0587 0 18.3908 4.73903 18.3908 10.5674V48.7133C18.3908 49.9944 19.42 51.033 20.6897 51.033C21.9593 51.033 22.9885 49.9944 22.9885 48.7133V10.5674Z" fill="#EFB402"/>
<path d="M63.711 29.7435C63.711 28.4623 62.6818 27.4238 61.4122 27.4238C60.1425 27.4238 59.1133 28.4623 59.1133 29.7435V54.4867C59.1133 55.7679 60.1425 56.8064 61.4122 56.8064C62.6818 56.8064 63.711 55.7679 63.711 54.4867V29.7435Z" fill="#EFB402"/>
<path d="M51.4943 37.9912C51.4943 36.7101 50.465 35.6715 49.1954 35.6715C47.9258 35.6715 46.8966 36.7101 46.8966 37.9912V54.4867C46.8966 55.7679 47.9258 56.8064 49.1954 56.8064C50.465 56.8064 51.4943 55.7679 51.4943 54.4867V37.9912Z" fill="#EFB402"/>
<path d="M39.2775 46.239C39.2775 44.9579 38.2483 43.9193 36.9787 43.9193C35.709 43.9193 34.6798 44.9579 34.6798 46.239V54.4867C34.6798 55.7679 35.709 56.8064 36.9787 56.8064C38.2483 56.8064 39.2775 55.7679 39.2775 54.4867V46.239Z" fill="#EFB402"/>
<path fill-rule="evenodd" clip-rule="evenodd" d="M19.8469 63.0953C15.5302 63.0953 12.0308 66.6264 12.0308 70.9822C12.0308 75.3381 15.5302 78.8692 19.8469 78.8692C24.1636 78.8692 27.663 75.3381 27.663 70.9822C27.663 66.6264 24.1636 63.0953 19.8469 63.0953ZM16.6285 70.9822C16.6285 69.1887 18.0694 67.7347 19.8469 67.7347C21.6244 67.7347 23.0653 69.1887 23.0653 70.9822C23.0653 72.7758 21.6244 74.2298 19.8469 74.2298C18.0694 74.2298 16.6285 72.7758 16.6285 70.9822Z" fill="#EFB402"/>
<path fill-rule="evenodd" clip-rule="evenodd" d="M19.8477 55.6723C10.5802 55.6723 2.74141 61.8191 0.105636 70.2871C-0.0352103 70.7396 -0.0352121 71.2248 0.105631 71.6773C2.74136 80.1453 10.5802 86.2921 19.8477 86.2921C29.1153 86.2921 36.954 80.1453 39.5898 71.6774C39.7306 71.2249 39.7306 70.7397 39.5898 70.2872C36.9541 61.8192 29.1153 55.6723 19.8477 55.6723ZM19.8477 81.6528C12.9016 81.6528 6.97807 77.2102 4.7258 70.9822C6.9781 64.7542 12.9016 60.3117 19.8477 60.3117C26.7939 60.3117 32.7174 64.7542 34.9696 70.9823C32.7173 77.2103 26.7939 81.6528 19.8477 81.6528Z" fill="#EFB402"/>
</svg>
