<svg width="80" height="84" viewBox="0 0 80 84" fill="none" xmlns="http://www.w3.org/2000/svg">
<path d="M38.7611 0.611499C37.863 -0.203824 36.4894 -0.203834 35.5913 0.611475C27.7893 7.69424 17.5001 11.9917 6.22222 11.9917C5.4609 11.9917 4.7043 11.9721 3.95286 11.9335C2.8327 11.8759 1.82744 12.6139 1.55109 13.6968C0.53819 17.6659 0 21.826 0 26.11C0 49.1203 15.5191 68.4907 36.58 73.989C37.837 74.3171 39.1231 73.5681 39.4526 72.3159C39.782 71.0637 39.03 69.7826 37.773 69.4544C18.7816 64.4965 4.70588 46.9889 4.70588 26.11C4.70588 22.8716 5.04433 19.7159 5.68651 16.6765C5.86486 16.6784 6.04343 16.6794 6.22222 16.6794C17.9765 16.6794 28.7593 12.4642 37.1762 5.4545C45.5932 12.4644 56.3762 16.6799 68.1307 16.6799C68.3095 16.6799 68.4881 16.6789 68.6665 16.677C69.3086 19.7162 69.6471 22.8718 69.6471 26.11C69.6471 30.6585 68.9794 35.0443 67.7399 39.174C67.3677 40.4142 68.0752 41.7202 69.3203 42.091C70.5653 42.4618 71.8764 41.757 72.2486 40.5168C73.6176 35.9555 74.3529 31.1176 74.3529 26.11C74.3529 21.8262 73.8148 17.6663 72.802 13.6972C72.5256 12.6144 71.5204 11.8763 70.4002 11.934C69.6487 11.9726 68.8921 11.9922 68.1307 11.9922C56.8526 11.9922 46.5632 7.69454 38.7611 0.611499Z" fill="#F44A64"/>
<path d="M50.4631 31.677C51.3736 30.7534 51.3601 29.2694 50.433 28.3624C49.5059 27.4554 48.0161 27.4688 47.1056 28.3923L33.3072 42.3881L27.2474 36.2416C26.3368 35.318 24.8471 35.3046 23.9199 36.2116C22.9928 37.1186 22.9793 38.6026 23.8899 39.5262L31.6284 47.3754C32.0709 47.8242 32.6758 48.077 33.3072 48.077C33.9386 48.077 34.5435 47.8242 34.9859 47.3754L50.4631 31.677Z" fill="#F44A64"/>
<path d="M64.9412 69.8466C64.9412 68.5521 63.8877 67.5028 62.5882 67.5028C61.2887 67.5028 60.2353 68.5521 60.2353 69.8466V73.5968C60.2353 74.8912 61.2887 75.9406 62.5882 75.9406C63.8877 75.9406 64.9412 74.8912 64.9412 73.5968V69.8466Z" fill="#F44A64"/>
<path fill-rule="evenodd" clip-rule="evenodd" d="M62.5882 45.0018C57.1304 45.0018 52.7059 49.4092 52.7059 54.846V60.0025H51.2941C47.9154 60.0025 45.1765 62.7308 45.1765 66.0965V77.3469C45.1765 80.7125 47.9154 83.4409 51.2941 83.4409H73.8824C77.261 83.4409 80 80.7125 80 77.3469V66.0965C80 62.7308 77.261 60.0025 73.8824 60.0025H72.4706V54.846C72.4706 49.4092 68.0461 45.0018 62.5882 45.0018ZM67.7647 54.846V60.0025H57.4118V54.846C57.4118 51.9982 59.7293 49.6895 62.5882 49.6895C65.4471 49.6895 67.7647 51.9982 67.7647 54.846ZM49.8824 66.0965C49.8824 65.3198 50.5144 64.6902 51.2941 64.6902H73.8824C74.6621 64.6902 75.2941 65.3198 75.2941 66.0965V77.3469C75.2941 78.1236 74.6621 78.7532 73.8824 78.7532H51.2941C50.5144 78.7532 49.8824 78.1236 49.8824 77.3469V66.0965Z" fill="#F44A64"/>
</svg>
