<svg width="800" height="828" viewBox="0 0 800 828" fill="none" xmlns="http://www.w3.org/2000/svg">
<path fill-rule="evenodd" clip-rule="evenodd" d="M274.304 181.918C310.366 166.173 349.565 158.935 388.872 160.763C403.299 161.433 415.538 150.282 416.21 135.855C416.88 121.427 405.729 109.188 391.301 108.517C343.981 106.316 296.789 115.03 253.376 133.985C209.962 152.94 171.491 181.628 140.938 217.83C110.386 254.032 88.5697 296.777 77.1794 342.758C65.7892 388.739 65.1295 436.725 75.2508 483.002C85.3721 529.28 106.003 572.608 135.549 609.635C138.551 613.397 141.638 617.087 144.805 620.698L79.0441 684.958C69.1703 681.725 58.3299 681.007 47.4465 683.384C14.9019 690.503 -5.71169 722.656 1.40528 755.201C8.5216 787.745 40.673 808.357 73.217 801.238C105.762 794.12 126.375 761.973 119.258 729.429C118.635 726.575 117.82 723.818 116.83 721.167L182.524 656.966C201.825 672.608 223.006 685.912 245.638 696.544C288.514 716.686 335.448 726.692 382.811 725.797C430.174 724.896 476.695 713.114 518.774 691.359C531.608 684.73 536.631 668.95 529.995 656.117C523.366 643.29 507.587 638.267 494.758 644.896C459.803 662.968 421.161 672.758 381.819 673.503C342.477 674.247 303.492 665.933 267.877 649.2C232.262 632.474 200.974 607.773 176.432 577.018C151.89 546.258 134.753 510.267 126.345 471.827C117.938 433.387 118.486 393.528 127.948 355.334C137.409 317.139 155.53 281.634 180.908 251.563C206.287 221.492 238.243 197.663 274.304 181.918Z" fill="url(#paint0_linear_57_47954)"/>
<path d="M366.553 278.114C352.175 279.482 339.409 268.936 338.041 254.558C336.672 240.18 347.218 227.415 361.596 226.046C409.744 221.463 457.82 234.268 496.868 262.075C535.915 289.882 563.272 330.794 573.839 377.19C595.667 473.021 539.563 571.559 447.969 605.246C434.414 610.231 419.384 603.284 414.399 589.728C409.413 576.173 416.361 561.143 429.916 556.158C463.614 543.764 491.501 519.815 508.516 488.984C564.481 387.604 477.376 267.564 366.553 278.114Z" fill="url(#paint1_linear_57_47954)"/>
<path fill-rule="evenodd" clip-rule="evenodd" d="M291.378 25.7438C277.269 28.8298 268.332 42.7692 271.418 56.8784C274.504 70.9882 288.444 79.9241 302.553 76.8382C359.27 64.4336 418.172 66.2081 474.039 82.0043C529.911 97.8005 581.017 127.132 622.842 167.399C664.667 207.666 695.912 257.626 713.821 312.854C731.722 368.083 735.733 426.875 725.485 484.021C715.244 541.169 691.06 594.907 655.086 640.475C619.113 686.049 572.461 722.042 519.252 745.273C466.043 768.504 407.927 778.255 350.052 773.664C292.175 769.066 236.326 750.269 187.449 718.94C175.29 711.141 159.114 714.681 151.319 726.842C143.524 738.997 147.062 755.174 159.221 762.972C215.339 798.946 279.463 820.525 345.914 825.802C412.363 831.073 479.089 819.878 540.177 793.205C601.27 766.532 654.838 725.203 696.141 672.882C737.444 620.561 765.207 558.864 776.97 493.25C788.733 427.637 784.128 360.136 763.575 296.725C746.757 244.849 719.686 197.021 684.097 156.023L721.769 118.873C731.507 121.909 742.153 122.513 752.824 120.128C785.336 112.865 805.798 80.6204 798.536 48.1084C791.273 15.5964 759.029 -4.87082 726.517 2.39311C694.005 9.65703 673.537 41.9019 680.799 74.4132C681.478 77.4475 682.373 80.3761 683.47 83.1877L647.334 118.819C601.629 78.1757 547.257 48.354 488.27 31.6754C424.126 13.5385 356.498 11.5014 291.378 25.7438Z" fill="url(#paint2_linear_57_47954)"/>
<defs>
<linearGradient id="paint0_linear_57_47954" x1="811.968" y1="787.211" x2="286.261" y2="224.33" gradientUnits="userSpaceOnUse">
<stop stop-color="#EFAB00"/>
<stop offset="1" stop-color="#EFB700"/>
</linearGradient>
<linearGradient id="paint1_linear_57_47954" x1="-316.438" y1="534.313" x2="-299.498" y2="1.67674" gradientUnits="userSpaceOnUse">
<stop stop-color="#DD3163"/>
<stop offset="1" stop-color="#FF5663"/>
</linearGradient>
<linearGradient id="paint2_linear_57_47954" x1="178.762" y1="741.831" x2="388.081" y2="617.55" gradientUnits="userSpaceOnUse">
<stop offset="0.03" stop-color="#1890FF"/>
<stop offset="1" stop-color="#18B5FF"/>
</linearGradient>
</defs>
</svg>
