<svg width="32" height="32" viewBox="0 0 32 32" fill="none" xmlns="http://www.w3.org/2000/svg">
<path fill-rule="evenodd" clip-rule="evenodd" d="M16 30.4C23.9529 30.4 30.4 23.9529 30.4 16C30.4 8.0471 23.9529 1.6 16 1.6C8.0471 1.6 1.6 8.0471 1.6 16C1.6 23.9529 8.0471 30.4 16 30.4ZM16 32C24.8366 32 32 24.8366 32 16C32 7.16344 24.8366 0 16 0C7.16344 0 0 7.16344 0 16C0 24.8366 7.16344 32 16 32Z" fill="#533FD1"/>
<path d="M28.8 16C28.8 23.0693 23.0692 28.8 16 28.8C8.93071 28.8 3.19995 23.0693 3.19995 16C3.19995 8.93077 8.93071 3.20001 16 3.20001C23.0692 3.20001 28.8 8.93077 28.8 16Z" fill="#533FD1"/>
<rect x="11.1284" y="11.1111" width="4.33023" height="4.33023" rx="1.08256" fill="white"/>
<path opacity="0.4" fill-rule="evenodd" clip-rule="evenodd" d="M16.5412 12.1937C16.5412 11.5958 17.0259 11.1111 17.6237 11.1111H19.7889C20.3867 11.1111 20.8714 11.5958 20.8714 12.1937V14.3588C20.8714 14.9567 20.3867 15.4413 19.7889 15.4413H17.6237C17.0259 15.4413 16.5412 14.9567 16.5412 14.3588V12.1937ZM11.1284 17.5523C11.1284 16.9545 11.6131 16.4698 12.211 16.4698H14.3761C14.974 16.4698 15.4586 16.9545 15.4586 17.5523V19.7174C15.4586 20.3153 14.974 20.8 14.3761 20.8H12.211C11.6131 20.8 11.1284 20.3153 11.1284 19.7174V17.5523ZM17.6237 16.4698C17.0259 16.4698 16.5412 16.9545 16.5412 17.5523V19.7174C16.5412 20.3153 17.0259 20.8 17.6237 20.8H19.7889C20.3867 20.8 20.8714 20.3153 20.8714 19.7174V17.5523C20.8714 16.9545 20.3867 16.4698 19.7889 16.4698H17.6237Z" fill="white"/>
</svg>
