<svg width="16" height="17" viewBox="0 0 16 17" fill="none" xmlns="http://www.w3.org/2000/svg">
<g clip-path="url(#clip0_41_1789)">
<path d="M3.64729 9.77685H7.62765V10.8076H3.64729C3.30017 10.8076 3.00636 10.6873 2.76586 10.4468C2.52535 10.2063 2.4051 9.91251 2.4051 9.56539V1.74221C2.4051 1.39509 2.52535 1.10128 2.76586 0.860767C3.00636 0.620256 3.30017 0.5 3.64729 0.5H11.4705C11.8176 0.5 12.1114 0.620256 12.3519 0.860767C12.5924 1.10128 12.7127 1.39509 12.7127 1.74221V8.12765H11.6819V1.74221C11.6819 1.68934 11.6599 1.64088 11.6159 1.59682C11.5718 1.55277 11.5233 1.53075 11.4705 1.53075H10.3076V5.4952C10.3076 5.61942 10.2558 5.71258 10.1523 5.77469C10.0488 5.8368 9.94417 5.83218 9.83846 5.76083L9.08257 5.31549C8.97685 5.25117 8.86695 5.21901 8.75286 5.21901C8.63878 5.21901 8.53461 5.25117 8.44034 5.31549L7.68444 5.76083C7.57168 5.83218 7.4653 5.8368 7.3653 5.77469C7.26532 5.71258 7.21533 5.61942 7.21533 5.4952V1.53075H3.64729C3.59442 1.53075 3.54596 1.55277 3.50192 1.59682C3.45786 1.64088 3.43583 1.68934 3.43583 1.74221V9.56539C3.43583 9.61826 3.45786 9.66672 3.50192 9.71078C3.54596 9.75483 3.59442 9.77685 3.64729 9.77685Z" fill="white"/>
<path d="M1.24219 12.182H7.62765V13.2127H1.24219C0.895086 13.2127 0.601279 13.0924 0.360767 12.8519C0.120256 12.6114 0 12.3176 0 11.9705V3.63192C0 3.48568 0.0493334 3.36323 0.148 3.26456C0.246679 3.16589 0.369134 3.11656 0.515365 3.11656C0.661607 3.11656 0.784067 3.16589 0.882746 3.26456C0.981413 3.36323 1.03075 3.48568 1.03075 3.63192V11.9705C1.03075 12.0234 1.05277 12.0718 1.09682 12.1159C1.14088 12.1599 1.18933 12.182 1.24219 12.182Z" fill="white"/>
<path d="M8.87411 13.2425H11.5207V15.8891C11.5207 16.0605 11.5797 16.2052 11.6976 16.3231C11.8155 16.441 11.9602 16.5 12.1316 16.5C12.303 16.5 12.4477 16.441 12.5656 16.3231C12.6835 16.2052 12.7425 16.0605 12.7425 15.8891V13.2425H15.3891C15.5605 13.2425 15.7052 13.1835 15.8231 13.0656C15.941 12.9477 16 12.803 16 12.6316C16 12.4602 15.941 12.3155 15.8231 12.1976C15.7052 12.0797 15.5605 12.0207 15.3891 12.0207H12.7425V9.37411C12.7425 9.20268 12.6835 9.05801 12.5656 8.9401C12.4477 8.82218 12.303 8.76323 12.1316 8.76323C11.9602 8.76323 11.8155 8.82218 11.6976 8.9401C11.5797 9.05801 11.5207 9.20268 11.5207 9.37411V12.0207H8.87411C8.70268 12.0207 8.55801 12.0797 8.4401 12.1976C8.32218 12.3155 8.26323 12.4602 8.26323 12.6316C8.26323 12.803 8.32218 12.9477 8.4401 13.0656C8.55801 13.1835 8.70268 13.2425 8.87411 13.2425Z" fill="white"/>
</g>
<defs>
<clipPath id="clip0_41_1789">
<rect width="16" height="16" fill="white" transform="translate(0 0.5)"/>
</clipPath>
</defs>
</svg>
