<svg width="1em" height="1em" viewBox="0 0 14 14" fill="none" xmlns="http://www.w3.org/2000/svg">
<path d="M11.025 10.625H10.1V6.89998C10.1 5.07498 8.625 3.59998 6.8 3.59998C4.975 3.59998 3.5 5.07498 3.5 6.89998V10.625H2.625C2.475 10.625 2.375 10.725 2.375 10.875V12.75C2.375 12.9 2.475 13 2.625 13H11.05C11.2 13 11.3 12.9 11.3 12.75V10.875C11.275 10.75 11.175 10.625 11.025 10.625ZM4.025 6.89998C4.025 5.37498 5.275 4.09998 6.825 4.09998C8.35 4.09998 9.625 5.34998 9.625 6.89998V10.625H4.025V6.89998ZM10.775 12.5H2.875V11.125H3.8H9.875H10.8V12.5H10.775Z" fill="#ECB767" stroke="#ECB767" stroke-width="0.5"/>
<path d="M6.82501 2.925C6.97501 2.925 7.07501 2.825 7.07501 2.675V1.25C7.07501 1.1 6.97501 1 6.82501 1C6.67501 1 6.57501 1.1 6.57501 1.25V2.675C6.57501 2.8 6.67501 2.925 6.82501 2.925Z" fill="#ECB767" stroke="#ECB767" stroke-width="0.5"/>
<path d="M12.4 6.57501H10.975C10.825 6.57501 10.725 6.67501 10.725 6.82501C10.725 6.97501 10.825 7.07501 10.975 7.07501H12.4C12.55 7.07501 12.65 6.97501 12.65 6.82501C12.65 6.67501 12.525 6.57501 12.4 6.57501Z" fill="#ECB767" stroke="#ECB767" stroke-width="0.5"/>
<path d="M2.925 6.82501C2.925 6.67501 2.825 6.57501 2.675 6.57501H1.25C1.1 6.57501 1 6.67501 1 6.82501C1 6.97501 1.1 7.07501 1.25 7.07501H2.675C2.825 7.07501 2.925 6.95001 2.925 6.82501Z" fill="#ECB767" stroke="#ECB767" stroke-width="0.5"/>
<path d="M9.75 4.125C9.825 4.125 9.875 4.1 9.925 4.05L10.925 3.05C11.025 2.95 11.025 2.8 10.925 2.7C10.825 2.6 10.675 2.6 10.575 2.7L9.575 3.7C9.475 3.8 9.475 3.95 9.575 4.05C9.625 4.1 9.7 4.125 9.75 4.125Z" fill="#ECB767" stroke="#ECB767" stroke-width="0.5"/>
<path d="M3.72502 4.05C3.77502 4.1 3.85002 4.125 3.90002 4.125C3.97502 4.125 4.02502 4.1 4.07502 4.05C4.17502 3.95 4.17502 3.8 4.07502 3.7L3.07502 2.7C2.97502 2.6 2.82502 2.6 2.72502 2.7C2.62502 2.8 2.62502 2.95 2.72502 3.05L3.72502 4.05Z" fill="#ECB767" stroke="#ECB767" stroke-width="0.5"/>
</svg>
