<svg xmlns="http://www.w3.org/2000/svg" width="24" height="24" viewBox="0 0 24 24" fill="none"><path d="M3 19.3448V18.4443L4.54281 16.9339V19.3448C4.54281 19.5588 4.46886 19.7381 4.32095 19.8829C4.17302 20.0276 3.98973 20.1 3.77107 20.1C3.5524 20.1 3.36922 20.0276 3.22153 19.8829C3.07384 19.7381 3 19.5588 3 19.3448ZM7.1143 19.3448V14.4163L8.65711 12.9059V19.3448C8.65711 19.5588 8.58315 19.7381 8.43524 19.8829C8.28732 20.0276 8.10403 20.1 7.88537 20.1C7.66669 20.1 7.48351 20.0276 7.33583 19.8829C7.18814 19.7381 7.1143 19.5588 7.1143 19.3448ZM11.2286 19.3448V12.9059L12.7714 14.4415V19.3448C12.7714 19.5588 12.6974 19.7381 12.5495 19.8829C12.4016 20.0276 12.2183 20.1 11.9997 20.1C11.781 20.1 11.5978 20.0276 11.4501 19.8829C11.3024 19.7381 11.2286 19.5588 11.2286 19.3448ZM15.3429 19.3448V14.4415L16.8857 12.9311V19.3448C16.8857 19.5588 16.8117 19.7381 16.6638 19.8829C16.5159 20.0276 16.3326 20.1 16.114 20.1C15.8953 20.1 15.7121 20.0276 15.5644 19.8829C15.4167 19.7381 15.3429 19.5588 15.3429 19.3448ZM19.4572 19.3448V10.3884L21 8.87791V19.3448C21 19.5588 20.926 19.7381 20.7781 19.8829C20.6302 20.0276 20.4469 20.1 20.2283 20.1C20.0096 20.1 19.8264 20.0276 19.6787 19.8829C19.531 19.7381 19.4572 19.5588 19.4572 19.3448ZM3.22945 12.1777L8.6255 6.89486C8.97978 6.54759 9.41878 6.37395 9.94252 6.37395C10.4662 6.37395 10.9055 6.54759 11.2602 6.89486L13.8297 9.41041C13.889 9.46851 13.9648 9.49757 14.0571 9.49757C14.1495 9.49757 14.2253 9.46851 14.2846 9.41041L19.6866 4.12175C19.8396 3.972 20.0229 3.89809 20.2365 3.90004C20.4501 3.90197 20.6334 3.98104 20.7864 4.13726C20.9288 4.287 20.9968 4.46523 20.9904 4.67195C20.9841 4.87867 20.9108 5.05094 20.7705 5.18877L15.3745 10.4716C15.0202 10.8189 14.5812 10.9925 14.0575 10.9925C13.5337 10.9925 13.0945 10.8189 12.7398 10.4716L10.1703 7.95606C10.111 7.89796 10.0352 7.8689 9.94285 7.8689C9.85054 7.8689 9.7747 7.89796 9.71536 7.95606L4.31336 13.2447C4.16041 13.3945 3.97712 13.4684 3.76348 13.4664C3.54987 13.4645 3.36658 13.3854 3.21361 13.2292C3.0712 13.0795 3.00319 12.9012 3.00957 12.6945C3.01593 12.4878 3.08922 12.3155 3.22945 12.1777Z" fill="current-color"/></svg>