<svg width="48" height="25" viewBox="0 0 48 25" fill="none" xmlns="http://www.w3.org/2000/svg">
<rect x="2" y="3" width="20" height="20" rx="10" fill="white"/>
<path d="M14.1847 9.29803C14.1465 9.30288 11.1181 10.8886 11.1181 10.8886H7.06258C5.9353 10.8886 5 11.8281 5 12.9563C5 14.0846 5.93531 15.0241 7.06258 15.0241H7.56952L8.67288 18.3046C8.71451 18.4312 8.84286 18.5237 8.97605 18.5233H11.2126C11.4155 18.5251 11.5823 18.2925 11.5158 18.1008L10.482 15.0241H11.1281L14.0753 16.5749C14.2674 16.6768 14.5407 16.5139 14.5425 16.2965V9.61614C14.5439 9.43546 14.3639 9.27546 14.1847 9.29803ZM17.2313 10.0883C17.1704 10.093 15.949 10.9482 15.949 10.9482C15.7994 11.0384 15.7527 11.2629 15.854 11.4052C15.9552 11.5475 16.1827 11.577 16.3168 11.4652L17.4301 10.6699C17.5454 10.5925 17.5987 10.4342 17.5538 10.3028C17.5089 10.1715 17.3698 10.079 17.2313 10.0883ZM13.9064 10.1381V15.7697L11.5207 14.5121V11.3956L13.9064 10.1381ZM7.06258 11.5248H10.8846V14.3878H7.06258C6.29211 14.3878 5.63617 13.7307 5.63617 12.9563C5.63617 12.182 6.29211 11.5248 7.06258 11.5248ZM16.1031 12.6382C15.9364 12.6458 15.7916 12.8045 15.7994 12.9713C15.8073 13.138 15.9662 13.2825 16.1329 13.2745H18.6776C18.8457 13.2768 19.0003 13.1244 19.0003 12.9563C19.0003 12.7882 18.8457 12.6358 18.6776 12.6382C18.6776 12.6382 16.1131 12.6377 16.1031 12.6382ZM16.1081 14.3829C15.9763 14.3905 15.8547 14.4892 15.8198 14.6165C15.785 14.7439 15.8395 14.8907 15.949 14.9644L17.0623 15.7597C17.1965 15.8716 17.4239 15.8421 17.5252 15.6998C17.6265 15.5574 17.5798 15.3329 17.4301 15.2428L16.3168 14.4475C16.2577 14.4024 16.1823 14.3791 16.1081 14.3829ZM8.24545 15.0241H9.80605L10.7702 17.8871H9.20964L8.24545 15.0241Z" fill="#D07B7B"/>
<rect x="20" y="3" width="20" height="20" rx="10" fill="white"/>
<mask id="mask0_3579_13555" style="mask-type:alpha" maskUnits="userSpaceOnUse" x="24" y="7" width="12" height="12">
<rect x="24.291" y="7.29102" width="11.709" height="11.709" fill="#D9D9D9"/>
</mask>
<g mask="url(#mask0_3579_13555)">
<path d="M28.5523 17.77L27.7832 16.5519L26.3326 16.2623C26.2164 16.2417 26.1238 16.1826 26.0548 16.085C25.9858 15.9874 25.9573 15.8836 25.9693 15.7736L26.1076 14.3586L25.1237 13.296C25.0412 13.2158 25 13.1171 25 13C25 12.8829 25.0412 12.7842 25.1237 12.704L26.1076 11.6414L25.9693 10.2264C25.9573 10.1164 25.9858 10.0126 26.0548 9.91496C26.1238 9.81736 26.2164 9.75827 26.3326 9.73768L27.7832 9.44808L28.5523 8.23004C28.6153 8.13137 28.7 8.06306 28.8065 8.02509C28.9129 7.98711 29.0231 7.99225 29.1371 8.04052L30.5 8.58566L31.8629 8.04052C31.9769 7.99225 32.0871 7.98711 32.1935 8.02509C32.3 8.06306 32.3847 8.13137 32.4477 8.23004L33.2168 9.44808L34.6675 9.73768C34.7836 9.75827 34.8762 9.81736 34.9452 9.91496C35.0142 10.0126 35.0427 10.1164 35.0307 10.2264L34.8924 11.6414L35.8763 12.704C35.9588 12.7842 36 12.8829 36 13C36 13.1171 35.9588 13.2158 35.8763 13.296L34.8924 14.3586L35.0307 15.7736C35.0427 15.8836 35.0142 15.9874 34.9452 16.085C34.8762 16.1826 34.7836 16.2417 34.6675 16.2623L33.2168 16.5519L32.4477 17.77C32.3847 17.8686 32.3 17.9369 32.1935 17.9749C32.0871 18.0129 31.9769 18.0077 31.8629 17.9595L30.5 17.4143L29.1371 17.9595C29.0231 18.0077 28.9129 18.0129 28.8065 17.9749C28.7 17.9369 28.6153 17.8686 28.5523 17.77ZM29.0089 17.4016L30.5 16.8138L31.9979 17.4016L32.839 16.0728L34.447 15.7342L34.3009 14.1627L35.3826 13L34.3009 11.8309L34.447 10.2594L32.839 9.92721L31.9911 8.59844L30.5 9.18617L29.0021 8.59844L28.161 9.92721L26.553 10.2594L26.6991 11.8309L25.6174 13L26.6991 14.1627L26.553 15.7406L28.161 16.0728L29.0089 17.4016Z" fill="#D07B7B"/>
</g>
<path fill-rule="evenodd" clip-rule="evenodd" d="M30.3049 10.4141C30.1289 10.4141 29.9863 10.5567 29.9863 10.7326V13.2808C29.9863 13.4567 30.1289 13.5993 30.3049 13.5993C30.4808 13.5993 30.6234 13.4567 30.6234 13.2808V10.7326C30.6234 10.5567 30.4808 10.4141 30.3049 10.4141ZM30.3049 14.1807C30.1289 14.1807 29.9863 14.3233 29.9863 14.4992C29.9863 14.6751 30.1289 14.8177 30.3049 14.8177C30.4808 14.8177 30.6234 14.6751 30.6234 14.4992C30.6234 14.3233 30.4808 14.1807 30.3049 14.1807Z" fill="#D07B7B"/>
</svg>
