<svg width="41" height="41" viewBox="0 0 41 41" fill="none" xmlns="http://www.w3.org/2000/svg">
<mask id="mask0_5155_54501" style="mask-type:alpha" maskUnits="userSpaceOnUse" x="-1" y="0" width="42" height="41">
<rect width="40.5382" height="40.5382" transform="matrix(-1 0 0 1 40.5381 0)" fill="#D9D9D9"/>
</mask>
<g mask="url(#mask0_5155_54501)">
<path d="M28.3994 21.5353L22.8383 27.0964C22.5871 27.3476 22.4631 27.6415 22.4664 27.9783C22.4696 28.315 22.5936 28.6144 22.8383 28.8764C23.1003 29.1384 23.4013 29.2737 23.7413 29.2824C24.0813 29.2911 24.3823 29.1644 24.6443 28.9024L32.2095 21.3372C32.5148 21.0318 32.6675 20.6756 32.6675 20.2685C32.6675 19.8614 32.5148 19.5052 32.2095 19.1999L24.6443 11.6347C24.3931 11.3835 24.0948 11.2595 23.7494 11.2628C23.404 11.266 23.1003 11.3987 22.8383 11.6607C22.5936 11.9227 22.4669 12.2194 22.4583 12.5507C22.4496 12.882 22.5763 13.1787 22.8383 13.4407L28.3994 19.0018H8.52647C8.167 19.0018 7.86601 19.123 7.62348 19.3655C7.38096 19.6081 7.2597 19.9091 7.2597 20.2685C7.2597 20.628 7.38096 20.929 7.62348 21.1715C7.86601 21.414 8.167 21.5353 8.52647 21.5353H28.3994Z" fill="#5C3FD1"/>
</g>
</svg>
