<svg width="609" height="137" viewBox="0 0 609 137" fill="none" xmlns="http://www.w3.org/2000/svg">
<g clip-path="url(#clip0_1430_827457)">
<path d="M279.92 0.664062H176.04C174.369 0.664062 173.015 2.01842 173.015 3.68911V132.848C173.015 134.518 174.369 135.873 176.04 135.873H279.92C281.591 135.873 282.945 134.518 282.945 132.848V3.68911C282.945 2.01842 281.591 0.664062 279.92 0.664062Z" fill="white" stroke="#373D44" stroke-miterlimit="10"/>
<path d="M213.614 28.3428H181.392V29.8859H213.614V28.3428Z" fill="#231F20"/>
<path d="M255.536 7.26514H180.534V16.8914H255.536V7.26514Z" fill="#231F20"/>
<path d="M227.98 32.813H181.392V42.9904H227.98V32.813Z" fill="white" stroke="#231F20" stroke-miterlimit="10"/>
<path d="M213.614 50.7183H181.392V52.2614H213.614V50.7183Z" fill="#231F20"/>
<path d="M227.98 55.1885H181.392V65.3659H227.98V55.1885Z" fill="white" stroke="#231F20" stroke-miterlimit="10"/>
<path d="M213.614 72.5059H181.392V74.049H213.614V72.5059Z" fill="#231F20"/>
<path d="M227.98 76.9761H181.392V87.1535H227.98V76.9761Z" fill="white" stroke="#231F20" stroke-miterlimit="10"/>
<path d="M213.614 93.5957H181.392V95.1388H213.614V93.5957Z" fill="#231F20"/>
<path d="M227.98 98.0659H181.392V108.243H227.98V98.0659Z" fill="white" stroke="#231F20" stroke-miterlimit="10"/>
<path d="M213.614 113.828H181.392V115.371H213.614V113.828Z" fill="#231F20"/>
<path d="M227.98 118.298H181.392V128.476H227.98V118.298Z" fill="white" stroke="#231F20" stroke-miterlimit="10"/>
<path d="M432.544 0.664062H329.105C327.312 0.664062 325.859 2.11712 325.859 3.90956V132.627C325.859 134.42 327.312 135.873 329.105 135.873H432.544C434.337 135.873 435.79 134.42 435.79 132.627V3.90956C435.79 2.11712 434.337 0.664062 432.544 0.664062Z" fill="white" stroke="#373D44" stroke-miterlimit="10"/>
<path d="M366.459 5.72217H334.236V7.26531H366.459V5.72217Z" fill="#373D44"/>
<path d="M380.825 10.1924H334.236V20.3698H380.825V10.1924Z" fill="white" stroke="#373D44" stroke-miterlimit="10"/>
<path d="M325.468 24.1421H436.231" stroke="#373D44" stroke-miterlimit="10"/>
<path d="M334.923 33.499H330.023V38.3987H334.923V33.499Z" fill="white" stroke="#373D44" stroke-miterlimit="10"/>
<path d="M422.893 31.2329H340.103V41.4103H422.893V31.2329Z" fill="white" stroke="#373D44" stroke-miterlimit="10"/>
<path d="M369.728 33.6948H341.891V36.1443H369.728V33.6948Z" fill="#373D44"/>
<path d="M409.63 37.7114H341.891V38.9361H409.63V37.7114Z" fill="#373D44"/>
<path d="M330.868 35.7038L331.713 34.8341L332.644 35.7528L335.805 31.98L336.736 32.7517L332.73 37.5289L330.868 35.7038Z" fill="#373D44"/>
<path d="M335.829 32.1517L336.564 32.7764L332.718 37.3576L331.04 35.704L331.713 35.018L332.657 35.9367L335.829 32.1517ZM335.805 31.8087L335.645 31.9924L332.644 35.5692L331.897 34.8343L331.726 34.6628L331.554 34.8343L330.88 35.5202L330.709 35.6917L330.88 35.8632L332.559 37.5169L332.742 37.7006L332.914 37.4924L336.76 32.9111L336.919 32.7274L336.736 32.5681L336.001 31.9434L335.817 31.7842L335.805 31.8087Z" fill="white"/>
<path d="M334.923 47.8892H330.023V52.7889H334.923V47.8892Z" fill="white" stroke="#373D44" stroke-miterlimit="10"/>
<path d="M422.893 45.6235H340.103V55.8009H422.893V45.6235Z" fill="white" stroke="#373D44" stroke-miterlimit="10"/>
<path d="M369.728 48.0854H341.891V50.5349H369.728V48.0854Z" fill="#373D44"/>
<path d="M409.63 52.1021H341.891V53.3268H409.63V52.1021Z" fill="#373D44"/>
<path d="M330.868 50.0944L331.713 49.2369L332.644 50.1434L335.805 46.3706L336.736 47.1546L332.73 51.9195L330.868 50.0944Z" fill="#373D44"/>
<path d="M335.829 46.5423L336.564 47.167L332.718 51.7482L331.04 50.0946L331.713 49.4086L332.657 50.3273L335.829 46.5423ZM335.805 46.1993L335.645 46.383L332.644 49.9598L331.897 49.2249L331.726 49.0534L331.554 49.2249L330.88 49.9108L330.709 50.0823L330.88 50.2538L332.559 51.9075L332.742 52.0912L332.914 51.883L336.76 47.3017L336.919 47.118L336.736 46.9588L336.001 46.334L335.817 46.1748L335.805 46.1993Z" fill="white"/>
<path d="M334.923 62.5488H330.023V67.4486H334.923V62.5488Z" fill="white" stroke="#373D44" stroke-miterlimit="10"/>
<path d="M422.893 60.271H340.103V70.4484H422.893V60.271Z" fill="white" stroke="#373D44" stroke-miterlimit="10"/>
<path d="M369.728 62.7329H341.891V65.1823H369.728V62.7329Z" fill="#373D44"/>
<path d="M409.63 66.7495H341.891V67.9742H409.63V66.7495Z" fill="#373D44"/>
<path d="M330.868 64.7419L331.713 63.8844L332.644 64.7909L335.805 61.0181L336.736 61.802L332.73 66.5793L330.868 64.7419Z" fill="#373D44"/>
<path d="M335.829 61.1897L336.564 61.8145L332.718 66.3957L331.04 64.742L331.713 64.0561L332.657 64.9748L335.829 61.1897ZM335.805 60.8468L335.645 61.0305L332.644 64.6073L331.897 63.8723L331.726 63.7009L331.554 63.8723L330.88 64.5583L330.709 64.7298L330.88 64.9013L332.559 66.5549L332.742 66.7387L332.914 66.5304L336.76 61.9492L336.919 61.7655L336.736 61.6062L336.001 60.9815L335.817 60.8223L335.805 60.8468Z" fill="white"/>
<path d="M334.923 77.0249H330.023V81.9246H334.923V77.0249Z" fill="white" stroke="#373D44" stroke-miterlimit="10"/>
<path d="M422.893 74.7593H340.103V84.9367H422.893V74.7593Z" fill="white" stroke="#373D44" stroke-miterlimit="10"/>
<path d="M369.728 77.2212H341.891V79.6706H369.728V77.2212Z" fill="#373D44"/>
<path d="M409.63 81.2378H341.891V82.4625H409.63V81.2378Z" fill="#373D44"/>
<path d="M330.868 79.2301L331.713 78.3604L332.644 79.2791L335.805 75.5063L336.736 76.2781L332.73 81.0553L330.868 79.2301Z" fill="#373D44"/>
<path d="M335.829 75.678L336.564 76.3027L332.718 80.884L331.04 79.2303L331.713 78.5444L332.657 79.4631L335.829 75.678ZM335.805 75.335L335.645 75.5188L332.644 79.0956L331.897 78.3606L331.726 78.1891L331.554 78.3606L330.88 79.0466L330.709 79.2181L330.88 79.3896L332.559 81.0432L332.742 81.227L332.914 81.0187L336.76 76.4375L336.919 76.2537L336.736 76.0945L336.001 75.4698L335.817 75.3105L335.805 75.335Z" fill="white"/>
<path d="M334.923 91.4277H330.023V96.3275H334.923V91.4277Z" fill="white" stroke="#373D44" stroke-miterlimit="10"/>
<path d="M422.893 89.1621H340.103V99.3395H422.893V89.1621Z" fill="white" stroke="#373D44" stroke-miterlimit="10"/>
<path d="M369.728 91.6113H341.891V94.0608H369.728V91.6113Z" fill="#373D44"/>
<path d="M409.63 95.6284H341.891V96.8531H409.63V95.6284Z" fill="#373D44"/>
<path d="M330.868 93.6208L331.713 92.7633L332.644 93.6698L335.805 89.897L336.736 90.6809L332.73 95.4582L330.868 93.6208Z" fill="#373D44"/>
<path d="M335.829 90.0687L336.564 90.6934L332.718 95.2746L331.04 93.621L331.713 92.935L332.657 93.8537L335.829 90.0687ZM335.805 89.7257L335.645 89.9094L332.644 93.4862L331.897 92.7513L331.726 92.5798L331.554 92.7513L330.88 93.4372L330.709 93.6087L330.88 93.7802L332.559 95.4338L332.742 95.6176L332.914 95.4094L336.76 90.8281L336.919 90.6444L336.736 90.4851L336.001 89.8604L335.817 89.7012L335.805 89.7257Z" fill="white"/>
<path d="M334.923 106.075H330.023V110.975H334.923V106.075Z" fill="white" stroke="#373D44" stroke-miterlimit="10"/>
<path d="M422.893 103.81H340.103V113.987H422.893V103.81Z" fill="white" stroke="#373D44" stroke-miterlimit="10"/>
<path d="M369.728 106.259H341.891V108.708H369.728V106.259Z" fill="#373D44"/>
<path d="M409.63 110.276H341.891V111.501H409.63V110.276Z" fill="#373D44"/>
<path d="M330.868 108.268L331.713 107.411L332.644 108.329L335.805 104.557L336.736 105.328L332.73 110.106L330.868 108.268Z" fill="#373D44"/>
<path d="M335.829 104.728L336.564 105.353L332.718 109.934L331.04 108.281L331.713 107.595L332.657 108.513L335.829 104.728ZM335.805 104.385L335.645 104.569L332.644 108.146L331.897 107.411L331.726 107.239L331.554 107.411L330.88 108.097L330.709 108.268L330.88 108.44L332.559 110.094L332.742 110.277L332.914 110.069L336.76 105.488L336.919 105.304L336.736 105.145L336.001 104.52L335.817 104.361L335.805 104.385Z" fill="white"/>
<path d="M334.923 120.564H330.023V125.464H334.923V120.564Z" fill="white" stroke="#373D44" stroke-miterlimit="10"/>
<path d="M422.893 118.298H340.103V128.476H422.893V118.298Z" fill="white" stroke="#373D44" stroke-miterlimit="10"/>
<path d="M369.728 120.76H341.891V123.21H369.728V120.76Z" fill="#373D44"/>
<path d="M409.63 124.777H341.891V126.002H409.63V124.777Z" fill="#373D44"/>
<path d="M330.868 122.769L331.713 121.899L332.644 122.818L335.805 119.045L336.736 119.817L332.73 124.594L330.868 122.769Z" fill="#373D44"/>
<path d="M335.829 119.217L336.564 119.842L332.718 124.423L331.04 122.769L331.713 122.083L332.657 123.002L335.829 119.217ZM335.805 118.874L335.645 119.058L332.644 122.635L331.897 121.9L331.726 121.728L331.554 121.9L330.88 122.586L330.709 122.757L330.88 122.929L332.559 124.582L332.742 124.766L332.914 124.558L336.76 119.977L336.919 119.793L336.736 119.634L336.001 119.009L335.817 118.85L335.805 118.874Z" fill="white"/>
<path d="M314.041 67.6686H294.066C293.944 67.6686 293.833 67.7665 293.833 67.9012V69.6281C293.833 69.7506 293.931 69.8608 294.066 69.8608H311.433L307.293 75.1148C307.17 75.2618 307.293 75.4822 307.477 75.4822H309.559C309.693 75.4822 309.828 75.421 309.926 75.3108L314.776 69.1627C315.254 68.5626 314.825 67.6808 314.053 67.6808L314.041 67.6686ZM314.727 60.8959H297.361L301.5 55.6418C301.623 55.4949 301.5 55.2744 301.316 55.2744H299.234C299.1 55.2744 298.965 55.3356 298.867 55.4459L294.017 61.594C293.539 62.1941 293.968 63.0759 294.74 63.0759H314.715C314.837 63.0759 314.947 62.9779 314.947 62.8432V61.1163C314.947 60.9938 314.849 60.8836 314.715 60.8836L314.727 60.8959Z" fill="#373D44"/>
</g>
<defs>
<clipPath id="clip0_1430_827457">
<rect width="264" height="136.433" fill="white" transform="translate(172.402 0.0517578)"/>
</clipPath>
</defs>
</svg>
