<svg width="26" height="25" viewBox="0 0 26 25" fill="none" xmlns="http://www.w3.org/2000/svg">
<path d="M13 1.17188C19.4949 1.17188 24.7812 6.25488 24.7812 12.5C24.7812 18.7451 19.4949 23.8281 13 23.8281C6.50508 23.8281 1.2218 18.7451 1.2218 12.5C1.2218 6.25488 6.50508 1.17188 13 1.17188ZM0 12.5C0 19.3926 5.83172 25 13 25C20.1683 25 26 19.3926 26 12.5C26 5.60742 20.1683 0 13 0C5.83172 0 0 5.60742 0 12.5Z" fill="#E1E1E1"/>
<path d="M19.3984 8.43359L17.2296 6.34814L13 10.4146L8.77092 6.34814L6.60205 8.43359L10.8311 12.5L6.60205 16.5664L8.77092 18.6523L13 14.5855L17.2296 18.6519L19.3984 16.5664L15.1688 12.5L19.3984 8.43359Z" fill="#E1E1E1"/>
</svg>
