<svg width="25" height="25" viewBox="0 0 25 25" fill="none" xmlns="http://www.w3.org/2000/svg">
<mask id="mask0_5151_54432" style="mask-type:alpha" maskUnits="userSpaceOnUse" x="0" y="0" width="25" height="25">
<rect width="25" height="25" fill="#D9D9D9"/>
</mask>
<g mask="url(#mask0_5151_54432)">
<path d="M5.883 18.0625H17.7419C17.8221 18.0625 17.8955 18.0291 17.9623 17.9623C18.0291 17.8955 18.0625 17.8221 18.0625 17.7419V5.88302C18.0625 5.80288 18.0291 5.72942 17.9623 5.66263C17.8955 5.59586 17.8221 5.56247 17.7419 5.56247H15.9791V11.5721C15.9791 11.7604 15.9007 11.9016 15.7437 11.9957C15.5868 12.0899 15.4282 12.0829 15.268 11.9747L14.1222 11.2996C13.9619 11.2021 13.7953 11.1534 13.6224 11.1534C13.4494 11.1534 13.2915 11.2021 13.1486 11.2996L12.0028 11.9747C11.8318 12.0829 11.6706 12.0899 11.519 11.9957C11.3674 11.9016 11.2917 11.7604 11.2917 11.5721V5.56247H5.883C5.80286 5.56247 5.7294 5.59586 5.66263 5.66263C5.59584 5.72942 5.56245 5.80288 5.56245 5.88302V17.7419C5.56245 17.8221 5.59584 17.8955 5.66263 17.9623C5.7294 18.0291 5.80286 18.0625 5.883 18.0625ZM5.883 19.6249C5.35681 19.6249 4.91144 19.4427 4.54688 19.0781C4.18229 18.7135 4 18.2681 4 17.7419V5.88302C4 5.35684 4.18229 4.91146 4.54688 4.54688C4.91144 4.18229 5.35681 4 5.883 4H17.7419C18.2681 4 18.7135 4.18229 19.078 4.54688C19.4426 4.91146 19.6249 5.35684 19.6249 5.88302V17.7419C19.6249 18.2681 19.4426 18.7135 19.078 19.0781C18.7135 19.4427 18.2681 19.6249 17.7419 19.6249H5.883Z" fill="currentColor"/>
</g>
</svg>