<svg width="18" height="18" viewBox="0 0 18 18" fill="none" xmlns="http://www.w3.org/2000/svg">
<path fill-rule="evenodd" clip-rule="evenodd" d="M2.59463 1.8H5.44137V16.2H2.59463C2.1528 16.2 1.79463 15.8418 1.79463 15.4V2.6C1.79463 2.15817 2.1528 1.8 2.59463 1.8ZM6.24137 1.8V16.2H15.3946C15.8365 16.2 16.1946 15.8418 16.1946 15.4V2.6C16.1946 2.15817 15.8365 1.8 15.3946 1.8H6.24137ZM15.3946 1H2.59463C1.71097 1 0.994629 1.71634 0.994629 2.6V15.4C0.994629 16.2837 1.71097 17 2.59463 17H15.3946C16.2783 17 16.9946 16.2837 16.9946 15.4V2.6C16.9946 1.71634 16.2783 1 15.3946 1ZM12.342 6.81266C12.1749 6.63207 11.893 6.62116 11.7124 6.78829L9.07393 9.23014C9.03116 9.26972 9.03116 9.33734 9.07393 9.37692L11.7124 11.8188C11.893 11.9859 12.1749 11.975 12.342 11.7944C12.5091 11.6138 12.4982 11.3319 12.3176 11.1648L10.3858 9.37692C10.343 9.33734 10.343 9.26972 10.3858 9.23014L12.3176 7.44226C12.4982 7.27513 12.5091 6.99325 12.342 6.81266Z" />
<path d="M5.44137 1.8H5.69137V1.55H5.44137V1.8ZM5.44137 16.2V16.45H5.69137V16.2H5.44137ZM6.24137 16.2H5.99137V16.45H6.24137V16.2ZM6.24137 1.8V1.55H5.99137V1.8H6.24137ZM11.7124 6.78829L11.8822 6.97178V6.97178L11.7124 6.78829ZM12.342 6.81266L12.5255 6.64286L12.342 6.81266ZM9.07393 9.23014L8.90412 9.04665H8.90412L9.07393 9.23014ZM9.07393 9.37692L8.90412 9.5604H8.90412L9.07393 9.37692ZM11.7124 11.8188L11.8822 11.6353L11.7124 11.8188ZM12.342 11.7944L12.5255 11.9642H12.5255L12.342 11.7944ZM12.3176 11.1648L12.1478 11.3483V11.3483L12.3176 11.1648ZM10.3858 9.37692L10.216 9.5604H10.216L10.3858 9.37692ZM10.3858 9.23014L10.216 9.04665H10.216L10.3858 9.23014ZM12.3176 7.44226L12.4875 7.62575V7.62575L12.3176 7.44226ZM5.44137 1.55H2.59463V2.05H5.44137V1.55ZM5.69137 16.2V1.8H5.19137V16.2H5.69137ZM2.59463 16.45H5.44137V15.95H2.59463V16.45ZM1.54463 15.4C1.54463 15.9799 2.01473 16.45 2.59463 16.45V15.95C2.29087 15.95 2.04463 15.7038 2.04463 15.4H1.54463ZM1.54463 2.6V15.4H2.04463V2.6H1.54463ZM2.59463 1.55C2.01473 1.55 1.54463 2.0201 1.54463 2.6H2.04463C2.04463 2.29624 2.29087 2.05 2.59463 2.05V1.55ZM6.49137 16.2V1.8H5.99137V16.2H6.49137ZM15.3946 15.95H6.24137V16.45H15.3946V15.95ZM15.9446 15.4C15.9446 15.7038 15.6984 15.95 15.3946 15.95V16.45C15.9745 16.45 16.4446 15.9799 16.4446 15.4H15.9446ZM15.9446 2.6V15.4H16.4446V2.6H15.9446ZM15.3946 2.05C15.6984 2.05 15.9446 2.29624 15.9446 2.6H16.4446C16.4446 2.0201 15.9745 1.55 15.3946 1.55V2.05ZM6.24137 2.05H15.3946V1.55H6.24137V2.05ZM2.59463 1.25H15.3946V0.75H2.59463V1.25ZM1.24463 2.6C1.24463 1.85442 1.84904 1.25 2.59463 1.25V0.75C1.5729 0.75 0.744629 1.57827 0.744629 2.6H1.24463ZM1.24463 15.4V2.6H0.744629V15.4H1.24463ZM2.59463 16.75C1.84904 16.75 1.24463 16.1456 1.24463 15.4H0.744629C0.744629 16.4217 1.5729 17.25 2.59463 17.25V16.75ZM15.3946 16.75H2.59463V17.25H15.3946V16.75ZM16.7446 15.4C16.7446 16.1456 16.1402 16.75 15.3946 16.75V17.25C16.4164 17.25 17.2446 16.4217 17.2446 15.4H16.7446ZM16.7446 2.6V15.4H17.2446V2.6H16.7446ZM15.3946 1.25C16.1402 1.25 16.7446 1.85442 16.7446 2.6H17.2446C17.2446 1.57827 16.4164 0.75 15.3946 0.75V1.25ZM11.8822 6.97178C11.9615 6.89843 12.0852 6.90321 12.1585 6.98247L12.5255 6.64286C12.2646 6.36093 11.8245 6.3439 11.5426 6.60481L11.8822 6.97178ZM9.24374 9.41362L11.8822 6.97178L11.5426 6.60481L8.90412 9.04665L9.24374 9.41362ZM9.24374 9.19344C9.30789 9.25281 9.30789 9.35424 9.24374 9.41362L8.90412 9.04665C8.75443 9.18519 8.75443 9.42187 8.90412 9.5604L9.24374 9.19344ZM11.8822 11.6353L9.24374 9.19344L8.90412 9.5604L11.5426 12.0022L11.8822 11.6353ZM12.1585 11.6246C12.0852 11.7038 11.9615 11.7086 11.8822 11.6353L11.5426 12.0022C11.8245 12.2632 12.2646 12.2461 12.5255 11.9642L12.1585 11.6246ZM12.1478 11.3483C12.2271 11.4216 12.2319 11.5453 12.1585 11.6246L12.5255 11.9642C12.7864 11.6823 12.7694 11.2422 12.4875 10.9813L12.1478 11.3483ZM10.216 9.5604L12.1478 11.3483L12.4875 10.9813L10.5556 9.19344L10.216 9.5604ZM10.216 9.04665C10.0663 9.18519 10.0663 9.42186 10.216 9.5604L10.5556 9.19344C10.6198 9.25282 10.6198 9.35425 10.5556 9.41362L10.216 9.04665ZM12.1478 7.25878L10.216 9.04665L10.5556 9.41362L12.4875 7.62575L12.1478 7.25878ZM12.1585 6.98247C12.2319 7.06173 12.2271 7.18543 12.1478 7.25878L12.4875 7.62575C12.7694 7.36483 12.7864 6.92478 12.5255 6.64286L12.1585 6.98247Z"/>
</svg>
