<svg width="287" height="176" viewBox="0 0 287 176" fill="none" xmlns="http://www.w3.org/2000/svg">
<g clip-path="url(#clip0_97_2049)">
<rect width="287" height="176" rx="8" fill="white"/>
<rect x="175" y="24" width="32" height="32" rx="8" fill="#F0FFFB"/>
<path fill-rule="evenodd" clip-rule="evenodd" d="M197.36 33.6387C198.191 34.4698 198.843 35.4379 199.297 36.5174C199.769 37.6397 200 38.822 200 40.0471C199.991 41.2637 199.751 42.446 199.28 43.5512C198.826 44.6221 198.174 45.5816 197.343 46.4041C196.52 47.218 195.543 47.8691 194.471 48.3146C193.374 48.7687 192.2 49 191 49H190.957C189.56 49 188.18 48.6659 186.937 48.0405H183.886C183.646 48.0405 183.406 47.9376 183.234 47.7663C183.054 47.595 182.96 47.3636 182.96 47.1152V44.0652C182.334 42.8144 182 41.4436 182 40.0471C182 38.8306 182.223 37.6483 182.677 36.5259C183.123 35.4465 183.766 34.4869 184.589 33.6559C185.403 32.8334 186.371 32.1737 187.443 31.7197C188.549 31.2485 189.731 31 190.949 31H190.991C192.2 31 193.374 31.2399 194.48 31.7025C195.56 32.1566 196.537 32.8163 197.36 33.6387ZM191 47.475C192.989 47.475 194.857 46.7125 196.263 45.316C197.677 43.911 198.466 42.0347 198.474 40.0386C198.474 39.019 198.277 38.0338 197.891 37.1085C197.514 36.2089 196.966 35.4036 196.28 34.7182C195.586 34.0243 194.789 33.4845 193.889 33.1076C192.971 32.722 191.994 32.525 190.991 32.525H190.957C188.951 32.5336 187.083 33.3218 185.677 34.7354C184.271 36.149 183.517 38.0252 183.517 40.03C183.526 41.2465 183.826 42.446 184.391 43.5083L184.486 43.6797V46.5069H187.314L187.486 46.6011C188.549 47.1666 189.757 47.475 190.966 47.475H191ZM191.001 34.9944C191.85 34.9944 192.651 35.2856 193.257 35.8173C193.888 36.3693 194.236 37.1113 194.234 37.9059C194.234 39.0745 193.464 40.1259 192.271 40.5848C192.088 40.6555 191.93 40.7798 191.819 40.9414C191.707 41.1029 191.647 41.2943 191.646 41.4906V41.9496C191.646 42.0385 191.573 42.1113 191.484 42.1113H190.514C190.425 42.1113 190.352 42.0385 190.352 41.9496V41.5149C190.352 41.0478 190.489 40.5869 190.754 40.2027C191.015 39.8266 191.379 39.5395 191.808 39.3758C192.497 39.1109 192.942 38.5347 192.942 37.9059C192.942 37.0143 192.071 36.2884 191.001 36.2884C189.931 36.2884 189.06 37.0143 189.06 37.9059V38.0596C189.06 38.1485 188.987 38.2213 188.898 38.2213H187.928C187.839 38.2213 187.766 38.1485 187.766 38.0596V37.9059C187.766 37.1113 188.114 36.3693 188.745 35.8173C189.351 35.2876 190.152 34.9944 191.001 34.9944ZM190.429 44.7859C190.277 44.6342 190.192 44.4285 190.192 44.214C190.192 43.9995 190.277 43.7938 190.429 43.6422C190.581 43.4905 190.787 43.4053 191.001 43.4053C191.215 43.4053 191.421 43.4905 191.573 43.6422C191.725 43.7938 191.81 43.9995 191.81 44.214C191.81 44.4285 191.725 44.6342 191.573 44.7859C191.421 44.9376 191.215 45.0228 191.001 45.0228C190.787 45.0228 190.581 44.9376 190.429 44.7859Z" fill="#373D44"/>
<path d="M248.676 42.6634L247.141 41.3509C247.213 40.9055 247.251 40.4509 247.251 39.9962C247.251 39.5415 247.213 39.0868 247.141 38.6415L248.676 37.329C248.792 37.2299 248.874 37.0978 248.913 36.9505C248.952 36.8031 248.945 36.6474 248.894 36.504L248.873 36.443C248.45 35.2619 247.817 34.1669 247.005 33.211L246.963 33.1618C246.864 33.0459 246.733 32.9626 246.586 32.9228C246.439 32.8831 246.283 32.8888 246.14 32.9391L244.234 33.6165C243.531 33.0399 242.746 32.5852 241.898 32.2665L241.53 30.2743C241.502 30.1244 241.429 29.9865 241.321 29.8789C241.213 29.7713 241.075 29.6991 240.925 29.6719L240.862 29.6602C239.641 29.4399 238.356 29.4399 237.135 29.6602L237.072 29.6719C236.922 29.6991 236.784 29.7713 236.676 29.8789C236.568 29.9865 236.495 30.1244 236.467 30.2743L236.097 32.2759C235.255 32.5947 234.471 33.0491 233.777 33.6212L231.857 32.9391C231.714 32.8884 231.558 32.8825 231.411 32.9223C231.264 32.962 231.133 33.0456 231.034 33.1618L230.992 33.211C230.181 34.1676 229.548 35.2623 229.124 36.443L229.103 36.504C228.998 36.7969 229.084 37.1251 229.321 37.329L230.875 38.6555C230.802 39.0962 230.767 39.5462 230.767 39.9938C230.767 40.4438 230.802 40.8938 230.875 41.3321L229.321 42.6587C229.205 42.7578 229.122 42.8898 229.083 43.0372C229.045 43.1846 229.051 43.3403 229.103 43.4837L229.124 43.5446C229.548 44.7259 230.177 45.8157 230.992 46.7766L231.034 46.8259C231.133 46.9417 231.264 47.0251 231.411 47.0648C231.558 47.1046 231.713 47.0989 231.857 47.0485L233.777 46.3665C234.475 46.9407 235.255 47.3954 236.097 47.7118L236.467 49.7134C236.495 49.8633 236.568 50.0012 236.676 50.1088C236.784 50.2163 236.922 50.2885 237.072 50.3157L237.135 50.3274C238.367 50.5489 239.629 50.5489 240.862 50.3274L240.925 50.3157C241.075 50.2885 241.213 50.2163 241.321 50.1088C241.429 50.0012 241.502 49.8633 241.53 49.7134L241.898 47.7212C242.746 47.4033 243.535 46.9471 244.234 46.3712L246.14 47.0485C246.283 47.0993 246.439 47.1052 246.586 47.0654C246.733 47.0256 246.864 46.9421 246.963 46.8259L247.005 46.7766C247.82 45.8134 248.448 44.7259 248.873 43.5446L248.894 43.4837C248.999 43.1954 248.913 42.8673 248.676 42.6634ZM245.477 38.918C245.535 39.2719 245.566 39.6352 245.566 39.9985C245.566 40.3618 245.535 40.7251 245.477 41.079L245.322 42.0188L247.073 43.5165C246.807 44.1279 246.472 44.7068 246.074 45.2415L243.899 44.4704L243.163 45.0751C242.603 45.5344 241.98 45.8954 241.305 46.1485L240.412 46.4837L239.992 48.7571C239.33 48.8321 238.662 48.8321 238 48.7571L237.58 46.479L236.695 46.1391C236.027 45.886 235.405 45.5251 234.85 45.068L234.114 44.461L231.925 45.2391C231.527 44.7024 231.194 44.1235 230.927 43.5141L232.696 42.0024L232.544 41.0649C232.488 40.7157 232.457 40.3548 232.457 39.9985C232.457 39.6399 232.485 39.2813 232.544 38.9321L232.696 37.9946L230.927 36.4829C231.191 35.8712 231.527 35.2946 231.925 34.7579L234.114 35.536L234.85 34.929C235.405 34.4719 236.027 34.111 236.695 33.8579L237.583 33.5227L238.002 31.2446C238.661 31.1696 239.334 31.1696 239.995 31.2446L240.414 33.518L241.307 33.8532C241.98 34.1063 242.605 34.4673 243.166 34.9266L243.902 35.5313L246.077 34.7602C246.475 35.2969 246.808 35.8759 247.075 36.4852L245.324 37.9829L245.477 38.918ZM239.001 35.6391C236.723 35.6391 234.876 37.486 234.876 39.7641C234.876 42.0423 236.723 43.8891 239.001 43.8891C241.279 43.8891 243.126 42.0423 243.126 39.7641C243.126 37.486 241.279 35.6391 239.001 35.6391ZM240.857 41.6204C240.614 41.8646 240.324 42.0582 240.006 42.1901C239.687 42.322 239.346 42.3897 239.001 42.3891C238.3 42.3891 237.641 42.1149 237.145 41.6204C236.9 41.3769 236.707 41.0876 236.575 40.769C236.443 40.4504 236.375 40.1089 236.376 39.7641C236.376 39.0634 236.65 38.4048 237.145 37.9079C237.641 37.411 238.3 37.1391 239.001 37.1391C239.702 37.1391 240.36 37.411 240.857 37.9079C241.101 38.1514 241.295 38.4407 241.427 38.7593C241.559 39.0778 241.626 39.4193 241.626 39.7641C241.626 40.4649 241.352 41.1235 240.857 41.6204Z" fill="#373D44"/>
<g filter="url(#filter0_ddd_97_2049)">
<rect x="32" y="60" width="175" height="232" rx="6" fill="white" shape-rendering="crispEdges"/>
<rect x="36" y="64" width="167" height="32" rx="4" fill="#F0FFFB"/>
<path d="M53.187 85.21C52.179 85.21 51.3203 84.9907 50.611 84.552C49.9017 84.1087 49.358 83.4927 48.98 82.704C48.6067 81.9153 48.42 81.0007 48.42 79.96C48.42 78.9193 48.6067 78.0047 48.98 77.216C49.358 76.4273 49.9017 75.8137 50.611 75.375C51.3203 74.9317 52.179 74.71 53.187 74.71C54.349 74.71 55.3103 75.004 56.071 75.592C56.8363 76.18 57.3683 76.971 57.667 77.965L56.183 78.364C55.987 77.6593 55.637 77.1063 55.133 76.705C54.6337 76.3037 53.985 76.103 53.187 76.103C52.473 76.103 51.878 76.264 51.402 76.586C50.926 76.908 50.5667 77.3583 50.324 77.937C50.086 78.5157 49.967 79.19 49.967 79.96C49.9623 80.73 50.079 81.4043 50.317 81.983C50.5597 82.5617 50.919 83.012 51.395 83.334C51.8757 83.656 52.473 83.817 53.187 83.817C53.985 83.817 54.6337 83.6163 55.133 83.215C55.637 82.809 55.987 82.256 56.183 81.556L57.667 81.955C57.3683 82.949 56.8363 83.74 56.071 84.328C55.3103 84.916 54.349 85.21 53.187 85.21ZM62.0556 85.203C61.5329 85.203 61.0942 85.119 60.7396 84.951C60.3849 84.783 60.0956 84.5637 59.8716 84.293C59.6522 84.0177 59.4842 83.719 59.3676 83.397C59.2509 83.075 59.1716 82.76 59.1296 82.452C59.0876 82.144 59.0666 81.8733 59.0666 81.64V77.44H60.5506V81.157C60.5506 81.451 60.5739 81.7543 60.6206 82.067C60.6719 82.375 60.7652 82.662 60.9006 82.928C61.0406 83.194 61.2342 83.4087 61.4816 83.572C61.7336 83.7353 62.0602 83.817 62.4616 83.817C62.7229 83.817 62.9702 83.775 63.2036 83.691C63.4369 83.6023 63.6399 83.4623 63.8126 83.271C63.9899 83.0797 64.1276 82.8277 64.2256 82.515C64.3282 82.2023 64.3796 81.822 64.3796 81.374L65.2896 81.717C65.2896 82.403 65.1612 83.0097 64.9046 83.537C64.6479 84.0597 64.2792 84.468 63.7986 84.762C63.3179 85.056 62.7369 85.203 62.0556 85.203ZM64.5546 85V82.816H64.3796V77.44H65.8566V85H64.5546ZM70.7108 85.203C69.7915 85.203 69.0425 85 68.4638 84.594C67.8852 84.188 67.5305 83.6163 67.3998 82.879L68.8978 82.648C68.9912 83.04 69.2058 83.3503 69.5418 83.579C69.8825 83.803 70.3048 83.915 70.8088 83.915C71.2662 83.915 71.6232 83.8217 71.8798 83.635C72.1412 83.4483 72.2718 83.1917 72.2718 82.865C72.2718 82.6737 72.2252 82.5197 72.1318 82.403C72.0432 82.2817 71.8542 82.1673 71.5648 82.06C71.2755 81.9527 70.8345 81.8197 70.2418 81.661C69.5932 81.493 69.0775 81.3133 68.6948 81.122C68.3168 80.926 68.0462 80.6997 67.8828 80.443C67.7242 80.1817 67.6448 79.8667 67.6448 79.498C67.6448 79.0407 67.7662 78.6417 68.0088 78.301C68.2515 77.9603 68.5922 77.6967 69.0308 77.51C69.4742 77.3233 69.9922 77.23 70.5848 77.23C71.1635 77.23 71.6792 77.321 72.1318 77.503C72.5845 77.685 72.9508 77.944 73.2308 78.28C73.5108 78.6113 73.6788 79.001 73.7348 79.449L72.2368 79.722C72.1855 79.358 72.0152 79.071 71.7258 78.861C71.4365 78.651 71.0608 78.5367 70.5988 78.518C70.1555 78.4993 69.7962 78.574 69.5208 78.742C69.2455 78.9053 69.1078 79.1317 69.1078 79.421C69.1078 79.589 69.1592 79.7313 69.2618 79.848C69.3692 79.9647 69.5745 80.0767 69.8778 80.184C70.1812 80.2913 70.6292 80.4197 71.2218 80.569C71.8565 80.7323 72.3605 80.9143 72.7338 81.115C73.1072 81.311 73.3732 81.5467 73.5318 81.822C73.6952 82.0927 73.7768 82.4217 73.7768 82.809C73.7768 83.5557 73.5038 84.1413 72.9578 84.566C72.4165 84.9907 71.6675 85.203 70.7108 85.203ZM79.6517 85C79.1757 85.0933 78.709 85.133 78.2517 85.119C77.7944 85.105 77.386 85.0163 77.0267 84.853C76.6674 84.6897 76.3967 84.433 76.2147 84.083C76.0514 83.7703 75.9627 83.453 75.9487 83.131C75.9394 82.8043 75.9347 82.4357 75.9347 82.025V75.34H77.4047V81.955C77.4047 82.2583 77.407 82.522 77.4117 82.746C77.421 82.97 77.47 83.159 77.5587 83.313C77.7267 83.6023 77.9927 83.768 78.3567 83.81C78.7254 83.8473 79.157 83.831 79.6517 83.761V85ZM74.4857 78.616V77.44H79.6517V78.616H74.4857ZM84.1868 85.21C83.4308 85.21 82.7752 85.0397 82.2198 84.699C81.6645 84.3583 81.2352 83.8893 80.9318 83.292C80.6332 82.69 80.4838 81.997 80.4838 81.213C80.4838 80.4243 80.6378 79.7313 80.9458 79.134C81.2538 78.532 81.6855 78.0653 82.2408 77.734C82.7962 77.398 83.4448 77.23 84.1868 77.23C84.9428 77.23 85.5985 77.4003 86.1538 77.741C86.7092 78.0817 87.1385 78.5507 87.4418 79.148C87.7452 79.7453 87.8968 80.4337 87.8968 81.213C87.8968 82.0017 87.7428 82.697 87.4348 83.299C87.1315 83.8963 86.7022 84.3653 86.1468 84.706C85.5915 85.042 84.9382 85.21 84.1868 85.21ZM84.1868 83.831C84.9102 83.831 85.4492 83.5883 85.8038 83.103C86.1632 82.613 86.3428 81.983 86.3428 81.213C86.3428 80.4243 86.1608 79.7943 85.7968 79.323C85.4375 78.847 84.9008 78.609 84.1868 78.609C83.6968 78.609 83.2932 78.721 82.9758 78.945C82.6585 79.1643 82.4228 79.47 82.2688 79.862C82.1148 80.2493 82.0378 80.6997 82.0378 81.213C82.0378 82.0063 82.2198 82.641 82.5838 83.117C82.9478 83.593 83.4822 83.831 84.1868 83.831ZM98.4931 85L98.5001 80.289C98.5001 79.743 98.3601 79.3183 98.0801 79.015C97.8001 78.707 97.4314 78.553 96.9741 78.553C96.6941 78.553 96.4374 78.6183 96.2041 78.749C95.9754 78.875 95.7887 79.0663 95.6441 79.323C95.5041 79.575 95.4341 79.8923 95.4341 80.275L94.7271 79.918C94.7177 79.386 94.8297 78.9193 95.0631 78.518C95.3011 78.1167 95.6231 77.8063 96.0291 77.587C96.4351 77.363 96.8901 77.251 97.3941 77.251C98.2107 77.251 98.8431 77.496 99.2911 77.986C99.7391 78.476 99.9631 79.127 99.9631 79.939L99.9561 85H98.4931ZM89.4281 85V77.44H90.7301V79.624H90.8981V85H89.4281ZM93.9641 85L93.9711 80.317C93.9711 79.7663 93.8311 79.3347 93.5511 79.022C93.2757 78.7093 92.9047 78.553 92.4381 78.553C91.9761 78.553 91.6027 78.7117 91.3181 79.029C91.0381 79.3463 90.8981 79.7617 90.8981 80.275L90.1981 79.827C90.1981 79.3323 90.3171 78.8913 90.5551 78.504C90.7931 78.1167 91.1151 77.811 91.5211 77.587C91.9271 77.363 92.3867 77.251 92.9001 77.251C93.4367 77.251 93.8941 77.3653 94.2721 77.594C94.6501 77.818 94.9371 78.133 95.1331 78.539C95.3337 78.945 95.4341 79.4163 95.4341 79.953L95.4271 85H93.9641ZM104.584 85V74.92H106.047V79.267H111.087V74.92H112.557V85H111.087V80.646H106.047V85H104.584ZM117.876 85.21C117.125 85.21 116.464 85.0467 115.895 84.72C115.33 84.3887 114.889 83.929 114.572 83.341C114.259 82.7483 114.103 82.0623 114.103 81.283C114.103 80.457 114.257 79.7407 114.565 79.134C114.878 78.5273 115.312 78.0583 115.867 77.727C116.422 77.3957 117.069 77.23 117.806 77.23C118.576 77.23 119.232 77.4097 119.773 77.769C120.314 78.1237 120.718 78.63 120.984 79.288C121.255 79.946 121.362 80.7277 121.306 81.633H119.843V81.101C119.834 80.2237 119.666 79.575 119.339 79.155C119.017 78.735 118.525 78.525 117.862 78.525C117.129 78.525 116.579 78.756 116.21 79.218C115.841 79.68 115.657 80.3473 115.657 81.22C115.657 82.0507 115.841 82.6947 116.21 83.152C116.579 83.6047 117.111 83.831 117.806 83.831C118.263 83.831 118.658 83.7283 118.989 83.523C119.325 83.313 119.586 83.0143 119.773 82.627L121.208 83.082C120.914 83.7587 120.468 84.2837 119.871 84.657C119.274 85.0257 118.609 85.21 117.876 85.21ZM115.181 81.633V80.492H120.578V81.633H115.181ZM123.016 85V74.71H124.479V85H123.016ZM130.131 85.21C129.407 85.21 128.801 85.035 128.311 84.685C127.821 84.3303 127.45 83.852 127.198 83.25C126.946 82.648 126.82 81.969 126.82 81.213C126.82 80.457 126.943 79.778 127.191 79.176C127.443 78.574 127.811 78.1003 128.297 77.755C128.787 77.405 129.389 77.23 130.103 77.23C130.812 77.23 131.423 77.405 131.937 77.755C132.455 78.1003 132.854 78.574 133.134 79.176C133.414 79.7733 133.554 80.4523 133.554 81.213C133.554 81.969 133.414 82.6503 133.134 83.257C132.858 83.859 132.464 84.335 131.951 84.685C131.442 85.035 130.835 85.21 130.131 85.21ZM126.575 88.36V77.44H127.877V82.879H128.045V88.36H126.575ZM129.928 83.887C130.394 83.887 130.779 83.768 131.083 83.53C131.391 83.292 131.619 82.9723 131.769 82.571C131.923 82.165 132 81.7123 132 81.213C132 80.7183 131.923 80.2703 131.769 79.869C131.619 79.4677 131.388 79.148 131.076 78.91C130.763 78.672 130.364 78.553 129.879 78.553C129.421 78.553 129.043 78.665 128.745 78.889C128.451 79.113 128.231 79.4257 128.087 79.827C127.947 80.2283 127.877 80.6903 127.877 81.213C127.877 81.7357 127.947 82.1977 128.087 82.599C128.227 83.0003 128.448 83.3153 128.752 83.544C129.055 83.7727 129.447 83.887 129.928 83.887ZM138.042 85V74.92H139.505V83.621H144.069V85H138.042ZM145.397 76.201V74.78H146.86V76.201H145.397ZM145.397 85V77.44H146.86V85H145.397ZM154.268 85V81.283C154.268 80.989 154.243 80.688 154.191 80.38C154.145 80.0673 154.051 79.778 153.911 79.512C153.776 79.246 153.582 79.0313 153.33 78.868C153.083 78.7047 152.759 78.623 152.357 78.623C152.096 78.623 151.849 78.6673 151.615 78.756C151.382 78.84 151.177 78.9777 150.999 79.169C150.827 79.3603 150.689 79.6123 150.586 79.925C150.488 80.2377 150.439 80.618 150.439 81.066L149.529 80.723C149.529 80.037 149.658 79.4327 149.914 78.91C150.171 78.3827 150.54 77.972 151.02 77.678C151.501 77.384 152.082 77.237 152.763 77.237C153.286 77.237 153.725 77.321 154.079 77.489C154.434 77.657 154.721 77.8787 154.94 78.154C155.164 78.4247 155.335 78.721 155.451 79.043C155.568 79.365 155.647 79.68 155.689 79.988C155.731 80.296 155.752 80.5667 155.752 80.8V85H154.268ZM148.955 85V77.44H150.264V79.624H150.439V85H148.955ZM157.569 85L157.576 74.92H159.06V81.08L162.028 77.44H163.89L160.754 81.22L164.212 85H162.224L159.06 81.36V85H157.569Z" fill="#373D44"/>
<path d="M36 97H203V95H36V97Z" fill="#E8EBED" mask="url(#path-10-inside-1_97_2049)"/>
<path d="M48.98 117V106.92H52.039C52.1463 106.92 52.3283 106.922 52.585 106.927C52.8463 106.932 53.096 106.95 53.334 106.983C54.0993 107.09 54.7387 107.375 55.252 107.837C55.7653 108.299 56.1503 108.887 56.407 109.601C56.6637 110.315 56.792 111.101 56.792 111.96C56.792 112.819 56.6637 113.605 56.407 114.319C56.1503 115.033 55.7653 115.621 55.252 116.083C54.7387 116.545 54.0993 116.83 53.334 116.937C53.1007 116.965 52.851 116.984 52.585 116.993C52.319 116.998 52.137 117 52.039 117H48.98ZM50.044 116.013H52.039C52.2303 116.013 52.4357 116.008 52.655 115.999C52.879 115.985 53.0703 115.962 53.229 115.929C53.817 115.826 54.2907 115.588 54.65 115.215C55.014 114.842 55.28 114.375 55.448 113.815C55.616 113.25 55.7 112.632 55.7 111.96C55.7 111.283 55.616 110.663 55.448 110.098C55.28 109.533 55.014 109.067 54.65 108.698C54.286 108.329 53.8123 108.094 53.229 107.991C53.0703 107.958 52.8767 107.937 52.648 107.928C52.424 107.914 52.221 107.907 52.039 107.907H50.044V116.013ZM60.5493 117.21C59.9799 117.21 59.5016 117.107 59.1143 116.902C58.7316 116.697 58.4446 116.424 58.2533 116.083C58.0619 115.742 57.9663 115.371 57.9663 114.97C57.9663 114.559 58.0479 114.209 58.2113 113.92C58.3793 113.626 58.6056 113.386 58.8903 113.199C59.1796 113.012 59.5133 112.87 59.8913 112.772C60.2739 112.679 60.6963 112.597 61.1583 112.527C61.6249 112.452 62.0799 112.389 62.5233 112.338C62.9713 112.282 63.3633 112.228 63.6993 112.177L63.3353 112.401C63.3493 111.654 63.2046 111.101 62.9013 110.742C62.5979 110.383 62.0706 110.203 61.3193 110.203C60.8013 110.203 60.3626 110.32 60.0033 110.553C59.6486 110.786 59.3989 111.155 59.2542 111.659L58.2533 111.365C58.4259 110.688 58.7736 110.163 59.2963 109.79C59.8189 109.417 60.4979 109.23 61.3333 109.23C62.0239 109.23 62.6096 109.361 63.0903 109.622C63.5756 109.879 63.9186 110.252 64.1193 110.742C64.2126 110.961 64.2733 111.206 64.3013 111.477C64.3293 111.748 64.3433 112.023 64.3433 112.303V117H63.4263V115.103L63.6923 115.215C63.4356 115.864 63.0366 116.358 62.4953 116.699C61.9539 117.04 61.3053 117.21 60.5493 117.21ZM60.6683 116.321C61.1489 116.321 61.5689 116.235 61.9283 116.062C62.2876 115.889 62.5769 115.654 62.7963 115.355C63.0156 115.052 63.1579 114.711 63.2233 114.333C63.2793 114.09 63.3096 113.824 63.3143 113.535C63.3189 113.241 63.3213 113.022 63.3213 112.877L63.7133 113.08C63.3633 113.127 62.9829 113.173 62.5723 113.22C62.1663 113.267 61.7649 113.32 61.3683 113.381C60.9763 113.442 60.6216 113.514 60.3043 113.598C60.0896 113.659 59.8819 113.745 59.6813 113.857C59.4806 113.964 59.3149 114.109 59.1843 114.291C59.0583 114.473 58.9953 114.699 58.9953 114.97C58.9953 115.189 59.0489 115.402 59.1562 115.607C59.2683 115.812 59.4456 115.983 59.6883 116.118C59.9356 116.253 60.2623 116.321 60.6683 116.321ZM70.2815 117C69.8569 117.089 69.4369 117.124 69.0215 117.105C68.6109 117.086 68.2422 116.998 67.9155 116.839C67.5935 116.68 67.3485 116.433 67.1805 116.097C67.0452 115.817 66.9705 115.535 66.9565 115.25C66.9472 114.961 66.9425 114.632 66.9425 114.263V107.34H67.9645V114.221C67.9645 114.538 67.9669 114.804 67.9715 115.019C67.9809 115.229 68.0299 115.416 68.1185 115.579C68.2865 115.892 68.5525 116.078 68.9165 116.139C69.2852 116.2 69.7402 116.186 70.2815 116.097V117ZM65.3255 110.322V109.44H70.2815V110.322H65.3255ZM73.934 117.21C73.3647 117.21 72.8863 117.107 72.499 116.902C72.1163 116.697 71.8293 116.424 71.638 116.083C71.4467 115.742 71.351 115.371 71.351 114.97C71.351 114.559 71.4327 114.209 71.596 113.92C71.764 113.626 71.9903 113.386 72.275 113.199C72.5643 113.012 72.898 112.87 73.276 112.772C73.6587 112.679 74.081 112.597 74.543 112.527C75.0097 112.452 75.4647 112.389 75.908 112.338C76.356 112.282 76.748 112.228 77.084 112.177L76.72 112.401C76.734 111.654 76.5893 111.101 76.286 110.742C75.9827 110.383 75.4553 110.203 74.704 110.203C74.186 110.203 73.7473 110.32 73.388 110.553C73.0333 110.786 72.7837 111.155 72.639 111.659L71.638 111.365C71.8107 110.688 72.1583 110.163 72.681 109.79C73.2037 109.417 73.8827 109.23 74.718 109.23C75.4087 109.23 75.9943 109.361 76.475 109.622C76.9603 109.879 77.3033 110.252 77.504 110.742C77.5973 110.961 77.658 111.206 77.686 111.477C77.714 111.748 77.728 112.023 77.728 112.303V117H76.811V115.103L77.077 115.215C76.8203 115.864 76.4213 116.358 75.88 116.699C75.3387 117.04 74.69 117.21 73.934 117.21ZM74.053 116.321C74.5337 116.321 74.9537 116.235 75.313 116.062C75.6723 115.889 75.9617 115.654 76.181 115.355C76.4003 115.052 76.5427 114.711 76.608 114.333C76.664 114.09 76.6943 113.824 76.699 113.535C76.7037 113.241 76.706 113.022 76.706 112.877L77.098 113.08C76.748 113.127 76.3677 113.173 75.957 113.22C75.551 113.267 75.1497 113.32 74.753 113.381C74.361 113.442 74.0063 113.514 73.689 113.598C73.4743 113.659 73.2667 113.745 73.066 113.857C72.8653 113.964 72.6997 114.109 72.569 114.291C72.443 114.473 72.38 114.699 72.38 114.97C72.38 115.189 72.4337 115.402 72.541 115.607C72.653 115.812 72.8303 115.983 73.073 116.118C73.3203 116.253 73.647 116.321 74.053 116.321ZM79.5503 117V106.92H80.5793V111.463H86.1513V106.92H87.1733V117H86.1513V112.45H80.5793V117H79.5503ZM92.0253 117.189C91.5726 117.189 91.176 117.119 90.8353 116.979C90.4993 116.839 90.2123 116.65 89.9743 116.412C89.741 116.174 89.552 115.903 89.4073 115.6C89.2626 115.292 89.1576 114.968 89.0923 114.627C89.027 114.282 88.9943 113.939 88.9943 113.598V109.44H90.0303V113.297C90.0303 113.712 90.07 114.097 90.1493 114.452C90.2286 114.807 90.3546 115.117 90.5273 115.383C90.7046 115.644 90.931 115.847 91.2063 115.992C91.4863 116.137 91.8246 116.209 92.2213 116.209C92.5853 116.209 92.905 116.146 93.1803 116.02C93.4603 115.894 93.6936 115.714 93.8803 115.481C94.0716 115.243 94.2163 114.956 94.3143 114.62C94.4123 114.279 94.4613 113.897 94.4613 113.472L95.1893 113.633C95.1893 114.408 95.054 115.059 94.7833 115.586C94.5126 116.113 94.1393 116.512 93.6633 116.783C93.1873 117.054 92.6413 117.189 92.0253 117.189ZM94.5663 117V115.138H94.4613V109.44H95.4903V117H94.5663ZM100.842 117.21C100.146 117.21 99.5585 117.035 99.0778 116.685C98.5971 116.33 98.2331 115.852 97.9858 115.25C97.7385 114.643 97.6148 113.964 97.6148 113.213C97.6148 112.448 97.7385 111.766 97.9858 111.169C98.2378 110.567 98.6065 110.093 99.0918 109.748C99.5771 109.403 100.174 109.23 100.884 109.23C101.574 109.23 102.167 109.405 102.662 109.755C103.156 110.105 103.534 110.581 103.796 111.183C104.062 111.785 104.195 112.462 104.195 113.213C104.195 113.969 104.062 114.648 103.796 115.25C103.53 115.852 103.147 116.33 102.648 116.685C102.148 117.035 101.546 117.21 100.842 117.21ZM97.4398 117V106.92H98.4758V111.309H98.3638V117H97.4398ZM100.737 116.251C101.264 116.251 101.703 116.118 102.053 115.852C102.403 115.586 102.664 115.224 102.837 114.767C103.014 114.305 103.103 113.787 103.103 113.213C103.103 112.644 103.016 112.13 102.844 111.673C102.671 111.216 102.407 110.854 102.053 110.588C101.703 110.322 101.257 110.189 100.716 110.189C100.188 110.189 99.7498 110.317 99.3998 110.574C99.0545 110.831 98.7955 111.188 98.6228 111.645C98.4501 112.098 98.3638 112.62 98.3638 113.213C98.3638 113.796 98.4501 114.319 98.6228 114.781C98.7955 115.238 99.0568 115.598 99.4068 115.859C99.7568 116.12 100.2 116.251 100.737 116.251ZM108.535 117V106.92H112.427C112.525 106.92 112.634 106.925 112.756 106.934C112.882 106.939 113.008 106.953 113.134 106.976C113.661 107.055 114.107 107.24 114.471 107.529C114.839 107.814 115.117 108.173 115.304 108.607C115.495 109.041 115.591 109.522 115.591 110.049C115.591 110.572 115.495 111.05 115.304 111.484C115.112 111.918 114.832 112.28 114.464 112.569C114.1 112.854 113.656 113.036 113.134 113.115C113.008 113.134 112.882 113.148 112.756 113.157C112.634 113.166 112.525 113.171 112.427 113.171H109.564V117H108.535ZM109.564 112.191H112.399C112.483 112.191 112.581 112.186 112.693 112.177C112.805 112.168 112.914 112.151 113.022 112.128C113.367 112.053 113.649 111.911 113.869 111.701C114.093 111.491 114.258 111.241 114.366 110.952C114.478 110.663 114.534 110.362 114.534 110.049C114.534 109.736 114.478 109.435 114.366 109.146C114.258 108.852 114.093 108.6 113.869 108.39C113.649 108.18 113.367 108.038 113.022 107.963C112.914 107.94 112.805 107.926 112.693 107.921C112.581 107.912 112.483 107.907 112.399 107.907H109.564V112.191ZM116.984 117V109.44H117.908V111.26L117.726 111.022C117.81 110.798 117.92 110.593 118.055 110.406C118.19 110.215 118.337 110.058 118.496 109.937C118.692 109.764 118.921 109.634 119.182 109.545C119.443 109.452 119.707 109.398 119.973 109.384C120.239 109.365 120.482 109.384 120.701 109.44V110.406C120.426 110.336 120.125 110.32 119.798 110.357C119.471 110.394 119.17 110.525 118.895 110.749C118.643 110.945 118.454 111.181 118.328 111.456C118.202 111.727 118.118 112.016 118.076 112.324C118.034 112.627 118.013 112.928 118.013 113.227V117H116.984ZM125.049 117.21C124.298 117.21 123.656 117.04 123.124 116.699C122.592 116.358 122.184 115.887 121.899 115.285C121.614 114.683 121.472 113.992 121.472 113.213C121.472 112.42 121.617 111.724 121.906 111.127C122.195 110.53 122.606 110.065 123.138 109.734C123.675 109.398 124.312 109.23 125.049 109.23C125.805 109.23 126.449 109.4 126.981 109.741C127.518 110.077 127.926 110.546 128.206 111.148C128.491 111.745 128.633 112.434 128.633 113.213C128.633 114.006 128.491 114.704 128.206 115.306C127.921 115.903 127.511 116.37 126.974 116.706C126.437 117.042 125.796 117.21 125.049 117.21ZM125.049 116.223C125.889 116.223 126.514 115.945 126.925 115.39C127.336 114.83 127.541 114.104 127.541 113.213C127.541 112.298 127.333 111.57 126.918 111.029C126.507 110.488 125.884 110.217 125.049 110.217C124.484 110.217 124.018 110.345 123.649 110.602C123.285 110.854 123.012 111.206 122.83 111.659C122.653 112.107 122.564 112.625 122.564 113.213C122.564 114.123 122.774 114.853 123.194 115.404C123.614 115.95 124.232 116.223 125.049 116.223ZM129.057 120.36V119.366H129.484C129.825 119.366 130.096 119.277 130.296 119.1C130.502 118.927 130.604 118.636 130.604 118.225V109.44H131.626V118.484C131.626 119.114 131.475 119.583 131.171 119.891C130.873 120.204 130.413 120.36 129.792 120.36H129.057ZM130.604 108.005V106.85H131.626V108.005H130.604ZM136.89 117.21C136.153 117.21 135.513 117.047 134.972 116.72C134.435 116.393 134.018 115.934 133.719 115.341C133.42 114.748 133.271 114.053 133.271 113.255C133.271 112.429 133.418 111.715 133.712 111.113C134.006 110.511 134.419 110.047 134.951 109.72C135.488 109.393 136.12 109.23 136.848 109.23C137.595 109.23 138.232 109.403 138.759 109.748C139.286 110.089 139.685 110.579 139.956 111.218C140.227 111.857 140.35 112.62 140.327 113.507H139.277V113.143C139.258 112.163 139.046 111.423 138.64 110.924C138.239 110.425 137.651 110.175 136.876 110.175C136.064 110.175 135.441 110.439 135.007 110.966C134.578 111.493 134.363 112.245 134.363 113.22C134.363 114.172 134.578 114.912 135.007 115.439C135.441 115.962 136.055 116.223 136.848 116.223C137.389 116.223 137.861 116.099 138.262 115.852C138.668 115.6 138.988 115.238 139.221 114.767L140.18 115.138C139.881 115.796 139.44 116.307 138.857 116.671C138.278 117.03 137.623 117.21 136.89 117.21ZM133.999 113.507V112.646H139.774V113.507H133.999ZM145.016 117.21C144.256 117.21 143.612 117.04 143.084 116.699C142.557 116.358 142.156 115.889 141.88 115.292C141.61 114.69 141.47 113.999 141.46 113.22C141.47 112.427 141.614 111.731 141.894 111.134C142.174 110.532 142.578 110.065 143.105 109.734C143.633 109.398 144.272 109.23 145.023 109.23C145.789 109.23 146.454 109.417 147.018 109.79C147.588 110.163 147.977 110.674 148.187 111.323L147.179 111.645C147.002 111.192 146.72 110.842 146.332 110.595C145.95 110.343 145.511 110.217 145.016 110.217C144.461 110.217 144.001 110.345 143.637 110.602C143.273 110.854 143.003 111.206 142.825 111.659C142.648 112.112 142.557 112.632 142.552 113.22C142.562 114.125 142.772 114.853 143.182 115.404C143.593 115.95 144.204 116.223 145.016 116.223C145.53 116.223 145.966 116.106 146.325 115.873C146.689 115.635 146.965 115.29 147.151 114.837L148.187 115.145C147.907 115.817 147.497 116.33 146.955 116.685C146.414 117.035 145.768 117.21 145.016 117.21ZM153.748 117C153.324 117.089 152.904 117.124 152.488 117.105C152.078 117.086 151.709 116.998 151.382 116.839C151.06 116.68 150.815 116.433 150.647 116.097C150.512 115.817 150.437 115.535 150.423 115.25C150.414 114.961 150.409 114.632 150.409 114.263V107.34H151.431V114.221C151.431 114.538 151.434 114.804 151.438 115.019C151.448 115.229 151.497 115.416 151.585 115.579C151.753 115.892 152.019 116.078 152.383 116.139C152.752 116.2 153.207 116.186 153.748 116.097V117ZM148.792 110.322V109.44H153.748V110.322H148.792Z" fill="#373D44"/>
<path d="M48.98 149V138.92H52.039C52.1463 138.92 52.3283 138.922 52.585 138.927C52.8463 138.932 53.096 138.95 53.334 138.983C54.0993 139.09 54.7387 139.375 55.252 139.837C55.7653 140.299 56.1503 140.887 56.407 141.601C56.6637 142.315 56.792 143.101 56.792 143.96C56.792 144.819 56.6637 145.605 56.407 146.319C56.1503 147.033 55.7653 147.621 55.252 148.083C54.7387 148.545 54.0993 148.83 53.334 148.937C53.1007 148.965 52.851 148.984 52.585 148.993C52.319 148.998 52.137 149 52.039 149H48.98ZM50.044 148.013H52.039C52.2303 148.013 52.4357 148.008 52.655 147.999C52.879 147.985 53.0703 147.962 53.229 147.929C53.817 147.826 54.2907 147.588 54.65 147.215C55.014 146.842 55.28 146.375 55.448 145.815C55.616 145.25 55.7 144.632 55.7 143.96C55.7 143.283 55.616 142.663 55.448 142.098C55.28 141.533 55.014 141.067 54.65 140.698C54.286 140.329 53.8123 140.094 53.229 139.991C53.0703 139.958 52.8767 139.937 52.648 139.928C52.424 139.914 52.221 139.907 52.039 139.907H50.044V148.013ZM60.5493 149.21C59.9799 149.21 59.5016 149.107 59.1143 148.902C58.7316 148.697 58.4446 148.424 58.2533 148.083C58.0619 147.742 57.9663 147.371 57.9663 146.97C57.9663 146.559 58.0479 146.209 58.2113 145.92C58.3793 145.626 58.6056 145.386 58.8903 145.199C59.1796 145.012 59.5133 144.87 59.8913 144.772C60.2739 144.679 60.6963 144.597 61.1583 144.527C61.6249 144.452 62.0799 144.389 62.5233 144.338C62.9713 144.282 63.3633 144.228 63.6993 144.177L63.3353 144.401C63.3493 143.654 63.2046 143.101 62.9013 142.742C62.5979 142.383 62.0706 142.203 61.3193 142.203C60.8013 142.203 60.3626 142.32 60.0033 142.553C59.6486 142.786 59.3989 143.155 59.2542 143.659L58.2533 143.365C58.4259 142.688 58.7736 142.163 59.2963 141.79C59.8189 141.417 60.4979 141.23 61.3333 141.23C62.0239 141.23 62.6096 141.361 63.0903 141.622C63.5756 141.879 63.9186 142.252 64.1193 142.742C64.2126 142.961 64.2733 143.206 64.3013 143.477C64.3293 143.748 64.3433 144.023 64.3433 144.303V149H63.4263V147.103L63.6923 147.215C63.4356 147.864 63.0366 148.358 62.4953 148.699C61.9539 149.04 61.3053 149.21 60.5493 149.21ZM60.6683 148.321C61.1489 148.321 61.5689 148.235 61.9283 148.062C62.2876 147.889 62.5769 147.654 62.7963 147.355C63.0156 147.052 63.1579 146.711 63.2233 146.333C63.2793 146.09 63.3096 145.824 63.3143 145.535C63.3189 145.241 63.3213 145.022 63.3213 144.877L63.7133 145.08C63.3633 145.127 62.9829 145.173 62.5723 145.22C62.1663 145.267 61.7649 145.32 61.3683 145.381C60.9763 145.442 60.6216 145.514 60.3043 145.598C60.0896 145.659 59.8819 145.745 59.6813 145.857C59.4806 145.964 59.3149 146.109 59.1843 146.291C59.0583 146.473 58.9953 146.699 58.9953 146.97C58.9953 147.189 59.0489 147.402 59.1562 147.607C59.2683 147.812 59.4456 147.983 59.6883 148.118C59.9356 148.253 60.2623 148.321 60.6683 148.321ZM70.2815 149C69.8569 149.089 69.4369 149.124 69.0215 149.105C68.6109 149.086 68.2422 148.998 67.9155 148.839C67.5935 148.68 67.3485 148.433 67.1805 148.097C67.0452 147.817 66.9705 147.535 66.9565 147.25C66.9472 146.961 66.9425 146.632 66.9425 146.263V139.34H67.9645V146.221C67.9645 146.538 67.9669 146.804 67.9715 147.019C67.9809 147.229 68.0299 147.416 68.1185 147.579C68.2865 147.892 68.5525 148.078 68.9165 148.139C69.2852 148.2 69.7402 148.186 70.2815 148.097V149ZM65.3255 142.322V141.44H70.2815V142.322H65.3255ZM73.934 149.21C73.3647 149.21 72.8863 149.107 72.499 148.902C72.1163 148.697 71.8293 148.424 71.638 148.083C71.4467 147.742 71.351 147.371 71.351 146.97C71.351 146.559 71.4327 146.209 71.596 145.92C71.764 145.626 71.9903 145.386 72.275 145.199C72.5643 145.012 72.898 144.87 73.276 144.772C73.6587 144.679 74.081 144.597 74.543 144.527C75.0097 144.452 75.4647 144.389 75.908 144.338C76.356 144.282 76.748 144.228 77.084 144.177L76.72 144.401C76.734 143.654 76.5893 143.101 76.286 142.742C75.9827 142.383 75.4553 142.203 74.704 142.203C74.186 142.203 73.7473 142.32 73.388 142.553C73.0333 142.786 72.7837 143.155 72.639 143.659L71.638 143.365C71.8107 142.688 72.1583 142.163 72.681 141.79C73.2037 141.417 73.8827 141.23 74.718 141.23C75.4087 141.23 75.9943 141.361 76.475 141.622C76.9603 141.879 77.3033 142.252 77.504 142.742C77.5973 142.961 77.658 143.206 77.686 143.477C77.714 143.748 77.728 144.023 77.728 144.303V149H76.811V147.103L77.077 147.215C76.8203 147.864 76.4213 148.358 75.88 148.699C75.3387 149.04 74.69 149.21 73.934 149.21ZM74.053 148.321C74.5337 148.321 74.9537 148.235 75.313 148.062C75.6723 147.889 75.9617 147.654 76.181 147.355C76.4003 147.052 76.5427 146.711 76.608 146.333C76.664 146.09 76.6943 145.824 76.699 145.535C76.7037 145.241 76.706 145.022 76.706 144.877L77.098 145.08C76.748 145.127 76.3677 145.173 75.957 145.22C75.551 145.267 75.1497 145.32 74.753 145.381C74.361 145.442 74.0063 145.514 73.689 145.598C73.4743 145.659 73.2667 145.745 73.066 145.857C72.8653 145.964 72.6997 146.109 72.569 146.291C72.443 146.473 72.38 146.699 72.38 146.97C72.38 147.189 72.4337 147.402 72.541 147.607C72.653 147.812 72.8303 147.983 73.073 148.118C73.3203 148.253 73.647 148.321 74.053 148.321ZM79.5503 149V138.92H80.5793V143.463H86.1513V138.92H87.1733V149H86.1513V144.45H80.5793V149H79.5503ZM92.0253 149.189C91.5726 149.189 91.176 149.119 90.8353 148.979C90.4993 148.839 90.2123 148.65 89.9743 148.412C89.741 148.174 89.552 147.903 89.4073 147.6C89.2626 147.292 89.1576 146.968 89.0923 146.627C89.027 146.282 88.9943 145.939 88.9943 145.598V141.44H90.0303V145.297C90.0303 145.712 90.07 146.097 90.1493 146.452C90.2286 146.807 90.3546 147.117 90.5273 147.383C90.7046 147.644 90.931 147.847 91.2063 147.992C91.4863 148.137 91.8246 148.209 92.2213 148.209C92.5853 148.209 92.905 148.146 93.1803 148.02C93.4603 147.894 93.6936 147.714 93.8803 147.481C94.0716 147.243 94.2163 146.956 94.3143 146.62C94.4123 146.279 94.4613 145.897 94.4613 145.472L95.1893 145.633C95.1893 146.408 95.054 147.059 94.7833 147.586C94.5126 148.113 94.1393 148.512 93.6633 148.783C93.1873 149.054 92.6413 149.189 92.0253 149.189ZM94.5663 149V147.138H94.4613V141.44H95.4903V149H94.5663ZM100.842 149.21C100.146 149.21 99.5585 149.035 99.0778 148.685C98.5971 148.33 98.2331 147.852 97.9858 147.25C97.7385 146.643 97.6148 145.964 97.6148 145.213C97.6148 144.448 97.7385 143.766 97.9858 143.169C98.2378 142.567 98.6065 142.093 99.0918 141.748C99.5771 141.403 100.174 141.23 100.884 141.23C101.574 141.23 102.167 141.405 102.662 141.755C103.156 142.105 103.534 142.581 103.796 143.183C104.062 143.785 104.195 144.462 104.195 145.213C104.195 145.969 104.062 146.648 103.796 147.25C103.53 147.852 103.147 148.33 102.648 148.685C102.148 149.035 101.546 149.21 100.842 149.21ZM97.4398 149V138.92H98.4758V143.309H98.3638V149H97.4398ZM100.737 148.251C101.264 148.251 101.703 148.118 102.053 147.852C102.403 147.586 102.664 147.224 102.837 146.767C103.014 146.305 103.103 145.787 103.103 145.213C103.103 144.644 103.016 144.13 102.844 143.673C102.671 143.216 102.407 142.854 102.053 142.588C101.703 142.322 101.257 142.189 100.716 142.189C100.188 142.189 99.7498 142.317 99.3998 142.574C99.0545 142.831 98.7955 143.188 98.6228 143.645C98.4501 144.098 98.3638 144.62 98.3638 145.213C98.3638 145.796 98.4501 146.319 98.6228 146.781C98.7955 147.238 99.0568 147.598 99.4068 147.859C99.7568 148.12 100.2 148.251 100.737 148.251ZM112.574 149.21C111.864 149.21 111.225 149.086 110.656 148.839C110.086 148.592 109.601 148.239 109.2 147.782C108.803 147.325 108.5 146.774 108.29 146.13C108.08 145.481 107.975 144.758 107.975 143.96C107.975 142.905 108.157 141.986 108.521 141.202C108.889 140.413 109.417 139.802 110.103 139.368C110.789 138.934 111.612 138.717 112.574 138.717C113.647 138.717 114.52 138.969 115.192 139.473C115.868 139.972 116.34 140.644 116.606 141.489L115.57 141.741C115.35 141.125 114.989 140.633 114.485 140.264C113.985 139.895 113.362 139.711 112.616 139.711C111.827 139.706 111.171 139.884 110.649 140.243C110.126 140.598 109.732 141.097 109.466 141.741C109.204 142.38 109.071 143.12 109.067 143.96C109.062 144.8 109.19 145.54 109.452 146.179C109.718 146.814 110.114 147.313 110.642 147.677C111.169 148.036 111.827 148.218 112.616 148.223C113.339 148.223 113.936 148.083 114.408 147.803C114.879 147.523 115.236 147.122 115.479 146.599C115.726 146.076 115.866 145.458 115.899 144.744H113.575V143.862H116.977C116.991 143.969 116.998 144.084 116.998 144.205C117.002 144.322 117.005 144.406 117.005 144.457C117.005 145.367 116.841 146.181 116.515 146.9C116.188 147.614 115.696 148.179 115.038 148.594C114.384 149.005 113.563 149.21 112.574 149.21ZM118.546 140.005V138.85H119.575V140.005H118.546ZM118.546 149V141.44H119.575V149H118.546ZM125.789 149C125.365 149.089 124.945 149.124 124.529 149.105C124.119 149.086 123.75 148.998 123.423 148.839C123.101 148.68 122.856 148.433 122.688 148.097C122.553 147.817 122.478 147.535 122.464 147.25C122.455 146.961 122.45 146.632 122.45 146.263V139.34H123.472V146.221C123.472 146.538 123.475 146.804 123.479 147.019C123.489 147.229 123.538 147.416 123.626 147.579C123.794 147.892 124.06 148.078 124.424 148.139C124.793 148.2 125.248 148.186 125.789 148.097V149ZM120.833 142.322V141.44H125.789V142.322H120.833ZM127.279 149V138.92H128.308V143.463H133.88V138.92H134.902V149H133.88V144.45H128.308V149H127.279ZM139.754 149.189C139.301 149.189 138.904 149.119 138.564 148.979C138.228 148.839 137.941 148.65 137.703 148.412C137.469 148.174 137.28 147.903 137.136 147.6C136.991 147.292 136.886 146.968 136.821 146.627C136.755 146.282 136.723 145.939 136.723 145.598V141.44H137.759V145.297C137.759 145.712 137.798 146.097 137.878 146.452C137.957 146.807 138.083 147.117 138.256 147.383C138.433 147.644 138.659 147.847 138.935 147.992C139.215 148.137 139.553 148.209 139.95 148.209C140.314 148.209 140.633 148.146 140.909 148.02C141.189 147.894 141.422 147.714 141.609 147.481C141.8 147.243 141.945 146.956 142.043 146.62C142.141 146.279 142.19 145.897 142.19 145.472L142.918 145.633C142.918 146.408 142.782 147.059 142.512 147.586C142.241 148.113 141.868 148.512 141.392 148.783C140.916 149.054 140.37 149.189 139.754 149.189ZM142.295 149V147.138H142.19V141.44H143.219V149H142.295ZM148.57 149.21C147.875 149.21 147.287 149.035 146.806 148.685C146.326 148.33 145.962 147.852 145.714 147.25C145.467 146.643 145.343 145.964 145.343 145.213C145.343 144.448 145.467 143.766 145.714 143.169C145.966 142.567 146.335 142.093 146.82 141.748C147.306 141.403 147.903 141.23 148.612 141.23C149.303 141.23 149.896 141.405 150.39 141.755C150.885 142.105 151.263 142.581 151.524 143.183C151.79 143.785 151.923 144.462 151.923 145.213C151.923 145.969 151.79 146.648 151.524 147.25C151.258 147.852 150.876 148.33 150.376 148.685C149.877 149.035 149.275 149.21 148.57 149.21ZM145.168 149V138.92H146.204V143.309H146.092V149H145.168ZM148.465 148.251C148.993 148.251 149.431 148.118 149.781 147.852C150.131 147.586 150.393 147.224 150.565 146.767C150.743 146.305 150.831 145.787 150.831 145.213C150.831 144.644 150.745 144.13 150.572 143.673C150.4 143.216 150.136 142.854 149.781 142.588C149.431 142.322 148.986 142.189 148.444 142.189C147.917 142.189 147.478 142.317 147.128 142.574C146.783 142.831 146.524 143.188 146.351 143.645C146.179 144.098 146.092 144.62 146.092 145.213C146.092 145.796 146.179 146.319 146.351 146.781C146.524 147.238 146.785 147.598 147.135 147.859C147.485 148.12 147.929 148.251 148.465 148.251Z" fill="#373D44"/>
<path d="M48.98 181V170.92H52.039C52.1463 170.92 52.3283 170.922 52.585 170.927C52.8463 170.932 53.096 170.95 53.334 170.983C54.0993 171.09 54.7387 171.375 55.252 171.837C55.7653 172.299 56.1503 172.887 56.407 173.601C56.6637 174.315 56.792 175.101 56.792 175.96C56.792 176.819 56.6637 177.605 56.407 178.319C56.1503 179.033 55.7653 179.621 55.252 180.083C54.7387 180.545 54.0993 180.83 53.334 180.937C53.1007 180.965 52.851 180.984 52.585 180.993C52.319 180.998 52.137 181 52.039 181H48.98ZM50.044 180.013H52.039C52.2303 180.013 52.4357 180.008 52.655 179.999C52.879 179.985 53.0703 179.962 53.229 179.929C53.817 179.826 54.2907 179.588 54.65 179.215C55.014 178.842 55.28 178.375 55.448 177.815C55.616 177.25 55.7 176.632 55.7 175.96C55.7 175.283 55.616 174.663 55.448 174.098C55.28 173.533 55.014 173.067 54.65 172.698C54.286 172.329 53.8123 172.094 53.229 171.991C53.0703 171.958 52.8767 171.937 52.648 171.928C52.424 171.914 52.221 171.907 52.039 171.907H50.044V180.013ZM60.5493 181.21C59.9799 181.21 59.5016 181.107 59.1143 180.902C58.7316 180.697 58.4446 180.424 58.2533 180.083C58.0619 179.742 57.9663 179.371 57.9663 178.97C57.9663 178.559 58.0479 178.209 58.2113 177.92C58.3793 177.626 58.6056 177.386 58.8903 177.199C59.1796 177.012 59.5133 176.87 59.8913 176.772C60.2739 176.679 60.6963 176.597 61.1583 176.527C61.6249 176.452 62.0799 176.389 62.5233 176.338C62.9713 176.282 63.3633 176.228 63.6993 176.177L63.3353 176.401C63.3493 175.654 63.2046 175.101 62.9013 174.742C62.5979 174.383 62.0706 174.203 61.3193 174.203C60.8013 174.203 60.3626 174.32 60.0033 174.553C59.6486 174.786 59.3989 175.155 59.2542 175.659L58.2533 175.365C58.4259 174.688 58.7736 174.163 59.2963 173.79C59.8189 173.417 60.4979 173.23 61.3333 173.23C62.0239 173.23 62.6096 173.361 63.0903 173.622C63.5756 173.879 63.9186 174.252 64.1193 174.742C64.2126 174.961 64.2733 175.206 64.3013 175.477C64.3293 175.748 64.3433 176.023 64.3433 176.303V181H63.4263V179.103L63.6923 179.215C63.4356 179.864 63.0366 180.358 62.4953 180.699C61.9539 181.04 61.3053 181.21 60.5493 181.21ZM60.6683 180.321C61.1489 180.321 61.5689 180.235 61.9283 180.062C62.2876 179.889 62.5769 179.654 62.7963 179.355C63.0156 179.052 63.1579 178.711 63.2233 178.333C63.2793 178.09 63.3096 177.824 63.3143 177.535C63.3189 177.241 63.3213 177.022 63.3213 176.877L63.7133 177.08C63.3633 177.127 62.9829 177.173 62.5723 177.22C62.1663 177.267 61.7649 177.32 61.3683 177.381C60.9763 177.442 60.6216 177.514 60.3043 177.598C60.0896 177.659 59.8819 177.745 59.6813 177.857C59.4806 177.964 59.3149 178.109 59.1843 178.291C59.0583 178.473 58.9953 178.699 58.9953 178.97C58.9953 179.189 59.0489 179.402 59.1562 179.607C59.2683 179.812 59.4456 179.983 59.6883 180.118C59.9356 180.253 60.2623 180.321 60.6683 180.321ZM70.2815 181C69.8569 181.089 69.4369 181.124 69.0215 181.105C68.6109 181.086 68.2422 180.998 67.9155 180.839C67.5935 180.68 67.3485 180.433 67.1805 180.097C67.0452 179.817 66.9705 179.535 66.9565 179.25C66.9472 178.961 66.9425 178.632 66.9425 178.263V171.34H67.9645V178.221C67.9645 178.538 67.9669 178.804 67.9715 179.019C67.9809 179.229 68.0299 179.416 68.1185 179.579C68.2865 179.892 68.5525 180.078 68.9165 180.139C69.2852 180.2 69.7402 180.186 70.2815 180.097V181ZM65.3255 174.322V173.44H70.2815V174.322H65.3255ZM73.934 181.21C73.3647 181.21 72.8863 181.107 72.499 180.902C72.1163 180.697 71.8293 180.424 71.638 180.083C71.4467 179.742 71.351 179.371 71.351 178.97C71.351 178.559 71.4327 178.209 71.596 177.92C71.764 177.626 71.9903 177.386 72.275 177.199C72.5643 177.012 72.898 176.87 73.276 176.772C73.6587 176.679 74.081 176.597 74.543 176.527C75.0097 176.452 75.4647 176.389 75.908 176.338C76.356 176.282 76.748 176.228 77.084 176.177L76.72 176.401C76.734 175.654 76.5893 175.101 76.286 174.742C75.9827 174.383 75.4553 174.203 74.704 174.203C74.186 174.203 73.7473 174.32 73.388 174.553C73.0333 174.786 72.7837 175.155 72.639 175.659L71.638 175.365C71.8107 174.688 72.1583 174.163 72.681 173.79C73.2037 173.417 73.8827 173.23 74.718 173.23C75.4087 173.23 75.9943 173.361 76.475 173.622C76.9603 173.879 77.3033 174.252 77.504 174.742C77.5973 174.961 77.658 175.206 77.686 175.477C77.714 175.748 77.728 176.023 77.728 176.303V181H76.811V179.103L77.077 179.215C76.8203 179.864 76.4213 180.358 75.88 180.699C75.3387 181.04 74.69 181.21 73.934 181.21ZM74.053 180.321C74.5337 180.321 74.9537 180.235 75.313 180.062C75.6723 179.889 75.9617 179.654 76.181 179.355C76.4003 179.052 76.5427 178.711 76.608 178.333C76.664 178.09 76.6943 177.824 76.699 177.535C76.7037 177.241 76.706 177.022 76.706 176.877L77.098 177.08C76.748 177.127 76.3677 177.173 75.957 177.22C75.551 177.267 75.1497 177.32 74.753 177.381C74.361 177.442 74.0063 177.514 73.689 177.598C73.4743 177.659 73.2667 177.745 73.066 177.857C72.8653 177.964 72.6997 178.109 72.569 178.291C72.443 178.473 72.38 178.699 72.38 178.97C72.38 179.189 72.4337 179.402 72.541 179.607C72.653 179.812 72.8303 179.983 73.073 180.118C73.3203 180.253 73.647 180.321 74.053 180.321ZM79.5503 181V170.92H80.5793V175.463H86.1513V170.92H87.1733V181H86.1513V176.45H80.5793V181H79.5503ZM92.0253 181.189C91.5726 181.189 91.176 181.119 90.8353 180.979C90.4993 180.839 90.2123 180.65 89.9743 180.412C89.741 180.174 89.552 179.903 89.4073 179.6C89.2626 179.292 89.1576 178.968 89.0923 178.627C89.027 178.282 88.9943 177.939 88.9943 177.598V173.44H90.0303V177.297C90.0303 177.712 90.07 178.097 90.1493 178.452C90.2286 178.807 90.3546 179.117 90.5273 179.383C90.7046 179.644 90.931 179.847 91.2063 179.992C91.4863 180.137 91.8246 180.209 92.2213 180.209C92.5853 180.209 92.905 180.146 93.1803 180.02C93.4603 179.894 93.6936 179.714 93.8803 179.481C94.0716 179.243 94.2163 178.956 94.3143 178.62C94.4123 178.279 94.4613 177.897 94.4613 177.472L95.1893 177.633C95.1893 178.408 95.054 179.059 94.7833 179.586C94.5126 180.113 94.1393 180.512 93.6633 180.783C93.1873 181.054 92.6413 181.189 92.0253 181.189ZM94.5663 181V179.138H94.4613V173.44H95.4903V181H94.5663ZM100.842 181.21C100.146 181.21 99.5585 181.035 99.0778 180.685C98.5971 180.33 98.2331 179.852 97.9858 179.25C97.7385 178.643 97.6148 177.964 97.6148 177.213C97.6148 176.448 97.7385 175.766 97.9858 175.169C98.2378 174.567 98.6065 174.093 99.0918 173.748C99.5771 173.403 100.174 173.23 100.884 173.23C101.574 173.23 102.167 173.405 102.662 173.755C103.156 174.105 103.534 174.581 103.796 175.183C104.062 175.785 104.195 176.462 104.195 177.213C104.195 177.969 104.062 178.648 103.796 179.25C103.53 179.852 103.147 180.33 102.648 180.685C102.148 181.035 101.546 181.21 100.842 181.21ZM97.4398 181V170.92H98.4758V175.309H98.3638V181H97.4398ZM100.737 180.251C101.264 180.251 101.703 180.118 102.053 179.852C102.403 179.586 102.664 179.224 102.837 178.767C103.014 178.305 103.103 177.787 103.103 177.213C103.103 176.644 103.016 176.13 102.844 175.673C102.671 175.216 102.407 174.854 102.053 174.588C101.703 174.322 101.257 174.189 100.716 174.189C100.188 174.189 99.7498 174.317 99.3998 174.574C99.0545 174.831 98.7955 175.188 98.6228 175.645C98.4501 176.098 98.3638 176.62 98.3638 177.213C98.3638 177.796 98.4501 178.319 98.6228 178.781C98.7955 179.238 99.0568 179.598 99.4068 179.859C99.7568 180.12 100.2 180.251 100.737 180.251ZM108.535 181V170.92H111.594C111.701 170.92 111.883 170.922 112.14 170.927C112.401 170.932 112.651 170.95 112.889 170.983C113.654 171.09 114.293 171.375 114.807 171.837C115.32 172.299 115.705 172.887 115.962 173.601C116.218 174.315 116.347 175.101 116.347 175.96C116.347 176.819 116.218 177.605 115.962 178.319C115.705 179.033 115.32 179.621 114.807 180.083C114.293 180.545 113.654 180.83 112.889 180.937C112.655 180.965 112.406 180.984 112.14 180.993C111.874 180.998 111.692 181 111.594 181H108.535ZM109.599 180.013H111.594C111.785 180.013 111.99 180.008 112.21 179.999C112.434 179.985 112.625 179.962 112.784 179.929C113.372 179.826 113.845 179.588 114.205 179.215C114.569 178.842 114.835 178.375 115.003 177.815C115.171 177.25 115.255 176.632 115.255 175.96C115.255 175.283 115.171 174.663 115.003 174.098C114.835 173.533 114.569 173.067 114.205 172.698C113.841 172.329 113.367 172.094 112.784 171.991C112.625 171.958 112.431 171.937 112.203 171.928C111.979 171.914 111.776 171.907 111.594 171.907H109.599V180.013ZM121.098 181.21C120.347 181.21 119.705 181.04 119.173 180.699C118.641 180.358 118.233 179.887 117.948 179.285C117.663 178.683 117.521 177.992 117.521 177.213C117.521 176.42 117.666 175.724 117.955 175.127C118.244 174.53 118.655 174.065 119.187 173.734C119.724 173.398 120.361 173.23 121.098 173.23C121.854 173.23 122.498 173.4 123.03 173.741C123.567 174.077 123.975 174.546 124.255 175.148C124.54 175.745 124.682 176.434 124.682 177.213C124.682 178.006 124.54 178.704 124.255 179.306C123.97 179.903 123.56 180.37 123.023 180.706C122.486 181.042 121.845 181.21 121.098 181.21ZM121.098 180.223C121.938 180.223 122.563 179.945 122.974 179.39C123.385 178.83 123.59 178.104 123.59 177.213C123.59 176.298 123.382 175.57 122.967 175.029C122.556 174.488 121.933 174.217 121.098 174.217C120.533 174.217 120.067 174.345 119.698 174.602C119.334 174.854 119.061 175.206 118.879 175.659C118.702 176.107 118.613 176.625 118.613 177.213C118.613 178.123 118.823 178.853 119.243 179.404C119.663 179.95 120.281 180.223 121.098 180.223ZM129.362 181.21C128.601 181.21 127.957 181.04 127.43 180.699C126.903 180.358 126.501 179.889 126.226 179.292C125.955 178.69 125.815 177.999 125.806 177.22C125.815 176.427 125.96 175.731 126.24 175.134C126.52 174.532 126.924 174.065 127.451 173.734C127.978 173.398 128.618 173.23 129.369 173.23C130.134 173.23 130.799 173.417 131.364 173.79C131.933 174.163 132.323 174.674 132.533 175.323L131.525 175.645C131.348 175.192 131.065 174.842 130.678 174.595C130.295 174.343 129.857 174.217 129.362 174.217C128.807 174.217 128.347 174.345 127.983 174.602C127.619 174.854 127.348 175.206 127.171 175.659C126.994 176.112 126.903 176.632 126.898 177.22C126.907 178.125 127.117 178.853 127.528 179.404C127.939 179.95 128.55 180.223 129.362 180.223C129.875 180.223 130.312 180.106 130.671 179.873C131.035 179.635 131.31 179.29 131.497 178.837L132.533 179.145C132.253 179.817 131.842 180.33 131.301 180.685C130.76 181.035 130.113 181.21 129.362 181.21ZM136.799 181.203C135.912 181.203 135.182 181.012 134.608 180.629C134.039 180.246 133.689 179.714 133.558 179.033L134.608 178.858C134.72 179.287 134.974 179.63 135.371 179.887C135.772 180.139 136.267 180.265 136.855 180.265C137.429 180.265 137.882 180.146 138.213 179.908C138.544 179.665 138.71 179.336 138.71 178.921C138.71 178.688 138.656 178.499 138.549 178.354C138.446 178.205 138.234 178.067 137.912 177.941C137.59 177.815 137.109 177.666 136.47 177.493C135.784 177.306 135.247 177.12 134.86 176.933C134.473 176.746 134.197 176.532 134.034 176.289C133.871 176.042 133.789 175.741 133.789 175.386C133.789 174.957 133.91 174.581 134.153 174.259C134.396 173.932 134.732 173.68 135.161 173.503C135.59 173.321 136.09 173.23 136.659 173.23C137.228 173.23 137.737 173.323 138.185 173.51C138.638 173.692 139.002 173.949 139.277 174.28C139.552 174.611 139.716 174.996 139.767 175.435L138.717 175.624C138.647 175.181 138.425 174.831 138.052 174.574C137.683 174.313 137.214 174.177 136.645 174.168C136.108 174.154 135.672 174.257 135.336 174.476C135 174.691 134.832 174.978 134.832 175.337C134.832 175.538 134.893 175.71 135.014 175.855C135.135 175.995 135.355 176.128 135.672 176.254C135.994 176.38 136.451 176.518 137.044 176.667C137.739 176.844 138.285 177.031 138.682 177.227C139.079 177.423 139.361 177.654 139.529 177.92C139.697 178.186 139.781 178.515 139.781 178.907C139.781 179.621 139.515 180.183 138.983 180.594C138.456 181 137.728 181.203 136.799 181.203Z" fill="#373D44"/>
</g>
</g>
<rect x="0.5" y="0.5" width="286" height="175" rx="7.5" stroke="#E8EBED"/>
<defs>
<filter id="filter0_ddd_97_2049" x="-4" y="33" width="247" height="304" filterUnits="userSpaceOnUse" color-interpolation-filters="sRGB">
<feFlood flood-opacity="0" result="BackgroundImageFix"/>
<feColorMatrix in="SourceAlpha" type="matrix" values="0 0 0 0 0 0 0 0 0 0 0 0 0 0 0 0 0 0 127 0" result="hardAlpha"/>
<feMorphology radius="8" operator="dilate" in="SourceAlpha" result="effect1_dropShadow_97_2049"/>
<feOffset dy="9"/>
<feGaussianBlur stdDeviation="14"/>
<feComposite in2="hardAlpha" operator="out"/>
<feColorMatrix type="matrix" values="0 0 0 0 0 0 0 0 0 0 0 0 0 0 0 0 0 0 0.05 0"/>
<feBlend mode="normal" in2="BackgroundImageFix" result="effect1_dropShadow_97_2049"/>
<feColorMatrix in="SourceAlpha" type="matrix" values="0 0 0 0 0 0 0 0 0 0 0 0 0 0 0 0 0 0 127 0" result="hardAlpha"/>
<feMorphology radius="4" operator="erode" in="SourceAlpha" result="effect2_dropShadow_97_2049"/>
<feOffset dy="3"/>
<feGaussianBlur stdDeviation="3"/>
<feComposite in2="hardAlpha" operator="out"/>
<feColorMatrix type="matrix" values="0 0 0 0 0 0 0 0 0 0 0 0 0 0 0 0 0 0 0.12 0"/>
<feBlend mode="normal" in2="effect1_dropShadow_97_2049" result="effect2_dropShadow_97_2049"/>
<feColorMatrix in="SourceAlpha" type="matrix" values="0 0 0 0 0 0 0 0 0 0 0 0 0 0 0 0 0 0 127 0" result="hardAlpha"/>
<feOffset dy="6"/>
<feGaussianBlur stdDeviation="8"/>
<feComposite in2="hardAlpha" operator="out"/>
<feColorMatrix type="matrix" values="0 0 0 0 0 0 0 0 0 0 0 0 0 0 0 0 0 0 0.08 0"/>
<feBlend mode="normal" in2="effect2_dropShadow_97_2049" result="effect3_dropShadow_97_2049"/>
<feBlend mode="normal" in="SourceGraphic" in2="effect3_dropShadow_97_2049" result="shape"/>
</filter>
<clipPath id="clip0_97_2049">
<rect width="287" height="176" rx="8" fill="white"/>
</clipPath>
</defs>
</svg>
