<svg width="404" height="82" viewBox="0 0 404 82" fill="none" xmlns="http://www.w3.org/2000/svg">
<path d="M213.946 38.5319C212.83 36.1752 211.234 34.3215 209.2 32.9707C207.181 31.6055 204.779 30.9158 202.011 30.9158C199.243 30.9158 196.884 31.6055 194.977 32.9707C194.878 33.0425 194.793 33.1288 194.709 33.2006V21.877H188.112V61.3517H193.889V59.1531C194.257 59.498 194.638 59.8141 195.062 60.1159C196.997 61.481 199.398 62.1708 202.251 62.1708C204.949 62.1708 207.294 61.481 209.313 60.1159C211.319 58.7507 212.873 56.8826 213.989 54.5259C215.09 52.1692 215.641 49.5107 215.641 46.5505C215.641 43.5902 215.076 40.8886 213.96 38.5463L213.946 38.5319ZM207.901 51.4651C207.378 52.9308 206.559 54.0804 205.457 54.9426C204.356 55.8048 202.957 56.2359 201.248 56.2359C199.539 56.2359 198.07 55.8336 196.983 55.0288C195.909 54.2097 195.132 53.0601 194.624 51.6088C194.129 50.143 193.889 48.4617 193.889 46.5361C193.889 44.6105 194.129 42.9148 194.624 41.4634C195.132 39.9977 195.909 38.8625 196.954 38.0577C198 37.2386 199.356 36.8219 201.022 36.8219C202.774 36.8219 204.229 37.2674 205.358 38.1439C206.503 39.0061 207.336 40.1701 207.887 41.6503C208.424 43.116 208.706 44.7398 208.706 46.5361C208.706 48.3324 208.438 49.9849 207.887 51.4651H207.901Z" fill="#494D5C"/>
<path d="M175.471 46.9387C175.471 48.7349 175.273 50.2151 174.878 51.379C174.482 52.543 173.945 53.4771 173.282 54.1525C172.632 54.8135 171.897 55.2734 171.078 55.5464C170.259 55.8194 169.44 55.9631 168.606 55.9631C167.053 55.9631 165.81 55.6182 164.892 54.9428C163.988 54.2674 163.295 53.4052 162.829 52.3706C162.377 51.3072 162.081 50.2151 161.954 49.0798C161.826 47.9302 161.77 46.8956 161.77 45.9759V31.7207H155.146V48.2464C155.146 48.9649 155.202 49.8845 155.315 51.0485C155.442 52.1838 155.71 53.3909 156.106 54.6698C156.501 55.9487 157.123 57.1558 157.956 58.2911C158.79 59.4263 159.906 60.3604 161.318 61.0933C162.73 61.8261 164.524 62.1854 166.685 62.1854C169.44 62.1854 171.756 61.5818 173.635 60.3747C174.652 59.7137 175.527 58.9234 176.262 58.018V61.3375H182.039V31.7351H175.471V46.953V46.9387Z" fill="#494D5C"/>
<path d="M143.069 38.4751H124.566V21.8633H118.012V61.338H124.566V44.6687H143.069V61.338H149.58V21.8633H143.069V38.4751Z" fill="#494D5C"/>
<path d="M111.345 36.4205C110.385 34.4661 108.916 33.0579 106.924 32.1957C104.947 31.3334 102.658 30.9023 100.06 30.9023C96.599 30.9023 93.8446 31.664 91.8107 33.1728C89.7767 34.6961 88.4067 36.6935 87.6863 39.2083L93.661 41.1051C94.1554 39.5819 95.0029 38.5185 96.2458 37.9006C97.4747 37.2827 98.7459 36.9665 100.074 36.9665C102.263 36.9665 103.817 37.4551 104.735 38.4179C105.498 39.2227 105.921 40.4154 106.034 41.953C104.862 42.1254 103.704 42.2979 102.588 42.4703C100.737 42.729 99.0284 43.0164 97.4323 43.3181C95.8645 43.6343 94.4803 43.9792 93.3079 44.3528C91.7542 44.8845 90.483 45.5742 89.5084 46.4077C88.5338 47.2268 87.8134 48.2184 87.3332 49.368C86.8671 50.5032 86.627 51.7821 86.627 53.2048C86.627 54.8286 86.9942 56.3231 87.7428 57.6739C88.5055 59.0247 89.6214 60.1168 91.0762 60.9359C92.5452 61.7406 94.339 62.143 96.4436 62.143C99.0849 62.143 101.288 61.6544 103.04 60.6629C104.41 59.8869 105.639 58.766 106.726 57.329V61.3239H112.447V43.1457C112.447 41.8668 112.39 40.6884 112.277 39.6106C112.164 38.5185 111.854 37.4408 111.331 36.4061L111.345 36.4205ZM105.314 51.9833C105.102 52.6587 104.678 53.3772 104.043 54.1532C103.421 54.9148 102.588 55.5759 101.543 56.0932C100.497 56.6249 99.2262 56.8835 97.7431 56.8835C96.712 56.8835 95.8362 56.7255 95.1441 56.395C94.452 56.0644 93.9294 55.6333 93.5622 55.0729C93.1949 54.5125 93.0254 53.8514 93.0254 53.1329C93.0254 52.4863 93.1667 51.9402 93.435 51.466C93.7317 50.9918 94.1272 50.575 94.6498 50.2014C95.1724 49.8422 95.8221 49.5117 96.5707 49.2386C97.3476 48.98 98.2515 48.75 99.2544 48.5489C100.271 48.3333 101.486 48.1034 102.884 47.8591C103.788 47.701 104.805 47.543 105.935 47.3561C105.935 47.8591 105.907 48.4195 105.865 49.0949C105.822 50.1727 105.639 51.1355 105.3 51.969L105.314 51.9833Z" fill="#494D5C"/>
<path d="M74.8462 23.5156H68.3348V31.7353H63.0098V36.9086H68.3348V49.2382C68.3348 50.9195 68.3489 52.4283 68.3913 53.7648C68.4336 55.1012 68.7867 56.4089 69.4506 57.6878C70.2133 59.0961 71.3292 60.1307 72.784 60.7917C74.253 61.4384 75.9056 61.7689 77.7559 61.812C79.6204 61.8695 81.5131 61.7114 83.4623 61.3522V55.8197C81.6402 56.0927 80.0017 56.1646 78.5751 56.0352C77.1486 55.9059 76.1033 55.3024 75.4536 54.1959C75.1146 53.6354 74.9169 52.9025 74.8886 51.9972C74.8745 51.1063 74.8604 50.0573 74.8604 48.8789V36.923H83.4623V31.7497H74.8604V23.53L74.8462 23.5156Z" fill="#494D5C"/>
<path d="M59.5922 36.4205C58.6318 34.4661 57.1628 33.0579 55.1712 32.1957C53.1938 31.3334 50.9056 30.9023 48.3067 30.9023C44.8461 30.9023 42.1059 31.664 40.0578 33.1728C38.0239 34.6961 36.6538 36.6935 35.9334 39.2083L41.9082 41.1051C42.4025 39.5819 43.2641 38.5185 44.493 37.9006C45.7218 37.2827 46.9931 36.9665 48.3208 36.9665C50.5101 36.9665 52.0638 37.4551 52.996 38.4179C53.7588 39.2227 54.1825 40.4154 54.3096 41.953C53.1373 42.1254 51.9791 42.2979 50.8632 42.4703C49.0129 42.729 47.3038 43.0164 45.7077 43.3181C44.1399 43.6343 42.7556 43.9792 41.5833 44.3528C40.0296 44.8845 38.7584 45.5742 37.7838 46.4077C36.8092 47.2268 36.0888 48.2184 35.6086 49.368C35.1425 50.5032 34.9023 51.7821 34.9023 53.2048C34.9023 54.8286 35.2696 56.3231 36.0182 57.6739C36.7809 59.0247 37.8968 60.1168 39.3516 60.9359C40.8206 61.7406 42.6144 62.143 44.7331 62.143C47.3744 62.143 49.5779 61.6544 51.3293 60.6629C52.6994 59.8869 53.9283 58.766 55.0159 57.329V61.3239H60.7505V43.1457C60.7505 41.8668 60.694 40.6884 60.581 39.6106C60.468 38.5185 60.1572 37.4408 59.6346 36.4061L59.5922 36.4205ZM53.5751 51.9833C53.3633 52.6587 52.9395 53.3772 52.3039 54.1532C51.6965 54.9148 50.8632 55.5759 49.8039 56.0932C48.7586 56.6249 47.4874 56.8835 46.0043 56.8835C44.9732 56.8835 44.1116 56.7255 43.4054 56.395C42.7133 56.0644 42.1907 55.6333 41.8376 55.0729C41.4703 54.5125 41.3008 53.8514 41.3008 53.1329C41.3008 52.4863 41.442 51.9402 41.7104 51.466C41.9929 50.9918 42.4025 50.575 42.9251 50.2014C43.4478 49.8422 44.0975 49.5117 44.8461 49.2386C45.6229 48.98 46.5269 48.75 47.5298 48.5489C48.5468 48.3333 49.7615 48.1034 51.174 47.8591C52.0779 47.701 53.0949 47.543 54.2249 47.3561C54.2249 47.8591 54.1966 48.4195 54.1543 49.0949C54.126 50.1727 53.9283 51.1355 53.5893 51.969L53.5751 51.9833Z" fill="#494D5C"/>
<path d="M25.043 25.4271C22.9102 23.6021 20.2971 22.4812 17.2038 22.0788C16.2999 21.9639 15.3535 21.9064 14.3789 21.892C13.4184 21.8776 12.7828 21.8633 12.4579 21.8633H0V61.338H12.4579C12.7828 61.338 13.4325 61.338 14.4071 61.3093C15.3817 61.2949 16.314 61.2231 17.2038 61.1225C20.2971 60.7201 22.9102 59.6136 25.043 57.803C27.19 55.978 28.8284 53.65 29.9301 50.8478C31.0319 48.0313 31.5827 44.9561 31.5827 41.6078C31.5827 38.2596 31.0319 35.1844 29.9301 32.3678C28.8284 29.5513 27.19 27.2377 25.043 25.4271ZM23.8283 47.514C23.2915 49.3965 22.4299 50.9915 21.2717 52.3136C20.1135 53.6356 18.6163 54.4547 16.766 54.814C16.1162 54.9433 15.3676 55.0295 14.506 55.0583C13.6727 55.1014 12.9806 55.1158 12.4438 55.1158H6.63858V28.0855H12.4438C12.9806 28.0855 13.6727 28.0999 14.506 28.143C15.3535 28.1574 16.1021 28.2436 16.766 28.3873C18.5739 28.7322 20.057 29.5513 21.2152 30.8302C22.3876 32.1092 23.2633 33.6899 23.8142 35.5724C24.3792 37.4549 24.6616 39.4667 24.6616 41.6078C24.6616 43.749 24.3792 45.6458 23.8142 47.5283L23.8283 47.514Z" fill="#494D5C"/>
<path d="M380.377 41.7523C380.801 43.1031 381.027 44.6695 381.027 46.4514C381.027 48.2333 380.815 49.7996 380.377 51.1504C379.953 52.5012 379.247 53.5502 378.272 54.2974C377.298 55.0447 375.998 55.4183 374.374 55.4183C372.75 55.4183 371.507 55.016 370.504 54.2112C369.501 53.4065 368.752 52.3287 368.272 50.9779C367.792 49.6272 367.552 48.1183 367.552 46.4657C367.552 44.8132 367.806 43.333 368.3 41.9679C368.809 40.6171 369.572 39.5249 370.617 38.7202C371.662 37.9155 373.004 37.4988 374.628 37.4988C376.154 37.4988 377.382 37.8724 378.315 38.6196C379.247 39.3669 379.939 40.4159 380.363 41.7667L380.377 41.7523ZM309.895 37.8293C308.299 37.8293 306.999 38.1885 305.982 38.9214C304.965 39.6543 304.203 40.6602 303.722 41.9535C303.228 43.2468 302.988 44.7413 302.988 46.4657C302.988 49.1098 303.581 51.2079 304.739 52.7598C305.912 54.3118 307.635 55.0878 309.909 55.0878C312.183 55.0878 314.005 54.2831 315.163 52.6736C316.322 51.0642 316.901 48.9949 316.901 46.4657C316.901 43.9366 316.307 41.7523 315.149 40.186C313.977 38.6196 312.24 37.8436 309.923 37.8436L309.895 37.8293ZM403.796 11.2445V71.3117C403.796 77.1747 399.12 81.9312 393.357 81.9312H239.074C233.311 81.9312 228.636 77.1747 228.636 71.3117V11.2445C228.636 5.38151 233.311 0.625 239.074 0.625H393.357C399.12 0.625 403.796 5.38151 403.796 11.2445ZM249.667 41.5368C249.667 38.8064 250.077 36.4354 250.91 34.4092C251.73 32.383 252.958 30.8166 254.597 29.7101C256.235 28.6036 258.283 28.0432 260.727 28.0432C263.411 28.0432 265.6 28.7042 267.309 30.0263C269.004 31.3483 270.219 33.2021 270.925 35.5875L278.284 33.5182C277.041 29.6958 274.922 26.6637 271.914 24.4219C268.891 22.1802 265.176 21.0593 260.741 21.0593C256.871 21.0593 253.538 21.9215 250.741 23.6316C247.944 25.3416 245.783 27.7414 244.272 30.8166C242.76 33.8919 241.998 37.47 241.998 41.5511C241.998 45.6323 242.76 49.2104 244.272 52.2856C245.783 55.3608 247.944 57.7606 250.741 59.4707C253.538 61.1807 256.871 62.0429 260.741 62.0429C265.176 62.0429 268.905 60.9221 271.914 58.6803C274.922 56.4386 277.055 53.4065 278.284 49.584L270.925 47.5147C270.205 49.8858 269.004 51.7252 267.309 53.0616C265.614 54.3837 263.411 55.0591 260.727 55.0591C258.269 55.0591 256.235 54.4986 254.597 53.3921C252.958 52.2856 251.73 50.7193 250.91 48.6931C250.091 46.6669 249.667 44.2958 249.667 41.5655V41.5368ZM290.417 21.0593H283.115V61.1951H290.417V21.0593ZM324.599 46.4514C324.599 43.4049 323.977 40.7177 322.748 38.3897C321.519 36.0474 319.796 34.2224 317.579 32.8859C315.375 31.5639 312.805 30.8885 309.895 30.8885C306.985 30.8885 304.499 31.5495 302.296 32.8572C300.092 34.1649 298.369 35.9899 297.112 38.3322C295.855 40.6746 295.233 43.3761 295.233 46.4514C295.233 49.5266 295.841 52.185 297.07 54.5274C298.299 56.8697 300.008 58.6947 302.211 60.0311C304.415 61.3532 306.971 62.0286 309.881 62.0286C312.79 62.0286 315.333 61.3675 317.55 60.0455C319.754 58.7234 321.491 56.8984 322.734 54.5561C323.977 52.2138 324.599 49.5122 324.599 46.4657V46.4514ZM355.532 31.7076H348.173V46.6669C348.173 48.4919 347.975 49.9577 347.565 51.0785C347.17 52.1994 346.647 53.0472 346.026 53.622C345.404 54.1969 344.726 54.5849 344.02 54.786C343.3 54.9872 342.636 55.0878 342 55.0878C340.447 55.0878 339.246 54.7286 338.398 54.0244C337.551 53.3203 336.929 52.4293 336.562 51.3803C336.181 50.3313 335.969 49.2679 335.898 48.2332C335.828 47.1842 335.785 46.322 335.785 45.6466V31.722H328.384V48.262C328.384 48.7506 328.426 49.5409 328.497 50.6043C328.568 51.6821 328.78 52.8604 329.119 54.1681C329.458 55.4758 330.023 56.726 330.828 57.9187C331.619 59.1258 332.734 60.1174 334.175 60.8933C335.602 61.6693 337.452 62.0717 339.726 62.0717C342.565 62.0717 344.924 61.4394 346.803 60.1892C347.678 59.6 348.455 58.9103 349.119 58.1486V61.2095H355.56V31.722L355.532 31.7076ZM387.467 21.8784H380.109V32.6991C378.301 31.5064 376.125 30.8885 373.555 30.8885C370.786 30.8885 368.371 31.5639 366.309 32.9147C364.247 34.2655 362.65 36.1049 361.52 38.4472C360.391 40.7895 359.811 43.4624 359.811 46.4657C359.811 49.4691 360.376 52.0701 361.492 54.4124C362.608 56.7547 364.176 58.6229 366.182 59.988C368.187 61.3532 370.518 62.0429 373.187 62.0429C376.069 62.0429 378.47 61.3532 380.405 59.988C380.631 59.8299 380.815 59.6431 381.027 59.4851V61.2238H387.467V21.9072V21.8784Z" fill="url(#paint0_linear_590_218)"/>
<defs>
<linearGradient id="paint0_linear_590_218" x1="336.873" y1="-19.7662" x2="294.268" y2="101.871" gradientUnits="userSpaceOnUse">
<stop stop-color="#4A85C5"/>
<stop offset="1" stop-color="#49AFE3"/>
</linearGradient>
</defs>
</svg>
