<svg width="135" height="28" viewBox="0 0 135 28" fill="none" xmlns="http://www.w3.org/2000/svg">
<path d="M70.7934 12.845C70.4242 12.0652 69.8961 11.4518 69.2231 11.0048C68.5547 10.5531 67.7602 10.3249 66.8441 10.3249C65.928 10.3249 65.1475 10.5531 64.5166 11.0048C64.4839 11.0286 64.4558 11.0572 64.4278 11.0809V7.33398H62.2451V20.396H64.1567V19.6685C64.2782 19.7826 64.4044 19.8872 64.5446 19.987C65.1849 20.4388 65.9795 20.667 66.9236 20.667C67.8163 20.667 68.5921 20.4388 69.2604 19.987C69.9241 19.5353 70.4382 18.9172 70.8075 18.1373C71.172 17.3575 71.3543 16.4779 71.3543 15.4983C71.3543 14.5188 71.1674 13.6249 70.7981 12.8498L70.7934 12.845ZM68.7931 17.1245C68.6201 17.6095 68.3491 17.9899 67.9845 18.2752C67.62 18.5605 67.1573 18.7032 66.5917 18.7032C66.0262 18.7032 65.5401 18.5701 65.1802 18.3038C64.825 18.0327 64.568 17.6523 64.3997 17.1721C64.2361 16.6871 64.1567 16.1307 64.1567 15.4936C64.1567 14.8564 64.2361 14.2953 64.3997 13.8151C64.568 13.33 64.825 12.9544 65.1709 12.6881C65.5168 12.4171 65.9654 12.2792 66.5169 12.2792C67.0965 12.2792 67.5779 12.4266 67.9518 12.7166C68.3304 13.0019 68.6061 13.3871 68.7884 13.8769C68.966 14.3619 69.0595 14.8992 69.0595 15.4936C69.0595 16.0879 68.9707 16.6348 68.7884 17.1245H68.7931Z" fill="#494D5C"/>
<path d="M58.0625 15.6273C58.0625 16.2217 57.997 16.7115 57.8662 17.0966C57.7353 17.4818 57.5577 17.7909 57.338 18.0144C57.123 18.2331 56.88 18.3852 56.6089 18.4756C56.3379 18.5659 56.0668 18.6135 55.791 18.6135C55.2769 18.6135 54.8656 18.4994 54.5618 18.2759C54.2627 18.0524 54.0337 17.7671 53.8794 17.4247C53.7299 17.0729 53.6317 16.7115 53.5897 16.3358C53.5476 15.9554 53.5289 15.6131 53.5289 15.3088V10.5918H51.3369V16.06C51.3369 16.2978 51.3556 16.6021 51.393 16.9873C51.4351 17.3629 51.5239 17.7623 51.6547 18.1855C51.7856 18.6087 51.9912 19.0081 52.267 19.3838C52.5427 19.7594 52.912 20.0685 53.3794 20.311C53.8467 20.5535 54.4403 20.6724 55.1554 20.6724C56.0668 20.6724 56.8333 20.4727 57.4549 20.0733C57.7914 19.8545 58.0812 19.593 58.3242 19.2934V20.3919H60.2358V10.5966H58.0625V15.6321V15.6273Z" fill="#494D5C"/>
<path d="M47.3401 12.8269H41.2175V7.33008H39.0488V20.3921H41.2175V14.8763H47.3401V20.3921H49.4947V7.33008H47.3401V12.8269Z" fill="#494D5C"/>
<path d="M36.8432 12.1482C36.5254 11.5015 36.0393 11.0355 35.3803 10.7502C34.726 10.4649 33.9688 10.3223 33.1088 10.3223C31.9638 10.3223 31.0524 10.5743 30.3793 11.0736C29.7063 11.5776 29.253 12.2385 29.0146 13.0707L30.9916 13.6983C31.1552 13.1943 31.4356 12.8424 31.8469 12.638C32.2535 12.4335 32.6742 12.3289 33.1135 12.3289C33.8379 12.3289 34.352 12.4905 34.6558 12.8091C34.9082 13.0754 35.0484 13.4701 35.0858 13.9789C34.6979 14.0359 34.3147 14.093 33.9454 14.15C33.3332 14.2356 32.7676 14.3307 32.2395 14.4306C31.7207 14.5352 31.2627 14.6493 30.8748 14.7729C30.3606 14.9489 29.94 15.1771 29.6175 15.4529C29.295 15.7239 29.0567 16.052 28.8978 16.4324C28.7435 16.8081 28.6641 17.2313 28.6641 17.702C28.6641 18.2393 28.7856 18.7339 29.0333 19.1808C29.2857 19.6278 29.6549 19.9892 30.1363 20.2602C30.6224 20.5265 31.2159 20.6596 31.9123 20.6596C32.7863 20.6596 33.5154 20.498 34.095 20.1699C34.5483 19.9131 34.955 19.5422 35.3148 19.0667V20.3886H37.2077V14.3735C37.2077 13.9503 37.189 13.5604 37.1516 13.2038C37.1142 12.8424 37.0114 12.4858 36.8385 12.1434L36.8432 12.1482ZM34.8475 17.2979C34.7774 17.5213 34.6371 17.7591 34.4268 18.0159C34.2212 18.2679 33.9454 18.4866 33.5996 18.6578C33.2537 18.8337 32.8331 18.9193 32.3423 18.9193C32.0011 18.9193 31.7114 18.867 31.4823 18.7576C31.2533 18.6483 31.0804 18.5056 30.9589 18.3202C30.8374 18.1347 30.7813 17.916 30.7813 17.6783C30.7813 17.4643 30.828 17.2836 30.9168 17.1267C31.015 16.9698 31.1458 16.8319 31.3188 16.7082C31.4917 16.5894 31.7067 16.48 31.9544 16.3896C32.2115 16.3041 32.5106 16.228 32.8424 16.1614C33.1789 16.0901 33.5809 16.014 34.0436 15.9332C34.3427 15.8809 34.6792 15.8286 35.0531 15.7667C35.0531 15.9332 35.0438 16.1186 35.0297 16.3421C35.0157 16.6987 34.955 17.0173 34.8428 17.2931L34.8475 17.2979Z" fill="#494D5C"/>
<path d="M24.7672 7.87891H22.6126V10.5988H20.8506V12.3106H22.6126V16.3904C22.6126 16.9467 22.6173 17.446 22.6313 17.8882C22.6453 18.3304 22.7622 18.7631 22.9818 19.1863C23.2342 19.6523 23.6034 19.9946 24.0848 20.2134C24.5709 20.4274 25.1177 20.5367 25.73 20.551C26.3469 20.57 26.9732 20.5177 27.6182 20.3988V18.5681C27.0153 18.6585 26.4731 18.6823 26.0011 18.6395C25.529 18.5967 25.1832 18.397 24.9682 18.0308C24.856 17.8454 24.7906 17.6029 24.7812 17.3033C24.7766 17.0085 24.7719 16.6614 24.7719 16.2715V12.3153H27.6182V10.6035H24.7719V7.88366L24.7672 7.87891Z" fill="#494D5C"/>
<path d="M19.7186 12.1482C19.4008 11.5015 18.9147 11.0355 18.2557 10.7502C17.6014 10.4649 16.8442 10.3223 15.9842 10.3223C14.8392 10.3223 13.9325 10.5743 13.2548 11.0736C12.5817 11.5776 12.1284 12.2385 11.89 13.0707L13.867 13.6983C14.0306 13.1943 14.3157 12.8424 14.7223 12.638C15.1289 12.4335 15.5496 12.3289 15.9889 12.3289C16.7133 12.3289 17.2275 12.4905 17.5359 12.8091C17.7883 13.0754 17.9285 13.4701 17.9706 13.9789C17.5827 14.0359 17.1994 14.093 16.8302 14.15C16.2179 14.2356 15.6524 14.3307 15.1243 14.4306C14.6055 14.5352 14.1474 14.6493 13.7595 14.7729C13.2454 14.9489 12.8248 15.1771 12.5023 15.4529C12.1798 15.7239 11.9414 16.052 11.7825 16.4324C11.6283 16.8081 11.5488 17.2313 11.5488 17.702C11.5488 18.2393 11.6703 18.7339 11.9181 19.1808C12.1704 19.6278 12.5397 19.9892 13.0211 20.2602C13.5071 20.5265 14.1007 20.6596 14.8018 20.6596C15.6758 20.6596 16.4049 20.498 16.9844 20.1699C17.4378 19.9131 17.8444 19.5422 18.2043 19.0667V20.3886H20.1018V14.3735C20.1018 13.9503 20.0831 13.5604 20.0457 13.2038C20.0084 12.8424 19.9055 12.4858 19.7326 12.1434L19.7186 12.1482ZM17.7276 17.2979C17.6575 17.5213 17.5172 17.7591 17.3069 18.0159C17.1059 18.2679 16.8302 18.4866 16.4797 18.6578C16.1338 18.8337 15.7132 18.9193 15.2224 18.9193C14.8812 18.9193 14.5961 18.867 14.3624 18.7576C14.1334 18.6483 13.9605 18.5056 13.8437 18.3202C13.7221 18.1347 13.666 17.916 13.666 17.6783C13.666 17.4643 13.7128 17.2836 13.8016 17.1267C13.8951 16.9698 14.0306 16.8319 14.2035 16.7082C14.3765 16.5894 14.5915 16.48 14.8392 16.3896C15.0962 16.3041 15.3953 16.228 15.7272 16.1614C16.0637 16.0901 16.4656 16.014 16.933 15.9332C17.2321 15.8809 17.5686 15.8286 17.9425 15.7667C17.9425 15.9332 17.9332 16.1186 17.9192 16.3421C17.9098 16.6987 17.8444 17.0173 17.7322 17.2931L17.7276 17.2979Z" fill="#494D5C"/>
<path d="M8.2866 8.50932C7.58086 7.90543 6.71621 7.53454 5.69266 7.4014C5.39353 7.36336 5.08039 7.34434 4.7579 7.33959C4.44008 7.33483 4.22976 7.33008 4.12227 7.33008H0V20.3921H4.12227C4.22976 20.3921 4.44476 20.3921 4.76725 20.3826C5.08974 20.3778 5.39821 20.354 5.69266 20.3207C6.71621 20.1876 7.58086 19.8215 8.2866 19.2223C8.99701 18.6184 9.53917 17.8481 9.90372 16.9209C10.2683 15.9889 10.4506 14.9714 10.4506 13.8634C10.4506 12.7555 10.2683 11.738 9.90372 10.806C9.53917 9.874 8.99701 9.10845 8.2866 8.50932ZM7.88465 15.8178C7.70705 16.4407 7.42195 16.9685 7.0387 17.4059C6.65545 17.8434 6.16003 18.1144 5.54777 18.2333C5.33277 18.2761 5.08506 18.3046 4.79996 18.3141C4.52421 18.3284 4.2952 18.3331 4.11759 18.3331H2.19667V9.38899H4.11759C4.2952 9.38899 4.52421 9.39375 4.79996 9.40801C5.08039 9.41277 5.3281 9.4413 5.54777 9.48885C6.14601 9.60297 6.63676 9.874 7.02001 10.2972C7.40793 10.7204 7.6977 11.2434 7.87998 11.8663C8.06693 12.4893 8.16041 13.155 8.16041 13.8634C8.16041 14.5719 8.06693 15.1996 7.87998 15.8225L7.88465 15.8178Z" fill="#494D5C"/>
<rect x="78.4902" width="56.4714" height="28" rx="4.63591" fill="#EBECF0"/>
<path fill-rule="evenodd" clip-rule="evenodd" d="M126.123 15.4296C126.123 14.9082 126.057 14.4499 125.933 14.0547L125.929 14.0589C125.805 13.6636 125.603 13.3567 125.33 13.1381C125.057 12.9194 124.698 12.8101 124.251 12.8101C123.776 12.8101 123.383 12.932 123.078 13.1675C122.772 13.4029 122.549 13.7225 122.4 14.1177C122.255 14.5172 122.181 14.9502 122.181 15.4338C122.181 15.9173 122.251 16.3588 122.392 16.754C122.532 17.1493 122.751 17.4646 123.045 17.7001C123.338 17.9355 123.702 18.0533 124.177 18.0533C124.652 18.0533 125.032 17.9439 125.318 17.7253C125.603 17.5067 125.809 17.1997 125.933 16.8045C126.061 16.4093 126.123 15.9509 126.123 15.4296ZM104.166 13.2263C104.463 13.0119 104.844 12.9068 105.311 12.9068L105.319 12.911C105.997 12.911 106.505 13.1381 106.848 13.5964C107.187 14.0547 107.361 14.6938 107.361 15.4338C107.361 16.1738 107.191 16.7793 106.852 17.2502C106.513 17.7211 105.98 17.9566 105.315 17.9566C104.649 17.9566 104.145 17.7295 103.802 17.2754C103.463 16.8213 103.29 16.2074 103.29 15.4338C103.29 14.9292 103.36 14.4919 103.505 14.1135C103.645 13.7351 103.868 13.4408 104.166 13.2263ZM88.0521 11.9061C87.8083 12.4989 87.6884 13.1927 87.6884 13.9916V14C87.6884 14.7989 87.8124 15.4926 88.0521 16.0855C88.2918 16.6783 88.6514 17.1367 89.1308 17.4604C89.6102 17.7842 90.2053 17.9481 90.9244 17.9481C91.7097 17.9481 92.3544 17.7505 92.8503 17.3637C93.3463 16.9727 93.6975 16.4345 93.9083 15.7407L96.0615 16.3462C95.7019 17.4646 95.0779 18.3518 94.1976 19.0077C93.3173 19.6636 92.2263 19.9916 90.9286 19.9916C89.7962 19.9916 88.8208 19.7393 88.0025 19.239C87.1842 18.7386 86.5519 18.0364 86.1097 17.1366C85.6675 16.2369 85.4443 15.1899 85.4443 13.9958C85.4443 12.8017 85.6675 11.7547 86.1097 10.8549C86.5519 9.95515 87.1842 9.25298 88.0025 8.75263C88.8208 8.25228 89.7962 8 90.9286 8C92.2263 8 93.3132 8.32796 94.1976 8.98388C95.0779 9.6398 95.6978 10.527 96.0615 11.6454L93.9083 12.2509C93.7017 11.5529 93.3463 11.0105 92.8503 10.6237C92.3502 10.2369 91.7097 10.0434 90.9244 10.0434C90.2095 10.0434 89.6102 10.2074 89.1308 10.5312C88.6514 10.8549 88.2918 11.3132 88.0521 11.9061ZM97.4749 8H99.6116V19.7435H97.4749V8ZM109.072 13.0708C109.431 13.7519 109.613 14.5382 109.613 15.4296V15.4338C109.613 16.3252 109.431 17.1156 109.067 17.801C108.704 18.4863 108.195 19.0203 107.551 19.4071C106.902 19.794 106.158 19.9874 105.307 19.9874C104.455 19.9874 103.707 19.7898 103.062 19.4029C102.418 19.0119 101.918 18.4779 101.558 17.7926C101.199 17.1072 101.021 16.3294 101.021 15.4296C101.021 14.5298 101.203 13.7393 101.571 13.054C101.938 12.3686 102.443 11.8346 103.087 11.452C103.732 11.0694 104.459 10.876 105.311 10.876C106.162 10.876 106.914 11.0736 107.559 11.4604C108.208 11.8514 108.712 12.3854 109.072 13.0708ZM116.511 11.1156H118.664L118.672 11.1198V19.7477H116.787V18.8521C116.593 19.075 116.366 19.2768 116.11 19.4492C115.56 19.815 114.87 20 114.039 20C113.374 20 112.832 19.8823 112.415 19.6552C111.993 19.4282 111.667 19.1381 111.436 18.7849C111.2 18.4359 111.035 18.0701 110.935 17.6875C110.836 17.3048 110.774 16.9601 110.754 16.6447C110.733 16.3336 110.721 16.1023 110.721 15.9594V11.1198H112.886V15.1941C112.886 15.3917 112.899 15.644 112.919 15.9509C112.94 16.2537 113.002 16.5648 113.113 16.8718C113.221 17.1787 113.403 17.4394 113.651 17.6454C113.899 17.8514 114.25 17.9566 114.705 17.9566C114.891 17.9566 115.085 17.9271 115.296 17.8683C115.502 17.8094 115.701 17.6959 115.882 17.5277C116.064 17.3595 116.217 17.1114 116.333 16.7835C116.453 16.4555 116.511 16.0266 116.511 15.4926V11.1156ZM125.855 8.23966H128.008V8.24807V19.7519H126.123V19.2432C126.096 19.2639 126.07 19.2864 126.043 19.309C126.011 19.3368 125.978 19.3648 125.942 19.3903C125.375 19.7898 124.673 19.9916 123.83 19.9916C123.049 19.9916 122.367 19.7898 121.78 19.3903C121.193 18.9909 120.734 18.4443 120.408 17.7589C120.081 17.0736 119.916 16.3125 119.916 15.4338C119.916 14.555 120.085 13.773 120.416 13.0876C120.747 12.4022 121.214 11.8641 121.817 11.4688C122.42 11.0736 123.127 10.876 123.937 10.876C124.689 10.876 125.326 11.0568 125.855 11.4057V8.23966Z" fill="#5F6685"/>
</svg>
