<svg id="datahub-logo-color_v2" xmlns="http://www.w3.org/2000/svg" xmlns:xlink="http://www.w3.org/1999/xlink"
    viewBox="0 0 180 180" shape-rendering="geometricPrecision" text-rendering="geometricPrecision">
    <defs>
        <linearGradient id="red_gradient" x1="83.06" y1="68.88" x2="98.74" y2="40.67" gradientUnits="userSpaceOnUse">
            <stop offset="0" stop-color="#dd3163" />
            <stop offset="1" stop-color="#ff5663" />
        </linearGradient>
        <linearGradient id="yellow_gradient" x1="91.08" y1="126.64" x2="35.79" y2="50.66" gradientUnits="userSpaceOnUse">
            <stop offset="0" stop-color="#efab00" />
            <stop offset="1" stop-color="#efb700" />
        </linearGradient>
        <linearGradient id="blue_gradient" x1="50.22" y1="96.82" x2="144.42" y2="17.17" gradientUnits="userSpaceOnUse">
            <stop offset="0.03" stop-color="#1890ff" />
            <stop offset="1" stop-color="#18b5ff" />
        </linearGradient>

        <mask id="red_mask">
            <circle cx="0" cy="0" r="34" fill="white" />
            <circle cx="0" cy="0" r="26" fill="black" />
            <rect width="34" height="68" x="-34" y="-34" fill="black" />
            <circle cx="0" cy="-30" r="4" fill="white" />
            <circle cx="0" cy="30" r="4" fill="white" />
        </mask>
        <mask id="yellow_mask">
            <circle cx="0" cy="0" r="49" fill="white" />
            <circle cx="0" cy="0" r="41" fill="black" />
            <rect width="49" height="49" x="0" y="-49" transform="rotate(18)" fill="black" />
            <rect width="49" height="49" x="0" y="-49" transform="rotate(72)" fill="black" />
            <circle cx="0" cy="-45" r="4" transform="rotate(18)" fill="white" />
            <circle cx="0" cy="-45" r="4" transform="rotate(162)" fill="white" />
        </mask>
        <mask id="blue_mask">
            <circle cx="0" cy="0" r="64" fill="white" />
            <circle cx="0" cy="0" r="56" fill="black" />
            <rect width="64" height="64" x="0" y="-64" transform="rotate(270)" fill="black" />
            <rect width="64" height="64" x="0" y="-64" transform="rotate(216)" fill="black" />
            <circle cx="0" cy="-60" r="4" fill="white" />
            <circle cx="0" cy="-60" r="4" transform="rotate(216)" fill="white" />
        </mask>
    </defs>

    <g id="logo" transform="translate(90,90)">
        <animateTransform attributeName="transform" type="scale" values="0;1" 
                          calcMode="spline" keySplines="0.25 0.1 0.25 1.0" dur="2s" 
                          repeatCount="1" additive="sum"/>
        
        <g id="red" fill="url(#red_gradient)">
            <circle id="red_arc" r="34" mask="url(#red_mask)"/>
        </g>

        <g id="yellow" fill="url(#yellow_gradient)">
            <rect id="yellow_joint" x="-4" y="45" width="8" height="35" transform="rotate(60)"/>
            <circle id="yellow_arc" r="49" mask="url(#yellow_mask)"/>
            <circle cy="80" r="4" transform="rotate(60)" />
            <circle id="yellow_satellite" cy="80" r="10" transform="rotate(60)" />
        </g>

        <g id="blue" fill="url(#blue_gradient)">
            <rect id="blue_joint" x="-4" y="-80" width="8" height="20" transform="rotate(60)"/>
            <circle r="64" mask="url(#blue_mask)"/>
            <circle cy="-80" r="4" transform="rotate(60)" />
            <circle id="blue_satellite" cy="-80" r="10" transform="rotate(60)" />
        </g>
    </g>
</svg>