<svg id="datahub-logo-color_loading_panic" xmlns="http://www.w3.org/2000/svg" xmlns:xlink="http://www.w3.org/1999/xlink"
    viewBox="0 0 180 180" shape-rendering="geometricPrecision" text-rendering="geometricPrecision">
    <defs>
        <linearGradient id="red_gradient" x1="83.06" y1="68.88" x2="98.74" y2="40.67" gradientUnits="userSpaceOnUse">
            <stop offset="0" stop-color="#dd3163" />
            <stop offset="1" stop-color="#ff5663" />
        </linearGradient>
        <linearGradient id="yellow_gradient" x1="91.08" y1="126.64" x2="35.79" y2="50.66" gradientUnits="userSpaceOnUse">
            <stop offset="0" stop-color="#efab00" />
            <stop offset="1" stop-color="#efb700" />
        </linearGradient>
        <linearGradient id="blue_gradient" x1="50.22" y1="96.82" x2="144.42" y2="17.17" gradientUnits="userSpaceOnUse">
            <stop offset="0.03" stop-color="#1890ff" />
            <stop offset="1" stop-color="#18b5ff" />
        </linearGradient>

        <mask id="red_mask">
            <circle cx="90" cy="90" r="34" fill="white" />
            <circle cx="90" cy="90" r="26" fill="black" />
            <rect width="34" height="68" x="56" y="56" fill="black" />
            <circle cx="90" cy="60" r="4" fill="white" />
            <circle cx="90" cy="120" r="4" fill="white" />
        </mask>
        <mask id="yellow_mask">
            <circle cx="90" cy="90" r="49" fill="white" />
            <circle cx="90" cy="90" r="41" fill="black" />
            <rect width="49" height="49" x="90" y="41" transform="rotate(18 90 90)" fill="black" />
            <rect width="49" height="49" x="90" y="41" transform="rotate(72 90 90)" fill="black" />
            <circle cx="90" cy="45" r="4" transform="rotate(18 90 90)" fill="white" />
            <circle cx="90" cy="45" r="4" transform="rotate(162 90 90)" fill="white" />
        </mask>
        <mask id="blue_mask">
            <circle cx="90" cy="90" r="64" fill="white" />
            <circle cx="90" cy="90" r="56" fill="black" />
            <rect width="64" height="64" x="90" y="26" transform="rotate(270 90 90)" fill="black" />
            <rect width="64" height="64" x="90" y="26" transform="rotate(216 90 90)" fill="black" />
            <circle cx="90" cy="30" r="4" fill="white" />
            <circle cx="90" cy="30" r="4" transform="rotate(216 90 90)" fill="white" />
        </mask>
    </defs>

    <g id="red" fill="url(#red_gradient)">
        <circle id="red_arc" cx="90" cy="90" r="34" mask="url(#red_mask)"/>
        <animateTransform attributeName="transform" type="rotate" from="0 90 90" to="360 90 90" dur="0.5s" repeatCount="indefinite"/>
    </g>

    <g id="yellow" fill="url(#yellow_gradient)">
        <rect id="yellow_joint" width="8" height="35" x="86" y="135" transform="rotate(60 90 90)"/>
        <circle id="yellow_arc" cx="90" cy="90" r="49" mask="url(#yellow_mask)"/>
        <circle cx="90" cy="170" r="4" transform="rotate(60 90 90)" />
        <circle id="yellow_satellite" cx="90" cy="170" r="10" transform="rotate(60 90 90)" >
            <animateTransform attributeName="transform" type="rotate" from="360 90 90" to="0 90 90" dur="4s" repeatCount="indefinite"/>
        </circle>
        <animateTransform attributeName="transform" type="rotate" from="360 90 90" to="0 90 90" dur="2s" repeatCount="indefinite"/>
    </g>

    <g id="blue" fill="url(#blue_gradient)">
        <rect id="blue_joint" width="8" height="20" x="86" y="10" transform="rotate(60 90 90)"/>
        <circle cx="90" cy="90" r="64" mask="url(#blue_mask)"/>
        <circle cx="90" cy="10" r="4" transform="rotate(60 90 90)" />
        <circle id="blue_satellite" cx="90" cy="10" r="10" transform="rotate(60 90 90)">
            <animateTransform attributeName="transform" type="rotate" from="360 90 90" to="0 90 90" dur="1s" repeatCount="indefinite"/>
        </circle>
        <animateTransform attributeName="transform" type="rotate" from="0 90 90" to="360 90 90" dur="2s" repeatCount="indefinite"/>
    </g>
</svg>