<svg width="24" height="26" viewBox="0 0 24 26" fill="none" xmlns="http://www.w3.org/2000/svg">
<path d="M19.8218 7.09973L16.4243 2.28977C15.9213 1.57906 15.2577 0.99985 14.4887 0.600248C13.7197 0.200646 12.8674 -0.0078125 12.0026 -0.0078125C11.1378 -0.0078125 10.2855 0.200646 9.51643 0.600248C8.74739 0.99985 8.08383 1.57906 7.58086 2.28977L4.17718 7.09973C3.59715 7.92062 3.2522 8.88708 3.18018 9.89304C3.10815 10.899 3.31185 11.9055 3.76891 12.8022C4.22597 13.6989 4.91872 14.451 5.77112 14.976C6.62351 15.5011 7.60261 15.7787 8.60094 15.7784H15.3877C16.3869 15.7806 17.3674 15.5044 18.2213 14.9801C19.0752 14.4558 19.7694 13.7039 20.2277 12.8068C20.686 11.9098 20.8906 10.9025 20.819 9.89563C20.7474 8.88876 20.4023 7.92134 19.8218 7.09973ZM15.396 14.1162H8.60917C7.91315 14.1165 7.23051 13.923 6.63619 13.557C6.04187 13.1911 5.55883 12.6667 5.24011 12.0416C4.92138 11.4165 4.77928 10.7148 4.82941 10.0134C4.87953 9.31208 5.11995 8.63824 5.52426 8.06588L8.91354 3.25384C9.26419 2.75761 9.72704 2.35315 10.2636 2.07409C10.8002 1.79503 11.395 1.64945 11.9985 1.64945C12.6019 1.64945 13.1967 1.79503 13.7333 2.07409C14.2699 2.35315 14.7327 2.75761 15.0834 3.25384L18.4809 8.06588C18.8852 8.63824 19.1256 9.31208 19.1757 10.0134C19.2259 10.7148 19.0838 11.4165 18.765 12.0416C18.4463 12.6667 17.9633 13.1911 17.3689 13.557C16.7746 13.923 16.092 14.1165 15.396 14.1162Z" fill="#90DACD"/>
<path d="M21.7755 15.0137L15.0114 5.4395C14.669 4.95444 14.2168 4.55905 13.6925 4.28624C13.1683 4.01343 12.5871 3.87109 11.9974 3.87109C11.4077 3.87109 10.8265 4.01343 10.3023 4.28624C9.77801 4.55905 9.32585 4.95444 8.98345 5.4395L2.22338 15.0137C1.82814 15.5729 1.59304 16.2313 1.54387 16.9166C1.4947 17.602 1.63337 18.2878 1.94466 18.8987C2.25595 19.5096 2.72782 20.0221 3.30849 20.3799C3.88915 20.7377 4.55617 20.927 5.23631 20.9269H18.7626C19.4428 20.927 20.1098 20.7377 20.6904 20.3799C21.2711 20.0221 21.743 19.5096 22.0543 18.8987C22.3656 18.2878 22.5042 17.602 22.4551 16.9166C22.4059 16.2313 22.1708 15.5729 21.7755 15.0137ZM18.7626 19.2647H5.23631C4.85949 19.264 4.49012 19.1586 4.16853 18.9602C3.84694 18.7618 3.58549 18.4779 3.41274 18.1395C3.23999 17.8012 3.16257 17.4214 3.18893 17.0417C3.21529 16.6619 3.34443 16.2967 3.56223 15.9861L10.3244 6.40357C10.5146 6.13423 10.7658 5.91469 11.0569 5.76322C11.3481 5.61174 11.6709 5.53272 11.9984 5.53272C12.326 5.53272 12.6487 5.61174 12.9399 5.76322C13.2311 5.91469 13.4823 6.13423 13.6725 6.40357L20.4367 15.9861C20.6545 16.2967 20.7836 16.6619 20.81 17.0417C20.8364 17.4214 20.7589 17.8012 20.5862 18.1395C20.4134 18.4779 20.152 18.7618 19.8304 18.9602C19.5088 19.1586 19.1394 19.264 18.7626 19.2647Z" fill="#ABE1D7"/>
<path d="M23.6142 22.6891L13.687 8.63319C13.4955 8.36131 13.2424 8.13964 12.9489 7.98668C12.6553 7.83372 12.3298 7.75391 11.9995 7.75391C11.6692 7.75391 11.3437 7.83372 11.0502 7.98668C10.7566 8.13964 10.5036 8.36131 10.3121 8.63319L0.38484 22.6891C0.163982 23.0022 0.0326921 23.3706 0.00535603 23.7541C-0.02198 24.1376 0.0556928 24.5213 0.229863 24.8631C0.404034 25.2049 0.667981 25.4917 0.992782 25.6921C1.31758 25.8924 1.6907 25.9986 2.07126 25.9989H21.9278C22.3083 25.9986 22.6815 25.8924 23.0063 25.6921C23.3311 25.4917 23.595 25.2049 23.7692 24.8631C23.9434 24.5213 24.021 24.1376 23.9937 23.7541C23.9664 23.3706 23.8351 23.0022 23.6142 22.6891ZM21.9278 24.3367H2.07126C1.99267 24.3366 1.91562 24.3147 1.84856 24.2733C1.78151 24.2319 1.72703 24.1726 1.69113 24.102C1.65522 24.0314 1.63926 23.9521 1.645 23.873C1.65075 23.7938 1.67797 23.7177 1.72369 23.6531L11.6509 9.59726C11.6905 9.5414 11.7426 9.49586 11.8031 9.46442C11.8635 9.43299 11.9305 9.41656 11.9985 9.4165C12.0666 9.41604 12.1337 9.43225 12.1943 9.46372C12.2548 9.4952 12.3069 9.54102 12.3461 9.59726L22.2754 23.6531C22.3211 23.7177 22.3483 23.7938 22.354 23.873C22.3598 23.9521 22.3438 24.0314 22.3079 24.102C22.272 24.1726 22.2175 24.2319 22.1505 24.2733C22.0834 24.3147 22.0064 24.3366 21.9278 24.3367Z" fill="white"/>
</svg>
