<svg width="620" height="1024" viewBox="0 0 620 1024" fill="none" xmlns="http://www.w3.org/2000/svg">
<rect width="620" height="1024" fill="url(#paint0_linear_2_30132)"/>
<g filter="url(#filter0_dd_2_30132)">
<path d="M264 519C264 493.595 284.595 473 310 473V473C335.405 473 356 493.595 356 519V519C356 544.405 335.405 565 310 565V565C284.595 565 264 544.405 264 519V519Z" fill="white" shape-rendering="crispEdges"/>
<path d="M310 563.5C285.423 563.5 265.5 543.577 265.5 519C265.5 494.423 285.423 474.5 310 474.5C334.577 474.5 354.5 494.423 354.5 519C354.5 543.577 334.577 563.5 310 563.5Z" stroke="url(#paint1_linear_2_30132)" stroke-width="3" shape-rendering="crispEdges"/>
<path d="M314.744 533.854C312.366 534.687 309.823 534.946 307.324 534.608C304.826 534.269 302.444 533.344 300.377 531.909C298.309 530.474 296.616 528.57 295.436 526.355C294.256 524.139 293.624 521.676 293.592 519.17C293.56 516.663 294.129 514.185 295.252 511.94C296.375 509.696 298.019 507.75 300.049 506.263C302.079 504.776 304.436 503.791 306.925 503.39C309.414 502.989 311.964 503.183 314.362 503.956C314.713 504.068 315.094 504.044 315.429 503.89C315.764 503.736 316.028 503.463 316.169 503.124C316.25 502.934 316.289 502.73 316.286 502.524C316.283 502.318 316.236 502.115 316.15 501.927C316.063 501.74 315.938 501.573 315.783 501.436C315.628 501.3 315.446 501.197 315.248 501.134C313.438 500.551 311.55 500.246 309.647 500.23C306.377 500.195 303.155 501.006 300.296 502.585C297.438 504.164 295.042 506.456 293.344 509.234C291.647 512.013 290.706 515.183 290.615 518.433C290.524 521.683 291.286 524.9 292.825 527.769L286.998 531.43C286.239 530.901 285.31 530.665 284.388 530.769C283.657 530.852 282.965 531.143 282.396 531.608C281.827 532.072 281.405 532.69 281.181 533.387C280.957 534.084 280.94 534.831 281.133 535.537C281.325 536.244 281.719 536.88 282.267 537.369C282.814 537.858 283.492 538.18 284.22 538.295C284.947 538.41 285.692 538.314 286.365 538.018C287.038 537.722 287.611 537.239 288.015 536.627C288.419 536.015 288.636 535.3 288.641 534.568C288.639 534.359 288.62 534.151 288.584 533.945L294.425 530.272C296.834 533.444 300.194 535.773 304.021 536.921C307.848 538.07 311.943 537.979 315.715 536.661C315.909 536.593 316.087 536.485 316.238 536.345C316.389 536.205 316.508 536.035 316.589 535.847C316.671 535.658 316.711 535.455 316.709 535.25C316.708 535.045 316.663 534.842 316.578 534.655C316.429 534.317 316.158 534.047 315.818 533.899C315.479 533.75 315.095 533.734 314.744 533.854Z" fill="url(#paint2_linear_2_30132)"/>
<path d="M309.456 529.991C309.457 529.631 309.59 529.283 309.829 529.013C310.069 528.744 310.4 528.57 310.759 528.525C313.082 528.211 315.212 527.072 316.754 525.316C318.296 523.561 319.146 521.31 319.146 518.979C319.146 516.648 318.296 514.397 316.754 512.642C315.212 510.886 313.082 509.747 310.759 509.433C310.4 509.387 310.07 509.213 309.83 508.944C309.591 508.674 309.458 508.327 309.456 507.967C309.455 507.758 309.499 507.552 309.584 507.361C309.67 507.17 309.795 507 309.952 506.861C310.109 506.722 310.293 506.617 310.494 506.555C310.694 506.492 310.906 506.472 311.114 506.497C314.162 506.894 316.961 508.379 318.988 510.675C321.016 512.972 322.134 515.923 322.134 518.979C322.134 522.035 321.016 524.986 318.988 527.283C316.961 529.579 314.162 531.064 311.114 531.461C310.906 531.486 310.694 531.466 310.494 531.403C310.293 531.341 310.109 531.236 309.952 531.097C309.795 530.958 309.67 530.788 309.584 530.597C309.499 530.406 309.455 530.2 309.456 529.991Z" fill="url(#paint3_linear_2_30132)"/>
<path d="M334.914 497.449C334.371 497.488 333.842 497.641 333.364 497.899C332.885 498.158 332.468 498.514 332.139 498.946C331.811 499.378 331.579 499.874 331.459 500.402C331.339 500.93 331.334 501.477 331.445 502.007L328.931 503.588C326.766 500.878 324.053 498.65 320.968 497.048C317.882 495.446 314.493 494.506 311.019 494.289C310.818 494.278 310.617 494.308 310.428 494.377C310.239 494.446 310.066 494.552 309.92 494.69C309.774 494.828 309.657 494.993 309.578 495.177C309.498 495.361 309.457 495.559 309.456 495.759C309.459 496.137 309.606 496.501 309.869 496.775C310.132 497.048 310.49 497.212 310.87 497.233C316.364 497.592 321.521 499.993 325.318 503.957C329.114 507.921 331.273 513.16 331.364 518.633C331.552 530.598 321.526 540.74 309.487 540.756C304.206 540.777 299.098 538.887 295.117 535.438C294.874 535.225 294.567 535.097 294.244 535.073C293.92 535.049 293.598 535.13 293.325 535.305C293.131 535.43 292.969 535.597 292.851 535.795C292.734 535.993 292.664 536.215 292.648 536.444C292.631 536.674 292.669 536.903 292.757 537.116C292.846 537.328 292.983 537.517 293.157 537.667C297.799 541.691 303.785 543.845 309.942 543.707C314.328 543.626 318.614 542.393 322.366 540.133C326.118 537.873 329.202 534.666 331.304 530.839C333.407 527.011 334.454 522.699 334.339 518.339C334.224 513.979 332.952 509.727 330.65 506.015L333.145 504.446C333.655 504.765 334.235 504.96 334.836 505.014C335.437 505.068 336.042 504.98 336.602 504.757C337.162 504.534 337.66 504.182 338.057 503.73C338.454 503.278 338.738 502.74 338.885 502.158C339.032 501.576 339.039 500.968 338.904 500.384C338.77 499.799 338.498 499.254 338.111 498.794C337.724 498.334 337.233 497.972 336.678 497.737C336.123 497.502 335.52 497.4 334.918 497.442L334.914 497.449Z" fill="url(#paint4_linear_2_30132)"/>
</g>
<circle cx="309.5" cy="518.5" r="69" stroke="#5F6685" stroke-opacity="0.2" stroke-width="1.5" stroke-linecap="round" stroke-dasharray="0.29 3.44"/>
<circle cx="308.5" cy="518.5" r="103.5" stroke="#5F6685" stroke-opacity="0.2" stroke-width="1.5" stroke-linecap="round" stroke-dasharray="0.29 3.44"/>
<circle cx="309.25" cy="519.25" r="155.25" stroke="#5F6685" stroke-opacity="0.2" stroke-width="1.5" stroke-linecap="round" stroke-dasharray="0.29 3.44"/>
<circle cx="309.5" cy="519.5" r="202.5" stroke="#5F6685" stroke-opacity="0.2" stroke-width="1.5" stroke-linecap="round" stroke-dasharray="0.29 3.44"/>
<circle cx="309.5" cy="519.5" r="259.5" stroke="#5F6685" stroke-opacity="0.2" stroke-width="1.5" stroke-linecap="round" stroke-dasharray="0.29 3.44"/>
<g filter="url(#filter1_dd_2_30132)">
<path d="M402 416C402 404.954 410.954 396 422 396C433.046 396 442 404.954 442 416C442 427.046 433.046 436 422 436C410.954 436 402 427.046 402 416Z" fill="white"/>
<path d="M402.75 416C402.75 405.369 411.369 396.75 422 396.75C432.631 396.75 441.25 405.369 441.25 416C441.25 426.631 432.631 435.25 422 435.25C411.369 435.25 402.75 426.631 402.75 416Z" stroke="url(#paint5_linear_2_30132)" stroke-width="1.5"/>
<path d="M419.239 419.359C420.049 419.417 420.691 420.083 420.707 420.899L420.708 420.932V427.126C420.708 427.999 419.996 428.706 419.121 428.706C418.254 428.706 417.55 428.016 417.534 427.157L417.533 427.126V423.661L414.512 425.395C413.755 425.834 412.786 425.574 412.346 424.82C411.914 424.074 412.16 423.121 412.896 422.676L412.926 422.659L418.318 419.565C418.608 419.398 418.93 419.333 419.239 419.359ZM425.643 419.544L425.681 419.565L431.072 422.659C431.832 423.095 432.09 424.064 431.653 424.82C431.221 425.564 430.27 425.827 429.517 425.412L429.487 425.395L426.468 423.661V427.126C426.468 427.999 425.758 428.706 424.88 428.706C424.012 428.706 423.31 428.016 423.293 427.157L423.293 427.126V420.932C423.293 420.101 423.939 419.418 424.762 419.359C425.057 419.334 425.363 419.392 425.643 419.544ZM411.635 411.511L411.664 411.528L417.053 414.623C417.432 414.841 417.684 415.186 417.791 415.571C417.827 415.696 417.843 415.82 417.849 415.944C417.853 416.116 417.831 416.29 417.777 416.458C417.667 416.813 417.433 417.13 417.089 417.339L417.053 417.36L411.664 420.457C410.904 420.893 409.934 420.635 409.497 419.881C409.063 419.133 409.31 418.185 410.048 417.74L410.077 417.722L413.088 415.995L410.077 414.262C409.317 413.825 409.057 412.862 409.497 412.107C409.928 411.361 410.879 411.099 411.635 411.511ZM434.504 412.107C434.943 412.862 434.683 413.825 433.923 414.262L430.912 415.995L433.923 417.722C434.683 418.16 434.943 419.124 434.504 419.881C434.065 420.635 433.094 420.893 432.336 420.457L426.944 417.36C426.584 417.152 426.335 416.825 426.224 416.458C426.171 416.29 426.147 416.116 426.153 415.944C426.156 415.82 426.174 415.696 426.209 415.571C426.317 415.186 426.569 414.841 426.944 414.623L432.336 411.528C433.094 411.092 434.065 411.351 434.504 412.107ZM422.329 413.04C422.42 413.04 422.546 413.092 422.61 413.158L424.851 415.384C424.915 415.448 424.967 415.574 424.967 415.665V416.322C424.967 416.411 424.915 416.537 424.851 416.6L422.61 418.827C422.546 418.892 422.422 418.946 422.329 418.946H421.669C421.579 418.946 421.453 418.892 421.388 418.827L419.148 416.6C419.084 416.537 419.032 416.411 419.032 416.322V415.665C419.032 415.574 419.084 415.448 419.148 415.384L421.388 413.158C421.453 413.092 421.579 413.04 421.669 413.04H422.329ZM422.011 414.941H421.986C421.896 414.941 421.77 414.994 421.707 415.057L421.058 415.7C420.993 415.766 420.943 415.892 420.943 415.982V416.007C420.943 416.096 420.993 416.22 421.058 416.285L421.707 416.929C421.771 416.993 421.896 417.045 421.986 417.045H422.011C422.102 417.045 422.228 416.993 422.292 416.929L422.941 416.285C423.005 416.22 423.06 416.096 423.06 416.007V415.982C423.06 415.892 423.005 415.766 422.941 415.7L422.292 415.057C422.228 414.994 422.102 414.941 422.011 414.941ZM424.88 403.281C425.747 403.281 426.451 403.972 426.467 404.828L426.468 404.859V408.325L429.487 406.589C430.246 406.153 431.215 406.412 431.653 407.166C432.084 407.914 431.839 408.864 431.102 409.308L431.072 409.326L425.681 412.422C425.391 412.588 425.07 412.653 424.762 412.628C423.95 412.568 423.31 411.902 423.293 411.086L423.293 411.053V404.859C423.293 403.989 424.001 403.281 424.88 403.281ZM419.121 403.281C419.985 403.281 420.69 403.972 420.707 404.828L420.708 404.859V411.053C420.708 411.884 420.06 412.568 419.239 412.628C418.943 412.652 418.636 412.593 418.356 412.443L418.318 412.422L412.926 409.326C412.167 408.889 411.908 407.924 412.346 407.166C412.78 406.421 413.729 406.16 414.482 406.573L414.512 406.589L417.533 408.325V404.859C417.533 403.989 418.243 403.281 419.121 403.281Z" fill="#29B5E8"/>
</g>
<g filter="url(#filter2_dd_2_30132)">
<path d="M332 774C332 762.954 340.954 754 352 754C363.046 754 372 762.954 372 774C372 785.046 363.046 794 352 794C340.954 794 332 785.046 332 774Z" fill="white"/>
<path d="M332.75 774C332.75 763.369 341.369 754.75 352 754.75C362.631 754.75 371.25 763.369 371.25 774C371.25 784.631 362.631 793.25 352 793.25C341.369 793.25 332.75 784.631 332.75 774Z" stroke="url(#paint6_linear_2_30132)" stroke-width="1.5"/>
<path d="M344.501 785.211L338.543 774.891C338.387 774.62 338.304 774.313 338.304 774C338.304 773.687 338.387 773.38 338.543 773.109L344.501 762.789C344.657 762.518 344.882 762.293 345.152 762.137C345.423 761.981 345.729 761.898 346.042 761.898H357.964C358.276 761.899 358.581 761.982 358.85 762.139C359.12 762.295 359.343 762.519 359.499 762.789L365.457 773.109C365.613 773.38 365.696 773.687 365.696 774C365.696 774.313 365.613 774.62 365.457 774.891L359.499 785.211C359.343 785.482 359.118 785.707 358.848 785.863C358.577 786.02 358.27 786.102 357.958 786.103H346.039C345.727 786.102 345.421 786.019 345.151 785.862C344.881 785.706 344.657 785.482 344.501 785.211Z" fill="#4386FA"/>
<path opacity="0.1" d="M355.722 770.677C355.722 770.677 357.379 774.65 355.12 776.902C352.862 779.154 348.75 777.713 348.75 777.713C348.75 777.713 354.863 783.905 357.115 786.099H357.964C358.277 786.099 358.583 786.016 358.854 785.86C359.124 785.704 359.349 785.479 359.505 785.208L363.449 778.378L355.722 770.677Z" fill="black"/>
<path d="M357.678 778.806L355.847 776.976C355.828 776.955 355.805 776.938 355.78 776.924C356.554 775.922 356.918 774.662 356.796 773.401C356.674 772.141 356.075 770.974 355.123 770.139C354.171 769.304 352.936 768.863 351.67 768.907C350.404 768.951 349.202 769.476 348.31 770.375C347.418 771.274 346.902 772.479 346.867 773.746C346.833 775.012 347.282 776.243 348.124 777.19C348.966 778.136 350.138 778.725 351.399 778.838C352.661 778.951 353.918 778.578 354.914 777.796C354.927 777.82 354.944 777.841 354.963 777.86L356.793 779.691C356.82 779.718 356.851 779.739 356.886 779.753C356.921 779.768 356.958 779.775 356.996 779.775C357.033 779.775 357.071 779.768 357.106 779.753C357.14 779.739 357.172 779.718 357.199 779.691L357.678 779.212C357.705 779.185 357.726 779.153 357.74 779.119C357.755 779.084 357.762 779.047 357.762 779.009C357.762 778.971 357.755 778.934 357.74 778.899C357.726 778.864 357.705 778.833 357.678 778.806ZM351.845 777.622C351.105 777.622 350.381 777.403 349.765 776.991C349.149 776.58 348.669 775.995 348.386 775.311C348.102 774.627 348.028 773.874 348.173 773.147C348.317 772.421 348.674 771.754 349.198 771.23C349.721 770.706 350.388 770.35 351.115 770.205C351.841 770.061 352.594 770.135 353.278 770.418C353.963 770.702 354.547 771.182 354.959 771.797C355.37 772.413 355.59 773.137 355.59 773.878C355.59 774.37 355.493 774.856 355.305 775.311C355.117 775.765 354.841 776.178 354.493 776.526C354.145 776.873 353.733 777.149 353.278 777.337C352.824 777.526 352.337 777.622 351.845 777.622Z" fill="white"/>
<path d="M349.452 773.678V775.226C349.69 775.647 350.035 775.997 350.452 776.242V773.669L349.452 773.678Z" fill="white"/>
<path d="M349.452 773.678V775.226C349.69 775.647 350.035 775.997 350.452 776.242V773.669L349.452 773.678Z" fill="white"/>
<path d="M351.324 772.395V776.577C351.655 776.638 351.994 776.638 352.325 776.577V772.395H351.324Z" fill="white"/>
<path d="M351.324 772.395V776.577C351.655 776.638 351.994 776.638 352.325 776.577V772.395H351.324Z" fill="white"/>
<path d="M354.22 775.223V774.306H353.219V776.236C353.636 775.992 353.981 775.642 354.22 775.223Z" fill="white"/>
<path d="M354.22 775.223V774.306H353.219V776.236C353.636 775.992 353.981 775.642 354.22 775.223Z" fill="white"/>
</g>
<g filter="url(#filter3_dd_2_30132)">
<path d="M201 390C201 378.954 209.954 370 221 370C232.046 370 241 378.954 241 390C241 401.046 232.046 410 221 410C209.954 410 201 401.046 201 390Z" fill="white"/>
<path d="M201.75 390C201.75 379.369 210.369 370.75 221 370.75C231.631 370.75 240.25 379.369 240.25 390C240.25 400.631 231.631 409.25 221 409.25C210.369 409.25 201.75 400.631 201.75 390Z" stroke="url(#paint7_linear_2_30132)" stroke-width="1.5"/>
<path d="M221 396.73L231.682 399.033V380.916L221 383.219V396.73Z" fill="#205B97"/>
<path d="M231.682 380.916L233.717 381.837V398.112L231.682 399.033V380.916ZM220.999 396.73L210.317 399.033V380.916L220.999 383.219V396.73Z" fill="#5193CE"/>
<path d="M210.317 380.916L208.283 381.837V398.112L210.317 399.033V380.916Z" fill="#205B97"/>
<path d="M223.713 402.717L227.783 400.875V379.125L223.713 377.283L222.469 389.36L223.713 402.717Z" fill="#5193CE"/>
<path d="M218.286 402.717L214.216 400.875V379.125L218.286 377.283L219.53 389.36L218.286 402.717Z" fill="#205B97"/>
<path d="M218.286 377.283H223.768V402.666H218.286V377.283Z" fill="#2E73B7"/>
</g>
<g filter="url(#filter4_dd_2_30132)">
<path d="M196 642C196 630.954 204.954 622 216 622V622C227.046 622 236 630.954 236 642V642C236 653.046 227.046 662 216 662V662C204.954 662 196 653.046 196 642V642Z" fill="white"/>
<path d="M216 661.25C205.369 661.25 196.75 652.631 196.75 642C196.75 631.369 205.369 622.75 216 622.75C226.631 622.75 235.25 631.369 235.25 642C235.25 652.631 226.631 661.25 216 661.25Z" stroke="url(#paint8_linear_2_30132)" stroke-width="1.5"/>
<g clip-path="url(#clip0_2_30132)">
<path d="M215.906 626.468L216.741 628.035C216.928 628.325 217.131 628.581 217.371 628.819C218.073 629.512 218.727 630.252 219.329 631.033C220.743 632.89 221.696 634.951 222.377 637.181C222.786 638.543 223.008 639.94 223.024 641.353C223.093 645.577 221.645 649.204 218.725 652.219C218.25 652.697 217.737 653.135 217.191 653.53C216.902 653.53 216.765 653.308 216.646 653.104C216.429 652.725 216.284 652.309 216.22 651.878C216.117 651.367 216.05 650.856 216.083 650.328V650.09C216.06 650.039 215.805 626.588 215.906 626.468Z" fill="#599636"/>
<path d="M215.906 626.416C215.872 626.348 215.837 626.4 215.803 626.433C215.82 626.775 215.701 627.08 215.514 627.371C215.309 627.66 215.037 627.882 214.764 628.12C213.25 629.432 212.058 631.016 211.103 632.787C209.833 635.171 209.178 637.726 208.993 640.416C208.908 641.387 209.3 644.81 209.605 645.798C210.44 648.421 211.939 650.618 213.88 652.525C214.357 652.985 214.867 653.411 215.395 653.82C215.548 653.82 215.565 653.683 215.6 653.582C215.667 653.364 215.718 653.142 215.753 652.917L216.095 650.363L215.906 626.416Z" fill="#6CAC48"/>
<path d="M216.74 654.568C216.775 654.177 216.962 653.852 217.167 653.529C216.961 653.444 216.809 653.275 216.69 653.086C216.587 652.908 216.502 652.72 216.436 652.524C216.197 651.809 216.146 651.059 216.078 650.328V649.885C215.993 649.954 215.975 650.532 215.975 650.618C215.926 651.391 215.823 652.159 215.669 652.917C215.618 653.224 215.584 653.53 215.395 653.803C215.395 653.837 215.395 653.871 215.412 653.922C215.718 654.825 215.802 655.744 215.854 656.681V657.023C215.854 657.431 215.838 657.345 216.177 657.482C216.313 657.533 216.466 657.551 216.603 657.652C216.705 657.652 216.722 657.567 216.722 657.499L216.671 656.937V655.37C216.655 655.096 216.705 654.825 216.74 654.569L216.74 654.568Z" fill="#C2BFBF"/>
</g>
</g>
<g filter="url(#filter5_dd_2_30132)">
<path d="M117 715C117 703.954 125.954 695 137 695C148.046 695 157 703.954 157 715C157 726.046 148.046 735 137 735C125.954 735 117 726.046 117 715Z" fill="white"/>
<path d="M117.75 715C117.75 704.369 126.369 695.75 137 695.75C147.631 695.75 156.25 704.369 156.25 715C156.25 725.631 147.631 734.25 137 734.25C126.369 734.25 117.75 725.631 117.75 715Z" stroke="url(#paint9_linear_2_30132)" stroke-width="1.5"/>
<path d="M144.888 703.863C142.233 705.806 139.673 707.675 136.974 709.662V706.486C134.133 706.534 131.929 707.694 130.246 709.869C127.924 712.876 127.949 715.927 130.268 720.566C128.967 721.511 127.643 722.483 126.337 723.454C122.853 719.997 121.788 712.048 126.289 706.464C130.79 700.831 139.06 699.582 144.888 703.863Z" fill="#45C8EB"/>
<path d="M143.605 709.234C144.937 708.266 146.216 707.32 147.496 706.371C151.287 710.301 152.326 718.486 147.185 724.167C142.067 729.818 133.967 729.774 129.37 726.272L137.285 720.451V723.62C140.317 723.55 142.636 722.32 144.227 719.93C146.642 716.311 146.187 712.735 143.605 709.234Z" fill="#0494E0"/>
</g>
<g filter="url(#filter6_dd_2_30132)">
<path d="M429 663C429 651.954 437.954 643 449 643C460.046 643 469 651.954 469 663C469 674.046 460.046 683 449 683C437.954 683 429 674.046 429 663Z" fill="white"/>
<path d="M429.75 663C429.75 652.369 438.369 643.75 449 643.75C459.631 643.75 468.25 652.369 468.25 663C468.25 673.631 459.631 682.25 449 682.25C438.369 682.25 429.75 673.631 429.75 663Z" stroke="url(#paint10_linear_2_30132)" stroke-width="1.5"/>
<path d="M436.283 665.259V669.498L449 676.151L461.718 669.498V665.259L457.231 662.969L461.718 660.617V656.409V656.378L461.687 656.409L449 649.849L436.314 656.378H436.283V660.617L440.769 662.969L436.283 665.259Z" fill="#DB1905"/>
<path d="M436.283 665.259L449 671.911L461.718 665.259L457.231 662.969L449 667.27L440.769 662.969L436.283 665.259Z" fill="#FF5224"/>
<path d="M461.718 656.409L449 663.062L436.283 656.409L449 649.849L461.718 656.409Z" fill="#FF5224"/>
</g>
<g filter="url(#filter7_dd_2_30132)">
<path d="M86 527C86 515.954 94.9543 507 106 507C117.046 507 126 515.954 126 527C126 538.046 117.046 547 106 547C94.9543 547 86 538.046 86 527Z" fill="white"/>
<path d="M86.75 527C86.75 516.369 95.3685 507.75 106 507.75C116.631 507.75 125.25 516.369 125.25 527C125.25 537.631 116.631 546.25 106 546.25C95.3685 546.25 86.75 537.631 86.75 527Z" stroke="url(#paint11_linear_2_30132)" stroke-width="1.5"/>
<path d="M112.149 532.65C112.312 531.337 112.263 531.144 113.271 531.357L113.527 531.379C114.302 531.413 115.316 531.258 115.912 530.989C117.194 530.412 117.954 529.449 116.69 529.702C113.806 530.279 113.607 529.332 113.607 529.332C116.653 524.948 117.926 519.383 116.827 518.021C113.83 514.306 108.642 516.063 108.555 516.108L108.527 516.113C107.957 515.999 107.319 515.93 106.603 515.919C105.298 515.898 104.308 516.251 103.556 516.803C103.556 516.803 94.3008 513.104 94.7314 521.456C94.8229 523.232 97.3563 534.898 100.378 531.375C101.482 530.086 102.549 528.997 102.549 528.997C103.079 529.338 103.714 529.512 104.379 529.45L104.431 529.407C104.415 529.567 104.422 529.724 104.451 529.909C103.673 530.753 103.902 530.901 102.346 531.212C100.771 531.526 101.696 532.087 102.3 532.233C103.032 532.411 104.726 532.663 105.87 531.108L105.825 531.286C106.13 531.523 106.11 532.989 106.153 534.037C106.196 535.084 106.269 536.062 106.489 536.638C106.709 537.215 106.969 538.699 109.014 538.274C110.723 537.919 112.03 537.407 112.149 532.65Z" fill="black" stroke="black" stroke-width="2.50172"/>
<path d="M116.69 529.702C113.806 530.279 113.608 529.331 113.608 529.331C116.653 524.947 117.926 519.383 116.828 518.021C113.83 514.306 108.642 516.063 108.555 516.108L108.527 516.113C107.958 515.998 107.32 515.93 106.603 515.919C105.298 515.898 104.308 516.251 103.557 516.803C103.557 516.803 94.3009 513.104 94.7314 521.455C94.8229 523.232 97.3563 534.898 100.378 531.375C101.482 530.086 102.549 528.997 102.549 528.997C103.079 529.338 103.714 529.512 104.379 529.45L104.431 529.407C104.415 529.567 104.422 529.724 104.451 529.909C103.673 530.753 103.902 530.901 102.346 531.212C100.771 531.526 101.696 532.087 102.3 532.233C103.032 532.411 104.726 532.663 105.87 531.108L105.825 531.286C106.13 531.523 106.344 532.827 106.308 534.01C106.272 535.192 106.248 536.004 106.489 536.638C106.729 537.273 106.968 538.699 109.014 538.274C110.723 537.919 111.609 536.998 111.732 535.462C111.82 534.37 112.018 534.531 112.03 533.555L112.189 533.093C112.372 531.612 112.218 531.135 113.271 531.357L113.527 531.379C114.302 531.413 115.317 531.258 115.912 530.989C117.194 530.412 117.954 529.448 116.69 529.702H116.69Z" fill="#336791"/>
<path d="M105.994 530.55C105.914 533.305 106.014 536.078 106.292 536.752C106.57 537.427 107.165 538.738 109.21 538.313C110.919 537.957 111.541 537.269 111.811 535.751C112.01 534.634 112.393 531.531 112.442 530.896M103.542 516.742C103.542 516.742 94.2798 513.069 94.7104 521.421C94.8019 523.197 97.3354 534.864 100.357 531.34C101.461 530.051 102.46 529.041 102.46 529.041M108.545 516.071C108.224 516.169 113.697 514.131 116.807 517.986C117.905 519.348 116.632 524.913 113.587 529.297" stroke="white" stroke-width="0.833905" stroke-linecap="round" stroke-linejoin="round"/>
<path d="M113.587 529.297C113.587 529.297 113.785 530.245 116.67 529.667C117.934 529.414 117.173 530.378 115.891 530.955C114.839 531.429 112.481 531.55 112.442 530.896C112.343 529.207 113.684 529.72 113.587 529.297ZM113.587 529.297C113.499 528.916 112.9 528.542 112.503 527.609C112.157 526.795 107.756 520.553 113.724 521.48C113.943 521.436 112.167 515.973 106.582 515.884C100.998 515.795 101.181 522.546 101.181 522.546" stroke="white" stroke-width="0.833905" stroke-linecap="round" stroke-linejoin="bevel"/>
<path d="M104.431 529.874C103.652 530.718 103.881 530.866 102.325 531.177C100.751 531.492 101.676 532.052 102.279 532.199C103.012 532.376 104.705 532.628 105.85 531.073C106.198 530.6 105.848 529.845 105.369 529.652C105.138 529.559 104.828 529.443 104.431 529.874Z" stroke="white" stroke-width="0.833905" stroke-linecap="round" stroke-linejoin="round"/>
<path d="M104.38 529.86C104.302 529.364 104.548 528.773 104.812 528.083C105.209 527.047 106.125 526.01 105.392 522.724C104.846 520.274 101.184 522.214 101.181 522.546C101.179 522.878 101.347 524.229 101.12 525.803C100.824 527.856 102.467 529.593 104.359 529.415" stroke="white" stroke-width="0.833905" stroke-linecap="round" stroke-linejoin="round"/>
<path d="M103.509 522.496C103.492 522.61 103.723 522.912 104.023 522.953C104.323 522.993 104.58 522.757 104.597 522.643C104.613 522.53 104.383 522.405 104.082 522.364C103.782 522.324 103.525 522.383 103.509 522.496H103.509Z" fill="white" stroke="white" stroke-width="0.277966"/>
<path d="M112.65 522.265C112.666 522.378 112.436 522.681 112.135 522.721C111.835 522.762 111.578 522.526 111.561 522.412C111.545 522.299 111.776 522.174 112.076 522.133C112.377 522.093 112.633 522.152 112.65 522.265V522.265Z" fill="white" stroke="white" stroke-width="0.138983"/>
<path d="M113.724 521.48C113.774 522.37 113.526 522.976 113.495 523.923C113.449 525.299 114.172 526.875 113.083 528.453" stroke="white" stroke-width="0.833905" stroke-linecap="round" stroke-linejoin="round"/>
</g>
<g filter="url(#filter8_dd_2_30132)">
<path d="M481 333C481 321.954 489.954 313 501 313C512.046 313 521 321.954 521 333C521 344.046 512.046 353 501 353C489.954 353 481 344.046 481 333Z" fill="white"/>
<path d="M481.75 333C481.75 322.369 490.369 313.75 501 313.75C511.631 313.75 520.25 322.369 520.25 333C520.25 343.631 511.631 352.25 501 352.25C490.369 352.25 481.75 343.631 481.75 333Z" stroke="url(#paint12_linear_2_30132)" stroke-width="1.5"/>
<path d="M500.586 321.159V322.369H498.464V323.156H500.586V325.566H501.415V323.156H503.59V322.369H501.415V319.954H500.586V321.159Z" fill="#7099A6"/>
<path d="M493.651 324.228V325.984H490.439V327.085H493.651V330.651H494.842V327.085H498.102V325.984H494.842V322.472H493.651V324.228Z" fill="#EB912C"/>
<path d="M507.11 324.228V325.984H503.898V327.14H507.11V330.651H508.349V327.14H511.561V325.984H508.349V322.472H507.11V324.228Z" fill="#59879B"/>
<path d="M500.277 330.208V332.176H496.704V333.641H500.277V337.576H501.723V333.641H505.296V332.176H501.723V328.241H500.277V330.208Z" fill="#E8762C"/>
<path d="M510.784 331.202V332.436H508.609V333.435H510.784V335.899H511.869V333.435H514.044V332.436H511.869V329.972H510.784V331.202Z" fill="#5B6591"/>
<path d="M490.078 331.31V332.49H487.957V333.326H490.078V335.687H490.908V333.326L493.082 333.248V332.49H490.908V330.13H490.078V331.31Z" fill="#7099A6"/>
<path d="M493.651 336.867V338.623H490.439V339.779H493.651V343.29H494.89V339.779H498.102V338.623H494.89V335.112H493.651V336.867Z" fill="#C72035"/>
<path d="M507.11 336.867V338.623H503.898V339.725H507.11V343.29H508.349V339.725H511.561V338.623H508.349V335.112H507.11V336.867Z" fill="#1F447E"/>
<path d="M500.484 341.328V342.558H498.309V343.556H500.484V346.02H501.569V343.556H503.743V342.558H501.569V340.094H500.484V341.328Z" fill="#5B6591"/>
</g>
<g filter="url(#filter9_dd_2_30132)">
<path d="M295 259C295 247.954 303.954 239 315 239C326.046 239 335 247.954 335 259C335 270.046 326.046 279 315 279C303.954 279 295 270.046 295 259Z" fill="white"/>
<path d="M295.75 259C295.75 248.369 304.369 239.75 315 239.75C325.631 239.75 334.25 248.369 334.25 259C334.25 269.631 325.631 278.25 315 278.25C304.369 278.25 295.75 269.631 295.75 259Z" stroke="url(#paint13_linear_2_30132)" stroke-width="1.5"/>
<path d="M325.741 248.237C326.293 248.768 326.654 249.469 326.739 250.233C326.739 250.551 326.654 250.764 326.463 251.167C326.272 251.57 323.915 255.646 323.215 256.771C322.811 257.429 322.599 258.215 322.599 258.979C322.599 259.764 322.811 260.528 323.215 261.187C323.915 262.312 326.272 266.409 326.463 266.812C326.654 267.215 326.739 267.406 326.739 267.725C326.654 268.489 326.314 269.189 325.762 269.699C325.231 270.251 324.531 270.612 323.788 270.675C323.469 270.675 323.257 270.591 322.875 270.399C322.493 270.208 318.332 267.916 317.207 267.215C317.122 267.173 317.037 267.109 316.931 267.067L311.369 263.776C311.497 264.838 311.964 265.857 312.728 266.6C312.877 266.748 313.025 266.876 313.195 267.003C313.068 267.067 312.919 267.13 312.792 267.215C311.667 267.916 307.57 270.272 307.166 270.463C306.763 270.654 306.572 270.739 306.232 270.739C305.468 270.654 304.767 270.315 304.258 269.763C303.706 269.232 303.345 268.531 303.26 267.767C303.281 267.449 303.366 267.13 303.536 266.854C303.727 266.451 306.084 262.354 306.784 261.229C307.187 260.571 307.4 259.807 307.4 259.021C307.4 258.236 307.187 257.472 306.784 256.813C306.084 255.646 303.706 251.549 303.536 251.146C303.366 250.87 303.281 250.551 303.26 250.233C303.345 249.469 303.685 248.768 304.237 248.237C304.767 247.685 305.468 247.346 306.232 247.261C306.551 247.282 306.869 247.367 307.166 247.537C307.506 247.685 310.499 249.426 312.091 250.36L312.452 250.572C312.579 250.657 312.686 250.721 312.77 250.764L312.94 250.87L318.608 254.224C318.481 252.95 317.823 251.782 316.804 250.997C316.931 250.933 317.08 250.87 317.207 250.785C318.332 250.084 322.429 247.707 322.833 247.537C323.109 247.367 323.427 247.282 323.767 247.261C324.51 247.346 325.21 247.685 325.741 248.237ZM315.297 260.507L316.507 259.297C316.676 259.127 316.676 258.873 316.507 258.703L315.297 257.493C315.127 257.323 314.872 257.323 314.702 257.493L313.492 258.703C313.322 258.873 313.322 259.127 313.492 259.297L314.702 260.507C314.851 260.656 315.127 260.656 315.297 260.507Z" fill="#FF694A"/>
</g>
<defs>
<filter id="filter0_dd_2_30132" x="240" y="464" width="140" height="144" filterUnits="userSpaceOnUse" color-interpolation-filters="sRGB">
<feFlood flood-opacity="0" result="BackgroundImageFix"/>
<feColorMatrix in="SourceAlpha" type="matrix" values="0 0 0 0 0 0 0 0 0 0 0 0 0 0 0 0 0 0 127 0" result="hardAlpha"/>
<feOffset dy="19"/>
<feGaussianBlur stdDeviation="12"/>
<feComposite in2="hardAlpha" operator="out"/>
<feColorMatrix type="matrix" values="0 0 0 0 0.0980392 0 0 0 0 0.705882 0 0 0 0 1 0 0 0 0.03 0"/>
<feBlend mode="normal" in2="BackgroundImageFix" result="effect1_dropShadow_2_30132"/>
<feColorMatrix in="SourceAlpha" type="matrix" values="0 0 0 0 0 0 0 0 0 0 0 0 0 0 0 0 0 0 127 0" result="hardAlpha"/>
<feOffset dy="4"/>
<feGaussianBlur stdDeviation="6.5"/>
<feComposite in2="hardAlpha" operator="out"/>
<feColorMatrix type="matrix" values="0 0 0 0 0.0980392 0 0 0 0 0.639216 0 0 0 0 1 0 0 0 0.06 0"/>
<feBlend mode="normal" in2="effect1_dropShadow_2_30132" result="effect2_dropShadow_2_30132"/>
<feBlend mode="normal" in="SourceGraphic" in2="effect2_dropShadow_2_30132" result="shape"/>
</filter>
<filter id="filter1_dd_2_30132" x="390" y="392" width="64" height="64" filterUnits="userSpaceOnUse" color-interpolation-filters="sRGB">
<feFlood flood-opacity="0" result="BackgroundImageFix"/>
<feColorMatrix in="SourceAlpha" type="matrix" values="0 0 0 0 0 0 0 0 0 0 0 0 0 0 0 0 0 0 127 0" result="hardAlpha"/>
<feOffset dy="8"/>
<feGaussianBlur stdDeviation="6"/>
<feComposite in2="hardAlpha" operator="out"/>
<feColorMatrix type="matrix" values="0 0 0 0 0.0980392 0 0 0 0 0.705882 0 0 0 0 1 0 0 0 0.12 0"/>
<feBlend mode="normal" in2="BackgroundImageFix" result="effect1_dropShadow_2_30132"/>
<feColorMatrix in="SourceAlpha" type="matrix" values="0 0 0 0 0 0 0 0 0 0 0 0 0 0 0 0 0 0 127 0" result="hardAlpha"/>
<feOffset dy="2"/>
<feGaussianBlur stdDeviation="2"/>
<feComposite in2="hardAlpha" operator="out"/>
<feColorMatrix type="matrix" values="0 0 0 0 0.0980392 0 0 0 0 0.639216 0 0 0 0 1 0 0 0 0.17 0"/>
<feBlend mode="normal" in2="effect1_dropShadow_2_30132" result="effect2_dropShadow_2_30132"/>
<feBlend mode="normal" in="SourceGraphic" in2="effect2_dropShadow_2_30132" result="shape"/>
</filter>
<filter id="filter2_dd_2_30132" x="320" y="750" width="64" height="64" filterUnits="userSpaceOnUse" color-interpolation-filters="sRGB">
<feFlood flood-opacity="0" result="BackgroundImageFix"/>
<feColorMatrix in="SourceAlpha" type="matrix" values="0 0 0 0 0 0 0 0 0 0 0 0 0 0 0 0 0 0 127 0" result="hardAlpha"/>
<feOffset dy="8"/>
<feGaussianBlur stdDeviation="6"/>
<feComposite in2="hardAlpha" operator="out"/>
<feColorMatrix type="matrix" values="0 0 0 0 0.0980392 0 0 0 0 0.705882 0 0 0 0 1 0 0 0 0.12 0"/>
<feBlend mode="normal" in2="BackgroundImageFix" result="effect1_dropShadow_2_30132"/>
<feColorMatrix in="SourceAlpha" type="matrix" values="0 0 0 0 0 0 0 0 0 0 0 0 0 0 0 0 0 0 127 0" result="hardAlpha"/>
<feOffset dy="2"/>
<feGaussianBlur stdDeviation="2"/>
<feComposite in2="hardAlpha" operator="out"/>
<feColorMatrix type="matrix" values="0 0 0 0 0.0980392 0 0 0 0 0.639216 0 0 0 0 1 0 0 0 0.17 0"/>
<feBlend mode="normal" in2="effect1_dropShadow_2_30132" result="effect2_dropShadow_2_30132"/>
<feBlend mode="normal" in="SourceGraphic" in2="effect2_dropShadow_2_30132" result="shape"/>
</filter>
<filter id="filter3_dd_2_30132" x="189" y="366" width="64" height="64" filterUnits="userSpaceOnUse" color-interpolation-filters="sRGB">
<feFlood flood-opacity="0" result="BackgroundImageFix"/>
<feColorMatrix in="SourceAlpha" type="matrix" values="0 0 0 0 0 0 0 0 0 0 0 0 0 0 0 0 0 0 127 0" result="hardAlpha"/>
<feOffset dy="8"/>
<feGaussianBlur stdDeviation="6"/>
<feComposite in2="hardAlpha" operator="out"/>
<feColorMatrix type="matrix" values="0 0 0 0 0.0980392 0 0 0 0 0.705882 0 0 0 0 1 0 0 0 0.12 0"/>
<feBlend mode="normal" in2="BackgroundImageFix" result="effect1_dropShadow_2_30132"/>
<feColorMatrix in="SourceAlpha" type="matrix" values="0 0 0 0 0 0 0 0 0 0 0 0 0 0 0 0 0 0 127 0" result="hardAlpha"/>
<feOffset dy="2"/>
<feGaussianBlur stdDeviation="2"/>
<feComposite in2="hardAlpha" operator="out"/>
<feColorMatrix type="matrix" values="0 0 0 0 0.0980392 0 0 0 0 0.639216 0 0 0 0 1 0 0 0 0.17 0"/>
<feBlend mode="normal" in2="effect1_dropShadow_2_30132" result="effect2_dropShadow_2_30132"/>
<feBlend mode="normal" in="SourceGraphic" in2="effect2_dropShadow_2_30132" result="shape"/>
</filter>
<filter id="filter4_dd_2_30132" x="184" y="618" width="64" height="64" filterUnits="userSpaceOnUse" color-interpolation-filters="sRGB">
<feFlood flood-opacity="0" result="BackgroundImageFix"/>
<feColorMatrix in="SourceAlpha" type="matrix" values="0 0 0 0 0 0 0 0 0 0 0 0 0 0 0 0 0 0 127 0" result="hardAlpha"/>
<feOffset dy="8"/>
<feGaussianBlur stdDeviation="6"/>
<feComposite in2="hardAlpha" operator="out"/>
<feColorMatrix type="matrix" values="0 0 0 0 0.0980392 0 0 0 0 0.705882 0 0 0 0 1 0 0 0 0.12 0"/>
<feBlend mode="normal" in2="BackgroundImageFix" result="effect1_dropShadow_2_30132"/>
<feColorMatrix in="SourceAlpha" type="matrix" values="0 0 0 0 0 0 0 0 0 0 0 0 0 0 0 0 0 0 127 0" result="hardAlpha"/>
<feOffset dy="2"/>
<feGaussianBlur stdDeviation="2"/>
<feComposite in2="hardAlpha" operator="out"/>
<feColorMatrix type="matrix" values="0 0 0 0 0.0980392 0 0 0 0 0.639216 0 0 0 0 1 0 0 0 0.17 0"/>
<feBlend mode="normal" in2="effect1_dropShadow_2_30132" result="effect2_dropShadow_2_30132"/>
<feBlend mode="normal" in="SourceGraphic" in2="effect2_dropShadow_2_30132" result="shape"/>
</filter>
<filter id="filter5_dd_2_30132" x="105" y="691" width="64" height="64" filterUnits="userSpaceOnUse" color-interpolation-filters="sRGB">
<feFlood flood-opacity="0" result="BackgroundImageFix"/>
<feColorMatrix in="SourceAlpha" type="matrix" values="0 0 0 0 0 0 0 0 0 0 0 0 0 0 0 0 0 0 127 0" result="hardAlpha"/>
<feOffset dy="8"/>
<feGaussianBlur stdDeviation="6"/>
<feComposite in2="hardAlpha" operator="out"/>
<feColorMatrix type="matrix" values="0 0 0 0 0.0980392 0 0 0 0 0.705882 0 0 0 0 1 0 0 0 0.12 0"/>
<feBlend mode="normal" in2="BackgroundImageFix" result="effect1_dropShadow_2_30132"/>
<feColorMatrix in="SourceAlpha" type="matrix" values="0 0 0 0 0 0 0 0 0 0 0 0 0 0 0 0 0 0 127 0" result="hardAlpha"/>
<feOffset dy="2"/>
<feGaussianBlur stdDeviation="2"/>
<feComposite in2="hardAlpha" operator="out"/>
<feColorMatrix type="matrix" values="0 0 0 0 0.0980392 0 0 0 0 0.639216 0 0 0 0 1 0 0 0 0.17 0"/>
<feBlend mode="normal" in2="effect1_dropShadow_2_30132" result="effect2_dropShadow_2_30132"/>
<feBlend mode="normal" in="SourceGraphic" in2="effect2_dropShadow_2_30132" result="shape"/>
</filter>
<filter id="filter6_dd_2_30132" x="417" y="639" width="64" height="64" filterUnits="userSpaceOnUse" color-interpolation-filters="sRGB">
<feFlood flood-opacity="0" result="BackgroundImageFix"/>
<feColorMatrix in="SourceAlpha" type="matrix" values="0 0 0 0 0 0 0 0 0 0 0 0 0 0 0 0 0 0 127 0" result="hardAlpha"/>
<feOffset dy="8"/>
<feGaussianBlur stdDeviation="6"/>
<feComposite in2="hardAlpha" operator="out"/>
<feColorMatrix type="matrix" values="0 0 0 0 0.0980392 0 0 0 0 0.705882 0 0 0 0 1 0 0 0 0.12 0"/>
<feBlend mode="normal" in2="BackgroundImageFix" result="effect1_dropShadow_2_30132"/>
<feColorMatrix in="SourceAlpha" type="matrix" values="0 0 0 0 0 0 0 0 0 0 0 0 0 0 0 0 0 0 127 0" result="hardAlpha"/>
<feOffset dy="2"/>
<feGaussianBlur stdDeviation="2"/>
<feComposite in2="hardAlpha" operator="out"/>
<feColorMatrix type="matrix" values="0 0 0 0 0.0980392 0 0 0 0 0.639216 0 0 0 0 1 0 0 0 0.17 0"/>
<feBlend mode="normal" in2="effect1_dropShadow_2_30132" result="effect2_dropShadow_2_30132"/>
<feBlend mode="normal" in="SourceGraphic" in2="effect2_dropShadow_2_30132" result="shape"/>
</filter>
<filter id="filter7_dd_2_30132" x="74" y="503" width="64" height="64" filterUnits="userSpaceOnUse" color-interpolation-filters="sRGB">
<feFlood flood-opacity="0" result="BackgroundImageFix"/>
<feColorMatrix in="SourceAlpha" type="matrix" values="0 0 0 0 0 0 0 0 0 0 0 0 0 0 0 0 0 0 127 0" result="hardAlpha"/>
<feOffset dy="8"/>
<feGaussianBlur stdDeviation="6"/>
<feComposite in2="hardAlpha" operator="out"/>
<feColorMatrix type="matrix" values="0 0 0 0 0.0980392 0 0 0 0 0.705882 0 0 0 0 1 0 0 0 0.12 0"/>
<feBlend mode="normal" in2="BackgroundImageFix" result="effect1_dropShadow_2_30132"/>
<feColorMatrix in="SourceAlpha" type="matrix" values="0 0 0 0 0 0 0 0 0 0 0 0 0 0 0 0 0 0 127 0" result="hardAlpha"/>
<feOffset dy="2"/>
<feGaussianBlur stdDeviation="2"/>
<feComposite in2="hardAlpha" operator="out"/>
<feColorMatrix type="matrix" values="0 0 0 0 0.0980392 0 0 0 0 0.639216 0 0 0 0 1 0 0 0 0.17 0"/>
<feBlend mode="normal" in2="effect1_dropShadow_2_30132" result="effect2_dropShadow_2_30132"/>
<feBlend mode="normal" in="SourceGraphic" in2="effect2_dropShadow_2_30132" result="shape"/>
</filter>
<filter id="filter8_dd_2_30132" x="469" y="309" width="64" height="64" filterUnits="userSpaceOnUse" color-interpolation-filters="sRGB">
<feFlood flood-opacity="0" result="BackgroundImageFix"/>
<feColorMatrix in="SourceAlpha" type="matrix" values="0 0 0 0 0 0 0 0 0 0 0 0 0 0 0 0 0 0 127 0" result="hardAlpha"/>
<feOffset dy="8"/>
<feGaussianBlur stdDeviation="6"/>
<feComposite in2="hardAlpha" operator="out"/>
<feColorMatrix type="matrix" values="0 0 0 0 0.0980392 0 0 0 0 0.705882 0 0 0 0 1 0 0 0 0.12 0"/>
<feBlend mode="normal" in2="BackgroundImageFix" result="effect1_dropShadow_2_30132"/>
<feColorMatrix in="SourceAlpha" type="matrix" values="0 0 0 0 0 0 0 0 0 0 0 0 0 0 0 0 0 0 127 0" result="hardAlpha"/>
<feOffset dy="2"/>
<feGaussianBlur stdDeviation="2"/>
<feComposite in2="hardAlpha" operator="out"/>
<feColorMatrix type="matrix" values="0 0 0 0 0.0980392 0 0 0 0 0.639216 0 0 0 0 1 0 0 0 0.17 0"/>
<feBlend mode="normal" in2="effect1_dropShadow_2_30132" result="effect2_dropShadow_2_30132"/>
<feBlend mode="normal" in="SourceGraphic" in2="effect2_dropShadow_2_30132" result="shape"/>
</filter>
<filter id="filter9_dd_2_30132" x="283" y="235" width="64" height="64" filterUnits="userSpaceOnUse" color-interpolation-filters="sRGB">
<feFlood flood-opacity="0" result="BackgroundImageFix"/>
<feColorMatrix in="SourceAlpha" type="matrix" values="0 0 0 0 0 0 0 0 0 0 0 0 0 0 0 0 0 0 127 0" result="hardAlpha"/>
<feOffset dy="8"/>
<feGaussianBlur stdDeviation="6"/>
<feComposite in2="hardAlpha" operator="out"/>
<feColorMatrix type="matrix" values="0 0 0 0 0.0980392 0 0 0 0 0.705882 0 0 0 0 1 0 0 0 0.12 0"/>
<feBlend mode="normal" in2="BackgroundImageFix" result="effect1_dropShadow_2_30132"/>
<feColorMatrix in="SourceAlpha" type="matrix" values="0 0 0 0 0 0 0 0 0 0 0 0 0 0 0 0 0 0 127 0" result="hardAlpha"/>
<feOffset dy="2"/>
<feGaussianBlur stdDeviation="2"/>
<feComposite in2="hardAlpha" operator="out"/>
<feColorMatrix type="matrix" values="0 0 0 0 0.0980392 0 0 0 0 0.639216 0 0 0 0 1 0 0 0 0.17 0"/>
<feBlend mode="normal" in2="effect1_dropShadow_2_30132" result="effect2_dropShadow_2_30132"/>
<feBlend mode="normal" in="SourceGraphic" in2="effect2_dropShadow_2_30132" result="shape"/>
</filter>
<linearGradient id="paint0_linear_2_30132" x1="310" y1="0" x2="310" y2="1024" gradientUnits="userSpaceOnUse">
<stop stop-color="#F9FAFC"/>
<stop offset="1" stop-color="#F5F7FA"/>
</linearGradient>
<linearGradient id="paint1_linear_2_30132" x1="310" y1="473" x2="310" y2="565" gradientUnits="userSpaceOnUse">
<stop stop-color="#1890FF"/>
<stop offset="1" stop-color="#B3E3FF"/>
</linearGradient>
<linearGradient id="paint2_linear_2_30132" x1="315.78" y1="542.343" x2="294.816" y2="513.366" gradientUnits="userSpaceOnUse">
<stop stop-color="#EFAB00"/>
<stop offset="1" stop-color="#EFB700"/>
</linearGradient>
<linearGradient id="paint3_linear_2_30132" x1="312.715" y1="520.403" x2="318.653" y2="509.659" gradientUnits="userSpaceOnUse">
<stop stop-color="#DD3163"/>
<stop offset="1" stop-color="#FF5663"/>
</linearGradient>
<linearGradient id="paint4_linear_2_30132" x1="300.168" y1="531.016" x2="335.984" y2="500.555" gradientUnits="userSpaceOnUse">
<stop offset="0.03" stop-color="#1890FF"/>
<stop offset="1" stop-color="#18B5FF"/>
</linearGradient>
<linearGradient id="paint5_linear_2_30132" x1="422" y1="396" x2="422" y2="436" gradientUnits="userSpaceOnUse">
<stop stop-color="#1890FF"/>
<stop offset="1" stop-color="#B3E3FF"/>
</linearGradient>
<linearGradient id="paint6_linear_2_30132" x1="352" y1="754" x2="352" y2="794" gradientUnits="userSpaceOnUse">
<stop stop-color="#1890FF"/>
<stop offset="1" stop-color="#B3E3FF"/>
</linearGradient>
<linearGradient id="paint7_linear_2_30132" x1="221" y1="370" x2="221" y2="410" gradientUnits="userSpaceOnUse">
<stop stop-color="#1890FF"/>
<stop offset="1" stop-color="#B3E3FF"/>
</linearGradient>
<linearGradient id="paint8_linear_2_30132" x1="216" y1="622" x2="216" y2="662" gradientUnits="userSpaceOnUse">
<stop stop-color="#1890FF"/>
<stop offset="1" stop-color="#B3E3FF"/>
</linearGradient>
<linearGradient id="paint9_linear_2_30132" x1="137" y1="695" x2="137" y2="735" gradientUnits="userSpaceOnUse">
<stop stop-color="#1890FF"/>
<stop offset="1" stop-color="#B3E3FF"/>
</linearGradient>
<linearGradient id="paint10_linear_2_30132" x1="449" y1="643" x2="449" y2="683" gradientUnits="userSpaceOnUse">
<stop stop-color="#1890FF"/>
<stop offset="1" stop-color="#B3E3FF"/>
</linearGradient>
<linearGradient id="paint11_linear_2_30132" x1="106" y1="507" x2="106" y2="547" gradientUnits="userSpaceOnUse">
<stop stop-color="#1890FF"/>
<stop offset="1" stop-color="#B3E3FF"/>
</linearGradient>
<linearGradient id="paint12_linear_2_30132" x1="501" y1="313" x2="501" y2="353" gradientUnits="userSpaceOnUse">
<stop stop-color="#1890FF"/>
<stop offset="1" stop-color="#B3E3FF"/>
</linearGradient>
<linearGradient id="paint13_linear_2_30132" x1="315" y1="239" x2="315" y2="279" gradientUnits="userSpaceOnUse">
<stop stop-color="#1890FF"/>
<stop offset="1" stop-color="#B3E3FF"/>
</linearGradient>
<clipPath id="clip0_2_30132">
<rect width="31.3043" height="31.3043" fill="white" transform="translate(200.348 626.348)"/>
</clipPath>
</defs>
</svg>
