<svg width="134" height="28" viewBox="0 0 134 28" fill="none" xmlns="http://www.w3.org/2000/svg">
<path d="M70.7934 12.845C70.4242 12.0652 69.8961 11.4518 69.2231 11.0048C68.5547 10.5531 67.7602 10.3249 66.8441 10.3249C65.928 10.3249 65.1475 10.5531 64.5166 11.0048C64.4839 11.0286 64.4558 11.0572 64.4278 11.0809V7.33398H62.2451V20.396H64.1567V19.6685C64.2782 19.7826 64.4044 19.8872 64.5446 19.987C65.1849 20.4388 65.9795 20.667 66.9236 20.667C67.8163 20.667 68.5921 20.4388 69.2604 19.987C69.9241 19.5353 70.4382 18.9172 70.8075 18.1373C71.172 17.3575 71.3543 16.4779 71.3543 15.4983C71.3543 14.5188 71.1674 13.6249 70.7981 12.8498L70.7934 12.845ZM68.7931 17.1245C68.6201 17.6095 68.3491 17.9899 67.9845 18.2752C67.62 18.5605 67.1573 18.7032 66.5917 18.7032C66.0262 18.7032 65.5401 18.5701 65.1802 18.3038C64.825 18.0327 64.568 17.6523 64.3997 17.1721C64.2361 16.6871 64.1567 16.1307 64.1567 15.4936C64.1567 14.8564 64.2361 14.2953 64.3997 13.8151C64.568 13.33 64.825 12.9544 65.1709 12.6881C65.5168 12.4171 65.9654 12.2792 66.5169 12.2792C67.0965 12.2792 67.5779 12.4266 67.9518 12.7166C68.3304 13.0019 68.6061 13.3871 68.7884 13.8769C68.966 14.3619 69.0595 14.8992 69.0595 15.4936C69.0595 16.0879 68.9707 16.6348 68.7884 17.1245H68.7931Z" fill="#494D5C"/>
<path d="M58.0625 15.6273C58.0625 16.2217 57.997 16.7115 57.8662 17.0966C57.7353 17.4818 57.5577 17.7909 57.338 18.0144C57.123 18.2331 56.88 18.3852 56.6089 18.4756C56.3379 18.5659 56.0668 18.6135 55.791 18.6135C55.2769 18.6135 54.8656 18.4994 54.5618 18.2759C54.2627 18.0524 54.0337 17.7671 53.8794 17.4247C53.7299 17.0729 53.6317 16.7115 53.5897 16.3358C53.5476 15.9554 53.5289 15.6131 53.5289 15.3088V10.5918H51.3369V16.06C51.3369 16.2978 51.3556 16.6021 51.393 16.9873C51.4351 17.3629 51.5239 17.7623 51.6547 18.1855C51.7856 18.6087 51.9912 19.0081 52.267 19.3838C52.5427 19.7594 52.912 20.0685 53.3794 20.311C53.8467 20.5535 54.4403 20.6724 55.1554 20.6724C56.0668 20.6724 56.8333 20.4727 57.4549 20.0733C57.7914 19.8545 58.0812 19.593 58.3242 19.2934V20.3919H60.2358V10.5966H58.0625V15.6321V15.6273Z" fill="#494D5C"/>
<path d="M47.3401 12.8269H41.2175V7.33008H39.0488V20.3921H41.2175V14.8763H47.3401V20.3921H49.4947V7.33008H47.3401V12.8269Z" fill="#494D5C"/>
<path d="M36.8432 12.1482C36.5254 11.5015 36.0393 11.0355 35.3803 10.7502C34.726 10.4649 33.9688 10.3223 33.1088 10.3223C31.9638 10.3223 31.0524 10.5743 30.3793 11.0736C29.7063 11.5776 29.253 12.2385 29.0146 13.0707L30.9916 13.6983C31.1552 13.1943 31.4356 12.8424 31.8469 12.638C32.2535 12.4335 32.6742 12.3289 33.1135 12.3289C33.8379 12.3289 34.352 12.4905 34.6558 12.8091C34.9082 13.0754 35.0484 13.4701 35.0858 13.9789C34.6979 14.0359 34.3147 14.093 33.9454 14.15C33.3332 14.2356 32.7676 14.3307 32.2395 14.4306C31.7207 14.5352 31.2627 14.6493 30.8748 14.7729C30.3606 14.9489 29.94 15.1771 29.6175 15.4529C29.295 15.7239 29.0567 16.052 28.8978 16.4324C28.7435 16.8081 28.6641 17.2313 28.6641 17.702C28.6641 18.2393 28.7856 18.7339 29.0333 19.1808C29.2857 19.6278 29.6549 19.9892 30.1363 20.2602C30.6224 20.5265 31.2159 20.6596 31.9123 20.6596C32.7863 20.6596 33.5154 20.498 34.095 20.1699C34.5483 19.9131 34.955 19.5422 35.3148 19.0667V20.3886H37.2077V14.3735C37.2077 13.9503 37.189 13.5604 37.1516 13.2038C37.1142 12.8424 37.0114 12.4858 36.8385 12.1434L36.8432 12.1482ZM34.8475 17.2979C34.7774 17.5213 34.6371 17.7591 34.4268 18.0159C34.2212 18.2679 33.9454 18.4866 33.5996 18.6578C33.2537 18.8337 32.8331 18.9193 32.3423 18.9193C32.0011 18.9193 31.7114 18.867 31.4823 18.7576C31.2533 18.6483 31.0804 18.5056 30.9589 18.3202C30.8374 18.1347 30.7813 17.916 30.7813 17.6783C30.7813 17.4643 30.828 17.2836 30.9168 17.1267C31.015 16.9698 31.1458 16.8319 31.3188 16.7082C31.4917 16.5894 31.7067 16.48 31.9544 16.3896C32.2115 16.3041 32.5106 16.228 32.8424 16.1614C33.1789 16.0901 33.5809 16.014 34.0436 15.9332C34.3427 15.8809 34.6792 15.8286 35.0531 15.7667C35.0531 15.9332 35.0438 16.1186 35.0297 16.3421C35.0157 16.6987 34.955 17.0173 34.8428 17.2931L34.8475 17.2979Z" fill="#494D5C"/>
<path d="M24.7672 7.87891H22.6126V10.5988H20.8506V12.3106H22.6126V16.3904C22.6126 16.9467 22.6173 17.446 22.6313 17.8882C22.6453 18.3304 22.7622 18.7631 22.9818 19.1863C23.2342 19.6523 23.6034 19.9946 24.0848 20.2134C24.5709 20.4274 25.1177 20.5367 25.73 20.551C26.3469 20.57 26.9732 20.5177 27.6182 20.3988V18.5681C27.0153 18.6585 26.4731 18.6823 26.0011 18.6395C25.529 18.5967 25.1832 18.397 24.9682 18.0308C24.856 17.8454 24.7906 17.6029 24.7812 17.3033C24.7766 17.0085 24.7719 16.6614 24.7719 16.2715V12.3153H27.6182V10.6035H24.7719V7.88366L24.7672 7.87891Z" fill="#494D5C"/>
<path d="M19.7186 12.1482C19.4008 11.5015 18.9147 11.0355 18.2557 10.7502C17.6014 10.4649 16.8442 10.3223 15.9842 10.3223C14.8392 10.3223 13.9325 10.5743 13.2548 11.0736C12.5817 11.5776 12.1284 12.2385 11.89 13.0707L13.867 13.6983C14.0306 13.1943 14.3157 12.8424 14.7223 12.638C15.1289 12.4335 15.5496 12.3289 15.9889 12.3289C16.7133 12.3289 17.2275 12.4905 17.5359 12.8091C17.7883 13.0754 17.9285 13.4701 17.9706 13.9789C17.5827 14.0359 17.1994 14.093 16.8302 14.15C16.2179 14.2356 15.6524 14.3307 15.1243 14.4306C14.6055 14.5352 14.1474 14.6493 13.7595 14.7729C13.2454 14.9489 12.8248 15.1771 12.5023 15.4529C12.1798 15.7239 11.9414 16.052 11.7825 16.4324C11.6283 16.8081 11.5488 17.2313 11.5488 17.702C11.5488 18.2393 11.6703 18.7339 11.9181 19.1808C12.1704 19.6278 12.5397 19.9892 13.0211 20.2602C13.5071 20.5265 14.1007 20.6596 14.8018 20.6596C15.6758 20.6596 16.4049 20.498 16.9844 20.1699C17.4378 19.9131 17.8444 19.5422 18.2043 19.0667V20.3886H20.1018V14.3735C20.1018 13.9503 20.0831 13.5604 20.0457 13.2038C20.0084 12.8424 19.9055 12.4858 19.7326 12.1434L19.7186 12.1482ZM17.7276 17.2979C17.6575 17.5213 17.5172 17.7591 17.3069 18.0159C17.1059 18.2679 16.8302 18.4866 16.4797 18.6578C16.1338 18.8337 15.7132 18.9193 15.2224 18.9193C14.8812 18.9193 14.5961 18.867 14.3624 18.7576C14.1334 18.6483 13.9605 18.5056 13.8437 18.3202C13.7221 18.1347 13.666 17.916 13.666 17.6783C13.666 17.4643 13.7128 17.2836 13.8016 17.1267C13.8951 16.9698 14.0306 16.8319 14.2035 16.7082C14.3765 16.5894 14.5915 16.48 14.8392 16.3896C15.0962 16.3041 15.3953 16.228 15.7272 16.1614C16.0637 16.0901 16.4656 16.014 16.933 15.9332C17.2321 15.8809 17.5686 15.8286 17.9425 15.7667C17.9425 15.9332 17.9332 16.1186 17.9192 16.3421C17.9098 16.6987 17.8444 17.0173 17.7322 17.2931L17.7276 17.2979Z" fill="#494D5C"/>
<path d="M8.2866 8.50932C7.58086 7.90543 6.71621 7.53454 5.69266 7.4014C5.39353 7.36336 5.08039 7.34434 4.7579 7.33959C4.44008 7.33483 4.22976 7.33008 4.12227 7.33008H0V20.3921H4.12227C4.22976 20.3921 4.44476 20.3921 4.76725 20.3826C5.08974 20.3778 5.39821 20.354 5.69266 20.3207C6.71621 20.1876 7.58086 19.8215 8.2866 19.2223C8.99701 18.6184 9.53917 17.8481 9.90372 16.9209C10.2683 15.9889 10.4506 14.9714 10.4506 13.8634C10.4506 12.7555 10.2683 11.738 9.90372 10.806C9.53917 9.874 8.99701 9.10845 8.2866 8.50932ZM7.88465 15.8178C7.70705 16.4407 7.42195 16.9685 7.0387 17.4059C6.65545 17.8434 6.16003 18.1144 5.54777 18.2333C5.33277 18.2761 5.08506 18.3046 4.79996 18.3141C4.52421 18.3284 4.2952 18.3331 4.11759 18.3331H2.19667V9.38899H4.11759C4.2952 9.38899 4.52421 9.39375 4.79996 9.40801C5.08039 9.41277 5.3281 9.4413 5.54777 9.48885C6.14601 9.60297 6.63676 9.874 7.02001 10.2972C7.40793 10.7204 7.6977 11.2434 7.87998 11.8663C8.06693 12.4893 8.16041 13.155 8.16041 13.8634C8.16041 14.5719 8.06693 15.1996 7.87998 15.8225L7.88465 15.8178Z" fill="#494D5C"/>
<rect x="78.4902" width="54.9231" height="28" rx="4.63591" fill="#EBECF0"/>
<path d="M120.655 20.3746C119.715 20.3746 118.885 20.1734 118.165 19.7712C117.451 19.3632 116.89 18.8051 116.482 18.0968C116.08 17.3829 115.879 16.567 115.879 15.6491C115.879 14.6462 116.077 13.7736 116.474 13.0313C116.87 12.2891 117.417 11.7139 118.114 11.306C118.811 10.8924 119.613 10.6855 120.519 10.6855C121.483 10.6855 122.301 10.9122 122.976 11.3655C123.65 11.8188 124.149 12.4562 124.472 13.2778C124.795 14.0994 124.908 15.0654 124.812 16.176H122.525V15.3261C122.525 14.3912 122.375 13.7197 122.075 13.3118C121.78 12.8982 121.296 12.6913 120.621 12.6913C119.834 12.6913 119.253 12.9322 118.879 13.4138C118.511 13.8897 118.327 14.5952 118.327 15.5301C118.327 16.3857 118.511 17.0486 118.879 17.5189C119.253 17.9835 119.8 18.2158 120.519 18.2158C120.973 18.2158 121.361 18.1166 121.684 17.9183C122.007 17.72 122.253 17.4339 122.423 17.0599L124.735 17.7229C124.389 18.5614 123.843 19.213 123.095 19.6777C122.352 20.1423 121.539 20.3746 120.655 20.3746ZM117.613 16.176V14.4592H123.698V16.176H117.613Z" fill="white"/>
<path d="M120.655 20.3746C119.715 20.3746 118.885 20.1734 118.165 19.7712C117.451 19.3632 116.89 18.8051 116.482 18.0968C116.08 17.3829 115.879 16.567 115.879 15.6491C115.879 14.6462 116.077 13.7736 116.474 13.0313C116.87 12.2891 117.417 11.7139 118.114 11.306C118.811 10.8924 119.613 10.6855 120.519 10.6855C121.483 10.6855 122.301 10.9122 122.976 11.3655C123.65 11.8188 124.149 12.4562 124.472 13.2778C124.795 14.0994 124.908 15.0654 124.812 16.176H122.525V15.3261C122.525 14.3912 122.375 13.7197 122.075 13.3118C121.78 12.8982 121.296 12.6913 120.621 12.6913C119.834 12.6913 119.253 12.9322 118.879 13.4138C118.511 13.8897 118.327 14.5952 118.327 15.5301C118.327 16.3857 118.511 17.0486 118.879 17.5189C119.253 17.9835 119.8 18.2158 120.519 18.2158C120.973 18.2158 121.361 18.1166 121.684 17.9183C122.007 17.72 122.253 17.4339 122.423 17.0599L124.735 17.7229C124.389 18.5614 123.843 19.213 123.095 19.6777C122.352 20.1423 121.539 20.3746 120.655 20.3746ZM117.613 16.176V14.4592H123.698V16.176H117.613Z" fill="#5F6685"/>
<path d="M110.059 20.1179V10.9388H112.098V13.1826L111.877 12.8936C111.996 12.5763 112.155 12.2873 112.353 12.0267C112.552 11.7661 112.795 11.5507 113.084 11.3808C113.305 11.2448 113.546 11.1399 113.807 11.0663C114.067 10.987 114.337 10.9388 114.614 10.9218C114.892 10.8991 115.169 10.9048 115.447 10.9388V13.0976C115.192 13.0183 114.895 12.9928 114.555 13.0211C114.22 13.0438 113.917 13.1203 113.645 13.2506C113.373 13.3752 113.144 13.5424 112.957 13.752C112.77 13.956 112.628 14.1996 112.532 14.4829C112.436 14.7606 112.387 15.0751 112.387 15.4264V20.1179H110.059Z" fill="white"/>
<path d="M110.059 20.1179V10.9388H112.098V13.1826L111.877 12.8936C111.996 12.5763 112.155 12.2873 112.353 12.0267C112.552 11.7661 112.795 11.5507 113.084 11.3808C113.305 11.2448 113.546 11.1399 113.807 11.0663C114.067 10.987 114.337 10.9388 114.614 10.9218C114.892 10.8991 115.169 10.9048 115.447 10.9388V13.0976C115.192 13.0183 114.895 12.9928 114.555 13.0211C114.22 13.0438 113.917 13.1203 113.645 13.2506C113.373 13.3752 113.144 13.5424 112.957 13.752C112.77 13.956 112.628 14.1996 112.532 14.4829C112.436 14.7606 112.387 15.0751 112.387 15.4264V20.1179H110.059Z" fill="#5F6685"/>
<path d="M104.042 20.3746C103.118 20.3746 102.308 20.1678 101.611 19.7542C100.914 19.3405 100.37 18.7711 99.9793 18.0458C99.594 17.3149 99.4014 16.4763 99.4014 15.5301C99.4014 14.5725 99.5997 13.7311 99.9963 13.0058C100.393 12.2749 100.94 11.7054 101.637 11.2975C102.334 10.8895 103.135 10.6855 104.042 10.6855C104.965 10.6855 105.776 10.8924 106.473 11.306C107.175 11.7196 107.722 12.2919 108.113 13.0228C108.504 13.7481 108.699 14.5838 108.699 15.5301C108.699 16.482 108.501 17.3234 108.105 18.0543C107.714 18.7796 107.167 19.349 106.464 19.7627C105.767 20.1706 104.96 20.3746 104.042 20.3746ZM104.042 18.2158C104.784 18.2158 105.337 17.9665 105.699 17.4679C106.068 16.9636 106.252 16.3177 106.252 15.5301C106.252 14.7141 106.065 14.0625 105.691 13.5753C105.322 13.088 104.773 12.8443 104.042 12.8443C103.538 12.8443 103.124 12.9577 102.801 13.1843C102.478 13.4109 102.237 13.7254 102.079 14.1277C101.926 14.53 101.849 14.9975 101.849 15.5301C101.849 16.3517 102.033 17.0061 102.402 17.4934C102.776 17.975 103.322 18.2158 104.042 18.2158Z" fill="white"/>
<path d="M104.042 20.3746C103.118 20.3746 102.308 20.1678 101.611 19.7542C100.914 19.3405 100.37 18.7711 99.9793 18.0458C99.594 17.3149 99.4014 16.4763 99.4014 15.5301C99.4014 14.5725 99.5997 13.7311 99.9963 13.0058C100.393 12.2749 100.94 11.7054 101.637 11.2975C102.334 10.8895 103.135 10.6855 104.042 10.6855C104.965 10.6855 105.776 10.8924 106.473 11.306C107.175 11.7196 107.722 12.2919 108.113 13.0228C108.504 13.7481 108.699 14.5838 108.699 15.5301C108.699 16.482 108.501 17.3234 108.105 18.0543C107.714 18.7796 107.167 19.349 106.464 19.7627C105.767 20.1706 104.96 20.3746 104.042 20.3746ZM104.042 18.2158C104.784 18.2158 105.337 17.9665 105.699 17.4679C106.068 16.9636 106.252 16.3177 106.252 15.5301C106.252 14.7141 106.065 14.0625 105.691 13.5753C105.322 13.088 104.773 12.8443 104.042 12.8443C103.538 12.8443 103.124 12.9577 102.801 13.1843C102.478 13.4109 102.237 13.7254 102.079 14.1277C101.926 14.53 101.849 14.9975 101.849 15.5301C101.849 16.3517 102.033 17.0061 102.402 17.4934C102.776 17.975 103.322 18.2158 104.042 18.2158Z" fill="#5F6685"/>
<path d="M92.992 20.3737C91.7681 20.3737 90.7114 20.1074 89.8218 19.5748C88.9379 19.0422 88.2551 18.2971 87.7735 17.3395C87.2975 16.382 87.0596 15.2686 87.0596 13.9994C87.0596 12.7302 87.2975 11.6168 87.7735 10.6592C88.2551 9.70163 88.9379 8.95653 89.8218 8.42392C90.7114 7.89131 91.7681 7.625 92.992 7.625C94.3972 7.625 95.5757 7.97346 96.5276 8.6704C97.4852 9.36733 98.1595 10.3107 98.5504 11.5006L96.2217 12.1466C95.995 11.4043 95.6126 10.8292 95.0743 10.4212C94.536 10.0076 93.8419 9.80078 92.992 9.80078C92.2157 9.80078 91.567 9.9736 91.0457 10.3192C90.5301 10.6649 90.1419 11.1522 89.8813 11.7811C89.6207 12.41 89.4903 13.1495 89.4903 13.9994C89.4903 14.8493 89.6207 15.5887 89.8813 16.2177C90.1419 16.8466 90.5301 17.3339 91.0457 17.6795C91.567 18.0251 92.2157 18.198 92.992 18.198C93.8419 18.198 94.536 17.9911 95.0743 17.5775C95.6126 17.1639 95.995 16.5888 96.2217 15.8522L98.5504 16.4981C98.1595 17.688 97.4852 18.6314 96.5276 19.3283C95.5757 20.0253 94.3972 20.3737 92.992 20.3737Z" fill="white"/>
<path d="M92.992 20.3737C91.7681 20.3737 90.7114 20.1074 89.8218 19.5748C88.9379 19.0422 88.2551 18.2971 87.7735 17.3395C87.2975 16.382 87.0596 15.2686 87.0596 13.9994C87.0596 12.7302 87.2975 11.6168 87.7735 10.6592C88.2551 9.70163 88.9379 8.95653 89.8218 8.42392C90.7114 7.89131 91.7681 7.625 92.992 7.625C94.3972 7.625 95.5757 7.97346 96.5276 8.6704C97.4852 9.36733 98.1595 10.3107 98.5504 11.5006L96.2217 12.1466C95.995 11.4043 95.6126 10.8292 95.0743 10.4212C94.536 10.0076 93.8419 9.80078 92.992 9.80078C92.2157 9.80078 91.567 9.9736 91.0457 10.3192C90.5301 10.6649 90.1419 11.1522 89.8813 11.7811C89.6207 12.41 89.4903 13.1495 89.4903 13.9994C89.4903 14.8493 89.6207 15.5887 89.8813 16.2177C90.1419 16.8466 90.5301 17.3339 91.0457 17.6795C91.567 18.0251 92.2157 18.198 92.992 18.198C93.8419 18.198 94.536 17.9911 95.0743 17.5775C95.6126 17.1639 95.995 16.5888 96.2217 15.8522L98.5504 16.4981C98.1595 17.688 97.4852 18.6314 96.5276 19.3283C95.5757 20.0253 94.3972 20.3737 92.992 20.3737Z" fill="#5F6685"/>
</svg>
