<svg width="20" height="20" viewBox="0 0 20 20" fill="none" xmlns="http://www.w3.org/2000/svg">
<rect width="20" height="20" rx="10" fill="#113633"/>
<path d="M11.937 6.82025C11.9032 6.82455 9.21796 8.23058 9.21796 8.23058H5.62195C4.62241 8.23058 3.79309 9.06364 3.79309 10.064C3.79309 11.0644 4.62241 11.8974 5.62195 11.8974H6.07145L7.04977 14.8063C7.08669 14.9185 7.2005 15.0005 7.31859 15.0002H9.30169C9.48158 15.0017 9.62952 14.7955 9.57051 14.6256L8.65388 11.8974H9.22677L11.8401 13.2725C12.0103 13.3629 12.2527 13.2185 12.2543 13.0257V7.10231C12.2555 6.94211 12.0959 6.80024 11.937 6.82025ZM14.6384 7.52101C14.5844 7.52517 13.5014 8.28347 13.5014 8.28347C13.3688 8.36338 13.3274 8.56246 13.4171 8.68866C13.5069 8.81485 13.7086 8.84098 13.8276 8.74183L14.8147 8.03666C14.9169 7.96805 14.9642 7.82766 14.9244 7.7112C14.8845 7.59474 14.7612 7.5127 14.6384 7.52101ZM11.6902 7.56508V12.5585L9.57491 11.4435V8.68013L11.6902 7.56508ZM5.62195 8.79472H9.01083V11.3333H5.62195C4.93878 11.3333 4.35717 10.7506 4.35717 10.064C4.35717 9.37746 4.93879 8.79472 5.62195 8.79472ZM13.6381 9.78195C13.4902 9.78865 13.3619 9.92941 13.3688 10.0773C13.3757 10.2251 13.5167 10.3532 13.6645 10.3461H15.9208C16.0698 10.3482 16.2069 10.2131 16.2069 10.064C16.2069 9.91497 16.0698 9.77983 15.9208 9.78195C15.9208 9.78195 13.6469 9.78152 13.6381 9.78195ZM13.6425 11.3289C13.5256 11.3357 13.4177 11.4231 13.3869 11.5361C13.356 11.6491 13.4043 11.7792 13.5014 11.8445L14.4886 12.5497C14.6076 12.6489 14.8092 12.6228 14.899 12.4966C14.9888 12.3704 14.9474 12.1713 14.8147 12.0914L13.8276 11.3862C13.7751 11.3463 13.7083 11.3256 13.6425 11.3289ZM6.67078 11.8974H8.05454L8.90948 14.436H7.52572L6.67078 11.8974Z" fill="white"/>
</svg>
