<svg width="16" height="16" viewBox="0 0 16 16" fill="none" xmlns="http://www.w3.org/2000/svg">
<path fill-rule="evenodd" clip-rule="evenodd" d="M0.87252 0.949458C1.10533 0.716647 1.4783 0.709414 1.71988 0.927673L1.74286 0.949458L15.1275 14.3341C15.3678 14.5745 15.3678 14.9641 15.1275 15.2044C14.8871 15.4447 14.4974 15.4447 14.2571 15.2044L13.1633 14.1106C12.5339 14.6424 11.8252 15.0747 11.0614 15.391C10.0908 15.793 9.05057 16 7.99999 16C6.94942 16 5.90915 15.793 4.93855 15.391C3.96795 14.989 3.08601 14.3997 2.34315 13.6569C1.60028 12.914 1.01103 12.0321 0.608999 11.0615C0.206966 10.0909 0 9.05058 0 8.00001C2.1559e-06 6.94944 0.206965 5.90916 0.608999 4.93856C0.925341 4.17485 1.35763 3.46607 1.88942 2.8367L0.87252 1.8198L0.850811 1.79681C0.632526 1.55524 0.639701 1.18228 0.87252 0.949458ZM2.76329 3.71057C2.34353 4.22305 2.00045 4.79532 1.74602 5.40956C1.40584 6.23083 1.23077 7.11108 1.23077 8.00001C1.23077 8.88894 1.40584 9.76918 1.74602 10.5905C2.0862 11.4117 2.58484 12.158 3.21341 12.7866C3.84199 13.4152 4.58827 13.9138 5.40955 14.254C6.23082 14.5942 7.11106 14.7692 7.99999 14.7692C8.88893 14.7692 9.76916 14.5942 10.5904 14.254C11.2047 13.9996 11.777 13.6565 12.2894 13.2367L2.76329 3.71057Z" fill="currentColor"/>
<path d="M4 1.07183C5.52513 0.191296 7.29823 -0.161416 9.04424 0.0684492C10.7902 0.298321 12.4116 1.09791 13.6568 2.34316C14.9021 3.58842 15.7017 5.20978 15.9316 6.95576C16.1614 8.70176 15.8087 10.4749 14.9282 12C14.7582 12.2943 14.3819 12.3951 14.0876 12.2252C13.7933 12.0553 13.6924 11.6789 13.8623 11.3846C14.6074 10.0941 14.9058 8.59383 14.7113 7.11644C14.5168 5.63906 13.8403 4.26711 12.7866 3.21343C11.7329 2.15975 10.3609 1.4832 8.88356 1.2887C7.40617 1.0942 5.90588 1.39264 4.61538 2.13771C4.32105 2.30763 3.94472 2.20675 3.77479 1.91242C3.60486 1.61809 3.70567 1.24176 4 1.07183Z" fill="currentColor"/>
</svg>
