<svg width="14" height="14" viewBox="0 0 14 14" fill="none" xmlns="http://www.w3.org/2000/svg">
<path id="Vector" d="M12.4897 14L10.9455 12.4558C10.3911 12.8178 9.8 13.0949 9.17212 13.2873C8.54424 13.4796 7.89091 13.5758 7.21212 13.5758C6.27313 13.5758 5.39071 13.3976 4.56485 13.0412C3.73899 12.6848 3.02061 12.2012 2.4097 11.5903C1.79879 10.9794 1.31515 10.261 0.958788 9.43515C0.602424 8.60929 0.424242 7.72687 0.424242 6.78788C0.424242 6.10909 0.520404 5.45576 0.712727 4.82788C0.905051 4.2 1.18222 3.60889 1.54424 3.05455L0 1.5103L0.967273 0.54303L13.457 13.0327L12.4897 14ZM7.21212 12.2182C7.69859 12.2182 8.17091 12.156 8.62909 12.0315C9.08727 11.9071 9.53131 11.7204 9.96121 11.4715L2.52848 4.03879C2.2796 4.46869 2.09293 4.91273 1.96848 5.37091C1.84404 5.82909 1.78182 6.30141 1.78182 6.78788C1.78182 8.29253 2.31071 9.57374 3.36848 10.6315C4.42626 11.6893 5.70748 12.2182 7.21212 12.2182ZM12.88 10.5212L11.8958 9.53697C12.1446 9.10707 12.3313 8.66303 12.4558 8.20485C12.5802 7.74667 12.6424 7.27434 12.6424 6.78788C12.6424 5.28323 12.1135 4.00202 11.0558 2.94424C9.99798 1.88646 8.71677 1.35758 7.21212 1.35758C6.72566 1.35758 6.25333 1.4198 5.79515 1.54424C5.33697 1.66869 4.89293 1.85535 4.46303 2.10424L3.47879 1.12C4.03313 0.75798 4.62424 0.480808 5.25212 0.288485C5.88 0.0961616 6.53333 0 7.21212 0C8.15111 0 9.03354 0.178182 9.85939 0.534545C10.6853 0.890909 11.4036 1.37455 12.0145 1.98545C12.6255 2.59636 13.1091 3.31475 13.4655 4.14061C13.8218 4.96646 14 5.84889 14 6.78788C14 7.46667 13.9038 8.12 13.7115 8.74788C13.5192 9.37576 13.242 9.96687 12.88 10.5212Z" fill="#8088A3"/>
</svg>
