<svg width="1080" height="1080" viewBox="0 0 1080 1080" fill="none" xmlns="http://www.w3.org/2000/svg">
<rect width="1080" height="1080" fill="#181937"/>
<path d="M412.745 648.099H370.081V691.281H412.745V648.099Z" fill="#C6D300"/>
<path d="M370.081 432.183V389H327.416V432.183V475.367V518.549V561.732V604.916V648.099H370.081V604.916V561.732V518.549H412.746V475.367H370.081V432.183Z" fill="#59C1D5"/>
<path d="M243.706 432.183V475.367V518.549V561.732V604.916V648.099V691.281H286.369V648.099V604.916V561.732V518.549V475.367V432.183V389H243.706V432.183Z" fill="#59C1D5"/>
<path d="M159.993 432.183V475.367H117.33H74.6649V518.549H117.33H159.993V561.732V604.916V648.099H117.33H74.6649V691.281H117.33H159.993H202.658V648.099V604.916V561.732V518.549V475.367V432.183V389H159.993V432.183Z" fill="#59C1D5"/>
<path d="M74.6649 561.732V518.549H32V561.732V604.916V648.099H74.6649V604.916V561.732Z" fill="#59C1D5"/>
<path d="M581.786 518.549H496.457V389H453.792V691.281H496.457V561.732H581.786V691.281H624.454V389H581.786V518.549Z" fill="#C6D300"/>
<path d="M708.167 475.367H665.494V648.099H708.167V475.367Z" fill="#C6D300"/>
<path d="M793.49 648.099H708.167V691.281H836.151V475.367H793.49V648.099Z" fill="#C6D300"/>
<path d="M919.864 518.549H1005.2V475.367H919.864V389H877.203V691.281H1005.2V648.099H919.864V518.549Z" fill="#C6D300"/>
<path d="M1047.86 518.549H1005.2V648.099H1047.86V518.549Z" fill="#C6D300"/>
</svg>
