<svg width="15" height="16" viewBox="0 0 15 16" fill="none" xmlns="http://www.w3.org/2000/svg">
<path d="M2.95872 12.284C2.99443 12.284 3.03015 12.2805 3.06586 12.2751L6.06943 11.7483C6.10515 11.7412 6.13908 11.7251 6.16408 11.6983L13.7337 4.12868C13.7503 4.11216 13.7634 4.09254 13.7724 4.07094C13.7813 4.04934 13.7859 4.02618 13.7859 4.00279C13.7859 3.9794 13.7813 3.95625 13.7724 3.93464C13.7634 3.91304 13.7503 3.89342 13.7337 3.8769L10.7659 0.907254C10.7319 0.873326 10.6873 0.855469 10.6391 0.855469C10.5909 0.855469 10.5462 0.873326 10.5123 0.907254L2.94265 8.4769C2.91586 8.50368 2.89979 8.53583 2.89265 8.57154L2.36586 11.5751C2.34849 11.6708 2.3547 11.7692 2.38395 11.862C2.41319 11.9547 2.4646 12.0389 2.53372 12.1073C2.65158 12.2215 2.79979 12.284 2.95872 12.284ZM4.16229 9.16975L10.6391 2.69475L11.948 4.00368L5.47122 10.4787L3.88372 10.759L4.16229 9.16975ZM14.0712 13.784H0.928362C0.612291 13.784 0.356934 14.0394 0.356934 14.3555V14.9983C0.356934 15.0769 0.421219 15.1412 0.499791 15.1412H14.4998C14.5784 15.1412 14.6426 15.0769 14.6426 14.9983V14.3555C14.6426 14.0394 14.3873 13.784 14.0712 13.784Z" fill="black" fill-opacity="0.85"/>
</svg>
