<svg width="135" height="101" viewBox="0 0 135 101" fill="none" xmlns="http://www.w3.org/2000/svg">
<path d="M95.1326 45.3152C95.1326 40.7351 97.9903 36.954 101.535 36.9512H133.62V88.708C133.62 94.7663 129.825 99.7317 125.139 99.7317H9.85143C5.16518 99.7317 1.37018 94.7634 1.37018 88.708V36.9512H33.4552C37.0001 36.9512 39.8578 40.7266 39.8578 45.3067V45.3695C39.8578 49.9496 42.7472 53.6479 46.2892 53.6479H88.7012C92.2432 53.6479 95.1326 49.9153 95.1326 45.3352V45.3152V45.3152Z" fill="black" fill-opacity="0.04" stroke="black" stroke-opacity="0.15"/>
<path d="M133.62 37.2662L104.45 4.44342C103.05 2.20615 101.006 0.853516 98.8528 0.853516H36.1376C33.9842 0.853516 31.9401 2.20615 30.5399 4.44056L1.37018 37.2691" stroke="black" stroke-opacity="0.15"/>
</svg>
