<svg xmlns="http://www.w3.org/2000/svg" width="120" height="121" viewBox="0 0 120 121" fill="none">
  <g clip-path="url(#clip0_8161_29196)">
    <g filter="url(#filter0_d_8161_29196)">
      <path d="M30.0563 69.7815C30.069 70.0355 30.0299 70.2894 29.9414 70.5278C29.8529 70.7663 29.7168 70.9842 29.5414 71.1683C29.366 71.3525 29.155 71.4991 28.9212 71.5991C28.6873 71.6991 28.4356 71.7505 28.1813 71.7502H7.50005C6.65366 71.7515 5.83172 71.4664 5.1679 70.9413C4.50407 70.4162 4.03741 69.682 3.8438 68.858C3.72324 68.2941 3.7288 67.7104 3.86008 67.1489C3.99135 66.5873 4.2451 66.0617 4.60318 65.6096C7.91165 61.222 12.3014 57.7674 17.3438 55.583C15.13 53.5646 13.4321 51.0451 12.3923 48.2356C11.3525 45.426 11.001 42.4082 11.3673 39.4348C11.7336 36.4615 12.8071 33.6192 14.4977 31.1461C16.1884 28.6729 18.4471 26.6409 21.0846 25.2201C23.7221 23.7994 26.6616 23.0313 29.657 22.9803C32.6523 22.9292 35.6163 23.5966 38.3007 24.9266C40.9851 26.2566 43.3118 28.2105 45.0858 30.6246C46.8597 33.0387 48.0295 35.8427 48.4969 38.8018C48.5573 39.1997 48.486 39.6065 48.2939 39.9602C48.1019 40.3139 47.7995 40.5951 47.4329 40.7612C42.2316 43.1657 37.8266 47.0079 34.7377 51.8343C31.6489 56.6608 30.005 62.27 30 68.0002C30 68.6002 30.0001 69.1909 30.0563 69.7815ZM115.369 65.6049C112.068 61.2224 107.688 57.7696 102.656 55.583C104.87 53.5646 106.568 51.0451 107.608 48.2356C108.648 45.426 108.999 42.4082 108.633 39.4348C108.266 36.4615 107.193 33.6192 105.502 31.1461C103.812 28.6729 101.553 26.6409 98.9155 25.2201C96.278 23.7994 93.3385 23.0313 90.3431 22.9803C87.3478 22.9292 84.3838 23.5966 81.6994 24.9266C79.015 26.2566 76.6883 28.2105 74.9143 30.6246C73.1404 33.0387 71.9706 35.8427 71.5032 38.8018C71.4428 39.1997 71.5141 39.6065 71.7062 39.9602C71.8982 40.3139 72.2006 40.5951 72.5672 40.7612C77.7685 43.1657 82.1735 47.0079 85.2624 51.8343C88.3512 56.6608 89.9951 62.27 90 68.0002C90 68.6002 90 69.1909 89.9438 69.7815C89.9311 70.0355 89.9702 70.2894 90.0587 70.5278C90.1472 70.7663 90.2833 70.9842 90.4587 71.1683C90.6341 71.3525 90.8451 71.4991 91.0789 71.5991C91.3128 71.6991 91.5645 71.7505 91.8188 71.7502H112.5C113.346 71.7515 114.168 71.4664 114.832 70.9413C115.496 70.4162 115.963 69.682 116.156 68.858C116.278 68.293 116.272 67.7082 116.14 67.1456C116.008 66.583 115.752 66.0568 115.392 65.6049H115.369ZM73.65 85.8455C77.3839 82.986 80.1278 79.0283 81.4962 74.5288C82.8645 70.0292 82.7885 65.214 81.2789 60.7599C79.7692 56.3057 76.9018 52.4366 73.0796 49.6963C69.2574 46.956 64.6726 45.4823 59.9696 45.4823C55.2666 45.4823 50.6818 46.956 46.8596 49.6963C43.0374 52.4366 40.1699 56.3057 38.6603 60.7599C37.1506 65.214 37.0746 70.0292 38.443 74.5288C39.8114 79.0283 42.5553 82.986 46.2891 85.8455C39.6635 88.7163 34.131 93.6328 30.5016 99.8752C30.1724 100.445 29.9992 101.092 29.9992 101.75C29.9992 102.409 30.1726 103.055 30.5018 103.626C30.8311 104.196 31.3046 104.669 31.8748 104.998C32.4449 105.327 33.0917 105.5 33.75 105.5H86.25C86.9084 105.5 87.5551 105.327 88.1253 104.998C88.6955 104.669 89.169 104.196 89.4983 103.626C89.8275 103.055 90.0009 102.409 90.0009 101.75C90.0009 101.092 89.8276 100.445 89.4985 99.8752C85.8613 93.6287 80.3185 88.7118 73.6829 85.8455H73.65Z" fill="url(#paint0_linear_8161_29196)" shape-rendering="crispEdges"/>
      <path d="M59.9692 47.3574C64.2802 47.3574 68.4832 48.708 71.9868 51.2197C75.4904 53.7316 78.1195 57.2785 79.5034 61.3613C80.8873 65.4443 80.957 69.8588 79.7026 73.9834C78.4483 78.108 75.9329 81.7362 72.5103 84.3574L68.1177 87.7207H73.2866C79.3978 90.4471 84.5027 95.0241 87.8745 100.812V100.812C88.039 101.097 88.1255 101.421 88.1255 101.75C88.1255 102.079 88.039 102.403 87.8745 102.688C87.7099 102.973 87.4731 103.209 87.188 103.374C86.9029 103.539 86.5796 103.625 86.2505 103.625H33.7495C33.4204 103.625 33.0971 103.539 32.812 103.374C32.5269 103.209 32.2901 102.973 32.1255 102.688C31.961 102.403 31.8745 102.079 31.8745 101.75C31.8745 101.421 31.961 101.097 32.1255 100.812L32.1245 100.812C35.5527 94.9179 40.7784 90.2771 47.0347 87.5664L49.9624 86.2969L47.4292 84.3574C44.0066 81.7362 41.4912 78.1079 40.2368 73.9834C38.9825 69.8588 39.0522 65.4443 40.436 61.3613C41.8199 57.2785 44.4481 53.7316 47.9517 51.2197C51.4552 48.7079 55.6583 47.3575 59.9692 47.3574ZM29.689 24.8555C32.3847 24.8095 35.0524 25.4095 37.4683 26.6064C39.8841 27.8034 41.9781 29.5619 43.5747 31.7344C45.1649 33.8984 46.2151 36.4111 46.6392 39.0625C41.1163 41.6173 36.439 45.6979 33.1587 50.8232C29.877 55.9509 28.1307 61.9111 28.1255 67.999V68C28.1255 68.5614 28.1258 69.2102 28.1841 69.875H7.49756C7.07445 69.8756 6.66341 69.7331 6.33154 69.4707C6.00401 69.2116 5.77241 68.8507 5.67334 68.4453C5.61502 68.158 5.61925 67.8609 5.68604 67.5752C5.75446 67.2828 5.88632 67.0088 6.07275 66.7734L6.1001 66.7383C9.21335 62.6096 13.3445 59.3591 18.0894 57.3037L20.7495 56.1514L18.6069 54.1973C16.6147 52.3808 15.0867 50.1134 14.1509 47.585C13.215 45.0564 12.8983 42.3401 13.228 39.6641C13.5577 36.9881 14.5238 34.4299 16.0454 32.2041C17.567 29.9783 19.6004 28.1498 21.9741 26.8711C24.3478 25.5925 26.9932 24.9014 29.689 24.8555ZM91.8755 67.999C91.8703 61.9111 90.123 55.9509 86.8413 50.8232C83.5608 45.6976 78.8831 41.6173 73.3599 39.0625C73.7839 36.411 74.8351 33.8984 76.4253 31.7344C78.0219 29.5618 80.1159 27.8034 82.5317 26.6064C84.9476 25.4095 87.6153 24.8095 90.311 24.8555C93.0068 24.9014 95.6522 25.5925 98.0259 26.8711C100.4 28.1498 102.433 29.9783 103.955 32.2041C105.476 34.4299 106.442 36.9881 106.772 39.6641C107.102 42.3401 106.785 45.0564 105.849 47.585C104.913 50.1134 103.385 52.3808 101.393 54.1973L99.2534 56.1484L101.909 57.3027C106.644 59.3603 110.765 62.6096 113.871 66.7334L114.102 67.04C114.197 67.2073 114.271 67.386 114.315 67.5742C114.382 67.8608 114.384 68.1581 114.325 68.4463C114.225 68.8509 113.996 69.2119 113.669 69.4707C113.338 69.7332 112.926 69.8756 112.502 69.875H91.8169L91.8159 69.874C91.8741 69.2095 91.8755 68.5611 91.8755 68V67.999Z" stroke="url(#paint1_linear_8161_29196)" stroke-width="3.75" shape-rendering="crispEdges"/>
    </g>
  </g>
  <defs>
    <filter id="filter0_d_8161_29196" x="-0.296731" y="18.9235" width="120.594" height="90.6306" filterUnits="userSpaceOnUse" color-interpolation-filters="sRGB">
      <feFlood flood-opacity="0" result="BackgroundImageFix"/>
      <feColorMatrix in="SourceAlpha" type="matrix" values="0 0 0 0 0 0 0 0 0 0 0 0 0 0 0 0 0 0 127 0" result="hardAlpha"/>
      <feOffset/>
      <feGaussianBlur stdDeviation="2.02703"/>
      <feComposite in2="hardAlpha" operator="out"/>
      <feColorMatrix type="matrix" values="0 0 0 0 0 0 0 0 0 0 0 0 0 0 0 0 0 0 0.25 0"/>
      <feBlend mode="normal" in2="BackgroundImageFix" result="effect1_dropShadow_8161_29196"/>
      <feBlend mode="normal" in="SourceGraphic" in2="effect1_dropShadow_8161_29196" result="shape"/>
    </filter>
    <linearGradient id="paint0_linear_8161_29196" x1="60.0003" y1="22.9775" x2="60.0003" y2="93.0376" gradientUnits="userSpaceOnUse">
      <stop stop-color="white"/>
      <stop offset="1" stop-color="white" stop-opacity="0.5"/>
    </linearGradient>
    <linearGradient id="paint1_linear_8161_29196" x1="116.243" y1="22.9775" x2="53.364" y2="123.934" gradientUnits="userSpaceOnUse">
      <stop stop-color="#F6FBFF" stop-opacity="0.5"/>
      <stop offset="0.333333" stop-color="white" stop-opacity="0"/>
      <stop offset="0.666667" stop-color="#F9FCFF" stop-opacity="0"/>
      <stop offset="1" stop-color="white" stop-opacity="0.7"/>
    </linearGradient>
    <clipPath id="clip0_8161_29196">
      <rect width="120" height="120" fill="white" transform="translate(0 0.5)"/>
    </clipPath>
  </defs>
</svg>