<svg width="12" height="12" viewBox="0 0 12 12" fill="none" xmlns="http://www.w3.org/2000/svg">
<path d="M5.60075 5.95262L3.57977 4.35352C3.53959 4.32137 3.482 4.35084 3.482 4.40173V5.54548H1.607V1.60798H4.33915V3.32227C4.33915 3.35173 4.36325 3.37584 4.39272 3.37584H5.19629C5.22575 3.37584 5.24986 3.35173 5.24986 3.32227V1.07227C5.24986 0.864676 5.08245 0.697266 4.87486 0.697266H1.07129C0.8637 0.697266 0.696289 0.864676 0.696289 1.07227V10.9294C0.696289 11.137 0.8637 11.3044 1.07129 11.3044H4.87486C5.08245 11.3044 5.24986 11.137 5.24986 10.9294V8.67941C5.24986 8.64994 5.22575 8.62584 5.19629 8.62584H4.39272C4.36325 8.62584 4.33915 8.64994 4.33915 8.67941V10.3937H1.607V6.45619H3.482V7.59995C3.482 7.65084 3.54093 7.6803 3.57977 7.64816L5.60075 6.04905C5.60824 6.04344 5.61431 6.03616 5.6185 6.02779C5.62268 6.01942 5.62486 6.01019 5.62486 6.00084C5.62486 5.99148 5.62268 5.98225 5.6185 5.97389C5.61431 5.96552 5.60824 5.95824 5.60075 5.95262ZM10.9284 0.697266H7.12486C6.91727 0.697266 6.74986 0.864676 6.74986 1.07227V3.32227C6.74986 3.35173 6.77397 3.37584 6.80343 3.37584H7.607C7.63647 3.37584 7.66058 3.35173 7.66058 3.32227V1.60798H10.3927V5.54548H8.51772V4.40173C8.51772 4.35084 8.46013 4.32137 8.41995 4.35352L6.39763 5.95262C6.39044 5.95829 6.38463 5.96551 6.38063 5.97375C6.37664 5.98198 6.37456 5.99101 6.37456 6.00017C6.37456 6.00932 6.37664 6.01835 6.38063 6.02659C6.38463 6.03482 6.39044 6.04205 6.39763 6.04771L8.41995 7.64816C8.45879 7.67896 8.51772 7.65084 8.51772 7.59995V6.45619H10.3927V10.3937H7.66058V8.67941C7.66058 8.64994 7.63647 8.62584 7.607 8.62584H6.80343C6.77397 8.62584 6.74986 8.64994 6.74986 8.67941V10.9294C6.74986 11.137 6.91727 11.3044 7.12486 11.3044H10.9284C11.136 11.3044 11.3034 11.137 11.3034 10.9294V1.07227C11.3034 0.864676 11.136 0.697266 10.9284 0.697266Z" fill="#595959"/>
</svg>
