<svg width="14" height="14" viewBox="0 0 14 14" fill="none" xmlns="http://www.w3.org/2000/svg">
<path fill-rule="evenodd" clip-rule="evenodd" d="M2.2 1.6H4.33506V12.4H2.2C1.86863 12.4 1.6 12.1314 1.6 11.8V2.2C1.6 1.86863 1.86863 1.6 2.2 1.6ZM4.93506 1.6V12.4H11.8C12.1314 12.4 12.4 12.1314 12.4 11.8V2.2C12.4 1.86863 12.1314 1.6 11.8 1.6H4.93506ZM11.8 1H2.2C1.53726 1 1 1.53726 1 2.2V11.8C1 12.4627 1.53726 13 2.2 13H11.8C12.4627 13 13 12.4627 13 11.8V2.2C13 1.53726 12.4627 1 11.8 1ZM7.22689 9.09595C7.35224 9.23139 7.56365 9.23957 7.69909 9.11422L9.65812 7.30119C9.70089 7.26161 9.70089 7.19399 9.65812 7.15441L7.69909 5.34137C7.56365 5.21602 7.35224 5.22421 7.22689 5.35965C7.10154 5.49509 7.10972 5.7065 7.24517 5.83185L8.67422 7.15441C8.71699 7.19399 8.71699 7.26161 8.67422 7.30119L7.24517 8.62375C7.10972 8.74909 7.10154 8.96051 7.22689 9.09595Z"/>
<path d="M4.33506 1.6H4.58506V1.35H4.33506V1.6ZM4.33506 12.4V12.65H4.58506V12.4H4.33506ZM4.93506 12.4H4.68506V12.65H4.93506V12.4ZM4.93506 1.6V1.35H4.68506V1.6H4.93506ZM7.69909 9.11422L7.8689 9.2977L7.69909 9.11422ZM7.22689 9.09595L7.41037 8.92614V8.92614L7.22689 9.09595ZM9.65812 7.30119L9.48832 7.11771L9.48832 7.11771L9.65812 7.30119ZM9.65812 7.15441L9.48832 7.33789L9.48832 7.33789L9.65812 7.15441ZM7.69909 5.34137L7.8689 5.15789H7.8689L7.69909 5.34137ZM7.22689 5.35965L7.41037 5.52946L7.41037 5.52946L7.22689 5.35965ZM7.24517 5.83185L7.41497 5.64837L7.41497 5.64837L7.24517 5.83185ZM8.67422 7.15441L8.84403 6.97092L8.84403 6.97092L8.67422 7.15441ZM8.67422 7.30119L8.84403 7.48467L8.84403 7.48467L8.67422 7.30119ZM7.24517 8.62375L7.07536 8.44026V8.44026L7.24517 8.62375ZM4.33506 1.35H2.2V1.85H4.33506V1.35ZM4.58506 12.4V1.6H4.08506V12.4H4.58506ZM2.2 12.65H4.33506V12.15H2.2V12.65ZM1.35 11.8C1.35 12.2694 1.73056 12.65 2.2 12.65V12.15C2.0067 12.15 1.85 11.9933 1.85 11.8H1.35ZM1.35 2.2V11.8H1.85V2.2H1.35ZM2.2 1.35C1.73056 1.35 1.35 1.73056 1.35 2.2H1.85C1.85 2.0067 2.0067 1.85 2.2 1.85V1.35ZM5.18506 12.4V1.6H4.68506V12.4H5.18506ZM11.8 12.15H4.93506V12.65H11.8V12.15ZM12.15 11.8C12.15 11.9933 11.9933 12.15 11.8 12.15V12.65C12.2694 12.65 12.65 12.2694 12.65 11.8H12.15ZM12.15 2.2V11.8H12.65V2.2H12.15ZM11.8 1.85C11.9933 1.85 12.15 2.0067 12.15 2.2H12.65C12.65 1.73056 12.2694 1.35 11.8 1.35V1.85ZM4.93506 1.85H11.8V1.35H4.93506V1.85ZM2.2 1.25H11.8V0.75H2.2V1.25ZM1.25 2.2C1.25 1.67533 1.67533 1.25 2.2 1.25V0.75C1.39919 0.75 0.75 1.39919 0.75 2.2H1.25ZM1.25 11.8V2.2H0.75V11.8H1.25ZM2.2 12.75C1.67533 12.75 1.25 12.3247 1.25 11.8H0.75C0.75 12.6008 1.39919 13.25 2.2 13.25V12.75ZM11.8 12.75H2.2V13.25H11.8V12.75ZM12.75 11.8C12.75 12.3247 12.3247 12.75 11.8 12.75V13.25C12.6008 13.25 13.25 12.6008 13.25 11.8H12.75ZM12.75 2.2V11.8H13.25V2.2H12.75ZM11.8 1.25C12.3247 1.25 12.75 1.67533 12.75 2.2H13.25C13.25 1.39919 12.6008 0.75 11.8 0.75V1.25ZM7.52928 8.93074C7.49517 8.96231 7.44194 8.96025 7.41037 8.92614L7.04341 9.26575C7.26254 9.50253 7.63212 9.51683 7.8689 9.2977L7.52928 8.93074ZM9.48832 7.11771L7.52928 8.93074L7.8689 9.2977L9.82793 7.48467L9.48832 7.11771ZM9.48832 7.33789C9.42416 7.27851 9.42416 7.17708 9.48832 7.11771L9.82793 7.48467C9.97762 7.34614 9.97762 7.10946 9.82793 6.97092L9.48832 7.33789ZM7.52928 5.52485L9.48832 7.33789L9.82793 6.97092L7.8689 5.15789L7.52928 5.52485ZM7.41037 5.52946C7.44194 5.49535 7.49518 5.49329 7.52928 5.52485L7.8689 5.15789C7.63212 4.93876 7.26254 4.95306 7.04341 5.18984L7.41037 5.52946ZM7.41497 5.64837C7.38087 5.6168 7.3788 5.56356 7.41037 5.52946L7.04341 5.18984C6.82428 5.42662 6.83858 5.7962 7.07536 6.01533L7.41497 5.64837ZM8.84403 6.97092L7.41497 5.64837L7.07536 6.01533L8.50442 7.33789L8.84403 6.97092ZM8.84403 7.48467C8.99372 7.34613 8.99372 7.10946 8.84403 6.97092L8.50442 7.33789C8.44026 7.27851 8.44026 7.17708 8.50442 7.11771L8.84403 7.48467ZM7.41497 8.80723L8.84403 7.48467L8.50442 7.11771L7.07536 8.44026L7.41497 8.80723ZM7.41037 8.92614C7.3788 8.89203 7.38087 8.83879 7.41497 8.80723L7.07536 8.44026C6.83858 8.65939 6.82428 9.02898 7.04341 9.26575L7.41037 8.92614Z" />
</svg>
