<svg width="256" height="256" viewBox="0 0 256 256" fill="none" xmlns="http://www.w3.org/2000/svg">
<g clip-path="url(#clip0_1263_124590)">
<path fill-rule="evenodd" clip-rule="evenodd" d="M10.496 176.634L6.74669 190.356C5.34937 194.746 3.39205 201.194 2.33606 206.932C0.832069 210.9 0.0107422 215.204 0.0107422 219.7C0.0107422 238.239 14.016 253.502 32.0212 255.497C37.0878 256.228 42.8211 256.19 49.2477 255.246L78.7728 251.172C86.1967 250.148 92.2927 244.788 94.266 237.556L114.586 162.922L10.496 176.634Z" fill="url(#paint0_linear_1263_124590)"/>
<path d="M39.2942 180.17C8.17444 184.991 1.78516 208.474 1.78516 208.474L31.5876 98.9708L187.314 77.9043L166.077 155.04C164.973 159.173 161.501 162.341 157.197 162.997L156.328 163.141L38.4195 180.32L39.2942 180.17Z" fill="url(#paint1_linear_1263_124590)"/>
<path d="M39.2942 180.17C8.17444 184.991 1.78516 208.474 1.78516 208.474L31.5876 98.9708L187.314 77.9043L166.077 155.04C164.973 159.173 161.501 162.341 157.197 162.997L156.328 163.141L38.4195 180.32L39.2942 180.17Z" fill="url(#paint2_linear_1263_124590)" fill-opacity="0.8"/>
<path d="M56.9532 110.303L229.352 84.8367C233.453 84.2767 236.776 81.274 237.821 77.3434L255.613 12.9546C255.858 12.0799 255.986 11.1572 255.986 10.2079C255.986 4.57063 251.421 0 245.778 0C245.341 0 244.904 0.0266665 244.482 0.0799994L79.9824 24.3891C62.1158 27.2585 47.6893 40.437 43.0067 57.6262L19.2842 143.604C24.0468 126.212 26.9748 115.727 56.9532 110.303Z" fill="url(#paint3_linear_1263_124590)"/>
<path d="M56.9532 110.303L229.352 84.8367C233.453 84.2767 236.776 81.274 237.821 77.3434L255.613 12.9546C255.858 12.0799 255.986 11.1572 255.986 10.2079C255.986 4.57063 251.421 0 245.778 0C245.341 0 244.904 0.0266665 244.482 0.0799994L79.9824 24.3891C62.1158 27.2585 47.6893 40.437 43.0067 57.6262L19.2842 143.604C24.0468 126.212 26.9748 115.727 56.9532 110.303Z" fill="url(#paint4_linear_1263_124590)"/>
<path d="M56.9532 110.303L229.352 84.8367C233.453 84.2767 236.776 81.274 237.821 77.3434L255.613 12.9546C255.858 12.0799 255.986 11.1572 255.986 10.2079C255.986 4.57063 251.421 0 245.778 0C245.341 0 244.904 0.0266665 244.482 0.0799994L79.9824 24.3891C62.1158 27.2585 47.6893 40.437 43.0067 57.6262L19.2842 143.604C24.0468 126.212 26.9748 115.727 56.9532 110.303Z" fill="url(#paint5_linear_1263_124590)"/>
<path d="M56.9532 110.303L229.352 84.8367C233.453 84.2767 236.776 81.274 237.821 77.3434L255.613 12.9546C255.858 12.0799 255.986 11.1572 255.986 10.2079C255.986 4.57063 251.421 0 245.778 0C245.341 0 244.904 0.0266665 244.482 0.0799994L79.9824 24.3891C62.1158 27.2585 47.6893 40.437 43.0067 57.6262L19.2842 143.604C24.0468 126.212 26.9748 115.727 56.9532 110.303Z" fill="url(#paint6_linear_1263_124590)"/>
<path d="M56.9532 110.303L229.352 84.8367C233.453 84.2767 236.776 81.274 237.821 77.3434L255.613 12.9546C255.858 12.0799 255.986 11.1572 255.986 10.2079C255.986 4.57063 251.421 0 245.778 0C245.341 0 244.904 0.0266665 244.482 0.0799994L79.9824 24.3891C62.1158 27.2585 47.6893 40.437 43.0067 57.6262L19.2842 143.604C24.0468 126.212 26.9748 115.727 56.9532 110.303Z" fill="url(#paint7_linear_1263_124590)"/>
<path d="M56.9532 110.303L229.352 84.8367C233.453 84.2767 236.776 81.274 237.821 77.3434L255.613 12.9546C255.858 12.0799 255.986 11.1572 255.986 10.2079C255.986 4.57063 251.421 0 245.778 0C245.341 0 244.904 0.0266665 244.482 0.0799994L79.9824 24.3891C62.1158 27.2585 47.6893 40.437 43.0067 57.6262L19.2842 143.604C24.0468 126.212 26.9748 115.727 56.9532 110.303Z" fill="url(#paint8_linear_1263_124590)"/>
<path d="M56.9532 110.303L229.352 84.8367C233.453 84.2767 236.776 81.274 237.821 77.3434L255.613 12.9546C255.858 12.0799 255.986 11.1572 255.986 10.2079C255.986 4.57063 251.421 0 245.778 0C245.341 0 244.904 0.0266665 244.482 0.0799994L79.9824 24.3891C62.1158 27.2585 47.6893 40.437 43.0067 57.6262L19.2842 143.604C24.0468 126.212 26.9748 115.727 56.9532 110.303Z" fill="url(#paint9_linear_1263_124590)" fill-opacity="0.4"/>
<path d="M56.9527 110.309C31.9876 114.827 25.7903 122.869 21.6623 135.472L1.78516 208.49C1.78516 208.49 8.13711 185.242 38.8782 180.271L156.333 163.162L157.203 163.018C161.507 162.362 164.979 159.189 166.083 155.061L183.554 91.6055L56.9581 110.309H56.9527Z" fill="url(#paint10_linear_1263_124590)"/>
<path d="M56.9527 110.309C31.9876 114.827 25.7903 122.869 21.6623 135.472L1.78516 208.49C1.78516 208.49 8.13711 185.242 38.8782 180.271L156.333 163.162L157.203 163.018C161.507 162.362 164.979 159.189 166.083 155.061L183.554 91.6055L56.9581 110.309H56.9527Z" fill="url(#paint11_linear_1263_124590)" fill-opacity="0.2"/>
<path fill-rule="evenodd" clip-rule="evenodd" d="M38.8798 180.272C12.9013 184.475 4.36804 201.68 2.33606 206.923C0.832069 210.901 0.0107422 215.205 0.0107422 219.701C0.0107422 238.24 14.016 253.504 32.0212 255.498C37.0878 256.229 42.8211 256.192 49.2477 255.248L78.7728 251.173C86.1967 250.149 92.2927 244.789 94.266 237.557L112.789 169.51L38.8851 180.278L38.8798 180.272Z" fill="url(#paint12_linear_1263_124590)"/>
</g>
<defs>
<linearGradient id="paint0_linear_1263_124590" x1="57.2956" y1="256.004" x2="57.2956" y2="162.922" gradientUnits="userSpaceOnUse">
<stop offset="0.056" stop-color="#2AAC94"/>
<stop offset="0.155" stop-color="#239C87"/>
<stop offset="0.372" stop-color="#177E71"/>
<stop offset="0.588" stop-color="#0E6961"/>
<stop offset="0.799" stop-color="#095D57"/>
<stop offset="1" stop-color="#085954"/>
</linearGradient>
<linearGradient id="paint1_linear_1263_124590" x1="174.916" y1="188.465" x2="85.0325" y2="90.7042" gradientUnits="userSpaceOnUse">
<stop offset="0.0417478" stop-color="#ABE88E"/>
<stop offset="0.548926" stop-color="#2AAA92"/>
<stop offset="0.906" stop-color="#117865"/>
</linearGradient>
<linearGradient id="paint2_linear_1263_124590" x1="-45.966" y1="183.712" x2="39.5711" y2="154.542" gradientUnits="userSpaceOnUse">
<stop stop-color="#6AD6F9"/>
<stop offset="1" stop-color="#6AD6F9" stop-opacity="0"/>
</linearGradient>
<linearGradient id="paint3_linear_1263_124590" x1="19.2842" y1="71.8021" x2="246.968" y2="71.8021" gradientUnits="userSpaceOnUse">
<stop offset="0.043" stop-color="#25FFD4"/>
<stop offset="0.874" stop-color="#55DDB9"/>
</linearGradient>
<linearGradient id="paint4_linear_1263_124590" x1="106.921" y1="9.90926" x2="155.747" y2="114.612" gradientUnits="userSpaceOnUse">
<stop stop-color="#F4E084" stop-opacity="0.6"/>
<stop offset="0.534" stop-color="#F4E084" stop-opacity="0"/>
</linearGradient>
<linearGradient id="paint5_linear_1263_124590" x1="188.162" y1="-55.2641" x2="253.98" y2="45.835" gradientUnits="userSpaceOnUse">
<stop stop-color="#ABF5E2"/>
<stop offset="1" stop-color="#4EE6BD"/>
</linearGradient>
<linearGradient id="paint6_linear_1263_124590" x1="137.635" y1="0" x2="137.635" y2="143.604" gradientUnits="userSpaceOnUse">
<stop stop-color="#1F937E"/>
<stop offset="1" stop-color="#9EE09F"/>
</linearGradient>
<linearGradient id="paint7_linear_1263_124590" x1="137.635" y1="0" x2="137.635" y2="143.604" gradientUnits="userSpaceOnUse">
<stop stop-color="#1F937E"/>
<stop offset="1" stop-color="#C0ECC7"/>
</linearGradient>
<linearGradient id="paint8_linear_1263_124590" x1="19.2842" y1="39.9783" x2="224.382" y2="135.216" gradientUnits="userSpaceOnUse">
<stop stop-color="#6AD6F9"/>
<stop offset="0.229501" stop-color="#60E9D0"/>
<stop offset="0.650711" stop-color="#6DE9BB"/>
<stop offset="0.99354" stop-color="#ABE88E"/>
</linearGradient>
<linearGradient id="paint9_linear_1263_124590" x1="38.258" y1="57.8" x2="149.781" y2="82.466" gradientUnits="userSpaceOnUse">
<stop stop-color="white" stop-opacity="0"/>
<stop offset="0.458511" stop-color="white"/>
<stop offset="1" stop-color="white" stop-opacity="0"/>
</linearGradient>
<linearGradient id="paint10_linear_1263_124590" x1="75.237" y1="153.341" x2="77.8722" y2="75.1328" gradientUnits="userSpaceOnUse">
<stop offset="0.204642" stop-color="#063D3B" stop-opacity="0"/>
<stop offset="0.58553" stop-color="#063D3B" stop-opacity="0.236587"/>
<stop offset="0.872285" stop-color="#063D3B" stop-opacity="0.75"/>
</linearGradient>
<linearGradient id="paint11_linear_1263_124590" x1="-7.61797" y1="145.563" x2="87.6861" y2="163.487" gradientUnits="userSpaceOnUse">
<stop stop-color="white" stop-opacity="0"/>
<stop offset="0.458511" stop-color="white"/>
<stop offset="1" stop-color="white" stop-opacity="0"/>
</linearGradient>
<linearGradient id="paint12_linear_1263_124590" x1="61.2263" y1="230.213" x2="42.6359" y2="139.292" gradientUnits="userSpaceOnUse">
<stop offset="0.064" stop-color="#063D3B" stop-opacity="0"/>
<stop offset="0.17" stop-color="#063D3B" stop-opacity="0.135"/>
<stop offset="0.562" stop-color="#063D3B" stop-opacity="0.599"/>
<stop offset="0.85" stop-color="#063D3B" stop-opacity="0.9"/>
<stop offset="1" stop-color="#063D3B"/>
</linearGradient>
<clipPath id="clip0_1263_124590">
<rect width="255.998" height="255.998" fill="white"/>
</clipPath>
</defs>
</svg>
