<!--
  ~ SPDX-License-Identifier: Apache-2.0
  ~
  ~ This file is unmodified from its original version developed by Acryl Data, Inc.,
  ~ and is now included as part of a repository maintained by the National Digital Twin Programme.
  ~ All support, maintenance and further development of this code is now the responsibility
  ~ of the National Digital Twin Programme.
-->

<svg xmlns="http://www.w3.org/2000/svg" viewBox="0 0 24 24">
    <path d="M14.17 5 19 9.83V19H5V5h9.17m0-2H5c-1.1 0-2 .9-2 2v14c0 1.1.9 2 2 2h14c1.1 0 2-.9 2-2V9.83c0-.53-.21-1.04-.59-1.41l-4.83-4.83c-.37-.38-.88-.59-1.41-.59zM7 15h10v2H7v-2zm0-4h10v2H7v-2zm0-4h7v2H7V7z"></path>
</svg>
