<svg width="16" height="17" viewBox="0 0 16 17" fill="none" xmlns="http://www.w3.org/2000/svg">
<g id="folder_open">
<mask id="mask0_5136_53726" style="mask-type:alpha" maskUnits="userSpaceOnUse" x="0" y="0" width="16" height="17">
<rect id="Bounding box" x="0.107178" y="0.927734" width="15.427" height="15.427" fill="#D9D9D9"/>
</mask>
<g mask="url(#mask0_5136_53726)">
<path id="folder_open_2" d="M2.99959 13.1407C2.72846 13.1407 2.49998 13.0478 2.31415 12.8619C2.12832 12.6761 2.0354 12.4476 2.0354 12.1765V5.17995C2.0354 4.90882 2.14068 4.66798 2.35124 4.45744C2.56178 4.24688 2.80262 4.1416 3.07375 4.1416H5.84394C5.98239 4.1416 6.11692 4.16962 6.24753 4.22566C6.37816 4.28169 6.49003 4.35627 6.58315 4.4494L7.56093 5.42719H13.173C13.2645 5.42719 13.3409 5.45788 13.4023 5.51928C13.4637 5.58067 13.4944 5.6571 13.4944 5.74858C13.4944 5.84005 13.4637 5.91648 13.4023 5.97788C13.3409 6.03928 13.2645 6.06998 13.173 6.06998H7.30258L6.017 4.78439H3.07375C2.95838 4.78439 2.86361 4.82148 2.78944 4.89564C2.71528 4.96981 2.67819 5.06458 2.67819 5.17995V12.4979C2.67819 12.3825 2.70086 12.3393 2.74618 12.3681C2.7915 12.3969 2.85125 12.432 2.92543 12.4732L4.15785 8.3457C4.22707 8.12485 4.35419 7.94581 4.5392 7.8086C4.72421 7.6714 4.93126 7.60279 5.16036 7.60279H13.4029C13.7515 7.60279 14.0311 7.74186 14.2416 8.01998C14.4522 8.29812 14.5068 8.60365 14.4054 8.93659L13.3473 12.4596C13.2863 12.664 13.1695 12.8286 12.9968 12.9534C12.8242 13.0783 12.6316 13.1407 12.419 13.1407H2.99959ZM3.59541 12.4979H12.3695C12.4602 12.4979 12.5405 12.4732 12.6106 12.4237C12.6806 12.3743 12.728 12.3042 12.7527 12.2136L13.7861 8.7524C13.8273 8.62054 13.8067 8.5031 13.7243 8.4001C13.6419 8.29709 13.5348 8.24559 13.4029 8.24559H5.16036C5.06971 8.24559 4.98936 8.27031 4.91932 8.31975C4.84926 8.36919 4.80188 8.43924 4.77716 8.52989L3.59541 12.4979ZM3.59541 12.4979L4.77716 8.52989C4.80188 8.43924 4.82248 8.36919 4.83897 8.31975L4.86368 8.24559L4.82042 8.4001C4.79158 8.5031 4.75656 8.62054 4.71534 8.7524L3.68194 12.2136C3.65722 12.3042 3.63662 12.3743 3.62014 12.4237L3.59541 12.4979Z" fill="#5C3FD1"/>
</g>
</g>
</svg>
