<svg width="65" height="65" viewBox="0 0 45 45" fill="none" xmlns="http://www.w3.org/2000/svg">
<g clip-path="url(#clip0)">
<path d="M21.9231 3.75C31.9967 3.75 40.1923 12.1613 40.1923 22.5C40.1923 32.8387 31.9967 41.25 21.9231 41.25C11.8494 41.25 3.65385 32.8387 3.65385 22.5C3.65385 12.1613 11.8494 3.75 21.9231 3.75ZM21.9231 0C9.81606 0 0 10.0744 0 22.5C0 34.9256 9.81606 45 21.9231 45C34.0301 45 43.8462 34.9256 43.8462 22.5C43.8462 10.0744 34.0301 0 21.9231 0ZM21.9249 26.25C17.6645 26.25 14.3523 29.3175 12.6204 31.4944L13.4809 32.5819C15.8303 31.0463 18.472 30.1294 21.9249 30.1294C25.3778 30.1294 28.0195 31.0463 30.3689 32.5819L31.2294 31.4944C29.4975 29.3175 26.1853 26.25 21.9249 26.25ZM15.5288 15C14.0162 15 12.7885 16.2581 12.7885 17.8125C12.7885 19.3669 14.0162 20.625 15.5288 20.625C17.0415 20.625 18.2692 19.3669 18.2692 17.8125C18.2692 16.2581 17.0415 15 15.5288 15ZM28.3173 15C26.8046 15 25.5769 16.2581 25.5769 17.8125C25.5769 19.3669 26.8046 20.625 28.3173 20.625C29.83 20.625 31.0577 19.3669 31.0577 17.8125C31.0577 16.2581 29.83 15 28.3173 15Z" fill="white"/>
</g>
<defs>
<clipPath id="clip0">
<rect width="65" height="65" fill="white"/>
</clipPath>
</defs>
</svg>
