<svg width="16" height="16" viewBox="0 0 16 16" fill="none" xmlns="http://www.w3.org/2000/svg">
<g clip-path="url(#clip0_38629_1219)">
<path d="M14.1143 13.1589C14.1179 13.1536 14.1232 13.1482 14.1268 13.1429C15.2964 11.7518 16 9.95893 16 8C16 6.04107 15.2964 4.24821 14.1286 2.85714C14.125 2.85179 14.1196 2.84821 14.1161 2.84286C14.0964 2.81964 14.0786 2.79821 14.0589 2.77679C14.0518 2.76786 14.0446 2.76071 14.0375 2.75179L13.9643 2.66786L13.9625 2.66607C13.9357 2.63571 13.9071 2.60536 13.8804 2.575L13.8786 2.57321C13.8214 2.5125 13.7643 2.45179 13.7054 2.39286L13.7036 2.39107L13.6179 2.30536L13.6125 2.3C13.5857 2.27321 13.5589 2.24821 13.5321 2.22321C13.5232 2.21429 13.5143 2.20536 13.5036 2.19643C13.4857 2.17857 13.4679 2.1625 13.45 2.14643C13.4446 2.14107 13.4375 2.13571 13.4321 2.12857C12.0071 0.807143 10.0982 0 8 0C5.90179 0 3.99286 0.807143 2.56607 2.12857C2.56071 2.13393 2.55357 2.13929 2.54821 2.14643C2.53036 2.1625 2.5125 2.18036 2.49464 2.19821C2.48571 2.20714 2.47679 2.21607 2.46607 2.225C2.43929 2.25 2.4125 2.27679 2.38571 2.30179L2.38036 2.30714L2.29464 2.39286L2.29286 2.39464C2.23393 2.45357 2.17679 2.51429 2.11964 2.575L2.11786 2.57679C2.08929 2.60714 2.0625 2.6375 2.03571 2.66786L2.03393 2.66964C2.00893 2.69643 1.98393 2.725 1.96071 2.75357C1.95357 2.7625 1.94643 2.76964 1.93929 2.77857C1.91964 2.8 1.90179 2.82321 1.88214 2.84464C1.87857 2.85 1.87321 2.85357 1.86964 2.85893C0.703571 4.24821 0 6.04107 0 8C0 9.95893 0.703571 11.7518 1.87143 13.1429C1.875 13.1482 1.88036 13.1536 1.88393 13.1589L1.93929 13.225C1.94643 13.2339 1.95357 13.2411 1.96071 13.25L2.03393 13.3339C2.03393 13.3357 2.03571 13.3357 2.03571 13.3375C2.0625 13.3679 2.08929 13.3982 2.11786 13.4268L2.11964 13.4286C2.17679 13.4893 2.23393 13.55 2.29107 13.6089L2.29286 13.6107C2.32143 13.6393 2.34821 13.6679 2.37679 13.6946L2.38214 13.7C2.44107 13.7589 2.50179 13.8161 2.5625 13.8714C3.99286 15.1929 5.90179 16 8 16C10.0982 16 12.0071 15.1929 13.4339 13.8714C13.4948 13.8157 13.5543 13.7585 13.6125 13.7L13.6179 13.6946C13.6464 13.6661 13.675 13.6393 13.7018 13.6107L13.7036 13.6089C13.7625 13.55 13.8196 13.4893 13.875 13.4286L13.8768 13.4268C13.9036 13.3964 13.9321 13.3679 13.9589 13.3375C13.9589 13.3357 13.9607 13.3357 13.9607 13.3339C13.9857 13.3071 14.0107 13.2786 14.0339 13.25C14.0411 13.2411 14.0482 13.2339 14.0554 13.225C14.0755 13.2035 14.0952 13.1814 14.1143 13.1589ZM14.1875 10.6125C13.9411 11.1946 13.6161 11.7339 13.2196 12.2232C12.7732 11.8374 12.285 11.5026 11.7643 11.225C11.9714 10.3875 12.1 9.46786 12.1339 8.5H14.6964C14.6429 9.23036 14.4714 9.93929 14.1875 10.6125ZM14.6964 7.5H12.1339C12.1 6.53214 11.9714 5.6125 11.7643 4.775C12.2875 4.49643 12.775 4.16071 13.2196 3.77679C14.0814 4.83745 14.5968 6.13703 14.6964 7.5ZM10.6125 1.8125C11.3214 2.1125 11.9661 2.52679 12.5339 3.04821C12.2041 3.32909 11.849 3.57896 11.4732 3.79464C11.1929 2.99107 10.8339 2.29286 10.4161 1.73393C10.4821 1.75893 10.5482 1.78571 10.6125 1.8125ZM8.99464 14.3232C8.83036 14.4518 8.66607 14.55 8.5 14.6161V11.3036C9.20856 11.353 9.90534 11.5108 10.5661 11.7714C10.4179 12.2107 10.2464 12.6161 10.0482 12.9821C9.7375 13.5607 9.37321 14.0232 8.99464 14.3232ZM10.0482 3.01786C10.2446 3.38571 10.4179 3.79107 10.5661 4.22857C9.90534 4.48921 9.20856 4.64699 8.5 4.69643V1.38571C8.66429 1.45179 8.83036 1.54821 8.99464 1.67857C9.37321 1.97679 9.7375 2.43929 10.0482 3.01786ZM8.5 10.3018V8.5H11.1339C11.1054 9.28929 11.0071 10.0554 10.8429 10.7821L10.8375 10.8036C10.0881 10.5194 9.30001 10.3502 8.5 10.3018ZM8.5 7.5V5.69821C9.31786 5.64821 10.1036 5.475 10.8375 5.19643L10.8429 5.21786C11.0071 5.94464 11.1054 6.70893 11.1339 7.5H8.5ZM7.5 8.5V10.3018C6.68214 10.3518 5.89643 10.525 5.1625 10.8036L5.15714 10.7821C4.99286 10.0554 4.89464 9.29107 4.86607 8.5H7.5ZM4.86607 7.5C4.89464 6.71071 4.99286 5.94464 5.15714 5.21786L5.1625 5.19643C5.89643 5.475 6.68036 5.64821 7.5 5.69821V7.5H4.86607ZM7.5 11.3036V14.6143C7.33571 14.5482 7.16964 14.4518 7.00536 14.3214C6.62679 14.0232 6.26072 13.5589 5.95 12.9804C5.75357 12.6125 5.58036 12.2071 5.43214 11.7696C6.09643 11.5089 6.7875 11.3536 7.5 11.3036ZM7.5 4.69643C6.79144 4.64699 6.09466 4.48921 5.43393 4.22857C5.58214 3.78929 5.75357 3.38393 5.95179 3.01786C6.2625 2.43929 6.62679 1.975 7.00714 1.67679C7.17143 1.54821 7.33571 1.45 7.50179 1.38393V4.69643H7.5ZM5.3875 1.8125C5.45357 1.78571 5.51786 1.75893 5.58393 1.73393C5.16607 2.29286 4.80714 2.99107 4.52679 3.79464C4.15179 3.58036 3.79643 3.33036 3.46607 3.04821C4.03393 2.52679 4.67857 2.1125 5.3875 1.8125ZM1.8125 5.3875C2.05893 4.80536 2.38393 4.26607 2.78036 3.77679C3.225 4.16071 3.7125 4.49643 4.23571 4.775C4.02857 5.6125 3.9 6.53214 3.86607 7.5H1.30357C1.35714 6.76964 1.52857 6.06071 1.8125 5.3875ZM1.30357 8.5H3.86607C3.9 9.46786 4.02857 10.3875 4.23571 11.225C3.71497 11.5026 3.22682 11.8374 2.78036 12.2232C1.91862 11.1625 1.40316 9.86297 1.30357 8.5ZM5.3875 14.1875C4.67857 13.8875 4.03393 13.4732 3.46607 12.9518C3.79643 12.6696 4.15179 12.4214 4.52679 12.2054C4.80714 13.0089 5.16607 13.7071 5.58393 14.2661C5.51786 14.2411 5.45179 14.2143 5.3875 14.1875ZM10.6125 14.1875C10.5464 14.2143 10.4821 14.2411 10.4161 14.2661C10.8339 13.7071 11.1929 13.0089 11.4732 12.2054C11.8482 12.4196 12.2036 12.6696 12.5339 12.9518C11.9692 13.471 11.3192 13.8891 10.6125 14.1875Z" fill="black" fill-opacity="0.85"/>
</g>
<defs>
<clipPath id="clip0_38629_1219">
<rect width="16" height="16" fill="white"/>
</clipPath>
</defs>
</svg>