<svg width="26" height="26" viewBox="0 0 26 26" fill="none" xmlns="http://www.w3.org/2000/svg">
<mask id="mask0_5136_53744" style="mask-type:alpha" maskUnits="userSpaceOnUse" x="0" y="0" width="26" height="26">
<rect width="26" height="26" fill="#D9D9D9"/>
</mask>
<g mask="url(#mask0_5136_53744)">
<path d="M8.72945 17.333H21.0627C21.1461 17.333 21.2225 17.2983 21.2919 17.2288C21.3614 17.1594 21.3961 17.083 21.3961 16.9996V4.66635C21.3961 4.58301 21.3614 4.5066 21.2919 4.43714C21.2225 4.3677 21.1461 4.33298 21.0627 4.33298H19.2294V10.5829C19.2294 10.7788 19.1478 10.9257 18.9846 11.0236C18.8214 11.1215 18.6565 11.1142 18.4898 11.0017L17.2982 10.2996C17.1315 10.1982 16.9582 10.1475 16.7784 10.1475C16.5985 10.1475 16.4343 10.1982 16.2857 10.2996L15.094 11.0017C14.9163 11.1142 14.7485 11.1215 14.5909 11.0236C14.4333 10.9257 14.3545 10.7788 14.3545 10.5829V4.33298H8.72945C8.6461 4.33298 8.56971 4.3677 8.50027 4.43714C8.43081 4.5066 8.39608 4.58301 8.39608 4.66635V16.9996C8.39608 17.083 8.43081 17.1594 8.50027 17.2288C8.56971 17.2983 8.6461 17.333 8.72945 17.333ZM8.72945 18.958C8.18222 18.958 7.71903 18.7684 7.33988 18.3892C6.96072 18.01 6.77113 17.5468 6.77113 16.9996V4.66635C6.77113 4.11912 6.96072 3.65592 7.33988 3.27676C7.71903 2.89759 8.18222 2.70801 8.72945 2.70801H21.0627C21.6099 2.70801 22.0731 2.89759 22.4523 3.27676C22.8315 3.65592 23.0211 4.11912 23.0211 4.66635V16.9996C23.0211 17.5468 22.8315 18.01 22.4523 18.3892C22.0731 18.7684 21.6099 18.958 21.0627 18.958H8.72945ZM4.93781 22.7496C4.3906 22.7496 3.92741 22.56 3.54824 22.1808C3.16908 21.8017 2.97949 21.3385 2.97949 20.7913V7.64549C2.97949 7.41494 3.05727 7.22189 3.21282 7.06634C3.36838 6.91079 3.56143 6.83302 3.79197 6.83302C4.02252 6.83302 4.21558 6.91079 4.37114 7.06634C4.52669 7.22189 4.60447 7.41494 4.60447 7.64549V20.7913C4.60447 20.8746 4.63919 20.951 4.70863 21.0204C4.77809 21.0899 4.85448 21.1246 4.93781 21.1246H18.0836C18.3141 21.1246 18.5072 21.2024 18.6627 21.3579C18.8183 21.5135 18.8961 21.7065 18.8961 21.9371C18.8961 22.1676 18.8183 22.3607 18.6627 22.5162C18.5072 22.6718 18.3141 22.7496 18.0836 22.7496H4.93781Z" fill="#171723"/>
</g>
</svg>
