<svg width="20" height="20" viewBox="0 0 20 20" fill="none" xmlns="http://www.w3.org/2000/svg">
<g id="collections_bookmark">
<mask id="mask0_9595_365" style="mask-type:alpha" maskUnits="userSpaceOnUse" x="0" y="0" width="20" height="20">
<rect id="Bounding box" width="20" height="20" fill="#D9D9D9"/>
</mask>
<g mask="url(#mask0_9595_365)">
<path id="collections_bookmark_2" d="M6.71503 13.332H16.2022C16.2663 13.332 16.325 13.3053 16.3785 13.2519C16.4319 13.1985 16.4586 13.1397 16.4586 13.0756V3.58845C16.4586 3.52434 16.4319 3.46557 16.3785 3.41214C16.325 3.35872 16.2663 3.33201 16.2022 3.33201H14.7919V8.13968C14.7919 8.29032 14.7292 8.4033 14.6036 8.47861C14.4781 8.55393 14.3512 8.54833 14.223 8.4618L13.3064 7.92174C13.1782 7.84374 13.0449 7.80474 12.9065 7.80474C12.7682 7.80474 12.6419 7.84374 12.5275 7.92174L11.6109 8.4618C11.4741 8.54833 11.3451 8.55393 11.2238 8.47861C11.1026 8.4033 11.042 8.29032 11.042 8.13968V3.33201H6.71503C6.65092 3.33201 6.59216 3.35872 6.53874 3.41214C6.48531 3.46557 6.4586 3.52434 6.4586 3.58845V13.0756C6.4586 13.1397 6.48531 13.1985 6.53874 13.2519C6.59216 13.3053 6.65092 13.332 6.71503 13.332ZM6.71503 14.582C6.29409 14.582 5.93779 14.4362 5.64614 14.1445C5.35447 13.8528 5.20864 13.4965 5.20864 13.0756V3.58845C5.20864 3.1675 5.35447 2.8112 5.64614 2.51953C5.93779 2.22786 6.29409 2.08203 6.71503 2.08203H16.2022C16.6231 2.08203 16.9794 2.22786 17.2711 2.51953C17.5627 2.8112 17.7086 3.1675 17.7086 3.58845V13.0756C17.7086 13.4965 17.5627 13.8528 17.2711 14.1445C16.9794 14.4362 16.6231 14.582 16.2022 14.582H6.71503ZM3.79839 17.4986C3.37746 17.4986 3.02116 17.3528 2.72949 17.0611C2.43783 16.7694 2.29199 16.4131 2.29199 15.9922V5.88009C2.29199 5.70275 2.35182 5.55425 2.47147 5.43459C2.59114 5.31494 2.73964 5.25512 2.91697 5.25512C3.09432 5.25512 3.24283 5.31494 3.36249 5.43459C3.48215 5.55425 3.54197 5.70275 3.54197 5.88009V15.9922C3.54197 16.0563 3.56868 16.1151 3.6221 16.1685C3.67553 16.2219 3.73429 16.2487 3.79839 16.2487H13.9105C14.0879 16.2487 14.2364 16.3085 14.356 16.4281C14.4757 16.5478 14.5355 16.6963 14.5355 16.8736C14.5355 17.051 14.4757 17.1995 14.356 17.3191C14.2364 17.4388 14.0879 17.4986 13.9105 17.4986H3.79839Z" fill="white"/>
</g>
</g>
</svg>
