<svg width="30" height="30" viewBox="0 0 30 30" fill="none" xmlns="http://www.w3.org/2000/svg">
<mask id="mask0_5136_53757" style="mask-type:alpha" maskUnits="userSpaceOnUse" x="0" y="0" width="30" height="30">
<rect width="30" height="30" fill="#D9D9D9"/>
</mask>
<g mask="url(#mask0_5136_53757)">
<path d="M15 21.8268L10.0384 23.9567C9.28525 24.2788 8.56972 24.2171 7.89184 23.7715C7.21395 23.326 6.875 22.6994 6.875 21.8918V6.63463C6.875 6.00321 7.09375 5.46875 7.53125 5.03125C7.96875 4.59375 8.50321 4.375 9.13462 4.375H16.25V6.24997H9.13462C9.03846 6.24997 8.9503 6.29003 8.87016 6.37016C8.79003 6.4503 8.74997 6.53846 8.74997 6.63463V21.8485C8.74997 21.9847 8.80806 22.0929 8.92425 22.173C9.04046 22.2532 9.16267 22.2652 9.29087 22.2091L15 19.75L20.7091 22.2091C20.8373 22.2652 20.9595 22.2532 21.0757 22.173C21.1919 22.0929 21.25 21.9847 21.25 21.8485V13.75H23.1249V21.8918C23.1249 22.6994 22.786 23.326 22.1081 23.7715C21.4302 24.2171 20.7147 24.2788 19.9615 23.9567L15 21.8268ZM21.8365 8.60822L25.5841 4.84856C25.77 4.65467 25.9907 4.55772 26.2463 4.55772C26.5019 4.55772 26.7267 4.65467 26.9206 4.84856C27.1145 5.04248 27.2114 5.26523 27.2114 5.51681C27.2114 5.76842 27.1145 5.99118 26.9206 6.18509L22.6273 10.4591C22.4014 10.6851 22.1378 10.7981 21.8365 10.7981C21.5352 10.7981 21.2716 10.6851 21.0456 10.4591L19.3966 8.81009C19.2235 8.63701 19.137 8.42267 19.137 8.16706C19.137 7.91146 19.2235 7.69071 19.3966 7.50481C19.5825 7.31092 19.8052 7.21597 20.0648 7.21997C20.3244 7.22399 20.5472 7.31894 20.7331 7.50481L21.8365 8.60822Z" fill="#171723"/>
</g>
</svg>
