<svg width="30" height="30" viewBox="0 0 30 30" fill="none" xmlns="http://www.w3.org/2000/svg">
<mask id="mask0_5136_53754" style="mask-type:alpha" maskUnits="userSpaceOnUse" x="0" y="0" width="30" height="30">
<rect width="30" height="30" fill="#D9D9D9"/>
</mask>
<g mask="url(#mask0_5136_53754)">
<path d="M7.52884 21.6154C8.59134 20.8269 9.74879 20.2043 11.0012 19.7476C12.2536 19.2909 13.5865 19.0625 15 19.0625C16.4134 19.0625 17.7464 19.2909 18.9988 19.7476C20.2511 20.2043 21.4086 20.8269 22.4711 21.6154C23.2483 20.7612 23.8641 19.7724 24.3185 18.649C24.7728 17.5256 25 16.3093 25 15C25 12.2291 24.026 9.86976 22.0781 7.92184C20.1302 5.97393 17.7708 4.99997 15 4.99997C12.2291 4.99997 9.86976 5.97393 7.92184 7.92184C5.97393 9.86976 4.99997 12.2291 4.99997 15C4.99997 16.3093 5.22714 17.5256 5.68147 18.649C6.1358 19.7724 6.75159 20.7612 7.52884 21.6154ZM15.0003 15.9374C13.8591 15.9374 12.8966 15.5457 12.113 14.7623C11.3293 13.9789 10.9375 13.0166 10.9375 11.8753C10.9375 10.7341 11.3292 9.77162 12.1126 8.98797C12.896 8.20433 13.8583 7.8125 14.9996 7.8125C16.1409 7.8125 17.1033 8.2042 17.887 8.98759C18.6706 9.77101 19.0624 10.7333 19.0624 11.8746C19.0624 13.0159 18.6707 13.9783 17.8873 14.762C17.1039 15.5456 16.1416 15.9374 15.0003 15.9374ZM15 26.8749C13.3509 26.8749 11.8041 26.5648 10.3594 25.9446C8.91467 25.3244 7.65785 24.4799 6.58894 23.411C5.52004 22.3421 4.6755 21.0853 4.05531 19.6406C3.4351 18.1959 3.125 16.649 3.125 15C3.125 13.3509 3.4351 11.8041 4.05531 10.3594C4.6755 8.91467 5.52004 7.65785 6.58894 6.58894C7.65785 5.52004 8.91467 4.6755 10.3594 4.05531C11.8041 3.4351 13.3509 3.125 15 3.125C16.649 3.125 18.1959 3.4351 19.6406 4.05531C21.0853 4.6755 22.3421 5.52004 23.411 6.58894C24.4799 7.65785 25.3244 8.91467 25.9446 10.3594C26.5648 11.8041 26.8749 13.3509 26.8749 15C26.8749 16.649 26.5648 18.1959 25.9446 19.6406C25.3244 21.0853 24.4799 22.3421 23.411 23.411C22.3421 24.4799 21.0853 25.3244 19.6406 25.9446C18.1959 26.5648 16.649 26.8749 15 26.8749ZM15 25C16.1282 25 17.2159 24.8185 18.2632 24.4555C19.3105 24.0925 20.2404 23.5849 21.0529 22.9327C20.2404 22.3045 19.3225 21.8149 18.2993 21.4639C17.276 21.1129 16.1763 20.9374 15 20.9374C13.8237 20.9374 12.7219 21.1109 11.6947 21.4579C10.6674 21.8048 9.75154 22.2964 8.94706 22.9327C9.75956 23.5849 10.6895 24.0925 11.7368 24.4555C12.784 24.8185 13.8718 25 15 25ZM15 14.0625C15.6218 14.0625 16.1418 13.8534 16.5601 13.4351C16.9784 13.0168 17.1875 12.4968 17.1875 11.875C17.1875 11.2532 16.9784 10.7331 16.5601 10.3148C16.1418 9.89657 15.6218 9.68744 15 9.68744C14.3782 9.68744 13.8581 9.89657 13.4398 10.3148C13.0216 10.7331 12.8124 11.2532 12.8124 11.875C12.8124 12.4968 13.0216 13.0168 13.4398 13.4351C13.8581 13.8534 14.3782 14.0625 15 14.0625Z" fill="#171723"/>
</g>
</svg>
