<svg width="29" height="29" viewBox="0 0 29 29" fill="none" xmlns="http://www.w3.org/2000/svg">
<mask id="mask0_5136_53760" style="mask-type:alpha" maskUnits="userSpaceOnUse" x="0" y="0" width="29" height="29">
<rect width="29" height="29" fill="#D9D9D9"/>
</mask>
<g mask="url(#mask0_5136_53760)">
<path d="M13.2312 15.7874L11.27 13.8448C11.1027 13.6775 10.8955 13.5919 10.6484 13.588C10.4013 13.5841 10.1841 13.6759 9.99664 13.8634C9.82158 14.0384 9.73404 14.2506 9.73404 14.5C9.73404 14.7494 9.82158 14.9617 9.99664 15.1367L12.4667 17.6068C12.6852 17.8252 12.94 17.9344 13.2312 17.9344C13.5225 17.9344 13.7773 17.8252 13.9957 17.6068L19.0033 12.5992C19.183 12.4195 19.2717 12.2092 19.2694 11.9683C19.2671 11.7274 19.1784 11.5133 19.0033 11.3259C18.8159 11.1384 18.6006 11.0416 18.3573 11.0354C18.1141 11.0292 17.8988 11.1198 17.7114 11.3072L13.2312 15.7874ZM10.1616 25.5957L8.49088 22.7864L5.33063 22.1078C5.05952 22.0552 4.84303 21.9127 4.68115 21.6803C4.51928 21.4479 4.4546 21.1962 4.48712 20.9251L4.79619 17.6742L2.64674 15.2157C2.46086 15.0174 2.36792 14.7789 2.36792 14.5C2.36792 14.2212 2.46086 13.9826 2.64674 13.7843L4.79619 11.3259L4.48712 8.07499C4.4546 7.80388 4.51928 7.55214 4.68115 7.31978C4.84303 7.0874 5.05952 6.94488 5.33063 6.89221L8.49088 6.2137L10.1616 3.40433C10.3072 3.16576 10.5055 3.0031 10.7565 2.91634C11.0075 2.8296 11.2623 2.84277 11.521 2.95585L14.5 4.2153L17.479 2.95585C17.7377 2.84277 17.9925 2.8296 18.2435 2.91634C18.4944 3.0031 18.6927 3.16576 18.8383 3.40433L20.5091 6.2137L23.6693 6.89221C23.9404 6.94488 24.1569 7.0874 24.3188 7.31978C24.4807 7.55214 24.5454 7.80388 24.5128 8.07499L24.2038 11.3259L26.3532 13.7843C26.5391 13.9826 26.6321 14.2212 26.6321 14.5C26.6321 14.7789 26.5391 15.0174 26.3532 15.2157L24.2038 17.6742L24.5128 20.9251C24.5454 21.1962 24.4807 21.4479 24.3188 21.6803C24.1569 21.9127 23.9404 22.0552 23.6693 22.1078L20.5091 22.7864L18.8383 25.5957C18.6927 25.8343 18.4944 25.997 18.2435 26.0837C17.9925 26.1705 17.7377 26.1573 17.479 26.0442L14.5 24.7848L11.521 26.0442C11.2623 26.1573 11.0075 26.1705 10.7565 26.0837C10.5055 25.997 10.3072 25.8343 10.1616 25.5957ZM11.4187 24.1063L14.5 22.8003L17.6184 24.1063L19.3333 21.2063L22.6562 20.4441L22.3541 17.0375L24.5896 14.5L22.3541 11.9253L22.6562 8.51878L19.3333 7.79378L17.5812 4.89378L14.5 6.19972L11.3815 4.89378L9.66665 7.79378L6.34373 8.51878L6.64581 11.9253L4.4104 14.5L6.64581 17.0375L6.34373 20.4813L9.66665 21.2063L11.4187 24.1063Z" fill="#171723"/>
</g>
</svg>
