<svg xmlns="http://www.w3.org/2000/svg" width="11" height="12" viewBox="0 0 11 12" fill="currentColor">
  <path d="M2.02698 11.9529C1.63808 11.9529 1.30751 11.8191 1.03528 11.5515C0.763063 11.284 0.626953 10.9591 0.626953 10.5768V2.22566C0.626953 1.84342 0.763063 1.51851 1.03528 1.25095C1.30751 0.983389 1.63808 0.849609 2.02698 0.849609H7.53052C7.80932 0.849609 8.04799 0.94718 8.24653 1.14232C8.44506 1.33745 8.54432 1.57203 8.54432 1.84605V8.86863C8.54432 9.14266 8.44506 9.37724 8.24653 9.57238C8.04799 9.76751 7.80932 9.86507 7.53052 9.86507H2.02698C1.81698 9.86507 1.63574 9.93536 1.48326 10.0759C1.33079 10.2165 1.25455 10.3907 1.25455 10.5985C1.25455 10.8063 1.33079 10.9811 1.48326 11.1231C1.63574 11.265 1.81698 11.336 2.02698 11.336H9.6547C9.76734 11.336 9.85987 11.3004 9.93229 11.2293C10.0047 11.1581 10.0409 11.0671 10.0409 10.9564V2.39173C10.0409 2.30434 10.071 2.23109 10.1313 2.17198C10.1915 2.11286 10.2661 2.08331 10.3551 2.08331C10.4442 2.08331 10.5187 2.11286 10.5786 2.17198C10.6385 2.23109 10.6685 2.30434 10.6685 2.39173V10.9564C10.6685 11.2305 10.5692 11.465 10.3707 11.6602C10.1722 11.8553 9.9335 11.9529 9.6547 11.9529H2.02698ZM3.37873 9.24822H7.53052C7.64316 9.24822 7.73569 9.21264 7.80811 9.14146C7.88052 9.07029 7.91673 8.97935 7.91673 8.86863V1.84605C7.91673 1.73534 7.88052 1.64439 7.80811 1.57322C7.73569 1.50204 7.64316 1.46646 7.53052 1.46646H3.37873V9.24822ZM2.75113 9.24822V1.46646H2.02698C1.80813 1.46646 1.62468 1.54139 1.47663 1.69125C1.32858 1.84112 1.25455 2.01925 1.25455 2.22566V9.49853C1.36719 9.42814 1.48722 9.36883 1.61462 9.32059C1.74201 9.27235 1.87946 9.24822 2.02698 9.24822H2.75113Z" fill="currentColor"/>
</svg>
