<svg xmlns="http://www.w3.org/2000/svg" width="24" height="24" viewBox="0 0 24 24" fill="none"><path d="M15.6868 14.8125C14.994 14.8125 14.4051 14.5651 13.9202 14.0702C13.4353 13.5753 13.1928 12.9744 13.1928 12.2674C13.1928 11.5605 13.4353 10.9596 13.9202 10.4647C14.4051 9.96981 14.994 9.72237 15.6868 9.72237C16.3795 9.72237 16.9684 9.96981 17.4533 10.4647C17.9383 10.9596 18.1807 11.5605 18.1807 12.2674C18.1807 12.9744 17.9383 13.5753 17.4533 14.0702C16.9684 14.5651 16.3795 14.8125 15.6868 14.8125ZM15.6868 13.374C15.9892 13.374 16.2455 13.2667 16.4557 13.0522C16.666 12.8376 16.7711 12.5761 16.7711 12.2674C16.7711 11.9588 16.666 11.6973 16.4557 11.4827C16.2455 11.2682 15.9892 11.1609 15.6868 11.1609C15.3843 11.1609 15.128 11.2682 14.9178 11.4827C14.7075 11.6973 14.6024 11.9588 14.6024 12.2674C14.6024 12.5761 14.7075 12.8376 14.9178 13.0522C15.128 13.2667 15.3843 13.374 15.6868 13.374ZM11.2229 21C10.9822 21 10.7805 20.9169 10.6177 20.7508C10.4549 20.5847 10.3735 20.3788 10.3735 20.1332V18.5508C10.3735 18.2732 10.4383 18.0121 10.568 17.7675C10.6977 17.5229 10.8792 17.3278 11.1127 17.1824C11.5777 16.8972 11.975 16.6977 12.3045 16.584C12.634 16.4702 13.0681 16.3677 13.6067 16.2764C13.7813 16.246 13.9536 16.2497 14.1235 16.2874C14.2934 16.3252 14.4349 16.412 14.5482 16.548L15.6868 17.9847L16.8018 16.548C16.9151 16.4004 17.0567 16.3107 17.2265 16.2787C17.3964 16.2468 17.5694 16.246 17.7456 16.2764C18.2887 16.3677 18.7229 16.4699 19.0484 16.583C19.3737 16.6961 19.7731 16.8959 20.2464 17.1824C20.4801 17.3275 20.6626 17.5218 20.794 17.7652C20.9253 18.0086 20.994 18.2674 21 18.5416V20.1332C21 20.3788 20.9186 20.5847 20.7558 20.7508C20.593 20.9169 20.3913 21 20.1506 21H11.2229ZM11.7596 19.5615H15.1103L13.6518 17.6656C13.3198 17.7514 12.9971 17.8629 12.6836 18.0001C12.37 18.1373 12.062 18.2902 11.7596 18.4586V19.5615ZM16.2632 19.5615H19.5904V18.4586C19.2976 18.2803 18.9945 18.1266 18.6809 17.9975C18.3674 17.8684 18.0446 17.7609 17.7126 17.6748L16.2632 19.5615ZM4.40962 17.8648V4.43851V7.83382V7.43545V17.8648ZM4.70311 19.3033C4.23156 19.3033 3.82983 19.1335 3.49791 18.794C3.16597 18.4545 3 18.0464 3 17.5697V4.73362C3 4.25688 3.16635 3.84876 3.49904 3.50926C3.83171 3.16976 4.23164 3 4.69881 3H17.2771C17.7443 3 18.1442 3.16976 18.4769 3.50926C18.8095 3.84876 18.9759 4.25688 18.9759 4.73362V8.90162C18.7795 8.67416 18.5702 8.46115 18.3479 8.2626C18.1256 8.06404 17.8651 7.92603 17.5663 7.84857V4.73362C17.5663 4.64755 17.5392 4.57685 17.4849 4.52151C17.4307 4.46617 17.3614 4.43851 17.2771 4.43851H4.69881C4.61446 4.43851 4.54518 4.46617 4.49095 4.52151C4.43673 4.57685 4.40962 4.64755 4.40962 4.73362V17.5697C4.40962 17.6558 4.43673 17.7265 4.49095 17.7818C4.54518 17.8371 4.61446 17.8648 4.69881 17.8648H8.21927C8.19034 17.9791 8.16865 18.0935 8.15419 18.2078C8.13973 18.3222 8.13251 18.4365 8.13251 18.5508V19.3033H4.70311ZM7.2289 8.14548H13.3012C13.6181 7.91803 13.9606 7.74898 14.3286 7.63833C14.6967 7.52767 15.0711 7.4662 15.4518 7.45391V7.42624C15.4518 7.22245 15.3843 7.05162 15.2492 6.91376C15.1141 6.7759 14.9467 6.70698 14.747 6.70698H7.2289C7.0292 6.70698 6.86182 6.77594 6.72674 6.91386C6.59165 7.05178 6.52411 7.22268 6.52411 7.42655C6.52411 7.63044 6.59165 7.80123 6.72674 7.93893C6.86182 8.07663 7.0292 8.14548 7.2289 8.14548ZM7.2289 11.8709H10.997C11.009 11.6152 11.0428 11.369 11.0982 11.1323C11.1536 10.8956 11.2259 10.6623 11.3151 10.4324H7.2289C7.0292 10.4324 6.86182 10.5014 6.72674 10.6393C6.59165 10.7772 6.52411 10.9481 6.52411 11.152C6.52411 11.3559 6.59165 11.5266 6.72674 11.6643C6.86182 11.802 7.0292 11.8709 7.2289 11.8709ZM7.2289 15.5963H9.4582C9.62501 15.4586 9.80029 15.3323 9.98402 15.2173C10.1678 15.1024 10.3554 15 10.547 14.9102V14.748C10.547 14.5906 10.506 14.4529 10.4241 14.3349C10.3422 14.2168 10.1904 14.1578 9.96868 14.1578H7.2289C7.0292 14.1578 6.86182 14.2268 6.72674 14.3647C6.59165 14.5026 6.52411 14.6735 6.52411 14.8774C6.52411 15.0813 6.59165 15.2521 6.72674 15.3898C6.86182 15.5275 7.0292 15.5963 7.2289 15.5963Z" fill="current-color"/></svg>