<svg width="45" height="45" viewBox="0 0 45 45" fill="none" xmlns="http://www.w3.org/2000/svg">
<g clip-path="url(#clip0)">
<path d="M24.9401 18.4372C24.7121 18.6363 24.5321 18.8353 24.3974 19.0036L23.7885 18.5739C24.0522 17.99 24.4945 17.2903 25.0802 16.7044C25.7875 15.9969 26.6563 15.5 27.6314 15.5C28.6074 15.5 29.4763 15.9969 30.1838 16.7045C30.7694 17.2902 31.2122 17.9898 31.4772 18.5741L30.8751 18.9985C30.7449 18.8313 30.5714 18.6355 30.3505 18.4396C29.7779 17.9319 28.886 17.425 27.6314 17.425C26.406 17.425 25.5159 17.9343 24.9401 18.4372ZM12.4606 18.4372C12.2326 18.6363 12.0526 18.8353 11.9179 19.0036L11.309 18.5739C11.5727 17.99 12.015 17.2903 12.6007 16.7044C13.308 15.9969 14.1768 15.5 15.1519 15.5C16.1279 15.5 16.9968 15.9969 17.7043 16.7045C18.2899 17.2902 18.7327 17.9898 18.9977 18.5741L18.3956 18.9985C18.2654 18.8313 18.0919 18.6355 17.871 18.4396C17.2984 17.9319 16.4065 17.425 15.1519 17.425C13.9265 17.425 13.0364 17.9343 12.4606 18.4372ZM39.7213 22.5C39.7213 11.9092 31.5233 3.25 21.3934 3.25C11.2636 3.25 3.06557 11.9092 3.06557 22.5C3.06557 33.0908 11.2636 41.75 21.3934 41.75C31.5233 41.75 39.7213 33.0908 39.7213 22.5ZM0.5 22.5C0.5 10.3265 9.87852 0.5 21.3934 0.5C32.9084 0.5 42.2869 10.3265 42.2869 22.5C42.2869 34.6735 32.9084 44.5 21.3934 44.5C9.87852 44.5 0.5 34.6735 0.5 22.5ZM14.4597 30.6413C12.902 29.3813 11.8262 27.912 11.3719 26.75H31.4152C30.9576 27.9193 29.8692 29.3904 28.302 30.6502C26.4656 32.1266 24.0474 33.25 21.3952 33.25C18.7072 33.25 16.2877 32.1199 14.4597 30.6413Z" fill="white" />
</g>
<defs>
<clipPath id="clip0">
<rect width="45" height="45" fill="white"/>
</clipPath>
</defs>
</svg>
