<svg width="24" height="24" viewBox="0 0 24 24" fill="none" xmlns="http://www.w3.org/2000/svg">
<path d="M11.9896 17.3198C12.2601 17.3198 12.4886 17.2264 12.675 17.0397C12.8614 16.8529 12.9546 16.6242 12.9546 16.3537C12.9546 16.0832 12.8613 15.8548 12.6745 15.6683C12.4877 15.4819 12.2591 15.3887 11.9886 15.3887C11.7181 15.3887 11.4896 15.4821 11.3032 15.6688C11.1167 15.8556 11.0235 16.0843 11.0235 16.3548C11.0235 16.6253 11.1169 16.8537 11.3037 17.0402C11.4904 17.2266 11.7191 17.3198 11.9896 17.3198ZM12.0016 21C10.7568 21 9.58677 20.7638 8.49148 20.2914C7.39618 19.8189 6.44342 19.1778 5.63322 18.368C4.82299 17.5581 4.18157 16.6058 3.70894 15.511C3.23631 14.4162 3 13.2464 3 12.0016C3 10.7568 3.23621 9.58677 3.70863 8.49148C4.18106 7.39618 4.82219 6.44343 5.63203 5.63322C6.44189 4.823 7.39423 4.18157 8.48904 3.70894C9.58384 3.23631 10.7536 3 11.9984 3C13.2432 3 14.4132 3.23621 15.5085 3.70863C16.6038 4.18106 17.5566 4.82219 18.3668 5.63203C19.177 6.44189 19.8184 7.39423 20.2911 8.48904C20.7637 9.58384 21 10.7536 21 11.9984C21 13.2432 20.7638 14.4132 20.2914 15.5085C19.8189 16.6038 19.1778 17.5566 18.368 18.3668C17.5581 19.177 16.6058 19.8184 15.511 20.2911C14.4162 20.7637 13.2464 21 12.0016 21ZM12 19.579C14.1158 19.579 15.9079 18.8448 17.3763 17.3763C18.8448 15.9079 19.579 14.1158 19.579 12C19.579 9.88421 18.8448 8.0921 17.3763 6.62367C15.9079 5.15525 14.1158 4.42103 12 4.42103C9.8842 4.42103 8.09209 5.15525 6.62367 6.62367C5.15525 8.0921 4.42103 9.88421 4.42103 12C4.42103 14.1158 5.15525 15.9079 6.62367 17.3763C8.09209 18.8448 9.8842 19.579 12 19.579ZM12.0767 7.94452C12.5138 7.94452 12.8921 8.08212 13.2115 8.35731C13.531 8.63251 13.6907 8.9765 13.6907 9.38928C13.6907 9.73665 13.5887 10.0476 13.3846 10.3221C13.1806 10.5966 12.9474 10.8522 12.685 11.0891C12.3411 11.3941 12.0384 11.7297 11.7767 12.0958C11.5151 12.4619 11.3751 12.8696 11.3569 13.319C11.3508 13.4915 11.4115 13.636 11.5391 13.7526C11.6666 13.8692 11.8154 13.9275 11.9854 13.9275C12.1676 13.9275 12.3219 13.8668 12.4482 13.7453C12.5745 13.6239 12.6552 13.4751 12.6905 13.299C12.7536 12.9735 12.8881 12.6835 13.094 12.4291C13.2999 12.1746 13.5229 11.9326 13.7631 11.7032C14.1083 11.3667 14.4097 10.9997 14.6672 10.6023C14.9247 10.205 15.0534 9.76175 15.0534 9.27269C15.0534 8.52208 14.7577 7.90538 14.1662 7.42259C13.5747 6.93979 12.8842 6.6984 12.0947 6.6984C11.5312 6.6984 10.9998 6.8232 10.5006 7.0728C10.0014 7.32238 9.61277 7.68645 9.33462 8.165C9.24839 8.31195 9.22071 8.46663 9.25158 8.62904C9.28245 8.79144 9.3658 8.91474 9.50162 8.99897C9.6745 9.0952 9.85203 9.12267 10.0342 9.08136C10.2164 9.04007 10.3712 8.93624 10.4988 8.76985C10.6907 8.52084 10.923 8.32104 11.1956 8.17044C11.4683 8.01983 11.762 7.94452 12.0767 7.94452Z" fill="white"/>
</svg>
