<svg width="12" height="12" viewBox="0 0 12 12" fill="none" xmlns="http://www.w3.org/2000/svg">
<mask id="mask0_2189_2978" style="mask-type:alpha" maskUnits="userSpaceOnUse" x="0" y="0" width="12" height="12">
<rect width="12" height="12" fill="#D9D9D9"/>
</mask>
<g mask="url(#mask0_2189_2978)">
<path d="M6 10.5C4.95 10.5 4.02083 10.1812 3.2125 9.54375C2.40417 8.90625 1.87917 8.09167 1.6375 7.1C1.60417 6.975 1.62917 6.86042 1.7125 6.75625C1.79583 6.65208 1.90833 6.59167 2.05 6.575C2.18333 6.55833 2.30417 6.58333 2.4125 6.65C2.52083 6.71667 2.59583 6.81667 2.6375 6.95C2.8375 7.7 3.25 8.3125 3.875 8.7875C4.5 9.2625 5.20833 9.5 6 9.5C6.975 9.5 7.80208 9.16042 8.48125 8.48125C9.16042 7.80208 9.5 6.975 9.5 6C9.5 5.025 9.16042 4.19792 8.48125 3.51875C7.80208 2.83958 6.975 2.5 6 2.5C5.425 2.5 4.8875 2.63333 4.3875 2.9C3.8875 3.16667 3.46667 3.53333 3.125 4H4C4.14167 4 4.26042 4.04792 4.35625 4.14375C4.45208 4.23958 4.5 4.35833 4.5 4.5C4.5 4.64167 4.45208 4.76042 4.35625 4.85625C4.26042 4.95208 4.14167 5 4 5H2C1.85833 5 1.73958 4.95208 1.64375 4.85625C1.54792 4.76042 1.5 4.64167 1.5 4.5V2.5C1.5 2.35833 1.54792 2.23958 1.64375 2.14375C1.73958 2.04792 1.85833 2 2 2C2.14167 2 2.26042 2.04792 2.35625 2.14375C2.45208 2.23958 2.5 2.35833 2.5 2.5V3.175C2.925 2.64167 3.44375 2.22917 4.05625 1.9375C4.66875 1.64583 5.31667 1.5 6 1.5C6.625 1.5 7.21042 1.61875 7.75625 1.85625C8.30208 2.09375 8.77708 2.41458 9.18125 2.81875C9.58542 3.22292 9.90625 3.69792 10.1438 4.24375C10.3813 4.78958 10.5 5.375 10.5 6C10.5 6.625 10.3813 7.21042 10.1438 7.75625C9.90625 8.30208 9.58542 8.77708 9.18125 9.18125C8.77708 9.58542 8.30208 9.90625 7.75625 10.1438C7.21042 10.3813 6.625 10.5 6 10.5ZM6.5 5.8L7.75 7.05C7.84167 7.14167 7.8875 7.25833 7.8875 7.4C7.8875 7.54167 7.84167 7.65833 7.75 7.75C7.65833 7.84167 7.54167 7.8875 7.4 7.8875C7.25833 7.8875 7.14167 7.84167 7.05 7.75L5.65 6.35C5.6 6.3 5.5625 6.24375 5.5375 6.18125C5.5125 6.11875 5.5 6.05417 5.5 5.9875V4C5.5 3.85833 5.54792 3.73958 5.64375 3.64375C5.73958 3.54792 5.85833 3.5 6 3.5C6.14167 3.5 6.26042 3.54792 6.35625 3.64375C6.45208 3.73958 6.5 3.85833 6.5 4V5.8Z" fill="white"/>
</g>
</svg>
