<svg width="32" height="32" viewBox="0 0 32 32" fill="none" xmlns="http://www.w3.org/2000/svg">
<g id="stepper-status">
<path id="Subtract" d="M32 16C32 24.8366 24.8366 32 16 32C7.16344 32 0 24.8366 0 16C0 7.16344 7.16344 0 16 0C24.8366 0 32 7.16344 32 16Z" fill="#C1C4D0"/>
<path id="adjust" d="M16.07 24.1288C14.9527 24.1288 13.9047 23.9191 12.9262 23.4996C11.9478 23.0801 11.0919 22.5037 10.3586 21.7702C9.62513 21.0369 9.04867 20.1813 8.6292 19.2034C8.20973 18.2255 8 17.1761 8 16.0552C8 14.9344 8.20973 13.8881 8.6292 12.9162C9.04867 11.9445 9.62513 11.0919 10.3586 10.3586C11.0919 9.62513 11.9475 9.04867 12.9254 8.6292C13.9033 8.20973 14.9527 8 16.0736 8C17.1944 8 18.2407 8.20973 19.2126 8.6292C20.1843 9.04867 21.0369 9.62513 21.7702 10.3586C22.5037 11.0919 23.0801 11.946 23.4996 12.9208C23.9191 13.8956 24.1288 14.9416 24.1288 16.0588C24.1288 17.1761 23.9191 18.2241 23.4996 19.2026C23.0801 20.181 22.5037 21.0369 21.7702 21.7702C21.0369 22.5037 20.1828 23.0801 19.208 23.4996C18.2332 23.9191 17.1872 24.1288 16.07 24.1288ZM16.0644 22.1688C17.7676 22.1688 19.2108 21.5772 20.394 20.394C21.5772 19.2108 22.1688 17.7676 22.1688 16.0644C22.1688 14.3612 21.5772 12.918 20.394 11.7348C19.2108 10.5516 17.7676 9.96 16.0644 9.96C14.3612 9.96 12.918 10.5516 11.7348 11.7348C10.5516 12.918 9.96 14.3612 9.96 16.0644C9.96 17.7676 10.5516 19.2108 11.7348 20.394C12.918 21.5772 14.3612 22.1688 16.0644 22.1688Z" fill="white"/>
</g>
</svg>
