<svg xmlns="http://www.w3.org/2000/svg" width="1em" height="1em" viewBox="0 0 24 24" fill="currentColor"><path d="M4.91404 21C4.37919 21 3.92647 20.8147 3.55588 20.4441C3.18529 20.0735 3 19.6208 3 19.086V4.91404C3 4.37919 3.18529 3.92647 3.55588 3.55588C3.92647 3.18529 4.37919 3 4.91404 3H19.086C19.6208 3 20.0735 3.18529 20.4441 3.55588C20.8147 3.92647 21 4.37919 21 4.91404V19.086C21 19.6208 20.8147 20.0735 20.4441 20.4441C20.0735 20.8147 19.6208 21 19.086 21H4.91404ZM4.91404 19.4118H19.086C19.181 19.4118 19.259 19.3812 19.3201 19.3201C19.3812 19.259 19.4118 19.181 19.4118 19.086V16.0317H15.9299C15.4683 16.7023 14.8951 17.2228 14.2103 17.5934C13.5255 17.964 12.7887 18.1493 12 18.1493C11.2113 18.1493 10.4745 17.964 9.7897 17.5934C9.10487 17.2228 8.53168 16.7023 8.07014 16.0317H4.58821V19.086C4.58821 19.181 4.61876 19.259 4.67985 19.3201C4.74095 19.3812 4.81901 19.4118 4.91404 19.4118ZM12 16.5611C12.5647 16.5611 13.0887 16.4172 13.572 16.1294C14.0552 15.8417 14.4366 15.4527 14.7163 14.9627C14.8154 14.7971 14.9461 14.6691 15.1083 14.5789C15.2705 14.4886 15.4486 14.4435 15.6428 14.4435H19.4118V4.91404C19.4118 4.81901 19.3812 4.74095 19.3201 4.67985C19.259 4.61876 19.181 4.58821 19.086 4.58821H4.91404C4.81901 4.58821 4.74095 4.61876 4.67985 4.67985C4.61876 4.74095 4.58821 4.81901 4.58821 4.91404V14.4435H8.35724C8.55136 14.4435 8.72952 14.4886 8.89173 14.5789C9.05395 14.6691 9.18461 14.7971 9.28371 14.9627C9.56335 15.4527 9.94479 15.8417 10.428 16.1294C10.9113 16.4172 11.4353 16.5611 12 16.5611ZM4.91404 19.4118H4.58821H19.4118H4.91404Z" fill="current-color"/></svg>
