<svg width="22" height="22" viewBox="0 0 32 32" fill="none" xmlns="http://www.w3.org/2000/svg">
<path fill-rule="evenodd" clip-rule="evenodd" d="M20.9998 4.99927C20.9998 4.44698 21.4475 3.99927 21.9998 3.99927H25.9998C26.552 3.99927 26.9998 4.44698 26.9998 4.99927V25.9993C26.9998 26.5515 26.552 26.9993 25.9998 26.9993H21.9998C21.4475 26.9993 20.9998 26.5515 20.9998 25.9993V4.99927ZM22.9998 24.9993V5.99927H24.9998V24.9993H22.9998Z" fill="#8088A3"/>
<path d="M12.9998 10.9993C12.9998 10.447 13.4475 9.99927 13.9998 9.99927H17.9998C18.552 9.99927 18.9998 10.447 18.9998 10.9993V25.9993C18.9998 26.5515 18.552 26.9993 17.9998 26.9993H13.9998C13.4475 26.9993 12.9998 26.5515 12.9998 25.9993V10.9993Z" fill="#8088A3"/>
<path d="M5.12476 16.9993C5.12476 16.447 5.57247 15.9993 6.12476 15.9993H10.1248C10.677 15.9993 11.1248 16.447 11.1248 16.9993V25.9993C11.1248 26.5515 10.677 26.9993 10.1248 26.9993H6.12476C5.57247 26.9993 5.12476 26.5515 5.12476 25.9993V16.9993Z" fill="#8088A3"/>
</svg>
