<svg width="22" height="22" viewBox="0 0 32 32" fill="none" xmlns="http://www.w3.org/2000/svg">
<path d="M22 3.99927C21.4477 3.99927 21 4.44698 21 4.99927V25.9993C21 26.5515 21.4477 26.9993 22 26.9993H26C26.5523 26.9993 27 26.5515 27 25.9993V4.99927C27 4.44698 26.5523 3.99927 26 3.99927H22Z" fill="#8088A3"/>
<path d="M13 10.9993C13 10.447 13.4477 9.99927 14 9.99927H18C18.5523 9.99927 19 10.447 19 10.9993V25.9993C19 26.5515 18.5523 26.9993 18 26.9993H14C13.4477 26.9993 13 26.5515 13 25.9993V10.9993Z" fill="#8088A3"/>
<path d="M5.125 16.9993C5.125 16.447 5.57272 15.9993 6.125 15.9993H10.125C10.6773 15.9993 11.125 16.447 11.125 16.9993V25.9993C11.125 26.5515 10.6773 26.9993 10.125 26.9993H6.125C5.57272 26.9993 5.125 26.5515 5.125 25.9993V16.9993Z" fill="#8088A3"/>
</svg>
