<svg width="22" height="22" viewBox="0 0 32 32" fill="none" xmlns="http://www.w3.org/2000/svg">
<path fill-rule="evenodd" clip-rule="evenodd" d="M21 4.99927C21 4.44698 21.4477 3.99927 22 3.99927H26C26.5523 3.99927 27 4.44698 27 4.99927V25.9993C27 26.5515 26.5523 26.9993 26 26.9993H22C21.4477 26.9993 21 26.5515 21 25.9993V4.99927ZM23 24.9993V5.99927H25V24.9993H23Z" fill="#8088A3"/>
<path fill-rule="evenodd" clip-rule="evenodd" d="M14 9.99927C13.4477 9.99927 13 10.447 13 10.9993V25.9993C13 26.5515 13.4477 26.9993 14 26.9993H18C18.5523 26.9993 19 26.5515 19 25.9993V10.9993C19 10.447 18.5523 9.99927 18 9.99927H14ZM15 11.9993V24.9993H17V11.9993H15Z" fill="#8088A3"/>
<path d="M5.125 16.9993C5.125 16.447 5.57272 15.9993 6.125 15.9993H10.125C10.6773 15.9993 11.125 16.447 11.125 16.9993V25.9993C11.125 26.5515 10.6773 26.9993 10.125 26.9993H6.125C5.57272 26.9993 5.125 26.5515 5.125 25.9993V16.9993Z" fill="#8088A3"/>
</svg>
