<svg width="22" height="22" viewBox="0 0 32 32" fill="none" xmlns="http://www.w3.org/2000/svg">
<path fill-rule="evenodd" clip-rule="evenodd" d="M6.875 3.25C5.77043 3.25 4.875 4.14543 4.875 5.25V26.75C4.875 27.8546 5.77043 28.75 6.875 28.75H25.125C26.2296 28.75 27.125 27.8546 27.125 26.75V5.25C27.125 4.14543 26.2296 3.25 25.125 3.25H6.875ZM17 10C17 9.44772 16.5523 9 16 9C15.4477 9 15 9.44772 15 10V17C15 17.5523 15.4477 18 16 18C16.5523 18 17 17.5523 17 17V10ZM17.5 21.5C17.5 22.3284 16.8284 23 16 23C15.1716 23 14.5 22.3284 14.5 21.5C14.5 20.6716 15.1716 20 16 20C16.8284 20 17.5 20.6716 17.5 21.5Z" fill="#8088A3"/>
</svg>
