<svg xmlns="http://www.w3.org/2000/svg" width="24" height="24" viewBox="0 0 24 24" fill="none"><path d="M11.3484 19.4118H12.6516V17.3308L16.2353 13.7471V9.14935C16.2353 9.06789 16.2014 8.99322 16.1335 8.92533C16.0656 8.85746 15.991 8.82352 15.9095 8.82352H8.09055C8.00909 8.82352 7.93442 8.85746 7.86653 8.92533C7.79866 8.99322 7.76473 9.06789 7.76473 9.14935V13.7471L11.3484 17.3308V19.4118ZM9.76024 20.043V18.0068L6.73444 14.981C6.56068 14.8072 6.42426 14.6034 6.32517 14.3693C6.22607 14.1353 6.17651 13.8892 6.17651 13.631V9.15163C6.17651 8.62465 6.36393 8.17352 6.73878 7.79823C7.1136 7.42295 7.56419 7.23531 8.09055 7.23531H9.27154L8.47745 8.02943V3.79412C8.47745 3.56912 8.55359 3.38052 8.70586 3.22831C8.85812 3.0761 9.04681 3 9.27191 3C9.497 3 9.68556 3.0761 9.83759 3.22831C9.98964 3.38052 10.0657 3.56912 10.0657 3.79412V7.23531H13.9344V3.79412C13.9344 3.56912 14.0105 3.38052 14.1628 3.22831C14.3151 3.0761 14.5038 3 14.7289 3C14.954 3 15.1425 3.0761 15.2946 3.22831C15.4466 3.38052 15.5226 3.56912 15.5226 3.79412V8.02943L14.7285 7.23531H15.9095C16.4359 7.23531 16.8865 7.42294 17.2613 7.79821C17.6361 8.17345 17.8236 8.62455 17.8236 9.15149V13.6306C17.8236 13.886 17.774 14.1315 17.6749 14.3671C17.5758 14.6026 17.4394 14.8072 17.2656 14.981L14.2398 18.0068V20.043C14.2398 20.3141 14.1481 20.5414 13.9647 20.7248C13.7813 20.9083 13.554 21 13.2828 21H10.7172C10.4461 21 10.2188 20.9083 10.0354 20.7248C9.85196 20.5414 9.76024 20.3141 9.76024 20.043Z" fill="current-color"/></svg>