<svg xmlns="http://www.w3.org/2000/svg" width="470" height="806" fill="none"><g opacity=".3"><g opacity=".5"><mask id="a" width="968" height="968" x="-20" y="0" maskUnits="userSpaceOnUse" style="mask-type:luminance"><path fill="#fff" d="M947.38 0H-20v967.38h967.38V0Z"/></mask><g mask="url(#a)"><path stroke="#20D3BD" stroke-linecap="round" stroke-miterlimit="10" stroke-width="2" d="M463.69 614.64c74.282 0 134.5-60.218 134.5-134.5s-60.218-134.5-134.5-134.5-134.5 60.218-134.5 134.5 60.218 134.5 134.5 134.5Z"/><path fill="#08303A" d="M463.69 314.31c91.76 0 166.15 74.39 166.15 166.15s-74.39 166.15-166.15 166.15-166.15-74.39-166.15-166.15 74.39-166.15 166.15-166.15Zm0-.09c-22.44 0-44.21 4.4-64.71 13.06-19.8 8.37-37.57 20.36-52.84 35.63-15.27 15.27-27.25 33.05-35.63 52.84-8.67 20.49-13.06 42.27-13.06 64.71 0 22.44 4.4 44.21 13.06 64.71 8.37 19.8 20.36 37.57 35.63 52.84 15.27 15.27 33.05 27.25 52.84 35.63 20.49 8.67 42.27 13.06 64.71 13.06 22.44 0 44.21-4.4 64.71-13.06 19.8-8.37 37.57-20.36 52.84-35.63 15.27-15.27 27.25-33.05 35.63-52.84 8.67-20.49 13.06-42.27 13.06-64.71 0-22.44-4.4-44.21-13.06-64.71-8.37-19.8-20.36-37.57-35.63-52.84-15.27-15.27-33.05-27.25-52.84-35.63-20.49-8.67-42.27-13.06-64.71-13.06Z"/><path stroke="#20D3BD" stroke-linecap="round" stroke-miterlimit="10" stroke-width="1.82" d="M463.69 646.61c91.762 0 166.15-74.388 166.15-166.15s-74.388-166.15-166.15-166.15-166.15 74.388-166.15 166.15 74.388 166.15 166.15 166.15Z"/><path fill="#08303A" d="M463.69 282.98c109.24 0 197.8 88.56 197.8 197.8 0 109.24-88.56 197.8-197.8 197.8-109.24 0-197.8-88.56-197.8-197.8 0-109.24 88.56-197.8 197.8-197.8Zm0-.18c-26.73 0-52.66 5.23-77.06 15.56-23.58 9.97-44.75 24.25-62.93 42.43s-32.46 39.36-42.43 62.93c-10.32 24.41-15.56 50.34-15.56 77.06s5.23 52.66 15.56 77.06c9.97 23.58 24.25 44.75 42.43 62.93s39.36 32.46 62.93 42.43c24.41 10.32 50.34 15.56 77.06 15.56s52.66-5.23 77.06-15.56c23.58-9.97 44.75-24.25 62.93-42.43s32.46-39.36 42.43-62.93c10.32-24.41 15.56-50.34 15.56-77.06s-5.23-52.66-15.56-77.06c-9.97-23.58-24.25-44.75-42.43-62.93s-39.36-32.46-62.93-42.43c-24.41-10.32-50.34-15.56-77.06-15.56Z"/><path stroke="#20D3BD" stroke-linecap="round" stroke-miterlimit="10" stroke-width="1.64" d="M463.69 678.58c109.242 0 197.8-88.558 197.8-197.8s-88.558-197.8-197.8-197.8-197.8 88.558-197.8 197.8 88.558 197.8 197.8 197.8Z"/><path fill="#08303A" d="M463.69 251.65c126.73 0 229.46 102.73 229.46 229.46S590.42 710.57 463.69 710.57 234.23 607.84 234.23 481.11s102.73-229.46 229.46-229.46Zm0-.27c-31.01 0-61.1 6.07-89.42 18.05-27.36 11.57-51.92 28.13-73.02 49.23-21.1 21.1-37.66 45.67-49.23 73.02-11.98 28.32-18.05 58.41-18.05 89.42 0 31.01 6.07 61.1 18.05 89.42 11.57 27.36 28.13 51.92 49.23 73.02 21.1 21.1 45.67 37.66 73.02 49.23 28.32 11.98 58.41 18.05 89.42 18.05 31.01 0 61.1-6.07 89.42-18.05 27.36-11.57 51.92-28.13 73.02-49.23 21.1-21.1 37.66-45.67 49.23-73.02 11.98-28.32 18.05-58.41 18.05-89.42 0-31.01-6.07-61.1-18.05-89.42-11.57-27.36-28.13-51.92-49.23-73.02-21.1-21.1-45.67-37.66-73.02-49.23-28.32-11.98-58.41-18.05-89.42-18.05Z"/><path stroke="#20D3BD" stroke-linecap="round" stroke-miterlimit="10" stroke-width="1.45" d="M463.69 710.57c126.727 0 229.46-102.733 229.46-229.46S590.417 251.65 463.69 251.65 234.23 354.383 234.23 481.11s102.733 229.46 229.46 229.46Z"/><path fill="#08303A" d="M463.69 220.32c144.21 0 261.11 116.9 261.11 261.11S607.9 742.54 463.69 742.54s-261.11-116.9-261.11-261.11 116.9-261.11 261.11-261.11Zm0-.36c-35.3 0-69.54 6.91-101.78 20.55-31.14 13.17-59.1 32.02-83.11 56.04-24.01 24.01-42.87 51.98-56.04 83.11-13.63 32.24-20.55 66.48-20.55 101.78s6.91 69.54 20.55 101.78c13.17 31.14 32.02 59.1 56.04 83.11 24.01 24.01 51.98 42.87 83.11 56.04 32.24 13.63 66.48 20.55 101.78 20.55s69.54-6.91 101.78-20.55c31.14-13.17 59.1-32.02 83.11-56.04 24.01-24.01 42.87-51.98 56.04-83.11 13.63-32.24 20.55-66.48 20.55-101.78s-6.91-69.54-20.55-101.78c-13.17-31.14-32.02-59.1-56.04-83.11-24.01-24.01-51.98-42.87-83.11-56.04-32.24-13.63-66.48-20.55-101.78-20.55Z"/><path stroke="#20D3BD" stroke-linecap="round" stroke-miterlimit="10" stroke-width="1.27" d="M463.69 742.54c144.207 0 261.11-116.903 261.11-261.11S607.897 220.32 463.69 220.32 202.58 337.223 202.58 481.43s116.903 261.11 261.11 261.11Z"/><path fill="#08303A" d="M463.69 188.99c161.69 0 292.76 131.08 292.76 292.76 0 161.68-131.08 292.76-292.76 292.76-161.68 0-292.77-131.07-292.77-292.76S302 188.99 463.69 188.99Zm0-.45c-39.58 0-77.98 7.75-114.13 23.04-34.92 14.77-66.27 35.91-93.2 62.84-26.93 26.93-48.07 58.29-62.84 93.2-15.29 36.15-23.04 74.55-23.04 114.13s7.75 77.98 23.04 114.13c14.77 34.92 35.91 66.27 62.84 93.2 26.93 26.93 58.29 48.07 93.2 62.84 36.15 15.29 74.55 23.04 114.13 23.04s77.98-7.75 114.13-23.04c34.92-14.77 66.27-35.91 93.2-62.84 26.93-26.93 48.07-58.29 62.84-93.2 15.29-36.15 23.04-74.55 23.04-114.13s-7.75-77.98-23.04-114.13c-14.77-34.92-35.91-66.27-62.84-93.2-26.93-26.93-58.29-48.07-93.2-62.84-36.15-15.29-74.55-23.04-114.13-23.04Z"/><path stroke="#20D3BD" stroke-linecap="round" stroke-miterlimit="10" stroke-width="1.09" d="M463.69 774.51c161.687 0 292.76-131.073 292.76-292.76 0-161.687-131.073-292.76-292.76-292.76-161.687 0-292.76 131.073-292.76 292.76 0 161.687 131.073 292.76 292.76 292.76Z"/><path fill="#08303A" d="M463.69 157.66c179.17 0 324.42 145.25 324.42 324.42 0 179.17-145.25 324.42-324.42 324.42-179.17 0-324.42-145.25-324.42-324.43s145.25-324.41 324.42-324.41Zm0-.55c-43.87 0-86.43 8.59-126.49 25.54-38.7 16.37-73.45 39.8-103.29 69.64-29.84 29.84-53.27 64.6-69.64 103.29-16.95 40.06-25.54 82.62-25.54 126.49 0 43.87 8.59 86.43 25.54 126.49 16.37 38.7 39.8 73.45 69.64 103.29 29.84 29.84 64.6 53.28 103.29 69.64 40.06 16.95 82.62 25.54 126.49 25.54 43.87 0 86.43-8.59 126.49-25.54 38.7-16.37 73.45-39.8 103.29-69.64 29.84-29.84 53.27-64.6 69.64-103.29 16.95-40.06 25.54-82.62 25.54-126.49 0-43.87-8.59-86.43-25.54-126.49-16.37-38.7-39.8-73.45-69.64-103.29-29.84-29.84-64.6-53.27-103.29-69.64-40.06-16.95-82.62-25.54-126.49-25.54Z"/><path stroke="#20D3BD" stroke-linecap="round" stroke-miterlimit="10" stroke-width=".91" d="M463.69 806.49c179.172 0 324.42-145.248 324.42-324.42 0-179.172-145.248-324.42-324.42-324.42-179.172 0-324.42 145.248-324.42 324.42 0 179.172 145.248 324.42 324.42 324.42Z"/><path fill="#08303A" d="M463.69 126.32c196.65 0 356.07 159.42 356.07 356.07S660.34 838.46 463.69 838.46 107.62 679.05 107.62 482.4s159.41-356.08 356.07-356.08Zm0-.64c-48.16 0-94.87 9.43-138.85 28.03-42.48 17.97-80.62 43.69-113.38 76.45-32.76 32.76-58.48 70.91-76.45 113.38-18.6 43.98-28.03 90.69-28.03 138.85s9.43 94.87 28.03 138.85c17.97 42.48 43.69 80.62 76.45 113.38 32.76 32.76 70.91 58.48 113.38 76.45 43.98 18.6 90.69 28.03 138.85 28.03s94.87-9.43 138.85-28.03c42.48-17.97 80.62-43.69 113.38-76.45 32.76-32.76 58.48-70.91 76.45-113.38 18.6-43.98 28.03-90.69 28.03-138.85s-9.43-94.87-28.03-138.85c-17.97-42.48-43.69-80.62-76.45-113.38-32.76-32.76-70.91-58.48-113.38-76.45-43.98-18.6-90.69-28.03-138.85-28.03Z"/><path stroke="#20D3BD" stroke-linecap="round" stroke-miterlimit="10" stroke-width=".73" d="M463.69 838.47c196.652 0 356.07-159.418 356.07-356.07S660.342 126.33 463.69 126.33 107.62 285.748 107.62 482.4s159.418 356.07 356.07 356.07Z"/><path fill="#08303A" d="M463.69 94.99c214.14 0 387.73 173.59 387.73 387.73 0 214.14-173.59 387.73-387.73 387.73-214.14 0-387.73-173.6-387.73-387.73 0-214.13 173.59-387.73 387.73-387.73Zm0-.73c-52.44 0-103.31 10.27-151.2 30.53-46.26 19.56-87.8 47.57-123.47 83.25-35.67 35.67-63.68 77.22-83.25 123.47-20.26 47.89-30.53 98.76-30.53 151.2 0 52.44 10.27 103.31 30.53 151.2 19.56 46.26 47.57 87.8 83.25 123.47 35.67 35.67 77.22 63.68 123.47 83.25 47.89 20.26 98.76 30.53 151.2 30.53 52.44 0 103.31-10.27 151.2-30.53 46.26-19.57 87.8-47.57 123.47-83.25 35.67-35.67 63.68-77.22 83.25-123.47 20.26-47.89 30.53-98.76 30.53-151.2 0-52.44-10.27-103.31-30.53-151.2-19.56-46.26-47.57-87.8-83.25-123.47-35.67-35.67-77.22-63.68-123.47-83.25-47.89-20.26-98.76-30.53-151.2-30.53Z"/><path stroke="#20D3BD" stroke-linecap="round" stroke-miterlimit="10" stroke-width=".55" d="M463.69 870.45c214.137 0 387.73-173.593 387.73-387.73 0-214.137-173.593-387.73-387.73-387.73-214.137 0-387.73 173.593-387.73 387.73 0 214.137 173.593 387.73 387.73 387.73Z"/><path fill="#08303A" d="M463.69 63.66c231.62 0 419.38 187.76 419.38 419.38S695.31 902.42 463.69 902.42 44.31 714.66 44.31 483.04 232.07 63.66 463.69 63.66Zm0-.82c-56.73 0-111.76 11.11-163.56 33.02-50.04 21.16-94.97 51.46-133.56 90.05-38.59 38.59-68.89 83.53-90.05 133.56C54.61 371.27 43.5 426.3 43.5 483.03c0 56.73 11.11 111.76 33.02 163.56 21.16 50.04 51.46 94.97 90.05 133.56 38.59 38.59 83.53 68.89 133.56 90.05 51.8 21.91 106.83 33.02 163.56 33.02 56.73 0 111.76-11.11 163.56-33.02 50.04-21.16 94.97-51.46 133.56-90.05 38.59-38.59 68.89-83.53 90.05-133.56 21.91-51.8 33.02-106.83 33.02-163.56 0-56.73-11.11-111.76-33.02-163.56-21.16-50.04-51.46-94.97-90.05-133.56-38.59-38.59-83.53-68.89-133.56-90.05-51.8-21.91-106.83-33.02-163.56-33.02Z"/><path stroke="#20D3BD" stroke-linecap="round" stroke-miterlimit="10" stroke-width=".36" d="M463.69 902.42c231.617 0 419.38-187.763 419.38-419.38S695.307 63.66 463.69 63.66 44.31 251.423 44.31 483.04s187.763 419.38 419.38 419.38Z"/><path fill="#08303A" d="M463.69 32.33c249.1 0 451.03 201.93 451.03 451.03 0 249.1-201.94 451.03-451.03 451.03-249.09 0-451.04-201.93-451.04-451.03 0-249.1 201.94-451.03 451.04-451.03Zm0-.91c-61.01 0-120.2 11.95-175.92 35.52-53.82 22.76-102.15 55.35-143.65 96.85-41.51 41.51-74.09 89.84-96.85 143.66-23.57 55.72-35.52 114.91-35.52 175.92 0 61.01 11.95 120.2 35.52 175.92 22.76 53.82 55.35 102.15 96.85 143.66 41.51 41.51 89.84 74.09 143.65 96.85 55.72 23.57 114.91 35.52 175.92 35.52 61.01 0 120.2-11.95 175.92-35.52 53.82-22.76 102.15-55.35 143.66-96.85 41.51-41.51 74.09-89.84 96.85-143.66 23.57-55.72 35.52-114.91 35.52-175.92 0-61.01-11.95-120.2-35.52-175.92-22.76-53.82-55.35-102.15-96.85-143.66-41.51-41.51-89.84-74.09-143.66-96.85-55.72-23.57-114.91-35.52-175.92-35.52Z"/><path stroke="#20D3BD" stroke-linecap="round" stroke-miterlimit="10" stroke-width=".18" d="M463.69 934.4c249.097 0 451.03-201.933 451.03-451.03 0-249.097-201.933-451.03-451.03-451.03-249.097 0-451.03 201.933-451.03 451.03 0 249.097 201.933 451.03 451.03 451.03Z"/><path fill="#08303A" d="M463.69 1c266.58 0 482.69 216.11 482.69 482.69S730.27 966.38 463.69 966.38-19 750.27-19 483.69 197.11 1 463.69 1Zm0-1c-65.3 0-128.64 12.79-188.27 38.01-57.6 24.36-109.32 59.24-153.75 103.66-44.42 44.42-79.3 96.15-103.66 153.75C-7.21 355.05-20 418.39-20 483.69c0 65.3 12.79 128.64 38.01 188.27 24.36 57.6 59.24 109.32 103.66 153.75 44.42 44.42 96.15 79.3 153.75 103.66 59.63 25.22 122.98 38.01 188.27 38.01s128.64-12.79 188.27-38.01c57.6-24.36 109.32-59.24 153.75-103.66 44.42-44.42 79.3-96.15 103.66-153.75 25.22-59.63 38.01-122.98 38.01-188.27s-12.79-128.64-38.01-188.27c-24.36-57.6-59.24-109.32-103.66-153.75-44.42-44.42-96.15-79.3-153.75-103.66C592.33 12.79 528.98 0 463.69 0Z"/></g></g><path stroke="#315C64" stroke-dasharray="0.1 6" stroke-linecap="round" stroke-width="2" d="m317.718 222.158-18.316 123.33M283.093 403.203l-6.118 143.161M142.668 506.35l-39.217 156.867M275.652 609.154l-8.604 212.639M179.331 493.881l80.383 70.639M302.12 602.81l132.28 79.613M348.286 750.675l95.022-52.384M340.622 778.122l96.635 101.528M117.09 697.942l170.508 40.48M50.063 519.574l26.91 136.994M636.322 116.241l-287.188 84.367M291.394 206.139 124.576 256.43M445.907 72.314l-116.451 116.45M436.912 280.713l-119.897 75.853M463 428.241V347M396.391 591.857l40.62-70.357M437.877 435.24l-40.62-70.356M419.62 453.863l-70.357-40.62M348.763 543.131l70.357-40.62M462 610.241V529M331.88 477.12h81.24M257.916 398.455 77.441 456.158"/><path fill="#092125" fill-opacity=".75" d="M466 306.178c18.551 0 33.589-15.038 33.589-33.589S484.551 239 466 239s-33.589 15.038-33.589 33.589 15.038 33.589 33.589 33.589ZM460.553 724.178c18.551 0 33.589-15.038 33.589-33.589S479.104 657 460.553 657s-33.589 15.038-33.589 33.589 15.038 33.589 33.589 33.589Z"/><path fill="#FF694A" d="M479.258 672.437a5.715 5.715 0 0 1 1.742 3.484c0 .556-.148.927-.482 1.631-.334.705-4.448 7.822-5.672 9.787a7.472 7.472 0 0 0-1.075 3.855c0 1.372.371 2.707 1.075 3.856 1.224 1.964 5.338 9.119 5.672 9.823.334.705.482 1.038.482 1.594-.148 1.335-.741 2.558-1.705 3.448-.927.964-2.15 1.594-3.448 1.705-.556 0-.927-.148-1.594-.482-.667-.333-7.933-4.337-9.898-5.56-.148-.074-.296-.186-.482-.26l-9.712-5.746c.222 1.854 1.038 3.633 2.372 4.931.26.259.519.482.816.704-.222.111-.482.222-.704.371-1.965 1.223-9.12 5.338-9.824 5.672-.704.333-1.038.481-1.631.481-1.335-.148-2.558-.741-3.448-1.705a5.717 5.717 0 0 1-1.742-3.484c.037-.556.185-1.113.482-1.594.334-.705 4.448-7.859 5.672-9.824a7.375 7.375 0 0 0 1.075-3.855 7.376 7.376 0 0 0-1.075-3.856c-1.224-2.039-5.376-9.193-5.672-9.898-.297-.482-.445-1.038-.482-1.594a5.668 5.668 0 0 1 1.705-3.484 5.677 5.677 0 0 1 3.485-1.706 3.786 3.786 0 0 1 1.631.482c.593.26 5.82 3.3 8.6 4.931l.631.37c.222.149.407.26.556.334l.296.185 9.898 5.858a8.157 8.157 0 0 0-3.151-5.635c.222-.111.482-.223.704-.371 1.965-1.223 9.12-5.375 9.824-5.672.482-.296 1.038-.444 1.631-.482a5.68 5.68 0 0 1 3.448 1.706Zm-18.239 21.426 2.113-2.113a.716.716 0 0 0 0-1.038l-2.113-2.113a.718.718 0 0 0-1.038 0l-2.113 2.113a.716.716 0 0 0 0 1.038l2.113 2.113c.26.26.741.26 1.038 0Z"/><mask id="b" width="41" height="42" x="453" y="251" maskUnits="userSpaceOnUse" style="mask-type:luminance"><path fill="#fff" d="M494 251.802h-41v41h41v-41Z"/></mask><g mask="url(#b)"><path fill="#34A853" d="M465.621 251.802a3.58 3.58 0 0 0-2.972 5.581l1.53-1.528a1.512 1.512 0 1 1 .965.962l-1.528 1.528a3.58 3.58 0 0 0 4.177-.113c1.224-.931 1.717-2.539 1.224-3.996a3.579 3.579 0 0 0-3.396-2.434Z"/><path fill="#FBBC04" d="M464.196 262.236a5.563 5.563 0 0 0-1.116-3.353l-1.985 1.983a2.847 2.847 0 0 1-.544 3.436l1.079 2.637a5.597 5.597 0 0 0 2.566-4.703Z"/><path fill="#EA4335" d="M458.647 265.083h-.051a2.85 2.85 0 1 1 1.564-5.229l1.966-1.966a5.598 5.598 0 1 0-3.53 9.947c.379 0 .758-.038 1.13-.112l-1.079-2.64Z"/><path fill="#4285F4" d="M465.696 267.364a12.699 12.699 0 0 0-3.669.538l1.573 3.843a8.69 8.69 0 0 1 2.094-.254 8.57 8.57 0 0 1 3.276 16.488 8.57 8.57 0 0 1-7.295-15.489l-1.556-3.833a12.706 12.706 0 1 0 5.588-1.295l-.011.002Z"/></g><path fill="#092125" fill-opacity=".75" d="M284.589 613.178c18.551 0 33.589-15.038 33.589-33.589S303.14 546 284.589 546 251 561.038 251 579.589s15.038 33.589 33.589 33.589ZM286.589 411.178c18.551 0 33.589-15.038 33.589-33.589S305.14 344 286.589 344 253 359.038 253 377.589s15.038 33.589 33.589 33.589ZM153.589 510.178c18.551 0 33.589-15.038 33.589-33.589S172.14 443 153.589 443 120 458.038 120 476.589s15.038 33.589 33.589 33.589ZM46.59 508.557c18.55 0 33.588-15.038 33.588-33.589S65.14 441.379 46.59 441.379C28.04 441.379 13 456.417 13 474.968s15.038 33.589 33.59 33.589ZM100.15 306.114c18.551 0 33.589-15.038 33.589-33.589s-15.038-33.589-33.589-33.589c-18.55 0-33.59 15.038-33.59 33.589s15.04 33.589 33.59 33.589ZM91.98 715.539c18.551 0 33.589-15.038 33.589-33.589s-15.038-33.589-33.589-33.589c-18.55 0-33.59 15.038-33.59 33.589s15.04 33.589 33.59 33.589ZM309.589 783.178c18.551 0 33.589-15.038 33.589-33.589S328.14 716 309.589 716 276 731.038 276 749.589s15.038 33.589 33.589 33.589ZM312.589 243.178c18.551 0 33.589-15.038 33.589-33.589S331.14 176 312.589 176 279 191.038 279 209.589s15.038 33.589 33.589 33.589ZM464.184 99.132c18.551 0 33.589-15.038 33.589-33.589 0-18.55-15.038-33.59-33.589-33.59s-33.589 15.04-33.589 33.59c0 18.55 15.038 33.59 33.589 33.59ZM260.589 152.178c18.551 0 33.589-15.038 33.589-33.589s-15.038-33.59-33.589-33.59S227 100.039 227 118.59c0 18.551 15.038 33.589 33.589 33.589Z"/><g opacity=".33"><mask id="c" width="43" height="44" x="24" y="455" maskUnits="userSpaceOnUse" style="mask-type:luminance"><path fill="#fff" d="M66.748 455.931H24.565v42.183h42.183v-42.183Z"/></mask><g fill="#20D3BD" mask="url(#c)"><path d="M64.011 488.441c-2.33-.058-4.135.175-5.65.816-.437.174-1.136.174-1.194.728.233.233.262.611.466.932.35.582.961 1.368 1.514 1.776.612.466 1.224.932 1.864 1.34 1.136.699 2.417 1.106 3.524 1.805.641.408 1.282.932 1.922 1.369.32.233.524.612.932.757v-.087c-.204-.262-.262-.641-.466-.932-.29-.291-.582-.553-.873-.845-.845-1.135-1.893-2.125-3.03-2.941-.931-.641-2.97-1.514-3.348-2.592l-.059-.058c.641-.058 1.398-.291 2.01-.466.99-.262 1.893-.204 2.912-.466.466-.117.932-.262 1.398-.408v-.262c-.524-.524-.903-1.223-1.456-1.718-1.485-1.282-3.116-2.534-4.805-3.582-.903-.583-2.068-.961-3.03-1.456-.349-.175-.931-.263-1.135-.554-.524-.641-.816-1.485-1.194-2.242-.844-1.602-1.66-3.379-2.388-5.068-.524-1.136-.845-2.271-1.485-3.32-3-4.951-6.262-7.95-11.271-10.892-1.078-.611-2.36-.874-3.728-1.194-.728-.029-1.456-.087-2.184-.116-.466-.204-.932-.758-1.34-1.02-1.66-1.048-5.941-3.32-7.164-.32-.787 1.893 1.165 3.757 1.834 4.718.496.67 1.136 1.427 1.486 2.184.204.495.262 1.019.466 1.544.466 1.281.903 2.708 1.514 3.902.32.612.67 1.252 1.078 1.806.233.32.64.466.728.99-.408.582-.437 1.456-.67 2.184-1.048 3.291-.64 7.368.845 9.786.465.727 1.572 2.33 3.058 1.718 1.31-.524 1.019-2.184 1.397-3.641.088-.349.03-.582.204-.815v.058c.408.816.816 1.602 1.194 2.418.903 1.426 2.476 2.912 3.786 3.902.7.524 1.253 1.427 2.126 1.747v-.087h-.058c-.175-.262-.437-.379-.67-.582-.524-.525-1.106-1.165-1.514-1.748-1.223-1.631-2.3-3.436-3.262-5.3-.466-.903-.874-1.893-1.252-2.796-.175-.35-.175-.874-.466-1.048-.437.64-1.078 1.194-1.398 1.98-.553 1.252-.612 2.796-.816 4.397-.116.03-.058 0-.116.059-.932-.233-1.252-1.194-1.602-2.01-.874-2.068-1.02-5.388-.262-7.776.204-.611 1.078-2.533.728-3.116-.174-.553-.757-.874-1.077-1.31a11.79 11.79 0 0 1-1.049-1.864c-.699-1.631-1.048-3.437-1.805-5.068-.35-.757-.962-1.543-1.457-2.242-.553-.787-1.165-1.34-1.601-2.272-.146-.32-.35-.844-.117-1.194.058-.233.175-.32.408-.378.378-.321 1.456.087 1.835.262 1.077.436 1.98.844 2.883 1.456.407.291.844.844 1.368.99h.612c.932.204 1.98.058 2.854.32 1.544.495 2.942 1.223 4.194 2.01 3.815 2.417 6.96 5.854 9.087 9.96.349.67.494 1.281.815 1.98.612 1.427 1.369 2.884 1.98 4.281.612 1.369 1.194 2.767 2.068 3.903.437.611 2.184.932 2.97 1.252.583.262 1.486.495 2.01.816.99.611 1.98 1.31 2.912 1.98.467.349 1.922 1.078 2.01 1.66Z"/><path d="M34.305 463.133a4.58 4.58 0 0 0-1.194.146v.058h.059c.233.466.64.786.931 1.194.233.466.437.932.67 1.398l.058-.058c.408-.292.612-.758.612-1.457-.175-.203-.204-.407-.35-.611-.174-.292-.553-.437-.786-.67Z"/></g><path fill="#20D3BD" d="M91.663 668.908h-8.392c-.198 0-.463 0-.661.064-.462.064-.793.513-.793.961 0 .513.397.898.925.898h15.661c1.322 0 2.71.064 3.965.449 3.304.897 5.749 2.82 7.071 5.962.859 2.051.925 4.231.661 6.41-.397 3.142-1.52 6.026-3.767 8.334-3.172 3.334-7.203 4.873-11.894 5.001h-2.313c-.661.064-1.058.513-1.058 1.09.067.577.397.897 1.124.897 1.652 0 3.37 0 5.022-.192 4.956-.77 8.921-3.013 11.762-7.052 1.85-2.628 2.776-5.513 3.106-8.719.198-2.115.066-4.231-.727-6.282-1.718-4.552-6.41-7.757-11.63-7.821h-8.062Zm-5.154 23.207h8.723c4.03 0 7.467-2.244 8.92-5.898.727-1.924.992-3.847.331-5.834-.925-2.757-3.569-4.552-6.542-4.552H79.438c-.528.064-.793.513-.727 1.026.067.513.33.769.793.833.595.064 1.19.129 1.785.129h16.718c1.586 0 2.841.641 3.833 1.859.859 1.09 1.057 2.308.925 3.718-.199 1.731-.859 3.269-2.049 4.487-1.388 1.475-3.238 2.244-5.286 2.244H77.72c-.33 0-.66 0-.99.064-.464.193-.728.513-.662 1.026.066.513.397.769.925.833h.595l8.921.065ZM73.161 677.69h2.246c.53 0 .86-.32.926-.833.066-.513-.265-.898-.793-1.026-.265-.064-.595-.128-.86-.064h-2.775c-.33 0-.66 0-1.057.064-.595.128-.925.577-.86 1.026.067.449.53.897 1.058.897l2.115-.064Zm12.555 21.348h1.916c.661 0 1.058-.384 1.058-.897v-.064c0-.513-.397-.962-.926-.962a22.614 22.614 0 0 0-4.163 0c-.528.064-.991.513-.925 1.09.066.513.463.833 1.124.833h1.916Z"/><mask id="d" width="42" height="43" x="444" y="42" maskUnits="userSpaceOnUse" style="mask-type:luminance"><path fill="#fff" d="M485.609 42.364h-40.943v42.183h40.943V42.364Z"/></mask><g fill="#20D3BD" fill-rule="evenodd" clip-rule="evenodd" mask="url(#d)"><path d="m466.117 84.712-1.089-.384s.133-5.725-1.861-6.136c-1.329-1.588.213-67.383 4.997-.219 0 0-1.648.85-1.94 2.3-.319 1.425-.107 4.439-.107 4.439Z"/><path d="m466.117 84.712-1.089-.384s.133-5.725-1.861-6.136c-1.329-1.588.213-67.383 4.997-.219 0 0-1.648.85-1.94 2.3-.319 1.425-.107 4.439-.107 4.439Z"/><path d="M466.702 79.178s9.542-6.464 7.309-19.913c-2.153-9.78-7.229-12.984-7.787-14.217-.612-.876-1.196-2.41-1.196-2.41l.398 27.2c0 .027-.824 8.327 1.276 9.34Z"/><path d="M466.702 79.178s9.542-6.464 7.309-19.913c-2.153-9.78-7.229-12.984-7.787-14.217-.612-.876-1.196-2.41-1.196-2.41l.398 27.2c0 .027-.824 8.327 1.276 9.34Z"/><path d="M464.47 79.534s-8.957-6.3-8.426-17.393c.505-11.094 6.831-16.545 8.053-17.53.798-.877.824-1.206.878-2.083.558 1.233.451 18.435.531 20.462.239 7.806-.425 15.065-1.036 16.544Z"/><path d="M464.47 79.534s-8.957-6.3-8.426-17.393c.505-11.094 6.831-16.545 8.053-17.53.798-.877.824-1.206.878-2.083.558 1.233.451 18.435.531 20.462.239 7.806-.425 15.065-1.036 16.544Z"/></g><mask id="e" width="43" height="42" x="241" y="96" maskUnits="userSpaceOnUse" style="mask-type:luminance"><path fill="#fff" d="M283.98 96.257h-42.183v40.942h42.183V96.257Z"/></mask><g fill-rule="evenodd" clip-rule="evenodd" mask="url(#e)"><path fill="#20D3BD" d="M265.896 101.916s3.821-3.122 6.368-2.472c2.882.716 6.434 6.506 5.831 7.091l-1.408 5.204c1.206 2.277 3.083 5.14 2.949 7.351-.268.976 4.222-1.756 4.289.326-.804 5.074-3.552 11.514-10.455 7.546l-2.413 1.691c-2.011-.716-2.815-2.472-5.094-2.732l-1.675 3.122 2.815 4.749c.737.846 3.15.586 6.233.521l2.212-.131c-1.877.781-3.955 1.302-5.831 2.082-3.284.976-4.491.781-5.496.325-1.073-.39-2.748-.91-3.552-1.301-6.234-3.382-6.703-6.7-7.373-9.692-.737-6.376 1.005-8.587 3.083-9.953-1.474.325-8.512 1.756-8.646.13-1.474-3.383-3.887-5.66-5.898-8.392-.469-2.017.402-4.033 2.011-6.05l3.619.195c1.609-1.691 2.614-4.358 4.96-4.944.201-.52 13.136 4.359 13.471 5.334Z"/><path fill="#20D3BD" d="M277.29 112.975c1.14 1.692 2.011 3.513 2.279 5.465l-.603 1.301c-.536-.195-1.274-.391-1.676-.651.268-.325.402-.65.402-.91 0-.131-.067-.196-.268-.326.469.065.939.065 1.408.065.134-.065.335-.13.134-1.171a12.085 12.085 0 0 0-.67-1.301l-1.341-.455c.201-.065.469-.065.469-.39l-.134-1.627Zm5.764 6.245c.402-.26.201-.325 0-.195-1.407.716-2.48.781-3.217.521.469.52 1.341 1.301 3.217-.326Z"/><path fill="#20D3BD" d="M283.188 118.83c2.681.846-2.547 13.856-9.852 8.457l-1.944 1.301c-1.876-.781-1.608-.976-1.541-1.236l1.206-2.927c2.949 2.276 6.568 5.854 10.255.195 1.139-1.496 1.675-2.863 1.943-4.619 0-.39.134-.781-.067-1.171Zm-12.6 4.879-.67.976c.067-.26 1.541-.781 2.01-.781l-1.34-.195Zm3.753-6.375c.067.325.201.65.067 1.041l.738.455c-1.475.13-3.084.065-4.156 1.236l.536-1.106c-.134-.325-.201-.976-.134-.911.067 0-.402-.065-.469-.065l3.418-.65Zm-2.882-2.732c-.201.065-.268 0-.804 1.886.67-1.106 1.743-1.691 2.815-2.016-.67 0-1.273-.196-2.011.13ZM267.639 136.394c-1.877.586-5.161-.26-6.3-1.171-1.073-.78-.67-1.496-2.212-2.342-3.217-1.691-3.217-4.813-3.753-6.7-.603-3.383 0-7.871 1.34-10.408-2.01.715-3.619 3.643-3.351 8.717.067 3.513 1.274 7.155 7.507 10.994 2.479.78 5.428 2.341 6.769.91Zm1.944-23.484c-3.15-5.659-2.681-6.895-7.708-7.025l-7.373-1.692c2.748.976 4.893 2.082 8.311 2.928.067.325.134.65-.067.78-.737.326-1.407.456-2.144.651 3.619.13 6.769 1.301 8.981 4.358Zm.335-8.522c-5.429-3.968-11.528-6.375-17.962-7.806l-1.944 2.407c6.099 1.561 11.26 3.253 16.555 5.595 2.144 1.756 3.753 4.553 5.428 6.83-.536-2.537-1.139-4.749-2.077-7.026Zm5.026 1.171-2.211-4.033c-1.408-1.236-1.877-.976-2.547-1.171 2.145.976 2.681 3.058 3.686 4.229.469.78 1.408 2.797 1.408 2.797l-.336-1.822Zm3.553.521c-2.547-4.879-4.491-6.115-6.301-6.57.202.195.336.455.537.65l3.887 5.074c.469 1.106.067 3.903-.134 5.66l2.011-4.814Z"/><path fill="#020D10" d="M268.778 111.089c-.67-1.431-1.072-3.578-2.412-4.684-1.609-.52-4.022-.39-6.234-.455 1.877.455 4.692.455 6.032 1.301 0 .065 0 .13-.134.13-.335-.065-.67-.13-1.005-.065-.536.13-1.005.455-1.474.715 1.34-.26 1.742.065 2.748.13 1.072.391 1.742 2.342 2.479 2.928Zm3.955-9.498c.067.455.134.911.536 1.431.737.781 1.005 1.366 1.139 1.627l.939 2.732-.537-2.863c-.134-.455-1.742-2.927-2.077-2.927Zm5.63 13.791-.805-.195h.671l.134.195Zm-4.826-.845c-1.34.195-1.676.26-2.547 1.171.134-.326.134-.716.402-1.106.738-.196 1.408-.196 2.145-.065Zm8.579 5.139c-1.609.52-1.676.065-2.279-.13.402.455.871.78 1.743.585 1.139-.325 1.206-.65 1.608-.911l-1.072.456Zm-3.15 0-.268.65-.335-.13v-.26c-.604-.26-1.81-.325-1.81-.26-.402.39-.737.91-1.072 1.366.469-.325.804-.911 1.474-1.041l1.005.195c-.201.065-.603.065-.603.13-.469.586-.804 1.301-1.273 1.887.536-.586.737-1.171 1.742-1.692.067-.065.671-.065.939.131-.067.325-.268.715-.469 1.04-.268.521-.671 1.041-1.006 1.562 1.073-1.301.805-.781 1.475-1.627l.871-2.211-.67.26Zm-7.038 4.228c-1.273 0-1.273 0-2.144.846 0-.325.067-.651.603-1.041 0 0 1.407.13 1.541.195Zm-1.005-6.05c1.274-.78 2.145-1.041 3.686-.65l-.603.195c.067 0 .402 1.041.134 1.106l1.006.26c-1.274.065-2.48 0-3.62.52l.536-.455c0 .13-.201-.716-.134-1.041-.067-.065-1.005.065-1.005.065Z"/><path fill="#020D10" d="m279.703 119.351-.737.325h-.268l-1.408-.521h.268c.067-.26.134-.65.335-.715.202-.26-.268-.26-.402-.391l.47.131c.603 0 1.273-.065 1.34.585l.201-.13.201.716Z"/><path fill="#20D3BD" d="M272.867 118.18c.067.195.067.325 0 .455-.268 0-.536.065-.738.195-.134.13-.201-.585-.134-.715.201-.131.805-.131.872.065Zm5.429 1.105c-.067.066-.671 0-.671-.13-.067-.13.067-.52.201-.585 0 0 .537-.065.604.195 0 .065-.067.455-.134.52Z"/><path fill="#020D10" d="M260.534 135.288c2.078-.065 4.29.131 6.301-.78l-.738-1.171c-4.691.715-7.908-.651-9.852-1.561h-.335l4.624 3.512Zm-7.372-10.863c2.547 1.756 3.217 3.838 10.992 5.399l.804 1.821c-3.753.131-8.244-1.691-10.858-3.252l-.938-3.968Zm2.413-8.197c-.871 1.041-1.609 2.082-2.145 3.838.536 2.212 5.027 7.156 11.126 7.806.134 0 .335-.91.335-.91-2.078-.976-3.753-2.147-5.429-3.318-2.748-2.017-3.418-4.359-3.887-7.416Zm2.949-1.756c1.943-.651 3.753-.976 5.563-1.367-.402 1.497-.604 2.472-.201 5.4.268.911 2.01 1.626 3.351 1.951-.603 1.041-1.743 2.733.67 4.554.335.521.603 1.041.871 1.561-1.072.065-2.077.196-3.552-.26-1.072-.52-1.273-.911-2.011-1.756-1.943-3.188-3.887-6.636-4.691-10.083Z"/><path fill="#020D10" stroke="#020D10" stroke-linecap="round" stroke-linejoin="round" stroke-width=".008" d="M251.889 96.257c3.552.26 7.372 1.626 7.975 2.147 1.274.585 2.48 1.17 3.485 1.691.135.065.939.716 2.681 1.496.805-.39 1.475-1.236 2.279-1.691.536-.39 1.207-.52 1.944-.65.603-.13 2.48.064 2.949.26 1.675.715 2.547 1.886 3.619 3.382.469.716.804 1.366 1.139 1.952.269.585.671 1.171.671 1.626 0 .26-.201.455-.335.781-.47 1.301-.939 2.342-1.14 3.838 0 .195-.134.455-.134.846v.195l-.067.39c-.067.26 0 .455 0 .846 0 0-.67-1.431-.469-2.537 0-.261.737-2.342.871-2.668.134-.52.268-.975.402-1.496.134-.65 0-1.041-.268-1.626-1.206-2.277-3.284-4.489-4.088-5.074-.067-.065-.737-.195-.938-.325-.201 0 .268.52.268.52-.268.26-1.542-1.04-3.687-.13-.469.195-.804.455-1.139.715a8.056 8.056 0 0 0-1.072 1.041c0 .065.201.261.603.456 1.005.585 2.748 1.821 3.15 2.342.134.13.67 2.927 1.206 4.748.134.586 1.408 1.171 1.408 1.171-.268 0-.938-.195-1.274-.26-.067.195.201 1.496.201 1.496s-.268-.585-.603-2.081c-.469-1.431-.938-2.993-1.608-4.359-.671-.911-2.949-2.602-3.754-2.862-.871-.456-1.809-.911-2.815-1.431-2.479-1.301-5.562-3.188-10.522-3.969-.536.066-.804.196-1.408.456-1.407 1.236-1.742 2.667-3.887 3.838.067.13.201.26.402.26 1.408.26 3.619 1.626 5.563 2.667 0 0-2.614-1.171-4.624-1.886a13.24 13.24 0 0 0-1.944-.456c-.737-.065-1.743-.065-2.815-.13-1.005.976-1.609 1.952-1.944 3.188-.134 1.301.134 1.756.201 2.212.335 1.496 1.609 2.862 3.15 4.293.403.39.872.781 1.207 1.236.603.911.804 2.537 1.474 3.448.134.13 1.81 0 2.815.13.469.065.872.065 1.341 0 1.407-.325 2.346-.65 3.418-.976.469-.26 2.212-.845 2.681-.976l.134.651a7.589 7.589 0 0 0-2.815 1.171c-.201.065-.402.39-.536.65-2.949 3.643-1.877 8.392-1.073 11.19.537 1.17 1.207 2.732 1.877 3.577 1.206 1.171 2.614 2.407 4.155 3.318l.201.13c1.274.781 2.681 1.366 4.089 1.561.737.131 4.155.586 2.614-1.366 0-.065-.402-.39-.536-.845l-.738-.976c-.804-1.171-2.144-3.123-1.809-3.643 0-.651.134-1.431.335-1.887.268-.65.536-1.236.737-1.626l2.279-1.561c.402.65.938 1.171 1.34 1.951.805 2.017 2.681 2.147 4.29.586l.469-.39c1.206.585 2.413 1.561 4.692 1.171 1.876-.261 3.15-2.212 4.356-4.424.536-1.236.938-2.602 1.005-3.773 0-.065-.067-1.171-.603-1.106-.871.065-.804.52-1.809.716-.604-.065-1.408.065-1.408 0-.402-.586.067-1.627-.469-2.472-.134-.131-1.609-2.863-1.877-4.034-.067-.325-.268-.325-.268-.325l.067-.52s.536.455.737.65c.47.456.805 1.561.872 1.757.402.715.938 1.691 1.407 2.602.067.065.201.65.067 1.821h-.469c1.408.13 1.944-.52 3.351-.911.402-.065.871.521 1.207 1.106.268.261-.671 5.335-3.486 8.457-2.211 1.822-5.428 1.366-7.439 0-.67.911-1.274 1.952-4.021 1.171-.805-.52-.939-1.236-1.274-1.951-.536.13-.938.065-1.81-.066-.268 0-.402 0-.603.456l.738 1.041c.268.325.536.91 2.211 1.561.201.065.738.065.738.065l-.202.065c-.804.26-1.943-.26-1.943-.195-.871-.26-1.542-.781-2.078-1.431.067.585.067 1.171.268 1.691.134.39.201.521.335.846.067.065.335.13.738.26.134.065.603.195.871.26.804.065 1.675 0 1.675 0-.536.521-2.01.456-2.748.391.269.52.537 1.04.738 1.561.134.26.067.26 1.675.455-.737.065-1.206.26-1.407.26-.134 0 .067.391.134.456.335.325.804.325 1.206.39 1.944.195 6.099-.13 6.099-.13s-4.691 1.626-7.037 2.277c-.871.195-1.81.26-2.614.195-4.692-1.041-8.043-3.643-9.517-5.725-.536-.715-1.005-1.756-1.274-2.407-.536-1.431-.871-2.667-1.072-4.228-.335-3.448.201-5.595 1.944-8.002.201-.26.67-.52.737-.715-.536-.065-1.139.195-1.81.325-.67.195-1.474.325-2.144.456-.47.065-1.006.065-1.341.065-.871-.065-1.809-.065-2.547-.196-.335-.065-.268-.065-.402-.325-.335-.715-.67-1.756-1.072-2.537-.536-1.171-1.341-1.951-2.681-3.253-1.475-1.561-3.083-3.512-2.48-5.919.268-.976 1.005-2.472 1.609-3.253.536-.52 1.072-.716 1.675-.455.603.065.871 0 1.207 0 .737-.065 1.34-.326 1.541-.521 1.005-.715 1.743-1.756 2.748-2.732a11.52 11.52 0 0 1 1.676-1.496Zm21.112 30.9-.402-.521c-.201.131-.335.261-.604.716-.134.195-.268.325-.402.325-.536.065-1.072-.065-1.675-.455.067.26.603.52.938.781-.335 0-.871 0-1.005-.196-.536-.715-.469-.91-.335-1.106.536-.715 1.206-1.366 1.407-2.341.603.845 1.475 1.626 2.48 2.407l-.402.39Z"/></g><mask id="f" width="43" height="43" x="82" y="250" maskUnits="userSpaceOnUse" style="mask-type:luminance"><path fill="#fff" d="M124.57 250.798H82.387v42.183h42.183v-42.183Z"/></mask><g fill="#20D3BD" mask="url(#f)"><path d="M102.049 259.536c-1.722-2.582-2.094-6.033-2.175-7.451-4.374.946-8.718 2.642-8.467 3.892.031.157.229.345.558.529l-.514.92c-.628-.352-.982-.758-1.078-1.243-.283-1.414 1.318-2.692 4.894-3.91 2.442-.832 4.905-1.328 5.009-1.349l.63-.126v.644c0 .044.027 4.521 2.02 7.51l-.877.584ZM103.806 292.981h-.265c-8.636 0-18.248-2.713-19.384-7.252-.692-2.773 1.573-5.837 6.552-8.857l.548.9c-4.48 2.719-6.638 5.453-6.076 7.702.986 3.94 10.095 6.397 18.084 6.452.95-1.42 6.054-9.763 3.141-20.952l1.019-.266c3.32 12.749-3.392 21.968-3.46 22.06l-.159.213Z"/><path d="M88.182 289.087c-.569 0-.85-.063-.897-.074a.524.524 0 0 1-.381-.371.525.525 0 0 1 .136-.515c.076-.076 7.588-7.599 8.602-13.682l1.039.173c-.872 5.233-6.025 11.199-8.071 13.396 2.044-.117 7.206-1.074 17.115-6.62-7.733-.848-8.956-7.039-8.969-7.105l1.037-.191c.049.259 1.292 6.337 9.745 6.337h.009a.527.527 0 0 1 .264.984c-11.845 6.862-17.588 7.667-19.629 7.668Z"/><path d="M93.024 291.611a.527.527 0 0 1-.307-.957c.036-.026 1.912-1.41 3.907-4.457a21.113 21.113 0 0 1-2.315-1.199c-.936-.562-1.644-1.165-2.172-1.783-2.709.715-5.21.998-7.406.811l.088-1.05c1.978.168 4.227-.066 6.665-.675-1.659-2.834-.136-5.647-.115-5.684l.921.513c-.071.129-1.334 2.499.263 4.884 2.32-.666 4.796-1.652 7.357-2.933a33.835 33.835 0 0 0 1.292-6.616.53.53 0 0 1 .744-.428c.034.016 3.442 1.572 5.909 2.587a.527.527 0 0 1 .096.923 65.892 65.892 0 0 1-7.146 4.262 28.71 28.71 0 0 1-2.593 5.894c3.903 1.459 7.29 1.481 7.334 1.481a.526.526 0 0 1 .256.989c-4.787 2.659-12.406 3.407-12.728 3.438h-.05Zm4.623-4.99c-1.097 1.701-2.174 2.923-2.979 3.721 2.106-.31 5.799-.989 8.864-2.255a25.026 25.026 0 0 1-5.885-1.466Zm-4.367-3.728c.414.413.931.817 1.571 1.202.776.466 1.563.861 2.34 1.196a27.522 27.522 0 0 0 2.259-4.816c-2.131 1.014-4.199 1.824-6.17 2.418Zm8.893-9.596a35.675 35.675 0 0 1-.963 5.113 65.65 65.65 0 0 0 5.337-3.19 221.475 221.475 0 0 1-4.374-1.923ZM96.609 258.822a.532.532 0 0 1-.343-.126c-1.698-1.453-3.695-4.409-3.78-4.535a.527.527 0 0 1 .69-.757c.011.003.989.406 7.609 1.509a.526.526 0 0 1 .305.873c-1.853 2.059-4.195 2.966-4.294 3.003a.554.554 0 0 1-.187.033Zm-2.401-4.063c.665.895 1.624 2.104 2.501 2.919a11.786 11.786 0 0 0 2.893-1.895c-2.724-.465-4.385-.796-5.394-1.024Z"/><path d="M100.74 273.371a.527.527 0 0 1-.524-.582c.308-2.898-4.139-4.061-4.184-4.071a.529.529 0 0 1-.243-.884c.219-.218 5.418-5.375 11.942-8.206a.526.526 0 0 1 .727.589c-1.251 6.056-7.075 12.698-7.321 12.977a.538.538 0 0 1-.397.177Zm-3.572-5.392c1.249.469 3.435 1.555 3.989 3.538 1.527-1.906 4.788-6.297 6.006-10.474-4.625 2.225-8.52 5.58-9.995 6.936Z"/><path d="m91.5 277.546-.5-.927c1.985-1.071 4.259-3.04 6.122-5.329-1.586 1.086-2.494 1.829-2.522 1.854l-.674-.812c.041-.034 1.86-1.526 4.883-3.395.829-1.335 1.467-2.707 1.795-4.023.056-.224.105-.44.144-.649-2.03-.724-3.902-1.153-5.189-1.337a.527.527 0 0 1-.313-.881c.09-.097 2.231-2.391 4.907-3.651a.53.53 0 0 1 .613.12c.07.077 1.518 1.703 1.15 5.066a28.265 28.265 0 0 1 3.68 1.738c2.909-1.308 6.212-2.484 9.73-3.195a.528.528 0 0 1 .595.708c-1.371 3.513-5.046 7.265-5.202 7.423a.531.531 0 0 1-.789-.042c-1.18-1.485-2.724-2.714-4.389-3.714a57.982 57.982 0 0 0-5.992 3.214c-2.13 3.324-5.344 6.376-8.049 7.832Zm15.196-11.559c1.36.877 2.626 1.908 3.673 3.108.873-.947 2.968-3.34 4.156-5.716-2.794.643-5.438 1.574-7.829 2.608Zm-4.948-1.343c-.035.172-.075.348-.119.527-.221.885-.574 1.793-1.025 2.7a59.404 59.404 0 0 1 3.815-2.001 26.882 26.882 0 0 0-2.671-1.226Zm-5.009-2.583a30.65 30.65 0 0 1 4.155 1.145c.16-1.943-.365-3.133-.682-3.661-1.451.757-2.721 1.822-3.473 2.516Z"/><path d="M96.741 267.151c0 4.618-3.848 8.287-6.62 10.965-.465.453-2.035.527-2.035.527.39-.401.832-.823 1.307-1.276 2.636-2.551 6.294-6.041 6.294-10.216 0-4.945-1.993-6.895-3.564-8.455-.695-.707-1.286-1.381-1.644-2.204l.327-.137c.358.158.77.338 1.086.475.253.369.59.727.98 1.117 1.613 1.613 3.87 3.827 3.87 9.204Z"/><path d="M122.977 268.515s-.638.091-.817.112c-9.235 1.023-18.766 3.68-24.217 5.862-1.971.791-4.017 1.75-5.883 2.826-.01.01-.021.01-.042.021-1.096.632-3.764 1.939-5.925 3.089 3.163-3.364 9.088-5.957 11.45-6.906 5.345-2.14 14.528-4.723 23.563-5.83-1.065-1.244-3.669-3.88-8.793-5.841-2.994-1.16-7.549-1.813-11.565-2.393-6.389-.917-10.027-1.529-10.375-3.268a1.617 1.617 0 0 1 .137-1.034c.348.57.844.97 1.171 1.202.158.106.274.169.316.19l.011.011c1.497.79 5.535 1.37 8.898 1.855 4.069.591 8.677 1.255 11.787 2.446 7.243 2.794 9.741 6.79 9.847 6.958.095.159.437.7.437.7Z"/></g></g><g opacity=".66"><mask id="g" width="43" height="43" x="291" y="188" maskUnits="userSpaceOnUse" style="mask-type:luminance"><path fill="#fff" d="M333.196 188.044h-42.183v42.183h42.183v-42.183Z"/></mask><g fill="#20D3BD" mask="url(#g)"><path d="M322.357 198.589c-3.616 0-6.948 2.035-10.168 5.591-3.164-3.612-6.552-5.591-10.336-5.591-6.267 0-10.84 4.473-10.84 10.493 0 6.021 4.573 10.437 10.84 10.437 3.851 0 6.836-1.806 10.168-5.406 3.22 3.611 6.496 5.417 10.336 5.417 6.267-.011 10.84-4.411 10.84-10.448 0-6.037-4.573-10.493-10.84-10.493Zm-20.46 14.613c-2.655 0-4.237-1.75-4.237-4.064s1.582-4.114 4.237-4.114c2.236 0 4.064 1.8 6.043 4.226-1.867 2.258-3.84 3.952-6.043 3.952Zm20.27 0c-2.202 0-4.064-1.75-6.043-4.064 2.035-2.426 3.785-4.114 6.043-4.114 2.656 0 4.221 1.822 4.221 4.114s-1.565 4.064-4.221 4.064Z"/><path d="m316.733 218.025 4.215-5.032c-1.677-.503-3.226-2.012-4.83-3.885l-4.103 5.003a18.425 18.425 0 0 0 4.718 3.914ZM312.176 204.171a18.95 18.95 0 0 0-4.69-4.002l-4.22 5.087c1.604.559 3.024 2.001 4.533 3.84l.168.118 4.209-5.043Z"/></g><mask id="h" width="44" height="44" x="288" y="727" maskUnits="userSpaceOnUse" style="mask-type:luminance"><path fill="#fff" d="M331.104 727.862h-42.183v42.183h42.183v-42.183Z"/></mask><g fill="#20D3BD" mask="url(#h)"><path d="M307.242 727.862c.088.058.175.123.266.178 1.138.657 2.277 1.311 3.415 1.972.091.051.178.11.308.191-.133.084-.237.152-.34.21l-16.06 9.278c-.53.307-1.061.618-1.598.916-.171.094-.243.201-.239.401.003 5.306.003 10.608.003 15.914v.217c1.333.77 2.659 1.538 4.04 2.334.006-.175.013-.295.013-.418 0-5.163 0-10.326.003-15.489 0-.56-.081-.415.401-.693l17.513-10.119c.055-.033.116-.059.168-.098.132-.103.249-.074.385.007.443.265.892.518 1.342.777 2.759 1.596 5.518 3.192 8.284 4.778.213.123.301.252.291.505a27.707 27.707 0 0 0 0 1.777c.01.259-.074.398-.301.531-3.241 1.861-6.475 3.732-9.713 5.6-1.941 1.12-3.879 2.243-5.823 3.357-.223.126-.307.262-.307.524.01 5.95.007 11.9.007 17.853v.434c-.101.062-.198.13-.298.188-.505.291-1.009.579-1.511.874-.09.052-.168.123-.252.184h-.129c-.068-.048-.133-.103-.204-.145-.447-.263-.896-.515-1.342-.78-.421-.25-.363-.12-.366-.619v-20.28c0-.065.006-.13 0-.195-.019-.162.049-.265.197-.33.059-.026.114-.065.169-.097 4.486-2.59 8.972-5.183 13.459-7.772.107-.062.213-.13.343-.211-.12-.074-.201-.126-.285-.175-1.158-.666-2.316-1.33-3.467-2.01-.214-.126-.363-.133-.583-.006-4.519 2.619-9.044 5.231-13.569 7.843-.055.033-.11.072-.168.097-.11.052-.165.13-.152.256.006.084 0 .172 0 .259v20.666c-.139-.074-.233-.12-.324-.172-2.322-1.34-4.645-2.68-6.967-4.023-1.64-.949-3.28-1.901-4.92-2.849 0-.152-.003-.301-.003-.453v-20.203c0-.152-.007-.301-.01-.453.036-.026.068-.052.104-.075 5.984-3.457 11.964-6.914 17.949-10.368.084-.042.184-.059.271-.088Z"/><path d="M313.385 766.436v-4.704l7.941-4.587v-4.502c-2.646 1.518-5.263 3.042-7.922 4.567-.016-.091-.036-.146-.036-.204-.003-1.424.004-2.845-.006-4.27-.003-.204.1-.281.246-.365 1.931-1.114 3.862-2.231 5.79-3.344 1.892-1.095 3.784-2.185 5.68-3.28.1-.058.204-.11.339-.181.007.143.017.246.017.346 0 4.419 0 8.838.006 13.257 0 .233-.065.362-.272.482-3.836 2.208-7.666 4.422-11.499 6.636-.087.055-.171.094-.284.149Z"/></g><path fill="#20D3BD" d="M158.202 459.218c-.108 0-.217.054-.325.108l-3.839 2.326-3.84-2.271c-.217-.109-.487-.109-.649 0l-7.788 4.759a.594.594 0 0 0-.324.54v4.76l-3.678 2.163a.594.594 0 0 0-.324.541v7.787c0 .217.108.433.324.541l3.678 2.109v4.868c0 .216.108.432.324.54l7.842 4.814c.216.108.487.108.649 0l3.84-2.272 3.785 2.326c.217.108.487.108.649 0l7.842-4.814a.594.594 0 0 0 .324-.54v-4.759l3.678-2.11a.594.594 0 0 0 .324-.54v-7.896a.594.594 0 0 0-.324-.541l-3.678-2.109v-4.813a.594.594 0 0 0-.324-.541l-7.788-4.868a1.001 1.001 0 0 0-.378-.108Zm0 1.406 7.193 4.435v1.568l-1.839.054c-.271-.703-.974-1.243-1.785-1.243a1.916 1.916 0 0 0-1.893 1.892c0 1.028.866 1.893 1.893 1.893.811 0 1.46-.486 1.731-1.189l1.893-.055v1.893c0 .217.108.433.324.541l3.678 2.109v6.382l-2.542-1.46c0-.109.054-.217.054-.325a1.938 1.938 0 0 0-1.947-1.947 1.938 1.938 0 0 0-1.947 1.947c0 1.082.865 1.947 1.947 1.947.487 0 .919-.162 1.298-.487l2.488 1.406-3.029 1.731a.594.594 0 0 0-.324.541v4.759l-7.193 4.381-3.515-2.164v-3.461l3.136.054c.271.703.974 1.19 1.731 1.19a1.916 1.916 0 0 0 1.893-1.893 1.917 1.917 0 0 0-1.893-1.893c-.811 0-1.514.541-1.785 1.244l-3.137-.054v-8.274a.594.594 0 0 0-.324-.541l-3.84-2.326-.649 1.136 3.515 2.109v2.812l-2.704 1.569v-2.272a.665.665 0 0 0-.27-.54l-3.677-2.38v-3.191l3.677-2.055a.595.595 0 0 0 .325-.541v-3.785h-1.298v3.407l-3.353 1.893-3.299-2.001v-4.381l2.704-1.676v4.002h1.298v-4.814l3.136-1.947 3.57 2.11v7.463c0 .216.108.432.324.541l4.002 2.487c-.054.163-.054.325-.054.487 0 1.082.865 1.893 1.947 1.893s1.947-.865 1.947-1.893-.865-1.947-1.947-1.947c-.433 0-.811.162-1.136.379l-3.731-2.326v-7.139l3.407-2.055Zm3.569 6.112a.6.6 0 0 1 .595.594.6.6 0 0 1-.595.595.6.6 0 0 1-.595-.595c.054-.324.271-.594.595-.594Zm-19.631 3.839 3.353 1.947v3.191l-3.678 2.001.595 1.136 3.678-2.001 3.353 2.163v2.704l-4.165 2.434.649 1.135 7.464-4.38v8.599l-3.516 2.055-2.812-1.731 3.029-1.839-.649-1.081-3.57 2.163-3.136-1.947v-4.489l3.407-1.947-.649-1.135-3.407 1.947-3.353-1.893v-3.137l3.515-2.163-.649-1.082-2.812 1.731v-2.38l3.353-2.001Zm17.414 2.596c.378 0 .649.271.649.649a.658.658 0 0 1-.649.649.657.657 0 0 1-.649-.649c.054-.378.324-.649.649-.649Zm5.408 3.353c.378 0 .649.271.649.649a.625.625 0 0 1-.649.649.624.624 0 0 1-.649-.649c0-.378.27-.649.649-.649Zm-5.354 8.221a.6.6 0 0 1 .595.594.6.6 0 0 1-.595.595.6.6 0 0 1-.595-.595.6.6 0 0 1 .595-.594Z"/></g><mask id="i" width="41" height="41" x="265" y="357" maskUnits="userSpaceOnUse" style="mask-type:luminance"><path fill="#fff" d="M305.94 357H265v40.94h40.94V357Z"/></mask><g fill="#29B5E8" mask="url(#i)"><path d="m300.083 388.202-8.639-4.993a2.542 2.542 0 0 0-3.795 2.447v9.757a2.53 2.53 0 0 0 5.056 0v-5.611l4.84 2.796a2.537 2.537 0 0 0 3.468-.931 2.531 2.531 0 0 0-.93-3.465ZM278.598 377.503a2.49 2.49 0 0 0-1.239-2.193l-8.639-4.988a2.487 2.487 0 0 0-3.387.908 2.484 2.484 0 0 0 .908 3.389l4.98 2.873-4.98 2.877a2.458 2.458 0 0 0-1.155 1.505 2.465 2.465 0 0 0 .247 1.883 2.484 2.484 0 0 0 3.387.909l8.639-4.989a2.493 2.493 0 0 0 1.239-2.174ZM270.68 366.786l8.639 4.989a2.536 2.536 0 0 0 3.045-.383 2.518 2.518 0 0 0 .816-1.861v-10a2.53 2.53 0 1 0-5.056 0v5.692l-4.906-2.833a2.537 2.537 0 1 0-2.538 4.396ZM290.105 377.908c0 .191-.11.456-.246.596l-3.424 3.425a.97.97 0 0 1-.596.246h-.871a.97.97 0 0 1-.596-.246l-3.428-3.425a.982.982 0 0 1-.246-.596v-.872c0-.195.11-.46.246-.596l3.428-3.429a.97.97 0 0 1 .596-.246h.871c.192 0 .46.11.596.246l3.424 3.429a.963.963 0 0 1 .246.596v.872Zm-3.056-.42v-.036a.727.727 0 0 0-.18-.438l-1.011-1.008a.693.693 0 0 0-.438-.184h-.037a.709.709 0 0 0-.437.184l-1.008 1.008a.708.708 0 0 0-.18.438v.036c0 .144.081.339.18.438l1.008 1.012c.103.099.298.18.437.18h.037a.71.71 0 0 0 .438-.18l1.011-1.012a.708.708 0 0 0 .18-.438ZM291.444 371.775l8.639-4.989a2.54 2.54 0 1 0-2.538-4.396l-4.84 2.796v-5.655a2.53 2.53 0 1 0-5.056 0v9.801a2.537 2.537 0 0 0 3.795 2.443ZM281.051 382.915a2.521 2.521 0 0 0-1.732.294l-8.639 4.993a2.534 2.534 0 0 0-.93 3.465 2.535 2.535 0 0 0 3.468.931l4.906-2.833v5.648a2.53 2.53 0 0 0 5.056 0v-10a2.53 2.53 0 0 0-2.129-2.498ZM305.482 371.201a2.534 2.534 0 0 0-3.468-.931l-8.639 4.989a2.54 2.54 0 0 0-1.269 2.244 2.534 2.534 0 0 0 1.269 2.222l8.639 4.993a2.54 2.54 0 0 0 2.537-4.4l-4.891-2.826 4.891-2.825a2.533 2.533 0 0 0 .931-3.466Z"/></g><mask id="j" width="42" height="42" x="263" y="559" maskUnits="userSpaceOnUse" style="mask-type:luminance"><path fill="#fff" d="M305 559h-42v42h42v-42Z"/></mask><g fill-rule="evenodd" clip-rule="evenodd" mask="url(#j)"><path fill="#AECBFA" d="M276.537 577.521v9.182c-1.47-.892-2.729-2.151-3.568-3.673v-5.509h3.568Z"/><path fill="#669DF6" d="M283.987 572.432v15.95a14.14 14.14 0 0 1-2.099 0c-.787 0-1.574-.053-2.308-.105v-15.845h4.407Z"/><path fill="#AECBFA" d="M291.017 579.672v3.096c-.839 1.574-2.098 2.885-3.567 3.83v-6.926h3.567Z"/><path fill="#4285F4" d="M296.054 589.064c.368-.368.945-.368 1.26 0l7.45 7.45a.957.957 0 0 1 0 1.259l-2.991 2.991a.957.957 0 0 1-1.259 0l-7.45-7.45a.958.958 0 0 1 0-1.26l2.99-2.99Z"/><path fill="#669DF6" d="M281.888 559c10.441 0 18.888 8.447 18.888 18.888 0 10.441-8.447 18.888-18.888 18.888-10.441 0-18.888-8.447-18.888-18.888 0-10.441 8.447-18.888 18.888-18.888Zm0 32.949c7.765 0 14.061-6.296 14.061-14.061 0-7.712-6.296-14.009-14.008-14.009-7.713 0-14.062 6.297-14.062 14.009 0 7.713 6.297 14.009 14.009 14.061Z"/></g><path stroke="#fff" d="M463.5 306v38M327.996 478.5l-139-1M462.5 657v-42"/><g stroke="#fff" opacity=".5"><path stroke-linecap="round" d="m128.682 288.812 124.13 70.506"/><path d="M119 475.5H81M121.763 668.56l134-72M268.567 818.751l23-40"/><path stroke-linecap="round" d="m463.973 725.508-2.465 144.16M464.496 99.504l-.992 139M278.671 147.224l16.553 33.105"/></g><path stroke="#fff" d="m317.248 394.566 28 16M329.441 238.765l65 122M325.561 721.245l67-122.485M315.76 569.061l32-17.5"/><path fill="#08303A" fill-rule="evenodd" d="m479.172 439.043 12.033 16.837a19.19 19.19 0 0 1 1.438 19.977 19.25 19.25 0 0 1-17.142 10.402h-24.038a19.247 19.247 0 0 1-17.114-10.418 19.191 19.191 0 0 1 1.446-19.961l12.055-16.837A19.26 19.26 0 0 1 463.511 431a19.262 19.262 0 0 1 15.661 8.043Zm-27.68 41.398h24.038a13.42 13.42 0 0 0 11.932-7.263 13.378 13.378 0 0 0-1.006-13.916l-12.033-16.845a13.433 13.433 0 0 0-10.927-5.616 13.433 13.433 0 0 0-10.926 5.616l-12.004 16.845a13.378 13.378 0 0 0-1.006 13.916 13.419 13.419 0 0 0 11.932 7.263Z" clip-rule="evenodd"/><path fill="#11696B" fill-rule="evenodd" d="m474.167 450.068 23.958 33.514a13.075 13.075 0 0 1 .987 13.6 13.112 13.112 0 0 1-11.658 7.099h-47.908a13.11 13.11 0 0 1-11.658-7.099 13.075 13.075 0 0 1 .987-13.6l23.943-33.514a13.117 13.117 0 0 1 10.675-5.49c4.237 0 8.214 2.045 10.674 5.49Zm-34.621 48.395h47.908a7.283 7.283 0 0 0 6.458-3.939 7.263 7.263 0 0 0-.529-7.538l-23.957-33.543a7.289 7.289 0 0 0-11.859 0l-23.95 33.543a7.263 7.263 0 0 0-.53 7.538 7.284 7.284 0 0 0 6.459 3.939Z" clip-rule="evenodd"/><path fill="#20D3BD" fill-rule="evenodd" d="m469.477 461.247 35.16 49.202a7.322 7.322 0 0 1 .549 7.61 7.344 7.344 0 0 1-6.522 3.976h-70.328a7.344 7.344 0 0 1-6.522-3.976 7.322 7.322 0 0 1 .549-7.61l35.16-49.202a7.339 7.339 0 0 1 5.977-3.078 7.339 7.339 0 0 1 5.977 3.078Zm-41.141 54.97h70.328a1.515 1.515 0 0 0 1.231-2.393l-35.168-49.202a1.516 1.516 0 0 0-2.462 0l-35.16 49.202a1.51 1.51 0 0 0-.115 1.571c.259.504.779.821 1.346.822Z" clip-rule="evenodd"/></g></svg>