<svg width="13" height="13" viewBox="0 0 13 13" fill="none" xmlns="http://www.w3.org/2000/svg">
<mask id="mask0_3579_13599" style="mask-type:alpha" maskUnits="userSpaceOnUse" x="0" y="0" width="13" height="13">
<rect x="0.459473" y="0.63916" width="11.722" height="11.722" fill="#D9D9D9"/>
</mask>
<g mask="url(#mask0_3579_13599)">
<path d="M8.9085 10.0323V9.30907H7.83773C7.59415 9.30907 7.38611 9.22282 7.2136 9.05031C7.04109 8.8778 6.95484 8.66976 6.95484 8.42617V4.4249H5.73377V5.14815C5.73377 5.35417 5.6616 5.52934 5.51728 5.67366C5.37295 5.81799 5.19778 5.89016 4.99177 5.89016H3.30109C3.09507 5.89016 2.9199 5.81799 2.77557 5.67366C2.63125 5.52934 2.55908 5.35417 2.55908 5.14815V2.96905C2.55908 2.76304 2.63125 2.58787 2.77557 2.44354C2.9199 2.29921 3.09507 2.22705 3.30109 2.22705H4.99177C5.19778 2.22705 5.37295 2.29921 5.51728 2.44354C5.6616 2.58787 5.73377 2.76304 5.73377 2.96905V3.6923H8.9085V2.96905C8.9085 2.76304 8.98067 2.58787 9.125 2.44354C9.26932 2.29921 9.44449 2.22705 9.65051 2.22705H11.3412C11.5472 2.22705 11.7224 2.29921 11.8667 2.44354C12.011 2.58787 12.0832 2.76304 12.0832 2.96905V5.14815C12.0832 5.35417 12.011 5.52934 11.8667 5.67366C11.7224 5.81799 11.5472 5.89016 11.3412 5.89016H9.65051C9.44449 5.89016 9.26932 5.81799 9.125 5.67366C8.98067 5.52934 8.9085 5.35417 8.9085 5.14815V4.4249H7.68744V8.42617C7.68744 8.47001 7.70153 8.50602 7.72971 8.5342C7.75789 8.56238 7.7939 8.57647 7.83773 8.57647H8.9085V7.85323C8.9085 7.64721 8.98067 7.47204 9.125 7.32771C9.26932 7.18339 9.44449 7.11122 9.65051 7.11122H11.3412C11.5472 7.11122 11.7224 7.18339 11.8667 7.32771C12.011 7.47204 12.0832 7.64721 12.0832 7.85323V10.0323C12.0832 10.2383 12.011 10.4135 11.8667 10.5578C11.7224 10.7022 11.5472 10.7743 11.3412 10.7743H9.65051C9.44449 10.7743 9.26932 10.7022 9.125 10.5578C8.98067 10.4135 8.9085 10.2383 8.9085 10.0323ZM9.64111 5.15755H11.3506V2.95965H9.64111V5.15755ZM9.64111 10.0417H11.3506V7.84382H9.64111V10.0417ZM3.29168 5.15755H5.00117V2.95965H3.29168V5.15755Z" fill="#C1C1D7"/>
</g>
</svg>
