<svg width="1em" height="1em" viewBox="1 1 10 12" fill="none" xmlns="http://www.w3.org/2000/svg">
<path d="M8.91675 11.291C9.67614 11.291 10.2917 10.6754 10.2917 9.91602C10.2917 9.15662 9.67614 8.54102 8.91675 8.54102C8.15736 8.54102 7.54175 9.15662 7.54175 9.91602C7.54175 10.6754 8.15736 11.291 8.91675 11.291Z" stroke="currentColor" stroke-linecap="round" stroke-linejoin="round"/>
<path d="M3.41675 5.79102C4.17614 5.79102 4.79175 5.17541 4.79175 4.41602C4.79175 3.65662 4.17614 3.04102 3.41675 3.04102C2.65736 3.04102 2.04175 3.65662 2.04175 4.41602C2.04175 5.17541 2.65736 5.79102 3.41675 5.79102Z" stroke="currentColor" stroke-linecap="round" stroke-linejoin="round"/>
<path d="M6.625 4.41602H8C8.24312 4.41602 8.47627 4.51259 8.64818 4.6845C8.82009 4.85641 8.91667 5.08957 8.91667 5.33268V8.54102" stroke="currentColor" stroke-linecap="round" stroke-linejoin="round"/>
<path d="M3.41675 5.79102V11.291" stroke="currentColor" stroke-linecap="round" stroke-linejoin="round"/>
</svg>
