<svg width="256" height="256" viewBox="0 0 160 256" fill="none" xmlns="http://www.w3.org/2000/svg">
<path d="M78.8012 1.99095e-05C70.5381 0.00364431 62.95 4.56219 59.0663 11.8557C55.1826 19.1493 55.636 27.9898 60.2454 34.8478L69.7995 25.3071C69.4838 24.3554 69.3245 23.3587 69.3279 22.356C69.3279 17.1463 73.5511 12.9231 78.7608 12.9231C83.9704 12.9231 88.1936 17.1463 88.1936 22.356C88.1936 27.5656 83.9704 31.7888 78.7608 31.7888C77.7625 31.791 76.7705 31.6318 75.8231 31.3172L66.2824 40.8579C74.2275 46.2464 84.7258 45.961 92.3664 40.1486C100.007 34.3363 103.084 24.2948 100.011 15.1999C96.9377 6.10495 88.4012 -0.0127359 78.8012 1.99095e-05Z" fill="#34A853"/>
<path d="M69.9074 65.1544C69.9219 57.6025 67.4763 50.2514 62.9404 44.2134L50.5429 56.5974C54.4201 63.6888 53.0248 72.5032 47.1471 78.0504L53.8849 94.5176C63.868 88.0881 69.9027 77.0287 69.9074 65.1544Z" fill="#FBBC04"/>
<path d="M35.2617 82.9286H34.9383C27.334 82.9292 20.5704 78.096 18.1077 70.9015C15.645 63.7071 18.028 55.7429 24.0376 51.0835C30.0471 46.4241 38.3539 46.1001 44.708 50.2774L56.9843 38.0011C45.0471 28.3235 28.1896 27.577 15.4437 36.1615C2.69784 44.7461 -2.94668 60.648 1.5344 75.3474C6.01548 90.0468 19.5711 100.096 34.9383 100.11C37.3094 100.111 39.6748 99.8763 41.9995 99.4092L35.2617 82.9286Z" fill="#EA4335"/>
<path d="M79.2728 97.1722C71.5137 97.1643 63.7954 98.2948 56.3644 100.528L66.1881 124.528C70.4643 123.468 74.8538 122.934 79.2594 122.937C104.787 122.945 126.755 140.983 131.729 166.021C136.704 191.059 123.3 216.125 99.7138 225.89C76.1278 235.655 48.9283 227.401 34.7479 206.174C20.5675 184.947 23.3554 156.66 41.4066 138.609C45.1732 134.855 49.4733 131.676 54.1679 129.177L44.4521 105.244C8.23575 122.981 -8.91148 165.066 4.59651 203.062C18.1045 241.059 57.969 262.876 97.2542 253.771C136.539 244.667 162.743 207.539 158.161 167.474C153.578 127.409 119.667 97.1567 79.3402 97.1587L79.2728 97.1722Z" fill="#4285F4"/>
</svg>
