<svg width="83" height="87" viewBox="0 0 83 87" fill="none" xmlns="http://www.w3.org/2000/svg">
<circle cx="41.5" cy="43.5" r="41.5" fill="#DEE2EB"/>
<mask id="mask0_5261_99528" style="mask-type:alpha" maskUnits="userSpaceOnUse" x="0" y="2" width="83" height="83">
<circle cx="41.5" cy="43.5" r="41.5" fill="#D9D9D9"/>
</mask>
<g mask="url(#mask0_5261_99528)">
<rect x="-16" y="23" width="70" height="31" rx="4" fill="#8998AE"/>
<path d="M44 23H50C52.2091 23 54 24.7909 54 27V50C54 52.2091 52.2091 54 50 54H48C45.7909 54 44 52.2091 44 50V23Z" fill="#72839C"/>
<path d="M-16 39H44L54 51H-6L-16 39Z" fill="#718093"/>
<path d="M44 39L54 51H44V39Z" fill="#4B5869"/>
<rect x="-3" y="50" width="60" height="31" rx="4" fill="#F5F6FA"/>
<rect x="18" y="64" width="18" height="3" rx="1.5" fill="white"/>
<path d="M-33 16H37L51 23H-19L-33 16Z" fill="#EBEDF6"/>
<g filter="url(#filter0_d_5261_99528)">
<path d="M36 47.9999C30.6667 46.8333 25.0001 40.4999 30 34.9999C37.7417 26.484 53.8609 35.8503 58.5 27.4999C61.0001 22.9999 54.8334 18.3333 52.5 18.4999" stroke="#606F84" stroke-linecap="round" stroke-dasharray="2 2"/>
</g>
</g>
<circle cx="58" cy="54" r="2" fill="#6A708E"/>
<circle cx="58" cy="54" r="2" fill="#6A708E"/>
<circle cx="73" cy="1" r="1" fill="#6A708E"/>
<path d="M49.0897 17.3861C49.8027 17.8921 50.2843 18.5451 50.5011 19.1714C50.7184 19.7988 50.6606 20.3562 50.3788 20.7533C50.0969 21.1505 49.5898 21.389 48.9259 21.3911C48.2632 21.3931 47.4878 21.1541 46.7748 20.6481C46.0618 20.1421 45.5802 19.4891 45.3634 18.8628C45.1461 18.2354 45.2039 17.678 45.4857 17.2809C45.7675 16.8837 46.2747 16.6452 46.9386 16.6432C47.6013 16.6411 48.3767 16.8801 49.0897 17.3861Z" fill="#FDCC4B" stroke="#606F84"/>
<path d="M49.6711 12.6998C50.5427 12.7691 51.2908 13.0833 51.7979 13.5101C52.3058 13.9376 52.5418 14.4459 52.5032 14.9313C52.4646 15.4168 52.1513 15.8814 51.5821 16.2233C51.014 16.5645 50.2256 16.7565 49.3541 16.6872C48.4825 16.6179 47.7344 16.3037 47.2273 15.877C46.7194 15.4495 46.4834 14.9411 46.522 14.4557C46.5606 13.9703 46.874 13.5056 47.4431 13.1638C48.0112 12.8225 48.7996 12.6305 49.6711 12.6998Z" fill="#FDCC4B" stroke="#606F84"/>
<circle cx="47.4587" cy="16.2285" r="3.5" transform="rotate(-54.6377 47.4587 16.2285)" fill="#606F84"/>
<mask id="mask1_5261_99528" style="mask-type:alpha" maskUnits="userSpaceOnUse" x="2" y="7" width="12" height="12">
<rect x="4.86328" y="7" width="8.70389" height="8.70389" transform="rotate(19.2051 4.86328 7)" fill="#D9D9D9"/>
</mask>
<g mask="url(#mask1_5261_99528)">
<path d="M7.19517 12.7085L5.48278 12.112C5.41 12.0866 5.35757 12.0408 5.3255 11.9744C5.29342 11.908 5.29007 11.8383 5.31543 11.7655C5.34079 11.6927 5.38665 11.6403 5.45301 11.6083C5.51937 11.5763 5.58894 11.5729 5.66172 11.5983L7.37411 12.1948L7.9706 10.4824C7.99595 10.4096 8.04183 10.3572 8.10822 10.3251C8.17463 10.293 8.24423 10.2897 8.31704 10.315C8.38985 10.3404 8.44226 10.3862 8.47429 10.4526C8.50632 10.519 8.50965 10.5885 8.4843 10.6613L7.88781 12.3737L9.60021 12.9702C9.67298 12.9955 9.72541 13.0414 9.75749 13.1078C9.78956 13.1742 9.79292 13.2438 9.76756 13.3166C9.7422 13.3894 9.69633 13.4419 9.62997 13.4739C9.56361 13.5059 9.49404 13.5092 9.42127 13.4839L7.70887 12.8874L7.11238 14.5998C7.08703 14.6726 7.04116 14.725 6.97476 14.7571C6.90836 14.7892 6.83875 14.7925 6.76595 14.7672C6.69314 14.7418 6.64072 14.6959 6.60869 14.6296C6.57667 14.5632 6.57333 14.4936 6.59868 14.4209L7.19517 12.7085Z" fill="#1C1B1F"/>
</g>
<mask id="mask2_5261_99528" style="mask-type:alpha" maskUnits="userSpaceOnUse" x="16" y="68" width="19" height="19">
<rect x="16.9507" y="71.21" width="15.0924" height="15.0924" transform="rotate(-8.60942 16.9507 71.21)" fill="#D9D9D9"/>
</mask>
<g mask="url(#mask2_5261_99528)">
<path d="M25.1458 78.0783L22.037 78.549C21.9049 78.569 21.7874 78.541 21.6844 78.4651C21.5815 78.3893 21.5201 78.2852 21.5 78.1531C21.48 78.0209 21.508 77.9034 21.5838 77.8006C21.6597 77.6978 21.7637 77.6363 21.8958 77.6163L25.0046 77.1457L24.5339 74.0368C24.5139 73.9047 24.5418 73.7872 24.6177 73.6843C24.6936 73.5814 24.7976 73.5199 24.9298 73.4999C25.062 73.4799 25.1795 73.5078 25.2823 73.5837C25.3851 73.6595 25.4465 73.7635 25.4665 73.8956L25.9372 77.0045L29.046 76.5338C29.1782 76.5138 29.2957 76.5417 29.3986 76.6176C29.5015 76.6935 29.563 76.7975 29.583 76.9297C29.603 77.0619 29.5751 77.1794 29.4992 77.2822C29.4233 77.385 29.3194 77.4464 29.1872 77.4664L26.0784 77.9371L26.5491 81.0459C26.5691 81.178 26.5412 81.2955 26.4653 81.3984C26.3894 81.5014 26.2854 81.5628 26.1532 81.5828C26.021 81.6028 25.9035 81.5749 25.8007 81.4991C25.6979 81.4232 25.6365 81.3192 25.6165 81.1871L25.1458 78.0783Z" fill="#1C1B1F"/>
</g>
<mask id="mask3_5261_99528" style="mask-type:alpha" maskUnits="userSpaceOnUse" x="61" y="7" width="12" height="12">
<rect x="62.2092" y="7.00586" width="10.0392" height="10.0392" transform="rotate(6.88547 62.2092 7.00586)" fill="#D9D9D9"/>
</mask>
<g mask="url(#mask3_5261_99528)">
<path d="M66.2418 12.865L64.1654 12.6143C64.0772 12.6036 64.0068 12.5648 63.9543 12.4979C63.9018 12.431 63.8809 12.3534 63.8916 12.2651C63.9022 12.1768 63.941 12.1065 64.0079 12.054C64.0748 12.0016 64.1524 11.9807 64.2406 11.9914L66.317 12.2421L66.5678 10.1657C66.5784 10.0775 66.6172 10.0071 66.6842 9.95463C66.7511 9.90214 66.8287 9.88123 66.917 9.89189C67.0053 9.90255 67.0756 9.94133 67.128 10.0082C67.1805 10.0751 67.2013 10.1527 67.1907 10.2409L66.9399 12.3174L69.0164 12.5681C69.1046 12.5787 69.175 12.6175 69.2275 12.6845C69.2799 12.7514 69.3008 12.829 69.2902 12.9173C69.2795 13.0056 69.2407 13.0759 69.1739 13.1283C69.107 13.1808 69.0294 13.2016 68.9411 13.191L66.8647 12.9403L66.614 15.0167C66.6033 15.1049 66.5645 15.1753 66.4976 15.2278C66.4307 15.2802 66.3531 15.3012 66.2648 15.2905C66.1765 15.2798 66.1062 15.2411 66.0537 15.1742C66.0013 15.1073 65.9804 15.0297 65.9911 14.9414L66.2418 12.865Z" fill="#1C1B1F"/>
</g>
<defs>
<filter id="filter0_d_5261_99528" x="23.5662" y="17.9956" width="39.9451" height="38.5044" filterUnits="userSpaceOnUse" color-interpolation-filters="sRGB">
<feFlood flood-opacity="0" result="BackgroundImageFix"/>
<feColorMatrix in="SourceAlpha" type="matrix" values="0 0 0 0 0 0 0 0 0 0 0 0 0 0 0 0 0 0 127 0" result="hardAlpha"/>
<feOffset dy="4"/>
<feGaussianBlur stdDeviation="2"/>
<feComposite in2="hardAlpha" operator="out"/>
<feColorMatrix type="matrix" values="0 0 0 0 0 0 0 0 0 0 0 0 0 0 0 0 0 0 0.25 0"/>
<feBlend mode="normal" in2="BackgroundImageFix" result="effect1_dropShadow_5261_99528"/>
<feBlend mode="normal" in="SourceGraphic" in2="effect1_dropShadow_5261_99528" result="shape"/>
</filter>
</defs>
</svg>
