<svg xmlns="http://www.w3.org/2000/svg" width="24" height="24" viewBox="0 0 24 24" fill="none"><path d="M12.002 15.4945C13.0022 15.4945 13.8516 15.1546 14.5504 14.4747C15.2492 13.7948 15.5986 12.9693 15.5986 11.9981C15.5986 11.0268 15.2486 10.2019 14.5485 9.52336C13.8483 8.84479 12.9982 8.5055 11.998 8.5055C10.9978 8.5055 10.1484 8.84543 9.44956 9.52529C8.75077 10.2052 8.40137 11.0307 8.40137 12.002C8.40137 12.9732 8.75143 13.7981 9.45155 14.4766C10.1517 15.1552 11.0018 15.4945 12.002 15.4945ZM12 14.3143C11.338 14.3143 10.7753 14.0893 10.3119 13.6393C9.84845 13.1893 9.61674 12.6429 9.61674 12C9.61674 11.3571 9.84845 10.8107 10.3119 10.3607C10.7753 9.91071 11.338 9.68571 12 9.68571C12.662 9.68571 13.2247 9.91071 13.6881 10.3607C14.1516 10.8107 14.3833 11.3571 14.3833 12C14.3833 12.6429 14.1516 13.1893 13.6881 13.6393C13.2247 14.0893 12.662 14.3143 12 14.3143ZM12 18C10.1418 18 8.44239 17.5187 6.90166 16.556C5.36091 15.5934 4.13109 14.3269 3.2122 12.7566C3.13864 12.6335 3.08489 12.5095 3.05093 12.3845C3.01698 12.2595 3 12.1312 3 11.9996C3 11.868 3.01698 11.7398 3.05093 11.6151C3.08489 11.4904 3.13864 11.3665 3.2122 11.2434C4.13109 9.67308 5.36091 8.4066 6.90166 7.44397C8.44239 6.48132 10.1418 6 12 6C13.8582 6 15.5576 6.48132 17.0983 7.44397C18.6391 8.4066 19.8689 9.67308 20.7878 11.2434C20.8614 11.3665 20.9151 11.4905 20.9491 11.6155C20.983 11.7405 21 11.8688 21 12.0004C21 12.132 20.983 12.2602 20.9491 12.3849C20.9151 12.5096 20.8614 12.6335 20.7878 12.7566C19.8689 14.3269 18.6391 15.5934 17.0983 16.556C15.5576 17.5187 13.8582 18 12 18ZM12 16.7143C13.6624 16.7143 15.1887 16.2893 16.5789 15.4393C17.9692 14.5893 19.0321 13.4429 19.7677 12C19.0321 10.5571 17.9692 9.41071 16.5789 8.5607C15.1887 7.7107 13.6624 7.2857 12 7.2857C10.3376 7.2857 8.81129 7.7107 7.42105 8.5607C6.03082 9.41071 4.96792 10.5571 4.23234 12C4.96792 13.4429 6.03082 14.5893 7.42105 15.4393C8.81129 16.2893 10.3376 16.7143 12 16.7143Z" fill="current-color"/></svg>