<svg width="65" height="65" viewBox="0 0 65 65" fill="none" xmlns="http://www.w3.org/2000/svg">
<path d="M46.0417 40.9879L44.5196 38.9783C34.8562 46.3667 31.7823 30.0977 18.9583 43.2412L20.6944 45.3294C30.6177 37.1069 33.494 53.8444 46.0417 40.9879ZM32.5 5.41667C47.4338 5.41667 59.5833 17.5662 59.5833 32.5C59.5833 47.4338 47.4338 59.5833 32.5 59.5833C17.5662 59.5833 5.41667 47.4338 5.41667 32.5C5.41667 17.5662 17.5662 5.41667 32.5 5.41667ZM32.5 0C14.5519 0 0 14.5519 0 32.5C0 50.4481 14.5519 65 32.5 65C50.4481 65 65 50.4481 65 32.5C65 14.5519 50.4481 0 32.5 0ZM23.0208 21.6667C20.7783 21.6667 18.9583 23.484 18.9583 25.7292C18.9583 27.9744 20.7783 29.7917 23.0208 29.7917C25.2633 29.7917 27.0833 27.9744 27.0833 25.7292C27.0833 23.484 25.2633 21.6667 23.0208 21.6667ZM41.9792 21.6667C39.7367 21.6667 37.9167 23.484 37.9167 25.7292C37.9167 27.9744 39.7367 29.7917 41.9792 29.7917C44.2217 29.7917 46.0417 27.9744 46.0417 25.7292C46.0417 23.484 44.2217 21.6667 41.9792 21.6667Z" fill="white"/>
</svg>
