<svg width="16" height="16" viewBox="0 0 16 16" fill="none" xmlns="http://www.w3.org/2000/svg">
<path fill-rule="evenodd" clip-rule="evenodd" d="M2 1C1.44772 1 1 1.44772 1 2V14C1 14.5523 1.44772 15 2 15H6V12.5C6 11.6716 6.67157 11 7.5 11H8.5C9.32843 11 10 11.6716 10 12.5V15H14C14.5523 15 15 14.5523 15 14V2C15 1.44772 14.5523 1 14 1H2ZM3.5 3.5C3.5 3.22386 3.72386 3 4 3H5C5.27614 3 5.5 3.22386 5.5 3.5V4.5C5.5 4.77614 5.27614 5 5 5H4C3.72386 5 3.5 4.77614 3.5 4.5V3.5ZM7 3C6.72386 3 6.5 3.22386 6.5 3.5V4.5C6.5 4.77614 6.72386 5 7 5H8C8.27614 5 8.5 4.77614 8.5 4.5V3.5C8.5 3.22386 8.27614 3 8 3H7ZM10.5 3.5C10.5 3.22386 10.7239 3 11 3H12C12.2761 3 12.5 3.22386 12.5 3.5V4.5C12.5 4.77614 12.2761 5 12 5H11C10.7239 5 10.5 4.77614 10.5 4.5V3.5ZM4 6.5C3.72386 6.5 3.5 6.72386 3.5 7V8C3.5 8.27614 3.72386 8.5 4 8.5H5C5.27614 8.5 5.5 8.27614 5.5 8V7C5.5 6.72386 5.27614 6.5 5 6.5H4ZM6.5 7C6.5 6.72386 6.72386 6.5 7 6.5H8C8.27614 6.5 8.5 6.72386 8.5 7V8C8.5 8.27614 8.27614 8.5 8 8.5H7C6.72386 8.5 6.5 8.27614 6.5 8V7ZM11 6.5C10.7239 6.5 10.5 6.72386 10.5 7V8C10.5 8.27614 10.7239 8.5 11 8.5H12C12.2761 8.5 12.5 8.27614 12.5 8V7C12.5 6.72386 12.2761 6.5 12 6.5H11Z" fill="currentColor"/>
</svg>
