<svg width="14" height="14" viewBox="0 0 14 14" fill="none" xmlns="http://www.w3.org/2000/svg">
<path d="M6.99999 7.97034C6.9017 7.97034 6.80619 7.95751 6.71346 7.93187C6.62073 7.90624 6.52863 7.86991 6.43718 7.8229L0.99616 4.92932C0.88676 4.86693 0.808132 4.79001 0.760277 4.69855C0.71241 4.60711 0.688477 4.50668 0.688477 4.39727C0.688477 4.28787 0.71241 4.18745 0.760277 4.096C0.808132 4.00455 0.88676 3.92762 0.99616 3.86524L6.43718 0.971652C6.52863 0.924641 6.62073 0.888318 6.71346 0.862685C6.80619 0.837041 6.9017 0.824219 6.99999 0.824219C7.09828 0.824219 7.19379 0.837041 7.28653 0.862685C7.37926 0.888318 7.47135 0.924641 7.56281 0.971652L13.0102 3.86524C13.1196 3.92762 13.1983 4.00455 13.2461 4.096C13.294 4.18745 13.3179 4.28787 13.3179 4.39727C13.3179 4.50668 13.294 4.60711 13.2461 4.69855C13.1983 4.79001 13.1196 4.86693 13.0102 4.92932L7.56281 7.8229C7.47135 7.86991 7.37926 7.90624 7.28653 7.93187C7.19379 7.95751 7.09828 7.97034 6.99999 7.97034ZM6.99999 6.98958L11.9154 4.39727L6.99999 1.80495L2.09099 4.39727L6.99999 6.98958ZM6.99999 9.59215L12.3359 6.7678C12.3624 6.75241 12.453 6.73745 12.6077 6.72292C12.741 6.73147 12.8502 6.78147 12.9352 6.87292C13.0203 6.96437 13.0628 7.07676 13.0628 7.21008C13.0628 7.3024 13.0425 7.38573 13.0019 7.46008C12.9613 7.53444 12.8949 7.59641 12.8026 7.64598L7.56281 10.4255C7.47135 10.4725 7.37926 10.5088 7.28653 10.5344C7.19379 10.5601 7.09828 10.5729 6.99999 10.5729C6.9017 10.5729 6.80619 10.5601 6.71346 10.5344C6.62073 10.5088 6.52863 10.4725 6.43718 10.4255L1.20384 7.64598C1.11154 7.59641 1.04403 7.53444 1.00129 7.46008C0.958549 7.38573 0.937177 7.3024 0.937177 7.21008C0.937177 7.07676 0.980766 6.96437 1.06794 6.87292C1.15512 6.78147 1.26538 6.73147 1.39871 6.72292C1.44572 6.71437 1.49102 6.71416 1.53461 6.72228C1.5782 6.73041 1.62349 6.74558 1.67049 6.7678L6.99999 9.59215ZM6.99999 12.1947L12.3359 9.37035C12.3624 9.35496 12.453 9.34001 12.6077 9.32548C12.741 9.33403 12.8502 9.38403 12.9352 9.47548C13.0203 9.56693 13.0628 9.67932 13.0628 9.81265C13.0628 9.90495 13.0425 9.98829 13.0019 10.0627C12.9613 10.137 12.8949 10.199 12.8026 10.2485L7.56281 13.028C7.47135 13.075 7.37926 13.1114 7.28653 13.137C7.19379 13.1626 7.09828 13.1755 6.99999 13.1755C6.9017 13.1755 6.80619 13.1626 6.71346 13.137C6.62073 13.1114 6.52863 13.075 6.43718 13.028L1.20384 10.2485C1.11154 10.199 1.04403 10.137 1.00129 10.0627C0.958549 9.98829 0.937177 9.90495 0.937177 9.81265C0.937177 9.67932 0.980766 9.56693 1.06794 9.47548C1.15512 9.38403 1.26538 9.33403 1.39871 9.32548C1.44572 9.31694 1.49102 9.31672 1.53461 9.32483C1.5782 9.33296 1.62349 9.34813 1.67049 9.37035L6.99999 12.1947Z" fill="#56668E"/>
</svg>
