<svg width="256" height="256" viewBox="10 10 28 28" fill="none" xmlns="http://www.w3.org/2000/svg">
<g clip-path="url(#clip1_3169_9404)">
<path d="M19.3121 12.7918C20.9626 12.1015 22.7391 11.7867 24.5142 11.8619C24.537 11.8628 24.5476 11.8677 24.5539 11.8711C24.5621 11.8756 24.5762 11.8858 24.5919 11.9069C24.6253 11.9519 24.6528 12.0308 24.6363 12.1286L22.8975 22.4223C22.6578 23.8417 23.4472 25.2344 24.7881 25.7578L34.513 29.5538C34.6054 29.5899 34.6589 29.6541 34.6804 29.7058C34.6905 29.7301 34.692 29.7474 34.6916 29.7568C34.6914 29.764 34.6901 29.7756 34.6792 29.7956C33.8318 31.3572 32.6491 32.7197 31.2091 33.7811C29.3599 35.1441 27.1623 35.955 24.8711 36.1197C22.5798 36.2844 20.2888 35.7961 18.2637 34.7116C16.2387 33.6271 14.5626 31.9907 13.4299 29.9922C12.2971 27.9937 11.7541 25.7151 11.8639 23.4205C11.9736 21.126 12.7316 18.9096 14.0499 17.0283C15.3682 15.1471 17.1928 13.6781 19.3121 12.7918Z" stroke="url(#paint1_linear_3169_9404)" stroke-width="2.7"/>
<path fill-rule="evenodd" clip-rule="evenodd" d="M35.3878 25.3829C36.3778 25.7644 37.4764 25.1449 37.4976 24.0841C37.5056 23.6807 37.495 23.2764 37.4656 22.8723C37.322 20.899 36.7332 18.982 35.7421 17.2613C34.751 15.5405 33.3827 14.0592 31.7368 12.9254C31.3966 12.6911 31.0463 12.4728 30.6872 12.2711C29.7615 11.7512 28.6668 12.3792 28.489 13.4259L27.2378 20.7923C27.1034 21.5839 27.5454 22.3607 28.2947 22.6495L35.3878 25.3829Z" fill="url(#paint2_linear_3169_9404)"/>
</g>
<defs>
<linearGradient id="paint1_linear_3169_9404" x1="14.3288" y1="14.5387" x2="33.2053" y2="32.4019" gradientUnits="userSpaceOnUse">
<stop stop-color="#0195FF"/>
<stop offset="0.991028" stop-color="#1147E9"/>
</linearGradient>
<linearGradient id="paint2_linear_3169_9404" x1="28.7346" y1="14.058" x2="37.8097" y2="21.0485" gradientUnits="userSpaceOnUse">
<stop stop-color="#1348FF"/>
<stop offset="1" stop-color="#06238D"/>
</linearGradient>
<clipPath id="clip1_3169_9404">
<rect width="27" height="27" fill="white" transform="translate(10.5 10.501)"/>
</clipPath>
</defs>
</svg>
