<svg width="12" height="12" viewBox="0 0 12 12" fill="none" xmlns="http://www.w3.org/2000/svg">
<path d="M5.31661 0C8.25138 0 10.6332 2.38184 10.6332 5.31661C10.6332 8.25138 8.25138 10.6332 5.31661 10.6332C2.38184 10.6332 0 8.25138 0 5.31661C0 2.38184 2.38184 0 5.31661 0ZM5.31661 9.45175C7.60127 9.45175 9.45175 7.60127 9.45175 5.31661C9.45175 3.03194 7.60127 1.18147 5.31661 1.18147C3.03194 1.18147 1.18147 3.03194 1.18147 5.31661C1.18147 7.60127 3.03194 9.45175 5.31661 9.45175ZM10.3292 9.49375L12 11.1646L11.1646 12L9.49375 10.3292L10.3292 9.49375Z" fill="#C1C1D7"/>
</svg>
