<svg xmlns="http://www.w3.org/2000/svg" width="24" height="24" viewBox="0 0 24 24" fill="none"><path d="M10.0848 21C9.87575 21 9.69481 20.9286 9.54193 20.7859C9.38906 20.6432 9.2971 20.4656 9.26605 20.253L8.99555 18.1142C8.74593 18.0291 8.49004 17.9101 8.22789 17.7571C7.96573 17.604 7.73134 17.4401 7.52471 17.2652L5.57918 18.0996C5.37973 18.1882 5.18177 18.1986 4.9853 18.1305C4.78883 18.0625 4.63446 17.935 4.52219 17.748L3.1213 15.2666C3.01499 15.0796 2.98215 14.8798 3.02276 14.6672C3.06336 14.4547 3.16786 14.2834 3.33626 14.1535L5.02026 12.8581C4.99875 12.7172 4.98352 12.5757 4.97456 12.4336C4.96561 12.2915 4.96113 12.15 4.96113 12.0091C4.96113 11.8743 4.96561 11.7373 4.97456 11.5983C4.98352 11.4592 4.99875 11.3071 5.02026 11.1419L3.33626 9.84653C3.16786 9.71658 3.06187 9.54533 3.01829 9.33277C2.97469 9.12023 3.00903 8.92044 3.1213 8.7334L4.52219 6.27028C4.63446 6.08323 4.78734 5.9557 4.98083 5.88768C5.1743 5.81966 5.37076 5.82999 5.57021 5.91866L7.51575 6.74396C7.74029 6.56298 7.98005 6.39749 8.23504 6.24749C8.49004 6.09748 8.74055 5.97692 8.98658 5.88583L9.26605 3.74698C9.2971 3.53442 9.38906 3.35679 9.54193 3.21408C9.69481 3.07136 9.87575 3 10.0848 3H12.9063C13.1153 3 13.2977 3.07136 13.4536 3.21408C13.6094 3.35679 13.7029 3.53442 13.734 3.74698L14.0045 5.89495C14.2839 5.99818 14.5368 6.11873 14.7632 6.25659C14.9895 6.39445 15.2179 6.5569 15.4484 6.74396L17.4298 5.91866C17.6292 5.82999 17.8257 5.81814 18.0192 5.88313C18.2127 5.94811 18.3655 6.07412 18.4778 6.26116L19.8787 8.7334C19.991 8.92044 20.0253 9.12023 19.9817 9.33277C19.9381 9.54533 19.8321 9.71658 19.6637 9.84653L17.9439 11.1692C17.9774 11.3223 17.9956 11.4653 17.9986 11.5983C18.0015 11.7313 18.003 11.8652 18.003 12C18.003 12.1287 18 12.2596 17.9941 12.3926C17.9881 12.5256 17.9666 12.6777 17.9296 12.849L19.6315 14.1535C19.7999 14.2834 19.9059 14.4547 19.9495 14.6672C19.9931 14.8798 19.9587 15.0796 19.8465 15.2666L18.4455 17.7334C18.3333 17.9204 18.1765 18.0489 17.9753 18.1187C17.774 18.1885 17.5737 18.1791 17.3742 18.0905L15.4484 17.256C15.2179 17.4431 14.9826 17.6086 14.7426 17.7525C14.5025 17.8964 14.2565 18.014 14.0045 18.105L13.734 20.253C13.7029 20.4656 13.6094 20.6432 13.4536 20.7859C13.2977 20.9286 13.1153 21 12.9063 21H10.0848ZM10.5684 19.579H12.3993L12.7343 17.0411C13.2097 16.9148 13.6441 16.7353 14.0376 16.5027C14.4311 16.2702 14.8106 15.9711 15.1761 15.6055L17.4907 16.5947L18.4079 14.9842L16.3872 13.4356C16.4648 13.1903 16.5176 12.9498 16.5457 12.7142C16.5738 12.4785 16.5878 12.2405 16.5878 12C16.5878 11.7534 16.5738 11.5154 16.5457 11.2858C16.5176 11.0563 16.4648 10.8219 16.3872 10.5826L18.4259 9.01578L17.5086 7.40525L15.1671 8.40911C14.8554 8.07024 14.4819 7.77084 14.0466 7.51093C13.6112 7.251 13.1708 7.06699 12.7254 6.9589L12.4316 4.42103H10.5828L10.2746 6.94978C9.79929 7.06395 9.36037 7.23885 8.95789 7.47448C8.5554 7.71011 8.17143 8.01376 7.80598 8.38543L5.49138 7.40525L4.57413 9.01578L6.58597 10.5407C6.50834 10.7654 6.454 10.9992 6.42295 11.2421C6.39189 11.485 6.37637 11.7407 6.37637 12.0091C6.37637 12.2557 6.39189 12.4974 6.42295 12.7342C6.454 12.9711 6.50535 13.2049 6.577 13.4356L4.57413 14.9842L5.49138 16.5947L7.79701 15.6C8.15053 15.9692 8.52853 16.2717 8.93101 16.5073C9.3335 16.7429 9.77838 16.9239 10.2657 17.0502L10.5684 19.579ZM11.5107 14.8421C12.2858 14.8421 12.9454 14.5655 13.4894 14.0122C14.0334 13.459 14.3054 12.7882 14.3054 12C14.3054 11.2118 14.0334 10.541 13.4894 9.98776C12.9454 9.43453 12.2858 9.15791 11.5107 9.15791C10.7261 9.15791 10.0641 9.43453 9.52491 9.98776C8.98569 10.541 8.71607 11.2118 8.71607 12C8.71607 12.7882 8.98569 13.459 9.52491 14.0122C10.0641 14.5655 10.7261 14.8421 11.5107 14.8421Z" fill="current-color"/></svg>