<svg width="45" height="45" viewBox="0 0 45 45" fill="none" xmlns="http://www.w3.org/2000/svg">
<path d="M22.5 3.75C32.8387 3.75 41.25 12.1613 41.25 22.5C41.25 32.8387 32.8387 41.25 22.5 41.25C12.1613 41.25 3.75 32.8387 3.75 22.5C3.75 12.1613 12.1613 3.75 22.5 3.75ZM22.5 0C10.0744 0 0 10.0744 0 22.5C0 34.9256 10.0744 45 22.5 45C34.9256 45 45 34.9256 45 22.5C45 10.0744 34.9256 0 22.5 0ZM32.8256 26.1394C29.9906 28.38 26.8744 29.76 22.5019 29.76C18.1256 29.76 15.0094 28.38 12.1744 26.1394L11.25 27.0637C13.3631 30.2887 17.25 33.75 22.5019 33.75C27.7519 33.75 31.6369 30.2887 33.75 27.0637L32.8256 26.1394ZM15.9375 15C14.385 15 13.125 16.2581 13.125 17.8125C13.125 19.3669 14.385 20.625 15.9375 20.625C17.49 20.625 18.75 19.3669 18.75 17.8125C18.75 16.2581 17.49 15 15.9375 15ZM29.0625 15C27.51 15 26.25 16.2581 26.25 17.8125C26.25 19.3669 27.51 20.625 29.0625 20.625C30.615 20.625 31.875 19.3669 31.875 17.8125C31.875 16.2581 30.615 15 29.0625 15Z" fill="white"/>
</svg>
