<svg width="338" viewBox="0 37 191 191" fill="none" xmlns="http://www.w3.org/2000/svg" role="img">
    <title>SnapLogic Home Page</title>
    <g class="mark">
        <path d="M95.5 227.96C148.243 227.96 191 185.203 191 132.46C191 79.7168 148.243 36.96 95.5 36.96C42.7568 36.96 0 79.7168 0 132.46C0 185.203 42.7568 227.96 95.5 227.96Z" fill="#00379A"></path>
        <path d="M131.62 170.07C128.9 172.79 125.79 174.15 122.03 174.15C118.27 174.15 115 172.63 111.96 169.51C109.24 166.79 107.88 163.52 107.88 159.44C107.88 155.36 109.24 151.85 111.96 149.13L112.28 148.81C115 146.09 118.27 144.73 122.11 144.73C125.95 144.73 129.22 146.17 132.18 149.13C134.82 151.77 136.1 155.12 136.1 159.44C136.02 163.68 134.58 167.11 131.62 170.07ZM107.88 106.21C107.88 102.05 109.24 98.62 111.96 95.9L112.28 95.58C115 92.86 118.27 91.5 122.11 91.5C125.95 91.5 129.22 92.94 132.18 95.9C134.82 98.54 136.1 101.89 136.1 106.21C136.1 110.53 134.66 113.88 131.7 116.84C128.98 119.56 125.87 120.92 122.11 120.92C118.35 120.92 115.08 119.4 112.04 116.28C109.16 113.48 107.88 110.21 107.88 106.21ZM78.3901 116.76C75.6701 119.48 72.5601 120.84 68.8001 120.84C65.0401 120.84 61.7701 119.32 58.7301 116.2C56.0101 113.48 54.6501 110.21 54.6501 106.13C54.6501 102.05 56.0101 98.62 58.7301 95.82L59.0501 95.5C61.7701 92.78 65.0401 91.42 68.8801 91.42C72.7201 91.42 75.9901 92.86 78.9501 95.82C81.5901 98.46 82.8701 101.81 82.8701 106.13C82.7901 110.37 81.3501 113.8 78.3901 116.76ZM126.34 136.74V128.67C130.82 127.87 134.81 125.79 138.25 122.44C142.65 118.2 144.88 112.69 144.88 106.14C144.88 99.59 142.72 94.07 138.25 89.68C133.85 85.28 128.42 83.05 122.03 83.05C115.64 83.05 110.2 85.29 105.73 89.76C102.37 93.12 100.22 97.11 99.4201 101.59H91.3501C90.5501 96.95 88.4701 92.96 85.1201 89.6C80.7201 85.2 75.2901 82.97 68.9001 82.97C62.5101 82.97 57.0701 85.21 52.6001 89.68C48.1201 94.16 45.8901 99.67 45.8901 105.98C45.8901 108.94 46.4501 111.89 47.5701 114.69C48.7701 117.73 50.4501 120.28 52.5301 122.2C57.1701 126.6 62.6801 128.83 68.9901 128.83C75.3001 128.83 80.7401 126.59 85.2101 122.2C88.5701 118.92 90.6401 114.93 91.4401 110.29H99.5101C99.8301 111.81 100.23 113.25 100.79 114.69C101.99 117.73 103.67 120.28 105.75 122.2C109.19 125.48 113.18 127.55 117.66 128.35V136.5C113.18 137.38 109.27 139.46 105.91 142.81C101.43 147.29 99.2001 152.8 99.2001 159.11C99.2001 162.07 99.7601 165.02 100.88 167.82C102.08 170.86 103.76 173.41 105.84 175.33C110.48 179.73 115.99 181.96 122.3 181.96C128.61 181.96 134.05 179.72 138.52 175.33C142.92 171.09 145.15 165.58 145.15 159.03C145.15 152.48 142.99 146.96 138.52 142.57C134.92 139.61 130.93 137.53 126.37 136.74" fill="white"></path>
    </g>
</svg>
