<?xml version="1.0" encoding="utf-8"?>
<!-- Generator: Adobe Illustrator 26.5.0, SVG Export Plug-In . SVG Version: 6.00 Build 0)  -->
<svg version="1.1" id="Layer_1" xmlns="http://www.w3.org/2000/svg" xmlns:xlink="http://www.w3.org/1999/xlink" x="0px" y="0px"
     viewBox="0 0 502.8 160.6" style="enable-background:new 0 0 502.8 160.6;" xml:space="preserve">
<style type="text/css">
	.st0{fill:#FFFFFF;}
</style>
    <g>
	<g>
		<g>
			<path class="st0" d="M173.4,54.5c-1.3-2.9-3.2-5.3-5.8-7c-2.6-1.7-5.7-2.6-9-2.6c-3.3,0-6.3,0.8-9.1,2.3
				c-1.5,0.8-2.9,1.8-4.2,3.1V46h-8.8v44h8.8V73.3c0-6.4,0.4-9.3,0.7-10.5c0.7-2.7,2.1-5,4.3-6.8c2.1-1.8,4.6-2.7,7.3-2.7
				c2.3,0,4.2,0.5,5.5,1.6c1.4,1.1,2.3,2.8,2.8,5c0.2,1,0.5,3.3,0.5,8.9v21.1h8.8V67.4C175.2,61.6,174.6,57.3,173.4,54.5"/>
            <path class="st0" d="M248.5,58.6c0.3-0.2,0.4-0.4,0.6-0.5c2.7-2.7,6-4,10.1-4h0.1c3.7,0,6.9,1.4,9.8,4.3l0.1,0.1
				c0.1,0.1,0.2,0.2,0.4,0.4c2.4,2.4,3.6,5.5,3.6,9.4c0,3.9-1.3,7.1-4.1,9.9c-2.8,2.8-6,4.1-10.1,4.2c-4.2,0-7.4-1.2-10-3.6
				c-1.3-1.3-2.4-2.9-3.2-4.9c-0.8-1.9-1.2-3.7-1.1-5.5C244.7,64.3,246,61.1,248.5,58.6 M275,52.4c-4.4-4.4-9.8-6.7-16-6.7
				c-5.2,0-9.9,1.7-14,5v-4.6h-8.5V123h8.5V86c3.9,3.2,8.7,4.8,14,4.8c3,0,5.9-0.6,8.7-1.7c4.2-1.7,7.6-4.5,10.1-8.2
				c2.5-3.8,3.8-8,3.8-12.5C281.7,62.2,279.4,56.8,275,52.4"/>
            <path class="st0" d="M117.8,63.6c-3.7-1.9-5.1-3.1-5.7-3.8c-0.7-0.9-1.1-1.7-1.1-2.6c0-1,0.4-1.8,1.2-2.6
				c0.9-0.8,1.9-1.2,3.1-1.2c2.2,0,4.5,1.2,6.9,3.5l1.3,1.3l5.9-6.1l-1.3-1.3c-4.1-4-8.3-6-12.5-6c-3.7,0-6.8,1.2-9.2,3.6
				c-2.5,2.4-3.7,5.4-3.7,8.9c0,2.7,0.8,5.2,2.3,7.3c1.5,2.1,4.2,4.1,8.1,6.1c3.9,2,5.4,3.2,6,3.8c0.7,0.8,1,1.7,1,2.8
				c0,1.3-0.5,2.4-1.6,3.4c-1.1,1-2.5,1.5-4.1,1.5c-2.4,0-4.8-1.3-7.1-3.9l-1.4-1.5l-5.6,6.4l0.9,1.2c1.6,2,3.5,3.6,5.9,4.7
				c2.4,1.1,4.9,1.7,7.5,1.7c4,0,7.3-1.3,10-4c2.7-2.6,4-5.9,4-9.7c0-2.7-0.8-5.2-2.4-7.4C124.8,67.8,121.9,65.7,117.8,63.6"/>
            <path class="st0" d="M219.4,68.3c0,2.7-0.6,5.2-1.8,7.4c-1.2,2.1-2.9,3.9-5.2,5.1c-4.4,2.5-9.9,2.5-14.2,0
				c-2.2-1.3-3.9-3.1-5.2-5.4c-1.3-2.3-2-4.7-2-7.3c0-2.5,0.7-5,1.9-7.3c1.3-2.3,3-4.1,5.2-5.3c2.2-1.3,4.5-1.9,7.1-1.9
				c4,0,7.3,1.4,10.1,4.2C218,60.7,219.4,64.2,219.4,68.3 M219.1,46.1v4.4c-1.4-1.3-2.8-2.3-4.4-3.1c-2.9-1.5-6.2-2.3-9.8-2.3
				c-6.2,0-11.6,2.3-16,6.7c-4.4,4.5-6.6,9.9-6.6,16.2c0,6.4,2.2,11.9,6.6,16.4c4.4,4.5,9.7,6.8,15.9,6.8c3.5,0,6.7-0.7,9.7-2.2
				c1.6-0.8,3.2-1.9,4.7-3.1v4.3h8.8v-44H219.1z"/>
		</g>
        <polygon class="st0" points="297.8,80.8 297.8,17.3 288.9,17.3 288.9,89.4 317.5,89.4 317.5,80.8 		"/>
        <path class="st0" d="M474.1,77.7l-0.9,0.9c-2.8,2.8-6.1,4.1-10.1,4.1c-4.1,0-7.3-1.3-9.8-4c-2.6-2.7-3.8-6-3.8-10.1
			c0-4.1,1.2-7.4,3.5-9.8c0.3-0.2,0.4-0.4,0.5-0.5c2.6-2.6,5.8-3.8,9.7-3.8c4,0,7.2,1.3,9.9,4l0.9,0.9l5.8-6.1l-0.9-0.9
			c-4.4-4.2-9.7-6.3-15.7-6.3c-6.2,0-11.5,2.2-15.9,6.6c-4.3,4.4-6.6,9.7-6.6,15.9c0,6.3,2.2,11.6,6.5,15.9
			c4.3,4.3,9.7,6.5,15.9,6.5c6.2,0,11.6-2.2,16.1-6.5l1-0.9L474.1,77.7z"/>
        <path class="st0" d="M405,131.3c-2.7,2.7-5.8,4-9.4,4c-3.6,0-6.9-1.5-9.9-4.5c-2.7-2.7-4-5.9-4-9.9c0-4.1,1.3-7.4,4-10.1l0.3-0.3
			c2.7-2.7,5.8-4,9.6-4c3.7,0,7,1.4,9.9,4.3c2.6,2.6,3.8,5.9,3.8,10.1C409.3,125,407.9,128.4,405,131.3 M381.8,68.7
			c0-4.1,1.3-7.4,4-10.1l0.3-0.3c2.7-2.7,5.8-4,9.6-4c3.7,0,7,1.4,9.9,4.3c2.6,2.6,3.8,5.9,3.8,10.1c0,4.1-1.4,7.5-4.3,10.4
			c-2.7,2.7-5.8,4-9.4,4c-3.6,0-6.9-1.5-9.9-4.5C383.1,75.9,381.8,72.7,381.8,68.7 M353,79.1c-2.7,2.7-5.7,4-9.4,4
			c-3.6,0-6.9-1.5-9.9-4.5c-2.7-2.7-4-5.9-4-9.9c0-4.1,1.3-7.4,4-10.1l0.3-0.3c2.7-2.7,5.8-4,9.6-4c3.7,0,7,1.4,9.9,4.3
			c2.6,2.6,3.8,5.9,3.8,10.1C357.2,72.8,355.8,76.2,353,79.1 M399.9,98.7v-7.9c4.4-0.8,8.3-2.8,11.7-6.1c4.3-4.2,6.5-9.5,6.5-15.9
			c0-6.4-2.2-11.8-6.5-16.1c-4.3-4.3-9.7-6.5-15.9-6.5c-6.2,0-11.6,2.2-16,6.6c-3.3,3.3-5.4,7.2-6.2,11.5h-7.9
			c-0.8-4.5-2.8-8.4-6.1-11.7c-4.3-4.3-9.7-6.5-15.9-6.5c-6.2,0-11.6,2.2-16,6.6c-4.4,4.4-6.6,9.8-6.6,16c0,2.9,0.6,5.8,1.6,8.6
			c1.2,3,2.8,5.5,4.8,7.4c4.5,4.3,9.9,6.5,16.1,6.5c6.1,0,11.5-2.2,15.9-6.5c3.3-3.2,5.3-7.1,6.1-11.6h7.9c0.3,1.5,0.7,2.9,1.2,4.3
			c1.2,3,2.8,5.5,4.8,7.4c3.4,3.2,7.3,5.2,11.6,6.1v8c-4.4,0.8-8.2,2.9-11.5,6.2c-4.4,4.4-6.6,9.8-6.6,16c0,2.9,0.6,5.8,1.6,8.6
			c1.2,3,2.8,5.5,4.8,7.4c4.5,4.3,9.9,6.5,16.1,6.5c6.1,0,11.5-2.2,15.9-6.5c4.3-4.2,6.5-9.5,6.5-15.9c0-6.4-2.2-11.8-6.5-16.1
			C408.3,101.5,404.3,99.4,399.9,98.7"/>
        <rect x="424.8" y="47.3" class="st0" width="9.2" height="42"/>
        <path class="st0" d="M429.3,43.9c1.7,0,3.1-0.6,4.3-1.8c1.2-1.2,1.8-2.6,1.8-4.3c0-1.7-0.6-3.2-1.8-4.3c-1.2-1.2-2.7-1.8-4.3-1.8
			c-1.6,0-3.1,0.6-4.3,1.8c-1.2,1.2-1.8,2.7-1.8,4.3c0,1.7,0.6,3.1,1.8,4.3C426.2,43.3,427.7,43.9,429.3,43.9"/>
        <g>
			<path class="st0" d="M489,47.9c2.8,0,5.1,2.3,5.1,5.1c0,2.8-2.3,5.1-5.1,5.1c-2.8,0-5.1-2.3-5.1-5.1
				C483.9,50.2,486.2,47.9,489,47.9z M489,57.6c2.5,0,4.6-2,4.6-4.6c0-2.5-2.1-4.6-4.6-4.6c-2.6,0-4.6,2.1-4.6,4.6
				C484.4,55.6,486.5,57.6,489,57.6z M489.8,53.5l1.3,1.9c0.1,0.2,0,0.2-0.2,0.2h-0.6c-0.1,0-0.2,0-0.3-0.1l-1.3-1.9h-0.7v1.9
				c0,0.1,0,0.1-0.2,0.1h-0.6c-0.1,0-0.2,0-0.2-0.1v-4.9c0-0.1,0.1-0.1,0.2-0.1h1.8c0.9,0,1.8,0.3,1.8,1.5
				C491,52.8,490.4,53.3,489.8,53.5z M489.1,52.8c0.6,0,0.9-0.3,0.9-0.8c0-0.5-0.3-0.8-0.9-0.8h-1v1.5H489.1z"/>
		</g>
	</g>
        <g>
		<path class="st0" d="M57.8,60.9c1.1-1.1,1.6-2.4,1.6-4c0-1.6-0.5-2.9-1.5-3.8c-1.1-1.1-2.3-1.6-3.8-1.6c-1.4,0-2.7,0.5-3.7,1.5
			l-0.1,0.1c-1,1-1.5,2.3-1.5,3.8c0,1.5,0.5,2.7,1.5,3.8c1.1,1.2,2.4,1.7,3.8,1.7C55.6,62.4,56.8,61.9,57.8,60.9z"/>
            <path class="st0" d="M34.3,51.4c-1.4,0-2.7,0.5-3.7,1.5L30.6,53c-1,1-1.5,2.3-1.5,3.8c0,1.5,0.5,2.7,1.5,3.8
			c1.1,1.2,2.4,1.7,3.8,1.7c1.4,0,2.6-0.5,3.6-1.5c1.1-1.1,1.6-2.4,1.7-4c0-1.6-0.5-2.9-1.5-3.8C37,51.9,35.8,51.4,34.3,51.4z"/>
            <path class="st0" d="M54.2,71.3c-1.4,0-2.7,0.5-3.7,1.5l-0.1,0.1c-1,1-1.5,2.3-1.5,3.8c0,1.5,0.5,2.7,1.5,3.8
			c1.1,1.2,2.4,1.7,3.8,1.7c1.4,0,2.6-0.5,3.6-1.5c1.1-1.1,1.6-2.4,1.7-4c0-1.6-0.5-2.9-1.5-3.8C56.8,71.8,55.6,71.3,54.2,71.3z"/>
            <path class="st0" d="M44.3,31.1C24.6,31.1,8.7,47,8.7,66.7s15.9,35.6,35.6,35.6c19.7,0,35.6-15.9,35.6-35.6S63.9,31.1,44.3,31.1z
			 M60.3,82.7c-1.7,1.6-3.7,2.5-6,2.5c-2.4,0-4.4-0.8-6.1-2.5c-0.8-0.7-1.4-1.7-1.8-2.8c-0.4-1-0.6-2.1-0.6-3.2
			c0-2.4,0.8-4.4,2.5-6.1c1.3-1.3,2.7-2,4.4-2.4v-3c-1.7-0.3-3.2-1.1-4.4-2.3c-0.8-0.7-1.4-1.7-1.8-2.8c-0.2-0.5-0.4-1.1-0.5-1.6h-3
			c-0.3,1.7-1.1,3.2-2.3,4.4c-1.7,1.6-3.7,2.5-6,2.5s-4.4-0.8-6.1-2.5c-0.8-0.7-1.4-1.7-1.8-2.8c-0.4-1-0.6-2.1-0.6-3.2
			c0-2.4,0.8-4.4,2.5-6.1c1.7-1.7,3.7-2.5,6.1-2.5c2.4,0,4.4,0.8,6,2.5c1.3,1.3,2,2.7,2.3,4.5h3c0.3-1.7,1.1-3.2,2.4-4.4
			c1.7-1.7,3.7-2.5,6.1-2.5c2.4,0,4.4,0.8,6,2.5c1.7,1.6,2.5,3.7,2.5,6.1s-0.8,4.5-2.5,6.1c-1.3,1.3-2.8,2-4.4,2.3v3
			c1.7,0.3,3.2,1.1,4.5,2.2c1.7,1.6,2.5,3.7,2.5,6.1C62.8,79,61.9,81.1,60.3,82.7z"/>
	</g>
</g>
</svg>
