<svg width="25" height="24" viewBox="0 0 25 24" fill="none" xmlns="http://www.w3.org/2000/svg">
<path fill-rule="evenodd" clip-rule="evenodd" d="M6.64497 20.5527L9.26997 17.2269C9.36841 17.1027 9.27935 16.9222 9.12232 16.9222H7.34107L7.34107 3.56287C7.34107 3.45974 7.25669 3.37537 7.15357 3.37537H5.84107C5.73794 3.37537 5.65357 3.45974 5.65357 3.56287L5.65357 16.9222H3.87232C3.71529 16.9222 3.62622 17.1051 3.72466 17.2269L6.34966 20.5527C6.3672 20.5751 6.38961 20.5932 6.41519 20.6057C6.44077 20.6182 6.46886 20.6247 6.49732 20.6247C6.52577 20.6247 6.55386 20.6182 6.57944 20.6057C6.60502 20.5932 6.62743 20.5751 6.64497 20.5527ZM11.7112 6C11.4903 6 11.3112 6.17909 11.3112 6.4V7.35C11.3112 7.57091 11.4903 7.75 11.7112 7.75H20.9112C21.1321 7.75 21.3112 7.57091 21.3112 7.35V6.4C21.3112 6.17909 21.1321 6 20.9112 6H11.7112ZM11.3112 10.15C11.3112 9.92909 11.4903 9.75 11.7112 9.75H16.9112C17.1321 9.75 17.3112 9.92909 17.3112 10.15V11.1C17.3112 11.3209 17.1321 11.5 16.9112 11.5H11.7112C11.4903 11.5 11.3112 11.3209 11.3112 11.1V10.15ZM11.7112 13.5C11.4903 13.5 11.3112 13.6791 11.3112 13.9V14.85C11.3112 15.0709 11.4903 15.25 11.7112 15.25H13.9112C14.1321 15.25 14.3112 15.0709 14.3112 14.85V13.9C14.3112 13.6791 14.1321 13.5 13.9112 13.5H11.7112Z" fill="currentColor"/>
</svg>
