<!-- From https://iconduck.com/icons/157750/sparkles -->
<svg height="56" viewBox="0 0 56 56" width="56" xmlns="http://www.w3.org/2000/svg"><path d="m26.6875 12.6602c.2812 0 .4219-.1641.4922-.4219.7265-3.9141.6797-4.0078 4.7578-4.7813.2812-.0468.4453-.2109.4453-.4922 0-.2812-.1641-.4453-.4453-.4922-4.0547-.8202-3.9375-.914-4.7578-4.7812-.0703-.2578-.211-.4219-.4922-.4219-.2813 0-.4219.1641-.4922.4219-.8203 3.8672-.6797 3.961-4.7578 4.7812-.2578.0469-.4453.211-.4453.4922 0 .2813.1875.4454.4453.4922 4.0781.8204 4.0312.8672 4.7578 4.7813.0703.2578.2109.4219.4922.4219zm-11.3437 16.125c.4453 0 .75-.2813.7968-.7031.8438-6.2579 1.0547-6.2579 7.5235-7.5.4219-.0704.7265-.3516.7265-.7969 0-.4219-.3046-.7266-.7265-.7969-6.4688-.8906-6.7032-1.1016-7.5235-7.4766-.0468-.4218-.3515-.7265-.7968-.7265-.4219 0-.7266.3047-.7735.75-.7734 6.2812-1.1016 6.2578-7.5234 7.4531-.4219.0938-.7266.375-.7266.7969 0 .4687.3047.7265.8203.7969 6.375 1.0312 6.6563 1.1953 7.4297 7.4531.0469.4687.3516.75.7735.75zm15.8906 25.9453c.6094 0 1.0547-.4453 1.1718-1.0781 1.6641-12.8438 3.4688-14.7891 16.1719-16.1954.6563-.0703 1.1016-.5625 1.1016-1.1718 0-.6094-.4453-1.0782-1.1016-1.1719-12.7031-1.4063-14.5078-3.3516-16.1719-16.1953-.1171-.6328-.5624-1.0547-1.1718-1.0547s-1.0547.4219-1.1484 1.0547c-1.6641 12.8437-3.4922 14.789-16.172 16.1953-.6796.0937-1.1249.5625-1.1249 1.1719 0 .6093.4453 1.1015 1.1249 1.1718 12.6563 1.6641 14.4141 3.3751 16.172 16.1954.0937.6328.539 1.0781 1.1484 1.0781z"/></svg>