<!--
  ~ SPDX-License-Identifier: Apache-2.0
  ~
  ~ This file is unmodified from its original version developed by Acryl Data, Inc.,
  ~ and is now included as part of a repository maintained by the National Digital Twin Programme.
  ~ All support, maintenance and further development of this code is now the responsibility
  ~ of the National Digital Twin Programme.
-->

<svg viewBox="0 0 17 18" width="1em" height="1em" fill="none" xmlns="http://www.w3.org/2000/svg">
    <title id="View">View</title>
    <path fill-rule="evenodd" clip-rule="evenodd"
          d="M15 1a1 1 0 0 1 1 1v13a1 1 0 0 1-1 1H2a1 1 0 0 1-1-1V2a1 1 0 0 1 1-1h13Zm0 1H2v13h13V2ZM6 8v5H5V8h1Zm3-4v9H8V4h1Zm3 2v7h-1V6h1Z"
          fill="currentcolor"/>
</svg>
