<!--
  ~ SPDX-License-Identifier: Apache-2.0
  ~
  ~ This file is unmodified from its original version developed by Acryl Data, Inc.,
  ~ and is now included as part of a repository maintained by the National Digital Twin Programme.
  ~ All support, maintenance and further development of this code is now the responsibility
  ~ of the National Digital Twin Programme.
-->

<svg viewBox="0 0 18 18" width="1em" height="1em" fill="none" xmlns="http://www.w3.org/2000/svg">
  <g fill="currentColor">
    <path d="M13 12H4v1h9v-1Z" />
    <path fill-rule="evenodd" clip-rule="evenodd"
          d="M15 2H2v14h13V2ZM6 8v3H5V8h1Zm3-4v7H8V4h1Zm3 2v5h-1V6h1Zm4 1.5h1V10h-1v2h1v2.5h-1V16a1 1 0 0 1-1 1H2a1 1 0 0 1-1-1V2a1 1 0 0 1 1-1h13a1 1 0 0 1 1 1v1h1v2.5h-1v2Z" />
  </g>
</svg>
