<svg width="1em" height="1em" fill="none" xmlns="http://www.w3.org/2000/svg" viewBox="0 0 18 18">
    <g fill="currentcolor">
        <path fill-rule="evenodd" clip-rule="evenodd"
              d="M14 3.5v4.885l-.299-.3-.701.701V5.154a6.84 6.84 0 0 1-.912.376C11.182 5.832 10.121 6 9 6s-2.182-.168-3.088-.47A6.838 6.838 0 0 1 5 5.153v4.174l-1 1V3.5C4 2.12 6.239 1 9 1s5 1.12 5 2.5Zm-1 0c0 .108-.113.474-.912.873C11.35 4.743 10.26 5 9 5c-1.26 0-2.35-.257-3.088-.627C5.113 3.974 5 3.608 5 3.5c0-.108.113-.474.912-.873C6.65 2.257 7.74 2 9 2c1.26 0 2.35.257 3.088.627.799.399.912.765.912.873Z"></path>
        <path d="m13 11.627.918.918c-.327 1.068-1.595 1.938-3.27 2.288l.798-1.283c.21-.086.402-.182.575-.286.745-.447.979-.925.979-1.264v-.373ZM7.705 13.884l-.561.902a6.631 6.631 0 0 1-.132-.032l-1.598-1.598.169-.17c.112.093.243.186.396.278.455.273 1.045.494 1.726.62Z"></path>
        <path d="M6.949 10.206 6.242 9.5l-2.95 2.949a1 1 0 0 0 0 1.414l2.95 2.949.707-.707L4 13.156l2.949-2.95ZM16.65 12.449 13.7 9.5l-.706.706 2.949 2.95-2.95 2.949.708.707 2.949-2.949.083-.094a1 1 0 0 0-.083-1.32ZM12.404 10.116l-.849-.528-4.083 6.566.849.528 4.083-6.566Z"></path>
    </g>
</svg>
