<svg width="14" height="14" viewBox="0 0 14 14" fill="none" xmlns="http://www.w3.org/2000/svg">
<mask id="mask0_2510_14706" style="mask-type:alpha" maskUnits="userSpaceOnUse" x="0" y="0" width="14" height="14">
<rect width="14" height="14" transform="matrix(1 0 0 -1 0 14)" fill="#D9D9D9"/>
</mask>
<g mask="url(#mask0_2510_14706)">
<path d="M1.57498 3.71986C1.45832 3.83652 1.40241 3.97506 1.40727 4.13548C1.41214 4.2959 1.46804 4.42958 1.57498 4.53652L4.65207 7.65736C4.87568 7.88097 5.15276 7.99277 5.48332 7.99277C5.81387 7.99277 6.09096 7.88097 6.31457 7.65736L7.81665 6.14069L10.85 9.14486H9.91665C9.75137 9.14486 9.61283 9.20076 9.50103 9.31257C9.38922 9.42437 9.33332 9.56291 9.33332 9.72819C9.33332 9.89347 9.38922 10.032 9.50103 10.1438C9.61283 10.2556 9.75137 10.3115 9.91665 10.3115H12.25C12.4153 10.3115 12.5538 10.2556 12.6656 10.1438C12.7774 10.032 12.8333 9.89347 12.8333 9.72819V7.39486C12.8333 7.22958 12.7774 7.09104 12.6656 6.97923C12.5538 6.86743 12.4153 6.81152 12.25 6.81152C12.0847 6.81152 11.9462 6.86743 11.8344 6.97923C11.7226 7.09104 11.6667 7.22958 11.6667 7.39486V8.32819L8.6479 5.30944C8.42429 5.08583 8.1472 4.97402 7.81665 4.97402C7.48609 4.97402 7.20901 5.08583 6.9854 5.30944L5.48332 6.81152L2.39165 3.71986C2.2847 3.61291 2.14859 3.55944 1.98332 3.55944C1.81804 3.55944 1.68193 3.61291 1.57498 3.71986Z" fill="#FFA39E"/>
</g>
</svg>
