<svg width="14" height="14" viewBox="0 0 14 14" fill="none" xmlns="http://www.w3.org/2000/svg">
<mask id="mask0_2510_14700" style="mask-type:alpha" maskUnits="userSpaceOnUse" x="0" y="0" width="14" height="14">
<rect width="14" height="14" fill="#D9D9D9"/>
</mask>
<g mask="url(#mask0_2510_14700)">
<path d="M1.57498 10.2801C1.45832 10.1635 1.40241 10.0249 1.40727 9.86452C1.41214 9.7041 1.46804 9.57042 1.57498 9.46348L4.65207 6.34264C4.87568 6.11903 5.15276 6.00723 5.48332 6.00723C5.81387 6.00723 6.09096 6.11903 6.31457 6.34264L7.81665 7.85931L10.85 4.85514H9.91665C9.75137 4.85514 9.61283 4.79924 9.50103 4.68743C9.38922 4.57563 9.33332 4.43709 9.33332 4.27181C9.33332 4.10653 9.38922 3.96799 9.50103 3.85618C9.61283 3.74438 9.75137 3.68848 9.91665 3.68848H12.25C12.4153 3.68848 12.5538 3.74438 12.6656 3.85618C12.7774 3.96799 12.8333 4.10653 12.8333 4.27181V6.60514C12.8333 6.77042 12.7774 6.90896 12.6656 7.02077C12.5538 7.13257 12.4153 7.18848 12.25 7.18848C12.0847 7.18848 11.9462 7.13257 11.8344 7.02077C11.7226 6.90896 11.6667 6.77042 11.6667 6.60514V5.67181L8.6479 8.69056C8.42429 8.91417 8.1472 9.02598 7.81665 9.02598C7.48609 9.02598 7.20901 8.91417 6.9854 8.69056L5.48332 7.18848L2.39165 10.2801C2.2847 10.3871 2.14859 10.4406 1.98332 10.4406C1.81804 10.4406 1.68193 10.3871 1.57498 10.2801Z" fill="#3CB47A"/>
</g>
</svg>
