<svg width="9" height="9" viewBox="0 0 9 9" fill="none" xmlns="http://www.w3.org/2000/svg">
<path d="M1.80363 8.98409C1.6788 8.98409 1.57425 8.94195 1.48998 8.85769C1.40581 8.77352 1.36372 8.66901 1.36372 8.54418C1.36372 8.41934 1.40581 8.31484 1.48998 8.23067C1.57425 8.1464 1.6788 8.10427 1.80363 8.10427H5.57323C6.18539 8.10427 6.71216 7.90215 7.15354 7.49792C7.59501 7.09379 7.81575 6.59469 7.81575 6.00061C7.81575 5.40654 7.59501 4.90831 7.15354 4.50594C6.71216 4.10367 6.18539 3.90253 5.57323 3.90253H1.45508L2.77818 5.22564C2.86314 5.31069 2.90561 5.41372 2.90561 5.53475C2.90561 5.65577 2.86314 5.75881 2.77818 5.84386C2.69323 5.92881 2.58927 5.97036 2.46629 5.9685C2.34331 5.96654 2.24125 5.925 2.16011 5.84386L0.15001 3.83376C0.0950696 3.77882 0.0563574 3.7209 0.0338731 3.65999C0.011291 3.59909 0 3.5333 0 3.46262C0 3.39194 0.011291 3.32615 0.0338731 3.26525C0.0563574 3.20434 0.0950696 3.14642 0.15001 3.09148L2.16011 1.08153C2.24506 0.996577 2.34805 0.954102 2.46907 0.954102C2.5902 0.954102 2.69323 0.996577 2.77818 1.08153C2.86314 1.16648 2.90468 1.27045 2.90283 1.39343C2.90097 1.51631 2.85942 1.61837 2.77818 1.6996L1.45508 3.02271H5.57323C6.43125 3.02271 7.16615 3.30904 7.77792 3.88171C8.38969 4.45437 8.69557 5.16068 8.69557 6.00061C8.69557 6.84055 8.38969 7.54778 7.77792 8.1223C7.16615 8.69683 6.43125 8.98409 5.57323 8.98409H1.80363Z" fill="#5F6685"/>
</svg>
