<svg width="45" height="45" viewBox="0 0 45 45" fill="none" xmlns="http://www.w3.org/2000/svg">
<path d="M22.5 3.75C32.8387 3.75 41.25 12.1613 41.25 22.5C41.25 32.8387 32.8387 41.25 22.5 41.25C12.1613 41.25 3.75 32.8387 3.75 22.5C3.75 12.1613 12.1613 3.75 22.5 3.75ZM22.5 0C10.0744 0 0 10.0744 0 22.5C0 34.9256 10.0744 45 22.5 45C34.9256 45 45 34.9256 45 22.5C45 10.0744 34.9256 0 22.5 0ZM15.9375 15C14.385 15 13.125 16.2581 13.125 17.8125C13.125 19.3669 14.385 20.625 15.9375 20.625C17.49 20.625 18.75 19.3669 18.75 17.8125C18.75 16.2581 17.49 15 15.9375 15ZM29.0625 15C27.51 15 26.25 16.2581 26.25 17.8125C26.25 19.3669 27.51 20.625 29.0625 20.625C30.615 20.625 31.875 19.3669 31.875 17.8125C31.875 16.2581 30.615 15 29.0625 15ZM27.2981 33.6375C25.605 33.2812 24.0337 33.1088 22.4944 33.1088C20.9587 33.1088 19.3856 33.2812 17.6906 33.6375C15.6094 34.0744 14.0456 33.1875 13.4625 31.7344C11.8612 27.7387 16.1362 24.2962 22.4925 24.2962C29.1244 24.2962 33.1162 27.7706 31.5244 31.7363C30.9469 33.1781 29.3944 34.0781 27.2981 33.6375ZM22.4925 29.9513C25.5188 29.9513 28.2225 31.2075 28.5037 30.4744C30.0094 26.5763 15 26.415 16.4831 30.4744C16.7419 31.1812 19.5094 29.9513 22.4925 29.9513Z" fill="white"/>
</svg>
