<svg width="21" height="20" viewBox="0 0 21 20" fill="none" xmlns="http://www.w3.org/2000/svg">
<path d="M9.25055 1.56357C9.81978 1.05494 10.6802 1.05494 11.2494 1.56357L12.4183 2.60799C12.8405 2.98528 13.3784 3.20805 13.9437 3.23984L15.5087 3.32783C16.2709 3.37068 16.8793 3.9791 16.9222 4.74126L17.0102 6.30628C17.0419 6.87164 17.2647 7.40945 17.642 7.8317L18.6864 9.00055C19.1951 9.56978 19.1951 10.4302 18.6864 10.9994L17.642 12.1683C17.2647 12.5905 17.0419 13.1284 17.0102 13.6937L16.9222 15.2587C16.8793 16.0209 16.2709 16.6293 15.5087 16.6722L13.9437 16.7602C13.3784 16.7919 12.8405 17.0147 12.4183 17.392L11.2494 18.4364C10.6802 18.9451 9.81978 18.9451 9.25055 18.4364L8.0817 17.392C7.65945 17.0147 7.12164 16.7919 6.55628 16.7602L4.99126 16.6722C4.2291 16.6293 3.62068 16.0209 3.57783 15.2587L3.48984 13.6937C3.45805 13.1284 3.23528 12.5905 2.85799 12.1683L1.81357 10.9994C1.30494 10.4302 1.30494 9.56978 1.81357 9.00055L2.85799 7.8317C3.23528 7.40945 3.45805 6.87164 3.48984 6.30628L3.57783 4.74126C3.62068 3.9791 4.2291 3.37068 4.99126 3.32783L6.55628 3.23984C7.12164 3.20805 7.65945 2.98528 8.0817 2.60799L9.25055 1.56357Z" fill="#EEF0F2" stroke="#B2B8BD"/>
<path d="M9.78516 13.3804C9.78516 13.5669 9.85924 13.7457 9.9911 13.8776C10.123 14.0094 10.3018 14.0835 10.4883 14.0835C10.6748 14.0835 10.8536 14.0094 10.9855 13.8776C11.1173 13.7457 11.1914 13.5669 11.1914 13.3804C11.1914 13.1939 11.1173 13.015 10.9855 12.8832C10.8536 12.7513 10.6748 12.6772 10.4883 12.6772C10.3018 12.6772 10.123 12.7513 9.9911 12.8832C9.85924 13.015 9.78516 13.1939 9.78516 13.3804ZM10.1367 11.5347H10.8398C10.8882 11.5347 10.9277 11.4951 10.9277 11.4468V6.34912C10.9277 6.30078 10.8882 6.26123 10.8398 6.26123H10.1367C10.0884 6.26123 10.0488 6.30078 10.0488 6.34912V11.4468C10.0488 11.4951 10.0884 11.5347 10.1367 11.5347Z" fill="#B2B8BD"/>
</svg>
