<svg width="20" height="20" viewBox="0 0 20 20" fill="none" xmlns="http://www.w3.org/2000/svg">
<path d="M8.40633 2.10176C9.20664 1.0463 10.7934 1.0463 11.5937 2.10176L11.9718 2.60051C12.4085 3.17641 13.1219 3.47191 13.8379 3.37347L14.458 3.28821C15.7702 3.10779 16.8922 4.22976 16.7118 5.542L16.6265 6.16207C16.5281 6.87807 16.8236 7.59148 17.3995 8.02816L17.8982 8.40633C18.9537 9.20664 18.9537 10.7934 17.8982 11.5937L17.3995 11.9718C16.8236 12.4085 16.5281 13.1219 16.6265 13.8379L16.7118 14.458C16.8922 15.7702 15.7702 16.8922 14.458 16.7118L13.8379 16.6265C13.1219 16.5281 12.4085 16.8236 11.9718 17.3995L11.5937 17.8982C10.7934 18.9537 9.20664 18.9537 8.40633 17.8982L8.02816 17.3995C7.59148 16.8236 6.87807 16.5281 6.16207 16.6265L5.542 16.7118C4.22976 16.8922 3.10779 15.7702 3.28821 14.458L3.37347 13.8379C3.47191 13.1219 3.17641 12.4085 2.60051 11.9718L2.10176 11.5937C1.0463 10.7934 1.0463 9.20664 2.10176 8.40633L2.60051 8.02816C3.17641 7.59148 3.47191 6.87807 3.37347 6.16207L3.28821 5.54199C3.10779 4.22976 4.22976 3.10779 5.542 3.28821L6.16207 3.37347C6.87807 3.47191 7.59148 3.17641 8.02816 2.60051L8.40633 2.10176Z" fill="#1677FF"/>
<path d="M7.62005 9.10392C7.55392 9.03749 7.47533 8.98478 7.38877 8.94881C7.30222 8.91284 7.20941 8.89433 7.11568 8.89433C7.02196 8.89433 6.92915 8.91284 6.8426 8.94881C6.75604 8.98478 6.67745 9.03749 6.61132 9.10392C6.54489 9.17004 6.49218 9.24864 6.45622 9.33519C6.42025 9.42174 6.40173 9.51455 6.40173 9.60828C6.40173 9.702 6.42025 9.79481 6.45622 9.88136C6.49218 9.96792 6.54489 10.0465 6.61132 10.1126L9.21736 12.7187C9.27991 12.7813 9.3542 12.831 9.43599 12.865C9.51777 12.8989 9.60544 12.9163 9.69398 12.9163C9.78252 12.9163 9.87019 12.8989 9.95198 12.865C10.0338 12.831 10.1081 12.7813 10.1706 12.7187L14.5999 8.28941C14.6625 8.22686 14.7123 8.15257 14.7462 8.07079C14.7801 7.989 14.7976 7.90133 14.7976 7.81279C14.7976 7.72426 14.7801 7.63659 14.7462 7.5548C14.7123 7.47302 14.6625 7.39873 14.5999 7.33618L14.5444 7.28069C14.4818 7.21802 14.4076 7.16831 14.3258 7.13439C14.244 7.10047 14.1563 7.08301 14.0678 7.08301C13.9792 7.08301 13.8916 7.10047 13.8098 7.13439C13.728 7.16831 13.6537 7.21802 13.5912 7.28069L9.69299 11.1768L7.62005 9.10392Z" fill="white"/>
</svg>
