<svg width="17" height="16" viewBox="0 0 17 16" fill="none" xmlns="http://www.w3.org/2000/svg">
<path d="M7.01549 1.9578C7.76099 0.97463 9.23901 0.97463 9.98451 1.9578C10.3913 2.49425 11.0558 2.76952 11.7228 2.67782C12.9451 2.50975 13.9902 3.55487 13.8222 4.77722C13.7305 5.44418 14.0057 6.10873 14.5422 6.51549C15.5254 7.26099 15.5254 8.73901 14.5422 9.48451C14.0057 9.89127 13.7305 10.5558 13.8222 11.2228C13.9902 12.4451 12.9451 13.4902 11.7228 13.3222C11.0558 13.2305 10.3913 13.5057 9.98451 14.0422C9.23901 15.0254 7.76099 15.0254 7.01549 14.0422C6.60873 13.5057 5.94418 13.2305 5.27722 13.3222C4.05488 13.4902 3.00975 12.4451 3.17782 11.2228C3.26952 10.5558 2.99425 9.89127 2.4578 9.48451C1.47463 8.73901 1.47463 7.26099 2.4578 6.51549C2.99425 6.10873 3.26952 5.44418 3.17782 4.77722C3.00975 3.55487 4.05488 2.50975 5.27722 2.67782C5.94418 2.76952 6.60873 2.49425 7.01549 1.9578Z" fill="#F9F0FF"/>
<path d="M6.59575 7.28338C6.54285 7.23024 6.47997 7.18807 6.41073 7.1593C6.34148 7.13053 6.26724 7.11571 6.19225 7.11571C6.11727 7.11571 6.04303 7.13053 5.97378 7.1593C5.90454 7.18807 5.84166 7.23024 5.78876 7.28338C5.73562 7.33628 5.69345 7.39916 5.66468 7.4684C5.63591 7.53764 5.62109 7.61189 5.62109 7.68687C5.62109 7.76185 5.63591 7.8361 5.66468 7.90534C5.69345 7.97458 5.73562 8.03746 5.78876 8.09036L7.8736 10.1752C7.92364 10.2253 7.98307 10.2651 8.0485 10.2922C8.11392 10.3194 8.18406 10.3333 8.25489 10.3333C8.32572 10.3333 8.39586 10.3194 8.46129 10.2922C8.52672 10.2651 8.58615 10.2253 8.63619 10.1752L12.1796 6.63178C12.2297 6.58174 12.2695 6.52231 12.2967 6.45688C12.3238 6.39145 12.3378 6.32132 12.3378 6.25049C12.3378 6.17965 12.3238 6.10952 12.2967 6.04409C12.2695 5.97867 12.2297 5.91923 12.1796 5.86919L12.1352 5.8248C12.0852 5.77467 12.0257 5.7349 11.9603 5.70776C11.8949 5.68062 11.8248 5.66666 11.7539 5.66666C11.6831 5.66666 11.613 5.68062 11.5475 5.70776C11.4821 5.7349 11.4227 5.77467 11.3726 5.8248L8.2541 8.94173L6.59575 7.28338Z" fill="#7532A4"/>
</svg>
