<svg width="20" height="20" viewBox="0 0 20 20" fill="none" xmlns="http://www.w3.org/2000/svg">
<path d="M8.40633 2.10176C9.20664 1.0463 10.7934 1.0463 11.5937 2.10176L11.9718 2.60051C12.4085 3.17641 13.1219 3.47191 13.8379 3.37347L14.458 3.28821C15.7702 3.10779 16.8922 4.22976 16.7118 5.542L16.6265 6.16207C16.5281 6.87807 16.8236 7.59148 17.3995 8.02816L17.8982 8.40633C18.9537 9.20664 18.9537 10.7934 17.8982 11.5937L17.3995 11.9718C16.8236 12.4085 16.5281 13.1219 16.6265 13.8379L16.7118 14.458C16.8922 15.7702 15.7702 16.8922 14.458 16.7118L13.8379 16.6265C13.1219 16.5281 12.4085 16.8236 11.9718 17.3995L11.5937 17.8982C10.7934 18.9537 9.20664 18.9537 8.40633 17.8982L8.02816 17.3995C7.59148 16.8236 6.87807 16.5281 6.16207 16.6265L5.542 16.7118C4.22976 16.8922 3.10779 15.7702 3.28821 14.458L3.37347 13.8379C3.47191 13.1219 3.17641 12.4085 2.60051 11.9718L2.10176 11.5937C1.0463 10.7934 1.0463 9.20664 2.10176 8.40633L2.60051 8.02816C3.17641 7.59148 3.47191 6.87807 3.37347 6.16207L3.28821 5.54199C3.10779 4.22976 4.22976 3.10779 5.542 3.28821L6.16207 3.37347C6.87807 3.47191 7.59148 3.17641 8.02816 2.60051L8.40633 2.10176Z" fill="#7532A4"/>
<path d="M7.6201 9.1044C7.55397 9.03798 7.47538 8.98527 7.38882 8.9493C7.30227 8.91333 7.20946 8.89482 7.11573 8.89482C7.02201 8.89482 6.9292 8.91333 6.84265 8.9493C6.75609 8.98527 6.6775 9.03798 6.61137 9.1044C6.54494 9.17053 6.49223 9.24912 6.45626 9.33568C6.4203 9.42223 6.40178 9.51504 6.40178 9.60876C6.40178 9.70249 6.4203 9.7953 6.45626 9.88185C6.49223 9.9684 6.54494 10.047 6.61137 10.1131L9.21741 12.7191C9.27996 12.7818 9.35425 12.8315 9.43604 12.8654C9.51782 12.8994 9.60549 12.9168 9.69403 12.9168C9.78257 12.9168 9.87024 12.8994 9.95203 12.8654C10.0338 12.8315 10.1081 12.7818 10.1707 12.7191L14.5999 8.2899C14.6626 8.22735 14.7123 8.15306 14.7462 8.07127C14.7802 7.98949 14.7976 7.90182 14.7976 7.81328C14.7976 7.72474 14.7802 7.63707 14.7462 7.55529C14.7123 7.47351 14.6626 7.39922 14.5999 7.33667L14.5444 7.28118C14.4819 7.21851 14.4076 7.1688 14.3258 7.13488C14.244 7.10096 14.1564 7.0835 14.0678 7.0835C13.9793 7.0835 13.8916 7.10096 13.8098 7.13488C13.728 7.1688 13.6538 7.21851 13.5912 7.28118L9.69304 11.1773L7.6201 9.1044Z" fill="white"/>
</svg>
