<svg width="31" height="30" viewBox="0 0 31 30" fill="none" xmlns="http://www.w3.org/2000/svg">
<rect x="6" y="4" width="21" height="21" rx="10.5" fill="#113633"/>
<mask id="mask0_3325_15145" style="mask-type:alpha" maskUnits="userSpaceOnUse" x="10" y="8" width="13" height="13">
<rect x="10.1992" y="8.39844" width="12.6016" height="12.6016" fill="#D9D9D9"/>
</mask>
<g mask="url(#mask0_3325_15145)">
<path d="M16.791 19.4248C15.6702 19.4248 14.6784 19.0901 13.8156 18.4206C12.9528 17.7512 12.3925 16.8957 12.1345 15.8544C12.0989 15.7231 12.1256 15.6028 12.2146 15.4934C12.3035 15.384 12.4236 15.3205 12.5748 15.303C12.7171 15.2855 12.8461 15.3118 12.9617 15.3818C13.0774 15.4518 13.1574 15.5568 13.2019 15.6968C13.4154 16.4844 13.8557 17.1276 14.5228 17.6265C15.1899 18.1253 15.946 18.3747 16.791 18.3747C17.8317 18.3747 18.7145 18.0181 19.4394 17.3049C20.1644 16.5916 20.5268 15.7231 20.5268 14.6992C20.5268 13.6753 20.1644 12.8068 19.4394 12.0936C18.7145 11.3804 17.8317 11.0238 16.791 11.0238C16.1772 11.0238 15.6035 11.1638 15.0698 11.4438C14.5361 11.7238 14.0869 12.1089 13.7222 12.599H14.6562C14.8074 12.599 14.9342 12.6493 15.0365 12.7499C15.1388 12.8506 15.1899 12.9753 15.1899 13.124C15.1899 13.2728 15.1388 13.3975 15.0365 13.4981C14.9342 13.5988 14.8074 13.6491 14.6562 13.6491H12.5214C12.3702 13.6491 12.2435 13.5988 12.1412 13.4981C12.0389 13.3975 11.9877 13.2728 11.9877 13.124V11.0238C11.9877 10.875 12.0389 10.7503 12.1412 10.6497C12.2435 10.549 12.3702 10.4987 12.5214 10.4987C12.6726 10.4987 12.7994 10.549 12.9017 10.6497C13.004 10.7503 13.0551 10.875 13.0551 11.0238V11.7326C13.5088 11.1725 14.0625 10.7394 14.7162 10.4331C15.37 10.1268 16.0616 9.97363 16.791 9.97363C17.4581 9.97363 18.083 10.0983 18.6656 10.3477C19.2482 10.5971 19.7552 10.9341 20.1866 11.3585C20.618 11.7829 20.9605 12.2817 21.214 12.8549C21.4675 13.4281 21.5942 14.0429 21.5942 14.6992C21.5942 15.3556 21.4675 15.9703 21.214 16.5435C20.9605 17.1167 20.618 17.6155 20.1866 18.0399C19.7552 18.4644 19.2482 18.8013 18.6656 19.0507C18.083 19.3001 17.4581 19.4248 16.791 19.4248ZM17.3247 14.4892L18.6589 15.8019C18.7568 15.8981 18.8057 16.0206 18.8057 16.1694C18.8057 16.3182 18.7568 16.4407 18.6589 16.5369C18.5611 16.6332 18.4365 16.6813 18.2853 16.6813C18.1341 16.6813 18.0096 16.6332 17.9117 16.5369L16.4174 15.0668C16.364 15.0143 16.324 14.9552 16.2973 14.8896C16.2706 14.8239 16.2573 14.7561 16.2573 14.6861V12.599C16.2573 12.4502 16.3084 12.3255 16.4107 12.2248C16.513 12.1242 16.6398 12.0739 16.791 12.0739C16.9422 12.0739 17.0689 12.1242 17.1712 12.2248C17.2735 12.3255 17.3247 12.4502 17.3247 12.599V14.4892Z" fill="white"/>
</g>
</svg>
