<?xml version="1.0" standalone="no"?>
<!DOCTYPE svg PUBLIC "-//W3C//DTD SVG 20010904//EN"
 "http://www.w3.org/TR/2001/REC-SVG-20010904/DTD/svg10.dtd">
<svg version="1.0" xmlns="http://www.w3.org/2000/svg"
 width="700.000000pt" height="700.000000pt" viewBox="0 0 700.000000 700.000000"
 preserveAspectRatio="xMidYMid meet">
<metadata>
Created by potrace 1.14, written by Peter Selinger 2001-2017
</metadata>
<g transform="translate(0.000000,700.000000) scale(0.100000,-0.100000)"
fill="#000000" stroke="none">
<path d="M3345 6989 c-149 -21 -196 -31 -315 -69 -131 -42 -331 -149 -445
-240 -64 -50 -173 -159 -234 -235 -45 -55 -514 -706 -713 -990 -19 -27 -71
-99 -114 -160 -218 -302 -287 -420 -343 -591 -59 -177 -76 -288 -75 -489 0
-148 27 -351 44 -340 4 3 68 89 141 192 73 104 165 233 204 288 48 68 79 122
94 170 55 166 74 199 359 600 102 143 262 368 355 500 94 132 187 263 207 290
20 28 72 100 115 160 94 132 156 199 250 269 182 137 392 209 615 210 73 0
194 -12 223 -23 15 -6 27 -9 27 -6 0 8 165 -52 220 -80 160 -81 280 -187 401
-355 104 -144 744 -1045 857 -1205 100 -144 146 -229 189 -355 26 -74 53 -118
217 -349 103 -144 197 -276 209 -292 l21 -30 13 53 c33 148 38 418 9 578 -28
153 -92 327 -177 480 -19 34 -124 182 -510 724 -101 142 -197 277 -213 300
-188 269 -318 446 -366 500 -234 262 -520 422 -865 482 -98 17 -320 25 -400
13z"/>
<path d="M3360 5949 c-80 -14 -104 -19 -155 -36 -160 -51 -291 -130 -412 -249
-68 -67 -178 -212 -374 -492 -26 -38 -231 -326 -566 -797 -106 -148 -198 -278
-205 -289 -7 -10 -20 -28 -29 -40 -120 -160 -817 -1152 -842 -1199 -101 -185
-139 -412 -107 -622 11 -74 54 -219 77 -260 10 -17 19 -7 103 115 6 8 66 94
133 190 104 147 126 184 136 233 19 86 48 134 267 441 109 153 212 297 227
319 60 85 651 914 679 952 52 70 409 569 426 595 91 139 350 488 397 536 203
206 557 209 768 6 22 -20 151 -194 289 -387 137 -192 256 -359 264 -370 1066
-1489 1397 -1958 1419 -2012 13 -32 26 -76 30 -98 6 -29 51 -100 170 -266 90
-125 169 -237 175 -250 12 -22 13 -22 27 -3 13 18 57 146 68 201 29 137 25
320 -9 450 -47 177 -109 286 -360 628 -8 11 -139 193 -290 405 -151 212 -282
394 -290 405 -8 11 -227 317 -487 680 -260 363 -503 703 -541 755 -187 261
-390 396 -683 455 -47 10 -255 12 -305 4z"/>
<path d="M3366 4895 c-108 -28 -195 -81 -278 -170 -36 -38 -410 -555 -707
-977 -14 -20 -141 -198 -282 -395 -140 -197 -271 -380 -291 -408 -19 -27 -244
-342 -499 -700 -255 -357 -471 -660 -479 -672 -8 -12 -121 -169 -250 -350
-129 -180 -249 -353 -268 -383 -83 -138 -97 -326 -35 -482 58 -147 173 -262
325 -327 l63 -26 2818 -3 2818 -2 75 25 c162 54 287 171 348 327 64 163 47
358 -46 504 -28 45 -321 460 -408 579 -37 51 -333 465 -386 541 -16 23 -88
124 -161 225 -163 227 -122 170 -530 743 -188 265 -346 486 -350 491 -12 14
-644 900 -663 928 -46 70 -220 309 -257 354 -53 64 -156 133 -243 163 -83 29
-230 36 -314 15z m206 -454 c10 -9 134 -180 277 -381 143 -201 267 -374 275
-385 8 -11 53 -74 100 -140 46 -66 93 -131 103 -145 26 -35 380 -531 395 -554
7 -10 24 -33 38 -51 14 -19 54 -76 90 -127 35 -51 68 -97 73 -103 4 -5 136
-190 293 -410 157 -220 292 -409 300 -420 8 -11 56 -79 107 -150 51 -72 104
-146 118 -165 29 -41 230 -322 281 -395 19 -27 92 -129 161 -226 73 -103 129
-190 132 -208 7 -42 -17 -92 -56 -115 -30 -18 -137 -18 -2759 -18 -3025 0
-2770 -6 -2804 66 -21 44 -14 87 22 137 15 21 68 94 117 164 50 69 243 341
431 603 187 262 643 902 1014 1422 370 520 735 1031 809 1135 75 105 143 200
151 212 111 161 184 253 212 266 38 19 94 13 120 -12z"/>
<path d="M2772 3048 c-59 -82 -114 -159 -122 -171 -8 -12 -32 -46 -53 -74
l-38 -53 936 0 c775 0 935 2 928 13 -4 8 -75 108 -158 224 l-149 211 -618 0
-618 0 -108 -150z"/>
<path d="M1741 1594 c-84 -119 -150 -219 -146 -222 8 -8 3786 -11 3809 -2 12
4 -20 54 -141 223 l-157 217 -1606 0 -1606 0 -153 -216z"/>
</g>
</svg>
