<svg width="86" height="87" viewBox="0 0 86 87" fill="none" xmlns="http://www.w3.org/2000/svg">
<circle opacity="0.3" cx="43" cy="43.7266" r="42.5" fill="#EFFBFF" stroke="#838BA8"/>
<circle opacity="0.6" cx="43" cy="43.7265" r="34.041" fill="#838BA8" stroke="#838BA8"/>
<circle cx="42.6475" cy="43.374" r="25.7295" fill="#838BA8"/>
<path d="M51.9278 38.4072C51.7512 38.4986 51.5456 38.5162 51.3561 38.4561C51.1666 38.396 51.0087 38.2631 50.9171 38.0866C50.2013 36.6724 49.1177 35.4771 47.7803 34.6263C47.6969 34.5737 47.6247 34.5052 47.5678 34.4248C47.511 34.3443 47.4705 34.2534 47.4487 34.1573C47.4269 34.0612 47.4243 33.9618 47.441 33.8646C47.4577 33.7675 47.4933 33.6746 47.5459 33.5913C47.5984 33.5079 47.6669 33.4358 47.7474 33.3789C47.8278 33.322 47.9187 33.2815 48.0148 33.2597C48.1109 33.238 48.2104 33.2354 48.3075 33.252C48.4046 33.2687 48.4975 33.3043 48.5809 33.3569C50.1396 34.3549 51.4052 35.749 52.2484 37.3966C52.3398 37.5731 52.3574 37.7788 52.2973 37.9683C52.2371 38.1578 52.1042 38.3157 51.9278 38.4072ZM34.2756 38.4916C34.413 38.4915 34.5477 38.4537 34.6651 38.3823C34.7825 38.3109 34.878 38.2086 34.9412 38.0866C35.6571 36.6724 36.7406 35.4771 38.0781 34.6263C38.2464 34.5201 38.3657 34.3514 38.4096 34.1573C38.4536 33.9632 38.4186 33.7596 38.3124 33.5913C38.2063 33.423 38.0376 33.3037 37.8435 33.2597C37.6494 33.2158 37.4458 33.2507 37.2774 33.3569C35.7188 34.3549 34.4531 35.749 33.6099 37.3966C33.5507 37.5109 33.5219 37.6385 33.5263 37.7672C33.5307 37.8958 33.5681 38.0212 33.635 38.1312C33.7019 38.2412 33.7959 38.3321 33.9081 38.3952C34.0203 38.4584 34.1468 38.4915 34.2756 38.4916ZM51.7224 48.236C51.8553 48.4638 51.9258 48.7227 51.9267 48.9865C51.9276 49.2502 51.8589 49.5096 51.7276 49.7383C51.5963 49.9671 51.407 50.1572 51.1788 50.2894C50.9506 50.4217 50.6915 50.4914 50.4278 50.4916H46.6028C46.4306 51.3393 45.9707 52.1015 45.3009 52.6489C44.6312 53.1963 43.7928 53.4954 42.9278 53.4954C42.0627 53.4954 41.2243 53.1963 40.5546 52.6489C39.8848 52.1015 39.4249 51.3393 39.2528 50.4916H35.4278C35.1641 50.4911 34.9053 50.4211 34.6774 50.2887C34.4494 50.1563 34.2604 49.9662 34.1293 49.7375C33.9982 49.5088 33.9297 49.2496 33.9307 48.986C33.9317 48.7224 34.0021 48.4637 34.1349 48.236C34.9796 46.7782 35.4278 44.7053 35.4278 42.2416C35.4278 40.2525 36.2179 38.3448 37.6245 36.9383C39.031 35.5318 40.9386 34.7416 42.9278 34.7416C44.9169 34.7416 46.8245 35.5318 48.2311 36.9383C49.6376 38.3448 50.4278 40.2525 50.4278 42.2416C50.4278 44.7044 50.8759 46.7772 51.7224 48.236ZM45.0484 50.4916H40.8071C40.9625 50.9298 41.2498 51.3091 41.6296 51.5774C42.0093 51.8456 42.4628 51.9896 42.9278 51.9896C43.3927 51.9896 43.8462 51.8456 44.2259 51.5774C44.6057 51.3091 44.893 50.9298 45.0484 50.4916Z" fill="white"/>
</svg>
