<svg width="86" height="87" viewBox="0 0 86 87" fill="none" xmlns="http://www.w3.org/2000/svg">
<circle opacity="0.3" cx="43" cy="43.6084" r="42.5" fill="#838BA8" stroke="#838BA8"/>
<circle opacity="0.6" cx="43" cy="43.6084" r="34.041" fill="#838BA8" stroke="#838BA8"/>
<circle cx="42.6475" cy="43.2559" r="25.7295" fill="#838BA8"/>
<path d="M51.8052 37.9778H48.0542V35.1646C48.0542 33.6723 47.4614 32.2412 46.4062 31.186C45.3511 30.1309 43.92 29.5381 42.4277 29.5381C40.9355 29.5381 39.5044 30.1309 38.4492 31.186C37.3941 32.2412 36.8013 33.6723 36.8013 35.1646V37.9778H33.0503C32.5529 37.9778 32.0758 38.1754 31.7241 38.5271C31.3724 38.8788 31.1748 39.3559 31.1748 39.8533V52.9817C31.1748 53.4791 31.3724 53.9561 31.7241 54.3079C32.0758 54.6596 32.5529 54.8572 33.0503 54.8572H51.8052C52.3026 54.8572 52.7796 54.6596 53.1313 54.3079C53.4831 53.9561 53.6807 53.4791 53.6807 52.9817V39.8533C53.6807 39.3559 53.4831 38.8788 53.1313 38.5271C52.7796 38.1754 52.3026 37.9778 51.8052 37.9778ZM43.3655 47.1946V50.1685C43.3655 50.4172 43.2667 50.6557 43.0908 50.8315C42.915 51.0074 42.6764 51.1062 42.4277 51.1062C42.179 51.1062 41.9405 51.0074 41.7646 50.8315C41.5888 50.6557 41.49 50.4172 41.49 50.1685V47.1946C40.8643 46.9734 40.337 46.5382 40.0012 45.9657C39.6654 45.3933 39.5428 44.7206 39.655 44.0666C39.7672 43.4125 40.1071 42.8192 40.6145 42.3914C41.1218 41.9637 41.7641 41.7291 42.4277 41.7291C43.0914 41.7291 43.7336 41.9637 44.241 42.3914C44.7484 42.8192 45.0882 43.4125 45.2005 44.0666C45.3127 44.7206 45.1901 45.3933 44.8543 45.9657C44.5185 46.5382 43.9912 46.9734 43.3655 47.1946ZM46.1787 37.9778H38.6768V35.1646C38.6768 34.1697 39.0719 33.2157 39.7754 32.5122C40.4788 31.8088 41.4329 31.4136 42.4277 31.4136C43.4226 31.4136 44.3766 31.8088 45.0801 32.5122C45.7835 33.2157 46.1787 34.1697 46.1787 35.1646V37.9778Z" fill="white"/>
</svg>
