<svg width="86" height="87" viewBox="0 0 86 87" fill="none" xmlns="http://www.w3.org/2000/svg">
<circle opacity="0.3" cx="43" cy="43.1084" r="42.5" fill="#838BA8" stroke="#838BA8"/>
<circle opacity="0.6" cx="43" cy="43.1084" r="34.041" fill="#838BA8" stroke="#838BA8"/>
<circle cx="42.6475" cy="42.7559" r="25.7295" fill="#838BA8"/>
<path d="M51.8438 39.6479C51.422 39.6457 51.0037 39.7253 50.6122 39.8823L47.0391 35.4221C47.3328 34.9991 47.5228 34.5129 47.5938 34.0028C47.6647 33.4927 47.6146 32.9731 47.4475 32.486C47.2804 31.9989 47.001 31.5579 46.6318 31.1988C46.2627 30.8397 45.8142 30.5726 45.3227 30.4189C44.8311 30.2653 44.3103 30.2295 43.8024 30.3145C43.2945 30.3995 42.8137 30.6028 42.3989 30.9081C41.9842 31.2133 41.6471 31.6119 41.4149 32.0716C41.1827 32.5313 41.062 33.0392 41.0626 33.5541C41.0625 33.6692 41.0684 33.7842 41.0802 33.8987L35.6344 36.1674C35.3064 35.7651 34.8876 35.4463 34.4124 35.2373C33.9372 35.0283 33.4192 34.935 32.9009 34.9651C32.3826 34.9952 31.8789 35.1479 31.4311 35.4106C30.9833 35.6732 30.6043 36.0384 30.3251 36.4761C30.0458 36.9137 29.8745 37.4114 29.825 37.9282C29.7755 38.4449 29.8494 38.9661 30.0405 39.4488C30.2316 39.9314 30.5345 40.3619 30.9243 40.7047C31.3141 41.0476 31.7798 41.293 32.2829 41.4209L32.4997 46.8561C32.0029 47.0257 31.5541 47.3121 31.1909 47.6911C30.8277 48.0701 30.5607 48.5307 30.4124 49.0342C30.2641 49.5378 30.2387 50.0696 30.3385 50.585C30.4383 51.1003 30.6602 51.5842 30.9858 51.9961C31.3113 52.4079 31.7309 52.7356 32.2093 52.9517C32.6877 53.1678 33.2109 53.2659 33.7351 53.2379C34.2593 53.2099 34.7691 53.0565 35.2218 52.7906C35.6744 52.5248 36.0566 52.1542 36.3364 51.71L42.0001 53.2967C42.008 53.8245 42.1432 54.3425 42.3941 54.8069C42.6449 55.2713 43.0041 55.6683 43.4412 55.9642C43.8782 56.2602 44.3802 56.4463 44.9046 56.5069C45.4289 56.5674 45.9601 56.5006 46.4531 56.312C46.9461 56.1235 47.3863 55.8188 47.7364 55.4238C48.0865 55.0288 48.3362 54.5552 48.4642 54.0432C48.5922 53.5311 48.5949 52.9957 48.4718 52.4824C48.3488 51.9692 48.1037 51.4931 47.7575 51.0948L50.9462 46.085C51.3975 46.2135 51.8711 46.2437 52.3351 46.1735C52.7991 46.1034 53.2426 45.9345 53.6358 45.6784C54.0289 45.4222 54.3626 45.0847 54.6142 44.6886C54.8658 44.2925 55.0296 43.8471 55.0944 43.3823C55.1592 42.9176 55.1236 42.4443 54.9899 41.9945C54.8562 41.5447 54.6277 41.1288 54.3196 40.7748C54.0115 40.4209 53.6311 40.1371 53.204 39.9427C52.7769 39.7483 52.3131 39.6478 51.8438 39.6479ZM35.3427 40.6276L40.3266 43.5151L35.468 47.2909C35.1379 47.0547 34.7667 46.8819 34.3735 46.7811L34.1567 41.3459C34.5987 41.1937 35.003 40.9488 35.3427 40.6276ZM44.5278 36.8354C44.8876 36.8157 45.2416 36.7365 45.5755 36.601L49.1485 41.0612C48.9206 41.3884 48.7546 41.7546 48.6587 42.1416L43.2012 42.4018L44.5278 36.8354ZM36.62 48.7709L41.5313 44.9518L43.3993 50.5569C43.0436 50.8077 42.7409 51.1263 42.5087 51.4944L36.8438 49.9053C36.837 49.5169 36.7612 49.1328 36.62 48.7709ZM45.2813 49.9604H45.177L43.2809 44.2733L48.7477 44.0131C48.8859 44.4004 49.0958 44.7582 49.3665 45.0678L46.1778 50.0776C45.8858 49.9973 45.5841 49.9579 45.2813 49.9604ZM41.8032 35.6284C42.0551 35.9354 42.3599 36.195 42.7032 36.3948L41.379 41.9553L36.2848 39.0057C36.3448 38.7554 36.3751 38.499 36.3751 38.2416C36.3751 38.1266 36.3693 38.0116 36.3575 37.8971L41.8032 35.6284Z" fill="white"/>
</svg>
