<svg width="86" height="87" viewBox="0 0 86 87" fill="none" xmlns="http://www.w3.org/2000/svg">
<circle opacity="0.2" cx="43" cy="43.0156" r="42.5" fill="#838BA8" stroke="#838BA8"/>
<circle opacity="0.5" cx="43" cy="43.0156" r="34.041" fill="#838BA8" stroke="#838BA8"/>
<circle cx="42.6475" cy="42.6631" r="25.2295" fill="#838BA8" stroke="#838BA8"/>
<path d="M50.4999 44.0879C50.5018 44.3937 50.4089 44.6926 50.234 44.9434C50.059 45.1942 49.8107 45.3847 49.523 45.4885L44.6874 47.2754L42.9062 52.1148C42.8007 52.4013 42.6098 52.6486 42.3594 52.8233C42.1089 52.998 41.8109 53.0917 41.5055 53.0917C41.2002 53.0917 40.9022 52.998 40.6517 52.8233C40.4012 52.6486 40.2104 52.4013 40.1049 52.1148L38.3124 47.2754L33.473 45.4941C33.1865 45.3887 32.9391 45.1978 32.7645 44.9474C32.5898 44.6969 32.4961 44.3989 32.4961 44.0935C32.4961 43.7882 32.5898 43.4901 32.7645 43.2397C32.9391 42.9892 33.1865 42.7984 33.473 42.6929L38.3124 40.9004L40.0937 36.061C40.1991 35.7744 40.39 35.5271 40.6404 35.3524C40.8909 35.1777 41.1889 35.0841 41.4943 35.0841C41.7996 35.0841 42.0977 35.1777 42.3481 35.3524C42.5986 35.5271 42.7894 35.7744 42.8949 36.061L44.6874 40.9004L49.5268 42.6816C49.8146 42.7864 50.0628 42.978 50.2371 43.2299C50.4114 43.4818 50.5033 43.7816 50.4999 44.0879ZM45.2499 35.0879H46.7499V36.5879C46.7499 36.7868 46.8289 36.9776 46.9696 37.1182C47.1102 37.2589 47.301 37.3379 47.4999 37.3379C47.6988 37.3379 47.8896 37.2589 48.0302 37.1182C48.1709 36.9776 48.2499 36.7868 48.2499 36.5879V35.0879H49.7499C49.9488 35.0879 50.1396 35.0089 50.2802 34.8682C50.4209 34.7276 50.4999 34.5368 50.4999 34.3379C50.4999 34.139 50.4209 33.9482 50.2802 33.8076C50.1396 33.6669 49.9488 33.5879 49.7499 33.5879H48.2499V32.0879C48.2499 31.889 48.1709 31.6982 48.0302 31.5576C47.8896 31.4169 47.6988 31.3379 47.4999 31.3379C47.301 31.3379 47.1102 31.4169 46.9696 31.5576C46.8289 31.6982 46.7499 31.889 46.7499 32.0879V33.5879H45.2499C45.051 33.5879 44.8602 33.6669 44.7196 33.8076C44.5789 33.9482 44.4999 34.139 44.4999 34.3379C44.4999 34.5368 44.5789 34.7276 44.7196 34.8682C44.8602 35.0089 45.051 35.0879 45.2499 35.0879ZM53.4999 38.0879H52.7499V37.3379C52.7499 37.139 52.6709 36.9482 52.5302 36.8076C52.3896 36.6669 52.1988 36.5879 51.9999 36.5879C51.801 36.5879 51.6102 36.6669 51.4696 36.8076C51.3289 36.9482 51.2499 37.139 51.2499 37.3379V38.0879H50.4999C50.301 38.0879 50.1102 38.1669 49.9696 38.3076C49.8289 38.4482 49.7499 38.639 49.7499 38.8379C49.7499 39.0368 49.8289 39.2276 49.9696 39.3682C50.1102 39.5089 50.301 39.5879 50.4999 39.5879H51.2499V40.3379C51.2499 40.5368 51.3289 40.7276 51.4696 40.8682C51.6102 41.0089 51.801 41.0879 51.9999 41.0879C52.1988 41.0879 52.3896 41.0089 52.5302 40.8682C52.6709 40.7276 52.7499 40.5368 52.7499 40.3379V39.5879H53.4999C53.6988 39.5879 53.8896 39.5089 54.0302 39.3682C54.1709 39.2276 54.2499 39.0368 54.2499 38.8379C54.2499 38.639 54.1709 38.4482 54.0302 38.3076C53.8896 38.1669 53.6988 38.0879 53.4999 38.0879Z" fill="white"/>
</svg>
