<svg xmlns="http://www.w3.org/2000/svg" viewBox="0 0 290.51 243.03"><defs><style>.cls-1{fill:#fff;}.cls-2{fill:#08303a;}.cls-3{fill:#11696b;}.cls-4{fill:#20d3bd;}</style></defs><g id="artwork"><path class="cls-1" d="M15.93,179.57,0,227.16H6.11L9.84,216H30.18l3.76,11.14h6.12L24.13,179.57ZM11.69,210.5,20,185.76l8.35,24.74Z"/><path class="cls-1" d="M50.42,197.76a10.2,10.2,0,0,1,6-1.7,10,10,0,0,1,5.8,1.72,9.48,9.48,0,0,1,3.65,4.82l5.82-1.75a13.38,13.38,0,0,0-5.47-7.6,16.88,16.88,0,0,0-9.73-2.78,17,17,0,0,0-9.16,2.38,15.56,15.56,0,0,0-5.83,6.63,23,23,0,0,0-2.1,9.83,23.44,23.44,0,0,0,2,9.72,15.51,15.51,0,0,0,5.77,6.69,16.67,16.67,0,0,0,9.2,2.43A16.64,16.64,0,0,0,66,225.51a15.25,15.25,0,0,0,5.78-7.64l-5.95-1.55a9.72,9.72,0,0,1-3.5,4.64,10,10,0,0,1-5.82,1.61q-5.32,0-8-3.66t-2.76-9.6a19.34,19.34,0,0,1,1.19-6.85A10.11,10.11,0,0,1,50.42,197.76Z"/><path class="cls-1" d="M90.32,191.22a13.63,13.63,0,0,0-3.57.71,10.08,10.08,0,0,0-3.14,1.72,9.64,9.64,0,0,0-2.27,2.28,11.91,11.91,0,0,0-.77,1.22v-5.68H75.31v35.69h5.92V209.25a23.72,23.72,0,0,1,.36-4.15,12.37,12.37,0,0,1,1.31-3.78,8.58,8.58,0,0,1,2.66-3,8.33,8.33,0,0,1,4.1-1.62,11,11,0,0,1,4.06.27v-5.52A11.45,11.45,0,0,0,90.32,191.22Z"/><polygon class="cls-1" points="112.3 219.55 101.16 191.47 94.98 191.47 109.46 227.04 103.58 243.03 109.29 243.03 128.73 191.47 122.75 191.47 112.3 219.55"/><rect class="cls-1" x="131.55" y="178.58" width="5.88" height="48.59"/><path class="cls-1" d="M192.48,183.88a17,17,0,0,0-9.24-4,29.29,29.29,0,0,0-3.47-.26l-2.54,0H162.55v47.59h14.68l2.53,0a34.3,34.3,0,0,0,3.48-.25,16.89,16.89,0,0,0,9.24-4,20.38,20.38,0,0,0,5.6-8.35,33.75,33.75,0,0,0,0-22.27A20.31,20.31,0,0,0,192.48,183.88Zm.12,27.68a15.45,15.45,0,0,1-3.54,6.35,11.34,11.34,0,0,1-6.31,3.27,23.19,23.19,0,0,1-2.71.28c-1,.06-2,.08-2.81.08H168.6V185.19h8.63c.79,0,1.72,0,2.77.06a19.41,19.41,0,0,1,2.75.3,11.13,11.13,0,0,1,6.28,3.21,15.28,15.28,0,0,1,3.55,6.31,30.65,30.65,0,0,1,0,16.49Z"/><path class="cls-1" d="M231.26,197.45a10.23,10.23,0,0,0-5-5.24,18.47,18.47,0,0,0-8.34-1.74c-4,0-7.29.9-9.75,2.68a13.06,13.06,0,0,0-5,7.37l5.58,1.69a8,8,0,0,1,3.42-4.78,10.74,10.74,0,0,1,5.67-1.47q4.89,0,6.89,2.28,1.8,2.06,1.9,6.11c-1.26.18-2.56.35-3.93.53q-3.24.44-6.4,1a56.51,56.51,0,0,0-5.7,1.2,15.68,15.68,0,0,0-4.66,2.17,9.41,9.41,0,0,0-3,3.44,10.35,10.35,0,0,0-1.08,4.87,10.47,10.47,0,0,0,1.38,5.29,10.08,10.08,0,0,0,4.06,3.88,13.85,13.85,0,0,0,6.69,1.47,16.62,16.62,0,0,0,8.81-2.21,13.76,13.76,0,0,0,4.41-4.35v5.57h5.23V205.08a40.38,40.38,0,0,0-.2-4.05A11.08,11.08,0,0,0,231.26,197.45ZM226,215a9.56,9.56,0,0,1-1.85,4.08,10.31,10.31,0,0,1-3.75,3,12.39,12.39,0,0,1-5.5,1.14,8.87,8.87,0,0,1-4.12-.83,5.48,5.48,0,0,1-3.06-4.92,4.89,4.89,0,0,1,.78-2.83,6.16,6.16,0,0,1,2.05-1.87,14.54,14.54,0,0,1,2.73-1.19,41.3,41.3,0,0,1,4.46-1c1.65-.28,3.4-.53,5.25-.78l3.6-.48c0,.56,0,1.2,0,1.95A14.3,14.3,0,0,1,226,215Z"/><path class="cls-1" d="M247,181.55h-5.88v9.92h-7.24v4.85h7.24v17.36c0,1.83,0,3.46.08,4.9a10.51,10.51,0,0,0,1.14,4.28,7.82,7.82,0,0,0,3.67,3.56,13.85,13.85,0,0,0,5.5,1.25,26.82,26.82,0,0,0,6.27-.51V222.1a21.57,21.57,0,0,1-6.27.2,4.84,4.84,0,0,1-3.78-2.48,5.7,5.7,0,0,1-.68-2.67c0-1-.05-2.28-.05-3.74V196.32h10.78v-4.85H247Z"/><path class="cls-1" d="M290.31,201a11.08,11.08,0,0,0-1-3.58,10.23,10.23,0,0,0-5-5.24,18.47,18.47,0,0,0-8.34-1.74q-6,0-9.75,2.68a13.06,13.06,0,0,0-5,7.37l5.58,1.69a8,8,0,0,1,3.42-4.78,10.74,10.74,0,0,1,5.67-1.47q4.89,0,6.89,2.28,1.8,2.06,1.9,6.11c-1.26.18-2.56.35-3.93.53q-3.24.44-6.39,1a56.15,56.15,0,0,0-5.71,1.2A15.68,15.68,0,0,0,264,209.2a9.5,9.5,0,0,0-3,3.44,10.35,10.35,0,0,0-1.07,4.87,10.46,10.46,0,0,0,1.37,5.29,10.08,10.08,0,0,0,4.06,3.88,13.86,13.86,0,0,0,6.7,1.47,16.61,16.61,0,0,0,8.8-2.21,13.89,13.89,0,0,0,4.42-4.35v5.57h5.22V205.08A40.38,40.38,0,0,0,290.31,201Zm-6.25,14a9.56,9.56,0,0,1-1.85,4.08,10.31,10.31,0,0,1-3.75,3,12.39,12.39,0,0,1-5.5,1.14,8.87,8.87,0,0,1-4.12-.83,5.45,5.45,0,0,1-3-4.92,4.89,4.89,0,0,1,.77-2.83,6.16,6.16,0,0,1,2.05-1.87,14.54,14.54,0,0,1,2.73-1.19,41.3,41.3,0,0,1,4.46-1c1.65-.28,3.4-.53,5.26-.78l3.59-.48c0,.56,0,1.2,0,1.95A13.88,13.88,0,0,1,284.06,215Z"/><path class="cls-2" d="M183.29,34.23,166.77,11.08a26.43,26.43,0,0,0-43,0L107.22,34.23A26.42,26.42,0,0,0,128.73,76h33a26.42,26.42,0,0,0,21.52-41.77ZM161.77,68h-33a18.42,18.42,0,0,1-15-29.12l16.52-23.16a18.43,18.43,0,0,1,30,0l16.52,23.16A18.42,18.42,0,0,1,161.77,68Z"/><path class="cls-3" d="M192.79,72.32,159.91,26.24a18,18,0,0,0-29.31,0L97.72,72.32a18,18,0,0,0,14.65,28.46h65.77a18,18,0,0,0,14.65-28.46ZM178.14,92.78H112.37A10,10,0,0,1,104.23,77l32.88-46.09a10,10,0,0,1,16.28,0L186.28,77A10,10,0,0,1,178.14,92.78Z"/><path class="cls-4" d="M201.73,109.26,153.46,41.61a10.07,10.07,0,0,0-16.41,0L88.78,109.26A10.08,10.08,0,0,0,97,125.19h96.55a10.08,10.08,0,0,0,8.2-15.93Zm-8.2,7.93H97a2.08,2.08,0,0,1-1.69-3.29l48.27-67.65a2.08,2.08,0,0,1,1.69-.87,2.05,2.05,0,0,1,1.69.87l48.28,67.65A2.08,2.08,0,0,1,193.53,117.19Z"/></g></svg>