<svg xmlns="http://www.w3.org/2000/svg" viewBox="0 0 459.11 125.19"><defs><style>.cls-1{fill:#b0cad2;}.cls-2{fill:#67bcbd;}.cls-3{fill:#20d3bd;}.cls-4{fill:#091013;}</style></defs><g id="artwork"><path class="cls-1" d="M96.39,34.23,79.87,11.08a26.43,26.43,0,0,0-43,0L20.32,34.23A26.42,26.42,0,0,0,41.83,76h33A26.42,26.42,0,0,0,96.39,34.23ZM74.87,68h-33a18.42,18.42,0,0,1-15-29.12L43.35,15.72a18.43,18.43,0,0,1,30,0L89.87,38.88A18.42,18.42,0,0,1,74.87,68Z"/><path class="cls-2" d="M105.89,72.32,73,26.24a18,18,0,0,0-29.31,0L10.82,72.32a18,18,0,0,0,14.65,28.46H91.24a18,18,0,0,0,14.65-28.46ZM91.24,92.78H25.47A10,10,0,0,1,17.33,77L50.21,30.88a10,10,0,0,1,16.28,0L99.38,77A10,10,0,0,1,91.24,92.78Z"/><path class="cls-3" d="M114.83,109.26,66.56,41.61a10.07,10.07,0,0,0-16.41,0L1.88,109.26a10.08,10.08,0,0,0,8.2,15.93h96.55a10.08,10.08,0,0,0,8.2-15.93Zm-8.2,7.93H10.08a2.08,2.08,0,0,1-1.69-3.29L56.66,46.25a2.08,2.08,0,0,1,1.69-.87,2.05,2.05,0,0,1,1.69.87l48.28,67.65A2.08,2.08,0,0,1,106.63,117.19Z"/><path class="cls-4" d="M176.47,41l-16.4,49h6.3l3.83-11.47h20.94L195,89.94h6.3l-16.4-49ZM172.1,72.79l8.52-25.47,8.6,25.47Z"/><path class="cls-4" d="M212,59.67a10.47,10.47,0,0,1,6.22-1.75,10.34,10.34,0,0,1,6,1.77,9.86,9.86,0,0,1,3.76,5l6-1.8A13.77,13.77,0,0,0,228.29,55a19.15,19.15,0,0,0-19.44-.41,16.09,16.09,0,0,0-6,6.82,24.79,24.79,0,0,0-.05,20.13,16,16,0,0,0,5.94,6.89A19,19,0,0,0,228,88.24a15.82,15.82,0,0,0,5.95-7.86l-6.12-1.6a10.14,10.14,0,0,1-3.61,4.78,10.27,10.27,0,0,1-6,1.65q-5.47,0-8.25-3.76t-2.84-9.88a20,20,0,0,1,1.22-7.06A10.37,10.37,0,0,1,212,59.67Z"/><path class="cls-4" d="M253,52.94a14.22,14.22,0,0,0-3.68.73,10.46,10.46,0,0,0-3.23,1.77,10,10,0,0,0-2.33,2.35A14.73,14.73,0,0,0,243,59V53.19h-5.41V89.94h6.09V71.5a24.13,24.13,0,0,1,.38-4.27,12.87,12.87,0,0,1,1.34-3.9,9,9,0,0,1,2.74-3.06,8.53,8.53,0,0,1,4.22-1.67,11.21,11.21,0,0,1,4.18.28V53.19A12.1,12.1,0,0,0,253,52.94Z"/><polygon class="cls-4" points="275.67 82.1 264.2 53.19 257.84 53.19 272.74 89.81 266.69 106.27 272.57 106.27 292.58 53.19 286.42 53.19 275.67 82.1"/><rect class="cls-4" x="295.48" y="39.93" width="6.06" height="50.01"/><path class="cls-4" d="M358.2,45.39a17.39,17.39,0,0,0-9.51-4.14,28.76,28.76,0,0,0-3.57-.27l-2.62,0H327.4v49h15.1l2.6,0c1.26,0,2.46-.12,3.59-.26a17.45,17.45,0,0,0,9.51-4.13A21.06,21.06,0,0,0,364,76.91a32.67,32.67,0,0,0,1.94-11.47A32.66,32.66,0,0,0,364,54,21,21,0,0,0,358.2,45.39Zm.12,28.49a15.78,15.78,0,0,1-3.64,6.53,11.57,11.57,0,0,1-6.5,3.37,24.06,24.06,0,0,1-2.79.29c-1.06.06-2,.08-2.89.08h-8.88V46.73h8.88c.82,0,1.77,0,2.86.07a18.91,18.91,0,0,1,2.82.3,11.56,11.56,0,0,1,6.47,3.3,15.78,15.78,0,0,1,3.65,6.5,29.38,29.38,0,0,1,1.18,8.54A29.69,29.69,0,0,1,358.32,73.88Z"/><path class="cls-4" d="M398.12,59.35A10.56,10.56,0,0,0,393,54a19.14,19.14,0,0,0-8.59-1.79q-6.22,0-10,2.76a13.49,13.49,0,0,0-5.14,7.59L375,64.25a8.24,8.24,0,0,1,3.52-4.92,11.14,11.14,0,0,1,5.84-1.51q5,0,7.09,2.35c1.24,1.41,1.88,3.51,2,6.29l-4,.55c-2.22.29-4.42.61-6.58,1a55.44,55.44,0,0,0-5.87,1.24,16.13,16.13,0,0,0-4.8,2.23A9.74,9.74,0,0,0,369,75a10.74,10.74,0,0,0-1.11,5,10.85,10.85,0,0,0,1.41,5.45,10.36,10.36,0,0,0,4.19,4A14.21,14.21,0,0,0,380.33,91a17,17,0,0,0,9.06-2.28,14.47,14.47,0,0,0,4.55-4.47v5.73h5.37V67.21c0-1.45-.07-2.84-.2-4.17A11.84,11.84,0,0,0,398.12,59.35Zm-5.44,18.07a10,10,0,0,1-1.91,4.2,10.66,10.66,0,0,1-3.86,3.1,12.8,12.8,0,0,1-5.66,1.17A9.2,9.2,0,0,1,377,85a5.69,5.69,0,0,1-2.38-2.21,5.76,5.76,0,0,1-.77-2.86,5.06,5.06,0,0,1,.8-2.91,6.4,6.4,0,0,1,2.11-1.92,14.76,14.76,0,0,1,2.81-1.23,43.17,43.17,0,0,1,4.59-1c1.7-.28,3.51-.55,5.41-.8l3.7-.49c0,.57,0,1.23,0,2A14.31,14.31,0,0,1,392.68,77.42Z"/><path class="cls-4" d="M414.36,43H408.3v10.2h-7.45v5h7.45V76.06c0,1.88,0,3.56.09,5a10.51,10.51,0,0,0,1.17,4.4,8,8,0,0,0,3.78,3.66A14.4,14.4,0,0,0,419,90.46a27.81,27.81,0,0,0,6.45-.52V84.73a22.49,22.49,0,0,1-6.45.21,5,5,0,0,1-3.89-2.56,5.77,5.77,0,0,1-.7-2.75c0-1.07-.05-2.35-.05-3.85V58.19h11.09v-5H414.36Z"/><path class="cls-4" d="M458.91,63a11.84,11.84,0,0,0-1-3.69A10.58,10.58,0,0,0,452.76,54a19.08,19.08,0,0,0-8.59-1.79q-6.23,0-10,2.76A13.44,13.44,0,0,0,429,62.52l5.75,1.73a8.2,8.2,0,0,1,3.52-4.92,11.14,11.14,0,0,1,5.84-1.51c3.35,0,5.72.78,7.09,2.35q1.85,2.11,1.95,6.29l-4,.55c-2.23.29-4.42.61-6.59,1a56.53,56.53,0,0,0-5.87,1.24,16.07,16.07,0,0,0-4.79,2.23A9.87,9.87,0,0,0,428.74,75a11.59,11.59,0,0,0,.31,10.47,10.36,10.36,0,0,0,4.19,4A14.17,14.17,0,0,0,440.12,91a17,17,0,0,0,9.07-2.28,14.34,14.34,0,0,0,4.54-4.47v5.73h5.38V67.21C459.11,65.76,459,64.37,458.91,63Zm-6.44,14.38a10,10,0,0,1-1.9,4.2,10.74,10.74,0,0,1-3.86,3.1A12.81,12.81,0,0,1,441,85.89a9.16,9.16,0,0,1-4.23-.85,5.69,5.69,0,0,1-2.38-2.21,5.76,5.76,0,0,1-.77-2.86,5.06,5.06,0,0,1,.8-2.91,6.3,6.3,0,0,1,2.11-1.92,14.49,14.49,0,0,1,2.81-1.23,43.17,43.17,0,0,1,4.59-1q2.55-.42,5.41-.8l3.7-.49c0,.57,0,1.23,0,2A14.72,14.72,0,0,1,452.47,77.42Z"/></g></svg>