<svg width="187" height="194" viewBox="0 0 187 194" fill="none" xmlns="http://www.w3.org/2000/svg">
<path fill-rule="evenodd" clip-rule="evenodd" d="M78.7065 25.6256C85.2478 24.3245 92.0008 24.5455 98.443 26.2717C100.808 26.9053 103.238 25.5021 103.872 23.1374C104.505 20.7728 103.102 18.3423 100.737 17.7087C92.9818 15.6306 84.852 15.3644 76.977 16.9309C69.102 18.4973 61.6929 21.8543 55.3228 26.7422C48.9527 31.6302 43.7925 37.9179 40.2412 45.1192C36.69 52.3204 34.8429 60.2421 34.8429 68.2714C34.8429 76.3006 36.69 84.2223 40.2412 91.4235C40.4779 91.9035 40.7217 92.3793 40.9726 92.851L25.705 102.393C24.187 101.5 22.4181 100.988 20.5297 100.988C14.8832 100.988 10.3058 105.566 10.3058 111.212C10.3058 116.859 14.8832 121.436 20.5297 121.436C26.1762 121.436 30.7536 116.859 30.7536 111.212C30.7536 110.718 30.7185 110.232 30.6507 109.756L45.7837 100.298C48.5322 103.852 51.7357 107.048 55.3228 109.8C61.6929 114.688 69.102 118.045 76.977 119.612C84.852 121.178 92.9818 120.912 100.737 118.834C103.102 118.2 104.505 115.77 103.872 113.405C103.238 111.041 100.808 109.637 98.443 110.271C92.0008 111.997 85.2478 112.218 78.7065 110.917C72.1651 109.616 66.0108 106.827 60.7195 102.767C55.4283 98.7072 51.1419 93.4843 48.1921 87.5026C45.2423 81.5209 43.708 74.9408 43.708 68.2714C43.708 61.6019 45.2423 55.0218 48.1921 49.0401C51.1419 43.0584 55.4283 37.8355 60.7195 33.7754C66.0108 29.7153 72.1651 26.9268 78.7065 25.6256Z" fill="url(#paint0_linear_3_3911)"/>
<path d="M91.0298 40.4942C98.1204 41.3521 104.637 44.7148 109.373 49.936C114.107 55.1554 116.74 61.8765 116.8 68.8449C116.86 75.8133 114.344 82.5768 109.701 87.8738C105.057 93.1726 98.6001 96.6435 91.5256 97.6198" stroke="url(#paint1_linear_3_3911)" stroke-width="8.8651" stroke-linecap="round" stroke-linejoin="round"/>
<path fill-rule="evenodd" clip-rule="evenodd" d="M87.1893 0.384033C84.7412 0.384033 82.7567 2.36855 82.7567 4.81658C82.7567 7.26461 84.7412 9.24913 87.1893 9.24913C97.0299 9.24913 106.719 11.676 115.397 16.3149C124.076 20.9537 131.477 27.6613 136.944 35.8436C142.411 44.0258 145.776 53.43 146.741 63.2233C147.705 73.0165 146.24 82.8965 142.474 91.9881C138.708 101.08 132.758 109.102 125.151 115.345C117.544 121.588 108.515 125.858 98.8634 127.778C89.2118 129.698 79.2357 129.208 69.8188 126.351C60.4019 123.495 51.8348 118.36 44.8764 111.401C43.1454 109.67 40.3389 109.67 38.6078 111.401C36.8768 113.132 36.8768 115.939 38.6078 117.67C46.5971 125.659 56.4334 131.555 67.2454 134.835C78.0574 138.114 89.5114 138.677 100.593 136.473C111.674 134.269 122.041 129.366 130.775 122.198C139.509 115.03 146.34 105.819 150.664 95.3806C154.988 84.9422 156.67 73.5985 155.563 62.3543C154.456 51.1102 150.592 40.3127 144.315 30.9184C144.152 30.6743 143.987 30.4314 143.821 30.1897L150.493 26.02C151.992 26.8823 153.73 27.3755 155.583 27.3755C161.23 27.3755 165.807 22.7981 165.807 17.1516C165.807 11.5051 161.23 6.92772 155.583 6.92772C149.937 6.92772 145.36 11.5051 145.36 17.1516C145.36 17.6784 145.399 18.1959 145.476 18.7012L138.306 23.1825C132.981 17.2533 126.648 12.2767 119.576 8.49657C109.612 3.17048 98.4878 0.384033 87.1893 0.384033Z" fill="url(#paint2_linear_3_3911)"/>
<path d="M174.92 193.666C172.448 193.666 170.376 193.084 168.702 191.92C167.028 190.755 165.769 189.172 164.925 187.169C164.08 185.151 163.658 182.892 163.658 180.392C163.658 177.861 164.08 175.595 164.925 173.592C165.769 171.589 167.005 170.013 168.632 168.864C170.274 167.7 172.3 167.118 174.709 167.118C177.102 167.118 179.175 167.7 180.927 168.864C182.694 170.013 184.063 171.589 185.033 173.592C186.002 175.579 186.487 177.846 186.487 180.392C186.487 182.907 186.01 185.166 185.056 187.169C184.102 189.172 182.757 190.755 181.02 191.92C179.284 193.084 177.251 193.666 174.92 193.666ZM162.696 192.968V159.433H168.397V175.315H167.693V192.968H162.696ZM174.052 188.636C175.522 188.636 176.734 188.271 177.689 187.542C178.643 186.812 179.347 185.826 179.8 184.584C180.27 183.326 180.504 181.929 180.504 180.392C180.504 178.871 180.27 177.489 179.8 176.247C179.331 174.989 178.604 173.996 177.618 173.266C176.633 172.521 175.381 172.148 173.864 172.148C172.425 172.148 171.252 172.497 170.345 173.196C169.437 173.879 168.765 174.842 168.327 176.084C167.904 177.31 167.693 178.746 167.693 180.392C167.693 182.022 167.904 183.458 168.327 184.7C168.765 185.943 169.445 186.913 170.368 187.612C171.307 188.295 172.535 188.636 174.052 188.636Z" fill="#484C5C"/>
<path d="M144.167 193.689C142.29 193.689 140.742 193.379 139.522 192.758C138.302 192.137 137.332 191.345 136.612 190.382C135.893 189.42 135.361 188.395 135.017 187.308C134.673 186.221 134.446 185.197 134.336 184.234C134.242 183.256 134.195 182.464 134.195 181.859V167.816H139.92V179.926C139.92 180.702 139.975 181.579 140.085 182.557C140.194 183.52 140.444 184.452 140.836 185.352C141.242 186.237 141.837 186.967 142.619 187.541C143.417 188.116 144.488 188.403 145.833 188.403C146.553 188.403 147.264 188.286 147.968 188.053C148.672 187.821 149.306 187.425 149.869 186.866C150.448 186.291 150.909 185.507 151.253 184.514C151.597 183.52 151.769 182.262 151.769 180.741L155.125 182.162C155.125 184.304 154.702 186.245 153.858 187.984C153.029 189.722 151.801 191.112 150.174 192.152C148.547 193.177 146.545 193.689 144.167 193.689ZM152.45 192.967V185.166H151.769V167.816H157.448V192.967H152.45Z" fill="#484C5C"/>
<path d="M102.106 192.968V159.433H107.761V173.545H123.763V159.433H129.394V192.968H123.763V178.809H107.761V192.968H102.106Z" fill="#484C5C"/>
<path d="M83.4558 193.666C81.6256 193.666 80.077 193.324 78.81 192.641C77.543 191.942 76.581 191.019 75.924 189.87C75.2827 188.721 74.962 187.455 74.962 186.074C74.962 184.863 75.1654 183.776 75.5721 182.813C75.9788 181.835 76.6045 180.997 77.4491 180.298C78.2938 179.584 79.3888 179.002 80.734 178.552C81.7508 178.225 82.9396 177.93 84.3004 177.667C85.677 177.403 87.163 177.162 88.7585 176.945C90.3696 176.712 92.0511 176.463 93.8031 176.199L91.7852 177.341C91.8009 175.602 91.4098 174.321 90.6121 173.498C89.8143 172.675 88.4691 172.264 86.5764 172.264C85.4345 172.264 84.3317 172.528 83.268 173.055C82.2044 173.583 81.4614 174.492 81.039 175.78L75.8771 174.173C76.5028 172.046 77.6916 170.338 79.4435 169.05C81.2111 167.761 83.5887 167.117 86.5764 167.117C88.8288 167.117 90.8076 167.482 92.5126 168.211C94.2332 168.941 95.5081 170.137 96.3371 171.798C96.7907 172.683 97.0645 173.591 97.1583 174.523C97.2522 175.439 97.2991 176.44 97.2991 177.527V192.967H92.3483V187.518L93.1696 188.402C92.0277 190.219 90.6903 191.554 89.1573 192.408C87.64 193.246 85.7395 193.666 83.4558 193.666ZM84.582 189.194C85.8647 189.194 86.9596 188.969 87.8669 188.519C88.7741 188.069 89.4936 187.518 90.0255 186.865C90.573 186.213 90.9406 185.6 91.1283 185.026C91.4255 184.311 91.5897 183.496 91.621 182.58C91.6679 181.649 91.6914 180.896 91.6914 180.321L93.4277 180.834C91.7227 181.098 90.2601 181.331 89.04 181.532C87.8199 181.734 86.7719 181.928 85.8959 182.115C85.02 182.285 84.2457 182.479 83.5731 182.697C82.9161 182.93 82.3608 183.201 81.9072 183.512C81.4535 183.822 81.1016 184.18 80.8513 184.583C80.6167 184.987 80.4994 185.46 80.4994 186.004C80.4994 186.625 80.6558 187.176 80.9686 187.657C81.2815 188.123 81.7351 188.496 82.3295 188.775C82.9396 189.055 83.6904 189.194 84.582 189.194Z" fill="#484C5C"/>
<path d="M72.2243 192.969C70.5505 193.279 68.9081 193.411 67.297 193.365C65.7015 193.334 64.2702 193.047 63.0032 192.503C61.7362 191.944 60.7742 191.067 60.1172 189.872C59.5384 188.785 59.2334 187.675 59.2021 186.541C59.1708 185.408 59.1552 184.127 59.1552 182.699V160.831H64.7864V182.373C64.7864 183.382 64.7942 184.267 64.8099 185.028C64.8411 185.788 65.0054 186.409 65.3026 186.891C65.8657 187.822 66.7651 188.342 68.0009 188.451C69.2366 188.56 70.6444 188.498 72.2243 188.265V192.969ZM54.5564 172.219V167.818H72.2243V172.219H54.5564Z" fill="#484C5C"/>
<path d="M38.7233 193.666C36.8932 193.666 35.3446 193.324 34.0776 192.641C32.8106 191.942 31.8486 191.019 31.1916 189.87C30.5503 188.721 30.2296 187.455 30.2296 186.074C30.2296 184.863 30.433 183.776 30.8397 182.813C31.2464 181.835 31.872 180.997 32.7167 180.298C33.5614 179.584 34.6564 179.002 36.0016 178.552C37.0183 178.225 38.2071 177.93 39.568 177.667C40.9445 177.403 42.4305 177.162 44.026 176.945C45.6372 176.712 47.3187 176.463 49.0707 176.199L47.0528 177.341C47.0684 175.602 46.6774 174.321 45.8796 173.498C45.0819 172.675 43.7367 172.264 41.844 172.264C40.7021 172.264 39.5993 172.528 38.5356 173.055C37.472 173.583 36.729 174.492 36.3066 175.78L31.1447 174.173C31.7704 172.046 32.9592 170.338 34.7111 169.05C36.4787 167.761 38.8563 167.117 41.844 167.117C44.0964 167.117 46.0752 167.482 47.7802 168.211C49.5008 168.941 50.7757 170.137 51.6047 171.798C52.0583 172.683 52.3321 173.591 52.4259 174.523C52.5198 175.439 52.5667 176.44 52.5667 177.527V192.967H47.6159V187.518L48.4371 188.402C47.2953 190.219 45.9579 191.554 44.4249 192.408C42.9076 193.246 41.0071 193.666 38.7233 193.666ZM39.8496 189.194C41.1322 189.194 42.2272 188.969 43.1344 188.519C44.0417 188.069 44.7612 187.518 45.2931 186.865C45.8405 186.213 46.2081 185.6 46.3958 185.026C46.693 184.311 46.8573 183.496 46.8886 182.58C46.9355 181.649 46.959 180.896 46.959 180.321L48.6952 180.834C46.9902 181.098 45.5277 181.331 44.3076 181.532C43.0875 181.734 42.0395 181.928 41.1635 182.115C40.2876 182.285 39.5133 182.479 38.8406 182.697C38.1837 182.93 37.6284 183.201 37.1748 183.512C36.7211 183.822 36.3692 184.18 36.1189 184.583C35.8843 184.987 35.767 185.46 35.767 186.004C35.767 186.625 35.9234 187.176 36.2362 187.657C36.5491 188.123 37.0027 188.496 37.5971 188.775C38.2071 189.055 38.958 189.194 39.8496 189.194Z" fill="#484C5C"/>
<path d="M0.0817871 192.968V159.433H10.8514C11.133 159.433 11.6883 159.44 12.5173 159.456C13.362 159.471 14.1754 159.526 14.9575 159.619C17.6323 159.96 19.8926 160.908 21.7384 162.46C23.5998 163.997 25.0076 165.961 25.9618 168.352C26.916 170.743 27.3931 173.359 27.3931 176.2C27.3931 179.041 26.916 181.657 25.9618 184.048C25.0076 186.439 23.5998 188.411 21.7384 189.964C19.8926 191.501 17.6323 192.44 14.9575 192.782C14.1911 192.875 13.3855 192.929 12.5408 192.945C11.6961 192.96 11.133 192.968 10.8514 192.968H0.0817871ZM5.8303 187.681H10.8514C11.3207 187.681 11.9151 187.666 12.6347 187.635C13.3698 187.604 14.019 187.534 14.5821 187.425C16.1776 187.13 17.4759 186.424 18.477 185.306C19.4781 184.188 20.2133 182.83 20.6826 181.23C21.1675 179.631 21.4099 177.955 21.4099 176.2C21.4099 174.384 21.1675 172.676 20.6826 171.077C20.1977 169.478 19.4468 168.135 18.4301 167.048C17.429 165.961 16.1463 165.27 14.5821 164.975C14.019 164.851 13.3698 164.781 12.6347 164.766C11.9151 164.735 11.3207 164.719 10.8514 164.719H5.8303V187.681Z" fill="#484C5C"/>
<defs>
<linearGradient id="paint0_linear_3_3911" x1="101.583" y1="132.513" x2="42.6474" y2="55.284" gradientUnits="userSpaceOnUse">
<stop stop-color="#EFAB00"/>
<stop offset="1" stop-color="#EFB700"/>
</linearGradient>
<linearGradient id="paint1_linear_3_3911" x1="71.0146" y1="72.8798" x2="80.5815" y2="38.1923" gradientUnits="userSpaceOnUse">
<stop stop-color="#DD3163"/>
<stop offset="1" stop-color="#FF5663"/>
</linearGradient>
<linearGradient id="paint2_linear_3_3911" x1="42.6091" y1="114.877" x2="81.7693" y2="101.88" gradientUnits="userSpaceOnUse">
<stop offset="0.03" stop-color="#1890FF"/>
<stop offset="1" stop-color="#18B5FF"/>
</linearGradient>
</defs>
</svg>
