<svg width="10" height="12" viewBox="0 0 10 12" fill="none" xmlns="http://www.w3.org/2000/svg">
<path d="M8.20862 3.38873L6.80162 1.3968C6.59333 1.10248 6.31853 0.862612 6.00005 0.697126C5.68157 0.531641 5.32861 0.445313 4.97048 0.445312C4.61235 0.445313 4.25938 0.531641 3.9409 0.697126C3.62243 0.862612 3.34763 1.10248 3.13934 1.3968L1.72978 3.38873C1.48958 3.72868 1.34673 4.12892 1.3169 4.54551C1.28707 4.9621 1.37143 5.37894 1.56071 5.75028C1.74999 6.12161 2.03687 6.43309 2.38987 6.65051C2.74287 6.86794 3.14834 6.98291 3.56178 6.9828H6.37237C6.78616 6.9837 7.19219 6.8693 7.5458 6.65219C7.89942 6.43509 8.18693 6.12367 8.37672 5.75219C8.56651 5.38071 8.65124 4.96355 8.62158 4.54658C8.59192 4.12961 8.44903 3.72898 8.20862 3.38873ZM6.37577 6.29445H3.56518C3.27694 6.29455 2.99425 6.21442 2.74812 6.06286C2.502 5.9113 2.30196 5.69417 2.16997 5.4353C2.03798 5.17642 1.97913 4.88581 1.99989 4.59537C2.02065 4.30492 2.12021 4.02587 2.28764 3.78883L3.69123 1.79605C3.83644 1.59055 4.02813 1.42305 4.25033 1.30748C4.47254 1.19192 4.71885 1.13163 4.96877 1.13163C5.2187 1.13163 5.46501 1.19192 5.68722 1.30748C5.90942 1.42305 6.1011 1.59055 6.24631 1.79605L7.65331 3.78883C7.82075 4.02587 7.92031 4.30492 7.94107 4.59537C7.96183 4.88581 7.90298 5.17642 7.77099 5.4353C7.63899 5.69417 7.43896 5.9113 7.19283 6.06286C6.94671 6.21442 6.66401 6.29455 6.37577 6.29445Z" fill="#90DACD"/>
<path d="M9.01796 6.6662L6.21674 2.70128C6.07495 2.5004 5.8877 2.33666 5.67059 2.22368C5.45348 2.1107 5.2128 2.05176 4.96859 2.05176C4.72437 2.05176 4.48369 2.1107 4.26659 2.22368C4.04948 2.33666 3.86223 2.5004 3.72043 2.70128L0.920915 6.6662C0.757236 6.89778 0.659872 7.17044 0.63951 7.45426C0.619148 7.73807 0.676575 8.02207 0.805487 8.27508C0.9344 8.52808 1.12982 8.74032 1.37028 8.88849C1.61075 9.03666 1.88698 9.11504 2.16865 9.11502H7.77023C8.0519 9.11504 8.32813 9.03666 8.56859 8.88849C8.80906 8.74032 9.00448 8.52808 9.13339 8.27508C9.2623 8.02207 9.31973 7.73807 9.29937 7.45426C9.27901 7.17044 9.18164 6.89778 9.01796 6.6662ZM7.77023 8.42667H2.16865C2.01259 8.42634 1.85963 8.38271 1.72645 8.30054C1.59327 8.21836 1.485 8.1008 1.41346 7.96069C1.34192 7.82057 1.30986 7.6633 1.32077 7.50603C1.33169 7.34876 1.38517 7.19754 1.47537 7.06889L4.27574 3.10052C4.35452 2.98898 4.45853 2.89806 4.57912 2.83533C4.69971 2.77261 4.83338 2.73988 4.96901 2.73988C5.10465 2.73988 5.23832 2.77261 5.35891 2.83533C5.47949 2.89806 5.58351 2.98898 5.66229 3.10052L8.46351 7.06889C8.55371 7.19754 8.60719 7.34876 8.61811 7.50603C8.62902 7.6633 8.59696 7.82057 8.52542 7.96069C8.45388 8.1008 8.34561 8.21836 8.21243 8.30054C8.07925 8.38271 7.92629 8.42634 7.77023 8.42667Z" fill="#ABE1D7"/>
<path d="M9.77925 9.84422L5.66812 4.02331C5.58883 3.91072 5.48402 3.81892 5.36246 3.75558C5.24089 3.69223 5.10609 3.65918 4.96931 3.65918C4.83253 3.65918 4.69773 3.69223 4.57617 3.75558C4.4546 3.81892 4.3498 3.91072 4.2705 4.02331L0.159372 9.84422C0.0679092 9.97388 0.0135386 10.1265 0.00221807 10.2853C-0.00910249 10.4441 0.0230638 10.603 0.0951923 10.7445C0.167321 10.8861 0.276628 11.0049 0.411136 11.0878C0.545645 11.1708 0.700163 11.2148 0.857761 11.2149H9.08086C9.23846 11.2148 9.39298 11.1708 9.52748 11.0878C9.66199 11.0049 9.7713 10.8861 9.84343 10.7445C9.91556 10.603 9.94772 10.4441 9.9364 10.2853C9.92508 10.1265 9.87071 9.97388 9.77925 9.84422ZM9.08086 10.5265H0.857761C0.825215 10.5265 0.793307 10.5174 0.765537 10.5003C0.737767 10.4831 0.715209 10.4586 0.700338 10.4294C0.685468 10.4001 0.678859 10.3673 0.681238 10.3345C0.683617 10.3017 0.694892 10.2702 0.713824 10.2435L4.82495 4.42256C4.84133 4.39943 4.86293 4.38057 4.88796 4.36755C4.91299 4.35453 4.94073 4.34773 4.96888 4.3477C4.99708 4.34751 5.02489 4.35422 5.04996 4.36726C5.07503 4.3803 5.09659 4.39927 5.11282 4.42256L9.2248 10.2435C9.24373 10.2702 9.255 10.3017 9.25738 10.3345C9.25976 10.3673 9.25315 10.4001 9.23828 10.4294C9.22341 10.4586 9.20085 10.4831 9.17308 10.5003C9.14531 10.5174 9.11341 10.5265 9.08086 10.5265Z" fill="#50A494"/>
</svg>
