<svg width="256" height="256" viewBox="-263 0 1026 1026" fill="none" xmlns="http://www.w3.org/2000/svg">
<path d="M252.733 469.723C270.461 493.507 303.478 527.559 364.712 574.315C357.99 277.601 282.131 64.3544 257.608 5.04125C254.801 -1.68042 245.273 -1.68042 242.466 5.04125C218.017 64.3544 142.084 277.897 135.362 574.315C196.596 527.559 229.614 493.507 247.341 469.723C248.671 467.876 251.404 467.876 252.733 469.723Z" fill="#0D1B32"/>
<path d="M135.362 574.392C129.01 579.193 122.436 584.142 115.493 589.312C-0.770263 674.7 -0.327075 810.093 0.0422477 859.952C0.0422477 863.719 3.14456 866.821 6.98552 866.821H145.334C138.391 824.349 134.55 724.115 134.55 644.194C134.55 620.409 134.845 597.142 135.362 574.392Z" fill="#0D1B32"/>
<path d="M384.508 589.238C377.564 584.142 370.99 579.193 364.638 574.392C365.155 597.142 365.451 620.409 365.451 644.194C365.451 724.115 361.61 824.349 354.666 866.821H493.015C496.856 866.821 499.884 863.793 499.958 859.952C500.327 810.093 500.771 674.773 384.582 589.238H384.508Z" fill="#0D1B32"/>
<path d="M257.829 1019.65C275.262 967.129 308.501 918.896 354.74 866.821H145.26C191.499 918.896 224.738 967.129 242.17 1019.65C243.278 1023.04 246.38 1025.33 250 1025.33C253.545 1025.33 256.648 1023.04 257.829 1019.65Z" fill="#0D1B32"/>
</svg>
