<svg xmlns="http://www.w3.org/2000/svg" viewBox="0 0 250 76" width="250" height="76">
	<style>
		tspan { white-space:pre }
		.shp0 { fill: #0093d0 }
	</style>
	<path fill-rule="evenodd" class="shp0" d="M54.56 0C54.96 0 55.14 0.04 55.37 0.19C55.54 0.3 55.75 0.56 56.09 1.23L56.18 48.07L56.37 48.8C56.48 49.19 56.65 49.71 56.75 49.94C56.85 50.18 57.07 50.6 57.24 50.88C57.42 51.16 57.7 51.52 57.88 51.69C58.06 51.86 58.38 52.09 58.59 52.21C58.8 52.34 59.21 52.51 59.49 52.61C59.77 52.7 60.36 52.82 60.8 52.87C61.39 52.94 61.86 52.94 62.54 52.88C63.06 52.83 63.92 52.69 64.45 52.57C64.99 52.45 65.79 52.23 66.24 52.1C66.85 51.9 67.13 51.86 67.43 51.9C67.64 51.93 67.94 52.03 68.1 52.14C68.26 52.24 68.48 52.46 68.59 52.62C68.7 52.79 68.93 53.49 69.12 54.24C69.3 54.96 69.48 55.8 69.51 56.11C69.56 56.59 69.54 56.71 69.36 57.03C69.25 57.24 69 57.52 68.78 57.67C68.57 57.83 67.89 58.11 67.21 58.34C66.56 58.56 65.7 58.81 65.3 58.91C64.91 59.01 64.12 59.17 63.56 59.26C62.87 59.38 62 59.45 60.84 59.49C59.79 59.51 58.82 59.49 58.3 59.43C57.83 59.38 57.08 59.26 56.64 59.16C56.2 59.07 55.43 58.86 54.94 58.69C54.45 58.53 53.74 58.24 53.37 58.05C53 57.86 52.46 57.55 52.18 57.34C51.9 57.14 51.42 56.72 51.12 56.39C50.82 56.07 50.42 55.58 50.23 55.3C50.05 55.02 49.76 54.48 49.58 54.11C49.41 53.74 49.17 53.1 49.06 52.71C48.94 52.31 48.79 51.62 48.71 51.18C48.64 50.73 48.54 49.83 48.49 49.18C48.44 48.41 48.4 40.2 48.4 25.99C48.4 7.29 48.42 3.96 48.52 3.76C48.59 3.63 48.9 3.28 49.22 2.97C49.54 2.66 50.09 2.2 50.44 1.94C50.79 1.68 51.38 1.29 51.76 1.07C52.13 0.86 52.8 0.53 53.24 0.35C53.86 0.09 54.17 0.01 54.56 0ZM85.47 2.69C85.66 2.72 85.89 2.78 85.98 2.83C86.07 2.87 86.26 3.01 86.39 3.13C86.52 3.26 86.68 3.55 86.75 3.78C86.85 4.14 86.87 5.31 86.87 18.19L91.69 18.21C95.85 18.23 96.55 18.25 96.81 18.37C96.97 18.44 97.2 18.63 97.53 19.09L97.53 21.23C97.53 23.27 97.52 23.38 97.35 23.61C97.25 23.74 97.07 23.92 96.94 24.02C96.72 24.18 96.56 24.19 91.79 24.21C87.17 24.23 86.87 24.24 86.87 24.38C86.87 24.46 86.81 29.52 86.75 35.62C86.66 43.34 86.65 46.97 86.71 47.56C86.76 48.03 86.85 48.66 86.92 48.97C86.99 49.27 87.13 49.73 87.23 49.99C87.33 50.24 87.53 50.65 87.68 50.88C87.83 51.11 88.15 51.49 88.39 51.71C88.63 51.93 89.06 52.23 89.36 52.37C89.65 52.51 90.17 52.68 90.52 52.76C90.87 52.83 91.56 52.89 92.05 52.89C92.58 52.89 93.39 52.82 94.05 52.7C94.65 52.6 95.66 52.37 96.28 52.19C96.9 52.01 97.54 51.86 97.72 51.86C97.9 51.86 98.19 51.93 98.38 52.01C98.56 52.1 98.82 52.3 98.94 52.46C99.07 52.62 99.23 52.92 99.3 53.13C99.37 53.34 99.52 53.9 99.64 54.36C99.76 54.83 99.9 55.47 99.94 55.79C100.01 56.18 100.01 56.47 99.95 56.7C99.9 56.89 99.75 57.17 99.62 57.32C99.49 57.47 99.15 57.72 98.88 57.86C98.6 58.01 97.92 58.29 97.36 58.47C96.8 58.66 95.9 58.91 95.36 59.03C94.83 59.15 93.87 59.31 93.24 59.39C92.37 59.49 91.66 59.52 90.27 59.48C89.12 59.46 88.16 59.39 87.68 59.3C87.26 59.22 86.55 59.06 86.11 58.94C85.66 58.82 84.98 58.59 84.58 58.43C84.18 58.27 83.56 57.95 83.19 57.74C82.82 57.52 82.25 57.09 81.92 56.79C81.59 56.48 81.15 56.01 80.94 55.72C80.73 55.44 80.39 54.91 80.19 54.53C79.99 54.16 79.73 53.57 79.61 53.22C79.49 52.87 79.32 52.24 79.23 51.81C79.14 51.39 79.03 50.74 78.97 50.37C78.92 50 78.86 48.5 78.83 47.05C78.8 45.5 78.86 40.65 78.96 35.28C79.06 30.25 79.15 25.75 79.19 24.4L76.64 24.4C74.16 24.4 74.08 24.39 73.71 24.21C73.48 24.09 73.26 23.9 73.16 23.72C73 23.45 72.98 23.24 72.96 21.55C72.94 20.33 72.97 19.55 73.03 19.3C73.09 19.09 73.21 18.8 73.31 18.67C73.41 18.53 73.65 18.35 73.84 18.26C74.14 18.13 74.46 18.11 79.27 18.11L79.33 16.34C79.37 15.37 79.42 13.09 79.44 11.26C79.47 9.44 79.51 7.55 79.58 6.16L80.28 5.47C80.66 5.1 81.33 4.55 81.78 4.26C82.22 3.96 82.91 3.57 83.31 3.38C83.7 3.19 84.28 2.95 84.58 2.84C84.98 2.69 85.23 2.65 85.47 2.69ZM15.54 15.85C17.03 15.87 18.4 15.94 19.11 16.02C19.74 16.09 20.71 16.23 21.27 16.33C21.83 16.43 22.54 16.56 22.84 16.63C23.15 16.7 24.01 16.93 24.75 17.13C25.5 17.33 26.51 17.63 27 17.8C27.49 17.96 28.24 18.24 28.66 18.42C29.08 18.59 29.65 18.89 29.93 19.08C30.21 19.27 30.56 19.6 30.7 19.81C30.85 20.02 31.01 20.39 31.06 20.64C31.14 20.97 31.16 24.75 31.16 35.6C31.16 45.65 31.19 50.27 31.26 50.62C31.31 50.9 31.44 51.29 31.54 51.47C31.66 51.68 31.87 51.88 32.07 51.98C32.34 52.13 32.55 52.15 33.33 52.14C34 52.13 34.65 52.05 35.62 51.86C36.55 51.67 37.1 51.6 37.34 51.63C37.54 51.66 37.85 51.76 38.02 51.85C38.2 51.93 38.45 52.13 38.58 52.29C38.72 52.45 38.88 52.71 38.95 52.88C39.01 53.04 39.2 53.71 39.37 54.36C39.53 55.02 39.69 55.8 39.72 56.11C39.76 56.51 39.73 56.76 39.64 57.04C39.55 57.29 39.35 57.56 39.09 57.79C38.86 58 38.39 58.3 38.04 58.46C37.69 58.63 37.08 58.87 36.68 59C36.29 59.13 35.56 59.31 35.07 59.41C34.58 59.5 33.78 59.62 33.29 59.67C32.67 59.74 32.05 59.74 31.29 59.68C30.69 59.63 29.88 59.52 29.51 59.43C29.14 59.34 28.56 59.17 28.24 59.04C27.91 58.92 27.51 58.74 27.34 58.64C27.18 58.54 26.82 58.28 26.55 58.07C26.27 57.85 25.84 57.41 25.58 57.09C25.33 56.76 25 56.23 24.85 55.92C24.7 55.61 24.55 55.36 24.5 55.38C24.45 55.39 24.09 55.65 23.69 55.95C23.3 56.25 22.63 56.71 22.21 56.97C21.79 57.23 21.06 57.64 20.59 57.87C20.13 58.1 19.36 58.44 18.89 58.61C18.43 58.79 17.62 59.04 17.11 59.17C16.6 59.3 15.72 59.47 15.16 59.55C14.49 59.65 13.6 59.7 12.57 59.7C11.7 59.7 10.65 59.65 10.23 59.6C9.81 59.54 9.11 59.42 8.66 59.33C8.22 59.24 7.51 59.05 7.09 58.9C6.67 58.76 5.94 58.45 5.48 58.21C5.01 57.97 4.34 57.55 3.99 57.29C3.64 57.03 3.09 56.52 2.76 56.17C2.43 55.81 1.96 55.19 1.7 54.77C1.44 54.36 1.09 53.68 0.92 53.26C0.75 52.84 0.53 52.19 0.43 51.81C0.33 51.44 0.19 50.71 0.12 50.2C0.01 49.46 -0.01 48.84 0.02 47.22C0.06 45.58 0.1 45.02 0.25 44.33C0.35 43.87 0.55 43.15 0.68 42.74C0.82 42.33 1.07 41.72 1.24 41.38C1.41 41.04 1.73 40.5 1.94 40.17C2.16 39.84 2.68 39.23 3.1 38.81C3.52 38.38 4.19 37.82 4.59 37.56C4.98 37.29 5.71 36.89 6.2 36.65C6.69 36.42 7.45 36.11 7.9 35.96C8.34 35.81 9.09 35.6 9.55 35.49C10.02 35.39 10.78 35.23 11.25 35.16C11.72 35.09 12.44 34.99 12.87 34.94C13.29 34.89 14.74 34.82 16.09 34.77C17.45 34.73 19.71 34.66 23.69 34.56L23.69 23.55L23.03 23.21C22.67 23.03 21.97 22.74 21.48 22.58C20.99 22.42 20.12 22.19 19.53 22.07C18.95 21.95 18.07 21.81 17.58 21.76C17.09 21.7 15.77 21.65 14.65 21.65C13.21 21.65 12.31 21.69 11.59 21.79C11.03 21.87 9.81 22.07 8.87 22.23C7.94 22.39 6.92 22.53 6.6 22.53C6.29 22.53 5.91 22.48 5.75 22.42C5.6 22.35 5.35 22.15 5.2 21.97C5 21.73 4.81 21.3 4.55 20.49C4.34 19.86 4.15 19.17 4.11 18.96C4.08 18.69 4.1 18.46 4.19 18.21C4.28 18 4.48 17.73 4.69 17.55C4.89 17.39 5.26 17.17 5.52 17.08C5.78 16.98 6.64 16.78 7.43 16.62C8.22 16.46 9.43 16.25 10.11 16.15C10.78 16.06 11.74 15.94 12.23 15.9C12.72 15.86 14.21 15.84 15.54 15.85ZM13.59 40.33C13 40.41 12.16 40.57 11.72 40.69C11.28 40.8 10.64 41.03 10.32 41.19C9.99 41.35 9.52 41.67 9.26 41.89C9.01 42.11 8.65 42.52 8.47 42.8C8.29 43.08 8.05 43.6 7.94 43.95C7.82 44.3 7.67 44.99 7.59 45.48C7.49 46.13 7.47 46.74 7.5 47.69C7.52 48.49 7.59 49.26 7.68 49.65C7.76 50 7.98 50.6 8.16 50.99C8.39 51.47 8.64 51.83 8.96 52.15C9.25 52.45 9.65 52.73 10.04 52.92C10.38 53.08 10.96 53.29 11.34 53.39C11.71 53.48 12.47 53.6 13.03 53.64C13.73 53.7 14.37 53.7 15.05 53.64C15.6 53.6 16.44 53.48 16.92 53.39C17.4 53.3 18.21 53.1 18.72 52.95C19.24 52.81 20.06 52.52 20.55 52.33C21.04 52.13 21.69 51.84 21.99 51.69C22.3 51.53 22.88 51.2 23.29 50.95L24.03 50.5L24.03 39.79C23.01 39.8 20.9 39.9 18.68 40C16.46 40.11 14.17 40.26 13.59 40.33ZM124.09 16.42C125.06 16.41 126.22 16.45 126.68 16.5C127.13 16.55 127.96 16.69 128.52 16.8C129.08 16.92 129.91 17.15 130.35 17.3C130.79 17.46 131.44 17.71 131.79 17.87C132.14 18.03 132.7 18.33 133.02 18.53C133.35 18.73 133.92 19.13 134.3 19.43C134.67 19.72 135.23 20.22 135.53 20.54C135.84 20.86 136.26 21.35 136.48 21.64C136.69 21.92 137.03 22.41 137.23 22.74C137.43 23.07 137.78 23.72 138 24.19C138.22 24.65 138.52 25.4 138.66 25.84C138.81 26.29 139.01 26.94 139.1 27.29C139.19 27.64 139.33 28.37 139.43 28.9C139.52 29.44 139.64 30.34 139.7 30.9C139.77 31.58 139.79 33 139.76 35.19C139.72 38.03 139.7 38.51 139.57 38.81C139.49 38.99 139.34 39.24 139.24 39.35C139.14 39.46 138.95 39.6 138.82 39.67C138.62 39.77 136.73 39.79 114.68 39.78L114.74 41.72C114.77 42.78 114.86 44.05 114.93 44.55C115.01 45.04 115.16 45.8 115.27 46.25C115.38 46.69 115.6 47.4 115.75 47.82C115.91 48.24 116.23 48.91 116.47 49.3C116.7 49.69 117.12 50.26 117.41 50.57C117.69 50.88 118.13 51.29 118.38 51.49C118.64 51.68 119.13 52 119.48 52.19C119.83 52.37 120.52 52.66 121.01 52.83C121.5 52.99 122.36 53.21 122.92 53.31C123.81 53.48 124.24 53.5 126.23 53.5C128.17 53.51 128.7 53.48 129.67 53.33C130.3 53.23 131.49 52.99 132.3 52.8C133.12 52.61 134.38 52.34 135.11 52.19C136.27 51.96 136.47 51.94 136.8 52.03C137.07 52.1 137.31 52.25 137.58 52.52C137.86 52.81 138.01 53.05 138.1 53.39C138.18 53.64 138.36 54.33 138.51 54.92C138.66 55.5 138.8 56.21 138.82 56.49C138.85 56.85 138.83 57.08 138.74 57.26C138.67 57.4 138.48 57.64 138.32 57.8C138.16 57.96 137.77 58.22 137.44 58.37C137.11 58.52 136.43 58.8 135.91 58.99C135.4 59.19 134.56 59.46 134.04 59.59C133.53 59.73 132.67 59.92 132.13 60.02C131.6 60.11 130.68 60.25 130.1 60.32C129.51 60.39 128.4 60.48 127.63 60.52C126.86 60.56 125.56 60.56 124.75 60.52C123.93 60.49 122.8 60.39 122.24 60.32C121.68 60.24 120.78 60.08 120.24 59.96C119.71 59.84 118.87 59.61 118.38 59.45C117.89 59.28 117.14 59 116.72 58.81C116.3 58.63 115.61 58.28 115.19 58.04C114.77 57.8 114.12 57.37 113.75 57.09C113.37 56.82 112.71 56.24 112.27 55.82C111.84 55.39 111.24 54.74 110.95 54.36C110.65 53.99 110.21 53.36 109.96 52.96C109.72 52.56 109.29 51.76 109.01 51.18C108.73 50.59 108.32 49.56 108.1 48.88C107.88 48.2 107.6 47.21 107.48 46.67C107.36 46.13 107.18 45.16 107.09 44.5C107 43.85 106.87 42.74 106.82 42.04C106.76 41.22 106.74 39.81 106.77 38.13C106.79 36.54 106.87 35.03 106.95 34.34C107.02 33.71 107.18 32.66 107.3 32.01C107.42 31.35 107.64 30.32 107.8 29.71C107.96 29.1 108.23 28.2 108.4 27.71C108.57 27.22 108.95 26.32 109.24 25.72C109.53 25.11 109.96 24.29 110.2 23.89C110.44 23.49 110.85 22.88 111.11 22.53C111.38 22.18 111.83 21.62 112.12 21.3C112.42 20.97 113.02 20.4 113.46 20.03C113.9 19.65 114.56 19.15 114.94 18.91C115.31 18.66 116.06 18.25 116.59 17.99C117.13 17.73 117.97 17.39 118.46 17.23C118.95 17.07 119.75 16.86 120.24 16.76C120.73 16.66 121.4 16.54 121.73 16.5C122.06 16.46 123.12 16.42 124.09 16.42ZM120.97 22.61C120.64 22.71 120.12 22.93 119.82 23.08C119.52 23.23 119 23.57 118.67 23.82C118.35 24.08 117.9 24.5 117.69 24.75C117.48 25 117.17 25.4 117.02 25.63C116.86 25.86 116.57 26.38 116.37 26.78C116.18 27.18 115.88 27.92 115.72 28.44C115.55 28.95 115.34 29.77 115.25 30.26C115.15 30.75 115.03 31.46 114.98 31.84C114.93 32.21 114.86 33 114.83 33.6L114.77 34.69L132.39 34.68C132.47 34.32 132.48 33.24 132.45 32.05C132.42 30.57 132.36 29.63 132.26 29.07C132.19 28.63 131.98 27.85 131.81 27.33C131.64 26.82 131.32 26.09 131.11 25.72C130.86 25.26 130.5 24.8 130.01 24.31C129.54 23.84 129.07 23.47 128.65 23.23C128.3 23.04 127.73 22.78 127.38 22.66C127.03 22.55 126.4 22.39 125.98 22.32C125.5 22.24 124.75 22.19 123.98 22.19C123.3 22.2 122.48 22.25 122.16 22.31C121.83 22.37 121.29 22.5 120.97 22.61ZM167.2 17.98C167.98 17.99 168.83 18.05 169.12 18.11C169.4 18.16 169.73 18.26 169.86 18.33C169.99 18.39 170.17 18.6 170.26 18.79C170.35 18.97 170.43 19.26 170.43 19.43C170.43 19.59 170.28 20.67 170.1 21.83C169.88 23.25 169.73 24.02 169.62 24.21C169.52 24.38 169.31 24.56 169.07 24.67C168.69 24.84 168.69 24.84 167.59 24.69C166.81 24.59 166.22 24.56 165.59 24.59C165.08 24.62 164.43 24.72 164.06 24.82C163.71 24.92 163.14 25.14 162.79 25.3C162.44 25.46 161.96 25.72 161.73 25.86C161.49 26.01 161 26.37 160.62 26.66C160.25 26.95 159.73 27.41 159.47 27.68C159.2 27.96 158.81 28.4 158.2 29.16L158.2 43.44C158.2 53.98 158.18 57.84 158.1 58.17C158.04 58.48 157.91 58.72 157.69 58.96C157.49 59.17 157.24 59.34 157.01 59.41C156.73 59.49 156 59.51 151.61 59.47L151.28 59.25C151.09 59.13 150.87 58.88 150.77 58.69C150.6 58.36 150.6 58.17 150.58 39.32C150.57 28.84 150.57 20.15 150.6 20C150.63 19.84 150.78 19.57 150.96 19.38C151.14 19.19 151.42 18.99 151.58 18.93C151.78 18.86 152.62 18.83 154.21 18.83C156.23 18.83 156.6 18.85 156.95 18.98C157.2 19.07 157.43 19.23 157.56 19.4C157.67 19.56 157.8 19.83 157.85 20.02C157.91 20.21 157.95 20.71 157.95 21.15C157.95 21.58 157.97 21.99 157.99 22.06C158.02 22.15 158.31 21.92 158.99 21.28C159.51 20.79 160.29 20.15 160.71 19.87C161.13 19.59 161.74 19.23 162.07 19.06C162.39 18.9 163.04 18.64 163.51 18.48C163.98 18.33 164.68 18.14 165.08 18.07C165.59 17.98 166.21 17.95 167.2 17.98ZM221.13 18.64C223.59 18.66 223.74 18.67 224.1 18.84C224.31 18.95 224.6 19.16 224.74 19.32C224.88 19.49 226.83 22.42 229.07 25.83C231.31 29.25 233.17 32.04 233.2 32.03C233.23 32.02 235.07 29.25 237.29 25.89C239.5 22.52 241.43 19.61 241.56 19.43C241.7 19.25 242 19 242.65 18.66L245.24 18.63C247.37 18.61 247.9 18.63 248.17 18.73C248.36 18.8 248.62 18.98 248.75 19.12C248.94 19.33 248.98 19.46 248.98 19.81C248.98 20.04 248.93 20.34 248.86 20.47C248.8 20.6 246.19 24.64 243.08 29.46C239.96 34.27 237.4 38.25 237.37 38.3C237.35 38.34 240.15 42.67 243.59 47.9C247.04 53.14 249.88 57.51 249.93 57.62C249.97 57.72 250 58.03 250 58.3C250 58.63 249.95 58.85 249.85 58.99C249.77 59.11 249.58 59.25 249.43 59.31C249.22 59.4 248.47 59.42 246.41 59.42C244.65 59.42 243.55 59.39 243.33 59.33C243.15 59.27 242.85 59.14 242.68 59.03C242.44 58.88 242.07 58.39 241.29 57.19C240.7 56.29 238.66 53.14 236.75 50.2C234.85 47.25 233.25 44.83 233.21 44.82C233.18 44.81 231.16 47.87 228.74 51.62C226.19 55.57 224.19 58.59 223.98 58.79C223.79 58.98 223.45 59.19 223.21 59.28C222.84 59.41 222.43 59.42 220.05 59.42C217.97 59.42 217.24 59.4 217.03 59.31C216.88 59.25 216.67 59.09 216.56 58.95C216.42 58.77 216.37 58.59 216.37 58.3C216.37 58.07 216.42 57.77 216.48 57.62C216.55 57.46 219.4 53.08 222.83 47.86C226.26 42.65 229.06 38.37 229.05 38.34C229.05 38.32 226.51 34.4 223.42 29.63C220.32 24.86 217.7 20.78 217.59 20.57C217.48 20.36 217.39 20.05 217.39 19.87C217.39 19.7 217.44 19.45 217.51 19.32C217.57 19.19 217.7 19.03 217.78 18.96C217.87 18.89 218.07 18.78 218.24 18.72C218.46 18.65 219.24 18.62 221.13 18.64ZM177.47 18.79L180.64 18.79C183.76 18.79 183.81 18.79 184.14 18.98C184.33 19.08 184.56 19.29 184.65 19.43C184.75 19.58 187.06 26.15 189.79 34.03C193.05 43.43 194.78 48.31 194.82 48.22C194.86 48.14 197.16 41.76 199.95 34.05C202.73 26.33 205.08 19.87 205.15 19.68C205.23 19.49 205.45 19.23 205.96 18.83L208.81 18.81C210.98 18.79 211.72 18.81 211.91 18.89C212.05 18.95 212.2 19.11 212.26 19.26C212.33 19.43 212.34 19.63 212.29 19.89C212.26 20.1 208.55 30.14 204.06 42.21C199.57 54.27 195.7 64.6 195.46 65.16C195.23 65.72 194.85 66.55 194.62 67.01C194.39 67.47 193.98 68.23 193.69 68.71C193.41 69.19 192.94 69.91 192.65 70.3C192.36 70.7 191.75 71.42 191.28 71.91C190.81 72.39 190.1 73.04 189.71 73.34C189.31 73.64 188.49 74.13 187.88 74.43C187.27 74.73 186.47 75.07 186.1 75.19C185.73 75.31 184.96 75.5 184.4 75.62C183.84 75.73 182.88 75.87 182.28 75.92C181.6 75.98 180.45 76.01 179.31 75.98C178.12 75.95 177.16 75.88 176.67 75.79C176.14 75.69 175.85 75.59 175.71 75.46C175.6 75.36 175.46 75.07 175.38 74.81C175.28 74.45 175.26 74.15 175.31 73.49C175.34 73.02 175.42 72.28 175.48 71.83C175.55 71.39 175.66 70.85 175.74 70.64C175.81 70.43 175.98 70.16 176.1 70.03C176.23 69.9 176.45 69.77 176.59 69.74C176.73 69.72 177.47 69.76 178.24 69.84C179.18 69.94 180 69.97 180.71 69.94C181.29 69.91 182.17 69.81 182.66 69.71C183.15 69.61 183.86 69.4 184.23 69.24C184.6 69.07 185.12 68.82 185.37 68.67C185.63 68.52 186.14 68.09 186.52 67.71C186.9 67.34 187.41 66.73 187.66 66.35C187.9 65.98 188.27 65.33 188.47 64.91C188.67 64.49 189.38 62.8 190.05 61.17C190.71 59.53 191.26 58.13 191.26 58.06C191.27 57.99 188.05 49.42 184.12 39.02C178.13 23.18 176.97 20.04 176.98 19.69C176.98 19.36 177.03 19.24 177.22 19.04L177.47 18.79Z" />
</svg>
