<svg xmlns="http://www.w3.org/2000/svg" viewBox="0 0 18 18"><defs><linearGradient id="a" x1=".5" y1="9.77" x2="9" y2="9.77" gradientUnits="userSpaceOnUse"><stop offset="0" stop-color="#005ba1"/><stop offset=".07" stop-color="#0060a9"/><stop offset=".36" stop-color="#0071c8"/><stop offset=".52" stop-color="#0078d4"/><stop offset=".64" stop-color="#0074cd"/><stop offset=".81" stop-color="#006abb"/><stop offset=".99" stop-color="#005ba1"/></linearGradient></defs><path d="M13.25 10.48V6.57a.14.14 0 00-.24-.1l-4 4-4.16 4.16v2.87h12.08a.56.56 0 00.57-.57V6.57a.14.14 0 00-.24-.1z" fill="#005ba1"/><path d="M4.75 3.58C2.4 3.58.5 2.89.5 2v14.93a.56.56 0 00.57.57H9V2c0 .89-1.9 1.58-4.25 1.58z" fill="url(#a)"/><rect x="12.91" y="12.97" width="2.27" height="2.27" rx=".28" fill="#fff"/><rect x="8.97" y="12.97" width="2.27" height="2.27" rx=".28" fill="#fff"/><rect x="5.03" y="12.97" width="2.27" height="2.27" rx=".28" fill="#fff"/><path d="M9 2c0 .85-1.9 1.54-4.25 1.54S.5 2.89.5 2 2.4.5 4.75.5 9 1.19 9 2" fill="#eaeaea"/><path d="M8 1.91c0 .55-1.46 1-3.26 1s-3.26-.43-3.26-1S3 .94 4.75.94 8 1.37 8 1.91" fill="#50e6ff"/><path d="M4.75 2.14a8.07 8.07 0 00-2.58.37 7.64 7.64 0 002.58.38 7.64 7.64 0 002.58-.38 8.07 8.07 0 00-2.58-.37z" fill="#198ab3"/></svg>