<svg width="256" height="256" viewBox="0 0 256 256" fill="none" xmlns="http://www.w3.org/2000/svg">
<path d="M245.121 10.6474C251.139 16.434 255.074 24.0723 256 32.405C256 35.877 255.074 38.1918 252.991 42.5896C250.908 46.9874 225.215 91.4287 217.577 103.696C213.179 110.872 210.864 119.436 210.864 127.768C210.864 136.333 213.179 144.666 217.577 151.841C225.215 164.109 250.908 208.781 252.991 213.179C255.074 217.577 256 219.66 256 223.132C255.074 231.465 251.371 239.103 245.353 244.658C239.566 250.676 231.928 254.611 223.827 255.306C220.355 255.306 218.04 254.38 213.874 252.297C209.707 250.213 164.34 225.215 152.072 217.577C151.146 217.114 150.221 216.42 149.063 215.956L88.4196 180.08C89.8082 191.653 94.9006 202.763 103.233 210.864C104.854 212.485 106.474 213.874 108.326 215.262C106.937 215.956 105.316 216.651 103.928 217.577C91.66 225.215 46.9874 250.908 42.5896 252.991C38.1918 255.074 36.1085 256 32.405 256C24.0723 255.074 16.434 251.371 10.8788 245.353C4.86076 239.566 0.925858 231.928 0 223.595C0.231465 220.123 1.15732 216.651 3.00905 213.642C5.09224 209.244 30.7849 164.571 38.423 152.304C42.8208 145.128 45.1356 136.796 45.1356 128.232C45.1356 119.667 42.8208 111.334 38.423 104.159C30.7849 91.4287 4.86076 46.7558 3.00905 42.358C1.15732 39.3489 0.231465 35.877 0 32.405C0.925858 24.0723 4.62931 16.434 10.6474 10.6474C16.434 4.62931 24.0723 0.925858 32.405 0C35.877 0.231465 39.3489 1.15732 42.5896 3.00905C46.2931 4.62931 78.9294 23.6094 96.2893 33.794L100.224 36.1085C101.613 37.0344 102.77 37.7287 103.696 38.1918L105.548 39.3489L167.349 75.9205C165.96 62.0325 158.785 49.3019 147.674 40.7379C149.063 40.0435 150.684 39.3489 152.072 38.423C164.34 30.7849 209.013 4.86076 213.41 3.00905C216.42 1.15732 219.891 0.231465 223.595 0C231.696 0.925858 239.335 4.62931 245.121 10.6474ZM131.24 144.434L144.434 131.24C146.286 129.389 146.286 126.611 144.434 124.76L131.24 111.566C129.389 109.714 126.611 109.714 124.76 111.566L111.566 124.76C109.714 126.611 109.714 129.389 111.566 131.24L124.76 144.434C126.38 146.054 129.389 146.054 131.24 144.434Z" fill="#FF694A"/>
</svg>
