<svg xml:space="preserve" viewBox="0 0 228 221" width="100%" y="0px" x="0px" xmlns:xlink="http://www.w3.org/1999/xlink" xmlns="http://www.w3.org/2000/svg" id="Layer_1" version="1.1">
<path d="M229.000000,188.000000 
	C229.000000,190.370560 229.000000,192.741104 228.673584,195.657990 
	C224.720230,199.947723 221.682465,204.720657 217.336533,207.207687 
	C209.669952,211.595032 201.311447,214.862289 193.034668,218.060257 
	C188.232590,219.915665 183.025070,220.721725 178.000000,222.000000 
	C171.645599,222.000000 165.291214,222.000000 158.313995,221.653717 
	C146.494202,217.264328 135.198044,213.472122 124.132126,209.097534 
	C115.502258,205.686005 107.087730,201.699280 98.702538,197.705612 
	C81.203125,189.371063 63.048862,188.550720 44.783577,193.838654 
	C32.716915,197.332031 21.122044,202.432098 9.215389,206.519958 
	C6.745313,207.367996 3.831645,206.923981 1.355472,206.775528 
	C1.672521,205.980911 1.756510,205.486176 2.062120,204.730011 
	C3.140211,203.241989 3.988659,202.009720 4.854320,200.789642 
	C29.253283,166.401505 66.968132,153.821198 104.779434,168.053009 
	C114.356827,171.657852 123.218498,177.132950 132.510452,181.534576 
	C147.446030,188.609573 162.913239,192.260452 179.425522,187.939804 
	C186.907745,185.982025 187.774597,184.085968 183.964264,177.593994 
	C163.091125,142.030655 142.192444,106.482262 121.265190,70.950745 
	C117.307014,64.230324 115.722031,64.281021 111.636940,71.185181 
	C103.763260,84.492401 95.948044,97.834244 88.121590,111.169357 
	C85.032448,116.432785 81.978050,121.716599 78.609810,127.503136 
	C80.624763,128.142242 82.006142,128.544113 83.362755,129.017044 
	C88.998871,130.981903 95.080811,132.183624 100.159798,135.118134 
	C109.320084,140.410706 117.965927,146.622238 126.596909,152.772354 
	C127.933754,153.724930 128.051468,156.388412 128.732956,158.260696 
	C126.632721,158.429871 124.532425,158.709641 122.432274,158.708679 
	C121.689011,158.708344 120.961746,157.987335 120.200676,157.656235 
	C104.639305,150.886429 88.310699,147.325424 71.536446,149.979111 
	C57.012230,152.276840 42.810135,156.596237 28.444483,159.930817 
	C26.816538,160.308701 25.051458,160.095795 23.349968,160.156830 
	C23.399042,158.098434 23.227180,156.001297 23.578714,153.995926 
	C23.795172,152.761108 24.796865,151.658249 25.469532,150.509933 
	C53.370205,102.880104 81.251816,55.239063 109.238106,7.659599 
	C110.701897,5.171019 113.058861,3.207802 115.000000,1.000000 
	C115.750000,1.000000 116.500000,1.000000 117.613144,1.346975 
	C120.421455,4.575318 123.341095,7.175687 125.239334,10.380957 
	C147.347061,47.711014 169.369171,85.092285 191.269241,122.544617 
	C203.981277,144.284073 216.431793,166.176437 229.000000,188.000000 
z" stroke="none" opacity="1.000000" fill="#02ADD5"></path>
<path d="M114.531342,1.000000 
	C113.058861,3.207802 110.701897,5.171019 109.238106,7.659599 
	C81.251816,55.239063 53.370205,102.880104 25.469532,150.509933 
	C24.796865,151.658249 23.795172,152.761108 23.578714,153.995926 
	C23.227180,156.001297 23.399042,158.098434 23.349968,160.156830 
	C25.051458,160.095795 26.816538,160.308701 28.444483,159.930817 
	C42.810135,156.596237 57.012230,152.276840 71.536446,149.979111 
	C88.310699,147.325424 104.639305,150.886429 120.200676,157.656235 
	C120.961746,157.987335 121.689011,158.708344 122.432274,158.708679 
	C124.532425,158.709641 126.632721,158.429871 128.732956,158.260696 
	C128.051468,156.388412 127.933754,153.724930 126.596909,152.772354 
	C117.965927,146.622238 109.320084,140.410706 100.159798,135.118134 
	C95.080811,132.183624 88.998871,130.981903 83.362755,129.017044 
	C82.006142,128.544113 80.624763,128.142242 78.609810,127.503136 
	C81.978050,121.716599 85.032448,116.432785 88.121590,111.169357 
	C95.948044,97.834244 103.763260,84.492401 111.636940,71.185181 
	C115.722031,64.281021 117.307014,64.230324 121.265190,70.950745 
	C142.192444,106.482262 163.091125,142.030655 183.964264,177.593994 
	C187.774597,184.085968 186.907745,185.982025 179.425522,187.939804 
	C162.913239,192.260452 147.446030,188.609573 132.510452,181.534576 
	C123.218498,177.132950 114.356827,171.657852 104.779434,168.053009 
	C66.968132,153.821198 29.253283,166.401505 4.854320,200.789642 
	C3.988659,202.009720 3.140211,203.241989 1.851931,204.725891 
	C1.420120,204.983200 1.000000,205.000000 1.000000,205.000000 
	C1.000000,137.093643 1.000000,69.187294 1.000000,1.000000 
	C38.687096,1.000000 76.374893,1.000000 114.531342,1.000000 
z" stroke="none" opacity="1.000000" fill="#FEFFFF"></path>
<path d="M229.000000,187.531342 
	C216.431793,166.176437 203.981277,144.284073 191.269241,122.544617 
	C169.369171,85.092285 147.347061,47.711014 125.239334,10.380957 
	C123.341095,7.175687 120.421455,4.575318 117.988144,1.346975 
	C154.945618,1.000000 191.891220,1.000000 229.000000,1.000000 
	C229.000000,63.020798 229.000000,125.041740 229.000000,187.531342 
z" stroke="none" opacity="1.000000" fill="#FEFFFF"></path>
<path d="M1.122413,207.075424 
	C3.831645,206.923981 6.745313,207.367996 9.215389,206.519958 
	C21.122044,202.432098 32.716915,197.332031 44.783577,193.838654 
	C63.048862,188.550720 81.203125,189.371063 98.702538,197.705612 
	C107.087730,201.699280 115.502258,205.686005 124.132126,209.097534 
	C135.198044,213.472122 146.494202,217.264328 157.845581,221.653717 
	C105.666649,222.000000 53.333302,222.000000 1.000000,222.000000 
	C1.000000,217.254410 1.000000,212.599854 1.017552,207.512695 
	C1.035105,207.080078 1.122413,207.075424 1.122413,207.075424 
z" stroke="none" opacity="1.000000" fill="#FEFEFF"></path>
<path d="M178.468658,222.000000 
	C183.025070,220.721725 188.232590,219.915665 193.034668,218.060257 
	C201.311447,214.862289 209.669952,211.595032 217.336533,207.207687 
	C221.682465,204.720657 224.720230,199.947723 228.673584,196.102142 
	C229.000000,204.617126 229.000000,213.234238 229.000000,222.000000 
	C212.312698,222.000000 195.625000,222.000000 178.468658,222.000000 
z" stroke="none" opacity="1.000000" fill="#FCFEFE"></path>
<path d="M1.355472,206.775528 
	C1.122413,207.075424 1.035105,207.080078 1.017552,207.040039 
	C1.000000,206.555557 1.000000,206.111099 1.000000,205.333328 
	C1.000000,205.000000 1.420120,204.983200 1.630309,204.987335 
	C1.756510,205.486176 1.672521,205.980911 1.355472,206.775528 
z" stroke="none" opacity="1.000000" fill="#F5FBFD"></path>
</svg>