<svg viewBox="0 0 228 221" xmlns="http://www.w3.org/2000/svg"><path d="m229 188c0 2.37056 0 4.741104-.326416 7.65799-3.953354 4.289733-6.991119 9.062667-11.337051 11.549697-7.666581 4.387345-16.025086 7.654602-24.301865 10.85257-4.802078 1.855408-10.009598 2.661468-15.034668 3.939743-6.354401 0-12.708786 0-19.686005-.346283-11.819793-4.389389-23.115951-8.181595-34.181869-12.556183-8.629868-3.411529-17.044396-7.398254-25.429588-11.391922-17.499413-8.334549-35.653676-9.154892-53.918961-3.866958-12.066662 3.493377-23.661533 8.593444-35.568188 12.681304-2.470076.848038-5.383744.404023-7.859917.25557.317049-.794617.401038-1.289352.706648-2.045517 1.078091-1.488022 1.926539-2.720291 2.7922-3.940369 24.398963-34.388137 62.113812-46.968444 99.925114-32.736633 9.577393 3.604843 18.439064 9.079941 27.731018 13.481567 14.935578 7.074997 30.402787 10.725876 46.91507 6.405228 7.482223-1.957779 8.349075-3.853836 4.538742-10.34581-20.873139-35.563339-41.77182-71.111732-62.699074-106.643249-3.958176-6.720421-5.543159-6.669724-9.62825.234436-7.87368 13.30722-15.688896 26.649063-23.51535 39.984176-3.089142 5.263428-6.14354 10.547242-9.51178 16.333779 2.014953.639106 3.396332 1.040977 4.752945 1.513908 5.636116 1.964859 11.718056 3.16658 16.797043 6.10109 9.160286 5.292572 17.806129 11.504104 26.437111 17.65422 1.336845.952576 1.454559 3.616058 2.136047 5.488342-2.100235.169175-4.200531.448945-6.300682.447983-.743263-.000335-1.470528-.721344-2.231598-1.052444-15.561371-6.769806-31.889977-10.330811-48.66423-7.677124-14.524216 2.297729-28.726311 6.617126-43.091963 9.951706-1.627945.377884-3.393025.164978-5.094515.226013.049074-2.058396-.122788-4.155533.228746-6.160904.216458-1.234818 1.218151-2.337677 1.890818-3.485993 27.900673-47.629829 55.782284-95.27087 83.768574-142.850334 1.463791-2.48858 3.820755-4.451797 5.761894-6.659599.75 0 1.5 0 2.613144.346975 2.808311 3.228343 5.727951 5.828712 7.62619 9.033982 22.107727 37.330057 44.129837 74.711328 66.029907 112.16366 12.712036 21.739456 25.162552 43.63182 37.730759 65.455383z" fill="#02add5"/><path d="m114.531342 1c-1.472481 2.207802-3.829445 4.171019-5.293236 6.659599-27.98629 47.579464-55.867901 95.220505-83.768574 142.850334-.672667 1.148316-1.67436 2.251175-1.890818 3.485993-.351534 2.005371-.179672 4.102508-.228746 6.160904 1.70149-.061035 3.46657.151871 5.094515-.226013 14.365652-3.33458 28.567747-7.653977 43.091963-9.951706 16.774253-2.653687 33.102859.907318 48.66423 7.677124.76107.3311 1.488335 1.052109 2.231598 1.052444 2.100151.000962 4.200447-.278808 6.300682-.447983-.681488-1.872284-.799202-4.535766-2.136047-5.488342-8.630982-6.150116-17.276825-12.361648-26.437111-17.65422-5.078987-2.93451-11.160927-4.136231-16.797043-6.10109-1.356613-.472931-2.737992-.874802-4.752945-1.513908 3.36824-5.786537 6.422638-11.070351 9.51178-16.333779 7.826454-13.335113 15.64167-26.676956 23.51535-39.984176 4.085091-6.90416 5.670074-6.954857 9.62825-.234436 20.927254 35.531517 41.825935 71.07991 62.699074 106.643249 3.810333 6.491974 2.943481 8.388031-4.538742 10.34581-16.512283 4.320648-31.979492.669769-46.91507-6.405228-9.291954-4.401626-18.153625-9.876724-27.731018-13.481567-37.811302-14.231811-75.526151-1.651504-99.925114 32.736633-.865661 1.220078-1.714109 2.452347-3.002389 3.936249-.431811.257309-.851931.274109-.851931.274109 0-67.906357 0-135.812706 0-204z" fill="#feffff"/><path d="m229 187.531342c-12.568207-21.354905-25.018723-43.247269-37.730759-64.986725-21.90007-37.452332-43.92218-74.833603-66.029907-112.16366-1.898239-3.20527-4.817879-5.805639-7.25119-9.033982 36.957474-.346975 73.903076-.346975 111.011856-.346975z" fill="#feffff"/><path d="m1.122413 207.075424c2.709232-.151443 5.6229.292572 8.092976-.555466 11.906655-4.08786 23.501526-9.187927 35.568188-12.681304 18.265285-5.287934 36.419548-4.467591 53.918961 3.866958 8.385192 3.993668 16.79972 7.980393 25.429588 11.391922 11.065918 4.374588 22.362076 8.166794 33.713455 12.556183-52.178932.346283-104.512279.346283-156.845581.346283 0-4.74559 0-9.400146.017552-14.487305.017553-.432617.104861-.437271.104861-.437271z" fill="#fefeff"/><path d="m178.468658 222c4.556412-1.278275 9.763932-2.084335 14.56601-3.939743 8.276779-3.197968 16.635284-6.465225 24.301865-10.85257 4.345932-2.48703 7.383697-7.259964 11.337051-11.105545.326416 8.514984.326416 17.132096.326416 25.897858-16.687302 0-33.375 0-50.531342 0z" fill="#fcfefe"/><path d="m1.355472 206.775528c-.233059.299896-.320367.30455-.33792.264511-.017552-.484482-.017552-.92894-.017552-1.706711 0-.333328.42012-.350128.630309-.345993.126201.498841.042212.993576-.274837 1.788193z" fill="#f5fbfd"/></svg>