<svg xmlns="http://www.w3.org/2000/svg" width="2500" height="2500" viewBox="0 0 192.756 192.756"><g fill-rule="evenodd" clip-rule="evenodd"><path fill="#fff" d="M0 0h192.756v192.756H0V0z"/><path fill="#254185" d="M130.361 52.13l-15.425 64.893L99.625 52.13l-8.466 79.391-.58 5.858h5.741l5.278-53.295 13.338 56.541 13.453-56.541 5.394 53.295h5.625l-.465-3.481-8.582-81.768zM69.47 65.353c-12.352 0-22.327 12.294-22.327 27.488 0 15.427 9.975 27.953 22.327 27.953s22.326-12.525 22.326-27.953c0-15.194-9.974-27.488-22.326-27.488zm0 5.972c9.279 0 16.934 9.743 16.934 21.515 0 11.888-7.655 21.574-16.934 21.574-9.395 0-17.049-9.686-17.049-21.574-.001-11.83 7.654-21.515 17.049-21.515zM160.865 65.353c-12.295 0-22.326 12.294-22.326 27.488 0 15.427 10.031 27.953 22.326 27.953 12.352 0 22.385-12.525 22.385-27.953 0-15.194-10.033-27.488-22.385-27.488zm0 5.972c9.279 0 16.934 9.743 16.934 21.515 0 11.888-7.654 21.574-16.934 21.574-9.395 0-17.051-9.686-17.051-21.574 0-11.83 7.657-21.515 17.051-21.515zM26.15 67.614c-2.552-.812-5.161-1.217-7.597-1.217H9.506v53.121h9.626c2.552 0 4.872-.291 7.017-.871 11.482-3.305 16.354-14.613 16.354-26.444-.231-15.02-8.002-22.096-16.353-24.589zm0 44.306c-2.319.928-4.987 1.449-8.003 1.449h-3.131V72.543h2.552c3.189 0 6.089.522 8.583 1.508 6.959 2.784 10.787 9.279 10.961 18.789-.001 8.99-3.771 16.18-10.962 19.08z"/></g></svg>