<svg xmlns="http://www.w3.org/2000/svg" width="48" height="48" fill="currentColor"><path fill="url(#i759c4f-a)" d="M15.557 44c-.828 0-1.467-.74-1.347-1.56C15.986 30.41 26.296 21.5 38.432 21.5h2.455c1.677 0 2.904-1 2.904-2.68l.14-.66v11.67c0 1.84-1.487 3.33-3.323 3.33H39.23a11.65 11.65 0 0 0-11.129 8.24l-.439 1.42c-.22.7-.858 1.18-1.587 1.18z"/><path fill="url(#i759c4f-b)" d="M15.557 44c-.828 0-1.467-.74-1.347-1.56C15.986 30.41 26.296 21.5 38.432 21.5h2.455c1.677 0 2.904-1 2.904-2.68l.14-.66v11.67c0 1.84-1.487 3.33-3.323 3.33H39.23a11.65 11.65 0 0 0-11.129 8.24l-.439 1.42c-.22.7-.858 1.18-1.587 1.18z"/><path fill="url(#i759c4f-c)" d="M5.667 30.67C4.749 30.67 4 29.92 4 29V19c0-.92.749-1.67 1.667-1.67h29.94c.919 0 1.667.75 1.667 1.67v10c0 .92-.748 1.67-1.667 1.67z"/><path fill="url(#i759c4f-d)" d="M5.667 30.67C4.749 30.67 4 29.92 4 29V19c0-.92.749-1.67 1.667-1.67h29.94c.919 0 1.667.75 1.667 1.67v10c0 .92-.748 1.67-1.667 1.67z"/><path fill="url(#i759c4f-e)" d="M15.577 4c-.838 0-1.487.75-1.367 1.58 1.776 12.25 12.256 21.33 24.611 21.33h2.066a3.036 3.036 0 0 1 3.034 3.04V18.17c0-1.84-1.487-3.33-3.323-3.33H39.22c-5.11 0-9.62-3.34-11.128-8.24l-.439-1.42c-.22-.7-.858-1.18-1.587-1.18z"/><path fill="url(#i759c4f-f)" d="M40.597 14.83H39.22c-2.366 0-4.601-.72-6.468-1.98v13.3c1.947.49 3.983.76 6.078.76h2.066a3.036 3.036 0 0 1 3.034 3.04V18.17c0-1.84-1.487-3.33-3.323-3.33z" opacity=".4"/><path fill="url(#i759c4f-g)" d="M15.656 4c-.838 0-1.487.75-1.367 1.58 1.776 12.25 12.255 21.33 24.61 21.33h2.067A3.036 3.036 0 0 1 44 29.95V18.17c0-1.84-1.487-3.33-3.324-3.33H39.3c-5.11 0-9.62-3.34-11.128-8.24l-.439-1.42c-.22-.7-.858-1.18-1.587-1.18z" opacity=".7"/><defs><linearGradient id="i759c4f-a" x1="16.545" x2="44.155" y1="45.96" y2="18.405" gradientUnits="userSpaceOnUse"><stop offset=".26" stop-color="#0D7012"/><stop offset="1" stop-color="#085714"/></linearGradient><linearGradient id="i759c4f-b" x1="57.414" x2="5.029" y1="26.11" y2="37.726" gradientUnits="userSpaceOnUse"><stop offset=".04" stop-color="#114A8A"/><stop offset="1" stop-color="#0C59A3" stop-opacity="0"/></linearGradient><linearGradient id="i759c4f-c" x1="-16.859" x2="36.246" y1="24" y2="24" gradientUnits="userSpaceOnUse"><stop stop-color="#107C10"/><stop offset=".96" stop-color="#56B50E"/></linearGradient><linearGradient id="i759c4f-e" x1="45.827" x2="19.97" y1="37.66" y2=".798" gradientUnits="userSpaceOnUse"><stop offset=".04" stop-color="#33980F"/><stop offset="1" stop-color="#BAE884"/></linearGradient><linearGradient id="i759c4f-f" x1="37.792" x2="43.801" y1="21.4" y2="21.4" gradientUnits="userSpaceOnUse"><stop stop-color="#E5FAC1" stop-opacity="0"/><stop offset=".56" stop-color="#E5FAC1" stop-opacity=".52"/><stop offset="1" stop-color="#E5FAC1"/></linearGradient><linearGradient id="i759c4f-g" x1="12.941" x2="28.537" y1="-14.91" y2="12.033" gradientUnits="userSpaceOnUse"><stop offset=".14" stop-color="#FDE100"/><stop offset=".98" stop-color="#FFC600" stop-opacity="0"/></linearGradient><radialGradient id="i759c4f-d" cx="0" cy="0" r="1" gradientTransform="rotate(-56.322 35.626 -17.547)scale(10.1638 25.898)" gradientUnits="userSpaceOnUse"><stop stop-opacity=".3"/><stop offset="1" stop-opacity="0"/></radialGradient></defs></svg>