<svg width="256" height="256" viewBox="0 0 256 256" fill="none" xmlns="http://www.w3.org/2000/svg">
<g clip-path="url(#clip0)">
<path d="M111.185 0C111.715 0.353618 112.245 0.746528 112.795 1.0805C119.705 5.06853 126.614 9.03691 133.524 13.0446C134.074 13.3589 134.604 13.7125 135.389 14.2037C134.584 14.7145 133.956 15.127 133.328 15.4806C100.84 34.242 68.3519 53.0231 35.8638 71.7845C32.6445 73.6508 29.4251 75.5368 26.1665 77.3442C25.1261 77.9139 24.6942 78.5622 24.7138 79.7802C24.7335 111.979 24.7335 144.158 24.7335 176.357C24.7335 176.75 24.7335 177.143 24.7335 177.674C32.8211 182.349 40.8695 187.005 49.2516 191.838C49.2909 190.777 49.3302 190.05 49.3302 189.304C49.3302 157.969 49.3302 126.635 49.3498 95.3001C49.3498 91.9015 48.859 92.7855 51.7839 91.096C87.2165 70.6254 122.649 50.1549 158.062 29.6843C158.396 29.4878 158.769 29.3307 159.083 29.0949C159.888 28.4663 160.594 28.6431 161.419 29.1342C164.108 30.7451 166.837 32.2775 169.565 33.8491C186.31 43.5343 203.055 53.2196 219.838 62.8458C221.134 63.5924 221.664 64.3782 221.605 65.9105C221.487 69.5056 221.487 73.1008 221.605 76.6959C221.664 78.2675 221.154 79.1123 219.78 79.9177C200.11 91.2139 180.48 102.569 160.83 113.904C149.052 120.702 137.293 127.519 125.495 134.277C124.141 135.043 123.631 135.868 123.631 137.459C123.689 173.568 123.67 209.676 123.67 245.804C123.67 246.649 123.67 247.494 123.67 248.437C123.061 248.81 122.472 249.222 121.864 249.576C118.802 251.344 115.739 253.092 112.697 254.88C112.147 255.195 111.676 255.627 111.165 256C110.91 256 110.635 256 110.38 256C109.968 255.705 109.575 255.371 109.143 255.116C106.435 253.525 103.706 251.992 100.997 250.381C98.445 248.869 98.7984 249.655 98.7787 246.629C98.7787 205.609 98.7787 164.59 98.7787 123.55C98.7787 123.157 98.818 122.764 98.7787 122.372C98.6609 121.389 99.0732 120.761 99.9762 120.368C100.33 120.211 100.663 119.975 100.997 119.778C128.224 104.062 155.451 88.326 182.678 72.6096C183.326 72.2364 183.974 71.8238 184.759 71.3327C184.033 70.8808 183.542 70.5665 183.032 70.2718C176.004 66.2249 168.976 62.1975 161.988 58.072C160.692 57.3058 159.79 57.2665 158.455 58.0327C131.031 73.9259 103.569 89.7798 76.1058 105.634C75.7721 105.83 75.4384 106.066 75.085 106.223C74.4176 106.537 74.0839 107.009 74.1624 107.775C74.2017 108.286 74.1624 108.816 74.1624 109.347C74.1624 150.307 74.1624 191.268 74.1624 232.229C74.1624 232.995 74.1624 233.742 74.1624 234.763C73.3183 234.311 72.749 234.036 72.1994 233.722C58.1049 225.589 44.0104 217.456 29.9158 209.303C19.9633 203.547 10.0108 197.771 0.0582573 192.015C0.0582573 191.091 0.038627 190.188 0.038627 189.264C0.038627 148.402 0.038627 107.52 0.038627 66.6571C0.038627 65.7337 -0.000633433 64.83 -0.0202637 63.9067C0.195669 63.7495 0.391971 63.5924 0.607904 63.4548C36.9238 42.4735 73.2202 21.4921 109.536 0.530427C110.046 0.275036 110.655 0.176809 111.185 0Z" fill="#036AEA"/>
<path d="M148.464 234.095C148.464 224.508 148.464 215.118 148.464 205.551C164.443 196.317 180.5 187.045 196.656 177.713C196.656 168.715 196.656 159.718 196.656 150.386C180.598 159.6 164.717 168.853 148.581 178.106C148.483 177.556 148.365 177.222 148.365 176.868C148.346 168.224 148.385 159.6 148.326 150.956C148.307 149.718 148.935 149.247 149.818 148.736C161.537 141.978 173.257 135.2 184.956 128.442C196.44 121.802 207.924 115.181 219.427 108.541C220.035 108.188 220.664 107.873 221.488 107.441C221.527 108.306 221.586 108.934 221.586 109.543C221.586 136.359 221.586 163.175 221.625 189.991C221.625 191.406 221.233 192.192 219.977 192.919C196.695 206.317 173.453 219.754 150.191 233.192C149.661 233.526 149.151 233.761 148.464 234.095Z" fill="#026AEA"/>
</g>
<defs>
<clipPath id="clip0">
<rect width="256" height="256" fill="white"/>
</clipPath>
</defs>
</svg>
