<?xml version="1.0" encoding="UTF-8"?> <!-- Generator: Adobe Illustrator 24.1.2, SVG Export Plug-In . SVG Version: 6.00 Build 0) --> <svg xmlns="http://www.w3.org/2000/svg" xmlns:xlink="http://www.w3.org/1999/xlink" version="1.1" id="Layer_1" x="0px" y="0px" viewBox="0 0 120 135" style="enable-background:new 0 0 120 135;" xml:space="preserve"> <style type="text/css"> .st0{fill:#00B8F1;} .st1{fill:#FFFFFF;} </style> <path class="st0" d="M52,4.6L9.6,29.2c-4.9,2.9-8,8.1-8,13.8v49c0,5.7,3,11,8,13.8L52,130.4c4.9,2.9,11,2.9,16,0l42.5-24.5 c4.9-2.9,8-8.1,8-13.8V43c0-5.7-3-11-8-13.8L68,4.6C63,1.8,57,1.8,52,4.6z"></path> <g> <g> <path class="st1" d="M28.2,64.5l-1.6,5c0.5,0.2,1,0.3,1.6,0.3h0c0.6,0,1.1-0.1,1.6-0.3L28.2,64.5L28.2,64.5z"></path> <path class="st1" d="M40.2,62.9h-1.1V67h1.1c1.5,0,2.7-0.5,2.7-2.1C42.9,63.4,41.7,62.9,40.2,62.9z"></path> <path class="st1" d="M9.5,54.8v25.4h25.9l25.4-25.4H9.5z M40.7,70.4h-1.6v4.8h-7.5L30.9,73c-0.8,0.3-1.7,0.4-2.6,0.4 c-1,0-1.9-0.2-2.7-0.4l-0.8,2.3h-4.6l0.5-1.4l-0.2,0.2c-1.1,0.9-2.6,1.4-4.3,1.5h-0.3c-2,0-4-0.6-5.7-1.5l1.6-3.1 c1.7,1,2.7,1.2,4.2,1.2c0.7,0,1.3-0.2,1.6-0.5c0.2-0.2,0.3-0.5,0.3-0.8c0-0.8-1.1-1.2-2.5-1.6c-1.1-0.4-2.4-0.8-3.4-1.6 c-1.2-0.9-1.8-2-1.7-3.5c0-1.1,0.4-2.1,1.2-2.9c1.1-1.1,2.9-1.8,5-1.8h0c1.8,0,4.1,0.5,5.7,1.4l-1.8,3.1c-1.8-0.9-2.7-0.9-3.7-1 c-1.5-0.1-2.3,0.5-2.3,1c0,0.7,1.4,1.4,2.8,1.8c2.1,0.7,4.7,1.5,5.1,4.1l3.8-10h4.4l4.4,12v-12h5l0,0c4.8,0,7.1,1.7,7.1,5.5 C47,68.4,44.7,70.4,40.7,70.4z"></path> </g> <g> <path class="st1" d="M62.8,74.7v-5.1H57v5.1h-2.9V61.8H57V67h5.8v-5.1h2.8v12.9H62.8z"></path> <path class="st1" d="M77.6,72.5H71l-0.9,2.2H67l5.8-12.9h3.1l5.8,12.9h-3.1L77.6,72.5z M74.3,64.7L72.1,70h4.4L74.3,64.7z"></path> <path class="st1" d="M92,70.2l-0.2-4v-4.3h2.9v12.9h-2.5l-6.4-8.2l0.1,4.2v4H83V61.8h2.5L92,70.2z"></path> <path class="st1" d="M106.7,72.5h-6.6l-0.9,2.2H96l5.8-12.9h3.1l5.8,12.9h-3.1L106.7,72.5z M103.4,64.7l-2.2,5.2h4.4L103.4,64.7z"></path> </g> </g> </svg> 