<svg xml:space="preserve" style="enable-background:new 0 0 270 72;" viewBox="0 0 270 72" y="0px" x="0px" xmlns:xlink="http://www.w3.org/1999/xlink" xmlns="http://www.w3.org/2000/svg" id="Layer_1" version="1.1">
<style type="text/css">
	.st0{clip-path:url(#SVGID_00000168090414631407826660000015205661921077146297_);}
</style>
<g>
	<defs>
		<rect height="72" width="270" id="SVGID_1_"></rect>
	</defs>
	<clipPath id="SVGID_00000181074813516667897710000001609301170320468146_">
		<use style="overflow:visible;" xlink:href="#SVGID_1_"></use>
	</clipPath>
	<g style="clip-path:url(#SVGID_00000181074813516667897710000001609301170320468146_);">
		<path d="M18.7,24.3c-6.4,0-9.6,5.7-9.6,13.3v19H0V16.5h8.9v10.4h0.2c1.9-6.4,5.7-11.6,11.6-11.6c4.1,0,5.9,1.4,5.9,1.4L22.4,25
			C22.4,25,21.1,24.3,18.7,24.3z M128.5,29.8v26.7h-8.8V33.1c0-6.7-2.1-10.3-7.5-10.3c-5.6,0-8.3,4.5-8.3,13.2v20.6H95V33.1
			c0-6.5-2.1-10.3-7.4-10.3c-6.1,0-8.5,5.3-8.5,13.2v20.6h-8.9V16.5h8.9v9.1h0.1c1.4-6.3,5.2-10.2,11.6-10.2
			c6.3,0,10.5,3.4,12.1,9.5c1.5-5.8,5.5-9.5,11.6-9.5C123,15.4,128.5,20.8,128.5,29.8z M44.3,15.3c-8.2,0-13.6,3.9-16,10.8l7.6,2.7
			c1.4-4.2,4.2-6.6,8.6-6.6c4.9,0,7.8,2.2,7.8,5.5c0,3.4-2.3,4.1-7.5,5C39,33.7,25.2,34,25.2,45.6c0,6.8,5.7,11.9,14.2,11.9
			c6.4,0,10.8-2.6,12.8-7.5h0.1v6.5h8.8V31.9C61.3,21.1,55.8,15.3,44.3,15.3z M52.6,37.7c0,8.4-4.2,13.8-10.8,13.8
			c-4.7,0-7.5-2.6-7.5-6.4c0-3.6,2.9-6,8.5-7.1c5.7-1,8.6-2.3,9.9-5.4V37.7z M159.9,15.4c-6.8,0-11.2,3.7-13.2,9.3v-8.2h-9.4V72h9.3
			V48.4h0.1c2.1,6.1,6.4,9.4,13.2,9.4c10.7,0,18.4-8.8,18.4-21.3C178.3,24,170.7,15.4,159.9,15.4z M157.6,50.3
			c-7.4,0-11.5-5.4-11.5-13.8c0-8.4,4.6-13.8,11.5-13.8c6.9,0,11.5,5.7,11.5,13.8C169.2,44.7,164.6,50.3,157.6,50.3z"></path>
		<path d="M270.6,56.4v0.3l-36.4,0v-0.3c5.2-3,8.9-6,12.1-9.1h14.9L270.6,56.4z M261.6,9l-9.2-9h-0.3c0,0,0.2,16.8-15.3,32.2
			c-15.1,15-32.9,15-32.9,15v0.3l9.4,9.2c0,0,17.5,0.2,33-15C261.7,26.5,261.6,9,261.6,9z"></path>
	</g>
</g>
</svg>
