<svg width="256" height="256" viewBox="0 0 256 256" fill="none" xmlns="http://www.w3.org/2000/svg">
<g clip-path="url(#clip0)">
<path fill-rule="evenodd" clip-rule="evenodd" d="M146.252 35.3874C146.252 35.3874 169.436 15.8633 184.893 19.9308C202.383 24.4051 223.94 60.6061 220.279 64.2668L211.738 96.8071C219.059 111.043 230.448 128.941 229.635 142.77C228.008 148.871 255.26 131.788 255.666 144.804C250.785 176.531 234.109 216.799 192.214 191.987L177.571 202.563C165.369 198.088 160.488 187.106 146.658 185.479L136.49 205.003L153.573 234.696C158.047 239.984 172.69 238.357 191.401 237.95L204.823 237.137C193.434 242.018 180.825 245.272 169.436 250.153C149.506 256.254 142.184 255.034 136.083 252.187C129.575 249.746 119.407 246.492 114.526 244.052C76.6982 222.9 73.851 202.156 69.7836 183.445C65.3094 143.584 75.8848 129.754 88.4939 121.212C79.5455 123.246 36.8372 132.195 36.0237 122.026C27.0753 100.875 12.4324 86.6383 0.230066 69.5546C-2.61715 56.9453 2.67054 44.336 12.4324 31.7266L34.3967 32.9469C44.1586 22.3713 50.2598 5.69446 64.4959 2.03369C65.7161 -1.22033 144.218 29.2861 146.252 35.3874Z" fill="#FDEE21"/>
<path fill-rule="evenodd" clip-rule="evenodd" d="M215.399 104.535C222.313 115.111 227.601 126.5 229.228 138.702L225.567 146.838C222.313 145.617 217.839 144.397 215.399 142.77C217.026 140.736 217.839 138.703 217.839 137.075C217.839 136.262 217.432 135.855 216.212 135.042C219.059 135.448 221.907 135.448 224.754 135.448C225.567 135.042 226.787 134.635 225.567 128.127C224.347 125.28 223.127 122.839 221.5 119.992L213.365 117.145C214.585 116.738 216.212 116.738 216.212 114.704L215.399 104.535ZM250.379 143.584C252.819 141.957 251.599 141.55 250.379 142.363C241.837 146.838 235.329 147.244 230.855 145.617C233.702 148.871 238.99 153.752 250.379 143.584Z" fill="#C8C037"/>
<path fill-rule="evenodd" clip-rule="evenodd" d="M251.192 141.143C267.462 146.431 235.736 227.781 191.401 194.021L179.605 202.156C168.216 197.275 169.843 196.054 170.25 194.427L177.571 176.124C195.468 190.36 217.432 212.731 239.803 177.344C246.718 167.988 249.972 159.447 251.599 148.464C251.599 146.024 252.412 143.583 251.192 141.143ZM174.724 171.649L170.657 177.751C171.063 176.124 180.012 172.87 182.859 172.87L174.724 171.649ZM197.502 131.788C197.909 133.821 198.722 135.855 197.909 138.296L202.383 141.143C193.434 141.956 183.672 141.55 177.164 148.871L180.418 141.956C179.605 139.923 179.198 135.855 179.605 136.262C180.012 136.262 177.164 135.855 176.758 135.855L197.502 131.788ZM180.012 114.704C178.791 115.111 178.385 114.704 175.131 126.5C179.198 119.585 185.706 115.924 192.214 113.89C188.147 113.89 184.486 112.67 180.012 114.704Z" fill="#C8C037"/>
<path fill-rule="evenodd" clip-rule="evenodd" d="M156.827 250.967C145.438 254.627 125.508 249.34 118.593 243.645C112.085 238.764 114.525 234.29 105.17 229.002C85.6465 218.426 85.6465 198.902 82.3925 187.106C78.7318 165.955 82.3925 137.889 90.5275 122.026C78.3251 126.5 68.5632 144.804 70.1902 176.531C70.5969 198.495 77.9183 221.274 115.746 245.272C130.795 250.153 148.692 259.915 156.827 250.967ZM168.623 104.129C149.506 68.7413 152.353 61.013 121.847 60.1995L77.1049 49.6239C93.7814 55.7252 106.797 62.64 127.541 67.9278C127.948 69.9615 128.355 71.9953 127.135 72.8088C122.66 74.8426 118.593 75.6561 114.119 76.8763C136.083 77.6898 155.2 85.0114 168.623 104.129ZM170.656 50.8441C137.71 26.0322 100.696 10.9824 61.6485 2.03381L49.8529 17.0837C86.8667 26.8457 118.186 37.4213 150.319 52.0644C163.335 63.0467 173.097 80.5371 183.265 94.7734C180.011 78.9101 176.351 65.0805 170.656 50.8441ZM201.162 58.1657L187.74 32.947C179.198 25.2187 176.351 26.8457 172.283 25.6255C185.299 31.7268 188.553 44.7429 194.654 52.0644C197.502 56.9454 203.196 69.5548 203.196 69.5548L201.162 58.1657ZM222.72 61.4197C207.263 30.9133 195.468 23.185 184.486 20.3377C185.706 21.5579 186.519 23.185 187.74 24.4052L211.331 56.1319C214.178 63.0467 211.738 80.5371 210.517 91.5194L222.72 61.4197Z" fill="#FCF6A0"/>
<path fill-rule="evenodd" clip-rule="evenodd" d="M163.742 92.7395C159.674 83.7909 157.234 70.3681 149.099 63.4533C139.337 60.1993 124.694 61.0128 111.272 60.606C122.66 63.4533 139.744 63.4533 147.879 68.7411C147.879 69.1478 147.879 69.5546 147.065 69.5546C145.031 69.1478 142.998 68.7411 140.964 69.1478C137.71 69.9613 134.863 71.9951 132.016 73.6221C140.151 71.9951 142.591 74.0288 148.692 74.4356C155.2 76.8761 159.268 89.0787 163.742 92.7395ZM187.74 33.3536C188.147 36.2008 188.553 39.0481 190.994 42.3021C195.468 47.1832 197.095 50.8439 197.908 52.471L203.603 69.5546L200.349 51.6574C199.535 48.8102 189.773 33.3536 187.74 33.3536ZM221.906 119.585L217.025 118.365H221.093L221.906 119.585ZM192.621 114.297C184.486 115.518 182.452 115.924 177.164 121.619C177.978 119.585 177.978 117.145 179.605 114.704C184.079 113.484 188.147 113.484 192.621 114.297ZM244.684 146.431C234.922 149.685 234.516 146.838 230.855 145.617C233.295 148.465 236.142 150.498 241.43 149.278C248.345 147.244 248.752 145.211 251.192 143.584L244.684 146.431ZM225.567 146.431L223.94 150.498L221.906 149.685V148.058C218.246 146.431 210.924 146.024 210.924 146.431C208.484 148.871 206.45 152.125 204.416 154.973C207.264 152.939 209.297 149.278 213.365 148.465L219.466 149.685C218.246 150.092 215.805 150.092 215.805 150.498C212.958 154.159 210.924 158.633 208.077 162.294C211.331 158.633 212.551 154.973 218.652 151.719C219.059 151.312 222.72 151.312 224.347 152.532C223.94 154.566 222.72 157.006 221.5 159.04C219.873 162.294 217.432 165.548 215.398 168.802C221.906 160.667 220.279 163.921 224.347 158.633L229.635 144.804L225.567 146.431ZM182.859 172.87C175.131 172.87 175.131 172.87 169.843 178.158C169.843 176.124 170.25 174.09 173.504 171.65C173.504 171.65 182.045 172.463 182.859 172.87ZM176.758 135.042C184.486 130.161 189.773 128.534 199.129 130.974L195.468 132.194C195.875 132.194 197.908 138.703 196.281 139.109L202.383 140.736C194.654 141.143 187.333 140.736 180.418 143.99L183.672 141.143C183.672 141.957 182.452 136.669 182.859 134.635C182.452 134.228 176.758 135.042 176.758 135.042Z" fill="black"/>
<path fill-rule="evenodd" clip-rule="evenodd" d="M230.041 144.397L225.567 146.431H223.94L215.398 143.177H217.025C217.432 141.55 217.839 139.109 219.059 138.703C220.279 137.076 217.432 137.076 216.619 136.262L219.466 137.076C223.127 137.076 227.194 136.669 227.601 140.736L228.821 139.923L230.041 144.397Z" fill="black"/>
<path fill-rule="evenodd" clip-rule="evenodd" d="M188.553 137.076C188.96 138.296 188.96 139.109 188.553 139.923C186.926 139.923 185.299 140.33 184.079 141.143C183.266 141.957 182.859 137.482 183.266 136.669C184.486 135.855 188.146 135.855 188.553 137.076ZM221.5 143.99C221.093 144.397 217.432 143.99 217.432 143.177C217.025 142.363 217.839 139.923 218.652 139.516C218.652 139.516 221.906 139.109 222.313 140.736C222.313 141.143 221.906 143.584 221.5 143.99Z" fill="white"/>
<path fill-rule="evenodd" clip-rule="evenodd" d="M113.712 244.052C126.321 243.645 139.744 244.865 151.946 239.171L147.472 231.849C119 236.323 99.4759 227.782 87.6803 222.087H85.6465L113.712 244.052ZM68.97 176.124C84.4263 187.106 88.4938 200.122 135.676 209.884L140.557 221.274C117.779 222.087 90.5275 210.698 74.6644 200.936L68.97 176.124ZM83.6128 124.873C78.3251 131.381 73.8509 137.889 70.597 148.872C73.8509 162.701 101.103 193.614 138.117 197.682C138.93 197.682 140.15 191.987 140.15 191.987C127.541 185.886 117.373 178.565 107.204 171.243C90.5275 158.634 86.46 143.991 83.6128 124.873ZM101.51 113.891C113.305 109.823 124.287 107.79 135.269 105.349C132.829 114.704 131.609 120.806 134.049 139.11C135.676 144.804 146.252 149.278 154.387 151.312C150.726 157.82 143.811 168.396 158.454 179.785C160.488 183.039 162.115 186.293 163.742 189.547C157.234 189.954 151.133 190.767 142.184 187.92C135.676 184.666 134.456 182.225 129.982 176.938C118.186 157.007 106.391 135.449 101.51 113.891Z" fill="black"/>
<path fill-rule="evenodd" clip-rule="evenodd" d="M61.2418 0C82.7993 1.62701 105.984 10.1688 109.644 13.4228C117.373 17.0836 124.694 20.7444 130.795 23.9984C131.609 24.4052 136.49 28.4727 147.065 33.3537C151.946 30.9132 156.013 25.6254 160.894 22.7782C164.148 20.3376 168.216 19.5241 172.69 18.7106C176.351 17.8971 187.74 19.1174 190.587 20.3376C200.755 24.8119 206.043 32.1335 212.551 41.4888C215.398 45.9631 217.432 50.0306 219.466 53.6914C221.093 57.3521 223.533 61.0129 223.533 63.8602C223.533 65.4872 222.313 66.7074 221.499 68.7412C218.652 76.8763 215.805 83.3843 214.585 92.7396C214.585 93.9599 213.771 95.5869 213.771 98.0274C213.771 98.4342 213.771 99.2477 213.771 99.2477L213.365 101.688C212.958 103.315 213.365 104.535 213.365 106.976C213.365 106.976 209.297 98.0274 210.517 91.1126C210.517 89.4856 214.992 76.4695 215.805 74.4357C216.619 71.1817 217.432 68.3345 218.246 65.0804C219.059 61.0129 218.246 58.5724 216.619 54.9116C209.297 40.6753 196.688 26.8457 191.807 23.1849C191.4 22.7782 187.333 21.9646 186.113 21.1511C184.892 21.1511 187.74 24.4052 187.74 24.4052C186.113 26.0322 178.384 17.8971 165.369 23.5917C162.521 24.8119 160.488 26.4389 158.454 28.0659C156.42 29.6929 153.573 32.5402 151.946 34.574C151.946 34.9807 153.166 36.201 155.607 37.4212C161.708 41.082 172.283 48.8103 174.724 52.0644C175.537 52.8779 178.791 70.3682 182.045 81.7573C182.859 85.4181 190.587 89.0788 190.587 89.0788C188.96 89.0788 184.892 87.8586 182.859 87.4518C182.452 88.6721 184.079 96.8071 184.079 96.8071C184.079 96.8071 182.452 93.1464 180.418 83.7911C177.571 74.8425 174.724 65.0804 170.656 56.5386C166.589 50.8441 152.76 40.2685 147.879 38.6415C142.591 35.7942 136.896 32.947 130.795 29.6929C115.746 21.5579 97.0354 9.76207 66.9362 4.88103C63.6823 5.28779 62.0553 6.10129 58.3946 7.7283C49.8529 15.4566 47.8192 24.4052 34.8033 31.7267C35.2101 32.5402 36.0236 33.3537 37.2438 33.3537C45.7854 34.9807 59.208 43.5225 71.0037 50.0306C71.0037 50.0306 55.1406 42.709 42.9382 38.2348C38.0573 36.6077 33.5831 35.7942 31.1426 35.3875C26.6684 34.9807 20.5672 34.9807 14.0593 34.574C7.95812 40.6753 4.29741 46.7766 2.26368 54.5049C1.45019 62.6399 3.07717 65.4872 3.48392 68.3345C5.51764 77.6898 13.2458 86.2316 22.601 95.1801C25.0414 97.6207 27.8886 100.061 29.9224 102.908C33.5831 108.603 34.8033 118.772 38.8708 124.466C39.6843 125.28 49.8529 124.466 55.9541 125.28C58.8013 125.687 61.2418 125.687 64.089 125.28C72.6306 123.246 78.3251 121.212 84.833 119.179C87.6802 117.552 98.2556 113.891 101.103 113.077L101.916 117.145C95.8151 118.365 90.1207 120.806 84.833 124.466C83.6128 124.873 82.3925 126.907 81.5791 128.534C63.6823 151.312 70.1902 181.005 75.0711 198.495C78.3251 205.817 82.3925 215.579 86.46 220.867C93.7814 228.188 102.323 235.917 111.678 241.611L112.898 242.425C120.627 247.306 129.168 250.966 137.71 252.187C142.184 253 162.928 255.847 153.573 243.645C153.573 243.238 151.133 241.204 150.319 238.357L145.845 232.256C140.964 224.934 132.829 212.732 134.863 209.478C134.863 205.41 135.676 200.529 136.896 197.682C138.523 193.614 140.15 189.954 141.371 187.513L155.2 177.751C157.64 181.818 160.894 185.072 163.335 189.954C168.216 202.563 179.605 203.376 189.367 193.614L192.214 191.174C199.535 194.835 206.857 200.936 220.686 198.495C232.075 196.868 239.803 184.666 247.124 170.836C250.378 163.108 252.819 154.566 253.226 147.244C253.226 146.838 252.819 139.923 249.565 140.33C244.277 140.736 244.684 143.584 238.583 144.804C234.922 144.397 230.041 145.211 230.041 144.804C227.601 141.143 230.448 134.635 227.194 129.347C226.38 128.534 217.432 111.45 215.805 104.129C215.398 102.095 214.178 102.095 214.178 102.095L214.585 98.8409C214.585 98.8409 217.839 101.688 219.059 102.908C221.906 105.756 223.94 112.671 224.347 113.891C226.787 118.365 230.041 124.466 232.888 130.161C233.295 130.568 234.109 134.228 233.295 141.55C233.295 141.55 231.668 141.55 230.448 141.55C238.99 142.363 242.244 138.296 250.785 135.855C253.226 135.449 256.073 139.109 258.107 142.77C259.734 144.397 254.039 176.124 236.956 195.648C223.533 207.037 204.009 204.19 191.807 195.648C187.74 201.343 184.079 207.851 167.402 202.97C162.521 199.716 161.708 195.241 159.674 190.767C156.42 191.581 153.98 191.174 148.692 190.36C147.065 190.36 146.252 190.36 145.031 193.208L149.506 199.716C151.133 201.749 152.76 205.41 162.928 209.478C164.148 209.884 167.402 209.884 167.402 209.884L166.182 210.291C161.301 211.918 154.386 208.664 154.386 209.071C149.099 207.444 145.031 204.19 141.777 200.122C142.184 203.783 142.184 207.444 143.404 210.698C144.218 213.138 144.625 213.952 145.438 215.986C145.845 216.392 147.472 216.799 149.912 217.613C150.726 218.019 153.573 218.833 155.2 219.24C160.081 219.646 165.369 219.24 165.369 219.24C162.115 222.494 153.166 222.087 148.692 221.68C150.319 224.934 151.946 228.188 153.166 231.442C153.98 233.069 153.573 233.069 163.335 234.29C158.861 234.696 156.013 235.917 154.793 235.917C153.98 235.917 155.2 238.357 155.607 238.764C157.64 240.798 160.488 240.798 162.928 241.204C174.724 242.425 199.942 240.391 199.942 240.391C199.942 240.391 171.47 250.56 157.234 254.627C151.946 255.847 146.252 256.254 141.371 255.847C112.898 249.339 92.5612 233.069 83.6128 220.053C80.3588 215.579 77.5116 209.071 75.8846 205.003C72.6306 196.055 70.5969 188.327 69.3767 178.564C67.343 157.007 70.5969 143.584 81.1723 128.534C82.3925 126.907 85.2398 125.28 85.6465 124.06C82.3925 123.653 78.7318 125.28 74.6644 126.093C70.5969 127.314 65.716 128.127 61.6485 128.941C58.8013 129.347 55.5473 129.347 53.5136 129.347C48.2259 128.941 42.5315 128.941 38.0573 128.127C36.0236 127.72 36.4303 127.72 35.6168 126.093C33.5831 121.619 31.5494 115.111 29.1089 110.23C25.8549 102.908 20.974 98.0274 12.8391 89.8924C3.89066 80.1303 -5.87123 67.9277 -2.21052 52.8779C-0.583539 46.7766 3.89066 37.4213 7.55137 32.5402C10.8053 29.2862 14.0593 28.0659 17.72 29.6929C21.3807 30.0997 23.0077 29.6929 25.0414 29.6929C29.5156 29.2862 33.1763 27.6592 34.3966 26.4389C40.4978 21.9646 44.972 15.4566 51.0731 9.35531C54.3271 5.69454 57.9878 2.44052 61.2418 0ZM189.367 193.208L186.926 189.954C185.706 190.767 184.892 191.581 183.265 194.428C182.452 195.648 181.638 196.462 180.825 196.462C177.571 196.868 174.317 196.055 170.656 193.614C171.063 195.241 174.317 196.868 176.351 198.495C174.317 198.495 171.063 198.495 170.25 197.275C166.996 192.801 167.402 191.581 168.216 190.36C171.47 185.886 175.537 181.818 176.757 175.717C180.418 181.005 185.706 185.886 191.807 190.767L189.367 193.208Z" fill="black" stroke="black" stroke-width="0.008" stroke-linecap="round" stroke-linejoin="round"/>
</g>
<defs>
<clipPath id="clip0">
<rect width="256" height="256" fill="white"/>
</clipPath>
</defs>
</svg>
