<?xml version="1.0" encoding="UTF-8" standalone="no"?>
<svg width="256px" height="613px" viewBox="0 0 256 613" version="1.1" xmlns="http://www.w3.org/2000/svg" xmlns:xlink="http://www.w3.org/1999/xlink" preserveAspectRatio="xMidYMid">
    <g>
        <path d="M193.439278,15.5775565 C196.900278,19.7535565 199.955278,23.8395565 203.194278,28.1805565 C245.365278,84.7025565 258.038278,152.403557 245.767278,221.345557 C244.987278,225.729557 242.677278,225.918557 239.403278,229.077557 C219.153278,248.616557 199.660278,268.866557 187.555278,294.582557 C182.468278,305.391557 179.884278,317.529557 177.409278,329.324557 C176.669278,332.852557 179.184278,339.479557 181.952278,340.686557 C185.060278,342.041557 191.586278,340.192557 194.123278,337.435557 C207.028278,323.412557 219.455278,308.910557 231.386278,294.043557 C239.527278,283.899557 246.579278,272.881557 254.885278,262.631557 C257.132278,285.061557 256.743278,307.106557 246.466278,327.208557 C242.141278,340.010557 236.569278,341.525557 229.615278,349.239557 C221.704278,355.172557 212.588278,364.197557 206.986278,371.731557 C198.233278,385.760557 198.699278,397.095557 211.816278,406.923557 C212.640278,407.427557 216.962278,409.498557 218.362278,409.809557 C215.395278,411.795557 212.784278,412.442557 205.985278,414.420557 C205.743278,424.612557 197.249278,431.407557 194.764278,436.171557 C193.590278,440.738557 193.152278,441.428557 192.780278,446.520557 C189.574278,490.328557 183.104278,537.736557 166.808278,578.967557 C161.299278,592.905557 154.659278,601.634557 140.863278,607.412557 C139.212278,608.104557 131.483278,612.114557 130.489278,612.326557 C133.885278,606.932557 134.528278,598.967557 130.028278,592.853557 C126.799278,588.466557 113.910278,588.711557 109.741278,584.698557 C110.535278,584.516557 116.066278,584.934557 116.853278,584.960557 C123.425278,585.186557 129.643278,584.853557 131.571278,576.761557 C133.117278,570.269557 129.660278,563.786557 123.121278,559.237557 C118.677278,556.144557 115.612278,555.266557 111.816278,551.392557 C110.898278,550.455557 109.512278,545.301557 110.473278,541.902557 C110.604278,541.438557 111.160278,541.264557 111.519278,541.586557 C115.805278,545.429557 121.397278,549.500557 124.977278,553.780557 C127.274278,555.882557 130.172278,558.294557 132.173278,558.269557 C134.287278,558.243557 135.504278,555.673557 137.976278,553.928557 C143.667278,548.863557 145.685278,546.396557 149.269278,539.474557 C149.890278,535.667557 148.539278,529.206557 147.349278,524.516557 C142.367278,504.897557 140.792278,484.487557 145.912278,464.802557 C149.581278,450.694557 154.831278,436.287557 162.667278,424.136557 C175.199278,404.703557 175.778278,386.923557 162.648278,368.313557 C140.206278,336.504557 142.788278,304.357557 160.972278,271.757557 C173.930278,248.524557 190.602278,228.303557 209.061278,209.306557 C212.882278,205.374557 215.375278,204.973557 216.430278,199.590557 C229.945278,137.291557 221.631278,74.1095565 191.873278,18.7085565 C190.555278,16.3195565 179.433278,0.875556525 179.265278,0.00255652524 C179.615278,-0.232443475 193.089278,15.8125565 193.439278,15.5775565 Z M71.7411778,352.469657 C71.0201778,343.357657 70.9311778,334.760657 69.5731778,326.367657 C64.1521778,292.869657 46.3951778,265.913657 23.7251778,241.685657 C21.9241778,239.760657 20.2631778,237.579657 18.1281778,236.114657 C6.8041778,228.343657 3.3511778,216.916657 1.8841778,204.014657 C-6.2908222,132.113657 11.9801778,68.3396565 59.7481778,13.4826565 C60.0661778,13.1166565 69.5241778,0.776656525 71.0661778,0.167656525 C57.6711778,23.5126565 41.7291778,46.3146565 34.1691778,85.3356565 C26.8501778,123.114657 26.7721778,160.582657 34.6751778,198.097657 C35.4821778,201.927657 38.2901778,205.736657 41.0891778,208.682657 C60.9301778,229.569657 79.6111778,251.465657 90.9951778,278.143657 C96.4541778,290.933657 100.137178,304.987657 101.719178,318.801657 C103.865178,337.542657 92.2391778,349.611657 71.7411778,352.469657 Z M51.5708778,411.438057 C69.6768778,399.391057 83.1038778,403.135057 90.6808778,419.551057 C98.7418778,437.013057 103.865878,462.195057 104.748878,481.439057 C100.188878,470.285057 93.8558778,452.612057 89.4098778,441.413057 C87.3198778,436.148057 84.5598778,432.323057 78.0858778,432.441057 C72.0338778,432.551057 68.0448778,429.007057 66.7348778,423.340057 C66.1328778,420.736057 65.4118778,416.836057 63.8318778,415.073057 C61.1988778,412.135057 56.8468778,412.077057 51.5708778,411.438057 Z M45.2556778,354.178257 C21.6246778,338.361257 4.5296778,318.096257 1.2926778,287.892257 C14.2986778,293.472257 37.8846778,328.559257 45.2556778,354.178257 Z" fill="#2C6791"></path>
    </g>
</svg>
