<?xml version="1.0" encoding="UTF-8" standalone="no"?>
<svg
   xmlns:dc="http://purl.org/dc/elements/1.1/"
   xmlns:cc="http://creativecommons.org/ns#"
   xmlns:rdf="http://www.w3.org/1999/02/22-rdf-syntax-ns#"
   xmlns:svg="http://www.w3.org/2000/svg"
   xmlns="http://www.w3.org/2000/svg"
   xmlns:sodipodi="http://sodipodi.sourceforge.net/DTD/sodipodi-0.dtd"
   xmlns:inkscape="http://www.inkscape.org/namespaces/inkscape"
   width="64"
   height="64"
   viewBox="0 0 64 64"
   version="1.1"
   id="svg31"
   sodipodi:docname="informatica-icon.svg"
   inkscape:version="0.92.4 (5da689c313, 2019-01-14)">
  <metadata
     id="metadata37">
    <rdf:RDF>
      <cc:Work
         rdf:about="">
        <dc:format>image/svg+xml</dc:format>
        <dc:type
           rdf:resource="http://purl.org/dc/dcmitype/StillImage" />
        <dc:title>logo-informatica</dc:title>
      </cc:Work>
    </rdf:RDF>
  </metadata>
  <defs
     id="defs35" />
  <sodipodi:namedview
     pagecolor="#ffffff"
     bordercolor="#666666"
     borderopacity="1"
     objecttolerance="10"
     gridtolerance="10"
     guidetolerance="10"
     inkscape:pageopacity="0"
     inkscape:pageshadow="2"
     inkscape:window-width="1515"
     inkscape:window-height="806"
     id="namedview33"
     showgrid="false"
     inkscape:zoom="8.0433396"
     inkscape:cx="32"
     inkscape:cy="32"
     inkscape:window-x="70"
     inkscape:window-y="27"
     inkscape:window-maximized="0"
     inkscape:current-layer="svg31" />
  <!-- Generator: Sketch 55.2 (78181) - https://sketchapp.com -->
  <title
     id="title2">logo-informatica</title>
  <desc
     id="desc4">Created with Sketch.</desc>
  <polygon
     id="Fill-1"
     points="34.294323,45.02225 57.257024,58.0385 58.113075,48.14225 51.737575,41.25875 42.329024,39.684125 "
     style="fill:#ff4d00;fill-rule:evenodd;stroke:none;stroke-width:1"
     transform="matrix(0.838338,0,0,0.8270135,0,-5.3755877e-4)" />
  <polygon
     id="Fill-2"
     points="38.17028,0.00065 57.256703,58.03915 76.341523,38.6919 "
     style="fill:#ff7d00;fill-rule:evenodd;stroke:none;stroke-width:1"
     transform="matrix(0.838338,0,0,0.8270135,0,-5.3755877e-4)" />
  <polygon
     id="Fill-3"
     points="35.099877,30.740775 34.295124,45.0229 63.62531,38.693525 "
     style="fill:#001aff;fill-rule:evenodd;stroke:none;stroke-width:1"
     transform="matrix(0.838338,0,0,0.8270135,0,-5.3755877e-4)" />
  <polygon
     id="Fill-4"
     points="20.38076,59.353288 24.176883,54.200412 23.493966,48.009163 14.141523,41.856912 0.00064123711,38.694662 "
     style="fill:#e23400;fill-rule:evenodd;stroke:none;stroke-width:1"
     transform="matrix(0.838338,0,0,0.8270135,0,-5.3755877e-4)" />
  <polygon
     id="Fill-5"
     points="0,38.694012 23.493325,48.008513 36.106459,2.0957625 "
     style="fill:#ff4d00;fill-rule:evenodd;stroke:none;stroke-width:1"
     transform="matrix(0.838338,0,0,0.8270135,0,-5.3755877e-4)" />
  <polygon
     id="Fill-6"
     points="23.493966,48.009163 20.38076,59.353288 38.17028,77.387537 54.887332,60.443663 "
     style="fill:#ff7d00;fill-rule:evenodd;stroke:none;stroke-width:1"
     transform="matrix(0.838338,0,0,0.8270135,0,-5.3755877e-4)" />
</svg>
