<?xml version="1.0" encoding="UTF-8"?>
<svg width="80px" height="80px" viewBox="0 0 80 80" version="1.1" xmlns="http://www.w3.org/2000/svg" xmlns:xlink="http://www.w3.org/1999/xlink">
    <title>Icon-Architecture/64/Arch_Amazon-Kinesis-Data-Firehose_64</title>
    <g id="Icon-Architecture/64/Arch_Amazon-Kinesis-Data-Firehose_64" stroke="none" stroke-width="1" fill="none" fill-rule="evenodd">
        <g id="Icon-Architecture-BG/64/Analytics" fill="#8C4FFF">
            <rect id="Rectangle" x="0" y="0" width="80" height="80"></rect>
        </g>
        <g id="Icon-Service/64/Amazon-Kinesis-Data-Firehose" transform="translate(14.000000, 15.000000)" fill="#FFFFFF">
            <path d="M52.625,29.072 L51.883,30.928 C48.685,29.649 44.784,29 40.288,29 L40.288,27 C45.04,27 49.19,27.697 52.625,29.072 L52.625,29.072 Z M51.938,27.949 C49.032,26.984 43.152,26 40.288,26 L40.288,24 C43.184,24 49.039,23.017 51.892,22.053 L52.532,23.947 C51.438,24.318 49.96,24.684 48.372,25.004 C49.979,25.323 51.476,25.688 52.569,26.051 L51.938,27.949 Z M52.611,20.934 C49.03,22.305 44.884,23 40.288,23 L40.288,21 C44.639,21 48.544,20.349 51.896,19.066 L52.611,20.934 Z M36.255,28.219 L26.255,30.719 L26.255,19.281 L36.255,21.781 L36.255,28.219 Z M24.255,33 L21.255,33 L21.255,17 L24.255,17 L24.255,18 L24.255,32 L24.255,33 Z M37.497,20.03 L26.255,17.219 L26.255,16 C26.255,15.448 25.808,15 25.255,15 L20.255,15 C19.702,15 19.255,15.448 19.255,16 L19.255,16.93 C4.053,15.821 2.255,9.619 2.255,5 L2.255,0 L0.255,0 L0.255,5 C0.255,13.469 6.485,18.023 19.255,18.927 L19.255,19.963 C11.492,19.652 5.918,18.427 1.786,16.127 L0.813,17.874 C5.242,20.341 11.126,21.644 19.255,21.964 L19.255,23.978 C13.607,23.844 5.956,23.47 0.51,22.033 L0,23.967 C1.633,24.398 3.449,24.734 5.342,25 C3.449,25.267 1.633,25.603 0,26.033 L0.51,27.967 C5.957,26.53 13.608,26.156 19.255,26.023 L19.255,28.037 C11.171,28.353 5.29,29.656 0.816,32.125 L1.783,33.876 C5.958,31.572 11.545,30.356 19.255,30.047 L19.255,31.068 C2.76,32.282 0.255,40.902 0.255,46 L0.253,46.392 C0.236,49.616 0.246,49.974 0.261,50.107 L2.252,49.922 C2.241,49.74 2.242,48.556 2.253,46.403 L2.255,46 C2.255,38.38 8.138,33.933 19.255,33.08 L19.255,34 C19.255,34.552 19.702,35 20.255,35 L25.255,35 C25.808,35 26.255,34.552 26.255,34 L26.255,32.781 L37.497,29.97 C37.942,29.859 38.255,29.459 38.255,29 L38.255,21 C38.255,20.541 37.942,20.141 37.497,20.03 L37.497,20.03 Z" id="Amazon-Kinesis-Data-Firehose_Icon_64_Squid"></path>
        </g>
    </g>
</svg>