<?xml version="1.0" encoding="UTF-8"?>
<svg width="80px" height="80px" viewBox="0 0 80 80" version="1.1" xmlns="http://www.w3.org/2000/svg" xmlns:xlink="http://www.w3.org/1999/xlink">
    <title>Icon-Architecture/64/Arch_Amazon-Kinesis-Data-Streams_64</title>
    <g id="Icon-Architecture/64/Arch_Amazon-Kinesis-Data-Streams_64" stroke="none" stroke-width="1" fill="none" fill-rule="evenodd">
        <g id="Icon-Architecture-BG/64/Analytics" fill="#8C4FFF">
            <rect id="Rectangle" x="0" y="0" width="80" height="80"></rect>
        </g>
        <g id="Icon-Service/64/Amazon-Kinesis-Data-Streams" transform="translate(13.000000, 12.000000)" fill="#FFFFFF">
            <path d="M36,39 L42,39 L42,37 L36,37 L36,39 Z M40,50 L43,50 L43,47 L40,47 L40,50 Z M45,46 L45,51 C45,51.552 44.553,52 44,52 L39,52 C38.448,52 38,51.552 38,51 L38,46 C38,45.448 38.448,45 39,45 L44,45 C44.553,45 45,45.448 45,46 L45,46 Z M39,43 L42,43 L42,41 L39,41 L39,43 Z M46,41 L49,41 L49,38 L46,38 L46,41 Z M50,43 L45,43 C44.448,43 44,42.552 44,42 L44,37 C44,36.448 44.448,36 45,36 L47.975,36 C46.305,34.75 44.242,34 42,34 C37.532,34 33.739,36.947 32.461,41 L37,41 L37,43 L32.051,43 C32.018,43.329 32,43.663 32,44 C32,44.337 32.018,44.671 32.051,45 L36,45 L36,47 L32.461,47 C32.684,47.705 32.989,48.372 33.354,49 L36,49 L36,51 L34.871,51 C36.687,52.849 39.21,54 42,54 C44.79,54 47.314,52.849 49.129,51 L47,51 L47,49 L50.647,49 C51.012,48.372 51.317,47.705 51.539,47 L47,47 L47,45 L51.95,45 C51.983,44.671 52,44.337 52,44 C52,42.447 51.634,40.982 51,39.67 L51,42 C51,42.552 50.553,43 50,43 L50,43 Z M54,44 C54,50.617 48.618,56 42,56 C35.383,56 30,50.617 30,44 C30,37.383 35.383,32 42,32 C48.618,32 54,37.383 54,44 L54,44 Z M35.127,31.817 C20.434,33.238 6,36.72 6,50 L8,50 C8,43.633 11,36.878 32.034,34.185 C32.946,33.258 33.989,32.462 35.127,31.817 L35.127,31.817 Z M12,56 L14,56 C14,50.185 14.012,43.068 28.801,39.377 C29.082,38.577 29.429,37.81 29.844,37.084 C12.014,41.047 12,49.982 12,56 L12,56 Z M2,14 L0,14 C0,21.396 10.039,26.08 29.893,28 C10.039,29.92 0,34.604 0,42 L2,42 C2,37.145 8.756,29 54,29 L54,27 C8.756,27 2,18.855 2,14 L2,14 Z M8,6 L6,6 C6,15.396 11.703,25 54,25 L54,23 C13.465,23 8,14.406 8,6 L8,6 Z M54,19 L54,21 C35.663,21 23.728,18.641 17.51,13.788 C12,9.488 12,4.004 12,0 L14,0 C14,7.566 14,19 54,19 L54,19 Z" id="Amazon-Kinesis-Data-Streams_Icon_64_Squid"></path>
        </g>
    </g>
</svg>