<svg xmlns="http://www.w3.org/2000/svg" width="2500" height="2500" viewBox="0 0 192.756 192.756"><g fill-rule="evenodd" clip-rule="evenodd"><path fill="#fff" d="M0 0h192.756v192.756H0V0z"/><path d="M111.516 103.671a11.515 11.515 0 0 1-3.645-2.487H16.689v2.487h94.827zM135.416 103.671c2.213-.516 5.131-1.406 7.371-2.5l36.51.013v2.487h-43.881z"/><path d="M18.482 85.069c.724.023.874.146 1.515.582.32.234.582.946.524 2.402.131 1.31.524 2.532 1.79 3.231.48.305 1.747.787 3.014.612 1.645-.059 3.318-.714 3.755-1.005 3.785-1.425 8.34-6.156 13.929-7.248 0 0-7.915 8.042-11.433 15.651-1.062 2.298-1.89 5.059-.968 7.565.477 1.034.94 1.459 1.993 1.469.466-.028.781-.555.842-.802 2.531-9.987 5.365-16.963 11.764-24.146 1.715-.453 2.939-.583 4.161-.673.6-.14.234-.822-.47-.842-6.995-.66-13.799 2.56-20.24 5.175-3.021 1.227-4.381-.253-4.469-2.496-.116-2.853-4.309-2.853-4.309-2.853-3.842-.35-7.307.437-7.685.67-1.033.292-.276 2.722-.276 2.722 1.096-.28 2.693-.422 4.148-.219-.699 1.135-1.484 2.488-1.484 2.488-2.053 3.711-4.061 7.249-5.938 11.485-.28.746-.056 1.16-.044 1.223.16.728 1.562 1.219 2.445 1.527 0 0 .503.327.831-.567 1.703-4.891 2.62-6.987 4.715-11.877-.002.002.886-1.978 1.89-4.074z"/><path d="M54.083 92.998c.452 1.342-.654 2.405-1.251 2.93-1.484 1.571-6.681 4.22-10.364 3.74-1.163-.087-2.75-.292-3.172-1.761-.442-3.519 5.114-5.047 7.055-5.692a21.1 21.1 0 0 1 2.167-.479c-.421-.683.298-1.021.568-1.035 1.973-.037 4.184.655 4.997 2.297zm-2.336-.281c-1.959-.302-3.816.732-5.54 1.383-.948.522-1.583.808-2.297 1.576-.324.625.22.922.461 1.051 1.903.676 5.435-1.141 7.679-3.19.462-.725-.303-.82-.303-.82zM62.669 93.905c2.026-.917 4.248-1.56 5.31-1.719 2.387-.582 5.472.059 5.472 1.63-.088.539-.378.698-.718.972-.578.412-.98.57-1.675 1.172 0 0-.062.145-.038.229.045.147.239.26.621.142 4.849-1.152 8.447-4.32 11.678-7.551-11.353-.35-16.854.437-16.854.437l-.037-.918c.145-1.309.203-1.469 1.633-1.721 5.3-.48 11.934-.181 16.831.193 0 0 .873-.873 2.183-1.922.461.158 1.16.78 1.331 1.093-.542.549-.41.429-.981 1.121 1.477.188 6.338.538 9.414 1.346l.019.459c-3.153-.131-7.685-.263-10.767.046-.968.72-5.215 5.193-4.08 7.58.634 1.238 3.353-.378 3.8-.574.071-.031-.301-1.158.646-2.409.417-.552 2.162-2.336 5.467-2.939.69-.096 2.772-.328 3.493.566.284.307.668 1.041-.03 1.784-.852 1.158-3.332 2.263-5.749 2.991-.392 1.834 7.088.467 8.879-.407 5.252-2.081 5.662-.276 5.443-.058-.977-.07-.727-.335-5.748 1.761-3.057 1.266-10.175 2.488-12.009-.131-2.736.989-4.934 2.445-6.986 2.096-1.266-.35-1.911-.979-1.659-2.357a4.388 4.388 0 0 1 1.397-2.271c-3.129 1.931-7.396 5.534-11.285 4.479-1.007-.44-1.719-1.076-.389-2.818l1.513-1.34c1.144-1.295-1.63-.699-1.63-.699-3.97.536-8.122 3.917-9.519 4.876-.861.582-2.047.442-2.154-.541-.074-.264-.007-.847.884-2.004.29-.442 1.622-1.73 2.135-2.08l1.098-.856c.113-.181.024-.479-.653-.282-1.833.415-4.059 1.858-4.309 1.324-.089-.316.079-.452.209-.545 2.699-1.942 6.657-3.374 8.642-2.344.822.52.424 1.386-.857 2.164l.029.025zm27.317.61c1.587-.422 2.837-1.121 3.85-1.769 1.025-.654-.263-1.484-1.811-.91a5.587 5.587 0 0 0-1.727 1.063c-.895.765-1.476 1.952-.312 1.616zM135.244 89.217c1.863-1.092 3.742-3.96 2.621-5.836-.285-.508-.973-1.113-1.762-1.485-.961-.524-3.23-.814-5.195-.699-8.705.612-18.951 4.425-22.707 10.277-1.266 1.964-1.879 4.744-.785 7.277 1.691 3.3 6.545 5.22 9.955 5.443 11.318 1.268 23.283-2.445 27.867-5.254.504-.223.275-.943-.357-.743-.699.171-1.135.313-2.787.889-7.189 2.619-19.299 4.978-26.898 1.252-2.434-1.537-3.895-3.663-2.686-6.769 1.857-4.869 7.656-8.093 12.342-9.606 2.125-.687 2.164-.778 3.801-1.15 1.055-.24 1.512-.321 2.648-.407.967-.074 2.664-.175 3.9.319.771.364 1.266.8 1.311 1.631.029 1.149-2.285 2.692-4.512 3.333 0 0 .391.931 1.135 1.484 0 .001.886.786 2.109.044z"/><path d="M184.105 93.196c-.996-1.782-3.039-2.242-5.012-2.282-.35.043-.893.104-.498.803-.705.046-1.555.2-2.43.396-1.682.415-6.717 1.678-7.086 4.934-1.012.146-2 .054-3.141-.305-.994-.418-1.531-1.237-.834-3.028 2.795-1.964 5.121-3.25 7.986-6.204.986-1.016 3.295-3.155 2.436-5.063-.498-.776-1.566-.959-2.387-.654-4.33 1.5-9.104 6.383-11.582 11.368-.951 2.053-.484 1.413-.717 1.82-1.727 1.849-3.619 2.313-4.434 2.313-.67.088-1.018-.146-1.018-.146-.221-.152-.438-.443-.064-.814.697-.509.887-.488 1.598-1.033.908-.583.963-1.15.756-1.456-.197-.35-1.609-.706-2.271-.917-.516-.159-.494-.189-1.047-.378-.408-.19-1.02-.626-.742-1.238.043-.276.188-.479-.219-.829-.523-.175-.793.043-1.049.218-1.223 1.004-1.641 1.601-3.971 3.013-.916.437-.609.35-2.707 1.165-1.861.582-2.953.786-2.125-.83.656-1.441-.932-1.63-2.021-.8-1.877 1.353-2.52 2.313-5.838 3.478-.607.184-4.105.904-3.959-.815.062-1.777 3.988-3.403 7.92-3.463.553.058 1.047-.844 0-.931-6.871-.438-11.395 2.135-12.578 4.687-.445 1.586.539 2.476 1.594 2.896 2.736 1.252 7.25-.102 11.623-3.188-1.602 2.562 2.896 2.126 4.73 1.253 2.008-.961 2.227-.919 3.102-1.529 0 0 1.266-.654 1.834-1.048.242-.167.523-.35.873-.392.355.029.865.298 1.541.799.322.275 1.457.771.264 1.616-1.107.815-1.326 1.296-1.326 1.296-.471 1.252 1.205 1.849 3.354 1.63 1.289-.131 3.328-1.005 6.299-3.043.232 1.572 1.504 2.431 2.736 2.781 1.842.474 3.186.401 4.91-.204.262-.122.814-.408.979-.549.613.567 1.621.712 2.443.835 4.049.277 8.156-1.283 10.848-3.361 1.502-1.154 1.523-2.224 1.23-2.801zm-10.687-9.547c.305-.065.641.285.334.853-.205.909-4.922 5.42-8.021 7.044 1.171-3.261 5.83-7.708 7.687-7.897zm8.635 10.182c-.318.793-6.41 4.024-8.201 2.959-.234-.139-.414-.703-.016-1.143.654-.655 1.391-1.001 2.357-1.486 1.764-.716 4.23-1.633 5.59-1.164 0 .001.758.241.27.834zM114.029 108.722c-.502-.297-1.08-.574-2-.574-1.691 0-2.547.564-2.547 1.475 0 .709.793 1.398 2.387 1.398 1.027 0 1.904-.276 2.301-.689l.459.101c-.631.594-1.689.836-3.018.836-1.957 0-3.529-.742-3.529-1.622 0-1.007 1.625-1.702 3.658-1.702 1.092 0 2.076.263 2.676.651l-.387.126zM123.133 111.181h-1.338l-.736-.821h-2.387l-.695.821h-.609l2.824-3.237h.021l2.92 3.237zm-3.274-2.183l-1.006 1.157h2.021l-1.015-1.157zM126.939 110.617c.365.263.748.403 1.434.403.598 0 1.24-.219 1.24-.544 0-.914-3.252-.481-3.252-1.609 0-.505.932-.924 2.227-.924.855 0 1.721.214 2.086.564l-.449.131c-.268-.253-.686-.447-1.424-.447-.717 0-1.133.249-1.133.55 0 .74 3.25.428 3.25 1.565 0 .578-1.111.961-2.277.961-.941 0-1.701-.126-2.182-.49l.48-.16zM134.746 108.031h1.305v3.15h-1.305v-3.15zM140.232 111.181v-3.15h1.166l3.627 2.169h.022v-2.169h.557v3.15h-.579l-4.216-2.512h-.02v2.512h-.557zM152.607 107.943c2.014 0 3.445.734 3.445 1.663s-1.432 1.661-3.445 1.661c-1.998 0-3.434-.732-3.434-1.661s1.436-1.663 3.434-1.663zm0 3.121c1.67 0 2.045-.846 2.045-1.458 0-.613-.375-1.459-2.045-1.459-1.668 0-2.031.846-2.031 1.459 0 .613.363 1.458 2.031 1.458zM98.008 110.569a.298.298 0 0 0 .088-.233c0-.175-.076-.359-.141-.521h.514c.117.155.213.346.213.525a.824.824 0 0 1-.213.544l.984.612h-1.23l-.342-.209c-.557.214-1.156.297-1.958.297-1.392 0-2.601-.506-2.601-1.156 0-.574.546-.822 1.529-1.143-.245-.15-.588-.322-.588-.507 0-.359.695-.636 1.477-.636.771 0 1.445.209 1.445.592 0 .298-.503.496-.973.652l1.796 1.183zm-2.642-.953c-.567.184-.995.446-.995.846 0 .477.792.841 1.766.841.598 0 .951-.073 1.421-.21l-2.192-1.477zm.181-1.268c-.235 0-.598.083-.565.224l.673.447c.268-.063.61-.234.61-.375 0-.18-.32-.296-.718-.296zM37.962 111.181v-3.149h2.995c1.263 0 1.969.423 1.969.929 0 .48-.771.69-1.809.748l1.84 1.473h-1.433l-1.894-1.613h.086c1.154 0 1.903-.205 1.903-.676 0-.35-.374-.704-1.647-.704h-.706v2.993h-1.304v-.001zM46.53 111.181v-3.15h4.097v.204h-2.793v1.215h2.632v.205h-2.632v1.322h2.836v.204h-4.14zM54.798 110.617c.364.263.749.403 1.434.403.599 0 1.24-.219 1.24-.544 0-.914-3.251-.481-3.251-1.609 0-.505.93-.924 2.224-.924.856 0 1.723.214 2.086.564l-.45.131c-.267-.253-.684-.447-1.423-.447-.716 0-1.134.249-1.134.55 0 .74 3.252.428 3.252 1.565 0 .578-1.112.961-2.278.961-.941 0-1.702-.126-2.183-.49l.483-.16zM65.429 107.943c2.011 0 3.445.734 3.445 1.663s-1.434 1.661-3.445 1.661c-2 0-3.433-.732-3.433-1.661s1.433-1.663 3.433-1.663zm0 3.121c1.669 0 2.044-.846 2.044-1.458 0-.613-.375-1.459-2.044-1.459s-2.032.846-2.032 1.459c0 .613.363 1.458 2.032 1.458zM72.402 111.181v-3.149h2.995c1.264 0 1.97.423 1.97.929 0 .48-.771.69-1.809.748l1.84 1.473h-1.434l-1.893-1.613h.085c1.155 0 1.904-.205 1.904-.676 0-.35-.375-.704-1.648-.704h-.707v2.993h-1.303v-.001zM81.698 111.181v-2.946h-1.381v-.204h4.065v.204h-1.38v2.946h-1.304z"/></g></svg>