<svg width="256" height="256" viewBox="0 0 256 256" fill="none" xmlns="http://www.w3.org/2000/svg">
<path d="M119.319 53.0286C108.871 37.3593 106.612 16.4179 106.119 7.81225C79.5794 13.5515 53.2122 23.8462 54.735 31.4282C54.9269 32.3815 56.1298 33.5268 58.1261 34.6401L55.0037 40.2257C51.1904 38.0887 49.047 35.6254 48.4647 32.6822C46.7436 24.1022 56.4625 16.3411 78.1654 8.95114C92.9837 3.90293 107.93 0.889355 108.563 0.767788L112.383 0V3.90932C112.383 4.17805 112.55 31.345 124.642 49.484L119.319 53.0286Z" fill="#CFD8DC"/>
<path d="M129.985 256H128.379C75.9643 256 17.6315 239.537 10.7406 211.986C6.53695 195.159 20.2868 176.566 50.4993 158.235L53.8264 163.699C26.6402 180.2 13.543 196.79 16.9533 210.438C22.9356 234.355 78.2165 249.262 126.702 249.595C132.467 240.977 163.441 190.347 145.763 122.443L151.95 120.831C172.098 198.198 131.36 254.151 130.951 254.707L129.985 256Z" fill="#CFD8DC"/>
<path d="M35.163 232.366C31.7143 232.366 30.006 231.988 29.7245 231.918C28.5984 231.643 27.7154 230.779 27.4083 229.666C27.0948 228.552 27.4147 227.356 28.2337 226.543C28.6943 226.083 74.2818 180.425 80.4369 143.507L86.7456 144.556C81.4542 176.317 50.1796 212.525 37.7607 225.859C50.1668 225.148 81.4926 219.339 141.63 185.678C94.6986 180.533 87.2766 142.963 87.1999 142.56L93.4893 141.402C93.7901 142.976 101.334 179.862 152.635 179.862C152.654 179.862 152.667 179.862 152.686 179.862C154.138 179.862 155.399 180.834 155.77 182.229C156.154 183.624 155.539 185.102 154.292 185.831C82.4076 227.477 47.55 232.359 35.163 232.366Z" fill="#CFD8DC"/>
<path d="M64.55 247.683C63.2256 247.683 62.0227 246.864 61.5556 245.603C61.0502 244.253 61.5108 242.724 62.6881 241.88C62.9057 241.72 74.2881 233.319 86.4 214.828C81.7421 212.768 77.0266 210.362 72.3495 207.553C66.6678 204.143 62.3746 200.483 59.1691 196.734C42.7256 201.072 27.549 202.786 14.2214 201.654L14.7589 195.281C26.762 196.299 40.4094 194.878 55.2022 191.186C45.1377 173.988 54.3768 156.917 54.5048 156.687L60.0968 159.803C59.6681 160.584 52.003 174.967 61.69 189.446C75.7725 185.402 90.7956 179.42 106.343 171.646C109.92 159.905 112.716 146.552 114.181 131.491C114.284 130.461 114.872 129.546 115.768 129.028C116.664 128.509 117.758 128.464 118.698 128.893C118.903 128.989 139.582 138.433 154.554 144.594C155.642 145.042 156.397 146.053 156.518 147.224C156.646 148.395 156.115 149.534 155.136 150.199C140.491 160.181 125.941 168.837 111.769 176.061C107.277 190.297 101.717 202.147 96.0357 211.834C119.722 220.682 140.28 220.817 140.542 220.817C142.001 220.817 143.274 221.802 143.639 223.216C144.003 224.63 143.37 226.108 142.097 226.818C113.049 242.955 66.8086 247.497 64.8571 247.683C64.7547 247.677 64.6524 247.683 64.55 247.683ZM92.6063 217.4C85.9521 227.727 79.4131 235.142 74.5249 239.986C87.3085 238.105 109.722 233.984 128.321 226.3C119.415 225.206 106.522 222.775 92.6063 217.4ZM66.1048 194.776C68.6193 197.284 71.7544 199.734 75.6382 202.07C80.3473 204.898 85.1267 207.297 89.8422 209.332C94.6665 201.244 99.446 191.538 103.547 180.105C90.6164 186.26 78.0631 191.174 66.1048 194.776ZM120.074 136.539C118.762 147.851 116.74 158.172 114.232 167.571C124.853 161.908 135.692 155.439 146.62 148.209C136.709 144.012 125.813 139.13 120.074 136.539Z" fill="#CFD8DC"/>
<path d="M86.304 48.6977C85.5554 48.6977 84.8132 48.429 84.2245 47.9299C73.9234 39.1132 61.7987 21.1725 61.2868 20.4111C60.4615 19.1891 60.5894 17.5575 61.5812 16.4698C62.5665 15.3757 64.1916 15.1198 65.4713 15.8172C65.5417 15.8364 71.4728 18.2805 111.647 24.9731C112.805 25.165 113.759 25.9712 114.143 27.0717C114.533 28.1722 114.283 29.4006 113.503 30.2708C102.255 42.7666 88.0443 48.2691 87.4429 48.493C87.0718 48.6274 86.6815 48.6977 86.304 48.6977ZM71.7352 24.0389C75.7725 29.471 81.5885 36.8098 86.9118 41.7557C90.1813 40.2649 97.5137 36.5219 104.469 30.2516C87.9419 27.43 77.8583 25.4209 71.7352 24.0389Z" fill="#CFD8DC"/>
<path d="M111.379 136.992C110.944 136.992 110.502 136.903 110.093 136.724C108.819 136.161 108.052 134.843 108.199 133.461C110.067 115.872 83.0793 108.815 82.8042 108.751C81.6909 108.469 80.8079 107.605 80.5072 106.498C80.2065 105.391 80.52 104.201 81.3326 103.389C82.657 102.064 114.213 70.7706 153.805 53.5849C154.912 53.105 156.166 53.2842 157.101 54.0328C158.028 54.7878 158.457 55.9971 158.214 57.1615C150.625 93.913 115.282 134.222 113.784 135.917C113.151 136.615 112.268 136.992 111.379 136.992ZM89.7015 104.265C97.277 107.113 110.547 113.703 113.906 125.738C123.177 114.17 142.967 87.5212 150.357 62.1777C122.288 75.678 98.6526 96.0372 89.7015 104.265Z" fill="#B71C1C"/>
<path d="M55.3045 162.33L52.2654 156.699C64.3133 150.205 78.1143 138.253 89.42 124.363C79.797 130.953 74.2881 135.464 74.1154 135.611L70.0269 130.684C70.2764 130.479 81.3134 121.426 99.6572 110.082C104.693 101.982 108.564 93.6512 110.553 85.6661C110.892 84.3097 111.187 82.9981 111.424 81.7312C99.1069 77.3356 87.7436 74.7316 79.9378 73.6119C78.7541 73.4455 77.7688 72.6329 77.3721 71.5132C76.9754 70.3935 77.2377 69.1395 78.0375 68.2693C78.5814 67.6807 91.5762 53.7581 107.815 46.1122C109.075 45.5172 110.585 45.8115 111.532 46.8416C111.961 47.3087 120.746 57.1748 118.513 77.5852C125.903 80.4644 133.517 83.9642 140.849 88.1295C158.502 80.1957 178.547 73.0552 199.898 68.7428C200.999 68.5253 202.221 68.9219 202.976 69.8177C203.725 70.7135 203.929 71.9483 203.507 73.036C195.189 94.355 172.885 117.126 171.938 118.086C171.292 118.739 170.409 119.065 169.488 119.033C168.573 118.982 167.728 118.547 167.152 117.83C159.986 108.821 150.619 101.361 140.516 95.2891C126.6 101.713 114.277 108.585 104.149 114.797C91.2243 134.971 71.716 153.494 55.3045 162.33ZM147.522 92.1796C155.776 97.5029 163.46 103.76 169.814 111.042C175.112 105.296 187.825 90.7719 195.036 76.3503C178.08 80.2532 162.034 85.9029 147.522 92.1796ZM117.495 84.0282C117.284 85.0711 117.041 86.1396 116.772 87.2273C115.429 92.5954 113.292 98.1107 110.553 103.613C117.566 99.6079 125.327 95.4747 133.702 91.4693C128.34 88.6285 122.87 86.1588 117.495 84.0282ZM87.0974 68.3525C94.2059 69.7473 102.965 72.0251 112.313 75.301C113.285 63.509 110.099 56.2854 108.173 53.0863C99.3692 57.6802 91.6594 64.1425 87.0974 68.3525Z" fill="#B71C1C"/>
<path d="M87.1101 99.2431C87.1101 127.267 63.7565 149.533 46.9292 165.785C44.1139 168.536 34.5806 168.984 34.5806 168.984C36.9479 166.553 39.6352 163.993 42.5144 161.242C58.51 145.758 80.7119 124.58 80.7119 99.2431C80.7119 69.2353 68.6192 57.3986 59.0858 47.9292C54.863 43.6424 51.28 39.5475 49.1046 34.5569L51.088 33.7251C53.2634 34.6848 55.7587 35.7725 57.6782 36.6043C59.2138 38.8437 61.2612 41.0191 63.6286 43.3864C73.4179 53.1758 87.1101 66.6121 87.1101 99.2431Z" fill="#B71C1C"/>
<path d="M246.331 107.523C246.331 107.523 242.46 108.073 241.372 108.201C185.323 114.407 127.483 130.531 94.4043 143.775C82.4396 148.574 70.027 154.396 58.7021 160.923C58.6381 160.987 58.5741 160.987 58.4462 161.051C51.792 164.89 35.6044 172.823 22.488 179.798C41.6828 159.387 77.6409 143.647 91.9729 137.889C124.412 124.901 180.141 109.225 234.974 102.507C228.511 94.9568 212.708 78.9612 181.612 67.0605C163.441 60.0224 135.801 56.0555 111.424 52.5365C72.6503 46.97 50.5763 43.259 48.4649 32.7019C48.017 30.5905 48.3369 28.4791 49.2967 26.4316C51.4081 29.8867 54.4153 32.318 56.3987 33.7256C57.3585 34.3655 58.0623 34.7494 58.3182 34.8773L58.3822 34.9413C67.4677 39.74 91.9729 43.259 112.383 46.2022C137.081 49.7852 165.041 53.8161 183.916 61.0461C227.872 78.0015 243.035 102.251 243.675 103.275C244.251 104.234 246.331 107.523 246.331 107.523Z" fill="#B71C1C"/>
</svg>
