<?xml version="1.0" encoding="UTF-8" standalone="no"?>
<!DOCTYPE svg PUBLIC "-//W3C//DTD SVG 1.1//EN" "http://www.w3.org/Graphics/SVG/1.1/DTD/svg11.dtd">
<svg width="100%" height="100%" viewBox="0 0 120 120" version="1.1" xmlns="http://www.w3.org/2000/svg" xmlns:xlink="http://www.w3.org/1999/xlink" xml:space="preserve" xmlns:serif="http://www.serif.com/" style="fill-rule:evenodd;clip-rule:evenodd;stroke-linejoin:round;stroke-miterlimit:2;">
    <g transform="matrix(1,0,0,1,-409.803,0)">
        <g id="openlineage-icon-color" transform="matrix(0.995272,0,0,1.38053,409.803,0)">
            <rect x="0" y="0" width="120.57" height="86.923" style="fill:none;"/>
            <g transform="matrix(1.00475,0,0,0.724359,-0.469881,11.2728)">
                <g transform="matrix(1,0,0,1,39.5361,51.8347)">
                    <path d="M0,-16.664C-1.133,-18.991 -2.901,-20.95 -5.1,-22.314C-7.347,-23.674 -9.934,-24.368 -12.56,-24.314C-17.892,-24.446 -22.808,-21.446 -25.13,-16.644C-26.394,-14.08 -27.035,-11.253 -27,-8.394C-27.049,-5.535 -26.422,-2.705 -25.17,-0.134C-22.855,4.67 -17.941,7.674 -12.61,7.546C-9.985,7.592 -7.4,6.899 -5.15,5.546C-2.931,4.177 -1.146,2.208 0,-0.134C1.261,-2.702 1.892,-5.534 1.84,-8.394C1.893,-11.258 1.263,-14.093 0,-16.664M2.9,1.436C-0.053,7.261 -6.081,10.879 -12.61,10.746C-19.138,10.887 -25.17,7.276 -28.13,1.456C-29.681,-1.586 -30.463,-4.96 -30.41,-8.374C-30.468,-11.804 -29.686,-15.196 -28.13,-18.254C-26.692,-21.064 -24.5,-23.419 -21.8,-25.054C-19.023,-26.706 -15.841,-27.551 -12.61,-27.494C-9.379,-27.55 -6.197,-26.705 -3.42,-25.054C-0.723,-23.418 1.465,-21.063 2.9,-18.254C4.461,-15.194 5.247,-11.798 5.19,-8.364C5.236,-4.96 4.449,-1.596 2.9,1.436" style="fill:rgb(116,164,188);fill-rule:nonzero;"/>
                </g>
                <g transform="matrix(1,0,0,1,83.4978,24.8649)">
                    <path d="M0,37.192C-0.034,37.193 -0.068,37.193 -0.102,37.192L-19.102,37.192C-19.952,37.22 -20.664,36.554 -20.692,35.704C-20.693,35.67 -20.693,35.636 -20.692,35.602L-20.692,1.602C-20.703,1.171 -20.528,0.755 -20.212,0.462C-19.875,0.145 -19.424,-0.021 -18.962,0.002C-18.528,-0.008 -18.107,0.154 -17.792,0.452C-17.475,0.745 -17.3,1.161 -17.312,1.592L-17.312,34.062L-0.132,34.062C0.299,34.04 0.72,34.191 1.038,34.482C1.341,34.774 1.504,35.182 1.488,35.602C1.516,36.452 0.85,37.164 0,37.192M2.949,-15.389L-29.341,-15.389L-29.341,52.581L4.929,52.581L27.949,18.591L2.949,-15.389Z" style="fill:rgb(116,164,188);fill-rule:nonzero;"/>
                </g>
            </g>
        </g>
    </g>
</svg>
