<?xml version="1.0" encoding="UTF-8" standalone="no"?>
<svg
   xmlns:dc="http://purl.org/dc/elements/1.1/"
   xmlns:cc="http://creativecommons.org/ns#"
   xmlns:rdf="http://www.w3.org/1999/02/22-rdf-syntax-ns#"
   xmlns:svg="http://www.w3.org/2000/svg"
   xmlns="http://www.w3.org/2000/svg"
   width="1200"
   height="1600"
   viewBox="0 0 1200 1600"
   fill="none"
   version="1.1"
   id="svg19655">
  <metadata
     id="metadata19659">
    <rdf:RDF>
      <cc:Work
         rdf:about="">
        <dc:format>image/svg+xml</dc:format>
        <dc:type
           rdf:resource="http://purl.org/dc/dcmitype/StillImage" />
        <dc:title></dc:title>
      </cc:Work>
    </rdf:RDF>
  </metadata>
  <mask
     id="mask0"
     mask-type="alpha"
     maskUnits="userSpaceOnUse"
     x="200"
     y="0"
     width="1200"
     height="1600">
    <path
       d="m 1333.25,0 c 36.86,0 66.75,29.8849 66.75,66.75 v 1466.5 c 0,36.86 -29.89,66.75 -66.75,66.75 H 266.667 C 229.848,1600 200,1570.15 200,1533.33 V 866.667 C 200,829.848 229.848,800 266.667,800 H 525 V 466.667 C 525,429.848 554.848,400 591.667,400 H 850 V 66.75 C 850,29.885 879.885,0 916.75,0 Z"
       fill="#ffffff"
       id="path19600" />
  </mask>
  <g
     mask="url(#mask0)"
     id="g19611"
     transform="translate(-200)">
    <path
       d="m 1400,66.75 v 1466.5 c 0,36.86 -29.89,66.75 -66.75,66.75 H 916.75 C 879.885,1600 850,1570.11 850,1533.25 V 66.75 C 850,29.885 879.885,0 916.75,0 h 416.5 c 36.87,0 66.75,29.8849 66.75,66.75 z"
       fill="url(#paint0_linear)"
       id="path19603"
       style="fill:url(#paint0_linear)" />
    <g
       filter="url(#filter0_dd)"
       id="g19607">
      <path
         d="M 1075,466.667 V 1600 H 525 V 466.667 C 525,429.848 554.848,400 591.667,400 h 416.663 c 36.82,0 66.67,29.848 66.67,66.667 z"
         fill="url(#paint1_linear)"
         id="path19605"
         style="fill:url(#paint1_linear)" />
    </g>
    <path
       d="m 200,866.667 v 666.663 c 0,36.82 29.848,66.67 66.667,66.67 H 750 V 866.667 C 750,829.848 720.152,800 683.333,800 H 266.667 C 229.848,800 200,829.848 200,866.667 Z"
       fill="url(#paint2_linear)"
       id="path19609"
       style="fill:url(#paint2_linear)" />
  </g>
  <defs
     id="defs19653">
    <filter
       id="filter0_dd"
       x="519.66699"
       y="396"
       width="560.66699"
       height="1210.67"
       filterUnits="userSpaceOnUse"
       color-interpolation-filters="sRGB">
      <feFlood
         flood-opacity="0"
         result="BackgroundImageFix"
         id="feFlood19613" />
      <feColorMatrix
         in="SourceAlpha"
         type="matrix"
         values="0 0 0 0 0 0 0 0 0 0 0 0 0 0 0 0 0 0 127 0"
         id="feColorMatrix19615" />
      <feOffset
         dy="0.253333"
         id="feOffset19617" />
      <feGaussianBlur
         stdDeviation="0.253333"
         id="feGaussianBlur19619" />
      <feColorMatrix
         type="matrix"
         values="0 0 0 0 0 0 0 0 0 0 0 0 0 0 0 0 0 0 0.2 0"
         id="feColorMatrix19621" />
      <feBlend
         mode="normal"
         in2="BackgroundImageFix"
         result="effect1_dropShadow"
         id="feBlend19623" />
      <feColorMatrix
         in="SourceAlpha"
         type="matrix"
         values="0 0 0 0 0 0 0 0 0 0 0 0 0 0 0 0 0 0 127 0"
         id="feColorMatrix19625" />
      <feOffset
         dy="1.33333"
         id="feOffset19627" />
      <feGaussianBlur
         stdDeviation="2.66667"
         id="feGaussianBlur19629" />
      <feColorMatrix
         type="matrix"
         values="0 0 0 0 0 0 0 0 0 0 0 0 0 0 0 0 0 0 0.18 0"
         id="feColorMatrix19631" />
      <feBlend
         mode="normal"
         in2="effect1_dropShadow"
         result="effect2_dropShadow"
         id="feBlend19633" />
      <feBlend
         mode="normal"
         in="SourceGraphic"
         in2="effect2_dropShadow"
         result="shape"
         id="feBlend19635" />
    </filter>
    <linearGradient
       id="paint0_linear"
       x1="758.33301"
       y1="-1.49632e-05"
       x2="1447.8199"
       y2="1507.15"
       gradientUnits="userSpaceOnUse">
      <stop
         stop-color="#E6AD10"
         id="stop19638" />
      <stop
         offset="1"
         stop-color="#C87E0E"
         id="stop19640" />
    </linearGradient>
    <linearGradient
       id="paint1_linear"
       x1="524.95502"
       y1="400"
       x2="1105.79"
       y2="1561.67"
       gradientUnits="userSpaceOnUse">
      <stop
         stop-color="#F6D751"
         id="stop19643" />
      <stop
         offset="1"
         stop-color="#E6AD10"
         id="stop19645" />
    </linearGradient>
    <linearGradient
       id="paint2_linear"
       x1="199.955"
       y1="800"
       x2="519.784"
       y2="1581.6801"
       gradientUnits="userSpaceOnUse">
      <stop
         stop-color="#F9E589"
         id="stop19648" />
      <stop
         offset="1"
         stop-color="#F6D751"
         id="stop19650" />
    </linearGradient>
  </defs>
</svg>
