<svg width="256" height="256" viewBox="0 0 256 256" fill="none" xmlns="http://www.w3.org/2000/svg">
<path d="M148.25 84.64H70.27L0 236.99H45.33L96.66 126.11H148.23C159.66 126.11 168.92 116.75 168.92 105.26C168.92 93.77 159.66 84.41 148.23 84.41L148.25 84.64ZM148.25 0H99.67L80.7 41.48H148.25C183.38 41.48 211.95 70.22 211.95 105.26C211.95 140.31 183.38 169.05 148.25 169.05H121.93L102.76 210.34C103.81 210.60 104.86 210.73 105.93 210.73H148.25C206.18 210.73 253.30 163.18 253.30 105.26C253.30 47.34 206.18 0 148.25 0Z" fill="#00B08A"/>
</svg> 