<?xml version="1.0" encoding="UTF-8"?>
<svg width="256px" height="256px" viewBox="0 0 256 256" version="1.1" xmlns="http://www.w3.org/2000/svg" xmlns:xlink="http://www.w3.org/1999/xlink" preserveAspectRatio="xMidYMid">
    <title>AWS QuickSight</title>
    <defs>
        <linearGradient x1="0%" y1="100%" x2="100%" y2="0%" id="linearGradient-1">
            <stop stop-color="#4D27A8" offset="0%"></stop>
            <stop stop-color="#A166FF" offset="100%"></stop>
        </linearGradient>
    </defs>
    <g>
        <rect fill="url(#linearGradient-1)" x="0" y="0" width="256" height="256"></rect>
        <path d="M208,76.8 C208,73.2704 205.1296,70.4 201.6,70.4 C198.0704,70.4 195.2,73.2704 195.2,76.8 C195.2,80.3296 198.0704,83.2 201.6,83.2 C205.1296,83.2 208,80.3296 208,76.8 L208,76.8 Z M134.4,150.4 C134.4,146.8704 131.5296,144 128,144 C124.4704,144 121.6,146.8704 121.6,150.4 C121.6,153.9296 124.4704,156.8 128,156.8 C131.5296,156.8 134.4,153.9296 134.4,150.4 L134.4,150.4 Z M128,105.6 C131.5296,105.6 134.4,102.7296 134.4,99.2 C134.4,95.6704 131.5296,92.8 128,92.8 C124.4704,92.8 121.6,95.6704 121.6,99.2 C121.6,102.7296 124.4704,105.6 128,105.6 L128,105.6 Z M60.7999999,169.6 C60.7999999,166.0704 57.9295999,163.2 54.3999999,163.2 C50.8703999,163.2 47.9999999,166.0704 47.9999999,169.6 C47.9999999,173.1296 50.8703999,176 54.3999999,176 C57.9295999,176 60.7999999,173.1296 60.7999999,169.6 L60.7999999,169.6 Z M214.4,76.8 C214.4,83.8592 208.6592,89.6 201.6,89.6 C198.9408,89.6 196.4672,88.784 194.4224,87.3888 L138.928,143.8336 C140.0896,145.76 140.8,147.9904 140.8,150.4 C140.8,157.4592 135.0592,163.2 128,163.2 C120.9408,163.2 115.2,157.4592 115.2,150.4 C115.2,144.4544 119.2928,139.4848 124.8,138.0544 L124.8,111.5456 C122.8576,111.04 121.104,110.0896 119.632,108.8064 L65.1999999,162.7968 C66.4511999,164.7712 67.1999999,167.0944 67.1999999,169.6 C67.1999999,176.6592 61.4591999,182.4 54.3999999,182.4 C47.3407999,182.4 41.5999999,176.6592 41.5999999,169.6 C41.5999999,162.5408 47.3407999,156.8 54.3999999,156.8 C56.6271999,156.8 58.6943999,157.424 60.5183999,158.4288 L115.9712,103.424 C115.504,102.0928 115.2,100.688 115.2,99.2 C115.2,92.1408 120.9408,86.4 128,86.4 C135.0592,86.4 140.8,92.1408 140.8,99.2 C140.8,105.1456 136.7072,110.1152 131.2,111.5456 L131.2,138.0544 C132.3232,138.3456 133.376,138.7904 134.3552,139.3568 L190.2176,82.5344 C189.3408,80.8 188.8,78.8704 188.8,76.8 C188.8,69.7408 194.5408,64 201.6,64 C208.6592,64 214.4,69.7408 214.4,76.8 L214.4,76.8 Z M54.3999999,54.4 L201.6,54.4 L201.6,57.6 L208,57.6 L208,51.2 C208,49.4336 206.5696,48 204.8,48 L51.1999999,48 C49.4303999,48 47.9999999,49.4336 47.9999999,51.2 L47.9999999,150.4 L54.3999999,150.4 L54.3999999,54.4 Z M201.6,96 L208,96 L208,204.8 C208,206.5664 206.5696,208 204.8,208 L51.1999999,208 C49.4303999,208 47.9999999,206.5664 47.9999999,204.8 L47.9999999,188.8 L54.3999999,188.8 L54.3999999,201.6 L201.6,201.6 L201.6,96 Z" fill="#FFFFFF"></path>
    </g>
</svg>