<svg width="300" height="300" viewBox="0 0 300 300" fill="none" xmlns="http://www.w3.org/2000/svg">
<circle cx="150" cy="150" r="150" fill="#E2401B"/>
<path d="M252 85.5363L230.146 73L183.46 99.7789V100.589L150.5 81.6826L117.54 100.589V99.7789L70.8542 73L49 85.5363V155.03V188.778L150.5 247L252 188.778V155.03V85.5363ZM196.728 107.381L230.152 88.2109L238.746 93.1385V132.203L196.735 108.106V107.388L196.728 107.381ZM62.2677 93.1385L70.8608 88.2109L104.285 107.381V108.099L62.2743 132.197V93.1319L62.2677 93.1385ZM177.062 216.545L150.507 231.776L123.951 216.545V191.433L150.507 176.202L177.062 191.433V216.545ZM238.739 181.169L212.091 196.459V165.662L150.507 130.339L88.9224 165.662V196.459L62.2677 181.169V147.513L150.507 96.9L238.746 147.513V181.169H238.739Z" fill="white"/>
</svg>
