<svg width="256" height="256" viewBox="0 0 256 256" fill="none" xmlns="http://www.w3.org/2000/svg">
<path d="M128.257 195.491L225.913 219.152V36.4606L128.257 60.1212V195.491Z" fill="#205B98"/>
<path d="M225.913 36.4606L244.514 45.7697V209.455L225.913 219.152V36.4606Z" fill="#5294CF"/>
<path d="M128.257 195.491L30.6011 219.152V36.4606L128.257 60.1212V195.491Z" fill="#5294CF"/>
<path d="M30.6011 36.4606L12 45.7697V209.455L30.6011 219.152V36.4606Z" fill="#205B98"/>
<path d="M153.058 256L190.261 237.382V18.6182L153.058 0L141.433 121.794L153.058 256Z" fill="#5294CF"/>
<path d="M103.455 256L66.2532 237.382V18.6182L103.455 0L115.081 121.406L103.455 256Z" fill="#205B98"/>
<path d="M153.446 0H103.455V255.612H153.446V0Z" fill="#2D72B8"/>
</svg>
