<svg xmlns="http://www.w3.org/2000/svg" height="800" width="1200" viewBox="-58.9095 -19.33 510.549 115.98"><path d="M69.55 64.14v-8.89h35.62v-8.87H69.55V21.99h44.52v8.87H78.46v6.65h35.61v26.63zm52.3 0h8.91V21.99h-8.91zm165.79 0V21.99h-8.9v29.38l-26.67-29.38h-8.9v42.15h8.9v-29.4l26.71 29.4zm-97-33.26h44.69v-8.89h-44.64zm0 15.52h44.69v-8.89h-44.64zm0 17.74h44.69v-8.89h-44.64zm157.4-33.28h44.69v-8.87h-44.69zm0 15.52h44.69v-8.87h-44.69zm0 17.74h44.69v-8.87h-44.69zm-165 0V37.51h-35.58v-6.65h35.61v-8.87h-44.52v24.39h35.62v8.87h-35.62v8.89zm156.76 0V37.51h-35.58v-6.65h35.61v-8.87h-44.52v24.39h35.62v8.87h-35.62v8.89zM43.24 15.62L0 0v31.25zm0 43.33L0 43.33v31.24zM14.53 37.64l43.23 15.62V22.02zm25.22 33.18l18 6.5v-13z"/></svg>