<?xml version="1.0" encoding="utf-8"?>
<!-- Generator: Adobe Illustrator 22.1.0, SVG Export Plug-In . SVG Version: 6.00 Build 0)  -->
<svg version="1.1" id="Layer_1" xmlns="http://www.w3.org/2000/svg" xmlns:xlink="http://www.w3.org/1999/xlink" x="0px" y="0px"
	 viewBox="0 0 512 512" style="enable-background:new 0 0 512 512;" xml:space="preserve">
<g>
	<path d="M115.4,340.4c-9.4,0-16.9,7.5-16.9,16.9c0,9.4,7.5,16.9,16.9,16.9s16.9-7.5,16.9-16.9C132.3,347.9,124.7,340.4,115.4,340.4
		z M171.6,340.4c-9.4,0-16.9,7.5-16.9,16.9c0,9.4,7.5,16.9,16.9,16.9s16.9-7.5,16.9-16.9C188.5,347.9,181,340.4,171.6,340.4z
		 M227.9,340.4c-9.4,0-16.9,7.5-16.9,16.9c0,9.4,7.5,16.9,16.9,16.9s16.9-7.5,16.9-16.9C244.8,347.9,237.2,340.4,227.9,340.4z
		 M284.1,340.4c-9.4,0-16.9,7.5-16.9,16.9c0,9.4,7.5,16.9,16.9,16.9s16.9-7.5,16.9-16.9C301,347.9,293.5,340.4,284.1,340.4z
		 M451.9,375.1c-10.2-10.2-15.9-24-15.9-38.4v-71.4c0-14.4,5.7-28.2,15.9-38.4l25.8-25.8c4.4-4.4,4.4-11.5,0-15.9l-15.9-15.9
		c-4.4-4.4-11.5-4.4-15.9,0l-25.8,25.8C401.5,213.7,391,239,391,265.4v13.1h-45v-35.8c0-6.1-1.3-12.1-3.7-17.7L287.3,96.4
		C282,84,269.8,76,256.2,76H154.8c-18.6,0-33.8,15.1-33.8,33.8v78.8h-11.3c-18.6,0-33.8,15.1-33.8,33.8v64.1
		c-26.5,12.7-45,39.5-45,70.9c0,43.5,35.2,78.8,78.8,78.8h180c43.5,0,78.8-35.2,78.8-78.8c0-12.2-3-23.5-7.9-33.8H391v13.1
		c0,26.4,10.5,51.6,29.1,70.2l25.8,25.8c4.4,4.4,11.5,4.4,15.9,0l15.9-15.9c4.4-4.4,4.4-11.5,0-15.9L451.9,375.1z M166,121h82.8
		l48.2,112.5H211l-45-45V121z M289.8,391h-180C91.1,391,76,375.9,76,357.3c0-18.6,15.1-33.8,33.8-33.8h180
		c18.6,0,33.8,15.1,33.8,33.8C323.5,375.9,308.4,391,289.8,391z"/>
</g>
</svg>
