<svg width="256" height="256" viewBox="0 0 256 256" fill="none" xmlns="http://www.w3.org/2000/svg">
<path fill-rule="evenodd" clip-rule="evenodd" d="M196.995 201.152C196.403 199.897 196.128 199.254 195.801 198.652C187.129 182.383 178.477 166.094 169.734 149.866C168.846 148.243 168.958 147.273 170.162 145.885C183.956 129.984 197.679 114.021 211.422 98.0688C211.901 97.5176 212.34 96.9155 212.523 95.9255C208.504 96.9563 204.484 97.9769 200.474 99.0282C183.803 103.386 167.132 107.734 150.481 112.143C148.93 112.551 148.226 112.113 147.451 110.837C137.993 95.2417 128.474 79.6771 118.965 64.1125C118.475 63.296 117.945 62.5101 116.904 61.8365C116.139 65.9905 115.353 70.1444 114.609 74.2984L106.681 118.328C106.396 119.92 105.998 121.492 105.865 123.095C105.722 124.605 104.947 125.166 103.549 125.595C83.9089 131.678 64.2892 137.822 44.6593 143.966C43.8023 144.232 42.9555 144.579 42.0373 145.405L90.4386 164.389C89.8469 164.848 89.4591 165.206 89.0306 165.491C78.9912 171.901 68.9314 178.28 58.9328 184.72C57.7289 185.485 56.7801 185.598 55.4333 184.996C43.4452 179.678 31.4061 174.453 19.4078 169.155C14.0106 166.777 9.16431 163.624 5.38934 159.072C-3.15028 148.763 -1.46683 137.047 9.90912 129.882C13.6331 127.534 17.8672 125.789 22.0707 124.432C41.3129 118.247 60.6265 112.286 79.9197 106.295C81.5419 105.795 82.2969 105.08 82.5928 103.356C85.1638 88.6586 87.8369 73.9922 90.51 59.3156C91.9486 51.4771 92.7138 43.4244 96.5806 36.2494C98.0702 33.4733 99.8455 30.7686 101.968 28.4518C109.62 20.0622 120.322 19.7356 128.423 27.7373C131.157 30.4318 133.504 33.6162 135.544 36.872C144.462 51.2322 153.246 65.6843 161.969 80.1466C163.01 81.8714 163.938 82.2082 165.846 81.7081C187.374 76.013 208.922 70.4098 230.46 64.7963C234.908 63.6328 239.397 63.2143 243.958 64.0513C253.895 65.8884 258.241 73.339 254.875 82.8104C253.344 87.1175 250.702 90.7713 247.733 94.2006C232.704 111.653 217.696 129.106 202.617 146.508C201.382 147.937 201.352 148.957 202.209 150.549C211.207 167.288 220.124 184.057 229.082 200.815C231.225 204.826 232.857 208.98 232.908 213.594C233.01 224.075 225.256 232.649 214.697 234.169C208.779 235.027 203.29 233.782 197.76 232.098C184.262 227.974 170.744 223.933 157.215 219.921C155.96 219.544 155.48 219.064 155.266 217.727C153.705 208.337 152.012 198.968 150.369 189.588C150.328 189.333 150.4 189.058 150.44 188.476L196.995 201.152" fill="#E25A1C"/>
</svg>
