<svg width="14" height="17" viewBox="0 0 14 17" fill="none" xmlns="http://www.w3.org/2000/svg">
<path d="M4 0.000976562C2.89543 0.000976562 2 0.896408 2 2.00098V9.9857C2.34377 9.99739 2.68138 10.0652 3 10.1847V2.00098C3 1.44869 3.44772 1.00098 4 1.00098H8V4.50098C8 5.3294 8.67157 6.00098 9.5 6.00098H13V14.001C13 14.2565 12.9041 14.4897 12.7464 14.6665C12.9105 14.9116 13 15.2017 13 15.501C13 15.5832 12.9932 15.6647 12.9801 15.7448C13.5888 15.4019 14 14.7495 14 14.001V5.41519C14 5.01737 13.842 4.63584 13.5607 4.35453L9.64645 0.440316C9.36514 0.159012 8.98361 0.000976562 8.58579 0.000976562H4ZM12.7929 5.00098H9.5C9.22386 5.00098 9 4.77712 9 4.50098V1.20808L12.7929 5.00098Z" fill="black"/>
<path d="M3.20561 11.4365C2.77553 11.1044 2.23584 10.9487 1.69629 10.9997C1.50378 10.9854 1.31008 11.0063 1.12482 11.0618C0.920316 11.1231 0.730337 11.2251 0.566338 11.3618C0.402339 11.4985 0.267715 11.6669 0.170587 11.857C0.0734577 12.0471 0.0158353 12.2549 0.00119259 12.4679L1.52793e-05 12.485V12.5022C1.52793e-05 13.0799 0.364567 13.4375 0.692457 13.6373C0.999405 13.8243 1.35095 13.9233 1.54273 13.9773L1.56411 13.9834L1.62618 14.0008C1.82721 14.0571 2.01365 14.1092 2.16602 14.2022C2.3055 14.2873 2.35802 14.3682 2.35802 14.5022C2.35802 14.7573 2.27369 14.8433 2.20638 14.8892C2.10612 14.9577 1.93409 15.0022 1.70002 15.0022H1.67864L1.65734 15.004C1.35389 15.03 1.05224 14.9368 0.816407 14.744C0.602582 14.5693 0.28759 14.601 0.112851 14.8148C-0.0618875 15.0286 -0.0302017 15.3436 0.183623 15.5184C0.615243 15.8711 1.16576 16.0441 1.72103 16.0021C2.04142 15.9997 2.43821 15.9417 2.77015 15.7152C3.14234 15.4611 3.35802 15.0471 3.35802 14.5022C3.35802 13.9202 3.02803 13.5566 2.68676 13.3485C2.40652 13.1775 2.08063 13.0882 1.89476 13.0373L1.83592 13.021C1.62901 12.9626 1.39583 12.8949 1.21282 12.7833C1.04915 12.6836 1.00504 12.6007 1.00044 12.5177C1.00771 12.446 1.02826 12.3763 1.06109 12.312C1.09678 12.2421 1.14626 12.1802 1.20652 12.13C1.26679 12.0798 1.33661 12.0423 1.41176 12.0198C1.48691 11.9973 1.56584 11.9902 1.6438 11.999L1.70206 12.0056L1.76028 11.9986C2.05767 11.9624 2.35732 12.0448 2.59442 12.2279C2.81299 12.3967 3.12699 12.3564 3.29576 12.1378C3.46453 11.9192 3.42417 11.6052 3.20561 11.4365Z" fill="black"/>
<path d="M6 11.001C5.46957 11.001 4.96086 11.2117 4.58579 11.5868C4.21071 11.9618 4 12.4705 4 13.001V14.001C4 14.5314 4.21071 15.0401 4.58579 15.4152C4.96086 15.7903 5.46957 16.001 6 16.001C6.4562 16.001 6.89633 15.8451 7.24919 15.5629L7.70003 15.901C7.92094 16.0667 8.23434 16.0219 8.40003 15.801C8.56571 15.5801 8.52094 15.2667 8.30003 15.101L7.84919 14.7629C7.94783 14.5235 8 14.2649 8 14.001V13.001C8 12.4705 7.78929 11.9618 7.41421 11.5868C7.03914 11.2117 6.53043 11.001 6 11.001ZM6.30003 13.601C6.07911 13.4353 5.76571 13.4801 5.60003 13.701C5.43434 13.9219 5.47912 14.2353 5.70003 14.401L6.39281 14.9206C6.26982 14.9731 6.13634 15.001 6 15.001C5.73478 15.001 5.48043 14.8956 5.29289 14.7081C5.10536 14.5205 5 14.2662 5 14.001V13.001C5 12.7358 5.10536 12.4814 5.29289 12.2939C5.48043 12.1063 5.73478 12.001 6 12.001C6.26522 12.001 6.51957 12.1063 6.70711 12.2939C6.89464 12.4814 7 12.7358 7 13.001V14.001C7 14.0412 6.99758 14.0811 6.99282 14.1206L6.30003 13.601Z" fill="black"/>
<path d="M10 11.501C10 11.2248 9.77614 11.001 9.5 11.001C9.22386 11.001 9 11.2248 9 11.501V15.501C9 15.7771 9.22386 16.001 9.5 16.001H11.5C11.7761 16.001 12 15.7771 12 15.501C12 15.2248 11.7761 15.001 11.5 15.001H10V11.501Z" fill="black"/>
</svg>
