<svg width="256" height="256" viewBox="0 0 256 256" fill="none" xmlns="http://www.w3.org/2000/svg">
<path d="M199.733 208.754H167.882V198.656C158.238 207.601 145.089 212.505 128.14 212.505C97.4582 212.505 69.1135 187.114 69.1135 149.604C69.1135 112.095 97.4582 86.4149 128.14 86.4149C145.089 86.4149 158.238 91.32 167.882 100.265V44H199.733V208.754ZM167.882 149.316C167.882 127.387 150.641 113.537 133.693 113.537C114.406 113.537 99.7958 127.387 99.7958 149.316C99.7958 171.244 114.406 184.806 133.693 184.806C150.641 184.806 167.882 171.244 167.882 149.316Z" fill="#394951"/>
<path d="M63.1178 179.9C58.1501 181.631 53.1826 182.786 49.3838 182.786C38.8642 182.786 31.8511 176.726 31.8511 162.299V115.556H64.5788V89.8766H31.8511V60.7344H0V115.556V164.897C0 197.501 18.7015 212.216 47.3383 212.216C57.2735 212.216 66.9165 210.197 79.4816 203.56C72.7607 196.924 66.6243 189.133 63.1178 179.9Z" fill="#394951"/>
<path d="M256 190.578C256 201.83 247.236 210.487 234.961 210.487C222.687 210.487 213.923 201.83 213.923 190.578C213.923 179.902 222.687 170.38 234.961 170.38C247.236 170.38 256 179.902 256 190.578Z" fill="#F37440"/>
</svg>
