<?xml version="1.0" encoding="utf-8"?>
<svg version="1.1" id="Layer_1" x="0px" y="0px" viewBox="0 0 300 150" style="enable-background:new 0 0 792 612;" xmlns="http://www.w3.org/2000/svg">
  <polygon points="102.075 51.675 69.835 51.675 69.835 51.675 69.835 51.675 51.692 83.742 33.608 51.675 25 51.675 51.75 98.995 74.225 59.188 102.075 59.188"/>
  <polygon points="102.075 78.252 102.075 70.742 70.065 70.742 70.065 96.915 102.075 96.915 102.075 89.402 77.578 89.402 77.578 78.252"/>
  <rect x="181.285" y="51.675" width="7.51" height="45.24"/>
  <path d="M 178.34 51.675 L 139.975 51.675 L 139.975 51.79 C 142.345 53.697 144.135 56.24 145.175 59.187 L 155.402 59.187 L 155.402 96.915 L 162.912 96.915 L 162.912 59.187 L 178.34 59.187 L 178.34 51.675 Z"/>
  <path d="M 138.127 96.915 L 145.637 96.915 L 134.545 76.577 C 139.282 74.67 142.632 69.99 142.632 64.617 C 142.632 57.452 136.855 51.675 129.692 51.675 L 112.705 51.675 L 107.677 51.675 L 105.195 51.675 L 105.195 96.915 L 112.705 96.915 L 112.705 77.502 L 127.552 77.502 L 138.127 96.915 Z M 112.705 59.187 L 129.692 59.187 C 132.695 59.187 135.122 61.612 135.122 64.617 C 135.122 67.622 132.695 70.047 129.692 70.047 L 112.705 70.047 L 112.705 59.187 Z"/>
  <path d="M 246.805 50 L 227.507 82.125 L 227.507 82.182 C 224.792 86.687 219.88 89.692 214.277 89.692 C 205.725 89.692 198.792 82.76 198.792 74.207 C 198.792 65.657 205.725 58.725 214.277 58.725 C 219.535 58.725 224.157 61.325 226.987 65.367 L 231.032 58.607 C 226.872 54.102 220.92 51.33 214.277 51.33 C 201.622 51.33 191.397 61.555 191.397 74.207 C 191.397 86.862 201.622 97.087 214.277 97.087 C 222.597 97.087 229.877 92.64 233.92 85.995 L 246.805 64.502 L 266.332 97.03 L 275 96.915 L 246.805 50 Z"/>
</svg>