<?xml version="1.0" encoding="utf-8"?>
<!-- Generator: Adobe Illustrator 26.0.3, SVG Export Plug-In . SVG Version: 6.00 Build 0)  -->
<svg version="1.0" id="Layer_1" xmlns="http://www.w3.org/2000/svg" xmlns:xlink="http://www.w3.org/1999/xlink" x="0px" y="0px"
	 viewBox="0 0 853.7 551.8" style="enable-background:new 0 0 853.7 551.8;" xml:space="preserve">
<style type="text/css">
	.st0{fill:#1E1E1C;}
</style>
<polygon class="st0" points="286.2,208.9 191.6,208.9 191.6,208.9 191.6,208.9 138.4,303 85.3,208.9 60,208.9 138.5,347.8 
	204.5,230.9 286.2,230.9 "/>
<polygon class="st0" points="286.2,286.9 286.2,264.9 192.2,264.9 192.2,341.7 286.2,341.7 286.2,319.6 214.3,319.6 214.3,286.9 "/>
<rect x="518.7" y="208.9" class="st0" width="22" height="132.7"/>
<path class="st0" d="M510,208.9H397.5v0.3c7,5.7,12.3,13.2,15.2,21.7h30v110.7h22V230.9h45.1v-22L510,208.9z"/>
<path class="st0" d="M392,341.6h22L381.6,282c19.4-7.8,28.9-29.9,21.1-49.3c-5.8-14.5-19.9-23.9-35.5-23.8h-71.9v132.7h22v-56.9
	h43.7L392,341.6z M317.4,230.9h49.9c8.8,0.2,15.8,7.5,15.5,16.3c-0.2,8.5-7,15.3-15.5,15.5h-49.9V230.9z"/>
<path class="st0" d="M710.9,204L710.9,204l-56.7,94.5l0,0c-13,21.3-40.8,28-62.1,15c-21.3-13-28-40.8-15-62.1
	c13-21.3,40.8-28,62.1-15c5.4,3.3,10,7.7,13.6,12.8l11.9-19.9c-25.3-27.2-67.8-28.7-95-3.4c-27.2,25.3-28.7,67.8-3.4,95
	c25.3,27.2,67.8,28.7,95,3.4c4.6-4.3,8.6-9.2,11.8-14.6l0,0l37.8-63.1l57.3,95.4l25.4-0.3L710.9,204z"/>
</svg>
