<?xml version="1.0" encoding="utf-8"?>
<svg viewBox="0 0 408.412 165.639" xmlns="http://www.w3.org/2000/svg">
  <title>Vertica-OT</title>
  <g id="Outlined" stroke="none" stroke-width="1" fill="none" fill-rule="evenodd" transform="matrix(1, 0, 0, 1, 4.859752, 13.208147)">
    <g id="Logos---Outlined" transform="translate(-970.000000, -645.000000)" fill="#475659" fill-rule="nonzero">
      <path d="M979.5728,750.5824 L982.9136,750.5824 L982.9136,760.912 C983.7328,759.8368 984.68,759.0048 985.7552,758.416 C986.8304,757.8272 988.0976,757.5328 989.5568,757.5328 C990.9648,757.5328 992.2,757.7888 993.2624,758.3008 C994.3248,758.8128 995.208,759.5296 995.912,760.4512 C996.616,761.3728 997.1408,762.4672 997.4864,763.7344 C997.832,765.0016 998.0048,766.4032 998.0048,767.9392 C998.0048,769.5776 997.8,771.056 997.3904,772.3744 C996.9808,773.6928 996.392,774.8128 995.624,775.7344 C994.856,776.656 993.928,777.3664 992.84,777.8656 C991.752,778.3648 990.5296,778.6144 989.1728,778.6144 C988.0208,778.6144 986.9008,778.3776 985.8128,777.904 C984.7248,777.4304 983.7456,776.6176 982.8752,775.4656 L982.8752,778 L979.5728,778 L979.5728,750.5824 Z M982.8752,768.6304 C982.8752,769.9104 983.0224,771.0048 983.3168,771.9136 C983.6112,772.8224 984.0144,773.5712 984.5264,774.16 C985.0384,774.7488 985.6528,775.1776 986.3696,775.4464 C987.0864,775.7152 987.8672,775.8496 988.712,775.8496 C989.5312,775.8496 990.2928,775.7088 990.9968,775.4272 C991.7008,775.1456 992.3088,774.6912 992.8208,774.064 C993.3328,773.4368 993.736,772.624 994.0304,771.6256 C994.3248,770.6272 994.472,769.4112 994.472,767.9776 C994.472,766.5184 994.312,765.296 993.992,764.3104 C993.672,763.3248 993.256,762.5376 992.744,761.9488 C992.232,761.36 991.6496,760.9376 990.9968,760.6816 C990.344,760.4256 989.672,760.2976 988.9808,760.2976 C988.1104,760.2976 987.304,760.4448 986.5616,760.7392 C985.8192,761.0336 985.1728,761.4688 984.6224,762.0448 C984.072,762.6208 983.6432,763.3504 983.336,764.2336 C983.0288,765.1168 982.8752,766.1344 982.8752,767.2864 L982.8752,768.6304 Z M1002.4208,782.224 C1003.1376,782.48 1003.8544,782.608 1004.5712,782.608 C1005.3904,782.608 1006.024,782.3968 1006.472,781.9744 C1006.92,781.552 1007.3616,780.7648 1007.7968,779.6128 L1008.6032,777.5008 L1000.1936,758.1472 L1004.072,758.1472 L1010.3312,773.7376 L1016.0528,758.1472 L1019.7392,758.1472 L1011.0608,779.8816 C1010.7024,780.7776 1010.344,781.5648 1009.9856,782.2432 C1009.6272,782.9216 1009.2304,783.504 1008.7952,783.9904 C1008.36,784.4768 1007.8416,784.8416 1007.24,785.0848 C1006.6384,785.328 1005.9024,785.4496 1005.032,785.4496 C1004.4176,785.4496 1003.8672,785.4112 1003.3808,785.3344 C1002.8944,785.2576 1002.3568,785.1168 1001.768,784.912 L1002.4208,782.224 Z M1071.0462,755.339286 C1076.94884,755.339286 1081.15347,759.678571 1081.15347,767.473214 C1081.15347,772.294643 1079.37459,779.848214 1070.72277,779.848214 C1067.65017,779.848214 1065.22442,778.160714 1064.65842,777.196429 L1064.65842,787 L1057.5429,787 L1057.5429,755.901786 L1064.73927,755.901786 L1064.73927,757.991071 C1065.38614,756.946429 1067.56931,755.339286 1071.0462,755.339286 Z M1042.90759,755.339286 C1052.77228,755.901786 1054.95545,763.294643 1054.95545,767.553571 C1054.95545,773.5 1051.39769,779.928571 1042.01815,779.928571 C1035.22607,779.928571 1029,776.232143 1029,767.553571 C1029,760.401786 1033.68977,754.857143 1042.90759,755.339286 Z M1104.60231,758.392857 C1107.75578,761.6875 1107.91749,766.267857 1107.99835,768.919643 L1090.61386,768.919643 C1090.61386,771.8125 1092.31188,774.785714 1096.19307,774.785714 C1100.07426,774.785714 1101.44884,772.294643 1102.33828,770.6875 L1107.67492,773.258929 C1107.02805,774.625 1104.92574,779.928571 1095.62706,779.928571 C1088.43069,779.928571 1083.41749,775.669643 1083.41749,767.955357 C1083.41749,762.330357 1086.32838,755.339286 1095.86964,755.339286 C1097.32508,755.339286 1101.44884,755.178571 1104.60231,758.392857 Z M1170.17822,758.3125 C1173.33168,761.607143 1173.4934,766.1875 1173.57426,768.839286 L1156.27063,768.839286 C1156.18977,771.732143 1157.72607,774.705357 1161.5264,774.705357 C1165.40759,774.705357 1166.5396,772.214286 1167.42904,770.607143 L1172.84653,773.258929 L1171.47195,775.267857 C1170.17822,777.035714 1167.83333,779.848214 1160.9604,779.848214 C1153.76403,779.848214 1148.9934,775.589286 1148.9934,767.875 C1148.9934,762.25 1151.90429,755.258929 1161.44554,755.258929 L1161.67122,755.258217 C1163.29153,755.251276 1167.17492,755.251276 1170.17822,758.3125 Z M1206.88779,751 L1206.88779,755.982143 L1211.57756,755.982143 L1211.57756,760.803571 L1206.88779,760.803571 L1206.88779,771.169643 C1206.80693,772.616071 1206.80693,773.821429 1208.74752,773.821429 L1211.25413,773.741071 L1211.25413,779.125 C1209.79868,779.366071 1208.82838,779.526786 1207.53465,779.526786 C1205.02805,779.526786 1202.35974,779.366071 1200.82343,777.196429 C1199.85314,775.830357 1199.77228,774.142857 1199.77228,771.892857 L1199.77228,760.723214 L1195.40594,760.723214 L1198.64026,755.901786 L1199.77228,755.901786 L1199.77228,751 L1206.88779,751 Z M1143.17162,751 L1143.17162,755.901786 L1150.5297,755.901786 L1147.29538,760.723214 L1143.09076,760.723214 L1143.09076,771.169643 C1143.0099,772.616071 1143.0099,773.821429 1144.9505,773.821429 L1147.4571,773.741071 L1147.4571,779.125 C1145.92079,779.366071 1145.03135,779.526786 1143.73762,779.526786 C1141.31188,779.526786 1138.56271,779.366071 1137.0264,777.196429 C1136.05611,775.830357 1135.97525,774.142857 1135.97525,771.892857 L1135.97525,751 L1143.17162,751 Z M1125.14026,755.339286 C1126.59571,755.339286 1128.21287,755.580357 1129.42574,756.223214 C1131.93234,757.508929 1132.66007,759.598214 1132.66007,763.294643 L1132.66007,779.366071 L1125.4637,779.366071 L1125.4637,766.107143 C1125.4637,764.017857 1125.38284,763.214286 1125.14026,762.571429 C1124.57426,761.285714 1123.36139,760.803571 1121.90594,760.803571 C1118.50302,760.803571 1118.21341,763.224981 1118.18876,765.914004 L1118.18676,766.290737 L1118.18647,779.366071 L1111.07096,779.366071 L1111.07096,755.901786 L1118.26733,755.901786 L1118.26733,757.991071 C1118.99505,757.267857 1119.39934,756.705357 1120.69307,756.142857 C1121.82508,755.660714 1123.36139,755.339286 1125.14026,755.339286 Z M1180.28548,755.982143 L1184.08581,761.205357 L1187.56271,755.982143 L1195.64851,755.982143 L1188.29043,767.071429 L1197.18482,779.366071 L1189.01815,779.366071 L1184.32838,772.857143 L1180.0429,779.366071 L1171.9571,779.366071 L1180.20462,767.071429 L1172.19967,755.982143 L1180.28548,755.982143 Z M1041.533,760.883929 C1039.59241,760.964286 1038.37954,761.607143 1037.40924,763.053571 C1036.5198,764.339286 1036.19637,765.946429 1036.19637,767.553571 C1036.19637,771.169643 1038.05611,774.464286 1042.01815,774.464286 C1045.89934,774.464286 1047.75908,771.410714 1047.75908,767.875 C1047.75908,765.303571 1047.11221,763.375 1045.73762,762.169643 C1044.28218,760.883929 1042.58416,760.803571 1041.533,760.883929 Z M1069.59076,760.723214 C1068.29703,760.723214 1066.92244,761.205357 1065.95215,762.491071 C1064.90099,763.696429 1064.4967,765.544643 1064.4967,767.633929 C1064.4967,770.366071 1065.30528,772.053571 1066.19472,773.017857 C1067.0033,773.901786 1068.21617,774.464286 1069.42904,774.464286 C1072.90594,774.464286 1074.44224,770.928571 1074.44224,767.473214 C1074.44224,764.580357 1073.55281,761.526786 1070.64191,760.883929 C1070.23762,760.803571 1069.91419,760.723214 1069.59076,760.723214 Z M1095.70792,760 C1094.0099,760 1092.79703,760.803571 1092.06931,761.526786 C1091.09901,762.571429 1090.85644,763.616071 1090.61386,764.660714 L1100.55941,764.580357 C1100.39769,763.616071 1100.23597,762.25 1099.18482,761.285714 C1098.29538,760.401786 1096.92079,760 1095.70792,760 Z M1161.36469,760 C1159.66667,760 1158.4538,760.803571 1157.72607,761.526786 C1156.75578,762.571429 1156.5132,763.616071 1156.27063,764.660714 L1166.21617,764.580357 C1166.05446,763.616071 1165.89274,762.25 1164.84158,761.285714 C1163.95215,760.401786 1162.57756,760 1161.36469,760 Z M1221.28053,755.982143 L1222.4934,759.839286 L1223.70627,755.982143 L1224.91914,755.982143 L1224.91914,760.803571 L1224.11056,760.803571 L1224.11056,757.830357 L1224.19142,756.866071 L1223.94884,757.669643 L1222.89769,760.883929 L1222.08911,760.883929 L1221.03795,757.669643 L1220.79538,756.866071 L1220.87624,757.830357 L1220.87624,760.803571 L1220.06766,760.803571 L1220.06766,755.982143 L1221.28053,755.982143 Z M1219.66337,755.901786 L1219.66337,756.625 L1218.0462,756.625 L1218.0462,760.803571 L1217.23762,760.803571 L1217.23762,756.625 L1215.62046,756.625 L1215.62046,755.901786 L1219.66337,755.901786 Z M983.707685,647.665636 L1012.49328,698.718315 L1041.37714,647.665636 L1092.69771,647.665636 L1092.69771,659.626331 L1048.37018,659.626331 L1012.58608,723 L970,647.665636 L983.707685,647.665636 Z M1092.70044,678.018834 L1092.70044,689.979529 L1053.70641,689.979529 L1053.70641,707.726776 L1092.70044,707.726776 L1092.70044,719.687472 L1041.74562,719.687472 L1041.74562,678.018834 L1092.70044,678.018834 Z M1218.81169,719.684742 L1230.76702,719.684742 L1230.76702,647.663998 L1218.81169,647.663998 L1218.81169,719.684742 Z M1136.67093,647.668365 C1148.0749,647.668365 1157.27341,656.8668 1157.27341,668.270676 C1157.27341,676.824948 1151.93991,684.276499 1144.3955,687.31171 L1162.05554,719.689109 L1150.10021,719.689109 L1133.26448,688.780184 L1109.62678,688.780184 L1109.62678,719.689109 L1097.67145,719.689109 L1097.67145,647.668365 Z M1214.11799,647.666181 L1214.11799,659.621418 L1189.55771,659.621418 L1189.55771,719.686926 L1177.60238,719.686926 L1177.60238,659.621418 L1161.31802,659.621418 C1159.66393,654.932126 1156.8143,650.886998 1153.04209,647.851788 L1153.04209,647.666181 L1214.11799,647.666181 Z M1136.67093,659.623601 L1109.62678,659.623601 L1109.62678,676.917751 L1136.67093,676.917751 C1141.45307,676.917751 1145.31808,673.05277 1145.31808,668.270676 C1145.31808,663.488582 1141.45307,659.623601 1136.67093,659.623601 Z M1323.11566,644.998908 L1323.11566,644.998908 L1292.3921,696.138932 L1292.3921,696.231735 C1288.06853,703.404877 1280.25116,708.19243 1271.33107,708.19243 C1257.71618,708.19243 1246.67798,697.154308 1246.67798,683.539532 C1246.67798,669.924757 1257.71618,658.886635 1271.33107,658.886635 C1279.6998,658.886635 1287.0586,663.024566 1291.56778,669.4662 L1298.00401,658.706487 C1291.38217,651.527886 1281.90525,647.117005 1271.33107,647.117005 C1251.18716,647.117005 1234.9028,663.395778 1234.9028,683.539532 C1234.9028,703.683286 1251.18716,719.96206 1271.33107,719.96206 C1284.57473,719.96206 1296.1643,712.881721 1302.60599,702.302156 L1323.11566,668.08507 L1354.20497,719.869257 L1368,719.689109 L1323.11566,644.998908 Z" id="Vertica-OT"/>
    </g>
  </g>
</svg>