<svg width="391" height="420" viewBox="0 0 391 420" fill="none" xmlns="http://www.w3.org/2000/svg">
<g clip-path="url(#clip0_4621_41562)">
<path d="M166.8 298.837H170.003V297.673H166.8V295.735H170.572V294.545H165.457V301.913H170.675V300.698H166.8V298.837Z" fill="black"/>
<path d="M175.738 297.363C175.299 297.312 174.007 297.286 174.007 296.536C174.007 296.097 174.395 295.579 175.609 295.579C176.358 295.579 177.236 295.838 177.986 296.329L178.373 295.243C177.521 294.623 176.616 294.313 175.609 294.313C174.498 294.313 172.69 294.726 172.69 296.588C172.69 298.294 174.111 298.527 175.351 298.682C176.384 298.811 177.236 298.966 177.236 299.638C177.236 300.465 176.177 300.724 175.454 300.724C174.86 300.724 174.162 300.388 173.207 299.819L172.793 301.008C173.827 301.706 174.498 302.016 175.583 302.016C176.771 302.016 178.606 301.525 178.606 299.664C178.606 297.803 176.952 297.492 175.764 297.363H175.738Z" fill="black"/>
<path d="M180.517 295.735H183.023V301.913H184.392V295.735H186.898V294.545H180.517V295.735Z" fill="black"/>
<path d="M188.344 300.439C187.957 300.439 187.621 300.776 187.621 301.215C187.621 301.629 187.931 301.991 188.344 301.991C188.758 301.991 189.068 301.629 189.068 301.215C189.068 300.776 188.758 300.439 188.344 300.439Z" fill="black"/>
<path d="M197.851 300C198.187 299.793 198.6 299.638 198.936 299.483C200.098 298.888 201.261 298.294 201.261 296.872C201.261 295.037 199.659 294.545 198.522 294.545C197.515 294.545 196.637 294.856 195.732 295.502L196.12 296.588C196.921 296.071 197.773 295.786 198.548 295.786C199.737 295.786 200.047 296.252 200.047 296.898C200.047 297.467 199.478 297.854 198.497 298.397C198.264 298.527 198.006 298.63 197.747 298.759C196.792 299.224 196.12 299.741 195.707 300.956L195.836 301.939H201.235V300.75H197.205C197.282 300.491 197.541 300.233 197.877 300.026L197.851 300Z" fill="black"/>
<path d="M206.711 294.545C205.006 294.545 203.301 295.786 203.301 298.371C203.301 300.724 205.032 302.016 206.711 302.016C208.39 302.016 210.121 300.75 210.121 298.371C210.121 295.786 208.39 294.545 206.711 294.545ZM206.711 300.776C205.445 300.776 204.619 299.793 204.619 298.371C204.619 296.872 205.445 295.786 206.711 295.786C207.977 295.786 208.804 296.898 208.804 298.371C208.804 299.716 207.977 300.776 206.711 300.776Z" fill="black"/>
<path d="M214.28 300C214.616 299.793 215.029 299.638 215.365 299.483C216.528 298.888 217.69 298.294 217.69 296.872C217.69 295.037 216.088 294.545 214.952 294.545C213.944 294.545 213.066 294.856 212.162 295.502L212.549 296.588C213.35 296.071 214.203 295.786 214.978 295.786C216.166 295.786 216.476 296.252 216.476 296.898C216.476 297.467 215.908 297.854 214.926 298.397C214.694 298.527 214.435 298.63 214.177 298.759C213.221 299.224 212.549 299.741 212.136 300.956L212.265 301.939H217.664V300.75H213.634C213.712 300.491 213.97 300.233 214.306 300.026L214.28 300Z" fill="black"/>
<path d="M222.056 300C222.392 299.793 222.805 299.638 223.141 299.483C224.303 298.888 225.466 298.294 225.466 296.872C225.466 295.037 223.864 294.545 222.727 294.545C221.72 294.545 220.842 294.856 219.938 295.502L220.325 296.588C221.126 296.071 221.978 295.786 222.753 295.786C223.942 295.786 224.252 296.252 224.252 296.898C224.252 297.467 223.683 297.854 222.702 298.397C222.469 298.527 222.211 298.63 221.952 298.759C220.997 299.224 220.325 299.741 219.912 300.956L220.041 301.939H225.44V300.75H221.41C221.487 300.491 221.746 300.233 222.082 300.026L222.056 300Z" fill="black"/>
<path d="M135.465 256.7C134.768 258.483 134.432 260.422 134.432 262.568C134.432 264.714 134.794 266.678 135.491 268.462C136.189 270.246 137.17 271.771 138.436 273.038C139.702 274.304 141.2 275.287 142.957 275.985C144.713 276.682 146.651 277.044 148.769 277.044C150.319 277.044 151.791 276.838 153.186 276.476C154.581 276.088 155.873 275.519 157.035 274.795C158.198 274.072 159.231 273.141 160.11 272.029C160.988 270.918 161.659 269.677 162.176 268.229C162.538 267.221 162.77 266.109 162.899 264.92C163.029 263.731 163.08 262.413 163.08 260.965H148.976V266.471H154.814C154.685 267.273 154.452 267.945 154.116 268.514C153.781 269.082 153.341 269.522 152.825 269.884C152.308 270.246 151.714 270.478 151.068 270.633C150.422 270.788 149.751 270.866 149.027 270.866C147.839 270.866 146.806 270.659 145.902 270.271C144.998 269.884 144.248 269.315 143.654 268.591C143.06 267.867 142.595 267.014 142.285 266.006C141.975 265.024 141.82 263.938 141.82 262.775C141.82 261.482 142.001 260.319 142.337 259.285C142.698 258.251 143.163 257.346 143.783 256.622C144.403 255.872 145.153 255.33 146.005 254.916C146.883 254.528 147.839 254.321 148.898 254.321C150.19 254.321 151.327 254.658 152.334 255.304C153.341 255.95 154.142 257.036 154.788 258.535L161.53 255.743C160.265 253.158 158.56 251.245 156.415 250.004C154.271 248.763 151.766 248.143 148.924 248.143C146.728 248.143 144.739 248.505 142.931 249.203C141.149 249.901 139.624 250.883 138.333 252.15C137.067 253.417 136.085 254.916 135.388 256.7H135.465Z" fill="black"/>
<path d="M185.219 263.783C185.219 264.584 185.193 265.386 185.115 266.239C185.064 267.066 184.857 267.841 184.547 268.514C184.237 269.186 183.746 269.729 183.126 270.168C182.48 270.582 181.576 270.814 180.388 270.814C179.2 270.814 178.296 270.608 177.624 270.168C176.978 269.754 176.487 269.186 176.203 268.514C175.893 267.841 175.712 267.092 175.661 266.239C175.609 265.411 175.557 264.584 175.557 263.783V248.919H168.453V264.765C168.453 269.031 169.435 272.133 171.398 274.097C173.362 276.062 176.358 277.044 180.388 277.044C184.418 277.044 187.414 276.062 189.352 274.097C191.289 272.133 192.271 269.031 192.271 264.765V248.919H185.193V263.783H185.219Z" fill="black"/>
<path d="M206.04 248.919H198.936V276.269H206.04V248.919Z" fill="black"/>
<path d="M219.783 248.919H212.679V276.269H228.281V270.246H219.783V248.919Z" fill="black"/>
<path d="M252.9 253.029C251.686 251.788 250.265 250.78 248.612 250.03C246.984 249.28 245.227 248.893 243.368 248.893H232.854V276.243H243.368C245.253 276.243 247.01 275.881 248.637 275.131C250.265 274.382 251.686 273.374 252.926 272.107C254.14 270.84 255.095 269.392 255.793 267.738C256.49 266.084 256.826 264.352 256.826 262.568C256.826 260.784 256.465 259.026 255.767 257.372C255.07 255.717 254.114 254.27 252.874 253.029H252.9ZM248.87 265.644C248.508 266.575 248.017 267.376 247.346 268.048C246.674 268.72 245.873 269.263 244.892 269.651C243.936 270.039 242.825 270.22 241.585 270.22H239.958V254.916H241.585C242.799 254.916 243.884 255.123 244.84 255.485C245.796 255.847 246.622 256.415 247.294 257.087C247.966 257.76 248.482 258.587 248.844 259.517C249.206 260.448 249.387 261.482 249.387 262.568C249.387 263.654 249.206 264.713 248.87 265.644V265.644Z" fill="black"/>
<path d="M175.17 139.181C175.17 137.243 173.93 135.485 171.941 135.485H168.97V142.878H171.631C173.801 142.878 175.17 141.275 175.17 139.181ZM170.313 141.663V136.7H171.45C173.181 136.7 173.852 137.837 173.852 139.207C173.852 140.577 172.897 141.663 171.424 141.637H170.313V141.663Z" fill="black"/>
<path d="M178.502 141.224H181.421L182.041 142.878H183.385L180.595 135.485H179.484L176.591 142.878H177.882L178.502 141.224V141.224ZM179.975 137.268L181.008 140.034H178.941L179.975 137.268V137.268Z" fill="black"/>
<path d="M186.769 142.878H188.112V136.7H190.618V135.485H184.237V136.7H186.743L186.769 142.878Z" fill="black"/>
<path d="M193.02 141.224H195.939L196.559 142.878H197.902L195.113 135.485H194.002L191.108 142.878H192.4L193.02 141.224V141.224ZM194.493 137.268L195.526 140.034H193.459L194.493 137.268V137.268Z" fill="black"/>
<path d="M201.338 139.931H204.309V142.878H205.678V135.485H204.309V138.639H201.338V135.485H199.969V142.878H201.338V139.931Z" fill="black"/>
<path d="M211.464 142.982C213.376 142.982 214.539 141.482 214.539 139.078V135.485H213.195V139.156C213.195 140.862 212.446 141.611 211.439 141.611C210.379 141.611 209.63 141.069 209.63 139.207V135.485H208.313V139.181C208.313 141.482 209.501 142.982 211.439 142.982H211.464Z" fill="black"/>
<path d="M222.702 140.836C222.702 140.034 222.159 139.259 221.617 139.13C222.133 138.871 222.624 138.354 222.624 137.501C222.624 136.389 221.746 135.459 220.351 135.459H217.122V142.852H220.428C221.617 142.852 222.676 142.077 222.676 140.81L222.702 140.836ZM218.439 136.648H220.247C220.997 136.648 221.384 137.113 221.384 137.63C221.384 138.199 220.893 138.639 220.144 138.639H218.439V136.648ZM218.439 141.715V139.724H220.196C220.945 139.724 221.332 140.19 221.332 140.758C221.332 141.327 220.867 141.715 220.118 141.715H218.413H218.439Z" fill="black"/>
<path d="M161.272 187.91C162.899 187.161 164.32 186.153 165.56 184.886C166.774 183.619 167.73 182.171 168.428 180.517C169.125 178.863 169.461 177.131 169.461 175.347C169.461 173.563 169.099 171.805 168.402 170.151C167.704 168.496 166.748 167.049 165.509 165.808C164.294 164.567 162.874 163.559 161.22 162.809C159.593 162.059 157.836 161.672 155.976 161.672H145.463V189.022H155.976C157.862 189.022 159.619 188.66 161.246 187.91H161.272ZM152.592 182.999V167.695H154.22C155.434 167.695 156.519 167.902 157.475 168.264C158.43 168.651 159.257 169.194 159.929 169.866C160.6 170.539 161.117 171.366 161.479 172.296C161.84 173.227 162.021 174.261 162.021 175.347C162.021 176.433 161.84 177.492 161.504 178.423C161.143 179.354 160.652 180.155 159.98 180.827C159.309 181.499 158.508 182.042 157.526 182.43C156.57 182.818 155.46 182.999 154.22 182.999H152.592V182.999Z" fill="black"/>
<path d="M181.499 161.672L171.088 189.022H178.657L180.285 184.265H190.437L192.064 189.022H199.633L189.223 161.672H181.473H181.499ZM182.196 178.863L185.399 169.763L188.577 178.863H182.196Z" fill="black"/>
<path d="M205.755 189.022H212.859V167.695H218.698V161.672H199.917V167.695H205.755V189.022Z" fill="black"/>
<path d="M226.447 189.022L228.075 184.265H238.227L239.854 189.022H247.423L237.013 161.672H229.263L218.853 189.022H226.421H226.447ZM233.164 169.763L236.341 178.863H229.96L233.164 169.763Z" fill="black"/>
<path d="M58.2522 220.353C59.8796 218.751 60.7063 216.501 60.7063 213.606C60.7063 210.711 59.8796 208.462 58.2522 206.859C56.6247 205.256 54.274 204.455 51.1999 204.455H39.8853V231.805H46.9892V222.732H51.1999C54.274 222.732 56.6247 221.93 58.2522 220.327V220.353ZM46.9892 217.019V210.194H49.34C51.9491 210.194 53.2665 211.331 53.2665 213.606C53.2665 215.881 51.9749 217.019 49.34 217.019H46.9892V217.019Z" fill="black"/>
<path d="M72.4859 221.31L79.254 231.831H88.0887L79.4865 220.612C81.4497 220.146 82.9222 219.268 83.9296 217.975C84.9371 216.682 85.4279 215.002 85.4279 212.908C85.4279 211.745 85.2471 210.659 84.8596 209.651C84.4721 208.643 83.9296 207.738 83.1805 206.962C82.4314 206.187 81.5014 205.567 80.3648 205.127C79.2281 204.688 77.9107 204.455 76.3866 204.455H65.3303V231.805H72.4342V221.284L72.4859 221.31ZM72.4859 209.961H73.8292C75.2241 209.961 76.3091 210.246 77.0582 210.84C77.8073 211.409 78.169 212.262 78.169 213.348C78.169 214.433 77.7815 215.261 77.0582 215.855C76.3091 216.424 75.2241 216.734 73.8292 216.734H72.4859V209.987V209.961Z" fill="black"/>
<path d="M98.5766 227.075H108.729L110.356 231.831H117.925L107.515 204.481H99.7649L89.3545 231.831H96.9234L98.5508 227.075H98.5766ZM103.64 212.572L106.817 221.672H100.437L103.64 212.572Z" fill="black"/>
<path d="M124.099 228.496C125.417 229.789 126.941 230.797 128.671 231.521C130.402 232.245 132.21 232.581 134.096 232.581C135.026 232.581 135.956 232.477 136.886 232.296C137.816 232.115 138.849 231.831 139.934 231.443L140.658 231.185V222.757C138.849 224.696 136.809 225.653 134.535 225.653C133.502 225.653 132.52 225.446 131.642 225.084C130.738 224.696 129.963 224.153 129.291 223.481C128.62 222.809 128.103 222.008 127.741 221.077C127.38 220.146 127.173 219.164 127.173 218.053C127.173 216.941 127.354 216.01 127.741 215.08C128.129 214.149 128.62 213.374 129.291 212.701C129.937 212.029 130.712 211.512 131.616 211.125C132.52 210.737 133.502 210.556 134.561 210.556C136.989 210.556 139.004 211.564 140.658 213.58V205.101C139.495 204.61 138.384 204.248 137.351 204.041C136.292 203.809 135.233 203.705 134.148 203.705C132.236 203.705 130.402 204.067 128.671 204.765C126.941 205.489 125.391 206.471 124.099 207.738C122.782 209.005 121.723 210.53 120.948 212.262C120.173 214.02 119.759 215.933 119.759 218.053C119.759 220.172 120.147 222.085 120.948 223.869C121.748 225.653 122.807 227.178 124.125 228.47L124.099 228.496Z" fill="black"/>
<path d="M149.312 231.831H156.416V210.504H162.254V204.481H143.473V210.504H149.312V231.831Z" fill="black"/>
<path d="M173.413 204.481H166.309V231.831H173.413V204.481Z" fill="black"/>
<path d="M196.249 204.481H177.469V210.504H183.307V231.831H190.411V210.504H196.249V204.481Z" fill="black"/>
<path d="M207.409 204.481H200.305V231.831H207.409V204.481Z" fill="black"/>
<path d="M221.823 231.469C223.683 232.219 225.698 232.581 227.92 232.581C230.141 232.581 232.156 232.219 234.016 231.469C235.876 230.719 237.478 229.711 238.821 228.393C240.164 227.1 241.198 225.549 241.947 223.817C242.696 222.059 243.083 220.172 243.083 218.13C243.083 216.088 242.696 214.201 241.947 212.443C241.198 210.685 240.164 209.16 238.821 207.841C237.478 206.549 235.876 205.515 234.016 204.765C232.156 204.015 230.115 203.654 227.92 203.654C225.724 203.654 223.657 204.015 221.823 204.765C219.989 205.515 218.388 206.523 217.044 207.841C215.727 209.16 214.668 210.685 213.919 212.443C213.169 214.201 212.782 216.088 212.782 218.13C212.782 220.172 213.169 222.059 213.919 223.817C214.668 225.575 215.701 227.1 217.044 228.393C218.362 229.711 219.963 230.719 221.823 231.469ZM220.867 215.131C221.281 214.201 221.823 213.425 222.547 212.727C223.244 212.055 224.071 211.512 225.001 211.15C225.931 210.763 226.912 210.582 227.946 210.582C228.979 210.582 229.96 210.763 230.89 211.15C231.82 211.512 232.647 212.055 233.345 212.727C234.042 213.399 234.61 214.201 235.024 215.131C235.437 216.062 235.644 217.044 235.644 218.156C235.644 219.268 235.437 220.25 235.024 221.18C234.61 222.111 234.042 222.887 233.345 223.585C232.647 224.283 231.82 224.8 230.89 225.162C229.96 225.549 228.979 225.73 227.946 225.73C226.912 225.73 225.931 225.549 225.001 225.162C224.071 224.8 223.244 224.257 222.547 223.585C221.849 222.913 221.281 222.111 220.867 221.18C220.454 220.25 220.247 219.268 220.247 218.156C220.247 217.044 220.454 216.062 220.867 215.131Z" fill="black"/>
<path d="M255.586 215.106L268.709 231.831H275.787V204.481H268.709V221.181L255.586 204.481H248.482V231.831H255.586V215.106Z" fill="black"/>
<path d="M297.951 225.808H289.504V221.077H297.487V215.054H289.504V210.504H297.951V204.481H282.4V231.831H297.951V225.808Z" fill="black"/>
<path d="M311.074 221.31L317.842 231.831H326.677L318.075 220.612C320.038 220.146 321.511 219.268 322.518 217.975C323.526 216.682 324.016 215.002 324.016 212.908C324.016 211.745 323.836 210.659 323.448 209.651C323.061 208.643 322.518 207.738 321.769 206.962C321.02 206.187 320.09 205.567 318.953 205.127C317.817 204.688 316.499 204.455 314.975 204.455H303.919V231.805H311.023V221.284L311.074 221.31ZM311.074 209.961H312.418C313.813 209.961 314.898 210.246 315.647 210.84C316.396 211.409 316.758 212.262 316.758 213.348C316.758 214.433 316.37 215.261 315.647 215.855C314.898 216.424 313.813 216.734 312.418 216.734H311.074V209.987V209.961Z" fill="black"/>
<path d="M338.638 226.558C337.63 226.558 336.597 226.325 335.564 225.86C334.53 225.394 333.471 224.696 332.412 223.766L329.364 229.505C332.309 231.547 335.512 232.581 338.973 232.581C340.653 232.581 342.125 232.348 343.442 231.909C344.76 231.469 345.871 230.823 346.775 230.022C347.679 229.22 348.376 228.238 348.841 227.1C349.306 225.963 349.539 224.696 349.539 223.3C349.539 221.232 348.996 219.526 347.937 218.234C346.852 216.941 345.173 215.907 342.848 215.131C342.28 214.95 341.686 214.77 341.092 214.589C340.498 214.408 339.955 214.227 339.49 213.994C339.025 213.761 338.638 213.503 338.353 213.167C338.069 212.857 337.914 212.443 337.914 211.978C337.914 211.28 338.198 210.711 338.793 210.271C339.361 209.832 340.11 209.625 341.04 209.625C341.763 209.625 342.512 209.78 343.287 210.09C344.062 210.401 344.837 210.866 345.612 211.486L348.428 205.929C347.085 205.205 345.664 204.662 344.192 204.274C342.719 203.912 341.298 203.705 339.955 203.705C338.508 203.705 337.191 203.912 336.029 204.352C334.866 204.791 333.859 205.411 333.058 206.187C332.257 206.963 331.611 207.919 331.172 209.005C330.733 210.116 330.5 211.331 330.5 212.676C330.5 214.02 330.707 215.157 331.146 216.036C331.56 216.915 332.128 217.639 332.825 218.234C333.523 218.828 334.298 219.268 335.176 219.629C336.054 219.991 336.959 220.302 337.888 220.586C338.663 220.844 339.309 221.103 339.878 221.31C340.42 221.517 340.859 221.775 341.195 222.008C341.531 222.266 341.763 222.551 341.918 222.835C342.073 223.119 342.125 223.481 342.125 223.895C342.125 224.567 341.841 225.187 341.273 225.704C340.704 226.247 339.852 226.506 338.689 226.506L338.638 226.558Z" fill="black"/>
<path d="M195.655 399.268C294.697 399.112 375.242 318.328 375.242 219.242C375.242 120.155 294.697 39.3968 195.655 39.2159V40.5084H195.5L195.448 39.19C96.4067 39.3451 15.8095 120.103 15.8095 219.216C15.8095 318.328 96.3809 399.087 195.397 399.242H195.423H195.552V399.216L195.655 399.268ZM18.3669 220.534H33.7114V217.949H18.3669C18.961 134.58 77.394 64.679 155.408 46.48C135.026 53.8733 115.704 66.7729 98.8866 84.5584C72.4859 112.477 54.429 149.496 48.0225 188.815L50.5799 189.229C62.0237 118.94 109.865 61.5769 165.689 46.0146C120.818 66.411 86.5129 129.591 77.6524 188.841L80.2098 189.229C89.5353 126.928 127.173 60.181 175.377 45.0065C164.088 51.4433 151.172 64.3688 138.1 88.7721C123.221 116.536 111.648 153.942 107.153 188.867L109.71 189.203C117.925 125.325 148.459 57.2598 183.617 44.1017C164.889 59.2245 150.035 106.945 142.233 148.798L144.765 149.263C153.858 100.534 170.985 51.3141 190.101 43.0418C181.628 54.8298 175.402 91.9517 171.424 123.929L173.982 124.24C180.931 68.0655 188.835 45.3167 194.363 42.1887V124.084H196.947V42.3955C202.449 46.1956 210.199 69.1512 217.018 124.24L219.576 123.929C215.623 92.0551 209.398 54.9074 200.925 43.0676C220.041 51.3658 237.142 100.586 246.235 149.289L248.767 148.824C240.965 106.997 226.111 59.2245 207.383 44.1275C242.567 57.2598 273.075 125.351 281.29 189.229L283.847 188.893C279.352 153.994 267.805 116.588 252.926 88.8496C239.828 64.3947 226.912 51.495 215.623 45.0323C263.827 60.181 301.491 126.928 310.79 189.229L313.348 188.841C304.487 129.617 270.182 66.411 225.311 46.0146C281.135 61.6028 328.976 118.966 340.42 189.229L342.977 188.815C336.571 149.496 318.514 112.477 292.139 84.5584C275.322 66.7729 255.974 53.8475 235.592 46.4541C313.606 64.679 372.039 134.58 372.633 217.923H357.289V220.508H372.633C372.039 303.412 314.226 373.029 236.832 391.693C293.663 370.547 334.065 308.195 343.287 247.626L340.73 247.238C331.043 310.961 286.404 376.674 224.562 392.857C270.44 372.745 305.159 308.143 313.658 247.626L311.1 247.264C300.07 325.929 256.749 379.104 215.985 393.012C249.257 373.081 276.717 308.479 284.131 247.6L281.574 247.29C273.695 312.15 243.083 381.353 207.331 394.433C226.163 379.337 241.068 331.254 248.896 289.143L246.364 288.677C237.297 337.613 220.144 387.092 200.951 395.416C209.372 383.654 215.598 346.764 219.524 315.097L216.967 314.787C210.173 369.461 202.423 392.288 196.972 396.088V314.968H194.389V396.295C188.887 393.193 181.008 370.573 174.085 314.787L171.527 315.097C175.48 346.842 181.68 383.705 190.127 395.442C170.933 387.169 153.781 337.691 144.688 288.703L142.156 289.168C149.957 331.305 164.863 379.362 183.72 394.459C147.968 381.379 117.357 312.202 109.478 247.316L106.921 247.626C114.309 308.531 141.769 373.106 175.041 393.037C134.277 379.13 90.9819 325.98 79.9514 247.29L77.394 247.652C85.8929 308.195 120.612 372.796 166.49 392.882C104.621 376.7 60.0088 310.987 50.3216 247.264L47.7642 247.652C56.9864 308.221 97.3625 370.547 154.194 391.719C76.7482 373.055 18.961 303.438 18.3669 220.534Z" fill="black"/>
<path d="M220.067 25.0237L219.757 27.583C315.905 39.6553 388.417 121.991 388.417 219.112C388.417 257.734 377.05 295.037 355.558 326.911L357.702 328.358C379.479 296.045 391 258.251 391 219.112C391 120.698 317.533 37.2512 220.067 24.9979V25.0237Z" fill="black"/>
<path d="M172.845 27.402L172.535 24.8427C74.165 36.3464 0 119.871 0 219.138C0 258.354 11.5471 296.174 33.3755 328.514L35.5196 327.066C13.9754 295.14 2.58325 257.811 2.58325 219.138C2.58325 121.189 75.7666 38.7505 172.845 27.402Z" fill="black"/>
<path d="M47.5317 343.636C48.1258 344.334 48.565 345.342 48.6942 346.428L49.9858 345.963C49.8825 344.67 49.4691 343.61 48.6942 342.68C47.8159 341.646 46.0334 340.302 44.3285 341.749C42.7527 343.068 43.6568 344.593 44.4835 345.859C45.1551 346.894 45.6718 347.798 45.0776 348.315C44.3285 348.962 43.2435 348.186 42.6752 347.514C42.2102 346.971 41.9777 346.066 41.7711 344.722L40.3503 345.265C40.5053 346.764 40.7636 347.617 41.5902 348.626C42.5202 349.711 44.3801 351.03 46.1109 349.556C47.8675 348.057 46.8342 346.351 46.0076 345.162C45.7234 344.722 44.716 343.507 45.4134 342.912C45.8268 342.576 46.6017 342.551 47.5317 343.662V343.636Z" fill="black"/>
<path d="M57.7872 353.098L56.6764 351.909L53.4474 354.933C51.9491 356.329 50.6574 356.277 49.8308 355.399C48.9525 354.468 48.8233 353.356 50.4508 351.831L53.7315 348.755L52.6465 347.592L49.3658 350.642C47.3251 352.529 47.0151 354.804 48.6167 356.536C50.1925 358.216 52.4657 358.009 54.584 356.045L57.7614 353.072L57.7872 353.098Z" fill="black"/>
<path d="M62.4629 357.673L59.828 355.14L53.654 361.551L54.8423 362.688L56.6764 360.775L58.1489 362.197C59.3888 363.386 61.1713 363.516 62.4887 362.12C63.8837 360.672 63.6512 358.863 62.4112 357.673H62.4629ZM61.3262 361.008C60.7063 361.654 59.7246 361.603 59.053 360.956L57.7355 359.69L59.8796 357.467L61.3521 358.863C62.0496 359.483 61.8687 360.439 61.3521 361.008H61.3262Z" fill="black"/>
<path d="M69.4635 364.11L66.7252 361.732L60.8871 368.427L62.127 369.513L63.8836 367.497L65.4336 368.841C66.7252 369.953 68.5077 370.004 69.7735 368.557C71.0909 367.057 70.7809 365.248 69.4893 364.136L69.4635 364.11ZM68.5077 367.497C67.9135 368.169 66.9319 368.169 66.2344 367.574L64.8653 366.385L66.906 364.059L68.4302 365.377C69.1535 365.972 69.0243 366.928 68.5335 367.497H68.5077Z" fill="black"/>
<path d="M77.3165 370.263C75.6116 368.944 72.8734 368.712 70.9101 371.219C69.0243 373.623 69.851 376.312 71.5559 377.63C73.235 378.949 75.9991 379.156 77.9107 376.726C79.7964 374.321 79.0215 371.581 77.3165 370.263ZM76.6707 375.795C75.5858 377.165 73.855 377.501 72.4859 376.441C71.1167 375.355 71.0392 373.572 72.0984 372.228C73.2092 370.832 74.9658 370.444 76.3607 371.53C77.7299 372.589 77.7815 374.425 76.6966 375.821L76.6707 375.795Z" fill="black"/>
<path d="M86.1771 377.062L82.8447 374.735L77.7557 382.025L79.099 382.956L81.1139 380.06L82.1472 380.784C82.1472 381.947 82.0439 384.998 82.0439 384.998L83.3872 385.928L83.4647 385.799L83.6455 381.792L83.5938 381.689C84.7563 382.283 86.2546 381.999 87.0554 380.836C87.9337 379.569 87.5462 378.018 86.1771 377.036V377.062ZM85.8154 380.009C85.4279 380.551 84.6788 380.707 83.9296 380.19L82.018 378.819L83.3613 376.907L85.3763 378.302C86.1254 378.845 86.1771 379.466 85.8154 380.009V380.009Z" fill="black"/>
<path d="M96.8975 384.041L90.3878 379.957L89.6128 381.172L92.1702 382.775L88.2437 389.108L89.6128 389.961L93.5651 383.654L96.1226 385.256L96.8975 384.041Z" fill="black"/>
<path d="M99.8941 387.428L103.821 389.625L104.544 388.358L99.1708 385.36L94.8309 393.115L100.307 396.191L101.031 394.899L96.975 392.624L98.06 390.685L101.444 392.572L102.116 391.331L98.7575 389.444L99.8941 387.428Z" fill="black"/>
<path d="M109.995 391.15L106.817 389.573L102.865 397.536L105.732 398.957C108.083 400.121 110.408 399.138 111.519 396.889C112.552 394.795 112.139 392.236 109.995 391.176V391.15ZM110.072 396.217C109.349 397.691 107.747 398.363 106.146 397.561L104.957 396.967L107.618 391.616L108.832 392.21C110.718 393.141 110.821 394.718 110.072 396.217V396.217Z" fill="black"/>
<path d="M124.538 397.613L120.922 396.165L117.589 404.438L121.309 405.937C122.627 406.48 124.177 406.066 124.745 404.67C125.107 403.766 124.848 402.654 124.306 402.292C125.003 402.24 125.778 401.878 126.166 400.922C126.657 399.681 126.088 398.259 124.538 397.613V397.613ZM123.272 403.972C123.04 404.567 122.342 404.825 121.49 404.489L119.604 403.74L120.483 401.517L122.472 402.318C123.324 402.654 123.531 403.352 123.272 403.972V403.972ZM124.719 400.483C124.461 401.103 123.712 401.387 122.885 401.051L120.999 400.276L121.878 398.053L123.892 398.854C124.745 399.164 124.952 399.862 124.719 400.457V400.483Z" fill="black"/>
<path d="M130.635 404.231L129.911 399.681L128.361 399.138L129.317 405.265L128.206 408.496L129.756 409.039L130.841 405.86L135.465 401.62L133.915 401.077L130.635 404.231Z" fill="black"/>
<path d="M144.584 408.522L143.551 404.05L141.949 403.611L143.37 409.66L142.492 412.969L144.068 413.408L144.946 410.151L149.208 405.549L147.632 405.136L144.584 408.522Z" fill="black"/>
<path d="M154.814 406.532C152.696 406.066 150.112 407.074 149.441 410.202C148.795 413.201 150.707 415.269 152.825 415.709C154.917 416.174 157.5 415.14 158.172 412.09C158.818 409.091 156.906 406.945 154.814 406.506V406.532ZM156.648 411.805C156.286 413.511 154.866 414.571 153.161 414.209C151.456 413.847 150.603 412.245 150.965 410.564C151.352 408.807 152.773 407.695 154.504 408.057C156.209 408.419 157.061 410.047 156.674 411.779L156.648 411.805Z" fill="black"/>
<path d="M166.697 413.46C166.387 415.502 165.328 416.252 164.139 416.045C162.874 415.838 162.073 415.062 162.434 412.839L163.132 408.393L161.556 408.134L160.859 412.555C160.42 415.295 161.556 417.286 163.907 417.648C166.18 418.009 167.859 416.458 168.298 413.589L168.97 409.298L167.368 409.039L166.697 413.408V413.46Z" fill="black"/>
<path d="M178.631 413.02C178.786 411.495 177.701 410.306 176.022 410.125L171.992 409.711L171.088 418.552L172.69 418.707L173.077 415.192L174.317 415.321C174.912 416.329 176.255 419.069 176.255 419.069L177.882 419.224V419.069L176.126 415.476L176.022 415.424C177.314 415.373 178.476 414.416 178.631 412.994V413.02ZM175.557 413.951L173.232 413.692L173.465 411.366L175.919 411.624C176.849 411.728 177.185 412.245 177.133 412.891C177.056 413.537 176.487 414.054 175.583 413.951H175.557Z" fill="black"/>
<path d="M186.898 419.819L188.525 419.871L188.603 416.355L192.348 416.458L192.374 414.985L188.654 414.882L188.732 412.426L193.227 412.555L193.278 411.081L187.156 410.926L186.898 419.819Z" fill="black"/>
<path d="M200.847 416.329L200.744 416.277C202.01 416.071 203.069 414.959 203.043 413.537C203.017 412.012 201.777 410.952 200.098 411.004L196.042 411.081L196.223 419.974H197.851L197.799 416.407H199.065C199.762 417.312 201.467 419.871 201.467 419.871H203.095V419.69L200.873 416.329H200.847ZM197.747 414.882L197.696 412.555L200.15 412.503C201.08 412.503 201.493 412.969 201.519 413.615C201.519 414.287 201.002 414.856 200.098 414.856H197.747V414.882Z" fill="black"/>
<path d="M207.987 410.657L206.337 410.755L206.862 419.632L208.513 419.534L207.987 410.657Z" fill="black"/>
<path d="M213.66 417.673L213.454 415.45L217.277 415.062L217.148 413.667L213.324 414.028L213.092 411.728L217.587 411.288L217.432 409.841L211.309 410.435L212.188 419.276L218.413 418.682L218.284 417.208L213.66 417.673Z" fill="black"/>
<path d="M225.879 408.677L226.654 413.951L221.074 409.375L220.144 409.505L221.436 418.32L223.012 418.087L222.211 412.529L228.023 417.337L228.746 417.234L227.455 408.445L225.879 408.677Z" fill="black"/>
<path d="M233.706 407.204L230.219 407.928L232.027 416.639L235.179 415.993C237.736 415.476 238.95 413.253 238.459 410.771C237.994 408.47 236.083 406.713 233.732 407.204H233.706ZM234.61 414.597L233.319 414.856L232.13 409.013L233.448 408.729C235.489 408.315 236.548 409.479 236.884 411.107C237.219 412.71 236.367 414.235 234.61 414.571V414.597Z" fill="black"/>
<path d="M244.53 408.212C244.013 408.29 242.489 408.652 242.257 407.773C242.128 407.256 242.438 406.558 243.833 406.17C244.711 405.937 245.822 405.989 246.829 406.325L246.958 404.955C245.77 404.489 244.607 404.412 243.445 404.696C242.153 405.032 240.164 406.066 240.733 408.212C241.249 410.203 242.98 410.047 244.478 409.841C245.718 409.686 246.752 409.608 246.958 410.384C247.217 411.34 246.054 411.986 245.202 412.193C244.504 412.374 243.6 412.193 242.308 411.805L242.179 413.305C243.574 413.822 244.478 413.951 245.744 413.615C247.139 413.253 249.102 412.141 248.534 409.944C247.966 407.721 245.977 407.902 244.53 408.134V408.212Z" fill="black"/>
<path d="M257.395 400.741L257.007 410.306L258.479 409.789L258.531 407.669L261.864 406.506L263.207 408.134L264.731 407.617L258.66 400.276L257.395 400.715V400.741ZM260.908 405.343L258.557 406.17L258.66 402.628L260.908 405.368V405.343Z" fill="black"/>
<path d="M269.742 396.088L262.587 398.932L263.129 400.302L265.945 399.19L268.709 406.092L270.233 405.472L267.469 398.57L270.285 397.458L269.742 396.088Z" fill="black"/>
<path d="M279.378 391.642L280.179 401.206L281.574 400.508L281.367 398.389L284.519 396.812L286.069 398.285L287.515 397.561L280.566 391.021L279.378 391.616V391.642ZM280.876 393.322L283.46 395.778L281.212 396.889L280.876 393.348V393.322Z" fill="black"/>
<path d="M292.243 393.503C291.08 394.149 289.375 393.684 288.471 392.029C287.515 390.323 288.058 388.669 289.22 388.022C290.305 387.428 291.364 387.583 292.294 387.816V386.316C291.132 385.98 289.788 385.903 288.393 386.678C286.663 387.635 285.629 390.246 287.024 392.779C288.523 395.493 291.364 395.752 292.966 394.847C294.593 393.942 295.239 392.365 295.342 391.564L294.077 390.944C293.792 391.874 293.327 392.908 292.243 393.503V393.503Z" fill="black"/>
<path d="M300.871 385.722H300.741C301.723 384.92 302.059 383.421 301.31 382.206C300.483 380.913 298.907 380.629 297.487 381.534L294.051 383.679L298.778 391.228L300.147 390.375L298.287 387.376L299.346 386.704C300.431 387.143 303.196 388.462 303.196 388.462L304.59 387.583L304.513 387.454L300.896 385.696L300.871 385.722ZM299.45 384.843L297.435 386.058L296.195 384.067L298.287 382.749C299.062 382.258 299.682 382.464 300.018 383.007C300.38 383.576 300.225 384.326 299.45 384.817V384.843Z" fill="black"/>
<path d="M307.561 374.787L306.218 375.717L306.838 380.215L302.756 378.122L301.413 379.078L306.89 381.896L308.853 384.714L310.196 383.783L308.284 381.017L307.561 374.787Z" fill="black"/>
<path d="M315.233 378.199L310.739 372.383L309.447 373.365L314.872 380.422L319.832 376.596L318.902 375.381L315.233 378.199Z" fill="black"/>
<path d="M323.138 362.172L320.477 364.55L326.419 371.193L328.821 369.048C330.759 367.29 330.707 364.757 329.028 362.895C327.452 361.138 324.921 360.595 323.138 362.197V362.172ZM327.659 368.117L326.677 368.996L322.699 364.524L323.706 363.619C325.256 362.223 326.781 362.689 327.891 363.955C328.976 365.17 329.002 366.928 327.685 368.117H327.659Z" fill="black"/>
<path d="M329.648 356.045L333.419 364.86L334.53 363.774L333.678 361.835L336.184 359.354L338.095 360.258L339.232 359.121L330.578 355.114L329.622 356.045H329.648ZM331.585 357.182L334.789 358.682L333.006 360.439L331.56 357.182H331.585Z" fill="black"/>
<path d="M339.826 347.514L338.767 346.532L333.549 352.167L334.634 353.175L336.674 350.952L342.125 355.967L343.236 354.778L337.785 349.737L339.826 347.514Z" fill="black"/>
<path d="M341.298 343.481L345.845 351.935L346.852 350.745L345.819 348.884L348.092 346.17L350.081 346.894L351.115 345.653L342.125 342.447L341.273 343.455L341.298 343.481ZM343.339 344.438L346.671 345.653L345.07 347.566L343.339 344.464V344.438Z" fill="black"/>
<path d="M182.093 31.9C182.48 32.1585 182.945 32.2878 183.41 32.2878H207.874C208.339 32.2878 208.804 32.1585 209.191 31.9C209.605 31.6415 209.914 31.3055 210.121 30.866C210.56 30.0129 210.483 28.953 209.94 28.1775L197.722 10.7281C197.489 10.3921 197.179 10.1077 196.817 9.92675C196.094 9.53898 195.216 9.53898 194.467 9.92675C194.105 10.1077 193.795 10.3921 193.563 10.7281L181.344 28.1775C180.801 28.9789 180.724 30.0129 181.163 30.866C181.37 31.2796 181.705 31.6415 182.093 31.9V31.9ZM182.971 29.3925L195.19 11.9431C195.293 11.8139 195.448 11.7105 195.629 11.7105C195.81 11.7105 195.965 11.788 196.068 11.9431L208.287 29.3925C208.468 29.6252 208.39 29.9871 208.158 30.1422C208.08 30.1939 207.977 30.2197 207.874 30.2197H183.41C183.41 30.2197 183.23 30.1939 183.126 30.1422C182.868 29.9871 182.79 29.651 182.971 29.3925V29.3925Z" fill="black"/>
<path d="M184.805 20.991C184.857 20.5773 185.012 20.1896 185.245 19.8277L193.563 7.93624C193.795 7.60018 194.105 7.34167 194.467 7.13487C195.19 6.7471 196.068 6.7471 196.792 7.13487C197.153 7.31582 197.463 7.60018 197.696 7.93624L206.04 19.8277C206.272 20.1637 206.427 20.5773 206.479 20.991L208.106 23.2917C208.804 21.7665 208.649 20.0086 207.693 18.6385L199.349 6.7471C198.936 6.15253 198.367 5.66136 197.722 5.3253C196.404 4.62733 194.854 4.62733 193.537 5.3253C192.891 5.66136 192.323 6.15253 191.909 6.7471L183.591 18.6127C182.635 19.9828 182.48 21.7665 183.178 23.2658L184.805 20.9651V20.991Z" fill="black"/>
<path d="M203.973 25.9802C204.102 25.9802 204.231 25.9802 204.361 25.9802L202.914 23.938H188.344L186.924 25.9802C186.924 25.9802 187.182 25.9802 187.311 25.9802H203.947H203.973Z" fill="black"/>
<path d="M199.892 19.595L198.445 17.5269H192.839L191.393 19.595H199.84H199.892Z" fill="black"/>
<path d="M186.898 11.7105C187.027 11.09 187.285 10.5213 187.647 10.0302L191.832 4.0586C192.271 3.43817 192.839 2.94701 193.485 2.58509C194.828 1.88712 196.43 1.88712 197.747 2.58509C198.419 2.92115 198.987 3.43817 199.401 4.0586L203.586 10.0302C203.947 10.5472 204.206 11.1159 204.335 11.7105L206.272 14.4765C206.505 13.52 206.556 12.5118 206.375 11.5295C206.195 10.5472 205.807 9.6424 205.239 8.81517L201.054 2.8436C200.434 1.96467 199.607 1.24084 198.677 0.749677C197.722 0.258509 196.688 0 195.603 0C194.544 0 193.485 0.258509 192.529 0.749677C191.573 1.24084 190.773 1.96467 190.153 2.8436L185.968 8.81517C185.4 9.61654 185.012 10.5472 184.831 11.5295C184.65 12.5118 184.676 13.4942 184.935 14.4765L186.872 11.7105H186.898Z" fill="black"/>
</g>
<defs>
<clipPath id="clip0_4621_41562">
<rect width="391" height="420" fill="white"/>
</clipPath>
</defs>
</svg>
