<svg width="16" height="16" viewBox="0 0 16 16" fill="none" xmlns="http://www.w3.org/2000/svg">
<path fill-rule="evenodd" clip-rule="evenodd" d="M2.06674 11.2886H6.86222V12.4503H2.06674C1.67553 12.4503 1.3444 12.3148 1.07334 12.0437C0.80228 11.7727 0.666748 11.4415 0.666748 11.0503V2.23332C0.666748 1.84211 0.80228 1.51097 1.07334 1.23991C1.3444 0.968845 1.67553 0.833313 2.06674 0.833313H10.8837C11.2749 0.833313 11.6061 0.968845 11.8771 1.23991C12.1482 1.51097 12.2837 1.84211 12.2837 2.23332V7.02911H11.122V2.23332C11.122 2.17374 11.0972 2.11912 11.0476 2.06946C10.9979 2.01982 10.9433 1.995 10.8837 1.995H9.57311V6.46307C9.57311 6.60306 9.51478 6.70806 9.39811 6.77806C9.28144 6.84806 9.16354 6.84285 9.0444 6.76244L8.19248 6.26052C8.07333 6.18803 7.94946 6.15179 7.82089 6.15179C7.69231 6.15179 7.5749 6.18803 7.46866 6.26052L6.61674 6.76244C6.48965 6.84285 6.36976 6.84806 6.25706 6.77806C6.14438 6.70806 6.08803 6.60306 6.08803 6.46307V1.995H2.06674C2.00715 1.995 1.95254 2.01982 1.9029 2.06946C1.85324 2.11912 1.82841 2.17374 1.82841 2.23332V11.0503C1.82841 11.1099 1.85324 11.1645 1.9029 11.2142C1.95254 11.2638 2.00715 11.2886 2.06674 11.2886ZM8.48258 12.3682H11.0271V14.9127C11.0271 15.0775 11.0838 15.2166 11.1971 15.3299C11.3105 15.4433 11.4496 15.5 11.6144 15.5C11.7792 15.5 11.9183 15.4433 12.0317 15.3299C12.145 15.2166 12.2017 15.0775 12.2017 14.9127V12.3682H14.7462C14.911 12.3682 15.0501 12.3115 15.1635 12.1981C15.2769 12.0847 15.3335 11.9457 15.3335 11.7808C15.3335 11.616 15.2769 11.477 15.1635 11.3636C15.0501 11.2502 14.911 11.1935 14.7462 11.1935H12.2017V8.64903C12.2017 8.48421 12.145 8.34512 12.0317 8.23175C11.9183 8.11839 11.7792 8.06171 11.6144 8.06171C11.4496 8.06171 11.3105 8.11839 11.1971 8.23175C11.0838 8.34512 11.0271 8.48421 11.0271 8.64903V11.1935H8.48258C8.31777 11.1935 8.17868 11.2502 8.06531 11.3636C7.95195 11.477 7.89526 11.616 7.89526 11.7808C7.89526 11.9457 7.95195 12.0847 8.06531 12.1981C8.17868 12.3115 8.31777 12.3682 8.48258 12.3682Z" fill="#533FD1"/>
</svg>
