<svg xmlns="http://www.w3.org/2000/svg" width="24" height="24" viewBox="0 0 24 24"><path d="M21 14l-1.003 4c-.555-1.086-1.33-2.031-2.251-2.806l3.249-4.594c1.138.98 2.198 2.124 3.005 3.4h-3zm-.096-5.008l-3.486 4.929c-1.521-1.136-3.38-1.862-5.418-1.862-2.037 0-3.915.692-5.427 1.849l-3.481-4.923c2.497-1.858 5.567-2.985 8.908-2.985 3.342 0 6.41 1.128 8.904 2.992zm-12.41.779l.506-.486-.694-.096-.306-.63-.306.63-.694.096.506.486-.123.689.617-.33.617.33-.123-.689zm4.496-.092l1.01-.971-1.389-.191-.611-1.262-.611 1.261-1.389.192 1.011.971-.247 1.38 1.236-.662 1.236.661-.246-1.379zm3.504.19l.506-.486-.694-.096-.306-.63-.306.63-.694.096.506.486-.123.689.617-.329.617.33-.123-.69zm-13.489.731c-1.138.981-2.198 2.124-3.005 3.4h3l1.003 4c.556-1.086 1.33-2.031 2.251-2.806l-3.249-4.594z"/></svg>