<svg width="256" height="256" viewBox="0 0 256 256" fill="none" xmlns="http://www.w3.org/2000/svg">
<g clip-path="url(#clip0_3858_38087)">
<path d="M204.754 69.9641L171.372 22.6166C166.431 15.6206 159.911 9.91908 152.355 5.98553C144.799 2.05199 136.425 0 127.928 0C119.431 0 111.057 2.05199 103.501 5.98553C95.9455 9.91908 89.4259 15.6206 84.4841 22.6166L51.0423 69.9641C45.3434 78.0447 41.9542 87.5582 41.2465 97.4605C40.5389 107.363 42.5403 117.271 47.031 126.097C51.5217 134.924 58.328 142.328 66.703 147.496C75.078 152.664 84.6979 155.397 94.5066 155.394H161.188C171.006 155.416 180.639 152.696 189.028 147.536C197.418 142.375 204.239 134.973 208.742 126.143C213.245 117.313 215.255 107.397 214.551 97.486C213.848 87.5747 210.457 78.0517 204.754 69.9641ZM161.269 139.032H94.5874C87.7489 139.035 81.0419 137.13 75.2026 133.528C69.3632 129.925 64.6173 124.764 61.4858 118.61C58.3542 112.457 56.9581 105.549 57.4506 98.6456C57.9431 91.7418 60.3052 85.1087 64.2776 79.4745L97.578 32.1066C101.023 27.2219 105.571 23.2405 110.843 20.4935C116.115 17.7466 121.958 16.3135 127.888 16.3135C133.817 16.3135 139.661 17.7466 144.933 20.4935C150.205 23.2405 154.753 27.2219 158.198 32.1066L191.579 79.4745C195.551 85.1087 197.913 91.7418 198.406 98.6456C198.898 105.549 197.502 112.457 194.371 118.61C191.239 124.764 186.493 129.925 180.654 133.528C174.815 137.13 168.108 139.035 161.269 139.032Z" fill="#B0CAD2"/>
<path d="M223.949 147.868L157.489 53.6232C154.125 48.8484 149.682 44.9563 144.532 42.2708C139.381 39.5854 133.67 38.1843 127.876 38.1843C122.082 38.1843 116.372 39.5854 111.221 42.2708C106.07 44.9563 101.628 48.8484 98.2637 53.6232L31.8448 147.868C27.9615 153.373 25.6515 159.854 25.1684 166.6C24.6853 173.346 26.0478 180.097 29.1063 186.111C32.1647 192.125 36.801 197.169 42.5062 200.691C48.2113 204.213 54.7648 206.076 61.4474 206.076H194.346C201.028 206.076 207.582 204.213 213.287 200.691C218.992 197.169 223.629 192.125 226.687 186.111C229.746 180.097 231.108 173.346 230.625 166.6C230.142 159.854 227.832 153.373 223.949 147.868ZM194.346 189.714H61.4474C57.745 189.706 54.1159 188.669 50.9562 186.716C47.7965 184.763 45.2278 181.968 43.5305 178.638C41.8331 175.307 41.0725 171.569 41.3315 167.831C41.5905 164.092 42.8593 160.498 44.9993 157.44L111.438 63.1131C113.308 60.4618 115.775 58.3008 118.636 56.8097C121.497 55.3187 124.669 54.5408 127.887 54.5408C131.104 54.5408 134.276 55.3187 137.137 56.8097C139.998 58.3008 142.465 60.4618 144.335 63.1131L210.794 157.44C212.934 160.498 214.203 164.092 214.462 167.831C214.721 171.569 213.96 175.307 212.263 178.638C210.566 181.968 207.997 184.763 204.837 186.716C201.677 188.669 198.048 189.706 194.346 189.714Z" fill="#67BCBD"/>
<path d="M242.014 223.42L144.477 85.0585C142.596 82.3821 140.109 80.2001 137.225 78.6944C134.341 77.1887 131.143 76.4031 127.898 76.4031C124.652 76.4031 121.454 77.1887 118.57 78.6944C115.686 80.2001 113.2 82.3821 111.318 85.0585L13.7811 223.42C11.6112 226.502 10.3212 230.129 10.0526 233.903C9.78404 237.678 10.5472 241.455 12.2585 244.82C13.9697 248.185 16.563 251.008 19.7543 252.98C22.9455 254.952 26.6115 255.997 30.3505 256H225.445C229.184 255.997 232.85 254.952 236.041 252.98C239.232 251.008 241.826 248.185 243.537 244.82C245.248 241.455 246.011 237.678 245.743 233.903C245.474 230.129 244.184 226.502 242.014 223.42ZM225.445 239.638H30.3505C29.5784 239.638 28.8213 239.422 28.1625 239.014C27.5036 238.607 26.9684 238.023 26.6156 237.328C26.2628 236.633 26.106 235.853 26.1625 235.073C26.2189 234.294 26.4864 233.545 26.9356 232.91L124.473 94.5484C124.861 93.9985 125.374 93.5503 125.968 93.2408C126.561 92.9314 127.22 92.7696 127.888 92.7691C128.556 92.7646 129.216 92.9241 129.811 93.2339C130.406 93.5438 130.917 93.9948 131.302 94.5484L228.86 232.91C229.309 233.545 229.576 234.294 229.633 235.073C229.689 235.853 229.532 236.633 229.18 237.328C228.827 238.023 228.292 238.607 227.633 239.014C226.974 239.422 226.217 239.638 225.445 239.638Z" fill="#20D3BD"/>
</g>
<defs>
<clipPath id="clip0_3858_38087">
<rect width="256" height="256" fill="white"/>
</clipPath>
</defs>
</svg>
