<svg width="256" height="256" viewBox="0 0 256 256" fill="none" xmlns="http://www.w3.org/2000/svg">
<path d="M128.089 72.7512C180.505 72.7512 222.997 56.4653 222.997 36.3756C222.997 16.2859 180.505 0 128.089 0C75.6731 0 33.1815 16.2859 33.1815 36.3756C33.1815 56.4653 75.6731 72.7512 128.089 72.7512Z" fill="white"/>
<path d="M106.36 255.741C81.682 253.169 58.5314 247.14 46.7952 240.066C41.0076 236.61 35.3807 231.224 33.9337 227.767C33.0495 225.597 32.728 208.957 32.2457 133.878C31.8437 69.6514 31.9241 42.4815 32.5672 42.0796C33.0495 41.7581 34.7376 43.3657 36.2649 45.5361C41.1683 52.4492 49.2068 57.2722 63.8367 62.0953C73.4025 65.3107 87.3893 68.2849 98.7235 69.571C112.389 71.0983 134.334 72.1433 142.131 71.661C179.671 69.1691 205.876 61.3718 218.335 48.9926C221.149 46.1792 223.56 43.9284 223.802 43.9284C224.043 43.9284 224.123 84.5225 224.123 134.12C224.123 236.61 224.766 227.607 217.049 234.52C207.564 243.201 189.317 249.873 164.156 253.892C155.877 255.259 149.366 255.661 131.681 255.821C119.543 255.982 108.128 255.982 106.36 255.741ZM107.164 57.9957C90.4439 56.3076 74.769 52.8511 66.0875 48.9123C39.3999 36.7742 53.0652 21.3404 96.312 14.7489C108.048 12.9805 135.218 12.257 148.401 13.4628C173.561 15.7135 192.211 20.9385 200.329 28.0123C212.789 38.9446 196.712 51.0023 162.147 56.5488C154.108 57.8349 115.604 58.8799 107.164 57.9957Z" fill="#9FA0A1"/>
<path d="M101.939 255.017C87.7911 253.41 75.7335 250.918 64.7208 247.3C53.0651 243.522 45.1874 239.423 39.6409 234.359C32.1652 227.526 32.6475 235.966 33.2906 134.762C33.6121 85.728 33.9336 45.6966 34.0944 45.6966C34.2552 45.6966 35.9432 47.3847 37.9528 49.5551C49.287 61.6127 76.2158 69.8119 112.871 72.3842L126.858 73.3488V165.469L131.038 164.907C141.327 163.62 149.848 159.36 156.52 152.045C158.69 149.634 160.7 147.704 160.86 147.704C161.021 147.704 163.594 150.035 166.487 152.929C175.732 162.173 188.432 166.595 200.329 164.665C207.001 163.54 214.075 160.566 218.737 156.868C220.586 155.421 222.354 154.215 222.676 154.215C222.998 154.215 223.319 170.132 223.319 189.585C223.319 229.214 223.48 228.008 217.612 233.716C208.287 242.719 188.593 249.953 162.629 253.892C147.758 256.143 116.569 256.705 101.939 255.017ZM99.688 56.4681C82.9681 54.4585 67.5343 50.0374 60.2997 45.2143C43.5798 34.1213 56.602 22.3048 92.6946 15.7133C101.376 14.1056 105.074 13.9448 128.466 13.9448C152.259 13.9448 155.555 14.1056 165.04 15.7937C176.616 17.8837 190.12 22.0636 195.587 25.1986C216.085 37.1759 197.837 51.6451 155.957 56.4681C143.256 57.9954 112.308 57.9954 99.688 56.4681Z" fill="#58B2D6"/>
<path d="M99.6881 56.4694C82.9681 54.4598 67.5343 50.0387 60.2997 45.2156C43.5798 34.1226 56.6021 22.3061 92.6946 15.6342C101.376 14.0265 105.074 13.8657 128.466 13.8657C152.259 13.8657 155.555 14.0265 165.041 15.7146C176.616 17.8046 190.12 21.9845 195.587 25.1195C216.085 37.0968 197.837 51.566 155.957 56.389C143.256 57.9967 112.308 57.9967 99.6881 56.4694Z" fill="#B3D131"/>
<path d="M99.5274 253.33C73.1614 250.195 51.136 242.881 41.0076 234.038C33.9338 227.849 34.5769 236.45 33.9338 135.407C33.6123 86.0507 33.6123 45.6978 33.8534 45.6978C34.0946 45.6978 35.9434 47.3859 37.953 49.5562C49.2872 61.6139 76.216 69.8131 112.871 72.3854L126.858 73.35V254.697L117.855 254.617C112.871 254.536 104.592 253.974 99.5274 253.33ZM107.164 56.3889C100.572 55.8262 86.8267 53.5755 80.5567 51.9678C73.8848 50.2797 71.4733 49.3151 72.2771 48.5113C73.2417 47.5466 88.5148 44.0901 97.6786 42.7236C109.575 40.9551 145.105 40.714 156.198 42.3217C170.185 44.3313 184.735 47.7074 184.735 48.9132C184.735 50.6012 166.327 54.7008 152.26 56.0674C144.221 56.8712 114.881 57.032 107.164 56.3889Z" fill="#3897C4"/>
<path d="M107.164 56.3889C100.572 55.8262 86.8267 53.5755 80.5567 51.9678C73.8848 50.2797 71.4733 49.3151 72.2772 48.5112C73.2418 47.5466 88.5148 44.0901 97.6786 42.7236C109.575 40.9551 145.105 40.714 156.198 42.3217C170.185 44.3313 184.735 47.7074 184.735 48.9132C184.735 50.6012 166.327 54.7008 152.26 56.0674C144.221 56.8712 114.881 57.032 107.164 56.3889Z" fill="#7EB900"/>
<path d="M54.9141 164.586C49.046 163.702 42.6153 161.049 38.0334 157.512L34.0141 154.458L33.773 100.038C33.6926 70.1346 33.773 45.6978 33.9338 45.6978C34.1749 45.6978 35.9434 47.3858 37.8726 49.5562C49.2068 61.6138 76.1355 69.813 112.791 72.3853L126.778 73.35V164.908L121.472 164.506C113.836 163.863 105.395 159.522 98.8039 152.93C96.0709 150.117 93.5789 147.866 93.3378 147.866C93.0966 147.866 91.1674 149.715 89.0774 152.046C80.3155 161.773 67.5344 166.515 54.9141 164.586Z" fill="#3E3E3F"/>
</svg>
