<svg width="256" height="256" viewBox="0 0 256 256" fill="none" xmlns="http://www.w3.org/2000/svg">
<g clip-path="url(#clip0)">
<path d="M4.12803 254.987L126.741 129.342C127.119 128.968 127.354 128.473 127.404 127.944C127.454 127.414 127.316 126.884 127.015 126.446C119.559 116.039 105.799 114.235 100.701 107.242C85.5982 86.5296 81.766 74.8054 75.2759 75.5316C74.8229 75.5968 74.4065 75.8165 74.097 76.1535L29.8057 121.545C4.32358 147.637 0.661219 205.147 2.42081e-05 253.309C-0.00212604 253.788 0.139012 254.257 0.405709 254.655C0.672407 255.053 1.05235 255.362 1.49639 255.543C1.94042 255.723 2.42816 255.767 2.89717 255.668C3.36618 255.569 3.79498 255.332 4.12803 254.987Z" fill="#017CEE"/>
<path d="M255.064 251.886L129.381 129.302C129.007 128.923 128.511 128.688 127.98 128.637C127.45 128.587 126.918 128.726 126.48 129.028C116.07 136.486 114.265 150.237 107.27 155.333C86.5514 170.432 74.824 174.263 75.5504 180.751C75.6165 181.202 75.836 181.617 76.1722 181.925L121.577 226.203C147.677 251.678 205.205 255.339 253.381 256C253.858 256 254.324 255.859 254.72 255.593C255.117 255.328 255.424 254.95 255.605 254.508C255.786 254.067 255.831 253.582 255.735 253.115C255.638 252.648 255.405 252.22 255.064 251.886Z" fill="#00AD46"/>
<path d="M121.577 226.216C107.309 212.301 100.697 184.774 128.041 128.011C83.5888 147.871 68.0113 173.976 75.6716 181.451L121.577 226.216Z" fill="#04D659"/>
<path d="M251.958 1.0307L129.35 126.676C128.971 127.049 128.735 127.545 128.685 128.074C128.635 128.604 128.774 129.134 129.076 129.572C136.536 139.979 150.286 141.783 155.389 148.776C170.492 169.488 174.328 181.212 180.814 180.486C181.267 180.421 181.684 180.202 181.993 179.864L226.284 134.473C251.767 108.381 255.429 50.8704 256.091 2.70922C256.092 2.23006 255.949 1.76156 255.682 1.3638C255.415 0.966049 255.035 0.65714 254.591 0.47677C254.147 0.2964 253.659 0.252814 253.19 0.351492C252.721 0.45017 252.292 0.686711 251.958 1.0307Z" fill="#00C7D4"/>
<path d="M226.307 134.473C212.387 148.737 184.852 155.347 128.067 128.011C147.934 172.45 174.046 188.022 181.524 180.364L226.307 134.473Z" fill="#11E1EE"/>
<path d="M1.0173 4.13131L126.701 126.702C127.074 127.08 127.57 127.315 128.1 127.365C128.629 127.415 129.159 127.278 129.598 126.976C140.007 119.518 141.812 105.768 148.807 100.671C169.526 85.5727 181.254 81.7414 180.527 75.2533C180.461 74.8008 180.242 74.3848 179.905 74.0748L134.5 29.7969C108.401 4.32256 50.8722 0.661042 2.69633 4.88208e-05C2.21606 -0.00301279 1.74581 0.137988 1.34653 0.404814C0.947236 0.671641 0.637359 1.05193 0.456567 1.49675C0.275774 1.94157 0.232344 2.43041 0.332312 2.90003C0.432281 3.36965 0.671004 3.79862 1.0173 4.13131Z" fill="#E43921"/>
<path fill-rule="evenodd" clip-rule="evenodd" d="M134.523 29.8014C148.791 43.717 155.402 71.2439 128.059 128.011C172.511 108.151 188.088 82.0416 180.428 74.5706L134.523 29.8014Z" fill="#FF7557"/>
<path d="M29.8057 121.549C43.7255 107.285 71.2607 100.675 128.045 128.011C108.179 83.5722 82.0663 67.9997 74.5887 75.6577L29.8057 121.549Z" fill="#0CB6FF"/>
<path d="M128.063 133.468C131.09 133.468 133.544 131.015 133.544 127.989C133.544 124.963 131.09 122.51 128.063 122.51C125.036 122.51 122.582 124.963 122.582 127.989C122.582 131.015 125.036 133.468 128.063 133.468Z" fill="#4A4848"/>
</g>
<defs>
<clipPath id="clip0">
<rect width="256" height="256" fill="white"/>
</clipPath>
</defs>
</svg>
