<svg width="256" height="256" viewBox="0 0 256 256" fill="none" xmlns="http://www.w3.org/2000/svg">
<g clip-path="url(#clip0_3858_38359)">
<path fill-rule="evenodd" clip-rule="evenodd" d="M127.727 256C126.897 256.006 126.08 255.793 125.358 255.384L16.3694 192.455C15.6462 192.037 15.0462 191.436 14.6302 190.712C14.2141 189.988 13.9967 189.167 14 188.332V62.474C13.9967 61.639 14.2141 60.818 14.6302 60.094C15.0462 59.3701 15.6462 58.7689 16.3694 58.3514L115.881 0.634854C116.601 0.218952 117.418 0 118.25 0C119.082 0 119.899 0.218952 120.619 0.634854C121.342 1.05235 121.942 1.65351 122.359 2.37747C122.775 3.10143 122.992 3.92247 122.989 4.75747V59.2992C122.992 60.1341 122.775 60.9552 122.359 61.6791C121.942 62.4031 121.342 63.0043 120.619 63.4218L70.8637 92.4696V158.194L127.727 191.033L177.341 162.601C178.061 162.185 178.878 161.967 179.71 161.967C180.542 161.967 181.359 162.185 182.079 162.601L229.466 189.943C230.195 190.357 230.802 190.956 231.224 191.68C231.646 192.404 231.868 193.228 231.868 194.066C231.868 194.904 231.646 195.727 231.224 196.452C230.802 197.176 230.195 197.775 229.466 198.189L130.097 255.384C129.374 255.793 128.557 256.006 127.727 256ZM23.4773 185.584L127.727 245.812L217.761 193.687L179.852 171.794L130.097 200.653C129.376 201.069 128.559 201.287 127.727 201.287C126.895 201.287 126.078 201.069 125.358 200.653L63.7557 165.065C63.0326 164.648 62.4326 164.047 62.0165 163.323C61.6005 162.599 61.3831 161.778 61.3864 160.943V89.8633C61.3831 89.0284 61.6005 88.2073 62.0165 87.4833C62.4326 86.7594 63.0326 86.1582 63.7557 85.7407L113.511 56.7877V12.9553L23.4773 65.0803V185.584ZM236.716 182.172C235.886 182.178 235.069 181.965 234.347 181.556L186.96 154.309C186.232 153.915 185.639 153.311 185.259 152.576C184.878 151.841 184.728 151.008 184.828 150.186V92.4696L134.835 64.0378C134.112 63.6203 133.512 63.0192 133.096 62.2952C132.68 61.5713 132.463 60.7502 132.466 59.9152V5.27878C132.463 4.44379 132.68 3.62274 133.096 2.89878C133.512 2.17482 134.112 1.57366 134.835 1.15617C135.564 0.766256 136.378 0.562256 137.204 0.562256C138.031 0.562256 138.845 0.766256 139.574 1.15617L239.085 58.3515C239.808 58.769 240.408 59.3701 240.824 60.0941C241.24 60.818 241.458 61.6391 241.454 62.4741V177.433C241.454 178.69 240.955 179.895 240.067 180.784C239.178 181.673 237.973 182.172 236.716 182.172ZM194.068 147.485L231.977 169.188V65.2225L141.943 13.4766V57.2142L191.699 85.646C192.415 86.0595 193.01 86.6532 193.426 87.3681C193.842 88.083 194.063 88.8943 194.068 89.7212V147.485ZM104.034 90.053V161.133H113.511V127.962L146.682 161.133H159.618L124.695 124.645L156.822 90.053H144.312L113.511 122.418V90.053H104.034Z" fill="url(#paint0_linear_3858_38359)"/>
</g>
<defs>
<linearGradient id="paint0_linear_3858_38359" x1="106.714" y1="161.41" x2="165.428" y2="107.466" gradientUnits="userSpaceOnUse">
<stop stop-color="#D35F16"/>
<stop offset="1" stop-color="#F48B06"/>
</linearGradient>
<clipPath id="clip0_3858_38359">
<rect width="256" height="256" rx="25" fill="white"/>
</clipPath>
</defs>
</svg>
