<svg width="256" height="256" viewBox="0 0 256 256" fill="none" xmlns="http://www.w3.org/2000/svg">
<path fill-rule="evenodd" clip-rule="evenodd" d="M125.358 255.384C126.08 255.793 126.897 256.006 127.727 256C128.557 256.006 129.374 255.793 130.097 255.384L229.466 198.189C230.195 197.775 230.802 197.176 231.224 196.452C231.646 195.727 231.868 194.904 231.868 194.066C231.868 193.228 231.646 192.404 231.224 191.68C230.802 190.956 230.195 190.357 229.466 189.943L182.079 162.601C181.359 162.185 180.542 161.967 179.71 161.967C178.878 161.967 178.061 162.185 177.341 162.601L127.727 191.033L70.8637 158.194V92.4696L120.619 63.4218C121.342 63.0043 121.942 62.4031 122.359 61.6791C122.775 60.9552 122.992 60.1341 122.989 59.2992V4.75747C122.992 3.92247 122.775 3.10143 122.359 2.37747C121.942 1.65351 121.342 1.05235 120.619 0.634854C119.899 0.218952 119.082 0 118.25 0C117.418 0 116.601 0.218952 115.881 0.634854L16.3694 58.3514C15.6462 58.7689 15.0462 59.3701 14.6302 60.094C14.2141 60.818 13.9967 61.639 14 62.474V188.332C13.9967 189.167 14.2141 189.988 14.6302 190.712C15.0462 191.436 15.6462 192.037 16.3694 192.455L125.358 255.384ZM127.727 245.812L23.4773 185.584V65.0803L113.511 12.9553V56.7877L63.7557 85.7407C63.0326 86.1582 62.4326 86.7594 62.0165 87.4833C61.6005 88.2073 61.3831 89.0284 61.3864 89.8633V160.943C61.3831 161.778 61.6005 162.599 62.0165 163.323C62.4326 164.047 63.0326 164.648 63.7557 165.065L125.358 200.653C126.078 201.069 126.895 201.287 127.727 201.287C128.559 201.287 129.376 201.069 130.097 200.653L179.852 171.794L217.761 193.687L127.727 245.812ZM234.347 181.556C235.069 181.965 235.886 182.178 236.716 182.172C237.973 182.172 239.178 181.673 240.067 180.784C240.955 179.895 241.454 178.69 241.454 177.433V62.4741C241.458 61.6391 241.24 60.818 240.824 60.0941C240.408 59.3701 239.808 58.769 239.085 58.3515L139.574 1.15617C138.845 0.766256 138.031 0.562256 137.204 0.562256C136.378 0.562256 135.564 0.766256 134.835 1.15617C134.112 1.57366 133.512 2.17482 133.096 2.89878C132.68 3.62274 132.463 4.44379 132.466 5.27878V59.9152C132.463 60.7502 132.68 61.5713 133.096 62.2952C133.512 63.0192 134.112 63.6203 134.835 64.0378L184.828 92.4696V150.186C184.728 151.008 184.878 151.841 185.259 152.576C185.639 153.311 186.232 153.915 186.96 154.309L234.347 181.556ZM231.977 169.188L194.068 147.485V89.7212C194.063 88.8943 193.842 88.083 193.426 87.3681C193.01 86.6532 192.415 86.0595 191.699 85.646L141.943 57.2142V13.4766L231.977 65.2225V169.188Z" fill="url(#paint0_linear_3858_38360)"/>
<defs>
<linearGradient id="paint0_linear_3858_38360" x1="137.72" y1="182.881" x2="279.528" y2="82.897" gradientUnits="userSpaceOnUse">
<stop stop-color="#D35F16"/>
<stop offset="1" stop-color="#F48B06"/>
</linearGradient>
</defs>
</svg>
