<svg width="256" height="256" viewBox="0 0 256 256" fill="none" xmlns="http://www.w3.org/2000/svg">
<path fill-rule="evenodd" clip-rule="evenodd" d="M82.5084 112.89V168.855C73.554 163.418 65.8788 155.743 60.762 146.469V112.89H82.5084Z" fill="#AECBFA"/>
<path fill-rule="evenodd" clip-rule="evenodd" d="M127.92 81.8687V179.088C123.763 179.408 119.285 179.408 115.128 179.088C110.331 179.088 105.534 178.768 101.057 178.448V81.8687H127.92Z" fill="#669DF6"/>
<path fill-rule="evenodd" clip-rule="evenodd" d="M170.773 126.001V144.869C165.656 154.463 157.981 162.458 149.027 168.215V126.001H170.773Z" fill="#AECBFA"/>
<path fill-rule="evenodd" clip-rule="evenodd" d="M201.474 183.245C203.713 181.007 207.23 181.007 209.149 183.245L254.561 228.657C256.48 230.896 256.48 234.094 254.561 236.332L236.332 254.561C234.094 256.48 230.896 256.48 228.657 254.561L183.245 209.149C181.327 206.911 181.327 203.713 183.245 201.474L201.474 183.245Z" fill="#4285F4"/>
<path fill-rule="evenodd" clip-rule="evenodd" d="M115.128 0C178.768 0 230.256 51.4878 230.256 115.128C230.256 178.768 178.768 230.256 115.128 230.256C51.4878 230.256 0 178.768 0 115.128C0 51.4878 51.4878 0 115.128 0ZM115.128 200.834C115.128 200.834 115.448 200.834 115.128 200.834C162.458 200.834 200.834 162.458 200.834 115.128C200.834 68.1174 162.458 29.7414 115.448 29.7414C68.4372 29.7414 29.7414 68.1174 29.7414 115.128C29.7414 162.139 68.1174 200.515 115.128 200.834Z" fill="#669DF6"/>
</svg>
