<?xml version="1.0" encoding="utf-8"?>
<!-- Generator: Adobe Illustrator 24.0.0, SVG Export Plug-In . SVG Version: 6.00 Build 0)  -->
<svg version="1.1" id="Layer_1" xmlns="http://www.w3.org/2000/svg" xmlns:xlink="http://www.w3.org/1999/xlink" x="0px" y="0px"
	 viewBox="0 0 64 64" width="64" height="64" style="enable-background:new 0 0 64 64;" xml:space="preserve">
<style type="text/css">
	.st0{fill:#FF671D;}
	.st1{fill:#ABC8E7;}
	.st2{fill:#4197CB;}
</style>
<g>
	<path id="Fill-1" class="st0" d="M12,32c0,1.8-1.1,3.2-2.4,3.2H4.8c-1.3,0-2.4-1.4-2.4-3.2c0-1.8,1.1-3.2,2.4-3.2h4.8
		C10.9,28.8,12,30.2,12,32"/>
	<path id="Fill-3" class="st0" d="M36,32c0,1.8-1.2,3.2-2.7,3.2H19.5c-1.5,0-2.7-1.4-2.7-3.2c0-1.8,1.2-3.2,2.7-3.2h13.8
		C34.8,28.8,36,30.2,36,32"/>
	<path id="Fill-5" class="st1" d="M18.4,17.6c0,1.8-1.1,3.2-2.4,3.2h-4.8c-1.3,0-2.4-1.4-2.4-3.2s1.1-3.2,2.4-3.2H16
		C17.3,14.4,18.4,15.8,18.4,17.6"/>
	<path id="Fill-7" class="st1" d="M42.4,17.6c0,1.8-1.2,3.2-2.7,3.2H25.9c-1.5,0-2.7-1.4-2.7-3.2s1.2-3.2,2.7-3.2h13.8
		C41.2,14.4,42.4,15.8,42.4,17.6"/>
	<path id="Fill-9" class="st1" d="M18.4,46.4c0,1.8-1.1,3.2-2.4,3.2h-4.8c-1.3,0-2.4-1.4-2.4-3.2c0-1.8,1.1-3.2,2.4-3.2H16
		C17.3,43.2,18.4,44.6,18.4,46.4"/>
	<path id="Fill-11" class="st1" d="M42.4,46.4c0,1.8-1.2,3.2-2.7,3.2H25.9c-1.5,0-2.7-1.4-2.7-3.2c0-1.8,1.2-3.2,2.7-3.2h13.8
		C41.2,43.2,42.4,44.6,42.4,46.4"/>
	<path id="Fill-13" class="st2" d="M44,2.4c0,1.3-1.2,2.4-2.6,2.4H29c-1.5,0-2.6-1.1-2.6-2.4S27.6,0,29,0h12.3C42.8,0,44,1.1,44,2.4
		"/>
	<path id="Fill-15" class="st2" d="M61.6,2.4c0,1.3-1.1,2.4-2.5,2.4h-6.2c-1.4,0-2.5-1.1-2.5-2.4S51.5,0,52.9,0h6.2
		C60.5,0,61.6,1.1,61.6,2.4"/>
	<path id="Fill-17" class="st2" d="M44,61.6c0,1.3-1.2,2.4-2.6,2.4H29c-1.5,0-2.6-1.1-2.6-2.4c0-1.3,1.2-2.4,2.6-2.4h12.3
		C42.8,59.2,44,60.3,44,61.6"/>
	<path id="Fill-19" class="st2" d="M61.6,61.6c0,1.3-1.1,2.4-2.5,2.4h-6.2c-1.4,0-2.5-1.1-2.5-2.4c0-1.3,1.1-2.4,2.5-2.4h6.2
		C60.5,59.2,61.6,60.3,61.6,61.6"/>
</g>
</svg>
