<svg width="256" height="256" viewBox="0 0 256 256" fill="none" xmlns="http://www.w3.org/2000/svg">
<path d="M128 0C57.426 0 0 57.2326 0 128C0 198.574 57.2326 256 128 256C198.574 256 256 198.767 256 128C256 57.2326 198.574 0 128 0V0ZM214.429 150.429C214.429 158.163 209.982 164.931 201.281 166.477C186.199 169.184 154.489 170.731 128 170.731C101.511 170.731 69.8006 169.184 54.719 166.477C46.0181 164.931 41.571 158.163 41.571 150.429V100.544C41.571 92.8097 47.565 85.6556 54.719 84.4955C59.1662 83.7221 69.6073 82.9486 77.7281 82.9486C80.8218 82.9486 83.3354 85.2689 83.3354 88.9426V123.94L128.193 122.973L173.051 123.94V88.9426C173.051 85.2689 175.565 82.9486 178.659 82.9486C186.779 82.9486 197.221 83.7221 201.668 84.4955C209.015 85.6556 214.816 92.8097 214.816 100.544C214.429 116.979 214.429 133.801 214.429 150.429Z" fill="#ED2226"/>
</svg>
