<svg width="256" height="256" viewBox="0 0 256 256" fill="none" xmlns="http://www.w3.org/2000/svg">
<path fill-rule="evenodd" clip-rule="evenodd" d="M117.638 60.0855H140.235C141.327 60.0855 142.213 59.2038 142.219 58.1125V37.973C142.213 36.8813 141.327 36 140.235 36H117.638C116.548 36 115.665 36.8831 115.665 37.973V58.1122C115.665 59.202 116.548 60.0855 117.638 60.0855ZM77.3818 89.054H54.7845C53.6911 89.0479 52.8065 88.1633 52.8004 87.0698V66.9418C52.8065 65.8501 53.6932 64.9688 54.7845 64.9688H77.3818C78.4713 64.9688 79.3548 65.8519 79.3548 66.9418V87.0698C79.3548 88.1611 78.4731 89.0479 77.3818 89.054ZM232.631 99.9006C246.299 99.9006 252.781 104.795 253.475 105.346L256 107.341L254.953 110.406C253.283 114.632 250.709 118.443 247.413 121.572C242.453 126.477 233.458 132.33 218.83 132.33H216.471C210.552 147.299 202.593 164.143 189.233 179.266C181.242 188.31 171.843 196.003 161.4 202.051C148.726 209.229 134.94 214.236 120.614 216.866C110.309 218.783 99.8461 219.732 89.3638 219.699C66.1603 219.699 45.6904 215.29 33.0911 207.574C21.8474 200.707 13.2052 189.485 7.39617 174.251C2.31695 160.377 -0.185937 145.692 0.0107542 130.919C0.0347584 126.515 3.60888 122.956 8.01348 122.95H176.645C178.706 122.873 188.891 122.002 195.24 118.463C189.982 110.152 188.494 100.43 190.941 90.079C192.237 84.6608 194.444 79.5024 197.467 74.823L199.881 71.3396L203.551 73.4562L203.552 73.4566C204.234 73.8587 219.216 82.6996 221.861 100.826C225.42 100.226 229.021 99.9164 232.631 99.9006ZM46.2415 118.012H23.6442C22.5543 118.012 21.6712 117.128 21.6712 116.038V95.9102V95.8991C21.6712 94.8096 22.5543 93.9261 23.6442 93.9261H46.2415H46.2526C47.3421 93.9322 48.2206 94.8203 48.2145 95.9102V116.039C48.2145 117.128 47.3313 118.012 46.2415 118.012ZM54.7844 118.012H77.3817C78.4716 118.012 79.3547 117.128 79.3547 116.039V95.9102C79.3608 94.8203 78.4823 93.9322 77.3925 93.9261H77.3814H54.7841C53.6881 93.9261 52.8 94.8142 52.8 95.9102V116.038C52.8064 117.13 53.6928 118.012 54.7844 118.012ZM108.996 118.012H86.3984C85.3089 118.012 84.4254 117.128 84.425 116.038V95.9102V95.8991C84.425 94.8096 85.3081 93.9261 86.398 93.9261H108.995H109.006C110.096 93.9322 110.975 94.8203 110.969 95.9102V116.039C110.969 117.128 110.086 118.012 108.996 118.012ZM117.638 118.012H140.235C141.327 118.012 142.213 117.13 142.219 116.039V95.9102C142.219 94.8142 141.331 93.9261 140.235 93.9261H117.638C116.548 93.9261 115.665 94.8096 115.665 95.8991V95.9102V116.038C115.665 117.128 116.548 118.012 117.638 118.012ZM86.3984 89.054H108.996C110.087 89.0479 110.969 88.1611 110.969 87.0698V66.9418C110.969 65.8519 110.085 64.9688 108.996 64.9688H86.3984C85.3086 64.9688 84.4254 65.8523 84.4254 66.9418V87.0698C84.4254 88.1611 85.3071 89.0479 86.3984 89.054ZM140.235 89.054H117.638C116.547 89.0479 115.665 88.1611 115.665 87.0698V66.9418C115.665 65.8523 116.548 64.9688 117.638 64.9688H140.235C141.327 64.9688 142.213 65.8501 142.219 66.9418V87.0698C142.213 88.1633 141.329 89.0479 140.235 89.054ZM171.75 118.012H149.153C148.063 118.012 147.18 117.128 147.18 116.038V95.9102V95.8991C147.18 94.8096 148.063 93.9261 149.153 93.9261H171.75C172.846 93.9261 173.734 94.8142 173.734 95.9102V116.039C173.728 117.13 172.842 118.012 171.75 118.012Z" fill="#2496ED"/>
</svg>
