<svg width="256" height="256" viewBox="0 0 256 256" fill="none" xmlns="http://www.w3.org/2000/svg">
<g clip-path="url(#clip0)">
<path d="M131.587 34H80.6566C79.4535 34 77.8494 34 76.6463 34.4008C73.8391 34.8017 71.834 37.6076 71.834 40.4135C71.834 43.6202 74.2402 46.0253 77.4484 46.0253C78.6514 46.0253 79.8545 46.0253 81.4586 46.0253H172.491C180.512 46.0253 188.933 46.4261 196.553 48.8312C216.604 54.443 231.442 66.4683 239.462 86.1096C244.676 98.9366 245.077 112.565 243.473 126.194C241.066 145.835 234.249 163.873 220.614 178.304C201.365 199.147 176.902 208.768 148.43 209.569C143.617 209.569 139.206 209.569 134.394 209.569C130.384 209.97 127.977 212.776 127.977 216.384C128.378 219.991 130.384 221.995 134.795 221.995C144.82 221.995 155.247 221.995 165.273 220.793C195.35 215.983 219.411 201.953 236.655 176.7C247.884 160.266 253.498 142.228 255.503 122.185C256.706 108.958 255.904 95.7298 251.092 82.9029C240.665 54.443 212.193 34.4008 180.512 34H131.587ZM100.307 179.105H153.242C177.705 179.105 198.558 165.076 207.38 142.228C211.792 130.202 213.396 118.177 209.385 105.751C203.771 88.5147 187.73 77.2911 169.684 77.2911H60.6053C59.4022 77.2911 58.6002 77.2911 57.3971 77.2911C54.1889 77.6919 52.5848 80.4978 52.9859 83.7045C53.3869 86.9113 54.991 88.5147 57.7981 88.9155C61.4074 89.3163 65.0166 89.7172 68.6258 89.7172H170.085C179.71 89.7172 187.329 93.7256 193.344 101.342C198.558 108.156 199.761 115.772 198.959 124.591C197.756 135.413 193.745 145.034 186.527 152.65C178.106 161.869 166.877 166.679 154.445 166.679H46.9705C44.9654 166.679 42.9602 166.679 40.9551 167.08C38.1479 168.282 36.5438 170.287 36.9449 173.493C37.3459 176.7 39.351 178.304 42.5592 178.704C43.7623 178.704 44.9654 178.704 46.1684 178.704L100.307 179.105ZM19.2998 88.9155C23.7111 88.9155 28.5233 88.9155 32.9346 88.9155C36.1428 88.9155 38.1479 86.9113 38.549 83.7045C38.95 80.4978 36.9449 78.0927 33.7367 77.2911C32.1326 76.8902 30.1274 76.4894 28.5233 76.8902H11.6803C9.67519 76.8902 7.67007 76.8902 5.26392 77.2911C1.6547 78.0927 -0.350422 80.8986 0.0506022 83.7045C0.451627 86.5104 3.2588 89.3163 6.467 89.3163L19.2998 88.9155ZM95.4945 222.396H107.124C111.134 222.396 113.541 219.991 113.541 216.784V216.384C113.541 213.177 111.134 210.371 107.926 210.371C99.5047 209.569 91.0832 209.569 82.6617 210.371C79.4535 210.772 76.6463 213.578 77.0473 217.185C77.4484 220.392 79.8545 222.396 83.8648 222.396H95.4945Z" fill="#29F1FB"/>
</g>
<defs>
<clipPath id="clip0">
<rect width="256" height="256" fill="white"/>
</clipPath>
</defs>
</svg>
