<svg width="24" height="19" xmlns="http://www.w3.org/2000/svg"><g fill-rule="nonzero" fill="none"><path fill="#AECBFA" d="M0 0h24v8.307H0z"/><path fill="#669DF6" d="M21.597 0H24v8.307h-2.403z"/><path fill="#4285F4" d="M23.991 0h-2.394v8.316z"/><path fill="#669DF6" d="M0 0h2.403v8.307H0z"/><path fill="#FFF" d="M4.796 3.561h7.199v1.184H4.796z"/><rect fill="#FFF" x="15.595" y="2.377" width="3.6" height="3.561" rx="1.35"/><path fill="#AECBFA" d="M0 10.684h24v8.307H0z"/><path fill="#669DF6" d="M21.597 10.684H24v8.307h-2.403z"/><path fill="#4285F4" d="M23.991 10.684h-2.394V19z"/><path fill="#669DF6" d="M0 10.684h2.403v8.307H0z"/><path fill="#FFF" d="M4.796 14.246h7.199v1.184H4.796z"/><rect fill="#FFF" x="15.595" y="13.061" width="3.6" height="3.561" rx="1.35"/></g></svg>