<svg width="256" height="256" viewBox="0 0 256 256" fill="none" xmlns="http://www.w3.org/2000/svg">
<path d="M43.1934 59.6293L72.4902 65.2488V112.39L43.1934 110.829V59.6293Z" fill="#F58536"/>
<path d="M183.444 112.39L212.429 110.829L233.934 113.015L206.508 113.951L183.444 112.39Z" fill="#6B3A19"/>
<path d="M212.741 110.829L183.444 112.39V81.1707L213.053 76.8V110.829H212.741Z" fill="#9D5025"/>
<path d="M127.967 128H22V165.776L127.967 192.937V128Z" fill="#9D5025"/>
<path d="M127.967 256L96.177 240.078V208.234L127.967 219.785V256Z" fill="#9D5025"/>
<path d="M127.967 102.4L96.177 105.522V15.922L127.967 0V102.4Z" fill="#9D5025"/>
<path d="M43.1934 59.6293L22 68.0585V113.015L43.1934 110.829V59.6293Z" fill="#9D5025"/>
<path d="M127.967 192.937L233.934 165.776V128H127.967V192.937Z" fill="#F58536"/>
<path d="M127.967 102.4L159.757 105.522V15.922L127.967 0V102.4Z" fill="#F58536"/>
<path d="M212.741 110.829L233.934 113.015V82.7317L212.741 76.4878V110.829Z" fill="#F58536"/>
<path d="M127.967 256L159.757 240.078V208.234L127.967 219.785V256Z" fill="#F58536"/>
<path d="M96.177 208.234L127.967 219.785L159.757 208.234L127.967 199.493L96.177 208.234Z" fill="#FBBF93"/>
<path d="M159.757 105.522L127.967 108.02L96.177 105.522L127.967 102.4L159.757 105.522Z" fill="#6B3A19"/>
<path d="M72.4903 112.39L49.7385 113.951L22 113.015L42.8818 110.829L72.4903 112.39Z" fill="#6B3A19"/>
</svg>
