<svg width="256" height="256" viewBox="0 0 256 256" fill="none" xmlns="http://www.w3.org/2000/svg">
<g clip-path="url(#clip0_3858_38367)">
<path d="M170.249 85.262L192.502 63.0089L193.98 53.6428C153.435 16.7651 88.9782 20.9516 52.4164 62.3657C42.2604 73.8646 34.7336 88.2072 30.7164 103.024L38.6832 101.895L83.1893 94.5604L86.6197 91.0509C106.413 69.3057 139.894 66.383 162.745 84.8783L170.249 85.262Z" fill="#EA4335"/>
<path d="M224.212 102.358C219.1 83.5242 208.594 66.5862 193.992 53.6316L162.756 84.8671C175.948 95.6438 183.452 111.871 183.136 128.899V134.44C198.483 134.44 210.93 146.887 210.93 162.234C210.93 177.58 198.483 189.723 183.136 189.723H127.47L122.008 195.658V229.004L127.47 234.24H183.136C223.061 234.556 255.684 202.745 256 162.82C256.192 138.615 244.253 115.922 224.212 102.358Z" fill="#4285F4"/>
<path d="M71.871 234.24H127.47V189.734H71.871C67.9327 189.734 64.0508 188.876 60.4736 187.24L52.5858 189.655L30.1748 211.908L28.2225 219.48C40.7935 228.97 56.1291 234.308 71.871 234.24Z" fill="#34A853"/>
<path d="M71.8709 89.8662C31.9351 90.1031 -0.236971 122.67 3.7729e-06 162.606C0.135418 184.904 10.551 205.893 28.2225 219.491L60.4736 187.24C46.4808 180.921 40.2631 164.457 46.5824 150.464C52.9017 136.471 69.3658 130.253 83.3586 136.573C89.5199 139.36 94.4625 144.291 97.2498 150.464L129.501 118.213C115.779 100.27 94.4512 89.7872 71.8709 89.8662Z" fill="#FBBC05"/>
</g>
<defs>
<clipPath id="clip0_3858_38367">
<rect width="256" height="256" fill="white"/>
</clipPath>
</defs>
</svg>
