<svg width="256" height="256" viewBox="0 0 256 256" fill="none" xmlns="http://www.w3.org/2000/svg">
<g clip-path="url(#clip0)">
<path d="M94.3385 74.2829L77.3175 77.0479L61.7875 83.8569L48.5965 92.1539L36.0436 107.472L28.9526 114.983L22.0946 117.511L20.2816 113.078L23.4526 108.501L24.1646 102.046L26.2886 102.132L28.6096 104.249L27.9836 97.6729L25.4106 95.9469L25.4896 93.4409L19.3956 96.8889L13.8776 103.4L12.7256 109.219L15.0866 113.879L17.2876 121.795L21.7636 123.914L26.4726 123.683L30.9376 121.089L27.9586 136.195L30.9376 153.002L27.6586 160.763L16.9196 172.333L18.8286 179.246L23.9166 187.256L33.5086 194.006L38.5966 194.703L44.2536 194.895L40.7236 209.383L53.7025 214.701L69.8715 216.829L75.4025 213.213L75.8285 203.425L81.9995 193.213L82.4245 185.128L97.3175 186.192L111.146 184.916L97.3175 193.213L99.6585 203.213L108.381 216.829L116.891 220.446L123.699 217.68L126.464 212.149L140.719 201.298L143.485 203.638L165.825 204.489L170.292 200.873L170.717 194.489L169.229 191.725L168.164 174.491L160.718 159.598L161.995 153.002L166.462 155.343L179.015 167.044L185.185 167.47L191.993 164.704L198.802 159.598L202.205 148.534L222.205 149.811L234.332 145.131L244.119 135.982L251.14 122.791L252.841 107.26L251.352 89.1749L247.523 73.0069L243.693 67.9009L238.375 66.1979L229.013 76.4099L220.503 79.3889L213.056 67.0489L205.61 60.2409L201.567 57.6879L185.397 44.2839L172.42 37.263L159.441 36.2L144.336 38.7529L131.145 43.6449L121.996 51.0919L114.763 59.8149L107.317 61.9429L94.3385 74.2829Z" fill="#FFFF00"/>
<path d="M44.9745 112.681C30.3955 129.686 33.6345 150.309 37.6745 170.516C35.5185 165.067 33.3615 159.618 31.2055 154.172C30.4105 149.177 29.6155 144.182 28.8215 139.187C29.0485 134.079 29.2745 128.972 29.5025 123.865C31.5455 118.985 33.5885 114.104 35.6315 109.223C38.6955 104.683 41.7605 100.143 44.8255 95.6019C49.5925 91.63 54.3605 87.657 59.1275 83.685C64.3475 81.528 69.5695 79.372 74.7905 77.215C80.9195 76.421 87.0485 75.627 93.1785 74.832C87.5025 81.301 81.8275 87.771 76.1525 94.24C62.4815 98.6739 54.4205 101.661 44.9745 112.681Z" fill="#FFFFCC"/>
<path d="M113.609 60.87C103.474 70.759 97.9366 78.217 91.4866 89.795C86.8736 98.078 81.6976 106.055 76.8466 114.222C74.3936 118.356 74.1616 121.822 73.4276 126.589C71.0446 123.752 68.6616 120.914 66.2776 118.077C67.4136 114.671 68.5476 111.266 69.6826 107.861C73.5416 100.937 77.4016 94.013 81.2606 87.09C89.4326 79.031 97.6056 70.973 105.778 62.914C108.388 62.232 110.999 61.552 113.609 60.87Z" fill="#FFFFCC"/>
<path d="M163.664 36.354C155.545 39.397 142.064 40.4 141.129 49.717C140.463 56.334 141.628 59.659 145.616 66.66C135.765 56.465 133.329 58.043 114.289 61.211C117.014 57.352 119.738 53.493 122.461 49.634C127.228 46.682 131.996 43.731 136.763 40.78C142.892 39.418 149.022 38.056 155.151 36.694C157.988 36.581 160.826 36.468 163.664 36.354Z" fill="#FFFFCC"/>
<path d="M186.064 162.385C188.766 164.053 188.708 165.262 188.256 166.405C190.388 165.552 192.52 164.699 194.651 163.848C196.033 161.993 197.413 160.139 198.795 158.284C199.82 155.641 200.845 153 201.87 150.357C200.56 149.372 199.251 148.387 197.94 147.402C192.215 148.132 186.49 148.863 180.764 149.595C180.339 150.751 179.912 151.909 179.485 153.067C179.607 154.711 179.73 156.356 179.851 158C180.399 158.975 180.948 159.949 181.496 160.924C182.349 161.35 183.201 161.777 184.054 162.203C184.725 162.263 185.394 162.325 186.064 162.385Z" fill="#CCCC00"/>
<path d="M184.465 133.011C175.855 135.496 175.922 136.181 173.38 144.723C176.736 139.338 179.221 136.62 184.465 133.011Z" fill="#CCCC00"/>
<path d="M241.712 69.092C240.182 69.799 238.691 70.139 237.735 71.539C235.675 74.553 233.91 77.088 230.504 79.203C228.788 80.269 227.014 80.959 225.195 81.527C223.686 81.996 222.779 81.576 221.495 82.5C222.257 82.632 223.019 82.766 223.781 82.899H228.821C230.892 81.62 232.963 80.341 235.034 79.063C236.253 77.783 237.471 76.504 238.689 75.225C239.696 73.181 240.704 71.135 241.712 69.092Z" fill="#CCCC00"/>
<path d="M104.567 88.1979C101.18 97.4669 98.2203 105.412 93.0903 113.803C99.6643 106.719 103.65 100.698 107.416 92.6889C108.879 89.5779 109.155 85.9269 113.23 87.2839C113.413 90.3919 114.07 93.4969 114.252 96.6029C116.454 80.823 122.662 74.223 137.093 68.098C133.012 68.586 128.931 69.073 124.851 69.56C121.013 70.413 117.176 71.266 113.338 72.118C111.45 74.859 109.561 77.601 107.674 80.341C106.638 82.9599 105.603 85.5789 104.567 88.1979Z" fill="#CCCC00"/>
<path d="M132.524 87.8329C135.637 102.48 140.118 116.538 142.064 131.418C143.328 141.087 143.466 145.732 138.602 154.074C133.285 153.73 129.984 154.329 124.841 156.015C104.369 162.726 92.6275 172.594 78.8325 152.711C83.2365 154.786 87.6405 156.861 92.0445 158.937C95.1835 158.32 98.3225 157.704 101.461 157.085C107.004 153.858 112.547 150.629 118.09 147.402C122.414 146.549 126.739 145.696 131.063 144.843C132.464 138.997 133.865 133.149 135.266 127.302C134.23 119.566 133.194 111.831 132.159 104.095C132.038 100.441 131.916 96.7869 131.794 93.1319C132.038 91.3649 132.282 89.5989 132.524 87.8329Z" fill="#CCCC00"/>
<path d="M167.791 178.465C166.071 190.365 171.751 196.762 169.399 200.049C168.733 200.979 167.831 202.603 166.824 203.049C163.225 204.638 158.277 202.751 157.924 203.681H146.047C144.463 203.011 142.88 202.341 141.296 201.671C143.732 198.808 146.168 195.945 148.605 193.083C150.98 187.907 153.356 182.729 155.731 177.551C157.254 172.313 158.777 167.075 160.299 161.837H162.675C164.38 167.38 166.086 172.922 167.791 178.465Z" fill="#CCCC00"/>
<path d="M147.828 143.87C148.793 149.273 150.469 150.557 153.01 155.787C151.318 164.32 148.601 174.467 145.33 181.996C143.951 185.171 142.838 186.922 140.405 189.376C136.3 193.522 132.15 197.132 127.494 200.726C124.142 203.309 121.803 202.014 117.668 201.428C115.909 204.616 115.424 206.387 112.187 208.006C107.209 210.494 102.755 205.132 98.8474 201.976C101.668 206.382 104.489 210.787 107.308 215.193C109.258 217.021 111.207 218.846 113.156 220.674C114.8 220.917 116.445 221.162 118.09 221.406C120.282 220.066 122.475 218.725 124.667 217.385C125.825 215.193 126.982 213 128.139 210.808C130.576 208.98 133.013 207.153 135.448 205.325C138.433 202.768 141.418 200.209 144.402 197.651C146.291 194.971 148.178 192.292 150.067 189.611C151.772 186.444 153.477 183.277 155.182 180.11C157.376 173.532 159.568 166.953 161.762 160.376C161.944 157.878 162.126 155.381 162.309 152.883C159.568 151.666 156.828 150.446 154.086 149.228C152.076 147.341 149.838 145.758 147.828 143.87Z" fill="#CCCC00"/>
<path d="M82.2755 181.937C91.4975 181.937 101.238 181.425 109.685 177.551C112.075 173.966 114.434 171.037 117.358 167.868C114.697 172.895 113.862 175.737 113.156 181.389C112.242 182.729 111.329 184.068 110.415 185.409C103.472 185.591 96.5285 185.774 89.5845 185.957C87.3305 185.712 85.0775 185.469 82.8235 185.226C82.5795 184.981 82.3365 184.738 82.0925 184.495C82.1545 183.642 82.2155 182.789 82.2755 181.937Z" fill="#CCCC00"/>
<path d="M80.9964 175.542C80.7584 173.38 80.5194 171.217 80.2804 169.053C78.7054 178.537 79.0834 184.894 74.7184 193.39C71.4584 197.167 67.4434 200.604 62.8454 202.444C63.2344 204.773 63.3504 206.23 63.1244 207.937C62.3144 214.08 50.0264 211.366 44.9714 211.121C53.0824 213.21 61.1914 215.297 69.3014 217.385C71.1294 216.654 72.9554 215.924 74.7834 215.193C75.3934 211.661 76.0024 208.127 76.6114 204.595C78.3164 201.428 80.0224 198.259 81.7274 195.094C82.0314 193.143 82.3364 191.196 82.6414 189.246C82.0924 184.678 81.5454 180.11 80.9964 175.542Z" fill="#CCCC00"/>
<path d="M67.2917 122.003C67.0377 126.615 66.7397 128.537 68.7727 132.61C71.3577 137.786 74.5327 142.651 77.3417 147.767C77.6467 144.355 77.9507 140.945 78.2557 137.534C74.6017 132.356 70.9467 127.18 67.2917 122.003Z" fill="#CCCC00"/>
<path d="M29.7824 156.839C28.9904 158.522 28.2004 160.206 27.4084 161.89C29.5854 169.223 31.5214 173.868 35.6664 180.274C34.9444 182.869 34.4044 184.005 32.7434 186.12C29.0954 185.56 25.8554 185.397 22.1584 185.409C26.2394 188.575 30.3204 191.744 34.4014 194.911C36.4104 194.544 38.4214 194.179 40.4314 193.814C42.4404 191.804 44.4514 189.794 46.4614 187.784C43.5984 183.337 40.7354 178.892 37.8734 174.445C35.1754 168.577 32.4784 162.707 29.7824 156.839Z" fill="#CCCC00"/>
<path d="M241.738 66.666C244.224 77.8469 247.43 88.1659 247.132 99.6179C246.767 113.668 244.029 131.416 231.011 139.888C216.432 149.377 199.318 144.889 183.322 140.823C189.84 143.504 196.358 146.183 202.874 148.863C208.965 149.168 215.056 149.473 221.147 149.776C225.289 148.559 229.431 147.341 233.572 146.123C236.8 143.442 240.029 140.763 243.257 138.082C245.693 132.966 248.129 127.85 250.566 122.734C251.48 116.825 252.393 110.917 253.306 105.009C252.576 99.2219 251.844 93.4359 251.114 87.6499C249.774 81.9249 248.433 76.1989 247.094 70.474C245.309 69.204 243.524 67.935 241.738 66.666Z" fill="#CCCC00"/>
<path d="M24.1744 99.9919C17.5564 104.3 14.9564 106.191 15.6824 114.175C16.3414 116.566 17.0014 118.957 17.6604 121.348C18.5954 121.981 19.5294 122.613 20.4634 123.245C21.6184 123.63 22.7724 124.014 23.9274 124.399C26.0164 123.905 28.1054 123.41 30.1934 122.915C31.2664 119.589 32.3384 116.264 33.4094 112.938C30.4414 114.395 27.4724 115.852 24.5044 117.309H22.4434C21.6744 116.127 20.9044 114.945 20.1344 113.763C21.0694 112.388 22.0034 111.015 22.9384 109.64C23.4334 107.029 23.9274 104.418 24.4224 101.807C25.0544 101.999 25.6864 102.192 26.3184 102.383C27.0884 102.989 27.8574 103.594 28.6274 104.197C28.5174 102.824 28.4074 101.449 28.2974 100.075C27.7754 99.1959 27.2524 98.3159 26.7304 97.4369C26.2084 96.9959 25.6864 96.5569 25.1644 96.1169C24.8344 97.4089 24.5044 98.7009 24.1744 99.9919Z" fill="#CCCC00"/>
<path d="M172.662 37.082C178.536 42.537 185.745 47.278 190.444 53.944C192.262 56.5239 194.282 57.8439 190.413 61.4889C194.501 60.3209 196.02 60.4479 199.293 60.8439C205.246 61.5649 210.826 70.0279 211.181 76.0919C211.111 76.6589 209.528 77.9469 204.925 79.2179C204.834 79.3949 202.327 78.8749 202.389 79.0449C202.868 80.3529 203.507 80.5539 204.483 81.1659C204.695 82.6219 204.831 84.8669 205.823 86.4589C208.719 86.4069 211.55 86.7229 214.386 87.2839C215.34 88.8679 215.197 90.4509 215.117 92.0349C216.213 91.8529 217.309 91.6699 218.406 91.4879C218.102 88.9899 217.797 86.4929 217.493 83.9959C218.467 82.3509 219.441 80.7059 220.416 79.0629C219.015 75.8939 217.614 72.7279 216.213 69.5599C213.534 67.0019 210.854 64.4439 208.173 61.8859C207.916 61.8729 207.656 61.8599 207.4 61.8469C204.385 59.9969 201.372 58.1479 198.358 56.2979C193.442 52.276 188.527 48.255 183.611 44.233C179.961 41.849 176.312 39.466 172.662 37.082Z" fill="#CCCC00"/>
<path d="M182.557 82.1039C182.247 82.6459 181.779 83.5119 181.18 84.1119C183.626 86.4259 184.833 87.9759 185.706 91.2489C182.94 92.6219 180.174 93.9959 177.409 95.3679C175.068 97.6119 172.727 99.8559 170.388 102.099C167.307 100.441 166.54 99.1679 165.049 96.0059C163.313 96.4659 161.669 96.9079 160.235 96.3819C161.145 96.3889 161.703 96.1619 162.612 95.5999C164.101 94.0529 165.591 92.5059 167.08 90.9589C169.71 88.9669 172.341 86.9739 174.971 84.9819C176.693 84.4209 178.414 83.8599 180.136 83.2989C180.793 83.0289 181.899 82.3749 182.557 82.1039Z" fill="#CCCC00"/>
<path d="M190.191 90.358C181.392 95.096 172.964 99.861 168.465 108.859C168.465 97.438 179.933 92.41 190.191 90.358Z" fill="#CCCC00"/>
<path d="M166.718 67.89C160.184 72.3449 155.564 81.3359 156.144 90.0979C154.016 82.5109 154.77 75.3419 161.305 70.102C162.408 69.566 163.51 69.029 164.613 68.494C165.315 68.293 166.016 68.092 166.718 67.89Z" fill="#CCCC00"/>
<path d="M254.648 88.5759C253.462 81.1039 251.498 73.8509 248.772 68.6359C248.44 67.9979 247.936 67.3519 247.312 66.7349C245.958 65.3999 243.953 64.1359 241.882 63.4239C239.687 62.6689 237.373 62.5149 235.536 63.4749C235.059 63.7249 234.616 64.0469 234.221 64.4479C233.031 65.6539 232.028 67.1179 231.023 68.5859C229.905 70.2199 228.781 71.8619 227.436 73.0099C225.877 74.3429 223.926 75.1519 222.086 75.8909C221.279 73.9399 220.351 72.1549 219.302 70.4789C218.044 68.4729 216.612 66.5949 215.036 64.7159C213.748 63.1829 212.495 62.0309 211.139 60.9989C209.781 59.9619 208.389 59.0889 206.769 58.0749C202.424 55.3539 198.725 52.1099 194.952 48.799C193.239 47.295 191.507 45.777 189.813 44.38C180.829 36.972 172.448 33.379 163.485 32.815C154.583 32.255 145.183 34.701 134.085 39.373C128.729 41.627 124.751 44.291 121.286 47.494C117.976 50.557 115.166 54.0819 112.077 58.1989C110.279 58.3269 108.688 58.5929 107.062 59.2439C105.271 59.9599 103.468 61.1199 101.308 63.0269C99.7746 64.3779 98.3076 65.7389 96.8896 67.1099C95.5616 68.3939 94.2726 69.7009 93.0016 71.0219C82.8976 72.6449 74.6656 74.4369 67.2936 77.2929C59.7546 80.2129 53.1086 84.2309 46.2826 90.2839C43.4936 92.7559 41.0796 95.3689 38.9667 98.1369C36.8907 100.856 35.1137 103.715 33.5547 106.73C32.1887 108.241 30.8217 109.766 29.3407 111.1C27.8967 112.4 26.3577 113.495 24.6337 114.159L24.6347 114.16C23.6317 114.546 23.2167 114.772 23.1717 114.757C23.1217 114.729 23.0937 114.579 23.0227 114.302C25.4997 111.938 25.8887 108.466 26.1177 105.018C26.4147 105.374 26.7007 105.812 26.9967 106.269C27.3237 106.774 27.6587 107.295 28.0607 107.802L29.7417 109.923L30.3327 107.277C30.8287 105.06 31.1997 102.107 30.6217 99.5469C30.2477 97.8859 29.4767 96.4049 28.1337 95.3559C28.2627 95.0199 28.3837 94.7109 28.5037 94.4059C28.9257 93.3269 29.3597 92.2199 29.7287 91.1739L30.4567 89.0999L28.2887 89.4759C25.4037 89.9769 19.2027 93.3849 14.8367 97.9159C13.2147 99.5989 11.8207 101.459 10.9057 103.411C9.95368 105.442 9.52768 107.567 9.89668 109.694C10.2187 111.553 11.1487 113.377 12.8387 115.099C13.1467 116.34 13.4307 117.417 13.7347 118.389C14.0827 119.495 14.4577 120.484 14.9267 121.457C16.1977 124.1 18.2237 125.714 20.5677 126.467C22.4527 127.072 24.5367 127.102 26.5807 126.655C26.1817 128.965 25.9297 131.38 25.8317 134.018C25.7027 137.467 25.8287 141.277 26.2087 145.698C26.2917 146.668 26.4167 147.736 26.5787 148.896C26.7187 149.886 26.8857 150.858 27.0657 151.823C26.6837 152.865 26.2997 153.909 25.9167 154.951C25.3217 156.569 24.7267 158.189 24.1327 159.807C22.8237 161.104 21.5147 162.401 20.2067 163.697C18.9857 164.904 17.7637 166.115 16.5427 167.325C16.4417 167.426 16.0297 167.821 15.6567 168.181C13.1817 170.562 12.6917 171.035 13.3947 175.226C13.8237 177.794 14.6687 180.396 15.9877 182.905C17.2027 185.219 18.8327 187.472 20.9247 189.57C23.5357 192.187 27.8137 195.437 32.2927 197.139C34.8527 198.112 37.4917 198.587 39.9676 198.19C39.8417 198.571 39.7187 198.951 39.5797 199.335C39.1897 200.412 38.7547 201.49 38.2737 202.545C35.2357 209.206 38.3547 212.684 43.2096 214.898C45.6336 216.003 48.5156 216.753 51.1936 217.452C51.7416 217.593 52.2896 217.737 52.9796 217.923C56.1536 218.781 61.6356 220.356 66.6426 220.672C72.1076 221.018 77.0366 219.89 78.3576 214.984C78.8806 213.04 79.1846 211.55 79.3076 210.092C79.4216 208.739 79.3776 207.371 79.2196 205.679C80.7776 202.226 81.4386 201.255 82.5776 199.589C82.8006 199.26 83.0706 198.866 83.1516 198.742C84.3736 196.932 84.9456 195.647 85.1536 194.2C85.3536 192.804 85.1846 191.413 84.9316 189.286C84.9076 189.084 84.8706 188.789 84.8186 188.399C88.0176 188.809 91.1716 189.029 94.3076 189.049C95.8996 189.059 97.4906 189.012 99.0816 188.928C98.6756 189.137 98.2766 189.343 97.8406 189.567C97.6476 189.666 97.4486 189.769 97.2486 189.872C93.0286 192.042 92.8526 196.153 94.1736 200.382C95.3646 204.196 97.8156 208.09 99.3536 210.459C102.587 215.441 105.672 219.658 109.412 221.95C113.333 224.353 117.812 224.636 123.594 221.507C126.535 219.914 127.463 218.291 128.712 216.103C129.094 215.435 129.516 214.707 129.985 213.989C131.201 213.184 134.225 210.69 137.194 208.235C138.204 207.4 139.214 206.568 140.354 205.64C141.139 206.217 142.087 206.618 143.232 206.891C144.72 207.247 146.492 207.408 148.615 207.56C150.204 207.677 155.386 207.673 158.734 207.672C159.768 207.672 160.627 207.672 161.142 207.675C164.598 207.696 167.388 207.514 169.496 206.32C171.743 205.046 173.075 202.79 173.366 198.744C173.493 196.947 173.516 195.839 173.267 194.707C173.034 193.647 172.579 192.687 171.798 191.281C171.751 189.533 171.704 187.784 171.658 186.036C171.609 184.181 171.558 182.325 171.509 180.471C171.45 178.284 171.209 176.508 170.765 174.76C170.325 173.024 169.697 171.354 168.856 169.351C168.286 167.996 167.824 166.751 167.372 165.53L166.159 165.974L166.346 165.905L167.372 165.53V165.525C166.649 163.575 165.936 161.677 164.938 159.646C165.003 159.254 165.068 158.833 165.131 158.383C165.773 159.003 166.416 159.622 167.058 160.24L169.899 162.978C172.066 165.065 174.047 166.963 176.374 168.335C178.78 169.755 181.486 170.579 184.99 170.413C188.658 170.24 192.583 168.695 195.815 166.311C198.941 164.003 201.449 160.891 202.496 157.447C202.799 156.451 203.102 155.454 203.404 154.459C203.645 153.665 203.887 152.869 204.128 152.074C209.272 152.946 214.793 153.227 220.126 152.669C225.272 152.128 230.244 150.818 234.531 148.531C240.834 145.168 245.559 140.214 248.955 134.332L248.957 134.333C252.752 127.759 254.877 120.013 255.685 112.042C256.332 105.649 255.979 96.9579 254.648 88.5759ZM188.002 142.303C185.038 141.306 182.977 139.85 180.372 138.209C181.081 141.404 181.404 144.783 180.46 147.973C178.962 153.034 176.543 161.314 183.414 162.842C186.03 163.423 187.216 163.339 190.908 161.434C187.92 162.111 186.413 161.945 184.359 161.564C182.498 161.222 181.511 160.04 180.991 158.646C181.641 159.115 182.702 159.37 184.514 159.807C189.608 161.035 194.462 158.582 195.411 155.05C195.965 152.986 195.871 151.902 197.044 149.089C198.098 149.415 199.188 149.711 200.305 149.982C199.674 152.039 199.044 154.098 198.413 156.155C196.776 161.496 190.396 165.802 184.765 165.704C179.558 165.612 176.257 162.351 172.662 159.153C170.186 156.948 167.803 154.841 165.441 152.753C158.961 150.708 153.767 148.319 147.753 143.867C152.033 148.896 154.936 151.681 160.905 154.184C160.037 163.039 156.96 169.495 154.336 177.969C153.148 181.8 143.774 197.155 141.176 198.652C139.324 199.719 127.721 209.491 125.539 210.781C123.913 212.94 122.486 215.923 120.042 217.214C112.595 221.152 107.809 213.612 103.802 207.244C101.977 204.342 96.9096 195.986 101.327 193.645C105.504 191.434 107.843 189.853 112.104 187.055C112.73 188.196 113.804 189.298 114.504 190.438C114.35 189.191 114.195 187.945 114.039 186.697C113.759 184.438 113.77 182.604 113.95 180.331C114.124 178.131 114.296 175.93 114.469 173.729C113.828 175.966 112.547 178.203 111.907 180.439C111.651 181.334 111.439 182.057 111.317 182.727C101.756 184.681 92.2636 184.803 82.6996 183.097C82.0896 179.556 81.3466 175.867 80.7236 173.222C80.5346 176.184 80.6566 184.373 80.6406 188.959C80.6286 192.511 80.4796 193.727 78.6476 196.75C76.9326 199.578 76.2066 200.221 73.8046 205.001C74.0046 208.018 74.0086 210.011 73.2076 212.874C71.8746 217.634 58.4296 213.946 54.8836 212.975C50.5156 211.779 41.4867 210.003 43.7576 204.181C45.7556 199.056 47.0226 193.653 47.9986 186.483C39.9967 174.956 32.5557 159.159 31.1277 145.162C30.0187 134.295 30.6837 127.606 33.0357 120.958C36.7617 110.425 41.9757 101.308 50.3406 93.9659C61.6236 84.0649 72.1716 80.0889 88.6866 77.5749C84.7146 82.0209 80.7856 86.7219 76.5026 91.7629C72.1676 96.8659 69.5916 102.02 66.8386 107.602C63.0356 115.311 63.1176 118.245 68.1586 125.013C72.5026 130.846 74.8476 133.471 76.7446 139.179C75.1786 142.407 74.6086 145.136 74.0826 149.545C79.4016 155.36 83.3546 159.344 88.5196 160.571C93.5856 161.775 97.8156 161.542 102.349 159.226C112.415 154.079 121.729 147.433 133.085 147.159C138.338 134.244 137.807 123.452 135.285 110.956C133.562 102.422 132.871 94.3419 132.336 85.6419C130.206 94.6019 129.806 102.481 131.386 111.406C133.291 122.161 134.772 134.045 129.473 143.497C119.205 144.283 110.405 150.53 101.151 155.323C97.4306 157.25 93.5576 157.438 89.4406 156.308C85.6186 155.258 83.0396 152.729 78.9226 147.981C78.8576 143.213 79.9336 141.013 82.1226 136.695C85.6406 129.761 89.5226 123.307 93.7836 116.485C88.5666 122.782 83.6236 128.043 79.5176 134.374C77.9476 129.903 75.7036 127.632 71.9856 122.597C68.3546 117.679 67.9746 115.526 70.6896 109.834C73.4196 104.115 75.7346 99.0879 80.3816 94.0709C88.4106 85.3999 95.7656 75.7509 104.546 67.2109C109.314 62.5749 111.25 62.7349 117.573 61.7769C123.289 60.9099 128.869 59.8169 134.698 58.4629C129.061 58.9879 123.612 59.1809 118.123 59.3169C118.066 59.3189 118.01 59.3209 117.953 59.3219C123.353 52.4259 126.487 48.583 135.256 44.772C156.848 35.395 170.567 34.381 187.528 48.638C191.924 52.334 195.762 55.9209 200.219 59.1089C198.604 59.2469 197.21 59.5369 195.368 60.2599C197.611 59.8329 200.2 60.2559 202.527 60.6819C203.18 61.1059 203.851 61.5189 204.538 61.9239C207.684 63.7779 209.47 64.8019 211.598 67.7669C213.847 70.8999 215.722 74.0309 217.374 77.4819C216.291 77.0949 215.383 76.7679 214.574 76.5279C213.978 76.2539 213.33 76.0749 212.643 76.0079C211.282 75.8769 209.98 76.2119 208.895 76.8799C208.851 76.8999 208.808 76.9199 208.764 76.9409C207.023 77.7879 204.327 78.7539 202.523 79.0469C203.443 79.3649 205.479 79.4839 206.439 79.1039C206.567 79.0529 206.698 79.0139 206.832 78.9819C206.399 79.7189 206.117 80.5549 206.029 81.4599C205.915 82.6589 206.158 83.8089 206.673 84.8079C206.675 84.8109 206.676 84.8139 206.678 84.8189C206.841 85.2019 207.068 85.5549 207.316 85.8099C206.493 86.1139 205.65 86.4609 204.782 86.8379C208.806 86.2249 212.434 86.1199 216.361 86.6369C216.62 87.8749 216.881 89.1869 217.123 90.5209C216.636 90.5589 216.151 90.5959 215.664 90.6349C215.626 90.6379 215.585 90.6419 215.546 90.6459C213.688 89.1609 211.618 89.4099 208.79 90.0559C200.189 92.0169 202.21 96.8429 198.255 104.115C202.363 99.0929 202.057 93.8389 208.752 92.2529C210.312 91.8839 211.374 91.4209 212.43 91.5799C210.531 92.5359 208.886 94.1209 208.234 95.9609C206.396 101.15 207.537 105.522 205.518 110.369C208.019 106.036 208.171 101.808 210.406 97.2489C211.209 95.6119 214.189 92.9909 216.019 92.9509C216.522 92.9389 217.022 92.9289 217.525 92.9179C217.966 95.8019 218.234 98.6659 218.063 101.041C217.751 105.376 216.625 111.81 215.951 114.272C218.216 111.36 219.248 105.193 220.243 100.851C221.279 96.3309 221.017 90.9059 220.11 86.0499C218.866 79.3869 225.728 80.4709 229.712 77.3309C232.64 75.0219 234.657 71.3359 237.342 68.7239C240.005 66.1349 244.197 69.9399 245.245 72.4709C249.787 83.4599 251.856 100.749 250.657 111.827C249.31 124.257 243.306 137.827 232.343 143.947C218.366 151.748 201.887 146.982 188.002 142.303ZM168.143 197.512C167.687 202.641 165.978 202.98 161.474 202.901C159.428 202.865 151.28 202.828 149.212 202.65C146.291 202.398 144.651 202.137 143.758 201.471C148.348 198.102 156.147 184.191 157.667 179.402C159.275 174.343 161.035 169.927 162.344 165.251C162.946 167.205 163.422 169.142 164.298 171.218C165.761 174.687 166.476 176.831 166.581 180.552C166.691 184.478 166.802 188.405 166.913 192.331C168.17 194.532 168.366 195.002 168.143 197.512ZM30.0117 158.659C32.9267 168.741 37.8917 178.649 43.3966 186.978C43.3966 187.026 43.3956 187.074 43.3956 187.124C43.0496 188.556 42.6516 189.95 41.8146 191.07C37.8807 196.334 27.8727 188.607 24.9757 185.651C21.8097 182.417 19.6897 178.589 19.1847 174.997C18.8177 172.378 19.1747 172.314 21.0017 170.461C23.4647 167.967 25.9307 165.472 28.3927 162.979C28.9317 161.539 29.4717 160.098 30.0117 158.659ZM24.4457 95.2519C23.6987 96.8559 23.1687 98.0709 22.8077 99.3219C21.2387 104.741 23.5177 109.578 18.5977 113.506C20.9097 118.171 20.8037 120.031 26.1817 117.876C28.2557 117.044 29.9667 115.878 31.4937 114.499C30.7657 116.381 30.0907 118.323 29.4547 120.328C29.3487 120.66 29.2477 120.994 29.1497 121.325C25.3037 122.957 20.2457 123.994 18.3097 119.952C17.3697 117.99 16.8387 116.064 16.1537 113.585C9.81968 107.023 19.2877 98.3589 24.4457 95.2519ZM27.5587 102.203C26.7767 101.421 26.1507 100.891 25.1407 101.006C25.2257 100.343 25.3387 99.7039 25.4987 99.1029C25.5797 98.7939 25.6657 98.4909 25.7577 98.1869C27.0687 98.9509 27.4147 100.335 27.5587 102.203ZM217.475 77.6939C217.714 78.1979 217.949 78.7109 218.18 79.2299C217.989 79.3699 217.807 79.5179 217.637 79.6739C217.325 78.9439 216.872 78.2819 216.311 77.7279C216.689 77.7139 217.076 77.7019 217.475 77.6939ZM34.6197 107.479L34.6187 107.478L34.6197 107.479ZM14.0037 114.445H14.0047H14.0037ZM83.3086 186.896H83.3106H83.3086ZM140.394 203.938H140.393H140.394ZM163.595 159.84H163.596L163.595 159.841V159.84ZM25.0987 115.367V115.366L25.0977 115.367L25.0557 115.255L25.0987 115.367ZM247.819 133.676L247.849 133.694L247.819 133.676Z" fill="black"/>
<path d="M2.75053 113.789C3.75853 102.377 5.97753 97.45 14.0855 88.861C3.91553 96.028 1.37753 99.285 2.75053 113.789Z" fill="black"/>
<path d="M0.127549 104.467C1.24755 99.3309 2.29155 97.3929 5.45754 93.1769C0.320549 96.7659 -0.349451 98.2399 0.127549 104.467Z" fill="black"/>
<path d="M119.441 32.87C113.349 34.338 112.187 35.465 110.36 41.437C113.275 37.064 114.954 35.641 119.441 32.87Z" fill="black"/>
<path d="M129.049 32C116.965 34.962 113.414 37.068 109.4 51.073C114.502 40.816 118.366 37.039 129.049 32Z" fill="black"/>
<path d="M155.074 83.0549C156.362 77.3489 158.651 71.8499 167.513 67.5959C155.766 70.5379 153.564 75.4709 155.074 83.0549Z" fill="black"/>
<path d="M229.813 83.449C236.769 80.969 240.122 75.377 241.788 68.797C239.065 74.312 234.864 78.924 229.156 81.749C226.093 83.264 224.137 82.736 220.717 82.412C224.195 83.41 226.398 84.666 229.813 83.449Z" fill="black"/>
<path d="M182.427 89.041C181.5 87.098 179.876 85.706 177.996 85.017C179.702 84.106 181.378 83.149 182.686 81.96C178.856 83.733 174.397 83.3 171.111 85.52C168.216 87.475 164.221 93.6709 161.279 96.2979C163.41 95.4709 165.463 94.0409 167.352 92.533C167.36 93.654 167.606 94.7889 168.119 95.8649C168.885 97.4689 170.124 98.6959 171.591 99.4629C170.532 100.858 169.653 102.42 169.024 104.152C174.625 97.5139 182.746 92.501 190.381 90.357C188.247 90.327 185.72 90.726 183.146 91.5719C183.052 90.716 182.818 89.861 182.427 89.041Z" fill="black"/>
<path d="M174.368 139.198C174.096 140.917 173.723 143.053 173.451 144.773C174.178 142.827 175.054 140.566 175.9 138.711C176.798 136.748 177.303 136.563 179.207 135.527C180.557 134.792 183.009 133.782 184.359 133.047C182.97 133.281 180.48 133.792 179.091 134.026C175.38 134.653 174.943 135.544 174.368 139.198Z" fill="black"/>
<path d="M110.983 72.837C106.676 77.094 102.494 91.701 101.157 97.545C103.263 92.69 108.531 79.11 112.573 75.655C113.689 74.7 114.469 74.114 115.307 73.688C112.414 78.539 112.626 79.746 113.642 86.246C114.504 79.638 116.789 77.085 120.539 72.155C124.649 71.123 128.496 69.888 132.712 68.243C127.957 68.781 123.209 69.273 118.452 69.723C114.458 70.102 113.815 70.037 110.983 72.837Z" fill="black"/>
<path d="M169.651 97.7019C168.866 96.0599 169.568 94.0819 171.214 93.299C172.86 92.515 174.842 93.2149 175.627 94.8579C175.702 95.0139 175.761 95.1739 175.81 95.3339C174.238 96.5009 172.797 97.8749 171.588 99.4669C170.775 99.1399 170.054 98.5449 169.651 97.7019Z" fill="#FFFFCC"/>
<path d="M206.428 83.4749C206.56 82.1139 207.72 81.1109 209.08 81.2429C210.439 81.3749 211.444 82.5899 211.313 83.9499C211.284 84.2399 211.206 84.5109 211.089 84.7609C209.844 84.9739 208.599 85.3379 207.316 85.8099C206.78 85.2609 206.353 84.2589 206.428 83.4749Z" fill="#FFFFCC"/>
</g>
<defs>
<clipPath id="clip0">
<rect width="256" height="256" fill="white"/>
</clipPath>
</defs>
</svg>
