<svg width="256" height="256" viewBox="0 0 256 256" fill="none" xmlns="http://www.w3.org/2000/svg">
<path d="M103.548 22.7755C100.726 19.9396 96.7892 18.1883 92.4123 18.1883C88.052 18.1883 84.1454 19.9396 81.3566 22.7755H81.2763C78.4626 25.5975 76.7113 29.5373 76.7113 33.8976C76.7113 38.2745 78.4626 42.1811 81.2763 44.9865L81.3566 45.0502C84.1454 47.8722 88.052 49.6069 92.4123 49.6069C96.7892 49.6069 100.726 47.8722 103.548 45.0502L103.59 44.9865C106.417 42.1811 108.152 38.2745 108.152 33.8976C108.152 29.5373 106.417 25.5975 103.59 22.7755H103.548ZM92.4123 237.812C96.7892 237.812 100.726 236.03 103.548 233.241L103.59 233.158C106.417 230.375 108.152 226.435 108.152 222.105C108.152 217.728 106.417 213.805 103.59 210.969H103.548C100.726 208.1 96.7892 206.365 92.4123 206.365C88.052 206.365 84.1454 208.1 81.3566 210.969H81.2763C78.4626 213.805 76.7113 217.728 76.7113 222.105C76.7113 226.435 78.4626 230.375 81.2763 233.158L81.3566 233.241C84.1454 236.03 88.052 237.812 92.4123 237.812ZM178.003 190.219C181.896 189.198 185.42 186.7 187.57 182.923L187.861 182.373C189.772 178.79 190.121 174.656 189.1 170.993C188.071 167.07 185.542 163.601 181.774 161.429L181.555 161.282C177.884 159.271 173.701 158.833 169.858 159.871C165.951 160.845 162.443 163.454 160.304 167.2C158.138 170.91 157.684 175.19 158.722 179.13C159.793 183.003 162.296 186.506 166.04 188.694H166.065C169.816 190.85 174.066 191.24 178.003 190.219ZM108.534 111.902C104.406 107.785 98.7176 105.207 92.4123 105.207C86.1319 105.207 80.4574 107.785 76.3378 111.902C72.2375 116.005 69.7088 121.679 69.7088 127.968C69.7088 134.273 72.2375 139.965 76.3378 144.115C80.4574 148.198 86.1319 150.76 92.4123 150.76C98.7176 150.76 104.406 148.198 108.534 144.115C112.642 139.965 115.171 134.273 115.171 127.968C115.171 121.679 112.642 116.005 108.534 111.902ZM99.4701 85.1258C108.606 86.6309 116.826 91.0078 123.098 97.3298H123.148C124.144 98.3341 125.117 99.4214 126.017 100.523L141.701 91.4477C139.593 85.076 139.496 78.4138 141.189 72.1721C143.427 63.8056 148.85 56.3162 156.979 51.6156L157.247 51.4551C165.287 46.8983 174.428 45.9577 182.681 48.1959C191.037 50.4314 198.576 55.879 203.268 64.0021V64.0187C207.939 72.0919 208.888 81.3631 206.658 89.6964C204.436 98.0574 198.988 105.597 190.868 110.264L188.727 111.531H188.508C180.997 115.111 172.735 115.665 165.149 113.67C158.918 112.015 153.202 108.546 148.728 103.602L133.069 112.649C134.867 117.413 135.866 122.554 135.866 127.968C135.866 133.366 134.867 138.57 133.069 143.368L148.728 152.382C153.202 147.374 158.918 143.968 165.149 142.314C173.504 140.028 182.77 141.002 190.868 145.719L191.385 145.963V145.996C199.21 150.727 204.461 158.056 206.658 166.323C208.888 174.606 207.939 183.88 203.268 191.97L202.986 192.537L202.953 192.488C198.261 200.287 190.868 205.571 182.706 207.807C174.332 210.012 165.069 209.071 156.979 204.42V204.354C148.85 199.653 143.427 192.147 141.189 183.8C139.496 177.575 139.593 170.91 141.701 164.541L126.017 155.494C125.117 156.598 124.144 157.636 123.148 158.64L123.098 158.687C116.826 164.978 108.606 169.355 99.4701 170.813V188.938C105.98 190.299 111.815 193.558 116.389 198.129L116.411 198.179C122.539 204.274 126.332 212.768 126.332 222.105C126.332 231.412 122.539 239.854 116.411 245.982L116.389 246.079C110.219 252.207 101.75 256 92.4123 256C83.1245 256 74.6445 252.207 68.4914 246.079H68.4693V245.982C62.3327 239.854 58.5313 231.412 58.5313 222.105C58.5313 212.768 62.3327 204.274 68.4693 198.179V198.129H68.4914C73.0565 193.558 78.8997 190.299 85.3932 188.938V170.813C76.2492 169.355 68.0543 164.978 61.7905 158.687L61.7241 158.64C53.8943 150.777 49 139.965 49 127.968C49 116.005 53.8943 105.193 61.7241 97.3298H61.7905C68.0543 91.0078 76.2492 86.6309 85.3932 85.1258V67.0814C78.8997 65.6704 73.0565 62.414 68.4914 57.8738H68.4693V57.824C62.3327 51.6654 58.5313 43.2352 58.5313 33.8976C58.5313 24.607 62.3327 16.0967 68.4693 9.96842L68.4914 9.93799C74.6445 3.79315 83.1245 0 92.4123 0C101.75 0 110.219 3.79315 116.389 9.93799V9.96842H116.411C122.539 16.0967 126.332 24.607 126.332 33.8976C126.332 43.2352 122.539 51.6654 116.411 57.824L116.389 57.8738C111.815 62.414 105.98 65.6704 99.4701 67.0814V85.1258ZM187.57 73.0962L187.44 72.9025C185.274 69.2533 181.821 66.8213 178.003 65.7672C174.066 64.7297 169.816 65.1696 166.04 67.3249H166.065C162.296 69.4635 159.776 72.9662 158.722 76.8894C157.684 80.7793 158.138 85.076 160.304 88.8194L160.376 88.919C162.548 92.6125 166.001 95.0915 169.858 96.0958C173.734 97.1831 178.053 96.7294 181.774 94.5575L181.976 94.4607C185.639 92.2722 188.079 88.8194 189.1 85.0262C190.138 81.1197 189.725 76.8396 187.57 73.0962Z" fill="#1A1919"/>
</svg>
