<svg width="256" height="256" viewBox="0 0 256 256" fill="none" xmlns="http://www.w3.org/2000/svg">
<path d="M0.912886 236.378L94.9165 142.374C96.7419 140.549 98.5672 140.549 100.392 142.374L113.17 155.152C114.995 156.977 114.995 158.802 113.17 160.627L19.166 254.631C17.3407 256.456 15.5154 256.456 13.6901 254.631L0.912886 241.854C0.000229374 240.029 0.000229374 238.203 0.912886 236.378Z" fill="#B8D432"/>
<path d="M0.912886 164.278L59.3229 105.868C61.1482 104.042 62.9735 104.042 64.7989 105.868L77.576 118.645C79.4014 120.47 79.4014 122.295 77.576 124.121L19.166 182.531C17.3407 184.356 15.5154 184.356 13.6901 182.531L0.912886 169.754C0.000229403 167.928 0.000229403 165.19 0.912886 164.278Z" fill="#B8D432"/>
<path d="M73.0123 236.378L131.422 177.968C133.248 176.142 135.073 176.142 136.898 177.968L149.675 190.745C151.501 192.57 151.501 194.395 149.675 196.221L91.2654 254.631C89.4401 256.456 87.6148 256.456 85.7895 254.631L73.0123 241.854C71.187 240.028 71.187 238.203 73.0123 236.378Z" fill="#B8D432"/>
<path d="M255.544 0H0L255.544 255.544V0Z" fill="#0078D4"/>
<path d="M75.7509 75.7505L179.794 179.793L255.544 104.043V0H151.501L75.7509 75.7505Z" fill="#59B4D9"/>
<path opacity="0.2" d="M255.544 255.544V0L127.772 127.772L255.544 255.544Z" fill="white"/>
<path d="M128.685 73.0127L138.724 62.9735C140.549 61.1482 144.2 61.1482 146.938 62.9735L156.977 73.0127C158.802 74.838 158.802 78.4886 156.977 81.2266L146.938 91.2658C145.112 93.0911 141.462 93.0911 138.724 91.2658L128.685 81.2266C125.947 78.4886 125.947 74.838 128.685 73.0127Z" fill="white"/>
<path d="M164.278 36.5064L174.317 26.4671C176.143 24.6418 179.793 24.6418 182.531 26.4671L192.57 36.5064C194.396 38.3317 194.396 41.9823 192.57 44.7203L182.531 54.7595C180.706 56.5848 177.055 56.5848 174.317 54.7595L164.278 44.7203C162.453 41.9823 162.453 38.3317 164.278 36.5064Z" fill="white"/>
<path d="M164.278 108.606L174.317 98.5672C176.143 96.7419 179.793 96.7419 182.531 98.5672L192.57 108.606C194.396 110.432 194.396 114.082 192.57 116.82L182.531 126.86C180.706 128.685 177.055 128.685 174.317 126.86L164.278 116.82C162.453 114.082 162.453 111.344 164.278 108.606Z" fill="white"/>
<path d="M200.784 73.0127L210.823 62.9735C212.649 61.1482 216.299 61.1482 219.037 62.9735L229.077 73.0127C230.902 74.838 230.902 78.4886 229.077 81.2266L219.037 90.3532C217.212 92.1785 213.561 92.1785 210.823 90.3532L200.784 80.314C198.959 78.4886 198.959 74.838 200.784 73.0127Z" fill="white"/>
</svg>
