<svg width="256" height="256" viewBox="0 0 256 256" fill="none" xmlns="http://www.w3.org/2000/svg">
<g clip-path="url(#clip0)">
<path fill-rule="evenodd" clip-rule="evenodd" d="M134.126 257L127.312 254.672C127.312 254.672 128.144 219.929 115.68 217.436C107.371 207.794 117.01 -191.498 146.923 216.106C146.923 216.106 136.62 221.259 134.791 230.07C132.797 238.714 134.126 257 134.126 257Z" fill="white"/>
<path fill-rule="evenodd" clip-rule="evenodd" d="M134.126 257L127.312 254.672C127.312 254.672 128.144 219.929 115.68 217.436C107.371 207.794 117.01 -191.498 146.923 216.106C146.923 216.106 136.62 221.259 134.791 230.07C132.797 238.714 134.126 257 134.126 257Z" fill="#A6A385"/>
<path fill-rule="evenodd" clip-rule="evenodd" d="M137.783 223.421C137.783 223.421 197.444 184.19 183.484 102.568C170.023 43.2238 138.28 23.7746 134.791 16.2935C130.969 10.9743 127.312 1.66577 127.312 1.66577L129.806 166.734C129.806 166.901 124.653 217.27 137.783 223.421Z" fill="white"/>
<path fill-rule="evenodd" clip-rule="evenodd" d="M137.783 223.421C137.783 223.421 197.444 184.19 183.484 102.568C170.023 43.2238 138.28 23.7746 134.791 16.2935C130.969 10.9743 127.312 1.66577 127.312 1.66577L129.806 166.734C129.806 166.901 124.653 217.27 137.783 223.421Z" fill="#499D4A"/>
<path fill-rule="evenodd" clip-rule="evenodd" d="M123.823 225.581C123.823 225.581 67.818 187.347 71.1423 120.023C74.2988 52.6986 113.852 19.6187 121.496 13.6338C126.482 8.31464 126.648 6.31917 126.981 1C130.47 8.48106 129.806 112.875 130.304 125.176C131.8 172.553 127.645 216.605 123.823 225.581Z" fill="white"/>
<path fill-rule="evenodd" clip-rule="evenodd" d="M123.823 225.581C123.823 225.581 67.818 187.347 71.1423 120.023C74.2988 52.6986 113.852 19.6187 121.496 13.6338C126.482 8.31464 126.648 6.31917 126.981 1C130.47 8.48106 129.806 112.875 130.304 125.176C131.8 172.553 127.645 216.605 123.823 225.581Z" fill="#58AA50"/>
</g>
<defs>
<clipPath id="clip0">
<rect width="256" height="256" fill="white"/>
</clipPath>
</defs>
</svg>
