<svg width="256" height="256" viewBox="0 0 256 256" fill="none" xmlns="http://www.w3.org/2000/svg">
<g clip-path="url(#clip0)">
<path d="M239.388 197.294C225.249 196.942 214.291 198.357 205.1 202.244C202.449 203.304 198.207 203.305 197.853 206.663C199.268 208.077 199.444 210.375 200.681 212.319C202.804 215.852 206.514 220.626 209.872 223.1C213.583 225.928 217.296 228.755 221.183 231.23C228.076 235.472 235.854 237.946 242.57 242.188C246.459 244.661 250.345 247.844 254.234 250.495C256.179 251.908 257.415 254.207 259.89 255.09V254.56C258.653 252.969 258.299 250.672 257.063 248.904C255.296 247.137 253.528 245.546 251.76 243.778C246.634 236.886 240.272 230.876 233.379 225.928C227.724 222.039 215.351 216.737 213.053 210.197C213.053 210.197 212.876 210.021 212.7 209.845C216.588 209.491 221.183 208.077 224.895 207.016C230.905 205.425 236.384 205.779 242.57 204.189C245.397 203.481 248.226 202.598 251.053 201.714V200.124C247.873 196.942 245.574 192.701 242.216 189.696C233.202 181.918 223.304 174.319 213.053 167.957C207.574 164.422 200.504 162.123 194.672 159.12C192.552 158.057 189.016 157.528 187.78 155.761C184.597 151.873 182.83 146.748 180.532 142.152C175.409 132.43 170.458 121.65 166.039 111.399C162.859 104.506 160.915 97.6125 157.026 91.2503C138.822 61.2042 119.027 43 88.6268 25.1484C82.0871 21.4373 74.3112 19.8461 66.0041 17.9024C61.5866 17.725 57.167 17.3724 52.7484 17.195C49.921 15.9576 47.0924 12.6002 44.6176 11.0091C34.5453 4.64568 8.56289 -9.13887 1.13954 9.06535C-3.63272 20.5536 8.20921 31.8644 12.274 37.6977C15.28 41.7626 19.1674 46.3574 21.2885 50.9534C22.5259 53.956 22.8785 57.1393 24.1159 60.3205C26.9445 68.0953 29.5945 76.7572 33.3067 84.0044C35.2516 87.7155 37.3716 91.604 39.8464 94.9614C41.2601 96.9051 43.7338 97.79 44.2649 100.971C41.7912 104.506 41.6138 109.808 40.199 114.227C33.8367 134.198 36.3116 158.942 45.325 173.612C48.1524 178.029 54.8694 187.752 63.8829 184.04C71.8363 180.859 70.0688 170.784 72.3663 161.947C72.8974 159.825 72.5437 158.412 73.6037 156.998C73.6046 157.175 73.6037 157.352 73.6037 157.352C76.0785 162.301 78.5522 167.073 80.8496 172.021C86.3293 180.681 95.8727 189.696 103.826 195.705C108.069 198.885 111.427 204.365 116.729 206.31V205.779H116.375C115.314 204.188 113.724 203.481 112.311 202.244C109.129 199.063 105.593 195.174 103.12 191.639C95.6975 181.741 89.1567 170.784 83.3245 159.472C80.4971 153.994 78.0222 147.984 75.7248 142.505C74.6637 140.383 74.6637 137.203 72.8963 136.143C70.2451 140.031 66.3577 143.389 64.4129 148.161C61.0566 155.761 60.7017 165.128 59.4643 174.849C58.758 175.026 59.1106 174.849 58.7569 175.203C53.1021 173.788 51.1572 167.957 49.0361 163.007C43.7338 150.459 42.8501 130.31 47.4461 115.818C48.6835 112.106 53.9857 100.441 51.8646 96.9063C50.8046 93.5477 47.2686 91.604 45.3249 88.9529C43.0275 85.5943 40.5527 81.3532 38.9627 77.641C34.7204 67.7439 32.5993 56.7857 28.0045 46.8874C25.8834 42.2915 22.1722 37.5203 19.1674 33.2792C15.81 28.5069 12.0977 25.1484 9.44655 19.4924C8.56396 17.5487 7.32542 14.3676 8.73913 12.2464C9.09284 10.8327 9.79914 10.3027 11.214 9.94903C13.5114 8.0042 20.0511 10.479 22.3484 11.539C28.8881 14.189 34.3667 16.665 39.8463 20.3761C42.32 22.1435 44.9712 25.5021 48.1523 26.3858H51.8645C57.5205 27.6221 63.8828 26.7395 69.185 28.3295C78.5532 31.3332 87.0355 35.7529 94.6363 40.5252C117.79 55.1945 136.877 76.0509 149.78 100.971C151.901 105.035 152.784 108.748 154.729 112.989C158.441 121.65 163.036 130.487 166.747 138.971C170.458 147.277 173.993 155.761 179.295 162.655C181.947 166.365 192.551 168.309 197.323 170.254C200.858 171.844 206.337 173.259 209.519 175.203C215.527 178.913 221.537 183.156 227.193 187.221C230.021 189.341 238.857 193.761 239.388 197.294L239.388 197.294Z" fill="#00546B"/>
<path d="M59.1101 43.7052C56.1053 43.7052 53.9853 44.06 51.8641 44.59C51.8641 44.5891 51.8641 44.7675 51.8641 44.9438H52.2178C53.6327 47.7712 56.1053 49.716 57.8727 52.1897C59.2875 55.0171 60.5238 57.8457 61.9387 60.6742C62.1149 60.4968 62.2912 60.3205 62.2912 60.3205C64.7672 58.552 66.0035 55.7245 66.0035 51.4834C64.9424 50.246 64.7661 49.0086 63.8824 47.7712C62.8224 46.0026 60.5238 45.12 59.1101 43.7052Z" fill="#00546B"/>
</g>
<defs>
<clipPath id="clip0">
<rect width="256" height="256" fill="white"/>
</clipPath>
</defs>
</svg>
