<svg xmlns="http://www.w3.org/2000/svg" viewBox="1984.944 330.722 64 64" width="64" height="64"><path d="M2016.007 392.84a21.86 21.86 0 0 1-15.463-6.406 21.88 21.88 0 0 1-6.404-15.463c0-10.394 8.146-20.365 13.72-27.638a81.96 81.96 0 0 0 7.925-12.47c.04-.086.132-.14.227-.14s.185.054.227.14c2.26 4.388 4.912 8.562 7.925 12.472 5.57 7.273 13.72 17.236 13.72 27.638h-13.347c-.283 0-.514.23-.514.514v7.5h-7.498c-.283 0-.514.23-.514.514v13.343zm8.568-5.308V380.4h-6.63a.51.51 0 0 0-.363.151.52.52 0 0 0-.151.363v6.627zm-7.163 7.114a21.3 21.3 0 0 0 7.142-1.375v-3.597h-6.63a.51.51 0 0 0-.363.151.52.52 0 0 0-.151.363zm15.154-15.128v-7.142h-6.627c-.283 0-.514.23-.514.514v6.627h7.142zm.857 8.875l.008-.008a1.49 1.49 0 0 0 .428-1.06v-5.643h-7.142v7.142h5.643a1.5 1.5 0 0 0 1.062-.43zm-6.223 6.333a21.24 21.24 0 0 0 5.28-3.248h-5.28zm11.123-15.208a21.8 21.8 0 0 0 1.395-7.142h-4.968v7.142zm-1.817 7.93a21.29 21.29 0 0 0 3.244-5.28h-3.244z" fill="#728e9b"/><path d="M2011.195 341.312l-1.208 1.7-3.95 5.22q.797.108 1.558.24l3.28-5.55.877-1.58c.23-.412-.307-.373-.558-.02zm-5.215 9.907l.592-1.02-1.8-.32a73.23 73.23 0 0 0-5.121 7.859c-2.75 4.986-4.657 10.557-3.78 16.308.746 4.78 3.162 9.142 6.82 12.3.797.672 1.604 1.283 2.475 1.83.114.07.263.044.345-.06s.072-.26-.024-.35a21.92 21.92 0 0 1-5.914-9.975c-1.634-6.038-.28-12.223 2.052-17.884a77.54 77.54 0 0 1 4.334-8.7z" fill="#b9c6cd"/></svg>