<svg width="256" height="256" viewBox="0 0 256 256" fill="none" xmlns="http://www.w3.org/2000/svg">
<g clip-path="url(#clip0)">
<path d="M80.9584 208.889C36.2671 208.889 0 172.713 0 128.009C0 83.3055 36.2671 47 80.9584 47H175.055C219.759 47 256 83.3055 256 128.009C256 172.713 219.759 208.889 175.055 208.889H80.9584ZM172.962 180.336C201.917 180.336 225.367 156.95 225.367 128.009C225.367 99.0681 201.917 75.5535 172.962 75.5535H83.0381C54.0969 75.5535 30.6334 99.0681 30.6334 128.009C30.6334 156.95 54.0969 180.336 83.0381 180.336H172.962Z" fill="#EA1B22"/>
</g>
<defs>
<clipPath id="clip0">
<rect width="256" height="256" fill="white"/>
</clipPath>
</defs>
</svg>
