<svg width="256" height="256" viewBox="0 0 256 256" fill="none" xmlns="http://www.w3.org/2000/svg">
<path d="M141.981 1.79941C139.63 4.15019 139.473 6.81441 141.667 9.55698C144.88 13.71 150.209 11.3592 150.209 5.87409C150.209 0.388939 145.585 -1.88348 141.981 1.79941Z" fill="#722F37"/>
<path d="M102.099 15.9814C99.0427 19.0374 99.9047 24.2875 103.744 25.7764C108.367 27.5003 112.521 20.0561 108.994 16.2165C107.349 14.4142 103.744 14.2575 102.099 15.9814Z" fill="#722F37"/>
<path d="M141.746 23.0332C140.022 24.2085 140.022 24.3652 140.022 47.0878C140.022 72.4744 139.865 73.493 135.321 73.493C131.011 73.493 130.619 72.2394 130.619 58.9192C130.619 46.9311 130.619 46.7744 128.582 44.8155C127.093 43.2484 126.153 42.935 124.508 43.3268C120.355 44.3454 120.433 43.7186 120.433 69.9671V94.4135L124.821 92.1412C128.504 90.3391 130.306 89.9473 135.007 89.9473C146.055 89.9473 154.282 96.4507 156.946 107.342C158.122 111.965 158.122 112.827 156.946 117.371C154.831 125.52 148.876 131.867 141.275 133.904C136.261 135.236 129.052 134.452 124.429 132.102L120.433 129.986V141.347C120.433 152.395 120.355 152.787 118.475 154.589C117.456 155.686 116.046 156.548 115.34 156.548C114.635 156.548 113.225 155.686 112.206 154.589L110.247 152.709V94.8053V36.9018L108.289 36.0399C106.173 35.0996 104.371 35.4131 102.255 37.2936C101.158 38.1554 100.845 39.7225 100.845 43.4835V48.4198H91.8342H82.7452L81.3348 51.7107C79.9244 55.1582 67.7796 98.1745 64.6454 110.711C63.3134 116.274 63 120.035 63 128.732C63 141.504 64.4887 148.321 69.425 158.507C76.4769 173.159 86.4278 182.64 104.449 191.651C114.243 196.587 116.437 198.389 119.18 203.952C122.079 209.907 123.332 216.332 124.429 231.219C125.213 241.64 125.135 243.834 124.273 244.618C123.646 245.166 116.124 247.83 107.505 250.494C98.8861 253.237 91.6775 255.587 91.5208 255.744C91.3641 255.901 107.897 256.057 128.347 255.979C150.286 255.979 164.703 255.666 163.528 255.274C162.431 254.882 154.752 252.375 146.368 249.789L131.168 244.931L131.638 233.805C132.186 220.798 133.127 214.373 135.477 207.635C138.141 200.034 140.962 197.37 152.245 191.651C173.401 180.994 185.467 168.301 190.952 150.672C193.459 142.836 193.929 128.419 192.127 116.979C189.62 100.76 175.751 51.2405 173.165 49.4384C172.304 48.7332 168.464 48.4198 161.021 48.4198H150.208V36.6667C150.208 25.9323 150.051 24.7569 148.641 23.3466C146.76 21.4661 144.175 21.3094 141.746 23.0332Z" fill="#722F37"/>
<path d="M121.765 23.9736C119.963 25.9325 120.042 30.6341 121.844 32.2013C123.333 33.6118 126.467 33.9252 127.956 32.9065C129.523 31.8878 130.777 28.6751 130.307 26.8728C129.288 22.7198 124.351 21.0743 121.765 23.9736Z" fill="#722F37"/>
<path d="M129.052 101.857C124.743 104.835 123.176 107.577 123.176 112.278C123.176 118.938 127.563 123.64 134.302 124.188C141.432 124.736 147.074 119.33 147.074 111.886C147.074 102.797 136.339 96.9209 129.052 101.857Z" fill="#722F37"/>
</svg>
