<svg width="256" height="256" viewBox="0 0 256 256" fill="none" xmlns="http://www.w3.org/2000/svg">
<g clip-path="url(#clip0)">
<path d="M251.65 153.349C250.158 148.83 246.248 145.682 241.192 144.926C238.808 144.57 236.078 144.722 232.847 145.388C227.216 146.55 223.038 146.992 219.989 147.078C231.498 127.647 240.856 105.488 246.243 84.6294C254.954 50.9027 250.299 35.5379 244.86 28.5875C230.463 10.1928 209.46 0.310232 184.119 0.00729406C170.602 -0.157684 158.735 2.51128 152.545 4.43008C146.781 3.41377 140.583 2.84583 134.08 2.74064C121.892 2.54634 111.122 5.20323 101.919 10.6642C96.8233 8.94197 88.6474 6.51328 79.2046 4.96295C56.9953 1.31677 39.096 4.15818 26.0036 13.4073C10.1496 24.6062 2.79977 44.0633 4.15925 71.2386C4.59038 79.8669 9.41728 106.118 17.0166 131.015C21.3842 145.324 26.0415 157.208 30.8592 166.337C37.6911 179.283 45.0013 186.907 53.2083 189.644C57.8087 191.178 66.1662 192.25 74.9572 184.93C76.0712 186.279 77.5571 187.62 79.5305 188.865C82.0357 190.445 85.0996 191.736 88.1588 192.501C99.1859 195.258 109.515 194.568 118.326 190.705C118.38 192.272 118.422 193.769 118.458 195.062C118.516 197.16 118.574 199.216 118.651 201.139C119.173 214.143 120.058 224.254 122.679 231.327C122.823 231.717 123.016 232.31 123.221 232.938C124.528 236.942 126.715 243.645 132.278 248.895C138.04 254.332 145.008 256.001 151.39 256C154.59 256 157.644 255.58 160.323 255.006C169.871 252.96 180.715 249.842 188.559 238.673C195.975 228.114 199.58 212.211 200.233 187.151C200.317 186.443 200.395 185.767 200.471 185.122C200.521 184.686 200.573 184.242 200.625 183.798L202.373 183.951L202.823 183.982C212.548 184.425 224.439 182.362 231.742 178.97C237.513 176.292 256.004 166.53 251.65 153.349Z" fill="black"/>
<path d="M235.022 155.913C206.106 161.878 204.119 152.088 204.119 152.088C234.649 106.786 247.411 49.2822 236.397 35.2085C206.351 -3.18194 154.339 14.9742 153.471 15.4456L153.191 15.4956C147.478 14.3097 141.085 13.6033 133.9 13.486C120.816 13.2716 110.891 16.916 103.36 22.627C103.36 22.627 10.5756 -15.5967 14.8909 70.7005C15.8089 89.0596 41.2045 209.614 71.4955 173.201C82.5668 159.886 93.264 148.628 93.264 148.628C98.5772 152.157 104.938 153.957 111.606 153.311L112.124 152.871C111.963 154.524 112.036 156.141 112.331 158.055C104.528 166.774 106.821 168.305 91.2216 171.516C75.4371 174.769 84.7098 180.56 90.764 182.074C98.1035 183.909 115.084 186.509 126.557 170.448L126.099 172.281C129.157 174.73 131.304 188.21 130.944 200.43C130.584 212.65 130.344 221.04 132.753 227.593C135.162 234.146 137.563 248.891 158.07 244.497C175.205 240.825 184.085 231.309 185.32 215.436C186.196 204.152 188.18 205.82 188.306 195.731L189.897 190.954C191.732 175.657 190.188 170.723 200.745 173.018L203.31 173.243C211.081 173.597 221.25 171.993 227.218 169.219C240.071 163.255 247.693 153.296 235.021 155.913H235.022Z" fill="#336791"/>
<path d="M108.791 78.911C106.186 78.5483 103.826 78.884 102.632 79.7876C101.96 80.2963 101.752 80.8855 101.697 81.2914C101.547 82.3657 102.3 83.5534 102.762 84.1661C104.07 85.9004 105.982 87.0926 107.874 87.3553C108.149 87.3933 108.421 87.4117 108.692 87.4117C111.848 87.4117 114.717 84.9548 114.97 83.1412C115.286 80.87 111.989 79.3559 108.791 78.911Z" fill="white"/>
<path d="M195.115 78.9828H195.114C194.866 77.2025 191.697 76.695 188.691 77.1129C185.689 77.5313 182.777 78.8862 183.021 80.6705C183.216 82.0582 185.721 84.4271 188.687 84.4265C188.937 84.4265 189.19 84.4098 189.444 84.3742C191.424 84.1 192.877 82.8428 193.567 82.118C194.618 81.0143 195.225 79.783 195.115 78.9828Z" fill="white"/>
<path d="M244.644 155.235C243.542 151.901 239.993 150.828 234.097 152.046C216.591 155.659 210.322 153.156 208.263 151.64C221.87 130.911 233.064 105.854 239.103 82.475C241.964 71.4007 243.544 61.1164 243.673 52.7341C243.815 43.5321 242.249 36.7715 239.017 32.6413C225.986 15.9906 206.861 7.05939 183.711 6.81393C167.796 6.63516 154.35 10.7084 151.743 11.8535C146.253 10.4883 140.268 9.65017 133.754 9.54325C121.806 9.35011 111.479 12.2105 102.928 18.0405C99.2142 16.6586 89.6156 13.3636 77.878 11.473C57.584 8.20504 41.4582 10.6809 29.9499 18.8337C16.2183 28.5623 9.87899 45.9522 11.1074 70.5195C11.5207 78.7857 16.2298 104.212 23.6624 128.564C33.4455 160.614 44.0794 178.758 55.2692 182.489C56.5786 182.926 58.0893 183.232 59.754 183.232C63.8359 183.232 68.8399 181.392 74.0467 175.133C82.6951 164.728 90.7699 156.01 93.7464 152.842C98.145 155.203 102.976 156.521 107.92 156.653C107.928 156.783 107.941 156.912 107.953 157.041C106.961 158.217 106.148 159.248 105.455 160.128C102.03 164.475 101.318 165.379 90.2945 167.649C87.1593 168.296 78.8305 170.013 78.7092 175.85C78.5764 182.228 88.5527 184.907 89.6897 185.191C93.6509 186.182 97.4667 186.671 101.106 186.671C109.957 186.671 117.746 183.762 123.971 178.134C123.779 200.872 124.727 223.277 127.457 230.104C129.693 235.692 135.155 249.35 152.41 249.349C154.941 249.349 157.728 249.054 160.794 248.397C178.801 244.536 186.621 236.577 189.646 219.031C191.265 209.654 194.043 187.261 195.349 175.249C198.107 176.109 201.657 176.503 205.494 176.503C213.498 176.503 222.734 174.802 228.526 172.114C235.032 169.092 246.773 161.677 244.644 155.235ZM201.761 74.0686C201.701 77.6147 201.213 80.8338 200.696 84.1943C200.139 87.8083 199.563 91.5447 199.418 96.0807C199.275 100.495 199.827 105.084 200.36 109.522C201.437 118.486 202.543 127.715 198.263 136.822C197.598 135.64 196.956 134.352 196.367 132.924C195.835 131.635 194.681 129.564 193.082 126.697C186.86 115.539 172.29 89.4109 179.749 78.7489C181.97 75.5746 187.608 72.3124 201.761 74.0686ZM184.606 13.9948C205.348 14.4529 221.756 22.2126 233.373 37.0572C242.283 48.4435 232.472 100.253 204.069 144.95C203.788 144.593 203.503 144.234 203.207 143.865C203.089 143.717 202.969 143.567 202.848 143.415C210.187 131.293 208.752 119.301 207.475 108.667C206.95 104.304 206.454 100.182 206.58 96.3112C206.711 92.2069 207.253 88.6883 207.778 85.2853C208.423 81.0913 209.079 76.7525 208.898 71.637C209.033 71.1007 209.088 70.4666 209.017 69.7142C208.555 64.8085 202.955 50.1289 191.54 36.8405C185.296 29.5734 176.19 21.4401 163.758 15.9544C169.106 14.8461 176.419 13.8126 184.606 13.9948ZM68.5369 170.551C62.8007 177.448 58.8389 176.127 57.5363 175.693C49.0477 172.861 39.1991 154.921 30.5156 126.472C23.0019 101.856 18.6107 77.1025 18.2635 70.1614C17.1662 48.2096 22.4874 32.9103 34.0801 24.689C52.9462 11.3097 83.9644 19.3178 96.428 23.3795C96.2486 23.556 96.0624 23.7216 95.8847 23.9009C75.4327 44.5565 75.9178 79.8468 75.9678 82.0036C75.9661 82.8359 76.0357 84.0144 76.1317 85.6354C76.4835 91.5706 77.1382 102.618 75.389 115.128C73.7628 126.754 77.3463 138.133 85.2192 146.347C86.0344 147.197 86.8851 147.996 87.764 148.747C84.2593 152.5 76.6433 160.799 68.5369 170.551ZM90.3928 141.389C84.0472 134.769 81.1655 125.559 82.4853 116.121C84.3328 102.905 83.6505 91.3947 83.2843 85.2112C83.2332 84.346 83.1878 83.5878 83.1608 82.9894C86.1488 80.3406 99.9948 72.9212 109.869 75.1837C114.375 76.2161 117.12 79.284 118.262 84.5622C124.17 111.886 119.044 123.274 114.926 132.426C114.077 134.311 113.275 136.093 112.589 137.937L112.059 139.362C110.715 142.966 109.465 146.316 108.69 149.498C101.945 149.477 95.3823 146.596 90.3928 141.389ZM91.428 178.239C89.4587 177.747 87.687 176.892 86.6477 176.183C87.5157 175.775 89.0609 175.219 91.7402 174.668C104.708 171.998 106.71 170.114 111.083 164.561C112.086 163.288 113.223 161.845 114.797 160.087C114.797 160.086 114.798 160.085 114.799 160.085C117.143 157.46 118.215 157.905 120.16 158.711C121.736 159.364 123.271 161.339 123.894 163.513C124.188 164.54 124.519 166.489 123.437 168.005C114.301 180.796 100.989 180.632 91.428 178.239ZM159.292 241.391C143.428 244.79 137.812 236.696 134.11 227.443C131.721 221.468 130.547 194.53 131.38 164.782C131.391 164.386 131.335 164.003 131.226 163.644C131.131 162.95 130.985 162.248 130.782 161.542C129.543 157.213 126.525 153.592 122.903 152.092C121.464 151.495 118.823 150.402 115.649 151.213C116.326 148.425 117.5 145.276 118.772 141.866L119.306 140.432C119.908 138.815 120.661 137.14 121.459 135.367C125.769 125.791 131.672 112.676 125.266 83.0475C122.866 71.9503 114.853 66.5313 102.705 67.7896C95.4214 68.5432 88.7591 71.4818 85.436 73.1666C84.7214 73.5288 84.0678 73.8783 83.4574 74.2192C84.3846 63.0375 87.8894 42.1416 100.998 28.921C109.251 20.5973 120.243 16.4867 133.635 16.708C160.023 17.1403 176.945 30.6823 186.494 41.9669C194.723 51.6914 199.179 61.4866 200.958 66.7693C187.584 65.4098 178.489 68.05 173.877 74.6417C163.846 88.9804 179.365 116.812 186.824 130.187C188.191 132.639 189.372 134.757 189.743 135.657C192.172 141.543 195.316 145.473 197.612 148.342C198.316 149.221 198.999 150.073 199.518 150.818C195.468 151.986 188.192 154.683 188.855 168.17C188.32 174.937 184.517 206.62 182.585 217.814C180.036 232.602 174.594 238.111 159.292 241.391ZM225.508 165.615C221.367 167.537 214.435 168.98 207.851 169.289C200.578 169.63 196.876 168.474 196.005 167.764C195.596 159.36 198.725 158.481 202.035 157.552C202.555 157.405 203.063 157.263 203.553 157.092C203.857 157.34 204.191 157.586 204.556 157.827C210.401 161.685 220.828 162.101 235.546 159.063C235.6 159.052 235.654 159.041 235.708 159.03C233.723 160.887 230.326 163.378 225.508 165.615Z" fill="white"/>
</g>
<defs>
<clipPath id="clip0">
<rect width="256" height="256" fill="white"/>
</clipPath>
</defs>
</svg>
