<svg width="256" height="256" viewBox="0 0 256 256" fill="none" xmlns="http://www.w3.org/2000/svg">
<path d="M238 0H18C8.05887 0 0 8.05887 0 18V238C0 247.941 8.05887 256 18 256H238C247.941 256 256 247.941 256 238V18C256 8.05887 247.941 0 238 0Z" fill="black"/>
<path d="M230.118 128.531C230.118 135.578 224.405 141.291 217.357 141.291C210.31 141.291 204.597 135.578 204.597 128.531C204.597 121.483 210.31 115.77 217.357 115.77C224.405 115.77 230.118 121.483 230.118 128.531Z" fill="#669CFE"/>
<path d="M203.806 154.531C203.806 161.578 198.093 167.291 191.045 167.291C183.997 167.291 178.284 161.578 178.284 154.531C178.284 147.483 183.997 141.77 191.045 141.77C198.093 141.77 203.806 147.483 203.806 154.531Z" fill="#3FE7FE"/>
<path d="M177.451 181.072C177.451 188.12 171.738 193.833 164.691 193.833C157.643 193.833 151.93 188.12 151.93 181.072C151.93 174.025 157.643 168.312 164.691 168.312C171.738 168.312 177.451 174.025 177.451 181.072Z" fill="white"/>
<path d="M202.993 102.336C202.993 108.933 197.645 114.28 191.049 114.28C184.452 114.28 179.104 108.933 179.104 102.336C179.104 95.7389 184.452 90.3909 191.049 90.3909C197.645 90.3909 202.993 95.7389 202.993 102.336Z" fill="#669CFE"/>
<path d="M176.738 128.298C176.738 134.895 171.39 140.243 164.794 140.243C158.197 140.243 152.849 134.895 152.849 128.298C152.849 121.701 158.197 116.353 164.794 116.353C171.39 116.353 176.738 121.701 176.738 128.298Z" fill="#3FE7FE"/>
<path d="M150.569 154.642C150.569 161.239 145.222 166.587 138.625 166.587C132.028 166.587 126.68 161.239 126.68 154.642C126.68 148.045 132.028 142.698 138.625 142.698C145.222 142.698 150.569 148.045 150.569 154.642Z" fill="white"/>
<path d="M175.743 76.235C175.743 82.226 170.886 87.084 164.894 87.084C158.902 87.084 154.045 82.226 154.045 76.235C154.045 70.243 158.902 65.386 164.894 65.386C170.886 65.386 175.743 70.243 175.743 76.235Z" fill="#669CFE"/>
<path d="M149.522 102.191C149.522 108.182 144.664 113.04 138.672 113.04C132.681 113.04 127.823 108.182 127.823 102.191C127.823 96.1988 132.681 91.3408 138.672 91.3408C144.664 91.3408 149.522 96.1988 149.522 102.191Z" fill="#3FE7FE"/>
<path d="M123.253 128.618C123.253 134.61 118.396 139.467 112.404 139.467C106.412 139.467 101.555 134.61 101.555 128.618C101.555 122.627 106.412 117.769 112.404 117.769C118.396 117.769 123.253 122.627 123.253 128.618Z" fill="white"/>
<path d="M148.618 50.0079C148.618 55.3939 144.252 59.7599 138.866 59.7599C133.48 59.7599 129.114 55.3939 129.114 50.0079C129.114 44.6209 133.48 40.2549 138.866 40.2549C144.252 40.2549 148.618 44.6209 148.618 50.0079Z" fill="#669CFE"/>
<path d="M122.297 76.0889C122.297 81.4749 117.931 85.8419 112.545 85.8419C107.159 85.8419 102.793 81.4749 102.793 76.0889C102.793 70.7029 107.159 66.3369 112.545 66.3369C117.931 66.3369 122.297 70.7029 122.297 76.0889Z" fill="#3FE7FE"/>
<path d="M96.0599 102.471C96.0599 107.857 91.6929 112.223 86.3069 112.223C80.9209 112.223 76.5549 107.857 76.5549 102.471C76.5549 97.0848 80.9209 92.7178 86.3069 92.7178C91.6929 92.7178 96.0599 97.0848 96.0599 102.471Z" fill="white"/>
<path d="M95.0599 154.721C95.0599 159.508 91.1779 163.389 86.3909 163.389C81.6029 163.389 77.7219 159.508 77.7219 154.721C77.7219 149.933 81.6029 146.052 86.3909 146.052C91.1779 146.052 95.0599 149.933 95.0599 154.721Z" fill="#6A9EFE"/>
<path d="M121.185 180.846C121.185 185.633 117.303 189.514 112.516 189.514C107.728 189.514 103.847 185.633 103.847 180.846C103.847 176.058 107.728 172.177 112.516 172.177C117.303 172.177 121.185 176.058 121.185 180.846Z" fill="#6A9EFE"/>
<path d="M147.268 206.929C147.268 211.717 143.387 215.598 138.599 215.598C133.811 215.598 129.93 211.717 129.93 206.929C129.93 202.141 133.811 198.26 138.599 198.26C143.387 198.26 147.268 202.141 147.268 206.929Z" fill="#6A9EFE"/>
<path d="M95.1849 206.929C95.1849 211.717 91.3029 215.598 86.5159 215.598C81.7279 215.598 77.8469 211.717 77.8469 206.929C77.8469 202.141 81.7279 198.26 86.5159 198.26C91.3029 198.26 95.1849 202.141 95.1849 206.929Z" fill="#6A9EFE"/>
<path d="M42.6009 206.929C42.6009 211.717 38.7199 215.598 33.9319 215.598C29.1449 215.598 25.2629 211.717 25.2629 206.929C25.2629 202.141 29.1449 198.26 33.9319 198.26C38.7199 198.26 42.6009 202.141 42.6009 206.929Z" fill="#6A9EFE"/>
<path d="M68.7259 180.804C68.7259 185.592 64.8449 189.473 60.0569 189.473C55.2699 189.473 51.3879 185.592 51.3879 180.804C51.3879 176.016 55.2699 172.135 60.0569 172.135C64.8449 172.135 68.7259 176.016 68.7259 180.804Z" fill="#6A9EFE"/>
<path d="M95.172 50.0319C95.172 55.0349 91.116 59.0909 86.113 59.0909C81.11 59.0909 77.054 55.0349 77.054 50.0319C77.054 45.0279 81.11 40.9719 86.113 40.9719C91.116 40.9719 95.172 45.0279 95.172 50.0319Z" fill="#3FE7FE"/>
<path d="M68.7989 76.538C68.7989 81.542 64.7429 85.598 59.7389 85.598C54.7359 85.598 50.6799 81.542 50.6799 76.538C50.6799 71.535 54.7359 67.479 59.7389 67.479C64.7429 67.479 68.7989 71.535 68.7989 76.538Z" fill="white"/>
<path d="M41.1739 49.663C41.1739 53.7 37.9009 56.973 33.8639 56.973C29.8279 56.973 26.5549 53.7 26.5549 49.663C26.5549 45.627 29.8279 42.354 33.8639 42.354C37.9009 42.354 41.1739 45.627 41.1739 49.663Z" fill="white"/>
</svg>
