<svg width="256" height="256" viewBox="0 0 256 256" fill="none" xmlns="http://www.w3.org/2000/svg">
<path d="M120.307 196.923C188.159 156.792 220.041 141.348 215.952 150.591C211.863 159.835 179.981 194.971 120.307 256V196.923Z" fill="#FF7964"/>
<path d="M229.165 100.848C229.165 156.597 183.95 201.697 128.082 201.697C72.2145 201.697 27 156.489 27 100.848C27.0019 45.2076 72.2164 0 128.082 0C183.949 0 229.165 45.2076 229.165 100.848Z" fill="#FF7964"/>
<path d="M64.641 114.241H79.57C83.1764 114.251 86.0972 116.91 86.1085 120.193V133.684C86.0972 136.967 83.1764 139.626 79.57 139.636H64.641C61.0346 139.626 58.1139 136.967 58.1025 133.684V120.193C58.1128 116.909 61.0342 114.25 64.641 114.241ZM99.1854 84.48H114.006C117.612 84.4903 120.533 87.1491 120.544 90.4321V133.684C120.533 136.967 117.612 139.626 114.006 139.636H99.1854C95.579 139.626 92.6583 136.967 92.647 133.684V90.4321C92.6573 87.1488 95.5786 84.4894 99.1854 84.48ZM133.621 100.848H148.55C152.157 100.859 155.077 103.518 155.089 106.8V133.684C155.077 136.967 152.157 139.626 148.55 139.636H133.621C130.015 139.626 127.094 136.967 127.083 133.684V106.8C127.093 103.517 130.014 100.858 133.621 100.848ZM168.929 62.0605H183.749C187.355 62.0709 190.276 64.7297 190.287 68.0127V133.684C190.276 136.967 187.355 139.626 183.749 139.636H168.929C165.322 139.626 162.401 136.967 162.39 133.684V68.0127C162.4 64.7293 165.322 62.0699 168.929 62.0605Z" fill="white"/>
</svg>
