<svg width="256" height="256" viewBox="0 0 256 256" fill="none" xmlns="http://www.w3.org/2000/svg">
<path d="M39.0629 44.4162L22 52.9493V202.713L39.0629 211.197L39.1655 211.073V44.5337L39.0629 44.4162Z" fill="#8C3123"/>
<path d="M130.381 189.459L39.063 211.197V44.4162L130.381 65.6795V189.459Z" fill="#E05243"/>
<path d="M89.1614 155.428L127.895 160.359L128.139 159.798L128.356 96.2834L127.895 95.787L89.1614 100.647V155.428Z" fill="#8C3123"/>
<path d="M127.895 189.703L216.727 211.243L216.867 211.02L216.864 44.5651L216.724 44.4162L127.895 65.9235V189.703Z" fill="#8C3123"/>
<path d="M166.64 155.428L127.895 160.359V95.787L166.64 100.647V155.428Z" fill="#E05243"/>
<path d="M166.64 74.1547L127.895 81.216L89.1614 74.1547L127.847 64.0149L166.64 74.1547Z" fill="#5E1F18"/>
<path d="M166.64 181.849L127.895 174.741L89.1614 181.849L127.848 192.648L166.64 181.849Z" fill="#F2B0A9"/>
<path d="M89.1614 74.1547L127.895 64.5692L128.209 64.4724V0.258955L127.895 0L89.1614 19.3703V74.1547Z" fill="#8C3123"/>
<path d="M166.64 74.1547L127.895 64.5692V0L166.64 19.3703V74.1547Z" fill="#E05243"/>
<path d="M127.895 256L89.1572 236.636V181.853L127.895 191.435L128.465 192.083L128.311 254.882L127.895 256Z" fill="#8C3123"/>
<path d="M127.895 256L166.637 236.636V181.853L127.895 191.435V256Z" fill="#E05243"/>
<path d="M216.727 44.4162L233.797 52.9493V202.713L216.727 211.243V44.4162Z" fill="#E05243"/>
</svg>
