<svg width="256" height="256" viewBox="0 0 256 256" fill="none" xmlns="http://www.w3.org/2000/svg">
<g clip-path="url(#clip0)">
<path d="M24.2872 0H232.041C245.169 0 256 10.8308 256 24.2872V232.041C256 245.497 245.169 256.328 231.713 256.328H24.2872C10.8308 256 0 245.169 0 231.713V24.2872C0 10.8308 10.8308 0 24.2872 0Z" fill="url(#paint0_linear)"/>
<path d="M152.944 25.6C152.287 25.6 151.631 25.9282 150.974 26.2564L127.672 40.3692L104.369 26.5846C103.056 25.9282 101.415 25.9282 100.431 26.5846L53.1693 55.4666C51.8564 56.123 51.2 57.4359 51.2 58.7487V87.6307L28.8821 100.759C27.5693 101.415 26.9128 102.728 26.9128 104.041V151.303C26.9128 152.615 27.5693 153.928 28.8821 154.585L51.2 167.385V196.923C51.2 198.236 51.8564 199.549 53.1693 200.205L100.759 229.415C102.072 230.072 103.713 230.072 104.697 229.415L128 215.631L150.974 229.744C152.287 230.4 153.928 230.4 154.913 229.744L202.503 200.533C203.815 199.877 204.472 198.564 204.472 197.251V168.369L226.79 155.569C228.103 154.913 228.759 153.6 228.759 152.287V104.369C228.759 103.056 228.103 101.744 226.79 101.087L204.472 88.2871V59.0769C204.472 57.7641 203.815 56.4513 202.503 55.7948L155.241 26.2564C154.585 25.9282 153.6 25.6 152.944 25.6ZM152.944 34.1333L196.595 61.0461V70.5641L185.436 70.8923C183.795 66.6256 179.528 63.3436 174.605 63.3436C168.369 63.3436 163.118 68.5948 163.118 74.8307C163.118 81.0666 168.369 86.3179 174.605 86.3179C179.528 86.3179 183.467 83.3641 185.108 79.0974L196.595 78.7692V90.2564C196.595 91.5692 197.251 92.882 198.564 93.5384L220.882 106.338V145.067L205.456 136.205C205.456 135.549 205.785 134.892 205.785 134.236C205.785 127.672 200.533 122.42 193.969 122.42C187.405 122.42 182.154 127.672 182.154 134.236C182.154 140.8 187.405 146.051 193.969 146.051C196.923 146.051 199.549 145.067 201.846 143.097L216.944 151.631L198.564 162.133C197.251 162.79 196.595 164.103 196.595 165.415V194.297L152.944 220.882L131.61 207.754V186.749L150.646 187.077C152.287 191.344 156.554 194.297 161.149 194.297C167.385 194.297 172.636 189.046 172.636 182.81C172.636 176.574 167.385 171.323 161.149 171.323C156.226 171.323 151.959 174.605 150.318 178.872L131.282 178.544V128.328C131.282 127.015 130.626 125.703 129.313 125.046L106.01 110.933L102.072 117.826L123.405 130.626V147.692L106.995 157.21V143.426C106.995 142.113 106.338 140.8 105.354 140.144L83.0359 125.703V106.338L105.354 93.8666C106.667 93.2102 107.323 91.8974 107.323 90.5846V67.6102H99.4462V88.2871L79.0975 99.7743L59.0769 87.6307V61.0461L75.4872 50.8718V75.1589H83.3641V45.9487L102.4 34.1333L124.062 46.9333V92.2256C124.062 93.5384 124.718 94.8512 126.031 95.5077L150.318 110.605C149.99 111.59 149.99 112.574 149.99 113.559C149.99 120.123 155.241 125.046 161.805 125.046C168.369 125.046 173.621 119.795 173.621 113.559C173.621 107.323 168.369 101.744 161.805 101.744C159.179 101.744 156.882 102.728 154.913 104.041L132.267 89.9282V46.6051L152.944 34.1333ZM174.605 71.2205C176.574 71.2205 178.215 72.8615 178.215 74.8307C178.215 76.8 176.574 78.441 174.605 78.441C172.636 78.441 170.995 76.8 170.995 74.8307C171.323 72.8615 172.636 71.2205 174.605 71.2205ZM55.4667 94.523L75.8154 106.338V125.703L53.4975 137.846L57.1077 144.738L79.4257 132.595L99.7744 145.723V162.133L74.5026 176.903L78.441 183.795L123.733 157.21V209.395L102.4 221.867L85.3333 211.364L103.713 200.205L99.7744 193.641L78.1128 206.769L59.0769 194.954V167.713L79.7539 155.897L75.8154 149.005L55.1385 160.82L34.7898 149.333V130.297L56.1231 117.169L52.1846 110.605L35.118 121.108V106.667L55.4667 94.523ZM161.149 110.277C163.446 110.277 165.087 111.918 165.087 114.215C165.087 116.185 163.446 118.154 161.149 118.154C159.179 118.154 157.21 116.513 157.21 114.215C157.538 111.918 159.179 110.277 161.149 110.277ZM193.969 130.626C196.267 130.626 197.908 132.267 197.908 134.564C197.908 136.862 196.267 138.503 193.969 138.503C191.672 138.503 190.031 136.862 190.031 134.564C190.031 132.267 191.672 130.626 193.969 130.626ZM161.477 180.513C163.446 180.513 165.087 182.154 165.087 184.123C165.087 186.092 163.446 187.733 161.477 187.733C159.508 187.733 157.867 186.092 157.867 184.123C157.867 182.154 159.508 180.513 161.477 180.513Z" fill="white"/>
</g>
<defs>
<linearGradient id="paint0_linear" x1="128.01" y1="255.987" x2="128.01" y2="-0.0131226" gradientUnits="userSpaceOnUse">
<stop stop-color="#116D5B"/>
<stop offset="1" stop-color="#4AB29A"/>
</linearGradient>
<clipPath id="clip0">
<rect width="256" height="256" fill="white"/>
</clipPath>
</defs>
</svg>
