<?xml version="1.0" encoding="utf-8"?>
<svg version="1.1" id="Layer_1" xmlns="http://www.w3.org/2000/svg" xmlns:xlink="http://www.w3.org/1999/xlink" x="0px" y="0px"
	 viewBox="0 0 69.2 69.2" xml:space="preserve">
<style type="text/css">
	.st0{fill:#003399;}
	.st1{fill:#FFFFFF;}
</style>
<g>
<g transform="translate(-15.3, -32.5)">
    <g>
       <circle class="st0" cx="49.9" cy="67.1" r="34.6"/>
		<g>
          <g>
             <path class="st1" d="M63,80.7c-1,1-2.1,1.5-3.5,1.5c-1.4,0-2.6-0.6-3.7-1.7c-1-1-1.5-2.2-1.5-3.7c0-1.5,0.5-2.8,1.5-3.7l0.1-0.1
                c1-1,2.2-1.5,3.6-1.5s2.6,0.5,3.7,1.6c1,1,1.4,2.2,1.4,3.7C64.6,78.4,64,79.6,63,80.7 M54.4,57.5c0-1.5,0.5-2.8,1.5-3.7l0.1-0.1
                c1-1,2.2-1.5,3.6-1.5s2.6,0.5,3.7,1.6c1,1,1.4,2.2,1.4,3.7c0-1.5-0.5,2.8-1.6,3.9c-1,1-2.1,1.5-3.5,1.5s-2.6-0.6-3.7-1.7
                C54.8,60.2,54.4,59,54.4,57.5 M43.7,61.4c-1,1-2.1,1.5-3.5,1.5c-1.3,0-2.6-0.6-3.7-1.7c-1-1-1.5-2.2-1.5-3.7
                c0-1.5,0.5-2.7,1.5-3.7l0.1-0.1c1-1,2.2-1.5,3.6-1.5c1.4,0,2.6,0.5,3.7,1.6c1,1,1.4,2.2,1.4,3.7C45.3,59,44.7,60.3,43.7,61.4
                 M61.1,68.6v-2.9c1.6-0.3,3.1-1,4.3-2.3c1.6-1.5,2.4-3.5,2.4-5.9s-0.8-4.4-2.4-6c-1.6-1.6-3.6-2.4-5.9-2.4s-4.3,0.8-5.9,2.4
                c-1.2,1.2-2,2.7-2.3,4.3h-2.9c-0.3-1.7-1-3.1-2.3-4.3c-1.6-1.6-3.6-2.4-5.9-2.4s-4.3,0.8-5.9,2.4c-1.6,1.6-2.4,3.6-2.4,5.9
                c0,1.1,0.2,2.1,0.6,3.2c0.4,1.1,1,2,1.8,2.7c1.7,1.6,3.7,2.4,6,2.4s4.3-0.8,5.9-2.4c1.2-1.2,2-2.6,2.3-4.3h2.9
                c0.1,0.6,0.3,1.1,0.5,1.6c0.4,1.1,1,2,1.8,2.7c1.2,1.2,2.7,1.9,4.3,2.2v3c-1.6,0.3-3,1.1-4.3,2.3c-1.6,1.6-2.4,3.6-2.4,5.9
                c0,1.1,0.2,2.1,0.6,3.2c0.4,1.1,1,2,1.8,2.7c1.7,1.6,3.7,2.4,6,2.4c2.3,0,4.3-0.8,5.9-2.4c1.6-1.5,2.4-3.5,2.4-5.9
                s-0.8-4.4-2.4-6C64.2,69.6,62.7,68.9,61.1,68.6"/>
          </g>
       </g>
    </g>
</g>
</g>
</svg>
