<svg width="256" height="256" viewBox="0 0 256 256" fill="none" xmlns="http://www.w3.org/2000/svg">
<g clip-path="url(#clip0)">
<path d="M219.375 195.106L165.356 163.888C157.767 159.517 148.063 162.116 143.67 169.708C141.969 172.699 141.302 175.988 141.624 179.186V240.195C141.624 248.914 148.707 256 157.445 256C166.161 256 173.244 248.914 173.244 240.195V205.113L203.507 222.597C211.096 226.991 220.823 224.368 225.193 216.776C229.585 209.185 226.987 199.477 219.375 195.106Z" fill="#29B5E8"/>
<path d="M85.0298 128.207C85.1218 122.571 82.1552 117.326 77.28 114.496L23.2613 83.3012C20.9157 81.9439 18.2251 81.2308 15.5345 81.2308C9.99239 81.2308 4.84119 84.1984 2.08161 88.9835C-2.19572 96.3911 0.356884 105.892 7.76174 110.171L38.8989 128.138L7.76174 146.128C4.17429 148.198 1.59869 151.534 0.540856 155.537C-0.539979 159.54 0.0119361 163.727 2.08161 167.316C4.84119 172.101 9.99239 175.068 15.5115 175.068C18.2251 175.068 20.9157 174.355 23.2613 172.998L77.28 141.803C82.1092 138.996 85.0758 133.797 85.0298 128.207Z" fill="#29B5E8"/>
<path d="M35.5187 61.1934L89.5373 92.3882C95.8384 96.046 103.611 94.8497 108.578 89.9957C111.729 87.097 113.684 82.9561 113.684 78.3551V15.8275C113.684 7.08555 106.601 0 97.885 0C89.1464 0 82.0635 7.08555 82.0635 15.8275V51.4162L51.3862 33.7024C43.7974 29.3084 34.0929 31.908 29.7006 39.4996C25.3083 47.0913 27.9299 56.7994 35.5187 61.1934Z" fill="#29B5E8"/>
<path d="M156.986 130.738C156.986 131.934 156.296 133.59 155.445 134.464L134.035 155.882C133.184 156.733 131.506 157.423 130.31 157.423H124.86C123.664 157.423 121.985 156.733 121.134 155.882L99.7017 134.464C98.8508 133.59 98.1609 131.934 98.1609 130.738V125.285C98.1609 124.066 98.8508 122.41 99.7017 121.559L121.134 100.118C121.985 99.2667 123.664 98.5765 124.86 98.5765H130.31C131.506 98.5765 133.184 99.2667 134.035 100.118L155.445 121.559C156.296 122.41 156.986 124.066 156.986 125.285V130.738ZM137.876 128.115V127.885C137.876 127.011 137.37 125.791 136.749 125.147L130.425 118.844C129.804 118.2 128.585 117.694 127.688 117.694H127.458C126.584 117.694 125.366 118.2 124.722 118.844L118.421 125.147C117.8 125.768 117.294 126.988 117.294 127.885V128.115C117.294 129.012 117.8 130.231 118.421 130.853L124.722 137.179C125.366 137.8 126.584 138.306 127.458 138.306H127.688C128.585 138.306 129.804 137.8 130.425 137.179L136.749 130.853C137.37 130.231 137.876 129.012 137.876 128.115Z" fill="#29B5E8"/>
<path d="M165.356 92.3882L219.375 61.1934C226.964 56.8224 229.585 47.0913 225.193 39.4996C220.801 31.908 211.096 29.3084 203.507 33.7024L173.244 51.1862V15.8275C173.244 7.08555 166.161 0 157.445 0C148.707 0 141.624 7.08555 141.624 15.8275V77.1129C141.325 80.2875 141.946 83.6003 143.671 86.5909C148.063 94.1826 157.767 96.7822 165.356 92.3882Z" fill="#29B5E8"/>
<path d="M100.369 162.047C96.7812 161.357 92.9408 161.932 89.5373 163.888L35.5187 195.106C27.9299 199.477 25.3083 209.185 29.7006 216.776C34.0929 224.391 43.7974 226.991 51.3862 222.597L82.0635 204.883V240.196C82.0635 248.915 89.1464 256 97.885 256C106.601 256 113.684 248.915 113.684 240.196V177.668C113.684 169.777 107.911 163.244 100.369 162.047Z" fill="#29B5E8"/>
<path d="M253.134 88.7994C248.764 81.1847 239.037 78.5852 231.448 82.9791L177.429 114.174C172.255 117.165 169.404 122.64 169.496 128.207C169.45 133.751 172.301 139.157 177.429 142.102L231.448 173.32C239.037 177.691 248.741 175.091 253.134 167.5C257.526 159.908 254.904 150.2 247.316 145.806L216.73 128.138L247.316 110.47C254.927 106.099 257.526 96.391 253.134 88.7994Z" fill="#29B5E8"/>
</g>
<defs>
<clipPath id="clip0">
<rect width="256" height="256" fill="white"/>
</clipPath>
</defs>
</svg>
