<svg xmlns="http://www.w3.org/2000/svg" fill="none" viewBox="0 0 93 107"><path fill="#fff" d="m.035 83.877 46 22.666 46-22.666V.543h-92v83.334z"/><path fill="#fff" d="m.035 83.877 46 22.666 46-22.666V.543h-92v83.334z"/><path fill="#000" d="M12.83 13.33q-.37 0-.69-.09-.33-.09-.58-.25-.25-.17-.41-.37-.17-.2-.22-.43l.94-.28q.09.24.32.41.23.17.58.18.37.01.61-.16.23-.17.23-.43 0-.23-.18-.39-.19-.16-.51-.24l-.64-.17q-.35-.09-.63-.28-.27-.18-.42-.46-.16-.27-.16-.63 0-.7.46-1.09.46-.38 1.3-.38.47 0 .82.13.36.14.59.39.24.25.37.6l-.93.28q-.09-.24-.31-.4-.23-.17-.57-.17-.35 0-.55.16-.2.16-.2.46 0 .23.16.36.16.13.43.2l.64.16q.63.16.98.56t.35.89q0 .43-.21.75-.21.33-.6.51-.4.18-.97.18Zm3.3-.08v-4.9h1.82q.52 0 .92.21.4.2.62.57.23.37.23.85t-.22.85q-.22.37-.59.58-.38.22-.88.22h-.94v1.62Zm.96-2.51h.92q.32 0 .53-.21.2-.21.2-.55 0-.33-.22-.55-.23-.2-.59-.2h-.84Zm3.96 2.51v-4.9h1.82q.52 0 .92.2.4.21.62.56.23.35.23.82 0 .46-.24.82-.23.36-.64.56-.4.2-.92.2h-.83v1.74Zm2.7 0-1.13-1.97.73-.52 1.48 2.49Zm-1.74-2.61h.87q.22 0 .39-.09t.27-.25q.1-.16.1-.37 0-.31-.22-.51-.23-.19-.59-.19h-.82Zm4.26 2.61v-4.9h.96v4.9Zm2.72 0v-4.9h1l2.4 3.29V8.35h.95v4.9h-.95L29.95 9.9v3.35Zm8.39.08q-.75 0-1.33-.32-.58-.33-.9-.9-.33-.57-.33-1.31 0-.74.33-1.31.32-.57.9-.9.58-.32 1.33-.32.45 0 .82.13.38.13.67.37.29.23.49.53l-.78.49q-.12-.19-.32-.33-.19-.15-.42-.23-.23-.09-.46-.09-.46 0-.82.21-.36.22-.56.59-.2.37-.2.86 0 .48.2.86t.56.59q.36.22.84.22.37 0 .66-.15.29-.15.46-.41.17-.27.17-.62l.91-.14q0 .69-.29 1.18-.28.49-.78.75-.5.25-1.15.25Zm.16-1.96v-.74h2.06v.59l-.52.15Zm5.66 1.88v-.71q0-.2.12-.44.13-.25.35-.49.23-.25.53-.46l.74-.53q.15-.11.29-.24.14-.13.22-.29.09-.16.09-.3 0-.19-.09-.33-.08-.15-.25-.23-.17-.09-.42-.09-.21 0-.37.09-.16.08-.27.22-.1.14-.15.3l-.98-.17q.07-.35.3-.65.23-.3.6-.49.38-.18.85-.18.55 0 .94.2.39.19.61.53.21.34.21.79t-.25.81q-.25.35-.68.66l-.67.48q-.2.14-.35.31-.14.17-.22.37h2.23v.84Zm6.66.08q-.6 0-1.05-.32-.46-.33-.71-.9-.26-.57-.26-1.31 0-.74.26-1.31.25-.57.71-.9.45-.32 1.04-.32.6 0 1.06.32.45.33.71.9.26.57.26 1.31 0 .74-.26 1.31-.26.57-.71.9-.46.32-1.05.32Zm0-.86q.31 0 .56-.22.25-.21.39-.59.14-.37.14-.86t-.14-.87q-.14-.38-.39-.59-.25-.21-.57-.21-.31 0-.56.21-.24.21-.38.59t-.14.87q0 .49.14.86.14.38.39.59.24.22.56.22Zm3.32.78v-.71q0-.2.13-.44.13-.25.35-.49.22-.25.53-.46l.74-.53q.15-.11.29-.24.13-.13.22-.29.09-.16.09-.3 0-.19-.09-.33-.09-.15-.25-.23-.17-.09-.42-.09-.21 0-.37.09-.17.08-.27.22-.11.14-.15.3L53 9.58q.07-.35.3-.65.23-.3.6-.49.38-.18.85-.18.55 0 .94.2.39.19.61.53.21.34.21.79t-.25.81q-.25.35-.68.66l-.67.48q-.2.14-.35.31-.14.17-.22.37h2.23v.84Zm6.45.08q-.33 0-.69-.11-.35-.11-.63-.33-.29-.23-.42-.56l.87-.26q.16.23.37.33.21.11.45.11.36 0 .59-.22.22-.22.22-.59 0-.35-.22-.58-.22-.23-.58-.23-.22 0-.4.1-.18.1-.28.23l-.86-.19.29-2.68h2.78v.87h-1.96l-.14 1.17q.19-.1.42-.17.23-.06.5-.06.4 0 .73.2.33.19.52.52t.19.77q0 .5-.22.88-.23.38-.62.59-.39.21-.91.21ZM37.74 46.25v-10.5h2.41l.01 10.5Zm-6.78 0V35.74h2.42v10.51Zm1.71-4.24v-2.23h6.36v2.23Zm9.41 4.24v-7.5h2.34v7.5Zm1.17-8.46q-.53 0-.93-.4-.39-.39-.39-.92 0-.55.39-.94.4-.38.93-.38.54 0 .93.38.39.39.39.94 0 .53-.39.92-.39.4-.93.4Zm6.37 11.67q-.91 0-1.6-.12-.68-.12-1.16-.31-.48-.2-.79-.44l.91-1.86.57.26q.33.16.81.28.48.12 1.16.12.52 0 .93-.2.41-.2.65-.63.23-.43.23-1.07v-6.74h2.34v6.65q0 1.26-.48 2.17-.48.92-1.38 1.4-.9.49-2.19.49Zm-.54-3.49q-1.05 0-1.81-.43-.75-.43-1.17-1.22-.41-.8-.41-1.89 0-1.2.41-2.06.41-.85 1.17-1.33.76-.47 1.81-.47.87 0 1.51.47.63.48.98 1.35.35.87.35 2.08 0 1.08-.35 1.86t-.98 1.21q-.64.43-1.51.43Zm.69-1.95q.45 0 .77-.22t.5-.59q.17-.38.17-.86 0-.51-.18-.88-.18-.38-.5-.59-.32-.21-.77-.21-.44 0-.78.21-.33.21-.52.59-.19.37-.2.88.01.48.2.86.19.37.53.59.34.22.78.22Zm5.46 2.23v-10.5h2.34v10.5Zm4.83 0v-3.84h2.34v3.84Zm0-3.84q0-.6-.13-.95-.14-.35-.39-.52-.26-.16-.6-.18-.68-.02-1.02.37-.35.38-.35 1.16h-.7q0-1.18.36-2.02.36-.83.98-1.27.62-.43 1.43-.43.92 0 1.53.37.62.37.92 1.12.31.75.31 1.92v.43ZM11.75 61.25v-10.5h4.13q1.14 0 2.02.46.89.46 1.39 1.26.5.8.5 1.87 0 1.03-.49 1.85-.48.82-1.35 1.28-.87.47-2 .47h-1.78v3.31Zm2.42-5.53h1.72q.65 0 1.04-.39.39-.38.39-.99 0-.62-.42-1-.41-.38-1.08-.38h-1.65Zm9.99 5.71q-1.17 0-2.07-.5-.9-.5-1.41-1.39-.51-.88-.51-2.04 0-1.17.51-2.05.52-.89 1.42-1.38.9-.5 2.09-.5 1.06 0 1.92.51.85.51 1.35 1.52.51 1 .51 2.5h-5.64l.25-.28q0 .51.21.9t.59.59q.37.2.84.2.55 0 .93-.25.39-.24.54-.62l2.07.71q-.3.7-.85 1.17-.55.46-1.25.69-.71.22-1.5.22Zm-1.52-4.59-.24-.3h3.36l-.21.3q0-.55-.22-.88-.23-.33-.56-.48-.33-.14-.66-.14t-.67.14q-.33.15-.57.48-.23.33-.23.88Zm8.04.53q0-1.22.49-2.03.49-.81 1.23-1.21.74-.41 1.55-.41V56q-.69 0-1.3.15-.6.15-.98.46-.37.31-.37.79Zm-1.72 3.88v-7.5h2.34v7.5Zm6.72 0v-8.19q0-1.23.64-1.93.65-.71 1.98-.71.5 0 1.04.17.54.18.93.4l-.87 1.65q-.18-.12-.36-.17-.18-.05-.33-.05-.36 0-.53.24-.16.25-.16.82v7.77Zm-1.19-5.65v-1.85h5.22v1.85Zm9.89 5.83q-1.19 0-2.09-.5-.9-.5-1.42-1.39-.51-.88-.51-2.04 0-1.15.5-2.04.5-.88 1.41-1.39.91-.5 2.06-.5 1.19 0 2.1.5.9.51 1.4 1.39.51.89.51 2.04 0 1.16-.51 2.04-.5.89-1.4 1.39-.9.5-2.05.5Zm0-2.16q.45 0 .8-.22.35-.23.55-.63.21-.39.21-.92 0-.52-.21-.92-.2-.4-.56-.62-.36-.23-.82-.23-.47 0-.83.23-.36.22-.56.62-.2.4-.2.92 0 .53.2.92.2.4.57.63.37.22.85.22Zm6.82-1.9q0-1.22.49-2.03.49-.81 1.23-1.21.74-.41 1.55-.41V56q-.69 0-1.29.15-.61.15-.99.46-.37.31-.37.79Zm-1.72 3.88v-7.5h2.34v7.5Zm5.97 0v-7.5h2.2l.09.95q.36-.56.9-.84.53-.29 1.17-.29.93 0 1.54.38.61.39.89 1.17.35-.75.95-1.15.6-.4 1.35-.4 1.35 0 2.03.83.68.82.67 2.56v4.29H64.9v-3.84q0-.6-.13-.95t-.37-.52q-.24-.16-.57-.18-.64-.01-.98.37-.34.38-.34 1.16v3.96h-2.34v-3.84q0-.6-.13-.95-.12-.35-.36-.52-.24-.16-.57-.18-.65-.01-.98.37-.34.38-.34 1.16v3.96Zm16.81.18q-1.17 0-2.07-.5-.9-.5-1.41-1.39-.51-.88-.51-2.04 0-1.17.52-2.05.52-.89 1.42-1.38.9-.5 2.08-.5 1.07 0 1.92.51.86.51 1.36 1.52.5 1 .5 2.5h-5.64l.26-.28q0 .51.21.9t.58.59q.38.2.84.2.56 0 .94-.25.38-.24.53-.62l2.07.71q-.3.7-.84 1.17-.55.46-1.26.69-.7.22-1.5.22Zm-1.51-4.59-.24-.3h3.36l-.21.3q0-.55-.23-.88-.22-.33-.55-.48-.33-.14-.66-.14t-.67.14q-.34.15-.57.48-.23.33-.23.88Zm8.04.53q0-1.22.49-2.03.48-.81 1.23-1.21.74-.41 1.55-.41V56q-.69 0-1.3.15-.61.15-.98.46-.38.31-.38.79Zm-1.73 3.88v-7.5h2.34v7.5Z" style="white-space:pre"/><path fill="#FF492C" d="M71.035.543h21v21h-21z"/><g clip-path="url(#a)"><path fill="#fff" fill-rule="evenodd" d="M86.086 8.585h-1.794c.049-.281.222-.438.574-.616l.331-.168c.591-.303.906-.644.906-1.2a.972.972 0 0 0-.407-.828c-.266-.2-.591-.298-.965-.298a1.5 1.5 0 0 0-.819.233 1.383 1.383 0 0 0-.542.59l.52.519c.201-.406.494-.606.879-.606.325 0 .526.168.526.4 0 .195-.098.357-.472.546l-.211.103c-.461.233-.781.498-.965.8-.185.298-.277.682-.277 1.142v.124h2.716v-.74zm-.245 1.6h-2.966l-1.483 2.57h2.966l1.483 2.57 1.484-2.57-1.484-2.57z" clip-rule="evenodd"/><path fill="#fff" fill-rule="evenodd" d="M81.644 14.472a3.433 3.433 0 0 1-3.43-3.428 3.433 3.433 0 0 1 3.43-3.427l1.174-2.456a6 6 0 0 0-7.176 5.883 6 6 0 0 0 6.002 5.999 5.978 5.978 0 0 0 3.535-1.15l-1.3-2.252a3.417 3.417 0 0 1-2.235.831z" clip-rule="evenodd"/><path stroke="#000" stroke-width="1.085" d="M71.524 1.21v19.868"/></g><path fill="#FF492C" d="M.035 84.063v-6.5l46 23.042 46-23.042v6.5l-46 22.48-46-22.48z"/><path fill="#FFC800" d="M.035 78.109v-6.5l46 23.042 46-23.042v6.5l-46 22.48-46-22.48z"/><path fill="#FFF" d="M.035 72.174v-6.5l46 23.043 46-23.043v6.5l-46 22.48-46-22.48z"/><path stroke="#000" stroke-width="1.085" d="m91.492 83.54-45.457 22.398L.578 83.54V1.086h90.914V83.54zm.118-62.462H.66"/><defs><clipPath id="a"><path fill="#fff" d="M71.035.543h21v21h-21z"/></clipPath></defs></svg>