<svg width="1573" height="903" viewBox="0 0 1573 903" fill="none" xmlns="http://www.w3.org/2000/svg">
<path fill-rule="evenodd" clip-rule="evenodd" d="M1250.09 -52.8481L1247.97 -50.7197L1279.81 -18.6732H1353.99C1354.58 -17.2024 1356.01 -16.1649 1357.68 -16.1649C1359.89 -16.1649 1361.67 -17.9618 1361.67 -20.1784C1361.67 -22.3949 1359.89 -24.1918 1357.68 -24.1918C1356.01 -24.1918 1354.58 -23.1542 1353.99 -21.6832H1281.05L1250.09 -52.8481ZM1577.49 -51.7839H1574.49V52.1852L1616.24 94.2045H1652.75V91.1944H1617.48L1577.49 50.9384V-51.7839ZM898.852 -29.7101C898.26 -28.2394 896.828 -27.2019 895.154 -27.2019C892.952 -27.2019 891.167 -28.9988 891.167 -31.2153C891.167 -33.4319 892.952 -35.2288 895.154 -35.2288C896.828 -35.2288 898.26 -34.1911 898.852 -32.7201H1232.2L1314.44 50.0568H1556.59C1557.28 48.857 1558.57 48.0498 1560.04 48.0498C1562.24 48.0498 1564.03 49.8467 1564.03 52.0632C1564.03 54.2798 1562.24 56.0767 1560.04 56.0767C1558.18 56.0767 1556.62 54.7977 1556.18 53.0668H1313.2L1230.97 -29.7101H898.852ZM1393.04 -22.1849H1449.89V-25.195H1393.44C1393 -26.9261 1391.44 -28.2053 1389.58 -28.2053C1387.38 -28.2053 1385.6 -26.4085 1385.6 -24.1919C1385.6 -21.9753 1387.38 -20.1785 1389.58 -20.1785C1391.06 -20.1785 1392.35 -20.9854 1393.04 -22.1849ZM914.801 29.488H1035.59L1084.93 79.1541H1219.66C1220.35 80.3535 1221.64 81.1605 1223.11 81.1605C1225.31 81.1605 1227.1 79.3636 1227.1 77.1471C1227.1 74.9305 1225.31 73.1336 1223.11 73.1336C1221.25 73.1336 1219.69 74.4128 1219.25 76.144H1086.17L1036.83 26.4779H914.801C914.21 25.0069 912.777 23.9691 911.104 23.9691C908.901 23.9691 907.116 25.766 907.116 27.9825C907.116 30.1991 908.901 31.996 911.104 31.996C912.777 31.996 914.209 30.9586 914.801 29.488ZM1297.44 61.5345L1295.32 63.6629L1351.58 120.292H1492.75V117.282H1352.82L1297.44 61.5345ZM1571.97 109.756C1571.73 111.736 1570.05 113.268 1568.02 113.268C1565.81 113.268 1564.03 111.471 1564.03 109.255C1564.03 107.038 1565.81 105.241 1568.02 105.241C1569.28 105.241 1570.4 105.829 1571.13 106.746H1652.75V109.756H1571.97ZM931.503 132.332C930.814 133.531 929.526 134.338 928.05 134.338C925.848 134.338 924.062 132.541 924.062 130.325C924.062 128.108 925.848 126.311 928.05 126.311C929.908 126.311 931.469 127.591 931.912 129.322H1068.1V132.332H931.503ZM1364.16 167.157C1362.7 166.562 1361.67 165.12 1361.67 163.436C1361.67 161.219 1363.46 159.422 1365.66 159.422C1367.86 159.422 1369.65 161.219 1369.65 163.436C1369.65 165.12 1368.62 166.562 1367.15 167.158V237.563L1392.69 263.27H1555.93L1575.47 243.604C1575.17 243.037 1574.99 242.388 1574.99 241.698C1574.99 239.481 1576.78 237.684 1578.98 237.684C1581.18 237.684 1582.97 239.481 1582.97 241.698C1582.97 243.914 1581.18 245.711 1578.98 245.711C1578.57 245.711 1578.16 245.647 1577.79 245.529L1557.17 266.28H1391.46L1364.16 238.81V167.157ZM1274.95 181.496H1123.93V184.507H1274.95V181.496ZM1575.99 205.577H1481.67L1456.75 230.661H1410.75C1410.2 229.104 1408.72 227.99 1406.99 227.99C1404.79 227.99 1403 229.786 1403 232.003C1403 234.219 1404.79 236.016 1406.99 236.016C1408.6 236.016 1409.99 235.055 1410.61 233.671H1457.99L1482.91 208.587H1575.99V205.577ZM1328.9 236.681H1249.03V239.691H1329.31C1330 240.891 1331.29 241.698 1332.76 241.698C1334.97 241.698 1336.75 239.901 1336.75 237.684C1336.75 235.468 1334.97 233.671 1332.76 233.671C1330.91 233.671 1329.34 234.95 1328.9 236.681ZM1507.17 251.731C1507.68 250.09 1509.19 248.897 1510.99 248.897C1513.19 248.897 1514.97 250.694 1514.97 252.911C1514.97 255.127 1513.19 256.924 1510.99 256.924C1509.44 256.924 1508.1 256.037 1507.44 254.742H1415V251.731H1507.17ZM1578.86 322.97H1652.75V319.96H1578.45C1577.76 318.76 1576.47 317.953 1574.99 317.953C1572.79 317.953 1571.01 319.75 1571.01 321.966C1571.01 324.183 1572.79 325.98 1574.99 325.98C1576.85 325.98 1578.41 324.701 1578.86 322.97ZM1461.85 339.525H1532.51L1555.93 363.104H1630.32V360.094H1557.17L1533.75 336.515H1461.43C1460.74 335.321 1459.46 334.519 1457.99 334.519C1455.79 334.519 1454 336.316 1454 338.533C1454 340.749 1455.79 342.546 1457.99 342.546C1459.85 342.546 1461.41 341.262 1461.85 339.525ZM1631.31 531.166H1560.44L1530.54 559.762H1466C1465.44 558.575 1464.24 557.755 1462.85 557.755C1460.92 557.755 1459.36 559.327 1459.36 561.266C1459.36 563.206 1460.92 564.778 1462.85 564.778C1464.24 564.778 1465.44 563.958 1466 562.772H1531.73L1561.64 534.176H1631.31V531.166ZM1650.75 545.715H1581.85L1559.54 568.169V594.91C1557.58 595.158 1556.05 596.846 1556.05 598.893C1556.05 601.109 1557.84 602.906 1560.04 602.906C1562.24 602.906 1564.03 601.109 1564.03 598.893C1564.03 597.625 1563.45 596.494 1562.53 595.759V569.415L1583.09 548.725H1650.75V545.715ZM1472.98 576.819H1529.64V611.225C1528.18 611.82 1527.15 613.262 1527.15 614.946C1527.15 617.163 1528.93 618.96 1531.13 618.96C1533.34 618.96 1535.12 617.163 1535.12 614.946C1535.12 613.262 1534.09 611.82 1532.63 611.224V573.809H1472.98C1472.42 572.622 1471.22 571.802 1469.83 571.802C1467.9 571.802 1466.34 573.374 1466.34 575.314C1466.34 577.253 1467.9 578.825 1469.83 578.825C1471.22 578.825 1472.42 578.005 1472.98 576.819ZM1582.47 576.819H1650.75V573.809H1582.47V576.819ZM1600.41 598.391H1597.42V642.539H1650.75V639.529H1600.41V598.391ZM-73.7656 633.007H95.4586L118.124 662.617V738.651C116.663 739.246 115.633 740.688 115.633 742.372C115.633 744.589 117.418 746.386 119.62 746.386C121.822 746.386 123.607 744.589 123.607 742.372C123.607 740.688 122.576 739.246 121.115 738.651V661.592L96.9297 629.997H-73.7656V633.007ZM1557.67 633.007H1390.46L1364.16 659.474V729.621C1362.7 730.216 1361.67 731.658 1361.67 733.342C1361.67 735.559 1363.46 737.356 1365.66 737.356C1367.86 737.356 1369.65 735.559 1369.65 733.342C1369.65 731.658 1368.62 730.216 1367.15 729.62V660.721L1391.7 636.017H1556.43L1579.16 658.897C1579.04 659.276 1578.98 659.679 1578.98 660.097C1578.98 662.314 1580.77 664.111 1582.97 664.111C1585.17 664.111 1586.96 662.314 1586.96 660.097C1586.96 657.881 1585.17 656.084 1582.97 656.084C1582.28 656.084 1581.64 656.258 1581.07 656.565L1557.67 633.007ZM1334.76 672.138C1332.9 672.138 1331.34 670.859 1330.9 669.128H1185.34L1137.99 715.784H951.476V712.774H1136.77L1184.12 666.118H1331.3C1331.99 664.918 1333.28 664.111 1334.76 664.111C1336.96 664.111 1338.74 665.908 1338.74 668.124C1338.74 670.341 1336.96 672.138 1334.76 672.138ZM1400.55 663.548C1402.24 663.548 1403.69 664.615 1404.27 666.118H1461.48L1486.9 691.703H1572.29C1572.89 690.232 1574.32 689.194 1575.99 689.194C1578.19 689.194 1579.98 690.991 1579.98 693.208C1579.98 695.424 1578.19 697.221 1575.99 697.221C1574.32 697.221 1572.89 696.184 1572.29 694.713H1485.66L1460.24 669.128H1404.22C1403.61 670.566 1402.2 671.575 1400.55 671.575C1398.35 671.575 1396.56 669.778 1396.56 667.562C1396.56 665.345 1398.35 663.548 1400.55 663.548ZM1609.88 664.111C1611.36 664.111 1612.65 664.918 1613.34 666.118H1650.75V669.128H1613.74C1613.3 670.859 1611.74 672.138 1609.88 672.138C1607.68 672.138 1605.9 670.341 1605.9 668.124C1605.9 665.908 1607.68 664.111 1609.88 664.111ZM376.802 766.453C378.475 766.453 379.908 767.491 380.499 768.962H567.695V771.972H380.499C379.908 773.442 378.475 774.48 376.802 774.48C374.6 774.48 372.814 772.683 372.814 770.466C372.814 768.25 374.6 766.453 376.802 766.453ZM1065.61 774.48C1063.94 774.48 1062.51 773.442 1061.92 771.972H936.644L883.812 825.15H828.367V822.14H882.573L935.405 768.962H1061.92C1062.51 767.491 1063.94 766.453 1065.61 766.453C1067.82 766.453 1069.6 768.25 1069.6 770.466C1069.6 772.683 1067.82 774.48 1065.61 774.48ZM1488.8 780.5H1345.6L1289.84 836.627L1291.95 838.756L1346.84 783.51H1488.39C1488.84 785.241 1490.4 786.52 1492.26 786.52C1494.46 786.52 1496.24 784.723 1496.24 782.507C1496.24 780.29 1494.46 778.493 1492.26 778.493C1490.78 778.493 1489.49 779.301 1488.8 780.5ZM1568.02 787.524C1569.69 787.524 1571.12 788.561 1571.71 790.032H1650.75V793.042H1571.71C1571.12 794.513 1569.69 795.55 1568.02 795.55C1565.81 795.55 1564.03 793.754 1564.03 791.537C1564.03 789.32 1565.81 787.524 1568.02 787.524ZM469.009 803.076H519.253L591.523 871.806H681.833V868.796H592.712L520.442 800.066H469.009V803.076ZM261.877 825.15H400.605L446.958 871.806H566.734C567.423 873.005 568.712 873.812 570.188 873.812C572.39 873.812 574.175 872.015 574.175 869.799C574.175 867.582 572.39 865.785 570.188 865.785C568.33 865.785 566.768 867.065 566.326 868.796H448.197L401.844 822.14H261.877C261.286 820.669 259.853 819.631 258.18 819.631C255.978 819.631 254.192 821.428 254.192 823.644C254.192 825.861 255.978 827.658 258.18 827.658C259.853 827.658 261.286 826.62 261.877 825.15ZM796.758 822.14C797.349 820.669 798.782 819.631 800.455 819.631C802.657 819.631 804.442 821.428 804.442 823.644C804.442 825.861 802.657 827.658 800.455 827.658C798.782 827.658 797.349 826.62 796.758 825.15H681.833V822.14H796.758ZM1224.11 827.658C1222.44 827.658 1221 826.62 1220.41 825.15H1087.17L1037.32 875.317H916.794C916.203 876.788 914.77 877.826 913.097 877.826C910.895 877.826 909.109 876.029 909.109 873.812C909.109 871.596 910.895 869.799 913.097 869.799C914.77 869.799 916.203 870.837 916.794 872.307H1036.09L1085.93 822.14H1220.41C1221 820.669 1222.44 819.631 1224.11 819.631C1226.31 819.631 1228.1 821.428 1228.1 823.644C1228.1 825.861 1226.31 827.658 1224.11 827.658ZM1568.51 843.21H1312.71L1225.98 930.502H899.264C898.534 929.584 897.411 928.997 896.151 928.997C893.949 928.997 892.164 930.794 892.164 933.01C892.164 935.227 893.949 937.024 896.151 937.024C898.185 937.024 899.862 935.492 900.108 933.512H1227.22L1313.94 846.22H1568.51V843.21ZM-70.2767 847.223H165.353L249.223 931.643C249.212 931.763 249.207 931.884 249.207 932.007C249.207 934.224 250.992 936.021 253.194 936.021C255.396 936.021 257.182 934.224 257.182 932.007C257.182 929.791 255.396 927.994 253.194 927.994C252.251 927.994 251.385 928.323 250.702 928.874L166.592 844.213H-70.2767V847.223ZM1357.68 919.465H1290.28L1257.94 952.013L1260.06 954.142L1291.52 922.475H1357.68V919.465ZM1388.09 922.475H1453.8L1488.26 954.188L1490.28 951.967L1454.96 919.465H1388.09V922.475ZM266.154 927.994C267.828 927.994 269.26 929.031 269.852 930.502H586.635V933.512H269.852C269.26 934.983 267.828 936.021 266.154 936.021C263.952 936.021 262.167 934.224 262.167 932.007C262.167 929.791 263.952 927.994 266.154 927.994ZM1651.25 806.086H1620.73L1574.5 852.62V950.067H1577.49V853.867L1621.97 809.096H1651.25V806.086ZM1506.21 650.064C1508.41 650.064 1510.2 648.267 1510.2 646.05C1510.2 643.834 1508.41 642.037 1506.21 642.037C1504.01 642.037 1502.22 643.834 1502.22 646.05C1502.22 648.267 1504.01 650.064 1506.21 650.064ZM1609.88 232.667C1612.08 232.667 1613.87 230.87 1613.87 228.654C1613.87 226.437 1612.08 224.641 1609.88 224.641C1607.68 224.641 1605.9 226.437 1605.9 228.654C1605.9 230.87 1607.68 232.667 1609.88 232.667ZM1596.92 313.939C1599.13 313.939 1600.91 312.143 1600.91 309.926C1600.91 307.709 1599.13 305.913 1596.92 305.913C1594.72 305.913 1592.94 307.709 1592.94 309.926C1592.94 312.143 1594.72 313.939 1596.92 313.939ZM1104.49 840.702C1105.97 840.702 1107.25 839.895 1107.94 838.695H1129.41V835.685H1108.35C1107.91 833.954 1106.35 832.675 1104.49 832.675C1102.29 832.675 1100.5 834.472 1100.5 836.688C1100.5 838.905 1102.29 840.702 1104.49 840.702ZM909.109 823.644C909.109 825.861 907.324 827.658 905.122 827.658C902.92 827.658 901.135 825.861 901.135 823.644C901.135 821.428 902.92 819.631 905.122 819.631C907.324 819.631 909.109 821.428 909.109 823.644ZM1004.81 797.056H942.005V800.066H1004.81V797.056ZM1174.27 710.767H1213.64V713.777H1174.27V710.767ZM1104.49 735.851H1147.35V738.861H1104.49V735.851ZM1252.52 735.851H1338.25V738.861H1252.52V735.851Z" fill="white"/>
</svg>
