<svg version="1.1" baseProfile="full"
  xmlns="http://www.w3.org/2000/svg" viewBox="0 0 40 40" width="40px" height="40px" x="0" y="0" preserveAspectRatio="xMinYMin meet" focusable="false">
  <g class="app-icon" style="fill: currentColor">
    <path d="M34.5,3H5.6C4.2,3,3,4.1,3,5.4v29.1C3,35.9,4.2,37,5.6,37h29C35.9,37,37,35.9,37,34.6V5.4C37,4.1,35.9,3,34.5,3zM13,32H8V16h5V32zM10.5,13.9c-1.9,0-3.4-1.5-3.4-3.4c0-1.9,1.5-3.4,3.4-3.4s3.4,1.5,3.4,3.4C13.9,12.4,12.4,13.9,10.5,13.9zM32,32h-5v-7.9c0-2.4-1-4-2.6-4c-2.3,0-3.4,2.1-3.4,4.6V32h-5V16h5v2.1c0.8-1.4,2.2-2.5,4.7-2.5c4.7,0,6.3,1.7,6.3,5.4V32z"></path>
  </g>
</svg>