<svg width="80" height="84" viewBox="0 0 80 84" fill="none" xmlns="http://www.w3.org/2000/svg">
<path fill-rule="evenodd" clip-rule="evenodd" d="M20.4011 19.255C20.4011 20.2678 21.2222 21.0888 22.235 21.0888H38.7393C39.752 21.0888 40.5731 20.2678 40.5731 19.255V11.2321H48.596L48.596 49.2837H40.5731V41.2607C40.5731 40.248 39.752 39.4269 38.7393 39.4269H22.235C21.2222 39.4269 20.4011 40.248 20.4011 41.2607V47.0221L20.4082 47.0232V47.0464C20.4082 48.1735 21.3219 49.0872 22.449 49.0872C23.5761 49.0872 24.4898 48.1735 24.4898 47.0464V43.553H36.447V56.4341H35.5102C34.3831 56.4341 33.4694 57.3478 33.4694 58.4749C33.4694 59.6021 34.3831 60.5158 35.5102 60.5158H38.7393C39.752 60.5158 40.5731 59.6947 40.5731 58.6819V53.4097H48.8252C50.9774 53.4097 52.7221 51.6651 52.7221 49.5129L52.7221 11.2321H60.745V19.255C60.745 20.2678 61.566 21.0888 62.5788 21.0888H78.1662C79.179 21.0888 80 20.2678 80 19.255V1.83381C80 0.821024 79.179 0 78.1662 0H62.5788C61.566 0 60.745 0.821026 60.745 1.83381V7.10602H40.5731V1.83381C40.5731 0.821024 39.752 0 38.7393 0H22.235C21.2222 0 20.4011 0.821026 20.4011 1.83381V19.255ZM24.5272 4.12607V16.9628H36.447V4.12607H24.5272ZM64.8711 4.12607V16.9628H75.8739V4.12607H64.8711Z" fill="#19B5FF"/>
<path fill-rule="evenodd" clip-rule="evenodd" d="M18.9424 52.142C11.8741 52.142 6.25163 58.0328 6.25163 65.1649C6.25163 67.9796 7.12378 70.5938 8.61121 72.7298L0.650482 80.2086C-0.179932 80.9887 -0.220688 82.2943 0.559448 83.1247C1.33958 83.9551 2.64519 83.9959 3.4756 83.2158L11.4779 75.6979C13.5675 77.2593 16.1471 78.1878 18.9424 78.1878C26.0108 78.1878 31.6332 72.2969 31.6332 65.1649C31.6332 58.0328 26.0108 52.142 18.9424 52.142ZM10.3777 65.1649C10.3777 60.191 14.2717 56.268 18.9424 56.268C23.6132 56.268 27.5072 60.191 27.5072 65.1649C27.5072 70.1388 23.6132 74.0617 18.9424 74.0617C16.598 74.0617 14.4662 73.0849 12.9085 71.4785C11.3498 69.871 10.3777 67.6428 10.3777 65.1649Z" fill="#19B5FF"/>
</svg>
