<svg xmlns="http://www.w3.org/2000/svg" width="48" height="48" id="lightbulb-small" data-supported-dps="48x48">
  <path d="M24 14a8 8 0 00-5.3 14h10.5a8 8 0 00.7-11.3A7.67 7.67 0 0024 14z" fill="#fff"/>
  <path fill="#98d8f4" d="M20 33h8v2h-8zM20 30h8v2h-8z"/>
  <path d="M24 6a.94.94 0 011 1v2a.94.94 0 01-1 1 .94.94 0 01-1-1V7a.94.94 0 011-1zM12.7 10.7a1 1 0 011.4 0l1.4 1.4a1 1 0 010 1.4 1 1 0 01-1.4 0l-1.4-1.4a1 1 0 010-1.4zM8 22a.94.94 0 011-1h2a.94.94 0 011 1 .94.94 0 01-1 1H9a.94.94 0 01-1-1zM35.3 10.7a1 1 0 010 1.4l-1.4 1.4a1 1 0 01-1.4 0 1 1 0 010-1.4l1.4-1.4a1 1 0 011.4 0zM40 22a.94.94 0 01-1 1h-2a.94.94 0 01-1-1 .94.94 0 011-1h2a.94.94 0 011 1z" fill="#0091ca"/>
  <path d="M32 16a10.14 10.14 0 00-8-4 10 10 0 00-10 10 10.14 10.14 0 004 8v5a2 2 0 002 2 4 4 0 008 0 2 2 0 002-2v-5a10 10 0 002-14zm-8 23a2 2 0 01-2-2h4a2 2 0 01-2 2zm4-4h-8v-2h8v2zm0-3h-8v-2h8v2zm2-4.7a4.62 4.62 0 01-.7.7H18.7a8 8 0 0110.6-12 8 8 0 01.7 11.3z" fill="#006097"/>
  <path d="M22.3 23.8L22 23h4l-.3.8A15.39 15.39 0 0025 28h2a15.39 15.39 0 01.7-4.2l.3-.8v-1a.94.94 0 00-1-1h-6a.94.94 0 00-1 1v1l.3.8A14.21 14.21 0 0121 28h2a15.39 15.39 0 00-.7-4.2z" fill="#0091ca"/>
  <path d="M24 39a2 2 0 002-2h-4a2 2 0 002 2z" fill="#98d8f4"/>
</svg>