<?xml version="1.0" encoding="UTF-8"?><svg id="artwork" xmlns="http://www.w3.org/2000/svg" viewBox="0 0 116.7083 125.18652"><g fill="none" opacity=".66"><path d="m105.89021,72.32176l-32.88379-46.08544c-3.37097-4.72436-8.84851-7.54492-14.65234-7.54492s-11.28137,2.8208-14.65247,7.54517L10.81819,72.32176c-3.93286,5.51196-4.45044,12.67578-1.35046,18.69555,3.09973,6.01977,9.23169,9.75952,16.00281,9.75952h65.76721c6.77112,0,12.9032-3.7395,16.00293-9.75952,3.09985-6.02002,2.5824-13.18359-1.35046-18.69555Zm-14.65247,20.45508H25.47053c-8.13147,0-12.86316-9.18921-8.14014-15.80835L50.21382,30.88329c1.99402-2.79468,5.06714-4.19189,8.14026-4.19189s6.14624,1.39722,8.14026,4.19165l32.88367,46.08544c4.72302,6.61914-.00879,15.80835-8.14026,15.80835Z" fill="#18999a"/></g><g fill="none" opacity=".33"><path d="m41.83396,76.00463h33.04028c7.04163,0,13.60364-2.7652,18.45496-7.51343l-4.72095-6.61627c-3.27185,3.69019-8.05029,6.1297-13.73401,6.1297h-33.04028c-5.68359,0-10.46204-2.43939-13.73376-6.12958l-4.72095,6.61621c4.85132,4.74817,11.41309,7.51337,18.45471,7.51337Z" fill="#105f77"/></g><g fill="none" opacity=".33"><path d="m18.37241,61.73479l5.55859-7.79016c-1.21753-4.89282-.47314-10.33594,2.90381-15.06866l16.52002-23.15234c3.67407-5.14893,9.33667-7.72363,14.99927-7.72363s11.3252,2.57471,14.99927,7.72363l16.52014,23.15259c3.37683,4.7326,4.12146,10.1756,2.90393,15.0683l5.55859,7.79022c.01025-.01984.02222-.03833.03247-.05823,4.5509-8.83789,3.79114-19.35498-1.98279-27.44702l-16.52014-23.15234c-4.9491-6.93603-12.99084-11.07715-21.51147-11.07715s-16.56226,4.14111-21.51135,11.0769l-16.52014,23.15234c-5.77393,8.09228-6.53369,18.60937-1.98279,27.44726.01025.0199.02234.03845.03259.05829Z" fill="#105f77"/></g><path d="m114.82783,109.25755l-48.27136-67.65087c-1.88721-2.64478-4.95349-4.22363-8.20239-4.22363s-6.31519,1.57886-8.20227,4.22339L1.88032,109.25755c-2.20166,3.08569-2.49121,7.09595-.75598,10.46582,1.73535,3.36963,5.16797,5.46313,8.95837,5.46313h96.54297c3.79053,0,7.22314-2.09326,8.95837-5.46338,1.73523-3.36987,1.44543-7.38013-.75623-10.46557Zm-8.20215,7.92895H10.08272c-1.68835,0-2.67078-1.90796-1.69019-3.28223L56.66389,46.25316c.41406-.58008,1.05212-.87012,1.69019-.87012s1.27625.29004,1.69019.87012l48.27148,67.65111c.98071,1.37451-.00171,3.28223-1.69006,3.28223Z" fill="#20d3bd"/></svg>