<svg width="86" height="87" viewBox="0 0 86 87" fill="none" xmlns="http://www.w3.org/2000/svg">
<circle opacity="0.3" cx="43" cy="43.71" r="42.5" fill="#EFFBFF" stroke="white"/>
<circle opacity="0.6" cx="43" cy="43.7099" r="34.041" fill="white" stroke="white"/>
<circle cx="42.6475" cy="43.3574" r="25.7295" fill="white"/>
<g clip-path="url(#clip0_312_3727)">
<path d="M53.5234 50.7319H52.7734V37.9819C52.7734 37.783 52.6944 37.5923 52.5538 37.4516C52.4131 37.311 52.2223 37.2319 52.0234 37.2319H48.2734V34.9819C48.2734 34.783 48.1944 34.5923 48.0538 34.4516C47.9131 34.311 47.7224 34.2319 47.5234 34.2319H38.5234C38.3245 34.2319 38.1338 34.311 37.9931 34.4516C37.8525 34.5923 37.7734 34.783 37.7734 34.9819V40.2319H34.0234C33.8245 40.2319 33.6338 40.311 33.4931 40.4516C33.3525 40.5923 33.2734 40.783 33.2734 40.9819V50.7319H32.5234C32.3245 50.7319 32.1338 50.811 31.9931 50.9516C31.8525 51.0923 31.7734 51.283 31.7734 51.4819C31.7734 51.6808 31.8525 51.8716 31.9931 52.0123C32.1338 52.1529 32.3245 52.2319 32.5234 52.2319H53.5234C53.7223 52.2319 53.9131 52.1529 54.0538 52.0123C54.1944 51.8716 54.2734 51.6808 54.2734 51.4819C54.2734 51.283 54.1944 51.0923 54.0538 50.9516C53.9131 50.811 53.7223 50.7319 53.5234 50.7319ZM34.7734 41.7319H38.5234C38.7223 41.7319 38.9131 41.6529 39.0538 41.5123C39.1944 41.3716 39.2734 41.1808 39.2734 40.9819V35.7319H46.7734V37.9819C46.7734 38.1808 46.8525 38.3716 46.9931 38.5123C47.1338 38.6529 47.3245 38.7319 47.5234 38.7319H51.2734V50.7319H45.2734V46.9819C45.2734 46.783 45.1944 46.5923 45.0538 46.4516C44.9131 46.311 44.7224 46.2319 44.5234 46.2319H41.5234C41.3245 46.2319 41.1338 46.311 40.9931 46.4516C40.8525 46.5923 40.7734 46.783 40.7734 46.9819V50.7319H34.7734V41.7319ZM43.7734 50.7319H42.2734V47.7319H43.7734V50.7319ZM41.5234 37.9819C41.5234 37.783 41.6025 37.5923 41.7431 37.4516C41.8838 37.311 42.0745 37.2319 42.2734 37.2319H43.7734C43.9724 37.2319 44.1631 37.311 44.3038 37.4516C44.4444 37.5923 44.5234 37.783 44.5234 37.9819C44.5234 38.1808 44.4444 38.3716 44.3038 38.5123C44.1631 38.6529 43.9724 38.7319 43.7734 38.7319H42.2734C42.0745 38.7319 41.8838 38.6529 41.7431 38.5123C41.6025 38.3716 41.5234 38.1808 41.5234 37.9819ZM41.5234 40.9819C41.5234 40.783 41.6025 40.5923 41.7431 40.4516C41.8838 40.311 42.0745 40.2319 42.2734 40.2319H43.7734C43.9724 40.2319 44.1631 40.311 44.3038 40.4516C44.4444 40.5923 44.5234 40.783 44.5234 40.9819C44.5234 41.1808 44.4444 41.3716 44.3038 41.5123C44.1631 41.6529 43.9724 41.7319 43.7734 41.7319H42.2734C42.0745 41.7319 41.8838 41.6529 41.7431 41.5123C41.6025 41.3716 41.5234 41.1808 41.5234 40.9819ZM46.7734 40.9819C46.7734 40.783 46.8525 40.5923 46.9931 40.4516C47.1338 40.311 47.3245 40.2319 47.5234 40.2319H49.0234C49.2223 40.2319 49.4131 40.311 49.5538 40.4516C49.6944 40.5923 49.7734 40.783 49.7734 40.9819C49.7734 41.1808 49.6944 41.3716 49.5538 41.5123C49.4131 41.6529 49.2223 41.7319 49.0234 41.7319H47.5234C47.3245 41.7319 47.1338 41.6529 46.9931 41.5123C46.8525 41.3716 46.7734 41.1808 46.7734 40.9819ZM39.2734 43.9819C39.2734 44.1808 39.1944 44.3716 39.0538 44.5123C38.9131 44.6529 38.7223 44.7319 38.5234 44.7319H37.0234C36.8245 44.7319 36.6338 44.6529 36.4931 44.5123C36.3525 44.3716 36.2734 44.1808 36.2734 43.9819C36.2734 43.783 36.3525 43.5923 36.4931 43.4516C36.6338 43.311 36.8245 43.2319 37.0234 43.2319H38.5234C38.7223 43.2319 38.9131 43.311 39.0538 43.4516C39.1944 43.5923 39.2734 43.783 39.2734 43.9819ZM39.2734 46.9819C39.2734 47.1808 39.1944 47.3716 39.0538 47.5123C38.9131 47.6529 38.7223 47.7319 38.5234 47.7319H37.0234C36.8245 47.7319 36.6338 47.6529 36.4931 47.5123C36.3525 47.3716 36.2734 47.1808 36.2734 46.9819C36.2734 46.783 36.3525 46.5923 36.4931 46.4516C36.6338 46.311 36.8245 46.2319 37.0234 46.2319H38.5234C38.7223 46.2319 38.9131 46.311 39.0538 46.4516C39.1944 46.5923 39.2734 46.783 39.2734 46.9819ZM41.5234 43.9819C41.5234 43.783 41.6025 43.5923 41.7431 43.4516C41.8838 43.311 42.0745 43.2319 42.2734 43.2319H43.7734C43.9724 43.2319 44.1631 43.311 44.3038 43.4516C44.4444 43.5923 44.5234 43.783 44.5234 43.9819C44.5234 44.1808 44.4444 44.3716 44.3038 44.5123C44.1631 44.6529 43.9724 44.7319 43.7734 44.7319H42.2734C42.0745 44.7319 41.8838 44.6529 41.7431 44.5123C41.6025 44.3716 41.5234 44.1808 41.5234 43.9819ZM46.7734 43.9819C46.7734 43.783 46.8525 43.5923 46.9931 43.4516C47.1338 43.311 47.3245 43.2319 47.5234 43.2319H49.0234C49.2223 43.2319 49.4131 43.311 49.5538 43.4516C49.6944 43.5923 49.7734 43.783 49.7734 43.9819C49.7734 44.1808 49.6944 44.3716 49.5538 44.5123C49.4131 44.6529 49.2223 44.7319 49.0234 44.7319H47.5234C47.3245 44.7319 47.1338 44.6529 46.9931 44.5123C46.8525 44.3716 46.7734 44.1808 46.7734 43.9819ZM46.7734 46.9819C46.7734 46.783 46.8525 46.5923 46.9931 46.4516C47.1338 46.311 47.3245 46.2319 47.5234 46.2319H49.0234C49.2223 46.2319 49.4131 46.311 49.5538 46.4516C49.6944 46.5923 49.7734 46.783 49.7734 46.9819C49.7734 47.1808 49.6944 47.3716 49.5538 47.5123C49.4131 47.6529 49.2223 47.7319 49.0234 47.7319H47.5234C47.3245 47.7319 47.1338 47.6529 46.9931 47.5123C46.8525 47.3716 46.7734 47.1808 46.7734 46.9819Z" fill="#6A717D"/>
</g>
<defs>
<clipPath id="clip0_312_3727">
<rect width="24" height="24" fill="white" transform="translate(31.0234 31.2319)"/>
</clipPath>
</defs>
</svg>
