<svg width="24" height="25" viewBox="0 0 24 25" fill="none" xmlns="http://www.w3.org/2000/svg">
<path d="M14.9998 3.38818C13.4429 3.38894 11.9151 3.81071 10.5783 4.60884C9.24152 5.40696 8.14542 6.55173 7.40609 7.92193C6.54592 7.83307 5.67666 7.92014 4.8512 8.17783C4.02575 8.43553 3.26135 8.85847 2.60451 9.42093C1.94767 9.98338 1.41214 10.6736 1.03048 11.4496C0.648817 12.2255 0.429017 13.071 0.384449 13.9346C0.339881 14.7982 0.471477 15.6619 0.771231 16.473C1.07098 17.2841 1.53263 18.0258 2.12808 18.6529C2.72352 19.28 3.44032 19.7793 4.23487 20.1206C5.02942 20.4619 5.88509 20.638 6.74984 20.6382H14.9998C17.2873 20.6382 19.4811 19.7295 21.0986 18.112C22.7161 16.4945 23.6248 14.3007 23.6248 12.0132C23.6248 9.72569 22.7161 7.53189 21.0986 5.91439C19.4811 4.29689 17.2873 3.38818 14.9998 3.38818ZM14.9998 18.3882H6.74984C5.65582 18.4108 4.59762 17.9979 3.80804 17.2403C3.01845 16.4827 2.56215 15.4425 2.53953 14.3485C2.5169 13.2545 2.9298 12.1963 3.68739 11.4067C4.44497 10.6171 5.4852 10.1608 6.57921 10.1382C6.44265 10.7538 6.37411 11.3826 6.37484 12.0132C6.37484 12.3116 6.49337 12.5977 6.70434 12.8087C6.91532 13.0197 7.20147 13.1382 7.49984 13.1382C7.79821 13.1382 8.08436 13.0197 8.29533 12.8087C8.50631 12.5977 8.62484 12.3116 8.62484 12.0132C8.62484 10.7523 8.99873 9.51979 9.69922 8.47142C10.3997 7.42306 11.3954 6.60596 12.5602 6.12345C13.7251 5.64094 15.0069 5.5147 16.2435 5.76068C17.4802 6.00666 18.6161 6.61382 19.5076 7.50538C20.3992 8.39694 21.0064 9.53285 21.2523 10.7695C21.4983 12.0061 21.3721 13.2879 20.8896 14.4528C20.4071 15.6177 19.59 16.6133 18.5416 17.3138C17.4932 18.0143 16.2607 18.3882 14.9998 18.3882Z" fill="#2E2E38"/>
</svg>
