<?xml version="1.0" encoding="UTF-8" standalone="no"?>
<svg
   width="451.39999"
   height="111"
   viewBox="0 0 451.39999 111"
   fill="none"
   version="1.1"
   id="svg10"
   sodipodi:docname="datahub-logo-color-light-horizontal.svg"
   inkscape:version="1.4 (e7c3feb1, 2024-10-09)"
   xmlns:inkscape="http://www.inkscape.org/namespaces/inkscape"
   xmlns:sodipodi="http://sodipodi.sourceforge.net/DTD/sodipodi-0.dtd"
   xmlns="http://www.w3.org/2000/svg"
   xmlns:svg="http://www.w3.org/2000/svg">
  <defs
     id="defs10" />
  <sodipodi:namedview
     id="namedview10"
     pagecolor="#ffffff"
     bordercolor="#000000"
     borderopacity="0.25"
     inkscape:showpageshadow="2"
     inkscape:pageopacity="0.0"
     inkscape:pagecheckerboard="0"
     inkscape:deskcolor="#d1d1d1"
     inkscape:zoom="2.1639344"
     inkscape:cx="244"
     inkscape:cy="59.844697"
     inkscape:window-width="2560"
     inkscape:window-height="1382"
     inkscape:window-x="1728"
     inkscape:window-y="30"
     inkscape:window-maximized="0"
     inkscape:current-layer="svg10" />
  <g
     id="g10"
     transform="translate(2.0337868,0.5)">
    <path
       d="M 151.84675,84.5878 H 128.66242 V 25.320258 h 23.18433 c 16.76217,0 26.6035,12.191667 26.6035,29.638859 0,17.447191 -9.84133,29.638858 -26.6035,29.638858 z M 138.49367,33.661925 v 42.574033 h 11.847 c 11.09258,0 18.01341,-7.598158 18.01341,-21.287016 0,-13.688859 -6.92083,-21.287017 -18.01341,-21.287017 z"
       fill="#000000"
       id="path1"
       style="stroke-width:0.916667" />
    <path
       d="m 220.10633,84.587983 h -8.25366 v -4.756491 c -2.66659,3.921225 -7.51117,6.0907 -13.85175,6.0907 -8.67075,0 -15.01134,-3.839825 -15.01134,-11.855525 0,-4.42035 1.66925,-7.67965 4.92617,-9.767634 3.33758,-2.169383 7.92733,-3.839825 13.84075,-4.92965 l 9.5975,-1.751841 V 56.12035 c 0,-4.593508 -3.3385,-7.180525 -8.67167,-7.180525 -5.33225,0 -8.42691,1.914825 -13.43375,6.925875 l -5.76033,-5.347192 c 5.25158,-6.263858 11.17508,-9.187016 18.93008,-9.187016 11.34742,0 17.688,5.673158 17.688,14.605525 v 28.630525 z m -8.75233,-20.28895 -7.25633,1.507459 c -8.34625,1.751841 -12.09084,3.422191 -12.09084,7.76105 0,3.086141 2.74725,5.011141 7.33792,5.011141 6.75767,0 12.00925,-3.758333 12.00925,-10.42965 v -3.839825 z"
       fill="#000000"
       id="path2"
       style="stroke-width:0.916667" />
    <path
       d="m 252.72408,83.9157 c -3.08366,1.089825 -6.08575,1.588858 -9.00625,1.588858 -8.09141,0 -11.42991,-3.676841 -11.42991,-11.264825 V 49.611925 h -7.59184 V 42.68605 h 7.59184 V 29.160083 h 9.18041 V 42.68605 h 10.59484 v 6.925875 h -10.59484 v 23.537983 c 0,3.2593 1.41442,4.420442 4.50817,4.420442 1.50608,0 3.3385,-0.336142 5.588,-0.916667 l 1.16967,7.262017 z"
       fill="#000000"
       id="path3"
       style="stroke-width:0.916667" />
    <path
       d="m 295.16392,84.587983 h -8.25459 v -4.756491 c -2.66566,3.921225 -7.51025,6.0907 -13.85083,6.0907 -8.67075,0 -15.01133,-3.839825 -15.01133,-11.855525 0,-4.42035 1.66925,-7.67965 4.92525,-9.767634 3.3385,-2.169383 7.92825,-3.839825 13.84166,-4.92965 l 9.59659,-1.751841 V 56.12035 c 0,-4.593508 -3.33759,-7.180525 -8.67075,-7.180525 -5.33317,0 -8.42692,1.914825 -13.43375,6.925875 l -5.76034,-5.347192 c 5.25159,-6.263858 11.17417,-9.187016 18.92917,-9.187016 11.34833,0 17.68892,5.673158 17.68892,14.605525 v 28.630525 z m -8.76334,-20.28895 -7.25633,1.507459 c -8.34533,1.751841 -12.08992,3.422191 -12.08992,7.76105 0,3.086141 2.74725,5.011141 7.337,5.011141 6.75767,0 12.00925,-3.758333 12.00925,-10.42965 v -3.839825 z"
       fill="#000000"
       id="path4"
       style="stroke-width:0.916667" />
    <path
       d="m 352.69575,84.5878 h -9.92292 V 57.790608 H 313.90975 V 84.5878 h -9.84133 V 25.320258 h 9.84133 v 24.128684 h 28.86308 V 25.320258 h 9.92292 z"
       fill="#000000"
       id="path5"
       style="stroke-width:0.916667" />
    <path
       d="M 397.47492,42.686233 V 84.588075 H 389.048 v -4.837983 c -2.33108,3.758333 -6.677,6.090791 -12.42633,6.090791 -10.09617,0 -14.93067,-5.347283 -14.93067,-13.444475 v -29.72035 h 9.18042 v 27.214825 c 0,5.092542 2.66658,8.0157 7.755,8.0157 5.76033,0 9.67816,-3.503683 9.67816,-9.849033 V 42.676058 h 9.18042 z"
       fill="#000000"
       id="path6"
       style="stroke-width:0.916667" />
    <path
       d="m 428.71858,85.66745 c -6.259,0 -10.84966,-2.332367 -13.76008,-6.925967 V 84.5878 H 406.45 V 25.320258 h 9.18042 v 22.366667 c 3.00208,-4.094475 7.4195,-6.172283 13.17983,-6.172283 10.75708,0 18.52217,8.850966 18.52217,22.122283 0,13.271225 -7.92825,22.0407 -18.60375,22.0407 z m -1.83241,-36.310175 c -6.92084,0 -11.67284,5.510175 -11.67284,14.27965 0,8.769383 4.92525,14.106492 11.67284,14.106492 6.74758,0 11.0935,-5.510267 11.0935,-14.106492 0,-8.596317 -4.33584,-14.27965 -11.0935,-14.27965 z"
       fill="#000000"
       id="path7"
       style="stroke-width:0.916667" />
    <path
       d="M 0.5718396,82.510175 C 5.3246234,90.72965 12.133183,97.59475 20.305542,102.41183 28.4779,107.22983 38.013983,110 48.170925,110 63.334975,110 77.094692,103.83817 87.027692,93.886833 96.9705,83.946317 103.12775,70.1657 103.12775,55 103.12775,39.824033 96.9705,26.053683 87.027692,16.112983 77.094692,6.162035 63.334975,0 48.170925,0 45.8403,0 43.947292,1.8944475 43.947292,4.2268508 c 0,2.3324125 1.893008,4.2268509 4.223633,4.2268509 12.853867,0 24.455933,5.2046313 32.882667,13.6277903 8.41665,8.433333 13.616991,20.044475 13.616991,32.908333 0,12.863858 -5.200341,24.475 -13.616991,32.908333 -8.426734,8.433425 -20.0288,13.628172 -32.882667,13.628172 -8.62015,0 -16.660233,-2.342997 -23.570525,-6.416663 C 17.690017,91.035175 11.909333,85.2093 7.8892917,78.252808 6.71891,76.225967 4.1338825,75.543508 2.1086084,76.714825 0.08333061,77.886142 -0.59854573,80.473158 0.5718396,82.5 Z"
       fill="#006dcd"
       id="path8"
       style="stroke-width:0.916667" />
    <path
       d="m 67.2144,22.02035 c -5.79535,-3.3407 -12.385175,-5.102717 -19.066667,-5.102717 -6.457458,0 -13.026841,1.65 -19.005616,5.102717 -6.100875,3.51395 -10.867542,8.494475 -14.1064,14.218508 -3.23895,5.724125 -4.939825,12.212109 -4.939825,18.791667 0,6.457458 1.65,13.026933 5.102716,19.005617 3.51395,6.0907 8.494475,10.867541 14.218509,14.106491 5.724125,3.238859 12.201933,4.939367 18.791666,4.939367 6.457459,0 13.026934,-1.649633 19.005617,-5.10235 2.026842,-1.171317 2.719383,-3.758333 1.548158,-5.775 -1.171316,-2.026842 -3.758333,-2.719475 -5.775,-1.548158 -4.675,2.699033 -9.757458,3.972191 -14.778775,3.972191 -5.112891,0 -10.175,-1.334208 -14.625875,-3.85 -4.450966,-2.5157 -8.300966,-6.202716 -11.050966,-10.969383 -2.699034,-4.675 -3.972192,-9.747283 -3.972192,-14.778775 0,-5.112892 1.3343,-10.175 3.85,-14.625875 2.5157,-4.450967 6.202808,-8.300967 10.969475,-11.050967 4.675,-2.699033 9.747192,-3.972191 14.778683,-3.972191 5.20465,0 10.337984,1.375 14.85,3.972191 2.026842,1.171317 4.613859,0.468509 5.775,-1.558333 1.161142,-2.026842 0.458334,-4.613858 -1.568508,-5.775 z"
       fill="#ec9e32"
       id="path9"
       style="stroke-width:0.916667" />
    <path
       d="m 48.171658,76.154833 c 5.821384,0 11.133925,-2.373158 14.950375,-6.192633 3.81645,-3.819475 6.19795,-9.125967 6.187775,-14.962017 0,-5.825966 -2.371325,-11.142633 -6.187775,-14.962016 -3.81645,-3.819475 -9.118816,-6.202809 -14.950375,-6.192634 -2.330625,0 -4.223541,1.894475 -4.223541,4.226842 0,2.332458 1.892916,4.226842 4.223541,4.226842 3.511109,0 6.655917,1.415791 8.966192,3.717633 2.300008,2.312017 3.7147,5.459208 3.7147,8.973158 0,3.513859 -1.414692,6.66105 -3.7147,8.973159 -2.310275,2.301841 -5.455083,3.717541 -8.966192,3.717541 -2.330625,0 -4.223541,1.894475 -4.223541,4.226842 0,2.332458 1.892916,4.226842 4.223541,4.226842 z"
       fill="#d23500"
       id="path10"
       style="stroke-width:0.916667" />
  </g>
</svg>
