<?xml version="1.0" encoding="UTF-8" standalone="no"?>
<svg
   width="152"
   height="130"
   viewBox="0 0 152 130"
   fill="none"
   version="1.1"
   id="svg3"
   sodipodi:docname="datahub-logo-color-mark.svg"
   inkscape:version="1.4 (e7c3feb1, 2024-10-09)"
   xmlns:inkscape="http://www.inkscape.org/namespaces/inkscape"
   xmlns:sodipodi="http://sodipodi.sourceforge.net/DTD/sodipodi-0.dtd"
   xmlns="http://www.w3.org/2000/svg"
   xmlns:svg="http://www.w3.org/2000/svg">
  <defs
     id="defs3" />
  <sodipodi:namedview
     id="namedview3"
     pagecolor="#ffffff"
     bordercolor="#000000"
     borderopacity="0.25"
     inkscape:showpageshadow="2"
     inkscape:pageopacity="0.0"
     inkscape:pagecheckerboard="0"
     inkscape:deskcolor="#d1d1d1"
     inkscape:zoom="7.5583333"
     inkscape:cx="60.463065"
     inkscape:cy="70.584344"
     inkscape:window-width="2560"
     inkscape:window-height="1382"
     inkscape:window-x="1728"
     inkscape:window-y="30"
     inkscape:window-maximized="0"
     inkscape:current-layer="svg3" />
  <g
     id="g3"
     transform="matrix(1.0833333,0,0,1.0833333,6.5879414,2e-6)">
    <path
       d="M 8.40165,90.0111 C 13.5905,98.9778 21.0239,106.467 29.9461,111.722 38.8683,116.978 49.2794,120 60.3683,120 76.9239,120 91.9461,113.278 102.791,102.422 113.646,91.5778 120.368,76.5444 120.368,60 120.368,43.4444 113.646,28.4222 102.791,17.5778 91.9461,6.72222 76.9239,0 60.3683,0 c -2.5444,0 -4.6111,2.06667 -4.6111,4.61111 0,2.54445 2.0667,4.61111 4.6111,4.61111 14.0334,0 26.7,5.67778 35.9,14.86668 9.1887,9.2 14.8667,21.8667 14.8667,35.9 0,14.0333 -5.678,26.7 -14.8667,35.9 -9.2,9.2001 -21.8666,14.8671 -35.9,14.8671 -9.4111,0 -18.1889,-2.556 -25.7333,-7 C 27.0905,99.3111 20.7794,92.9556 16.3905,85.3667 15.1128,83.1556 12.2905,82.4111 10.0794,83.6889 7.86832,84.9667 7.12388,87.7889 8.40165,90 Z"
       fill="#006dcd"
       id="path1" />
    <path
       d="m 81.1353,24.0222 c -6.3222,-3.6444 -13.5111,-5.5666 -20.8,-5.5666 -7.0444,0 -14.2111,1.8 -20.7333,5.5666 -6.6556,3.8334 -11.8556,9.2667 -15.3889,15.5111 -3.5333,6.2445 -5.3889,13.3223 -5.3889,20.5 0,7.0445 1.8,14.2112 5.5667,20.7334 3.8333,6.6444 9.2667,11.8555 15.5111,15.3889 6.2444,3.5333 13.3111,5.3884 20.5,5.3884 7.0444,0 14.2111,-1.7996 20.7333,-5.5662 2.2111,-1.2778 2.9667,-4.1 1.6889,-6.3 -1.2778,-2.2111 -4.1,-2.9667 -6.3,-1.6889 -5.1,2.9444 -10.6444,4.3333 -16.1222,4.3333 -5.5778,0 -11.1,-1.4555 -15.9556,-4.2 -4.8555,-2.7444 -9.0555,-6.7666 -12.0555,-11.9666 -2.9445,-5.1 -4.3333,-10.6334 -4.3333,-16.1223 0,-5.5777 1.4555,-11.1 4.2,-15.9555 2.7444,-4.8556 6.7666,-9.0556 11.9666,-12.0556 5.1,-2.9444 10.6334,-4.3333 16.1222,-4.3333 5.6778,0 11.2778,1.5 16.2,4.3333 2.2112,1.2778 5.0334,0.5111 6.3,-1.7 1.2667,-2.2111 0.5,-5.0333 -1.7111,-6.3 z"
       fill="#ec9e32"
       id="path2" />
    <path
       d="m 60.3689,83.078 c 6.3556,0 12.1556,-2.5889 16.3222,-6.7556 4.1667,-4.1667 6.7667,-9.9556 6.7556,-16.3222 0,-6.3556 -2.5889,-12.1556 -6.7556,-16.3222 -4.1666,-4.1667 -9.9555,-6.7667 -16.3222,-6.7556 -2.5444,0 -4.6111,2.0667 -4.6111,4.6111 0,2.5445 2.0667,4.6111 4.6111,4.6111 3.8334,0 7.2667,1.5445 9.7889,4.0556 2.5111,2.5222 4.0556,5.9555 4.0556,9.7889 0,3.8333 -1.5445,7.2666 -4.0556,9.7889 -2.5222,2.5111 -5.9555,4.0555 -9.7889,4.0555 -2.5444,0 -4.6111,2.0667 -4.6111,4.6111 0,2.5445 2.0667,4.6334 4.6111,4.6334 z"
       fill="#d23500"
       id="path3" />
  </g>
</svg>
