<?xml version="1.0" encoding="UTF-8"?>
<svg id="Layer_1" xmlns="http://www.w3.org/2000/svg" version="1.1" viewBox="0 0 637.7 108">
  <!-- Generator: Adobe Illustrator 30.1.0, SVG Export Plug-In . SVG Version: 2.1.1 Build 136)  -->
  <defs>
    <style>
      .st0 {
        fill: #fff;
      }
    </style>
  </defs>
  <g>
    <path class="st0" d="M149.2,83h-22.8V24.9h22.8c16.5,0,26.1,12,26.1,29.1s-9.7,29.1-26.1,29.1ZM136.1,33.1v41.8h11.6c10.9,0,17.7-7.5,17.7-20.9s-6.8-20.9-17.7-20.9h-11.6Z"/>
    <path class="st0" d="M216.3,83h-8.1v-4.7c-2.6,3.9-7.4,6-13.6,6s-14.8-3.8-14.8-11.6,1.6-7.5,4.8-9.6c3.3-2.1,7.8-3.8,13.6-4.8l9.4-1.7v-1.5c0-4.5-3.3-7-8.5-7s-8.3,1.9-13.2,6.8l-5.7-5.2c5.2-6.1,11-9,18.6-9,11.1,0,17.4,5.6,17.4,14.3v28.1ZM207.7,63.1l-7.1,1.5c-8.2,1.7-11.9,3.4-11.9,7.6s2.7,4.9,7.2,4.9c6.6,0,11.8-3.7,11.8-10.2v-3.8Z"/>
    <path class="st0" d="M248.3,82.4c-3,1.1-6,1.6-8.9,1.6-8,0-11.2-3.6-11.2-11.1v-24.2h-7.5v-6.8h7.5v-13.3h9v13.3h10.4v6.8h-10.4v23.1c0,3.2,1.4,4.3,4.4,4.3s3.3-.3,5.5-.9l1.1,7.1Z"/>
    <path class="st0" d="M290,83h-8.1v-4.7c-2.6,3.9-7.4,6-13.6,6s-14.8-3.8-14.8-11.6,1.6-7.5,4.8-9.6c3.3-2.1,7.8-3.8,13.6-4.8l9.4-1.7v-1.5c0-4.5-3.3-7-8.5-7s-8.3,1.9-13.2,6.8l-5.7-5.2c5.2-6.1,11-9,18.6-9,11.1,0,17.4,5.6,17.4,14.3v28.1ZM281.4,63.1l-7.1,1.5c-8.2,1.7-11.9,3.4-11.9,7.6s2.7,4.9,7.2,4.9c6.6,0,11.8-3.7,11.8-10.2v-3.8Z"/>
    <path class="st0" d="M346.6,83h-9.8v-26.3h-28.4v26.3h-9.7V24.9h9.7v23.7h28.4v-23.7h9.8v58.2Z"/>
    <path class="st0" d="M390.5,41.9v41.1h-8.3v-4.8c-2.3,3.7-6.6,6-12.2,6-9.9,0-14.7-5.2-14.7-13.2v-29.2h9v26.7c0,5,2.6,7.9,7.6,7.9s9.5-3.4,9.5-9.7v-24.9h9Z"/>
    <path class="st0" d="M421.2,84.1c-6.1,0-10.7-2.3-13.5-6.8v5.7h-8.4V24.9h9v22c3-4,7.3-6.1,12.9-6.1,10.6,0,18.2,8.7,18.2,21.7s-7.8,21.6-18.3,21.6ZM419.4,48.5c-6.8,0-11.5,5.4-11.5,14s4.8,13.9,11.5,13.9,10.9-5.4,10.9-13.9-4.3-14-10.9-14Z"/>
  </g>
  <g>
    <path class="st0" d="M492.8,35.7c-6.5-5.3-11.3-7-16.8-7-13.4,0-21.7,10.6-21.7,25.3s8.5,25.3,21.1,25.3,11.8-2.8,18.3-9.1l3.6,3.9c-3.8,3.7-7.3,6.4-10.6,7.9-3.3,1.6-7,2.3-11.2,2.3-16.5,0-27-12.7-27-30.3s10.3-30.3,27.5-30.3,13.2,2.1,20.2,8l-3.4,4Z"/>
    <path class="st0" d="M509.2,83h-5.4V24.9h5.4v58.2Z"/>
    <path class="st0" d="M536.2,84.1c-11.2,0-19.1-8.5-19.1-20.8s7.9-20.9,19.1-20.9,19.2,8.5,19.2,20.9-7.9,20.8-19.2,20.8ZM526.3,75.1c2.5,3,5.7,4.5,9.8,4.5,8.3,0,13.6-6.7,13.6-16.3s-1.2-8.9-3.7-11.9c-2.5-3-5.7-4.6-9.9-4.6s-7.4,1.6-9.8,4.6c-2.5,3-3.7,7-3.7,11.9s1.2,8.8,3.7,11.8Z"/>
    <path class="st0" d="M594,43.5v39.6h-5.1v-5.2c-2.4,4.2-7,6.3-12.1,6.3-9.6,0-14.2-5.3-14.2-13.1v-27.5h5.4v26.4c0,6.2,3.3,9.6,9.1,9.6s11.5-4.2,11.5-11.7v-24.3h5.4Z"/>
    <path class="st0" d="M637.7,24.9v58.2h-5.1v-6.7c-2.9,5-7.5,7.7-14,7.7-10.2,0-17.5-8.5-17.5-20.7s7.5-20.8,17.6-20.8,10.6,2.3,13.5,7v-24.6h5.4ZM619,47c-3.7,0-6.6,1.5-8.9,4.5-2.2,3-3.4,7-3.4,11.8s1.1,8.7,3.4,11.7c2.2,3,5.2,4.4,8.9,4.4,8,0,13.5-6.1,13.5-16.1s-5.4-16.3-13.5-16.3Z"/>
  </g>
  <g>
    <path class="st0" d="M.6,81c4.7,8.1,11.4,14.8,19.4,19.5,8,4.7,17.4,7.4,27.4,7.4,14.9,0,28.4-6.1,38.2-15.8,9.8-9.8,15.8-23.3,15.8-38.2,0-14.9-6.1-28.4-15.8-38.2C75.8,6.1,62.2,0,47.3,0,45,0,43.2,1.9,43.2,4.2s1.9,4.2,4.2,4.2c12.6,0,24,5.1,32.3,13.4,8.3,8.3,13.4,19.7,13.4,32.3,0,12.6-5.1,24-13.4,32.3-8.3,8.3-19.7,13.4-32.3,13.4-8.5,0-16.4-2.3-23.2-6.3-6.8-4-12.5-9.7-16.4-16.5-1.1-2-3.7-2.7-5.7-1.5-2,1.1-2.7,3.7-1.5,5.7h0Z"/>
    <path class="st0" d="M66,21.6c-5.7-3.3-12.2-5-18.7-5-6.3,0-12.8,1.6-18.7,5-6,3.5-10.7,8.3-13.8,14-3.2,5.6-4.8,12-4.8,18.4,0,6.3,1.6,12.8,5,18.7,3.5,6,8.3,10.7,14,13.8,5.6,3.2,12,4.8,18.4,4.8,6.3,0,12.8-1.6,18.7-5,2-1.1,2.7-3.7,1.5-5.7-1.1-2-3.7-2.7-5.7-1.5-4.6,2.6-9.6,3.9-14.5,3.9-5,0-10-1.3-14.4-3.8-4.4-2.5-8.2-6.1-10.9-10.8-2.7-4.6-3.9-9.6-3.9-14.5,0-5,1.3-10,3.8-14.4,2.5-4.4,6.1-8.2,10.8-10.9,4.6-2.6,9.6-3.9,14.5-3.9,5.1,0,10.2,1.3,14.6,3.9,2,1.1,4.5.5,5.7-1.5,1.1-2,.5-4.5-1.5-5.7h0Z"/>
    <path class="st0" d="M47.3,74.8c5.7,0,10.9-2.3,14.7-6.1,3.8-3.7,6.1-9,6.1-14.7,0-5.7-2.3-10.9-6.1-14.7-3.7-3.8-9-6.1-14.7-6.1-2.3,0-4.2,1.9-4.2,4.2s1.9,4.2,4.2,4.2c3.5,0,6.5,1.4,8.8,3.6,2.3,2.3,3.6,5.4,3.7,8.8,0,3.5-1.4,6.5-3.7,8.8-2.3,2.3-5.4,3.6-8.8,3.7-2.3,0-4.2,1.9-4.2,4.2s1.9,4.2,4.2,4.2h0Z"/>
  </g>
</svg>