<?xml version="1.0" encoding="UTF-8" standalone="no"?>
<svg
   width="451.39999"
   height="111"
   viewBox="0 0 451.39999 111"
   fill="none"
   version="1.1"
   id="svg10"
   sodipodi:docname="datahub-logo-color-dark-horizontal.svg"
   inkscape:version="1.4 (e7c3feb1, 2024-10-09)"
   xmlns:inkscape="http://www.inkscape.org/namespaces/inkscape"
   xmlns:sodipodi="http://sodipodi.sourceforge.net/DTD/sodipodi-0.dtd"
   xmlns="http://www.w3.org/2000/svg"
   xmlns:svg="http://www.w3.org/2000/svg">
  <defs
     id="defs10" />
  <sodipodi:namedview
     id="namedview10"
     pagecolor="#ffffff"
     bordercolor="#000000"
     borderopacity="0.25"
     inkscape:showpageshadow="2"
     inkscape:pageopacity="0.0"
     inkscape:pagecheckerboard="0"
     inkscape:deskcolor="#d1d1d1"
     inkscape:zoom="2.1639344"
     inkscape:cx="244"
     inkscape:cy="59.844697"
     inkscape:window-width="2560"
     inkscape:window-height="1382"
     inkscape:window-x="1728"
     inkscape:window-y="30"
     inkscape:window-maximized="0"
     inkscape:current-layer="svg10" />
  <g
     id="g10"
     transform="matrix(0.91666667,0,0,0.91666667,2.0337877,0.4999998)">
    <path
       d="M 165.651,92.2776 H 140.359 V 27.6221 h 25.292 c 18.286,0 29.022,13.3 29.022,32.3333 0,19.0333 -10.736,32.3333 -29.022,32.3333 z M 151.084,36.7221 v 46.4444 h 12.924 c 12.101,0 19.651,-8.2889 19.651,-23.2222 0,-14.9333 -7.55,-23.2222 -19.651,-23.2222 z"
       fill="#ffffff"
       id="path1" />
    <path
       d="m 240.116,92.2778 h -9.004 v -5.1889 c -2.909,4.2777 -8.194,6.6444 -15.111,6.6444 -9.459,0 -16.376,-4.1889 -16.376,-12.9333 0,-4.8222 1.821,-8.3778 5.374,-10.6556 3.641,-2.3666 8.648,-4.1889 15.099,-5.3778 l 10.47,-1.9111 v -1.6333 c 0,-5.0111 -3.642,-7.8333 -9.46,-7.8333 -5.817,0 -9.193,2.0889 -14.655,7.5555 l -6.284,-5.8333 c 5.729,-6.8333 12.191,-10.0222 20.651,-10.0222 12.379,0 19.296,6.1889 19.296,15.9333 v 31.2333 z m -9.548,-22.1334 -7.916,1.6445 c -9.105,1.9111 -13.19,3.7333 -13.19,8.4666 0,3.3667 2.997,5.4667 8.005,5.4667 7.372,0 13.101,-4.1 13.101,-11.3778 v -4.1889 z"
       fill="#ffffff"
       id="path2" />
    <path
       d="m 275.699,91.5444 c -3.364,1.1889 -6.639,1.7333 -9.825,1.7333 -8.827,0 -12.469,-4.0111 -12.469,-12.2889 V 54.1221 h -8.282 v -7.5555 h 8.282 V 31.811 h 10.015 v 14.7556 h 11.558 v 7.5555 H 263.42 v 25.6778 c 0,3.5556 1.543,4.8223 4.918,4.8223 1.643,0 3.642,-0.3667 6.096,-1 l 1.276,7.9222 z"
       fill="#ffffff"
       id="path3" />
    <path
       d="m 321.997,92.2778 h -9.005 v -5.1889 c -2.908,4.2777 -8.193,6.6444 -15.11,6.6444 -9.459,0 -16.376,-4.1889 -16.376,-12.9333 0,-4.8222 1.821,-8.3778 5.373,-10.6556 3.642,-2.3666 8.649,-4.1889 15.1,-5.3778 l 10.469,-1.9111 v -1.6333 c 0,-5.0111 -3.641,-7.8333 -9.459,-7.8333 -5.818,0 -9.193,2.0889 -14.655,7.5555 l -6.284,-5.8333 c 5.729,-6.8333 12.19,-10.0222 20.65,-10.0222 12.38,0 19.297,6.1889 19.297,15.9333 v 31.2333 z m -9.56,-22.1334 -7.916,1.6445 c -9.104,1.9111 -13.189,3.7333 -13.189,8.4666 0,3.3667 2.997,5.4667 8.004,5.4667 7.372,0 13.101,-4.1 13.101,-11.3778 v -4.1889 z"
       fill="#ffffff"
       id="path4" />
    <path
       d="M 384.759,92.2776 H 373.934 V 63.0443 H 342.447 V 92.2776 H 331.711 V 27.6221 h 10.736 v 26.3222 h 31.487 V 27.6221 h 10.825 z"
       fill="#ffffff"
       id="path5" />
    <path
       d="m 433.609,46.5668 v 45.7111 h -9.193 v -5.2778 c -2.543,4.1 -7.284,6.6445 -13.556,6.6445 -11.014,0 -16.288,-5.8334 -16.288,-14.6667 V 46.5557 h 10.015 v 29.6889 c 0,5.5555 2.909,8.7444 8.46,8.7444 6.284,0 10.558,-3.8222 10.558,-10.7444 V 46.5557 h 10.015 z"
       fill="#ffffff"
       id="path6" />
    <path
       d="m 467.693,93.4554 c -6.828,0 -11.836,-2.5444 -15.011,-7.5556 v 6.3778 H 443.4 V 27.6221 h 10.015 v 24.4 c 3.275,-4.4667 8.094,-6.7334 14.378,-6.7334 11.735,0 20.206,9.6556 20.206,24.1334 0,14.4777 -8.649,24.0444 -20.295,24.0444 z m -1.999,-39.6111 c -7.55,0 -12.734,6.0111 -12.734,15.5778 0,9.5666 5.373,15.3889 12.734,15.3889 7.361,0 12.102,-6.0112 12.102,-15.3889 0,-9.3778 -4.73,-15.5778 -12.102,-15.5778 z"
       fill="#ffffff"
       id="path7" />
    <path
       d="M 0.623825,90.0111 C 5.80868,98.9778 13.2362,106.467 22.1515,111.722 31.0668,116.978 41.4698,120 52.5501,120 69.0927,120 84.1033,113.278 94.9393,102.422 105.786,91.5778 112.503,76.5444 112.503,60 112.503,43.4444 105.786,28.4222 94.9393,17.5778 84.1033,6.72222 69.0927,0 52.5501,0 c -2.5425,0 -4.6076,2.06667 -4.6076,4.61111 0,2.54445 2.0651,4.61111 4.6076,4.61111 14.0224,0 26.6792,5.67778 35.872,14.86668 9.1818,9.2 14.8549,21.8667 14.8549,35.9 0,14.0333 -5.6731,26.7 -14.8549,35.9 -9.1928,9.2001 -21.8496,14.8671 -35.872,14.8671 -9.4038,0 -18.1748,-2.556 -25.7133,-7 C 19.2982,99.3111 12.992,92.9556 8.6065,85.3667 7.32972,83.1556 4.50969,82.4111 2.3003,83.6889 0.0909061,84.9667 -0.652959,87.7889 0.623825,90 Z"
       fill="#006dcd"
       id="path8" />
    <path
       d="m 73.3248,24.0222 c -6.3222,-3.6444 -13.5111,-5.5666 -20.8,-5.5666 -7.0445,0 -14.2111,1.8 -20.7334,5.5666 -6.6555,3.8334 -11.8555,9.2667 -15.3888,15.5111 -3.5334,6.2445 -5.3889,13.3223 -5.3889,20.5 0,7.0445 1.8,14.2112 5.5666,20.7334 3.8334,6.6444 9.2667,11.8555 15.5111,15.3889 6.2445,3.5333 13.3112,5.3884 20.5,5.3884 7.0445,0 14.2112,-1.7996 20.7334,-5.5662 2.2111,-1.2778 2.9666,-4.1 1.6889,-6.3 -1.2778,-2.2111 -4.1,-2.9667 -6.3,-1.6889 -5.1,2.9444 -10.6445,4.3333 -16.1223,4.3333 -5.5777,0 -11.1,-1.4555 -15.9555,-4.2 -4.8556,-2.7444 -9.0556,-6.7666 -12.0556,-11.9666 -2.9444,-5.1 -4.3333,-10.6334 -4.3333,-16.1223 0,-5.5777 1.4556,-11.1 4.2,-15.9555 2.7444,-4.8556 6.7667,-9.0556 11.9667,-12.0556 5.1,-2.9444 10.6333,-4.3333 16.1222,-4.3333 5.6778,0 11.2778,1.5 16.2,4.3333 2.2111,1.2778 5.0333,0.5111 6.3,-1.7 1.2667,-2.2111 0.5,-5.0333 -1.7111,-6.3 z"
       fill="#ec9e32"
       id="path9" />
    <path
       d="m 52.5447,83.078 c 6.3556,0 12.1556,-2.5889 16.3222,-6.7556 4.1667,-4.1667 6.7667,-9.9556 6.7556,-16.3222 0,-6.3556 -2.5889,-12.1556 -6.7556,-16.3222 -4.1666,-4.1667 -9.9555,-6.7667 -16.3222,-6.7556 -2.5444,0 -4.6111,2.0667 -4.6111,4.6111 0,2.5445 2.0667,4.6111 4.6111,4.6111 3.8333,0 7.2667,1.5445 9.7889,4.0556 2.5111,2.5222 4.0556,5.9555 4.0556,9.7889 0,3.8333 -1.5445,7.2666 -4.0556,9.7889 -2.5222,2.5111 -5.9556,4.0555 -9.7889,4.0555 -2.5444,0 -4.6111,2.0667 -4.6111,4.6111 0,2.5445 2.0667,4.6334 4.6111,4.6334 z"
       fill="#d23500"
       id="path10" />
  </g>
</svg>
