<svg width="551" height="106" viewBox="0 0 551 106" fill="none" xmlns="http://www.w3.org/2000/svg">
<g clip-path="url(#clip0_68_808)">
<path fill-rule="evenodd" clip-rule="evenodd" d="M52.8062 19.7364C57.8063 18.7335 62.976 18.903 67.9055 20.2307C69.7134 20.711 71.5779 19.6375 72.0581 17.8295C72.5384 16.0216 71.4649 14.1571 69.6569 13.6769C63.7246 12.0808 57.4956 11.8831 51.4644 13.0837C45.4331 14.2843 39.7691 16.8549 34.8961 20.598C30.0231 24.341 26.0682 29.1575 23.3563 34.6661C20.6444 40.1747 19.2178 46.2342 19.2178 52.3926C19.2178 58.5509 20.6302 64.5963 23.3563 70.119C23.5399 70.4863 23.7235 70.8535 23.9213 71.2066L12.2402 78.5091C11.082 77.8311 9.72601 77.4356 8.2853 77.4356C3.96315 77.4356 0.460236 80.9385 0.460236 85.2606C0.460236 89.5828 3.96315 93.0857 8.2853 93.0857C12.6074 93.0857 16.1104 89.5828 16.1104 85.2606C16.1104 84.8793 16.0821 84.512 16.0256 84.1448L27.6078 76.8988C29.7124 79.6249 32.1701 82.0685 34.9103 84.173C39.7833 87.9161 45.4614 90.4868 51.4785 91.6874C57.5097 92.888 63.7246 92.6761 69.6711 91.0941C71.479 90.6139 72.5525 88.7494 72.0722 86.9415C71.592 85.1335 69.7275 84.0601 67.9196 84.5403C62.9901 85.868 57.8205 86.0375 52.8203 85.0347C47.8202 84.0318 43.1026 81.899 39.0488 78.7916C34.995 75.6841 31.7181 71.6869 29.4582 67.1105C27.1982 62.5341 26.0259 57.4916 26.0259 52.3926C26.0259 47.2936 27.1982 42.2511 29.4582 37.6747C31.7181 33.0983 34.995 29.101 39.0488 25.9936C43.1026 22.8862 47.8061 20.7533 52.8203 19.7505L52.8062 19.7364Z" fill="white"/>
<path d="M62.6087 78.2266C60.942 78.2266 59.4872 76.9977 59.2471 75.3027C58.9928 73.4524 60.2923 71.7292 62.1426 71.475C66.7473 70.8394 70.9423 68.5935 73.965 65.1471C76.9594 61.729 78.5978 57.3503 78.5555 52.8445C78.5131 48.3388 76.804 43.9884 73.7531 40.6267C70.6739 37.2227 66.4365 35.0475 61.8178 34.4825C59.9533 34.2565 58.6397 32.5615 58.8516 30.7112C59.0776 28.8468 60.7584 27.519 62.6229 27.745C68.8518 28.4936 74.5864 31.4457 78.7673 36.0645C82.9482 40.6691 85.2788 46.6156 85.3353 52.788C85.3918 58.9605 83.1601 64.9353 79.064 69.6105C74.9678 74.2858 69.2756 77.3367 63.0607 78.1983C62.9054 78.2266 62.75 78.2266 62.5946 78.2266H62.6087Z" fill="white"/>
<path fill-rule="evenodd" clip-rule="evenodd" d="M59.2894 0.413818C57.4108 0.413818 55.8995 1.93928 55.8995 3.80374C55.8995 5.66819 57.425 7.19365 59.2894 7.19365C66.8179 7.19365 74.2333 9.05811 80.886 12.6034C87.5246 16.1487 93.1886 21.2901 97.3836 27.5473C101.565 33.8045 104.149 41.0081 104.884 48.5083C105.618 56.0085 104.502 63.5652 101.621 70.5286C98.7396 77.4921 94.1915 83.6222 88.358 88.4104C82.5386 93.1846 75.6316 96.4615 68.2445 97.9304C60.8573 99.3994 53.2158 99.018 46.0122 96.8428C38.8087 94.6535 32.2407 90.7269 26.9157 85.4019C25.588 84.0742 23.441 84.0742 22.1133 85.4019C20.7856 86.7296 20.7856 88.8765 22.1133 90.2043C28.2293 96.3202 35.7577 100.826 44.0348 103.34C52.3118 105.854 61.0833 106.278 69.558 104.597C78.0328 102.916 85.9709 99.1593 92.666 93.6648C99.3469 88.1844 104.573 81.1221 107.892 73.1417C111.198 65.1471 112.483 56.4746 111.635 47.8585C110.788 39.2566 107.836 30.9937 103.019 23.8042C102.892 23.6206 102.765 23.437 102.638 23.2534L107.751 20.0612C108.895 20.7251 110.223 21.0923 111.65 21.0923C115.972 21.0923 119.475 17.5894 119.475 13.2673C119.475 8.94511 115.972 5.4422 111.65 5.4422C107.327 5.4422 103.824 8.94511 103.824 13.2673C103.824 13.6769 103.853 14.0724 103.909 14.4537L98.4147 17.886C94.3327 13.352 89.4879 9.53835 84.0782 6.64279C76.4509 2.54664 67.9337 0.413818 59.2894 0.413818Z" fill="white"/>
<path d="M360.597 49.5677C359.481 47.2513 357.885 45.4292 355.851 44.1015C353.831 42.7597 351.43 42.0817 348.661 42.0817C345.893 42.0817 343.534 42.7597 341.627 44.1015C341.528 44.1721 341.444 44.2569 341.359 44.3275V33.1973H334.763V71.9977H340.54V69.8366C340.907 70.1756 341.288 70.4864 341.712 70.783C343.647 72.1248 346.048 72.8028 348.901 72.8028C351.599 72.8028 353.944 72.1248 355.964 70.783C357.969 69.4411 359.523 67.6049 360.639 65.2885C361.741 62.972 362.292 60.359 362.292 57.4493C362.292 54.5396 361.727 51.8842 360.611 49.5819L360.597 49.5677ZM354.551 62.2799C354.029 63.7206 353.209 64.8506 352.108 65.6981C351.006 66.5456 349.608 66.9693 347.899 66.9693C346.189 66.9693 344.72 66.5738 343.633 65.7828C342.559 64.9777 341.783 63.8478 341.274 62.4212C340.78 60.9805 340.54 59.3279 340.54 57.4352C340.54 55.5425 340.78 53.8758 341.274 52.4492C341.783 51.0085 342.559 49.8926 343.605 49.1016C344.65 48.2965 346.006 47.8869 347.673 47.8869C349.424 47.8869 350.879 48.3248 352.009 49.1864C353.153 50.0339 353.986 51.178 354.537 52.6328C355.074 54.0735 355.356 55.6696 355.356 57.4352C355.356 59.2008 355.088 60.8251 354.537 62.2799H354.551Z" fill="white"/>
<path d="M322.121 57.8306C322.121 59.5962 321.923 61.051 321.528 62.1951C321.132 63.3392 320.596 64.2573 319.932 64.9211C319.282 65.5709 318.547 66.0229 317.728 66.2912C316.909 66.5596 316.09 66.7009 315.256 66.7009C313.703 66.7009 312.46 66.3619 311.542 65.698C310.638 65.0341 309.946 64.1867 309.479 63.1697C309.027 62.1245 308.731 61.051 308.604 59.9351C308.477 58.8052 308.42 57.7882 308.42 56.8842V42.8726H301.796V59.1159C301.796 59.8221 301.852 60.7261 301.965 61.8702C302.092 62.9861 302.361 64.1725 302.756 65.4296C303.152 66.6867 303.773 67.8732 304.606 68.989C305.44 70.1049 306.556 71.023 307.968 71.7434C309.381 72.4637 311.174 72.8168 313.335 72.8168C316.09 72.8168 318.406 72.2236 320.285 71.0371C321.302 70.3874 322.178 69.6105 322.912 68.7207V71.9835H328.689V42.8867H322.121V57.8447V57.8306Z" fill="white"/>
<path d="M289.719 49.5112H271.216V33.1831H264.662V71.9835H271.216V55.5989H289.719V71.9835H296.231V33.1831H289.719V49.5112Z" fill="white"/>
<path d="M257.995 47.4915C257.035 45.5705 255.566 44.1863 253.574 43.3388C251.597 42.4914 249.308 42.0676 246.71 42.0676C243.249 42.0676 240.495 42.8162 238.461 44.2993C236.427 45.7965 235.057 47.7599 234.336 50.2317L240.311 52.0961C240.805 50.5989 241.653 49.5537 242.896 48.9463C244.125 48.339 245.396 48.0282 246.724 48.0282C248.913 48.0282 250.467 48.5085 251.385 49.4548C252.147 50.2458 252.571 51.4181 252.684 52.9295C251.512 53.099 250.354 53.2685 249.238 53.438C247.387 53.6922 245.678 53.9747 244.082 54.2713C242.514 54.5821 241.13 54.9211 239.958 55.2883C238.404 55.8109 237.133 56.4889 236.158 57.3081C235.184 58.1132 234.463 59.0878 233.983 60.2178C233.517 61.3337 233.277 62.5907 233.277 63.9891C233.277 65.5852 233.644 67.0541 234.393 68.3819C235.156 69.7096 236.271 70.7831 237.726 71.5882C239.195 72.3791 240.989 72.7746 243.094 72.7746C245.735 72.7746 247.938 72.2944 249.69 71.3198C251.06 70.5571 252.289 69.4553 253.376 68.0429V71.9695H259.097V54.1018C259.097 52.8447 259.04 51.6865 258.927 50.6272C258.814 49.5537 258.504 48.4943 257.981 47.4774L257.995 47.4915ZM251.964 62.7885C251.752 63.4524 251.328 64.1586 250.693 64.9213C250.071 65.6699 249.238 66.3197 248.193 66.8281C247.147 67.3508 245.876 67.605 244.393 67.605C243.362 67.605 242.486 67.4496 241.794 67.1248C241.102 66.7999 240.579 66.3762 240.212 65.8253C239.845 65.2744 239.675 64.6247 239.675 63.9185C239.675 63.2829 239.817 62.7461 240.085 62.28C240.382 61.8139 240.777 61.4043 241.3 61.037C241.822 60.6839 242.472 60.3591 243.221 60.0907C243.998 59.8364 244.902 59.6105 245.904 59.4127C246.921 59.2008 248.136 58.9748 249.534 58.7347C250.438 58.5794 251.455 58.424 252.585 58.2404C252.585 58.7347 252.557 59.2856 252.515 59.9494C252.472 61.0088 252.289 61.9551 251.95 62.7744L251.964 62.7885Z" fill="white"/>
<path d="M221.497 34.8074H214.986V42.8867H209.661V47.9715H214.986V60.0905C214.986 61.7431 215 63.2262 215.042 64.5398C215.084 65.8534 215.438 67.1387 216.101 68.3958C216.864 69.78 217.98 70.797 219.435 71.4467C220.904 72.0823 222.556 72.4072 224.407 72.4496C226.271 72.5061 228.164 72.3507 230.113 71.9976V66.5596C228.291 66.828 226.652 66.8986 225.226 66.7715C223.799 66.6443 222.754 66.0511 222.104 64.9635C221.765 64.4127 221.568 63.6923 221.539 62.8024C221.525 61.9267 221.511 60.8956 221.511 59.7374V47.9857H230.113V42.9008H221.511V34.8215L221.497 34.8074Z" fill="white"/>
<path d="M206.242 47.4915C205.282 45.5705 203.813 44.1863 201.821 43.3388C199.844 42.4914 197.556 42.0676 194.957 42.0676C191.496 42.0676 188.756 42.8162 186.708 44.2993C184.674 45.7965 183.304 47.7599 182.584 50.2317L188.558 52.0961C189.053 50.5989 189.914 49.5537 191.143 48.9463C192.372 48.339 193.643 48.0282 194.971 48.0282C197.16 48.0282 198.714 48.5085 199.646 49.4548C200.409 50.2458 200.833 51.4181 200.96 52.9295C199.787 53.099 198.629 53.2685 197.513 53.438C195.663 53.6922 193.954 53.9747 192.358 54.2713C190.79 54.5821 189.406 54.9211 188.233 55.2883C186.68 55.8109 185.408 56.4889 184.434 57.3081C183.459 58.1132 182.739 59.0878 182.259 60.2178C181.793 61.3337 181.552 62.5907 181.552 63.9891C181.552 65.5852 181.92 67.0541 182.668 68.3819C183.431 69.7096 184.547 70.7831 186.002 71.5882C187.471 72.3791 189.265 72.7746 191.383 72.7746C194.025 72.7746 196.228 72.2944 197.979 71.3198C199.35 70.5571 200.578 69.4553 201.666 68.0429V71.9695H207.401V54.1018C207.401 52.8447 207.344 51.6865 207.231 50.6272C207.118 49.5537 206.807 48.4943 206.285 47.4774L206.242 47.4915ZM200.225 62.7885C200.013 63.4524 199.59 64.1586 198.954 64.9213C198.347 65.6699 197.513 66.3197 196.454 66.8281C195.409 67.3508 194.138 67.605 192.654 67.605C191.623 67.605 190.762 67.4496 190.056 67.1248C189.363 66.7999 188.841 66.3762 188.488 65.8253C188.12 65.2744 187.951 64.6247 187.951 63.9185C187.951 63.2829 188.092 62.7461 188.361 62.28C188.643 61.8139 189.053 61.4043 189.575 61.037C190.098 60.6839 190.748 60.3591 191.496 60.0907C192.273 59.8364 193.177 59.6105 194.18 59.4127C195.197 59.2008 196.412 58.9748 197.824 58.7347C198.728 58.5794 199.745 58.424 200.875 58.2404C200.875 58.7347 200.847 59.2856 200.804 59.9494C200.776 61.0088 200.578 61.9551 200.239 62.7744L200.225 62.7885Z" fill="white"/>
<path d="M171.693 36.686C169.561 34.8922 166.948 33.7905 163.854 33.395C162.95 33.282 162.004 33.2255 161.029 33.2114C160.069 33.1972 159.433 33.1831 159.108 33.1831H146.65V71.9835H159.108C159.433 71.9835 160.083 71.9835 161.058 71.9553C162.032 71.9412 162.964 71.8705 163.854 71.7717C166.948 71.3762 169.561 70.2886 171.693 68.5089C173.84 66.715 175.479 64.4268 176.581 61.6725C177.682 58.9041 178.233 55.8814 178.233 52.5904C178.233 49.2993 177.682 46.2767 176.581 43.5082C175.479 40.7398 173.84 38.4657 171.693 36.686ZM170.479 58.3956C169.942 60.2459 169.08 61.8138 167.922 63.1132C166.764 64.4127 165.267 65.2178 163.416 65.5709C162.767 65.6981 162.018 65.7828 161.156 65.8111C160.323 65.8534 159.631 65.8676 159.094 65.8676H153.289V39.2991H159.094C159.631 39.2991 160.323 39.3132 161.156 39.3556C162.004 39.3697 162.753 39.4545 163.416 39.5957C165.224 39.9347 166.707 40.7398 167.866 41.9969C169.038 43.254 169.914 44.8077 170.465 46.658C171.03 48.5084 171.312 50.4858 171.312 52.5904C171.312 54.695 171.03 56.5594 170.465 58.4097L170.479 58.3956Z" fill="white"/>
<path d="M524.979 49.6525C524.033 48.918 522.804 48.5508 521.293 48.5508C519.669 48.5508 518.327 48.9463 517.281 49.7514C516.236 50.5424 515.459 51.6158 514.965 52.9435C514.471 54.2713 514.216 55.7544 514.216 57.3646C514.216 58.9748 514.457 60.472 514.937 61.7997C515.417 63.1274 516.166 64.1868 517.168 64.9778C518.171 65.7687 519.457 66.1642 521.039 66.1642C522.621 66.1642 523.962 65.797 524.937 65.0625C525.912 64.328 526.618 63.2969 527.042 61.9692C527.465 60.6415 527.691 59.1019 527.691 57.3504C527.691 55.599 527.479 54.0594 527.042 52.7317C526.618 51.404 525.926 50.3729 524.993 49.6384L524.979 49.6525Z" fill="white"/>
<path d="M456.545 48.8757C454.949 48.8757 453.65 49.2288 452.633 49.9492C451.616 50.6696 450.853 51.6583 450.373 52.9295C449.879 54.2007 449.638 55.6697 449.638 57.3646C449.638 59.9636 450.232 62.0258 451.39 63.5512C452.562 65.0767 454.285 65.8394 456.56 65.8394C458.834 65.8394 460.656 65.0485 461.814 63.4665C462.972 61.8845 463.551 59.8506 463.551 57.3646C463.551 54.8787 462.958 52.7318 461.8 51.1922C460.627 49.6526 458.89 48.8899 456.574 48.8899L456.545 48.8757Z" fill="white"/>
<path d="M540.008 12.3069H385.724C379.961 12.3069 375.286 16.9821 375.286 22.745V81.7861C375.286 87.5489 379.961 92.2242 385.724 92.2242H540.008C545.771 92.2242 550.446 87.5489 550.446 81.7861V22.745C550.446 16.9821 545.771 12.3069 540.008 12.3069ZM397.561 59.5256C398.38 61.5172 399.609 63.0568 401.247 64.1444C402.886 65.232 404.934 65.7828 407.377 65.7828C410.061 65.7828 412.25 65.1331 413.96 63.8195C415.655 62.52 416.869 60.698 417.575 58.3674L424.934 60.4013C423.691 64.1585 421.573 67.1388 418.564 69.3422C415.542 71.5457 411.827 72.6474 407.392 72.6474C403.521 72.6474 400.188 71.7999 397.391 70.1191C394.595 68.4383 392.434 66.0794 390.922 63.0568C389.411 60.0341 388.648 56.5171 388.648 52.5057C388.648 48.4943 389.411 44.9772 390.922 41.9545C392.434 38.9319 394.595 36.573 397.391 34.8922C400.188 33.2114 403.521 32.3639 407.392 32.3639C411.827 32.3639 415.556 33.4656 418.564 35.6691C421.573 37.8725 423.706 40.8528 424.934 44.61L417.575 46.6439C416.855 44.2992 415.655 42.4771 413.96 41.1777C412.265 39.8782 410.061 39.2285 407.377 39.2285C404.92 39.2285 402.886 39.7793 401.247 40.8669C399.609 41.9545 398.38 43.4941 397.561 45.4857C396.742 47.4773 396.318 49.8078 396.318 52.4915C396.318 55.1752 396.727 57.5058 397.561 59.4974V59.5256ZM437.067 71.8423H429.765V32.3921H437.067V71.8423ZM469.385 65.3167C468.142 67.619 466.419 69.4129 464.201 70.7123C461.997 72.0118 459.441 72.6615 456.531 72.6615C453.622 72.6615 451.051 72.0118 448.862 70.6982C446.658 69.3987 444.949 67.5908 443.72 65.2885C442.491 62.9862 441.884 60.3448 441.884 57.3504C441.884 54.356 442.505 51.6723 443.763 49.37C445.02 47.0677 446.743 45.2738 448.946 43.9885C451.15 42.7031 453.678 42.0534 456.545 42.0534C459.413 42.0534 462.026 42.7031 464.229 44.0167C466.433 45.3162 468.156 47.1242 469.399 49.4265C470.628 51.7288 471.249 54.3701 471.249 57.3504C471.249 60.3307 470.628 63.0144 469.385 65.3026V65.3167ZM502.182 71.8423H495.741V68.8338C495.063 69.5824 494.301 70.2603 493.425 70.8395C491.56 72.0683 489.202 72.6898 486.348 72.6898C484.074 72.6898 482.224 72.3084 480.797 71.5316C479.371 70.7688 478.255 69.7942 477.45 68.6078C476.659 67.4213 476.08 66.1924 475.741 64.9212C475.402 63.6359 475.19 62.4777 475.119 61.4183C475.049 60.359 475.006 59.5962 475.006 59.116V42.8585H482.408V56.5453C482.408 57.2092 482.45 58.0566 482.521 59.0877C482.591 60.1188 482.817 61.1499 483.184 62.181C483.566 63.2121 484.173 64.0879 485.021 64.78C485.868 65.4721 487.069 65.8252 488.622 65.8252C489.244 65.8252 489.922 65.7263 490.642 65.5286C491.363 65.3308 492.027 64.9495 492.648 64.3845C493.27 63.8195 493.792 62.9861 494.188 61.8844C494.597 60.7827 494.795 59.342 494.795 57.5482V42.8444H502.154V71.8282L502.182 71.8423ZM534.118 71.8423H527.677V70.1332C527.465 70.3027 527.282 70.4722 527.056 70.6276C525.121 71.9694 522.719 72.6474 519.838 72.6474C517.168 72.6474 514.838 71.9694 512.832 70.6276C510.826 69.2857 509.273 67.4637 508.143 65.1472C507.027 62.8449 506.462 60.2318 506.462 57.3363C506.462 54.4407 507.027 51.757 508.171 49.4547C509.301 47.1524 510.911 45.3445 512.959 44.0167C515.021 42.689 517.437 42.0252 520.205 42.0252C522.776 42.0252 524.951 42.6325 526.759 43.8049V33.169H534.118V71.8141V71.8423Z" fill="white"/>
</g>
<defs>
<clipPath id="clip0_68_808">
<rect width="550" height="105.172" fill="white" transform="translate(0.446106 0.413818)"/>
</clipPath>
</defs>
</svg>
