<svg width="86" height="87" viewBox="0 0 86 87" fill="none" xmlns="http://www.w3.org/2000/svg">
<circle opacity="0.2" cx="43" cy="43.71" r="42.5" fill="white" stroke="white"/>
<circle opacity="0.5" cx="43" cy="43.7099" r="34.041" fill="white" stroke="white"/>
<circle cx="42.6475" cy="43.3574" r="25.2295" fill="white" stroke="white"/>
<path d="M45.25 42.96H43.75V36.96H44.5C45.2956 36.96 46.0587 37.276 46.6213 37.8386C47.1839 38.4012 47.5 39.1643 47.5 39.96C47.5 40.1589 47.579 40.3496 47.7197 40.4903C47.8603 40.6309 48.0511 40.71 48.25 40.71C48.4489 40.71 48.6397 40.6309 48.7803 40.4903C48.921 40.3496 49 40.1589 49 39.96C48.9988 38.7669 48.5243 37.623 47.6806 36.7794C46.837 35.9357 45.6931 35.4612 44.5 35.46H43.75V33.96C43.75 33.761 43.671 33.5703 43.5303 33.4296C43.3897 33.289 43.1989 33.21 43 33.21C42.8011 33.21 42.6103 33.289 42.4697 33.4296C42.329 33.5703 42.25 33.761 42.25 33.96V35.46H41.5C40.3065 35.46 39.1619 35.9341 38.318 36.778C37.4741 37.6219 37 38.7665 37 39.96C37 41.1534 37.4741 42.298 38.318 43.1419C39.1619 43.9859 40.3065 44.46 41.5 44.46H42.25V50.46H40.75C39.9544 50.46 39.1913 50.1439 38.6287 49.5813C38.0661 49.0187 37.75 48.2556 37.75 47.46C37.75 47.261 37.671 47.0703 37.5303 46.9296C37.3897 46.789 37.1989 46.71 37 46.71C36.8011 46.71 36.6103 46.789 36.4697 46.9296C36.329 47.0703 36.25 47.261 36.25 47.46C36.2512 48.6531 36.7257 49.7969 37.5694 50.6406C38.413 51.4842 39.5569 51.9587 40.75 51.96H42.25V53.46C42.25 53.6589 42.329 53.8496 42.4697 53.9903C42.6103 54.1309 42.8011 54.21 43 54.21C43.1989 54.21 43.3897 54.1309 43.5303 53.9903C43.671 53.8496 43.75 53.6589 43.75 53.46V51.96H45.25C46.4435 51.96 47.5881 51.4859 48.432 50.6419C49.2759 49.798 49.75 48.6534 49.75 47.46C49.75 46.2665 49.2759 45.1219 48.432 44.278C47.5881 43.4341 46.4435 42.96 45.25 42.96ZM41.5 42.96C40.7044 42.96 39.9413 42.6439 39.3787 42.0813C38.8161 41.5187 38.5 40.7556 38.5 39.96C38.5 39.1643 38.8161 38.4012 39.3787 37.8386C39.9413 37.276 40.7044 36.96 41.5 36.96H42.25V42.96H41.5ZM45.25 50.46H43.75V44.46H45.25C46.0456 44.46 46.8087 44.776 47.3713 45.3386C47.9339 45.9012 48.25 46.6643 48.25 47.46C48.25 48.2556 47.9339 49.0187 47.3713 49.5813C46.8087 50.1439 46.0456 50.46 45.25 50.46Z" fill="#6A717D"/>
</svg>
