<svg width="24" height="25" viewBox="0 0 24 25" fill="none" xmlns="http://www.w3.org/2000/svg">
<g clip-path="url(#clip0_312_3287)">
<path d="M20.5977 11.0178C20.5578 10.8394 20.4751 10.6735 20.3567 10.5343C20.2382 10.3952 20.0877 10.2869 19.9181 10.219L15.1199 8.29994L16.1127 1.68026C16.1492 1.44255 16.1085 1.19942 15.9967 0.986528C15.8848 0.773638 15.7077 0.602191 15.4913 0.497336C15.2748 0.392481 15.0305 0.359736 14.7941 0.403904C14.5577 0.448072 14.3417 0.566829 14.1777 0.742755L3.67774 11.9928C3.55293 12.1264 3.46259 12.2885 3.41453 12.4649C3.36648 12.6414 3.36217 12.8269 3.40196 13.0054C3.44176 13.1839 3.52447 13.35 3.64294 13.4893C3.7614 13.6286 3.91204 13.737 4.08181 13.8049L8.87993 15.724L7.88712 22.3465C7.85068 22.5842 7.89136 22.8273 8.00321 23.0402C8.11506 23.2531 8.29219 23.4246 8.50861 23.5294C8.72503 23.6343 8.96935 23.667 9.20575 23.6229C9.44214 23.5787 9.65816 23.4599 9.82212 23.284L20.3221 12.034C20.4475 11.8999 20.5381 11.7373 20.5862 11.5601C20.6342 11.383 20.6382 11.1968 20.5977 11.0178ZM10.6499 19.0962L11.2377 15.1803C11.2753 14.9296 11.2271 14.6737 11.1011 14.4538C10.975 14.234 10.7784 14.0631 10.5431 13.969L6.44431 12.3293L13.3499 4.93057L12.7621 8.84651C12.7246 9.09714 12.7727 9.35311 12.8988 9.57295C13.0249 9.79279 13.2215 9.96362 13.4568 10.0578L17.5556 11.6974L10.6499 19.0962Z" fill="#212B56"/>
</g>
<defs>
<clipPath id="clip0_312_3287">
<rect width="24" height="24" fill="white" transform="translate(0 0.0131836)"/>
</clipPath>
</defs>
</svg>
