<svg width="86" height="87" viewBox="0 0 86 87" fill="none" xmlns="http://www.w3.org/2000/svg">
<circle opacity="0.3" cx="43" cy="43.71" r="42.5" fill="white" stroke="white"/>
<circle opacity="0.6" cx="43" cy="43.7099" r="34.041" fill="white" stroke="white"/>
<circle cx="42.6475" cy="43.3574" r="25.7295" fill="white"/>
<path d="M51.8985 40.2322C51.561 40.2304 51.2264 40.2941 50.9132 40.4197L48.0547 36.8516C48.2897 36.5131 48.4417 36.1242 48.4985 35.7161C48.5552 35.308 48.5151 34.8924 48.3814 34.5027C48.2477 34.113 48.0242 33.7602 47.7289 33.4729C47.4336 33.1857 47.0748 32.9719 46.6816 32.849C46.2883 32.7261 45.8717 32.6975 45.4654 32.7655C45.059 32.8335 44.6744 32.9961 44.3426 33.2403C44.0108 33.4845 43.7411 33.8034 43.5554 34.1711C43.3696 34.5389 43.2731 34.9452 43.2735 35.3572C43.2735 35.4492 43.2782 35.5412 43.2876 35.6328L38.931 37.4478C38.6686 37.1259 38.3335 36.8709 37.9533 36.7037C37.5732 36.5365 37.1588 36.4619 36.7442 36.486C36.3295 36.5101 35.9266 36.6322 35.5683 36.8423C35.2101 37.0525 34.9068 37.3446 34.6835 37.6947C34.4601 38.0448 34.323 38.443 34.2834 38.8564C34.2439 39.2698 34.3029 39.6867 34.4558 40.0729C34.6087 40.459 34.851 40.8034 35.1629 41.0777C35.4748 41.3519 35.8472 41.5483 36.2497 41.6506L36.4232 45.9987C36.0258 46.1344 35.6667 46.3635 35.3761 46.6667C35.0856 46.9699 34.872 47.3384 34.7533 47.7413C34.6347 48.1441 34.6144 48.5695 34.6942 48.9818C34.7741 49.3941 34.9516 49.7813 35.212 50.1107C35.4725 50.4402 35.8081 50.7023 36.1908 50.8752C36.5736 51.0481 36.9922 51.1266 37.4115 51.1042C37.8309 51.0818 38.2387 50.9591 38.6008 50.7464C38.963 50.5337 39.2688 50.2372 39.4926 49.8819L44.0235 51.1512C44.0299 51.5735 44.138 51.9879 44.3387 52.3594C44.5394 52.7309 44.8267 53.0485 45.1764 53.2853C45.526 53.522 45.9276 53.6709 46.3471 53.7194C46.7665 53.7678 47.1915 53.7143 47.5859 53.5635C47.9803 53.4127 48.3325 53.1689 48.6126 52.8529C48.8927 52.5369 49.0924 52.158 49.1948 51.7484C49.2972 51.3388 49.2993 50.9104 49.2009 50.4998C49.1025 50.0892 48.9064 49.7084 48.6294 49.3897L51.1804 45.3819C51.5414 45.4847 51.9203 45.5088 52.2915 45.4527C52.6627 45.3966 53.0175 45.2615 53.3321 45.0566C53.6466 44.8516 53.9135 44.5816 54.1148 44.2648C54.3161 43.9479 54.4471 43.5915 54.4989 43.2197C54.5508 42.8479 54.5223 42.4693 54.4154 42.1095C54.3084 41.7496 54.1256 41.4169 53.8791 41.1337C53.6326 40.8506 53.3283 40.6236 52.9866 40.4681C52.645 40.3125 52.2739 40.2321 51.8985 40.2322ZM46.6485 48.4822H46.5651L45.0482 43.9325L49.4216 43.7244C49.5322 44.0342 49.7001 44.3204 49.9166 44.5681L47.3657 48.5759C47.1321 48.5117 46.8907 48.4802 46.6485 48.4822ZM37.9222 45.9387L37.7488 41.5906C38.1024 41.4688 38.4259 41.2729 38.6976 41.0159L42.6847 43.3259L38.7979 46.3466C38.5337 46.1576 38.2368 46.0193 37.9222 45.9387ZM46.0457 37.9822C46.3335 37.9665 46.6167 37.9031 46.8838 37.7947L49.7422 41.3628C49.5599 41.6246 49.4271 41.9175 49.3504 42.2272L44.9844 42.4353L46.0457 37.9822ZM39.7194 47.5306L43.6485 44.4753L45.1429 48.9594C44.8583 49.16 44.6162 49.4149 44.4304 49.7094L39.8985 48.4381C39.893 48.1274 39.8324 47.8201 39.7194 47.5306ZM45.8985 34.2322C46.121 34.2322 46.3385 34.2982 46.5235 34.4218C46.7085 34.5454 46.8527 34.7211 46.9379 34.9267C47.023 35.1322 47.0453 35.3584 47.0019 35.5767C46.9585 35.7949 46.8513 35.9953 46.694 36.1527C46.5367 36.31 46.3362 36.4172 46.118 36.4606C45.8997 36.504 45.6735 36.4817 45.468 36.3965C45.2624 36.3114 45.0867 36.1672 44.9631 35.9822C44.8395 35.7972 44.7735 35.5797 44.7735 35.3572C44.7735 35.0588 44.892 34.7727 45.103 34.5617C45.314 34.3507 45.6001 34.2322 45.8985 34.2322ZM43.866 37.0166C44.0675 37.2622 44.3114 37.4698 44.586 37.6297L43.5266 42.0781L39.4513 39.7184C39.4993 39.5182 39.5235 39.3131 39.5235 39.1072C39.5235 39.0151 39.5188 38.9231 39.5094 38.8316L43.866 37.0166ZM35.7735 39.1072C35.7735 38.8847 35.8395 38.6672 35.9631 38.4822C36.0867 38.2972 36.2624 38.153 36.468 38.0678C36.6735 37.9827 36.8997 37.9604 37.118 38.0038C37.3362 38.0472 37.5367 38.1544 37.694 38.3117C37.8513 38.469 37.9585 38.6695 38.0019 38.8877C38.0453 39.1059 38.023 39.3321 37.9379 39.5377C37.8527 39.7433 37.7085 39.919 37.5235 40.0426C37.3385 40.1662 37.121 40.2322 36.8985 40.2322C36.6001 40.2322 36.314 40.1137 36.103 39.9027C35.892 39.6917 35.7735 39.4056 35.7735 39.1072ZM37.2735 49.6072C37.051 49.6072 36.8335 49.5412 36.6485 49.4176C36.4635 49.294 36.3193 49.1183 36.2341 48.9127C36.149 48.7071 36.1267 48.4809 36.1701 48.2627C36.2135 48.0445 36.3207 47.844 36.478 47.6867C36.6353 47.5294 36.8358 47.4222 37.054 47.3788C37.2722 47.3354 37.4984 47.3577 37.704 47.4428C37.9096 47.528 38.0853 47.6722 38.2089 47.8572C38.3325 48.0422 38.3985 48.2597 38.3985 48.4822C38.3985 48.7806 38.28 49.0667 38.069 49.2777C37.858 49.4887 37.5719 49.6072 37.2735 49.6072ZM46.6485 52.2322C46.426 52.2322 46.2085 52.1662 46.0235 52.0426C45.8385 51.919 45.6943 51.7433 45.6091 51.5377C45.524 51.3321 45.5017 51.1059 45.5451 50.8877C45.5885 50.6695 45.6957 50.469 45.853 50.3117C46.0103 50.1544 46.2108 50.0472 46.429 50.0038C46.6472 49.9604 46.8734 49.9827 47.079 50.0678C47.2846 50.153 47.4603 50.2972 47.5839 50.4822C47.7075 50.6672 47.7735 50.8847 47.7735 51.1072C47.7735 51.4056 47.655 51.6917 47.444 51.9027C47.233 52.1137 46.9469 52.2322 46.6485 52.2322ZM51.8985 43.9822C51.676 43.9822 51.4585 43.9162 51.2735 43.7926C51.0885 43.669 50.9443 43.4933 50.8591 43.2877C50.774 43.0821 50.7517 42.8559 50.7951 42.6377C50.8385 42.4195 50.9457 42.219 51.103 42.0617C51.2603 41.9044 51.4608 41.7972 51.679 41.7538C51.8972 41.7104 52.1234 41.7327 52.329 41.8178C52.5346 41.903 52.7103 42.0472 52.8339 42.2322C52.9575 42.4172 53.0235 42.6347 53.0235 42.8572C53.0235 43.1556 52.905 43.4417 52.694 43.6527C52.483 43.8637 52.1969 43.9822 51.8985 43.9822Z" fill="#6A717D"/>
</svg>
