<svg width="25" height="22" viewBox="0 0 25 22" fill="none" xmlns="http://www.w3.org/2000/svg">
<g clip-path="url(#clip0_312_3279)">
<path d="M19.875 6.76318H17.25V4.88818C17.25 3.59525 16.7364 2.35528 15.8221 1.44104C14.9079 0.526798 13.6679 0.0131836 12.375 0.0131836C11.0821 0.0131836 9.84209 0.526798 8.92785 1.44104C8.01361 2.35528 7.5 3.59525 7.5 4.88818V6.76318H4.875C4.37772 6.76318 3.90081 6.96073 3.54917 7.31236C3.19754 7.66399 3 8.1409 3 8.63818V19.1382C3 19.6355 3.19754 20.1124 3.54917 20.464C3.90081 20.8156 4.37772 21.0132 4.875 21.0132H19.875C20.3723 21.0132 20.8492 20.8156 21.2008 20.464C21.5525 20.1124 21.75 19.6355 21.75 19.1382V8.63818C21.75 8.1409 21.5525 7.66399 21.2008 7.31236C20.8492 6.96073 20.3723 6.76318 19.875 6.76318ZM9.75 4.88818C9.75 4.19199 10.0266 3.52431 10.5188 3.03203C11.0111 2.53975 11.6788 2.26318 12.375 2.26318C13.0712 2.26318 13.7389 2.53975 14.2312 3.03203C14.7234 3.52431 15 4.19199 15 4.88818V6.76318H9.75V4.88818ZM19.5 18.7632H5.25V9.01318H19.5V18.7632ZM13.875 13.8882C13.875 14.1849 13.787 14.4749 13.6222 14.7215C13.4574 14.9682 13.2231 15.1605 12.949 15.274C12.6749 15.3875 12.3733 15.4172 12.0824 15.3594C11.7914 15.3015 11.5241 15.1586 11.3143 14.9488C11.1046 14.7391 10.9617 14.4718 10.9038 14.1808C10.8459 13.8898 10.8756 13.5882 10.9892 13.3142C11.1027 13.0401 11.295 12.8058 11.5416 12.641C11.7883 12.4762 12.0783 12.3882 12.375 12.3882C12.7728 12.3882 13.1544 12.5462 13.4357 12.8275C13.717 13.1088 13.875 13.4904 13.875 13.8882Z" fill="#212B56"/>
</g>
<defs>
<clipPath id="clip0_312_3279">
<rect width="24.75" height="21" fill="white" transform="translate(0 0.0131836)"/>
</clipPath>
</defs>
</svg>
