<svg width="86" height="87" viewBox="0 0 86 87" fill="none" xmlns="http://www.w3.org/2000/svg">
<circle opacity="0.3" cx="43" cy="43.71" r="42.5" fill="white" stroke="white"/>
<circle opacity="0.6" cx="43" cy="43.7099" r="34.041" fill="white" stroke="white"/>
<circle cx="42.6475" cy="43.3574" r="25.7295" fill="white"/>
<path d="M36.0208 38.0558H36.0333V38.0433V35.3766C36.0333 33.5355 36.6854 31.9665 37.9898 30.6688C39.2942 29.3712 40.8715 28.7225 42.7222 28.7225C44.573 28.7225 46.1502 29.3712 47.4546 30.6688C48.7591 31.9665 49.4111 33.5355 49.4111 35.3766V38.0433V38.0558H49.4236H50.7639C51.4977 38.0558 52.1256 38.3156 52.6482 38.8355C53.1708 39.3554 53.4319 39.98 53.4319 40.71V54.0433C53.4319 54.7733 53.1708 55.3979 52.6482 55.9178C52.1256 56.4377 51.4977 56.6975 50.7639 56.6975H34.6806C33.9467 56.6975 33.3188 56.4377 32.7962 55.9178C32.2736 55.3979 32.0125 54.7733 32.0125 54.0433V40.71C32.0125 39.98 32.2736 39.3554 32.7962 38.8355C33.3188 38.3156 33.9467 38.0558 34.6806 38.0558H36.0208ZM34.6681 54.0433V54.0558H34.6806H50.7639H50.7764V54.0433V40.71V40.6975H50.7639H34.6806H34.6681V40.71V54.0433ZM38.6889 38.0433V38.0558H38.7014H46.7431H46.7556V38.0433V35.3766C46.7556 34.2622 46.3633 33.3146 45.5791 32.5344C44.7949 31.7543 43.8424 31.3641 42.7222 31.3641C41.6021 31.3641 40.6495 31.7543 39.8653 32.5344C39.0811 33.3146 38.6889 34.2622 38.6889 35.3766V38.0433ZM44.6065 49.2511C44.0839 49.771 43.4561 50.0308 42.7222 50.0308C41.9884 50.0308 41.3605 49.771 40.8379 49.2511C40.3153 48.7312 40.0542 48.1066 40.0542 47.3766C40.0542 46.6467 40.3153 46.0221 40.8379 45.5022C41.3605 44.9823 41.9884 44.7225 42.7222 44.7225C43.4561 44.7225 44.0839 44.9823 44.6065 45.5022C45.1292 46.0221 45.3903 46.6467 45.3903 47.3766C45.3903 48.1066 45.1292 48.7312 44.6065 49.2511Z" fill="#6A717D" stroke="#E9EAEE" stroke-width="0.025"/>
<mask id="mask0_312_3706" style="mask-type:alpha" maskUnits="userSpaceOnUse" x="27" y="27" width="32" height="33">
<rect x="27.5" y="28.21" width="31" height="31" fill="#D9D9D9" stroke="#E9EAEE"/>
</mask>
<g mask="url(#mask0_312_3706)">
</g>
</svg>
